# Blender 5.2.2 LTS
# www.blender.org
mtllib front_wheels.mtl
o front_wheels
v -0.180889 0.075944 0.055177
v -0.167229 0.262918 0.000000
v -0.167229 0.250050 0.081246
v -0.167229 0.212705 0.154539
v -0.176511 0.111966 0.056511
v -0.167344 0.220178 0.000000
v -0.167344 0.209402 0.068039
v -0.167344 0.178128 0.129417
v -0.171258 0.148845 0.074212
v -0.168499 0.196018 0.000000
v -0.168499 0.186425 0.060573
v -0.168499 0.158582 0.115217
v -0.180525 0.091824 0.029835
v -0.180525 0.096549 0.000000
v -0.173917 0.048261 0.000000
v -0.173917 0.045899 0.014913
v -0.173917 0.039044 0.028367
v -0.147533 -0.000000 0.000000
v -0.177550 0.250076 0.081255
v -0.177550 0.262944 0.000000
v -0.177550 0.212726 0.154555
v -0.177665 0.209428 0.068047
v -0.177665 0.220204 0.000000
v -0.177665 0.178149 0.129433
v -0.161022 0.315689 0.102574
v -0.179494 0.297182 0.096560
v -0.161022 0.331934 0.000000
v -0.179494 0.312474 0.000000
v -0.179494 0.252797 0.183668
v -0.161022 0.268540 0.195106
v 0.180758 -0.000000 0.000000
v 0.180758 0.290052 0.094243
v 0.154133 0.315689 0.102574
v 0.180758 0.304977 0.000000
v 0.154133 0.331934 0.000000
v 0.154133 0.268540 0.195106
v 0.180758 0.246731 0.179261
v -0.180889 0.075944 -0.055177
v -0.167229 0.250050 -0.081246
v -0.167229 0.212705 -0.154539
v -0.176511 0.111966 -0.056511
v -0.167344 0.209402 -0.068039
v -0.167344 0.178128 -0.129417
v -0.171258 0.148845 -0.074213
v -0.168499 0.186425 -0.060573
v -0.168499 0.158582 -0.115217
v -0.180525 0.091824 -0.029835
v -0.173917 0.045899 -0.014914
v -0.173917 0.039044 -0.028367
v -0.177550 0.250076 -0.081255
v -0.177550 0.212726 -0.154555
v -0.177665 0.209428 -0.068047
v -0.177665 0.178149 -0.129433
v -0.161022 0.315689 -0.102574
v -0.179494 0.297182 -0.096560
v -0.179494 0.252797 -0.183668
v -0.161022 0.268540 -0.195106
v 0.180758 0.290052 -0.094243
v 0.154133 0.315689 -0.102574
v 0.154133 0.268540 -0.195106
v 0.180758 0.246731 -0.179261
v -0.180889 -0.029008 0.089278
v -0.167229 0.081246 0.250050
v -0.167229 -0.000000 0.262918
v -0.167229 -0.081246 0.250050
v -0.176511 -0.019146 0.123949
v -0.167344 0.068039 0.209402
v -0.167344 -0.000000 0.220178
v -0.167344 -0.068039 0.209402
v -0.171258 -0.024585 0.164493
v -0.168499 0.060573 0.186425
v -0.168499 -0.000000 0.196018
v -0.168499 -0.060573 0.186425
v -0.180525 -0.000000 0.096549
v -0.180525 0.029835 0.091824
v -0.173917 0.014913 0.045899
v -0.173917 -0.000000 0.048261
v -0.173917 -0.014913 0.045899
v -0.177550 -0.000000 0.262945
v -0.177550 0.081254 0.250075
v -0.177550 -0.081254 0.250075
v -0.177665 -0.000000 0.220206
v -0.177665 0.068047 0.209427
v -0.177665 -0.068047 0.209427
v -0.161022 -0.000000 0.331935
v -0.179494 -0.000000 0.312476
v -0.161022 0.102573 0.315688
v -0.179494 0.096560 0.297181
v -0.179494 -0.096560 0.297181
v -0.161022 -0.102573 0.315688
v 0.180758 -0.000000 0.304978
v 0.154133 -0.000000 0.331935
v 0.180758 0.094243 0.290050
v 0.154133 0.102573 0.315688
v 0.154133 -0.102573 0.315688
v 0.180758 -0.094243 0.290050
v -0.167229 0.154539 0.212705
v -0.176511 0.088345 0.089023
v -0.167344 0.129417 0.178128
v -0.171258 0.116576 0.118627
v -0.168499 0.115217 0.158582
v -0.180525 0.056750 0.078110
v -0.173917 0.028367 0.039044
v -0.177550 0.154555 0.212727
v -0.177665 0.129434 0.178150
v -0.161022 0.195107 0.268541
v -0.179494 0.183669 0.252798
v 0.180758 0.179262 0.246733
v 0.154133 0.195107 0.268541
v -0.180889 -0.093872 0.000000
v -0.167229 -0.212705 0.154539
v -0.167229 -0.250050 0.081246
v -0.167229 -0.262918 -0.000000
v -0.176511 -0.123799 0.020094
v -0.167344 -0.178128 0.129417
v -0.167344 -0.209402 0.068039
v -0.167344 -0.220178 0.000000
v -0.171258 -0.164039 0.027450
v -0.168499 -0.158582 0.115217
v -0.168499 -0.186425 0.060573
v -0.168499 -0.196018 0.000000
v -0.180525 -0.091824 0.029835
v -0.180525 -0.078110 0.056750
v -0.173917 -0.039044 0.028367
v -0.173917 -0.045899 0.014913
v -0.173917 -0.048261 0.000000
v -0.177550 -0.250076 0.081255
v -0.177550 -0.212726 0.154555
v -0.177550 -0.262944 -0.000000
v -0.177665 -0.209428 0.068047
v -0.177665 -0.178149 0.129433
v -0.177665 -0.220204 0.000000
v -0.161022 -0.315689 0.102574
v -0.179494 -0.297182 0.096560
v -0.161022 -0.268540 0.195106
v -0.179494 -0.252797 0.183668
v -0.179494 -0.312474 -0.000000
v -0.161022 -0.331934 -0.000000
v 0.180758 -0.290052 0.094243
v 0.154133 -0.315689 0.102574
v 0.180758 -0.246731 0.179261
v 0.154133 -0.268540 0.195106
v 0.154133 -0.331934 -0.000000
v 0.180758 -0.304977 -0.000000
v -0.167229 -0.154539 0.212705
v -0.176511 -0.057366 0.111531
v -0.167344 -0.129417 0.178128
v -0.171258 -0.076797 0.147528
v -0.168499 -0.115217 0.158582
v -0.180525 -0.056750 0.078110
v -0.173917 -0.028367 0.039044
v -0.177550 -0.154555 0.212727
v -0.177665 -0.129434 0.178150
v -0.161022 -0.195107 0.268541
v -0.179494 -0.183669 0.252798
v 0.180758 -0.179262 0.246733
v 0.154133 -0.195107 0.268541
v -0.180889 -0.029008 -0.089278
v -0.167229 -0.212705 -0.154539
v -0.167229 -0.154539 -0.212705
v -0.167229 -0.081246 -0.250050
v -0.176511 -0.057366 -0.111531
v -0.167344 -0.178128 -0.129417
v -0.167344 -0.129417 -0.178128
v -0.167344 -0.068039 -0.209402
v -0.171258 -0.076797 -0.147528
v -0.168499 -0.158582 -0.115217
v -0.168499 -0.115217 -0.158582
v -0.168499 -0.060573 -0.186425
v -0.180525 -0.056750 -0.078110
v -0.180525 -0.078110 -0.056750
v -0.173917 -0.039044 -0.028367
v -0.173917 -0.028367 -0.039044
v -0.173917 -0.014913 -0.045899
v -0.177550 -0.154555 -0.212727
v -0.177550 -0.212726 -0.154555
v -0.177550 -0.081254 -0.250075
v -0.177665 -0.129434 -0.178150
v -0.177665 -0.178149 -0.129433
v -0.177665 -0.068047 -0.209427
v -0.161022 -0.195107 -0.268541
v -0.179494 -0.183669 -0.252798
v -0.161022 -0.268540 -0.195106
v -0.179494 -0.252797 -0.183668
v -0.179494 -0.096560 -0.297181
v -0.161022 -0.102573 -0.315688
v 0.180758 -0.179262 -0.246733
v 0.154133 -0.195107 -0.268541
v 0.180758 -0.246731 -0.179261
v 0.154133 -0.268540 -0.195106
v 0.154133 -0.102573 -0.315688
v 0.180758 -0.094243 -0.290050
v -0.167229 -0.250050 -0.081246
v -0.176511 -0.123799 -0.020094
v -0.167344 -0.209402 -0.068039
v -0.171258 -0.164039 -0.027450
v -0.168499 -0.186425 -0.060573
v -0.180525 -0.091824 -0.029835
v -0.173917 -0.045899 -0.014913
v -0.177550 -0.250076 -0.081255
v -0.177665 -0.209428 -0.068047
v -0.161022 -0.315689 -0.102574
v -0.179494 -0.297182 -0.096560
v 0.180758 -0.290052 -0.094244
v 0.154133 -0.315689 -0.102574
v -0.167229 0.081246 -0.250050
v -0.167229 0.154539 -0.212705
v -0.176511 0.088345 -0.089023
v -0.167344 0.068039 -0.209402
v -0.167344 0.129417 -0.178128
v -0.171258 0.116576 -0.118627
v -0.168499 0.060573 -0.186425
v -0.168499 0.115217 -0.158582
v -0.180525 0.056750 -0.078110
v -0.180525 0.029835 -0.091824
v -0.173917 0.014913 -0.045899
v -0.173917 0.028367 -0.039044
v -0.177550 0.154556 -0.212727
v -0.177550 0.081254 -0.250075
v -0.177665 0.129434 -0.178150
v -0.177665 0.068047 -0.209427
v -0.161022 0.195107 -0.268541
v -0.179494 0.183669 -0.252798
v -0.161022 0.102573 -0.315688
v -0.179494 0.096560 -0.297181
v 0.180758 0.179262 -0.246733
v 0.154133 0.195107 -0.268541
v 0.180758 0.094243 -0.290050
v 0.154133 0.102573 -0.315688
v -0.167229 0.000000 -0.262918
v -0.176511 -0.019146 -0.123949
v -0.167344 0.000000 -0.220178
v -0.171258 -0.024585 -0.164493
v -0.168499 0.000000 -0.196018
v -0.180525 -0.000000 -0.096549
v -0.173917 -0.000000 -0.048261
v -0.177550 0.000000 -0.262945
v -0.177665 0.000000 -0.220206
v -0.161022 0.000000 -0.331935
v -0.179494 0.000000 -0.312476
v 0.180758 0.000000 -0.304978
v 0.154133 0.000000 -0.331935
vn -0.9971 0.0614 0.0446
vn -0.9970 0.0736 0.0258
vn -0.9929 0.1057 0.0545
vn -0.0000 -0.5878 0.8090
vn 0.0026 0.9511 0.3090
vn 0.0026 0.8910 0.4540
vn -1.0000 0.0095 0.0022
vn -1.0000 -0.0027 -0.0020
vn -0.9920 0.1127 0.0576
vn -0.9989 0.0477 -0.0000
vn -0.9968 0.0803 -0.0000
vn -0.9989 0.0454 0.0148
vn -0.9989 0.0386 0.0281
vn -1.0000 0.0049 -0.0000
vn -0.9908 -0.1356 -0.0000
vn -0.9904 -0.1286 -0.0510
vn -0.9893 -0.1179 -0.0857
vn -0.8774 -0.4562 -0.1482
vn -1.0000 -0.0000 -0.0000
vn -0.8774 -0.3881 -0.2820
vn -0.8774 -0.4797 -0.0000
vn -1.0000 0.0027 -0.0000
vn -1.0000 0.0026 0.0008
vn -1.0000 0.0024 0.0012
vn -0.0026 -0.9511 -0.3090
vn -0.0026 -1.0000 -0.0000
vn 0.0026 1.0000 -0.0000
vn -0.0026 -0.8910 -0.4540
vn -0.7253 0.6548 0.2127
vn -0.7253 0.6885 -0.0000
vn -0.7253 0.5570 0.4047
vn -0.9992 -0.0317 -0.0231
vn -0.9992 -0.0373 -0.0121
vn -0.9992 -0.0392 -0.0000
vn 1.0000 -0.0000 -0.0000
vn 0.7115 0.6683 0.2172
vn 0.7115 0.7027 -0.0000
vn 0.7115 0.5685 0.4130
vn -0.0000 0.8090 0.5878
vn -0.0000 0.9511 0.3090
vn -0.0000 1.0000 -0.0000
vn -0.9971 0.0614 -0.0446
vn -0.9929 0.1057 -0.0545
vn -0.9970 0.0736 -0.0258
vn -0.0000 -0.5878 -0.8090
vn 0.0026 0.9511 -0.3090
vn 0.0026 0.8910 -0.4540
vn -1.0000 0.0095 -0.0022
vn -0.9920 0.1127 -0.0576
vn -1.0000 -0.0027 0.0020
vn -0.9989 0.0454 -0.0148
vn -0.9989 0.0386 -0.0281
vn -0.9904 -0.1286 0.0510
vn -0.9893 -0.1179 0.0857
vn -0.8774 -0.4562 0.1482
vn -0.8774 -0.3881 0.2820
vn -1.0000 0.0026 -0.0008
vn -1.0000 0.0024 -0.0012
vn -0.0026 -0.9511 0.3090
vn -0.0026 -0.8910 0.4540
vn -0.7253 0.6548 -0.2127
vn -0.7253 0.5570 -0.4047
vn -0.9992 -0.0317 0.0231
vn -0.9992 -0.0373 0.0121
vn 0.7115 0.6683 -0.2172
vn 0.7115 0.5685 -0.4130
vn -0.0000 0.8090 -0.5878
vn -0.0000 0.9511 -0.3090
vn -0.9971 -0.0234 0.0722
vn -0.9970 -0.0018 0.0779
vn -0.9929 -0.0192 0.1173
vn -0.0000 -0.9511 -0.3090
vn 0.0026 -0.0000 1.0000
vn 0.0026 -0.1564 0.9877
vn -1.0000 0.0009 0.0097
vn -1.0000 0.0010 -0.0032
vn -0.9920 -0.0199 0.1250
vn -0.9989 0.0148 0.0454
vn -0.9968 0.0248 0.0764
vn -0.9989 -0.0000 0.0477
vn -0.9989 -0.0148 0.0454
vn -1.0000 0.0015 0.0047
vn -0.9908 -0.0419 -0.1290
vn -0.9904 0.0088 -0.1381
vn -0.9893 0.0450 -0.1386
vn -0.8774 -0.0000 -0.4797
vn -0.8774 0.1482 -0.4562
vn -0.8774 -0.1482 -0.4562
vn -1.0000 0.0008 0.0026
vn -1.0000 -0.0000 0.0027
vn -1.0000 -0.0004 0.0027
vn -0.0026 -0.0000 -1.0000
vn -0.0026 -0.3090 -0.9511
vn 0.0026 0.3090 0.9511
vn -0.0026 0.1564 -0.9877
vn -0.7253 -0.0000 0.6884
vn -0.7253 0.2127 0.6548
vn -0.7253 -0.2127 0.6548
vn -0.9992 0.0121 -0.0373
vn -0.9992 -0.0000 -0.0392
vn -0.9992 -0.0121 -0.0373
vn 0.7115 -0.0000 0.7027
vn 0.7115 0.2172 0.6683
vn 0.7115 -0.2172 0.6683
vn -0.0000 -0.3090 0.9511
vn -0.0000 -0.0000 1.0000
vn -0.0000 0.3090 0.9511
vn -0.9929 0.0845 0.0836
vn -0.9970 0.0473 0.0620
vn 0.0026 0.5878 0.8090
vn 0.0026 0.7071 0.7071
vn -1.0000 0.0050 0.0083
vn -0.9920 0.0896 0.0894
vn -0.9989 0.0281 0.0386
vn -0.9904 -0.0883 -0.1066
vn -0.8774 -0.2820 -0.3881
vn -1.0000 0.0016 0.0022
vn -1.0000 0.0019 0.0019
vn -0.0026 -0.5878 -0.8090
vn -0.0026 -0.7071 -0.7071
vn -0.7253 0.4047 0.5570
vn -0.9992 -0.0231 -0.0317
vn 0.7115 0.4130 0.5685
vn -0.0000 0.5878 0.8090
vn -0.9971 -0.0759 -0.0000
vn -0.9970 -0.0747 0.0224
vn -0.9929 -0.1175 0.0180
vn -0.0000 -0.0000 -1.0000
vn 0.0026 -0.9511 0.3090
vn 0.0026 -0.9877 0.1564
vn -1.0000 -0.0089 0.0038
vn -1.0000 0.0033 -0.0000
vn -0.9920 -0.1250 0.0197
vn -0.9989 -0.0386 0.0281
vn -0.9968 -0.0650 0.0472
vn -0.9989 -0.0454 0.0148
vn -0.9989 -0.0477 -0.0000
vn -1.0000 -0.0040 0.0029
vn -0.9908 0.1097 -0.0797
vn -0.9904 0.1341 -0.0343
vn -0.9893 0.1457 -0.0000
vn -0.8774 0.4562 -0.1482
vn -0.8774 0.4797 -0.0000
vn -0.8774 0.3881 -0.2820
vn -1.0000 -0.0022 0.0016
vn -1.0000 -0.0026 0.0008
vn -1.0000 -0.0027 0.0004
vn -0.0026 0.9511 -0.3090
vn -0.0026 0.8090 -0.5878
vn 0.0026 -0.8090 0.5878
vn -0.0026 0.9877 -0.1564
vn -0.7253 -0.6548 0.2127
vn -0.7253 -0.5570 0.4047
vn -0.7253 -0.6885 -0.0000
vn -0.9992 0.0392 -0.0000
vn -0.9992 0.0373 -0.0121
vn -0.9992 0.0317 -0.0231
vn 0.7115 -0.6683 0.2172
vn 0.7115 -0.5685 0.4130
vn 0.7115 -0.7027 -0.0000
vn -0.0000 -1.0000 -0.0000
vn -0.0000 -0.9511 0.3090
vn -0.0000 -0.8090 0.5878
vn -0.9929 -0.0534 0.1062
vn -0.9970 -0.0444 0.0641
vn 0.0026 -0.5878 0.8090
vn 0.0026 -0.4540 0.8910
vn -1.0000 -0.0064 0.0073
vn -0.9920 -0.0574 0.1128
vn -0.9989 -0.0281 0.0386
vn -0.9904 0.0741 -0.1169
vn -0.8774 0.2820 -0.3881
vn -1.0000 -0.0016 0.0022
vn -1.0000 -0.0012 0.0024
vn -0.0026 0.5878 -0.8090
vn -0.0026 0.4540 -0.8910
vn -0.7253 -0.4047 0.5570
vn -0.9992 0.0231 -0.0317
vn 0.7115 -0.4130 0.5685
vn -0.9971 -0.0234 -0.0722
vn -0.9970 -0.0444 -0.0641
vn -0.9929 -0.0534 -0.1062
vn 0.0026 -0.5878 -0.8090
vn 0.0026 -0.4540 -0.8910
vn -1.0000 -0.0064 -0.0073
vn -1.0000 0.0010 0.0032
vn -0.9920 -0.0573 -0.1128
vn -0.9989 -0.0386 -0.0281
vn -0.9968 -0.0650 -0.0472
vn -0.9989 -0.0281 -0.0386
vn -0.9989 -0.0148 -0.0454
vn -1.0000 -0.0040 -0.0029
vn -0.9908 0.1097 0.0797
vn -0.9904 0.0741 0.1169
vn -0.9893 0.0450 0.1386
vn -0.8774 0.2820 0.3881
vn -0.8774 0.1482 0.4562
vn -0.8774 0.3881 0.2820
vn -1.0000 -0.0022 -0.0016
vn -1.0000 -0.0016 -0.0022
vn -1.0000 -0.0012 -0.0024
vn -0.0026 0.5878 0.8090
vn -0.0026 0.8090 0.5878
vn 0.0026 -0.8090 -0.5878
vn -0.0026 0.4540 0.8910
vn -0.7253 -0.4047 -0.5570
vn -0.7253 -0.5570 -0.4047
vn -0.7253 -0.2127 -0.6548
vn -0.9992 0.0121 0.0373
vn -0.9992 0.0231 0.0317
vn -0.9992 0.0317 0.0231
vn 0.7115 -0.4130 -0.5685
vn 0.7115 -0.5685 -0.4130
vn 0.7115 -0.2172 -0.6683
vn -0.0000 -0.3090 -0.9511
vn -0.0000 -0.8090 -0.5878
vn -0.9929 -0.1175 -0.0180
vn -0.9970 -0.0747 -0.0224
vn 0.0026 -0.9511 -0.3090
vn 0.0026 -0.9877 -0.1564
vn -1.0000 -0.0089 -0.0038
vn -0.9920 -0.1250 -0.0197
vn -0.9989 -0.0454 -0.0148
vn -0.9904 0.1341 0.0343
vn -0.8774 0.4562 0.1482
vn -1.0000 -0.0026 -0.0008
vn -1.0000 -0.0027 -0.0004
vn -0.0026 0.9511 0.3090
vn -0.0026 0.9877 0.1564
vn -0.7253 -0.6548 -0.2127
vn -0.9992 0.0373 0.0121
vn 0.7115 -0.6683 -0.2172
vn -0.9970 0.0473 -0.0620
vn -0.9929 0.0845 -0.0836
vn 0.0026 0.5878 -0.8090
vn 0.0026 0.7071 -0.7071
vn -1.0000 0.0050 -0.0083
vn -0.9920 0.0896 -0.0894
vn -0.9989 0.0148 -0.0454
vn -0.9968 0.0248 -0.0764
vn -0.9989 0.0281 -0.0386
vn -1.0000 0.0015 -0.0047
vn -0.9908 -0.0419 0.1290
vn -0.9904 -0.0883 0.1066
vn -0.8774 -0.2820 0.3881
vn -0.8774 -0.1482 0.4562
vn -1.0000 0.0008 -0.0026
vn -1.0000 0.0016 -0.0022
vn -1.0000 0.0019 -0.0019
vn -0.0026 -0.5878 0.8090
vn -0.0026 -0.3090 0.9511
vn 0.0026 0.3090 -0.9511
vn -0.0026 -0.7071 0.7071
vn -0.7253 0.4047 -0.5570
vn -0.7253 0.2127 -0.6548
vn -0.9992 -0.0231 0.0317
vn -0.9992 -0.0121 0.0373
vn 0.7115 0.4130 -0.5685
vn 0.7115 0.2172 -0.6683
vn -0.0000 0.5878 -0.8090
vn -0.0000 0.3090 -0.9511
vn -0.9929 -0.0192 -0.1173
vn -0.9970 -0.0018 -0.0779
vn 0.0026 -0.0000 -1.0000
vn 0.0026 -0.1564 -0.9877
vn -1.0000 0.0009 -0.0097
vn -0.9920 -0.0199 -0.1250
vn -0.9989 -0.0000 -0.0477
vn -0.9904 0.0088 0.1381
vn -0.8774 -0.0000 0.4797
vn -1.0000 -0.0000 -0.0027
vn -1.0000 -0.0004 -0.0027
vn -0.0026 -0.0000 1.0000
vn -0.0026 0.1564 0.9877
vn -0.7253 -0.0000 -0.6884
vn -0.9992 -0.0000 0.0392
vn 0.7115 -0.0000 -0.7027
vt 0.000000 0.000000
s 1
usemtl empty
f 4/1/4 21/1/4 24/1/4 8/1/4
f 3/1/5 19/1/5 21/1/6 4/1/6
f 10/1/11 14/1/14 13/1/7 11/1/2
f 11/1/2 13/1/7 5/1/9 9/1/3
f 2/1/27 20/1/27 19/1/5 3/1/5
f 40/1/45 43/1/45 53/1/45 51/1/45
f 39/1/46 40/1/47 51/1/47 50/1/46
f 10/1/11 45/1/44 47/1/48 14/1/14
f 45/1/44 44/1/43 41/1/49 47/1/48
f 2/1/27 39/1/46 50/1/46 20/1/27
f 65/1/72 81/1/72 84/1/72 69/1/72
f 64/1/73 79/1/73 81/1/74 65/1/74
f 71/1/79 75/1/82 74/1/75 72/1/70
f 72/1/70 74/1/75 66/1/77 70/1/71
f 63/1/94 80/1/94 79/1/73 64/1/73
f 97/1/110 4/1/111 21/1/111 104/1/110
f 71/1/79 101/1/109 102/1/112 75/1/82
f 101/1/109 100/1/108 98/1/113 102/1/112
f 63/1/94 97/1/110 104/1/110 80/1/94
f 113/1/128 129/1/128 132/1/128 117/1/128
f 112/1/129 127/1/129 129/1/130 113/1/130
f 119/1/135 123/1/138 122/1/131 120/1/126
f 120/1/126 122/1/131 114/1/133 118/1/127
f 111/1/150 128/1/150 127/1/129 112/1/129
f 145/1/166 65/1/167 81/1/167 152/1/166
f 119/1/135 149/1/165 150/1/168 123/1/138
f 149/1/165 148/1/164 146/1/169 150/1/168
f 111/1/150 145/1/166 152/1/166 128/1/150
f 161/1/68 177/1/68 180/1/68 165/1/68
f 160/1/183 175/1/183 177/1/184 161/1/184
f 167/1/189 171/1/192 170/1/185 168/1/181
f 168/1/181 170/1/185 162/1/187 166/1/182
f 159/1/204 176/1/204 175/1/183 160/1/183
f 193/1/219 113/1/220 129/1/220 200/1/219
f 167/1/189 197/1/218 198/1/221 171/1/192
f 197/1/218 196/1/217 194/1/222 198/1/221
f 159/1/204 193/1/219 200/1/219 176/1/204
f 207/1/235 218/1/235 51/1/236 40/1/236
f 212/1/240 215/1/242 214/1/237 213/1/233
f 213/1/233 214/1/237 208/1/238 211/1/234
f 206/1/252 219/1/252 218/1/235 207/1/235
f 230/1/264 161/1/265 177/1/265 237/1/264
f 212/1/240 234/1/263 235/1/266 215/1/242
f 234/1/263 233/1/262 231/1/267 235/1/266
f 206/1/252 230/1/264 237/1/264 219/1/252
usemtl chrome
f 12/1/1 11/1/2 9/1/3
f 13/1/7 1/1/8 5/1/9
f 6/1/10 10/1/11 11/1/2 7/1/12
f 7/1/12 11/1/2 12/1/1 8/1/13
f 14/1/14 15/1/15 16/1/16 13/1/7
f 13/1/7 16/1/16 17/1/17 1/1/8
f 1/1/8 12/1/1 9/1/3 5/1/9
f 16/1/18 18/1/19 17/1/20
f 15/1/21 18/1/19 16/1/18
f 20/1/22 23/1/22 22/1/23 19/1/23
f 19/1/23 22/1/23 24/1/24 21/1/24
f 7/1/25 22/1/25 23/1/26 6/1/26
f 8/1/28 24/1/28 22/1/25 7/1/25
f 46/1/42 44/1/43 45/1/44
f 47/1/48 41/1/49 38/1/50
f 6/1/10 42/1/51 45/1/44 10/1/11
f 42/1/51 43/1/52 46/1/42 45/1/44
f 14/1/14 47/1/48 48/1/53 15/1/15
f 47/1/48 38/1/50 49/1/54 48/1/53
f 38/1/50 41/1/49 44/1/43 46/1/42
f 48/1/55 49/1/56 18/1/19
f 15/1/21 48/1/55 18/1/19
f 20/1/22 50/1/57 52/1/57 23/1/22
f 50/1/57 51/1/58 53/1/58 52/1/57
f 42/1/59 6/1/26 23/1/26 52/1/59
f 43/1/60 42/1/59 52/1/59 53/1/60
f 73/1/69 72/1/70 70/1/71
f 74/1/75 62/1/76 66/1/77
f 67/1/78 71/1/79 72/1/70 68/1/80
f 68/1/80 72/1/70 73/1/69 69/1/81
f 75/1/82 76/1/83 77/1/84 74/1/75
f 74/1/75 77/1/84 78/1/85 62/1/76
f 62/1/76 73/1/69 70/1/71 66/1/77
f 77/1/86 18/1/19 78/1/87
f 76/1/88 18/1/19 77/1/86
f 80/1/89 83/1/89 82/1/90 79/1/90
f 79/1/90 82/1/90 84/1/91 81/1/91
f 68/1/92 82/1/92 83/1/93 67/1/93
f 69/1/95 84/1/95 82/1/92 68/1/92
f 12/1/1 100/1/108 101/1/109
f 102/1/112 98/1/113 1/1/8
f 67/1/78 99/1/114 101/1/109 71/1/79
f 99/1/114 8/1/13 12/1/1 101/1/109
f 75/1/82 102/1/112 103/1/115 76/1/83
f 102/1/112 1/1/8 17/1/17 103/1/115
f 1/1/8 98/1/113 100/1/108 12/1/1
f 103/1/116 17/1/20 18/1/19
f 76/1/88 103/1/116 18/1/19
f 80/1/89 104/1/117 105/1/117 83/1/89
f 104/1/117 21/1/118 24/1/118 105/1/117
f 99/1/119 67/1/93 83/1/93 105/1/119
f 8/1/120 99/1/119 105/1/119 24/1/120
f 121/1/125 120/1/126 118/1/127
f 122/1/131 110/1/132 114/1/133
f 115/1/134 119/1/135 120/1/126 116/1/136
f 116/1/136 120/1/126 121/1/125 117/1/137
f 123/1/138 124/1/139 125/1/140 122/1/131
f 122/1/131 125/1/140 126/1/141 110/1/132
f 110/1/132 121/1/125 118/1/127 114/1/133
f 125/1/142 18/1/19 126/1/143
f 124/1/144 18/1/19 125/1/142
f 128/1/145 131/1/145 130/1/146 127/1/146
f 127/1/146 130/1/146 132/1/147 129/1/147
f 116/1/148 130/1/148 131/1/149 115/1/149
f 117/1/151 132/1/151 130/1/148 116/1/148
f 73/1/69 148/1/164 149/1/165
f 150/1/168 146/1/169 62/1/76
f 115/1/134 147/1/170 149/1/165 119/1/135
f 147/1/170 69/1/81 73/1/69 149/1/165
f 123/1/138 150/1/168 151/1/171 124/1/139
f 150/1/168 62/1/76 78/1/85 151/1/171
f 62/1/76 146/1/169 148/1/164 73/1/69
f 151/1/172 78/1/87 18/1/19
f 124/1/144 151/1/172 18/1/19
f 128/1/145 152/1/173 153/1/173 131/1/145
f 152/1/173 81/1/174 84/1/174 153/1/173
f 147/1/175 115/1/149 131/1/149 153/1/175
f 69/1/176 147/1/175 153/1/175 84/1/176
f 169/1/180 168/1/181 166/1/182
f 170/1/185 158/1/186 162/1/187
f 163/1/188 167/1/189 168/1/181 164/1/190
f 164/1/190 168/1/181 169/1/180 165/1/191
f 171/1/192 172/1/193 173/1/194 170/1/185
f 170/1/185 173/1/194 174/1/195 158/1/186
f 158/1/186 169/1/180 166/1/182 162/1/187
f 173/1/196 18/1/19 174/1/197
f 172/1/198 18/1/19 173/1/196
f 176/1/199 179/1/199 178/1/200 175/1/200
f 175/1/200 178/1/200 180/1/201 177/1/201
f 164/1/202 178/1/202 179/1/203 163/1/203
f 165/1/205 180/1/205 178/1/202 164/1/202
f 121/1/125 196/1/217 197/1/218
f 198/1/221 194/1/222 110/1/132
f 163/1/188 195/1/223 197/1/218 167/1/189
f 195/1/223 117/1/137 121/1/125 197/1/218
f 171/1/192 198/1/221 199/1/224 172/1/193
f 198/1/221 110/1/132 126/1/141 199/1/224
f 110/1/132 194/1/222 196/1/217 121/1/125
f 199/1/225 126/1/143 18/1/19
f 172/1/198 199/1/225 18/1/19
f 176/1/199 200/1/226 201/1/226 179/1/199
f 200/1/226 129/1/227 132/1/227 201/1/226
f 195/1/228 163/1/203 179/1/203 201/1/228
f 117/1/229 195/1/228 201/1/228 132/1/229
f 46/1/42 213/1/233 211/1/234
f 214/1/237 38/1/50 208/1/238
f 209/1/239 212/1/240 213/1/233 210/1/241
f 210/1/241 213/1/233 46/1/42 43/1/52
f 215/1/242 216/1/243 217/1/244 214/1/237
f 214/1/237 217/1/244 49/1/54 38/1/50
f 38/1/50 46/1/42 211/1/234 208/1/238
f 217/1/245 18/1/19 49/1/56
f 216/1/246 18/1/19 217/1/245
f 219/1/247 221/1/247 220/1/248 218/1/248
f 218/1/248 220/1/248 53/1/249 51/1/249
f 210/1/250 220/1/250 221/1/251 209/1/251
f 43/1/253 53/1/253 220/1/250 210/1/250
f 169/1/180 233/1/262 234/1/263
f 235/1/266 231/1/267 158/1/186
f 209/1/239 232/1/268 234/1/263 212/1/240
f 232/1/268 165/1/191 169/1/180 234/1/263
f 215/1/242 235/1/266 236/1/269 216/1/243
f 235/1/266 158/1/186 174/1/195 236/1/269
f 158/1/186 231/1/267 233/1/262 169/1/180
f 236/1/270 174/1/197 18/1/19
f 216/1/246 236/1/270 18/1/19
f 219/1/247 237/1/271 238/1/271 221/1/247
f 237/1/271 177/1/272 180/1/272 238/1/271
f 232/1/273 209/1/251 221/1/251 238/1/273
f 165/1/274 232/1/273 238/1/273 180/1/274
usemtl plastic
f 26/1/29 25/1/29 27/1/30 28/1/30
f 29/1/31 30/1/31 25/1/29 26/1/29
f 21/1/32 29/1/32 26/1/33 19/1/33
f 20/1/34 19/1/33 26/1/33 28/1/34
f 32/1/35 31/1/35 34/1/35
f 37/1/35 31/1/35 32/1/35
f 33/1/36 32/1/36 34/1/37 35/1/37
f 36/1/38 37/1/38 32/1/36 33/1/36
f 30/1/39 36/1/39 33/1/40 25/1/40
f 25/1/40 33/1/40 35/1/41 27/1/41
f 55/1/61 28/1/30 27/1/30 54/1/61
f 56/1/62 55/1/61 54/1/61 57/1/62
f 51/1/63 50/1/64 55/1/64 56/1/63
f 20/1/34 28/1/34 55/1/64 50/1/64
f 58/1/35 34/1/35 31/1/35
f 61/1/35 58/1/35 31/1/35
f 59/1/65 35/1/37 34/1/37 58/1/65
f 60/1/66 59/1/65 58/1/65 61/1/66
f 57/1/67 54/1/68 59/1/68 60/1/67
f 54/1/68 27/1/41 35/1/41 59/1/68
f 86/1/96 85/1/96 87/1/97 88/1/97
f 89/1/98 90/1/98 85/1/96 86/1/96
f 81/1/99 89/1/99 86/1/100 79/1/100
f 80/1/101 79/1/100 86/1/100 88/1/101
f 91/1/35 31/1/35 93/1/35
f 96/1/35 31/1/35 91/1/35
f 92/1/102 91/1/102 93/1/103 94/1/103
f 95/1/104 96/1/104 91/1/102 92/1/102
f 90/1/105 95/1/105 92/1/106 85/1/106
f 85/1/106 92/1/106 94/1/107 87/1/107
f 107/1/121 88/1/97 87/1/97 106/1/121
f 29/1/31 107/1/121 106/1/121 30/1/31
f 21/1/32 104/1/122 107/1/122 29/1/32
f 80/1/101 88/1/101 107/1/122 104/1/122
f 108/1/35 93/1/35 31/1/35
f 37/1/35 108/1/35 31/1/35
f 109/1/123 94/1/103 93/1/103 108/1/123
f 36/1/38 109/1/123 108/1/123 37/1/38
f 30/1/39 106/1/124 109/1/124 36/1/39
f 106/1/124 87/1/107 94/1/107 109/1/124
f 134/1/152 133/1/152 135/1/153 136/1/153
f 137/1/154 138/1/154 133/1/152 134/1/152
f 129/1/155 137/1/155 134/1/156 127/1/156
f 128/1/157 127/1/156 134/1/156 136/1/157
f 139/1/35 31/1/35 141/1/35
f 144/1/35 31/1/35 139/1/35
f 140/1/158 139/1/158 141/1/159 142/1/159
f 143/1/160 144/1/160 139/1/158 140/1/158
f 138/1/161 143/1/161 140/1/162 133/1/162
f 133/1/162 140/1/162 142/1/163 135/1/163
f 155/1/177 136/1/153 135/1/153 154/1/177
f 89/1/98 155/1/177 154/1/177 90/1/98
f 81/1/99 152/1/178 155/1/178 89/1/99
f 128/1/157 136/1/157 155/1/178 152/1/178
f 156/1/35 141/1/35 31/1/35
f 96/1/35 156/1/35 31/1/35
f 157/1/179 142/1/159 141/1/159 156/1/179
f 95/1/104 157/1/179 156/1/179 96/1/104
f 90/1/105 154/1/4 157/1/4 95/1/105
f 154/1/4 135/1/163 142/1/163 157/1/4
f 182/1/206 181/1/206 183/1/207 184/1/207
f 185/1/208 186/1/208 181/1/206 182/1/206
f 177/1/209 185/1/209 182/1/210 175/1/210
f 176/1/211 175/1/210 182/1/210 184/1/211
f 187/1/35 31/1/35 189/1/35
f 192/1/35 31/1/35 187/1/35
f 188/1/212 187/1/212 189/1/213 190/1/213
f 191/1/214 192/1/214 187/1/212 188/1/212
f 186/1/215 191/1/215 188/1/45 181/1/45
f 181/1/45 188/1/45 190/1/216 183/1/216
f 203/1/230 184/1/207 183/1/207 202/1/230
f 137/1/154 203/1/230 202/1/230 138/1/154
f 129/1/155 200/1/231 203/1/231 137/1/155
f 176/1/211 184/1/211 203/1/231 200/1/231
f 204/1/35 189/1/35 31/1/35
f 144/1/35 204/1/35 31/1/35
f 205/1/232 190/1/213 189/1/213 204/1/232
f 143/1/160 205/1/232 204/1/232 144/1/160
f 138/1/161 202/1/72 205/1/72 143/1/161
f 202/1/72 183/1/216 190/1/216 205/1/72
f 223/1/254 222/1/254 224/1/255 225/1/255
f 56/1/62 57/1/62 222/1/254 223/1/254
f 51/1/63 56/1/63 223/1/256 218/1/256
f 219/1/257 218/1/256 223/1/256 225/1/257
f 226/1/35 31/1/35 228/1/35
f 61/1/35 31/1/35 226/1/35
f 227/1/258 226/1/258 228/1/259 229/1/259
f 60/1/66 61/1/66 226/1/258 227/1/258
f 57/1/67 60/1/67 227/1/260 222/1/260
f 222/1/260 227/1/260 229/1/261 224/1/261
f 240/1/275 225/1/255 224/1/255 239/1/275
f 185/1/208 240/1/275 239/1/275 186/1/208
f 177/1/209 237/1/276 240/1/276 185/1/209
f 219/1/257 225/1/257 240/1/276 237/1/276
f 241/1/35 228/1/35 31/1/35
f 192/1/35 241/1/35 31/1/35
f 242/1/277 229/1/259 228/1/259 241/1/277
f 191/1/214 242/1/277 241/1/277 192/1/214
f 186/1/215 239/1/128 242/1/128 191/1/215
f 239/1/128 224/1/261 229/1/261 242/1/128
