# Blender 5.2.2 LTS
# www.blender.org
mtllib rear_wheels.mtl
o rear_wheels
v -0.188323 0.000008 -0.248766
v -0.188323 -0.095190 -0.229830
v -0.188323 -0.175894 -0.175905
v -0.188323 -0.229819 -0.095201
v -0.188323 -0.248756 -0.000003
v -0.188323 -0.229819 0.095194
v -0.188323 -0.175894 0.175899
v -0.188323 -0.095190 0.229824
v -0.188323 0.000008 0.248760
v -0.188323 0.095205 0.229824
v -0.188323 0.175910 0.175899
v -0.188323 0.229835 0.095194
v -0.188323 0.248771 -0.000003
v -0.188323 0.229835 -0.095201
v -0.188323 0.175910 -0.175905
v -0.188323 0.095205 -0.229830
v -0.188323 0.000008 -0.228145
v -0.188323 -0.087299 -0.210779
v -0.188323 -0.161313 -0.161324
v -0.188323 -0.210768 -0.087309
v -0.188323 -0.228135 -0.000003
v -0.188323 -0.210768 0.087303
v -0.188323 -0.161313 0.161318
v -0.188323 -0.087299 0.210773
v -0.188323 0.000008 0.228139
v -0.188323 0.087314 0.210773
v -0.188323 0.161329 0.161318
v -0.188323 0.210784 0.087303
v -0.188323 0.228150 -0.000003
v -0.188323 0.210784 -0.087309
v -0.188323 0.161329 -0.161324
v -0.188323 0.087314 -0.210779
v -0.178750 -0.087299 -0.210779
v -0.178750 0.000008 -0.228145
v -0.178750 -0.161313 -0.161324
v -0.178750 -0.210768 -0.087309
v -0.178750 -0.228135 -0.000003
v -0.178750 -0.210768 0.087303
v -0.178750 -0.161313 0.161318
v -0.178750 -0.087299 0.210773
v -0.178750 0.000008 0.228139
v -0.178750 0.087314 0.210773
v -0.178750 0.161329 0.161318
v -0.178750 0.210784 0.087303
v -0.178750 0.228150 -0.000003
v -0.178750 0.210784 -0.087309
v -0.178750 0.161329 -0.161324
v -0.178750 0.087314 -0.210779
v -0.178750 -0.080172 -0.193575
v -0.178750 0.000008 -0.209524
v -0.178750 -0.148146 -0.148157
v -0.178750 -0.193564 -0.080183
v -0.178750 -0.209513 -0.000003
v -0.178750 -0.193564 0.080177
v -0.178750 -0.148146 0.148150
v -0.178750 -0.080172 0.193569
v -0.178750 0.000008 0.209518
v -0.178750 0.080188 0.193569
v -0.178750 0.148161 0.148150
v -0.178750 0.193579 0.080177
v -0.178750 0.209528 -0.000003
v -0.178750 0.193579 -0.080183
v -0.178750 0.148161 -0.148157
v -0.178750 0.080188 -0.193575
v -0.178852 0.011525 -0.027808
v -0.178852 0.021289 -0.021284
v -0.178852 0.027813 -0.011520
v -0.178852 0.030104 -0.000003
v -0.178852 0.027813 0.011514
v -0.178852 0.021289 0.021278
v -0.178852 0.011525 0.027802
v -0.178852 0.000008 0.030093
v -0.178852 -0.011509 0.027802
v -0.178852 -0.021273 0.021278
v -0.178852 -0.027797 0.011514
v -0.178852 -0.030088 -0.000003
v -0.178852 -0.027797 -0.011520
v -0.178852 -0.021273 -0.021284
v -0.178852 0.000008 -0.030099
v -0.178852 -0.011509 -0.027808
v -0.156369 -0.080172 -0.193575
v -0.156369 0.000008 -0.209524
v -0.156369 -0.148146 -0.148157
v -0.156369 -0.193564 -0.080183
v -0.156369 -0.209513 -0.000003
v -0.156369 -0.193564 0.080177
v -0.156369 -0.148146 0.148150
v -0.156369 -0.080172 0.193569
v -0.156369 0.000008 0.209518
v -0.156369 0.080188 0.193569
v -0.156369 0.148161 0.148150
v -0.156369 0.193579 0.080177
v -0.156369 0.209528 -0.000003
v -0.156369 0.193579 -0.080183
v -0.156369 0.148161 -0.148157
v -0.156369 0.080188 -0.193575
v -0.156369 -0.019799 -0.047820
v -0.156369 0.000008 -0.051759
v -0.156369 -0.036589 -0.036600
v -0.156369 -0.047809 -0.019809
v -0.156369 -0.051748 -0.000003
v -0.156369 -0.047809 0.019803
v -0.156369 -0.036589 0.036594
v -0.156369 -0.019799 0.047813
v -0.156369 0.000008 0.051753
v -0.156369 0.019814 0.047813
v -0.156369 0.036605 0.036594
v -0.156369 0.047824 0.019803
v -0.156369 0.051764 -0.000003
v -0.156369 0.047824 -0.019809
v -0.156369 0.036605 -0.036600
v -0.156369 0.019814 -0.047820
v -0.193869 0.197847 -0.197842
v -0.193869 0.258497 -0.107073
v -0.193869 0.279795 -0.000003
v -0.193869 0.258497 0.107067
v -0.193869 0.197847 0.197836
v -0.193869 0.107078 0.258486
v -0.193869 0.000008 0.279784
v -0.193869 -0.107062 0.258486
v -0.193869 -0.197832 0.197836
v -0.193869 -0.258482 0.107067
v -0.193869 -0.279779 -0.000003
v -0.193869 -0.258482 -0.107073
v -0.193869 -0.197832 -0.197842
v -0.193869 0.107078 -0.258493
v -0.193869 -0.107062 -0.258493
v -0.193869 0.000008 -0.279790
v -0.188323 0.000008 -0.309786
v -0.179189 0.000008 -0.319099
v -0.179189 -0.122105 -0.294809
v -0.188323 -0.118541 -0.286205
v -0.179189 -0.225627 -0.225638
v -0.188323 -0.219042 -0.219053
v -0.179189 -0.294798 -0.122116
v -0.188323 -0.286194 -0.118552
v -0.179189 -0.319088 -0.000003
v -0.188323 -0.309775 -0.000003
v -0.179189 -0.294798 0.122109
v -0.188323 -0.286194 0.118546
v -0.179189 -0.225627 0.225631
v -0.188323 -0.219042 0.219046
v -0.179189 -0.122105 0.294803
v -0.188323 -0.118541 0.286199
v -0.179189 0.000008 0.319092
v -0.188323 0.000008 0.309780
v -0.179189 0.122120 0.294803
v -0.188323 0.118556 0.286199
v -0.179189 0.225642 0.225631
v -0.188323 0.219057 0.219046
v -0.179189 0.294813 0.122109
v -0.188323 0.286210 0.118546
v -0.179189 0.319103 -0.000003
v -0.188323 0.309790 -0.000003
v -0.179189 0.294813 -0.122116
v -0.188323 0.286210 -0.118552
v -0.179189 0.225642 -0.225638
v -0.188323 0.219057 -0.219053
v -0.179189 0.122120 -0.294809
v -0.188323 0.118556 -0.286205
v 0.168820 0.000008 -0.319099
v 0.177953 0.000008 -0.309786
v 0.177953 -0.118541 -0.286205
v 0.168820 -0.122105 -0.294809
v 0.177953 -0.219042 -0.219053
v 0.168820 -0.225627 -0.225638
v 0.177953 -0.286194 -0.118552
v 0.168820 -0.294798 -0.122116
v 0.177953 -0.309775 -0.000003
v 0.168820 -0.319088 -0.000003
v 0.177953 -0.286194 0.118546
v 0.168820 -0.294798 0.122109
v 0.177953 -0.219042 0.219046
v 0.168820 -0.225627 0.225631
v 0.177953 -0.118541 0.286199
v 0.168820 -0.122105 0.294803
v 0.177953 0.000008 0.309780
v 0.168820 0.000008 0.319092
v 0.177953 0.118556 0.286199
v 0.168820 0.122120 0.294803
v 0.177953 0.219057 0.219046
v 0.168820 0.225642 0.225631
v 0.177953 0.286210 0.118546
v 0.168820 0.294813 0.122109
v 0.177953 0.309790 -0.000003
v 0.168820 0.319103 -0.000003
v 0.177953 0.286210 -0.118552
v 0.168820 0.294813 -0.122116
v 0.177953 0.219057 -0.219053
v 0.168820 0.225642 -0.225638
v 0.177953 0.118556 -0.286205
v 0.168820 0.122120 -0.294809
v -0.156679 -0.028147 0.056704
v -0.156679 -0.083429 0.200390
v -0.156679 -0.067905 0.196508
v -0.156679 -0.018814 0.078792
v -0.156679 -0.039512 0.212919
v -0.156679 -0.051770 0.202048
v -0.156679 -0.002537 0.097557
v -0.156679 0.042680 0.203581
v -0.156679 0.033700 0.213998
v -0.156679 0.074103 0.206014
v -0.156679 -0.111851 0.184868
v -0.156679 -0.117315 0.171486
v -0.156679 -0.051475 0.062252
v -0.156679 -0.149270 0.158465
v -0.156679 -0.131329 0.161759
v -0.156679 -0.077712 0.059551
v -0.156679 -0.189347 0.087052
v -0.156679 -0.193105 0.104709
v -0.156679 -0.209167 0.060703
v -0.156679 -0.061885 0.013828
v -0.156679 -0.195669 0.070643
v -0.156679 -0.073219 0.034959
v -0.156679 -0.218438 0.031344
v -0.156679 -0.207209 0.016474
v -0.156679 -0.080848 -0.000848
v -0.156679 -0.218480 -0.016157
v -0.156679 -0.208434 -0.000541
v -0.156679 0.061003 0.015929
v -0.156679 0.212890 0.041073
v -0.156679 0.205955 0.026652
v -0.156679 0.080753 0.002330
v -0.156679 0.221084 -0.004497
v -0.156679 0.208125 0.009731
v -0.156679 0.096316 -0.025378
v -0.156679 0.185400 -0.095288
v -0.156679 0.199524 -0.089988
v -0.156679 0.174531 -0.128025
v -0.156679 0.208211 0.072015
v -0.156679 0.191421 0.080095
v -0.156679 0.071146 0.037657
v -0.156679 0.185117 0.114021
v -0.156679 0.184722 0.095784
v -0.156679 0.073796 0.063900
v -0.156679 0.123263 0.167686
v -0.156679 0.141784 0.167334
v -0.156679 0.102944 0.193108
v -0.156679 0.025819 0.057626
v -0.156679 0.108467 0.177190
v -0.156679 0.048803 0.064463
v -0.156679 0.057742 0.199425
v -0.156679 0.015273 0.079161
v -0.156679 -0.178842 -0.123181
v -0.156679 -0.204642 -0.084735
v -0.156679 -0.162134 -0.149642
v -0.156679 -0.143512 -0.150302
v -0.156679 -0.124118 -0.178842
v -0.156679 -0.131078 -0.161981
v -0.156679 -0.042286 -0.088245
v -0.156679 -0.019169 -0.078726
v -0.156679 0.061092 -0.210147
v -0.156679 0.127271 -0.177292
v -0.156679 0.153086 -0.158518
v -0.156679 -0.049829 -0.039174
v -0.156679 -0.178281 -0.107190
v -0.156679 -0.073377 -0.034648
v -0.156679 -0.187061 -0.092564
v -0.156679 -0.095121 -0.022639
v -0.156679 -0.050394 -0.063146
v -0.156679 -0.045922 -0.203159
v -0.156679 -0.062409 -0.210514
v -0.156679 -0.016353 -0.220004
v -0.156679 -0.000864 -0.063237
v -0.156679 -0.028556 -0.205923
v -0.156679 0.014625 -0.220004
v -0.156679 0.026828 -0.205923
v -0.156679 0.017441 -0.078726
v -0.156679 0.043725 -0.203576
v -0.156679 0.040440 -0.088114
v -0.156679 0.128680 -0.162273
v -0.156679 0.174531 -0.112067
v -0.156679 0.076904 -0.038377
v -0.156679 0.044518 -0.040724
v -0.156679 0.046865 -0.067477
v -0.156679 0.135574 -0.155717
v -0.156679 -0.028147 0.056704
v -0.156679 -0.083429 0.200390
v -0.156679 -0.067905 0.196508
v -0.156679 -0.018814 0.078792
v -0.156679 -0.039512 0.212919
v -0.156679 -0.051770 0.202048
v -0.156679 -0.002537 0.097557
v -0.156679 0.042680 0.203581
v -0.156679 0.033700 0.213998
v -0.156679 0.074103 0.206014
v -0.156679 -0.111851 0.184868
v -0.156679 -0.117315 0.171486
v -0.156679 -0.051475 0.062252
v -0.156679 -0.149270 0.158465
v -0.156679 -0.131329 0.161759
v -0.156679 -0.077712 0.059551
v -0.156679 -0.189347 0.087052
v -0.156679 -0.193105 0.104709
v -0.156679 -0.209167 0.060703
v -0.156679 -0.061885 0.013828
v -0.156679 -0.195669 0.070643
v -0.156679 -0.073219 0.034959
v -0.156679 -0.218438 0.031344
v -0.156679 -0.207209 0.016474
v -0.156679 -0.080848 -0.000848
v -0.156679 -0.218480 -0.016157
v -0.156679 -0.208434 -0.000541
v -0.156679 0.061003 0.015929
v -0.156679 0.212890 0.041073
v -0.156679 0.205955 0.026652
v -0.156679 0.080753 0.002330
v -0.156679 0.221084 -0.004497
v -0.156679 0.208125 0.009731
v -0.156679 0.096316 -0.025378
v -0.156679 0.185400 -0.095288
v -0.156679 0.199524 -0.089988
v -0.156679 0.174531 -0.128025
v -0.156679 0.208211 0.072015
v -0.156679 0.191421 0.080095
v -0.156679 0.071146 0.037657
v -0.156679 0.185117 0.114021
v -0.156679 0.184722 0.095784
v -0.156679 0.073796 0.063900
v -0.156679 0.123263 0.167686
v -0.156679 0.141784 0.167334
v -0.156679 0.102944 0.193108
v -0.156679 0.025819 0.057626
v -0.156679 0.108467 0.177190
v -0.156679 0.048803 0.064463
v -0.156679 0.057742 0.199425
v -0.156679 0.015273 0.079161
v -0.156679 -0.178842 -0.123181
v -0.156679 -0.204642 -0.084735
v -0.156679 -0.162134 -0.149642
v -0.156679 -0.143512 -0.150302
v -0.156679 -0.124118 -0.178842
v -0.156679 -0.131078 -0.161981
v -0.156679 -0.042286 -0.088245
v -0.156679 -0.019169 -0.078726
v -0.156679 0.061092 -0.210147
v -0.156679 0.127271 -0.177292
v -0.156679 0.153086 -0.158518
v -0.156679 -0.049829 -0.039174
v -0.156679 -0.178281 -0.107190
v -0.156679 -0.073377 -0.034648
v -0.156679 -0.187061 -0.092564
v -0.156679 -0.095121 -0.022639
v -0.156679 -0.050394 -0.063146
v -0.156679 -0.045922 -0.203159
v -0.156679 -0.062409 -0.210514
v -0.156679 -0.016353 -0.220004
v -0.156679 -0.000864 -0.063237
v -0.156679 -0.028556 -0.205923
v -0.156679 0.014625 -0.220004
v -0.156679 0.026828 -0.205923
v -0.156679 0.017441 -0.078726
v -0.156679 0.043725 -0.203576
v -0.156679 0.040440 -0.088114
v -0.156679 0.128680 -0.162273
v -0.156679 0.174531 -0.112067
v -0.156679 0.076904 -0.038377
v -0.156679 0.044518 -0.040724
v -0.156679 0.046865 -0.067477
v -0.156679 0.135574 -0.155717
v -0.164795 -0.028147 0.056704
v -0.164795 -0.083429 0.200390
v -0.164795 -0.067905 0.196508
v -0.164795 -0.018814 0.078792
v -0.164795 -0.039512 0.212919
v -0.164795 -0.051770 0.202048
v -0.164795 -0.002537 0.097557
v -0.164795 0.042680 0.203581
v -0.164795 0.033700 0.213998
v -0.164795 0.074103 0.206014
v -0.164795 -0.111851 0.184868
v -0.164795 -0.117315 0.171486
v -0.164795 -0.051475 0.062252
v -0.164795 -0.149270 0.158465
v -0.164795 -0.131329 0.161759
v -0.164795 -0.077713 0.059551
v -0.164795 -0.189347 0.087052
v -0.164795 -0.193105 0.104709
v -0.164795 -0.209167 0.060703
v -0.164795 -0.061885 0.013828
v -0.164795 -0.195669 0.070643
v -0.164795 -0.073220 0.034958
v -0.164795 -0.218438 0.031344
v -0.164795 -0.207209 0.016474
v -0.164795 -0.080848 -0.000848
v -0.164795 -0.218480 -0.016157
v -0.164795 -0.208434 -0.000541
v -0.164795 0.061003 0.015929
v -0.164795 0.212890 0.041073
v -0.164795 0.205955 0.026652
v -0.164795 0.080753 0.002330
v -0.164795 0.221084 -0.004497
v -0.164795 0.208125 0.009731
v -0.164795 0.096316 -0.025378
v -0.164795 0.185400 -0.095288
v -0.164795 0.199524 -0.089988
v -0.164795 0.174531 -0.128025
v -0.164795 0.208211 0.072015
v -0.164795 0.191421 0.080095
v -0.164795 0.071146 0.037657
v -0.164795 0.185117 0.114021
v -0.164795 0.184722 0.095784
v -0.164795 0.073796 0.063900
v -0.164795 0.123263 0.167686
v -0.164795 0.141784 0.167334
v -0.164795 0.102944 0.193108
v -0.164795 0.025819 0.057626
v -0.164795 0.108467 0.177190
v -0.164795 0.048803 0.064463
v -0.164795 0.057742 0.199425
v -0.164795 0.015273 0.079161
v -0.164795 -0.178842 -0.123182
v -0.164795 -0.204642 -0.084735
v -0.164795 -0.162134 -0.149642
v -0.164795 -0.143512 -0.150302
v -0.164795 -0.124118 -0.178842
v -0.164795 -0.131078 -0.161981
v -0.164795 -0.042286 -0.088245
v -0.164795 -0.019169 -0.078726
v -0.164795 0.061092 -0.210147
v -0.164795 0.127271 -0.177292
v -0.164795 0.153086 -0.158518
v -0.164795 -0.049829 -0.039174
v -0.164795 -0.178281 -0.107190
v -0.164795 -0.073377 -0.034648
v -0.164795 -0.187061 -0.092564
v -0.164795 -0.095121 -0.022639
v -0.164795 -0.050394 -0.063146
v -0.164795 -0.045922 -0.203159
v -0.164795 -0.062409 -0.210514
v -0.164795 -0.016353 -0.220004
v -0.164795 -0.000864 -0.063237
v -0.164795 -0.028557 -0.205923
v -0.164795 0.014625 -0.220004
v -0.164795 0.026828 -0.205923
v -0.164795 0.017441 -0.078726
v -0.164795 0.043725 -0.203576
v -0.164795 0.040440 -0.088114
v -0.164795 0.128680 -0.162273
v -0.164795 0.174531 -0.112067
v -0.164795 0.076904 -0.038377
v -0.164795 0.044518 -0.040724
v -0.164795 0.046865 -0.067477
v -0.164795 0.135574 -0.155717
vn -0.0000 0.8315 -0.5556
vn -0.0000 -0.5556 0.8315
vn -0.0000 0.5556 -0.8315
vn -0.0000 -0.1951 0.9808
vn 1.0000 -0.0000 -0.0000
vn -0.0000 0.1951 0.9808
vn -0.0000 0.1951 -0.9808
vn -0.0000 -0.5556 -0.8315
vn -0.0000 0.5556 0.8315
vn -0.0000 -0.8315 -0.5556
vn -0.0000 0.8315 0.5556
vn -0.0000 -0.9808 -0.1951
vn -0.0000 0.9808 0.1951
vn -0.0000 -0.9808 0.1951
vn -0.0000 0.9808 -0.1951
vn -0.0000 -0.8315 0.5556
vn -1.0000 -0.0000 -0.0000
vn -0.0000 -0.1951 -0.9808
vn -0.6868 -0.7129 -0.1418
vn -0.6868 0.7129 0.1418
vn -0.6868 -0.7129 0.1418
vn -0.6868 0.7129 -0.1418
vn -0.6868 -0.6044 0.4038
vn -0.6868 0.6044 -0.4038
vn -0.6868 -0.4038 0.6044
vn -0.6868 0.4038 -0.6043
vn -0.6868 -0.1418 0.7129
vn -0.6868 -0.1418 -0.7129
vn -0.6868 0.1418 -0.7129
vn -0.6868 0.1418 0.7129
vn -0.6868 -0.4038 -0.6044
vn -0.6868 0.4038 0.6043
vn -0.6868 -0.6044 -0.4038
vn -0.6868 0.6044 0.4038
vn -0.9838 -0.0996 0.1491
vn -0.9838 0.0350 -0.1759
vn -0.9838 0.0350 0.1759
vn -0.9838 -0.0350 0.1759
vn -0.9838 -0.0350 -0.1759
vn -0.9838 0.0996 0.1491
vn -0.9838 -0.0996 -0.1491
vn -0.9838 0.1491 0.0996
vn -0.9838 -0.1491 -0.0996
vn -0.9838 0.1759 0.0350
vn -0.9838 -0.1759 -0.0350
vn -0.9838 0.1759 -0.0350
vn -0.9838 -0.1759 0.0350
vn -0.9838 0.1491 -0.0996
vn -0.9838 -0.1491 0.0996
vn -0.9838 0.0996 -0.1491
vn -0.9827 -0.1029 0.1540
vn -0.7071 -0.1380 -0.6935
vn -0.7071 -0.3929 -0.5879
vn -0.7071 -0.5879 -0.3928
vn -0.7071 -0.6935 -0.1380
vn -0.7071 -0.6935 0.1380
vn -0.7071 -0.5879 0.3928
vn -0.7071 -0.3928 0.5879
vn -0.7071 -0.1379 0.6935
vn -0.7071 0.1380 0.6935
vn -0.7071 0.3928 0.5879
vn -0.7071 0.5879 0.3928
vn -0.7071 0.6935 0.1380
vn -0.7071 0.6935 -0.1380
vn -0.7071 0.5879 -0.3928
vn -0.7071 0.3929 -0.5879
vn -0.7071 0.1380 -0.6935
vn 0.7071 -0.1380 -0.6935
vn 0.7071 -0.3928 -0.5879
vn 0.7071 -0.5879 -0.3928
vn 0.7071 -0.6935 -0.1380
vn 0.7071 -0.6935 0.1380
vn 0.7071 -0.5879 0.3928
vn 0.7071 -0.3928 0.5879
vn 0.7071 -0.1379 0.6935
vn 0.7071 0.1379 0.6935
vn 0.7071 0.3928 0.5879
vn 0.7071 0.5879 0.3928
vn 0.7071 0.6935 0.1380
vn 0.7071 0.6935 -0.1380
vn 0.7071 0.5879 -0.3929
vn 0.7071 0.3928 -0.5879
vn 0.7071 0.1380 -0.6935
vn -0.9827 0.1540 -0.1029
vn -0.9827 -0.1540 0.1029
vn -0.9827 0.1817 -0.0361
vn -0.9827 -0.1817 0.0361
vn -0.9827 0.1817 0.0361
vn -0.9827 -0.1817 -0.0361
vn -0.9827 0.1540 0.1029
vn -0.9827 -0.1540 -0.1029
vn -0.9827 0.1029 0.1540
vn -0.9827 -0.1029 -0.1540
vn -0.9827 0.0361 0.1817
vn -0.9827 0.0361 -0.1817
vn -0.9827 -0.0361 -0.1817
vn -0.9827 -0.0361 0.1817
vn -0.9827 0.1029 -0.1540
vn -0.0000 -0.7557 0.6549
vn -0.0000 0.8763 0.4818
vn -0.0000 -0.5765 0.8171
vn -0.0000 -0.9973 -0.0736
vn -0.0000 -0.4337 -0.9011
vn -0.0000 0.9258 -0.3780
vn -0.0000 -0.6459 -0.7634
vn -0.0000 0.3327 -0.9430
vn -0.0000 0.8565 0.5162
vn -0.0000 0.9996 0.0284
vn -0.0000 0.9061 -0.4230
vn -0.0000 0.2314 0.9729
vn -0.0000 -0.6434 -0.7655
vn -0.0000 -0.2763 0.9611
vn -0.0000 -0.8856 -0.4645
vn -0.0000 0.7557 0.6549
vn -0.0000 0.9027 -0.4302
vn -0.0000 0.2392 0.9710
vn -0.0000 0.9994 -0.0351
vn -0.0000 -0.0190 -0.9998
vn -0.0000 0.9781 0.2082
vn -0.0000 -0.6833 0.7301
vn -0.0000 0.5529 0.8332
vn -0.0000 -0.9394 0.3429
vn -0.0000 -0.9995 0.0316
vn -0.0000 -0.8838 0.4678
vn -0.0000 -0.2798 -0.9601
vn -0.0000 0.9973 -0.0736
vn -0.0000 -0.2851 0.9585
vn -0.0000 -0.8812 -0.4727
vn -0.0000 0.6459 -0.7634
vn -0.0000 0.9429 -0.3330
vn -0.0000 0.8410 -0.5410
vn -0.0000 0.3539 0.9353
vn -0.0000 0.8981 0.4398
vn -0.0000 -1.0000 0.0009
vn -0.0000 0.2075 -0.9782
vn -0.0000 -0.9447 -0.3278
vn -0.0000 0.7980 0.6026
vn -0.0000 -0.9956 0.0933
vn -0.0000 0.3736 -0.9276
vn -0.0000 0.1358 0.9907
vn -0.0000 0.4068 0.9135
vn -0.0000 -0.8304 -0.5572
vn -0.0000 -0.6120 0.7908
vn -0.0000 -0.1914 -0.9815
vn -0.0000 0.9243 0.3816
vn -0.0000 0.5930 -0.8052
vn -0.0000 -1.0000 -0.0000
vn -0.0000 -0.6092 -0.7931
vn -0.0000 -0.7393 -0.6734
vn -0.0000 0.6635 -0.7482
vn -0.0000 -0.6025 -0.7982
vn -0.0000 0.0354 0.9994
vn -0.0000 0.9842 0.1770
vn -0.0000 -0.2743 0.9616
vn -0.0000 0.0723 -0.9974
vn -0.0000 0.6389 -0.7693
vn -0.0000 -0.9012 0.4334
vn -0.0000 -0.2426 -0.9701
vn -0.0000 0.9962 0.0874
vn -0.0000 0.5882 -0.8087
vn -0.0000 -0.1907 0.9816
vn -0.0000 -0.9230 -0.3849
vn -0.0000 0.7052 0.7090
vn -0.0000 0.5688 -0.8225
vn -0.0000 0.5671 0.8236
vn -0.0000 -0.9212 0.3892
vn -0.0000 0.1579 0.9875
vn -0.0000 -0.1887 -0.9820
vn -0.0000 0.2996 -0.9541
vn -0.0000 0.9046 0.4262
vn -0.0000 -0.6054 0.7959
vn -0.0000 0.6174 0.7867
vn -0.0000 -0.9198 0.3923
vn -0.0000 -0.9997 0.0236
vn -0.0000 -0.3513 0.9362
vn -0.0000 -0.7574 -0.6530
vn -0.0000 -0.4074 0.9132
vn -0.0000 0.8357 -0.5491
vn -0.0000 0.1939 0.9810
vn -0.0000 -0.2018 -0.9794
vn -0.0000 -0.9998 0.0216
vn -0.0000 0.1806 -0.9836
vt 0.886712 0.883612
vt 0.630930 0.937869
vt 0.553415 0.932947
vt 0.630930 0.892913
vt 0.882062 0.883612
vt 0.630544 0.938042
s 1
usemtl ImpGradient.003
f 157/1/1 155/1/1 188/1/1 190/1/1
f 143/1/2 141/1/2 174/1/2 176/1/2
f 159/1/3 157/1/3 190/1/3 192/1/3
f 145/1/4 143/1/4 176/1/4 178/1/4
f 163/2/5 162/2/5 191/2/5 189/2/5 187/2/5 185/2/5 183/2/5 181/2/5 179/2/5 177/2/5 175/2/5 173/2/5 171/2/5 169/2/5 167/2/5 165/2/5
f 147/1/6 145/1/6 178/1/6 180/1/6
f 130/1/7 159/1/7 192/1/7 161/1/7
f 133/1/8 131/1/8 164/1/8 166/1/8
f 149/1/9 147/1/9 180/1/9 182/1/9
f 135/1/10 133/1/10 166/1/10 168/1/10
f 151/1/11 149/1/11 182/1/11 184/1/11
f 137/1/12 135/1/12 168/1/12 170/1/12
f 153/1/13 151/1/13 184/1/13 186/1/13
f 139/1/14 137/1/14 170/1/14 172/1/14
f 155/1/15 153/1/15 186/1/15 188/1/15
f 141/1/16 139/1/16 172/1/16 174/1/16
f 12/2/17 13/2/17 29/2/17 28/2/17
f 5/2/17 6/2/17 22/2/17 21/2/17
f 13/2/17 14/2/17 30/2/17 29/2/17
f 6/2/17 7/2/17 23/2/17 22/2/17
f 14/2/17 15/2/17 31/2/17 30/2/17
f 7/2/17 8/2/17 24/2/17 23/2/17
f 15/2/17 16/2/17 32/2/17 31/2/17
f 8/2/17 9/2/17 25/2/17 24/2/17
f 1/2/17 2/2/17 18/2/17 17/2/17
f 16/2/17 1/2/17 17/2/17 32/2/17
f 9/2/17 10/2/17 26/2/17 25/2/17
f 2/2/17 3/2/17 19/2/17 18/2/17
f 10/2/17 11/2/17 27/2/17 26/2/17
f 3/2/17 4/2/17 20/2/17 19/2/17
f 11/2/17 12/2/17 28/2/17 27/2/17
f 4/2/17 5/2/17 21/2/17 20/2/17
f 28/2/12 29/2/12 45/2/12 44/2/12
f 20/2/13 21/2/13 37/2/13 36/2/13
f 27/2/10 28/2/10 44/2/10 43/2/10
f 19/2/11 20/2/11 36/2/11 35/2/11
f 26/2/8 27/2/8 43/2/8 42/2/8
f 18/2/9 19/2/9 35/2/9 33/2/9
f 25/2/18 26/2/18 42/2/18 41/2/18
f 32/2/4 17/2/4 34/2/4 48/2/4
f 17/2/6 18/2/6 33/2/6 34/2/6
f 24/2/7 25/2/7 41/2/7 40/2/7
f 31/2/2 32/2/2 48/2/2 47/2/2
f 23/2/3 24/2/3 40/2/3 39/2/3
f 30/2/16 31/2/16 47/2/16 46/2/16
f 22/2/1 23/2/1 39/2/1 38/2/1
f 29/2/14 30/2/14 46/2/14 45/2/14
f 21/2/15 22/2/15 38/2/15 37/2/15
f 33/2/17 35/2/17 51/2/17 49/2/17
f 42/2/17 43/2/17 59/2/17 58/2/17
f 35/2/17 36/2/17 52/2/17 51/2/17
f 43/2/17 44/2/17 60/2/17 59/2/17
f 36/2/17 37/2/17 53/2/17 52/2/17
f 44/2/17 45/2/17 61/2/17 60/2/17
f 37/2/17 38/2/17 54/2/17 53/2/17
f 45/2/17 46/2/17 62/2/17 61/2/17
f 38/2/17 39/2/17 55/2/17 54/2/17
f 46/2/17 47/2/17 63/2/17 62/2/17
f 39/2/17 40/2/17 56/2/17 55/2/17
f 47/2/17 48/2/17 64/2/17 63/2/17
f 40/2/17 41/2/17 57/2/17 56/2/17
f 34/2/17 33/2/17 49/2/17 50/2/17
f 48/2/17 34/2/17 50/2/17 64/2/17
f 41/2/17 42/2/17 58/2/17 57/2/17
f 80/3/17 78/3/17 77/3/17 76/3/17 75/3/17 74/3/17 73/3/17 72/3/17 71/3/17 70/3/17 69/3/17 68/3/17 67/3/17 66/3/17 65/3/17 79/3/17
f 49/2/9 51/2/9 83/2/9 81/2/9
f 57/2/18 58/2/18 90/2/18 89/2/18
f 64/2/4 50/2/4 82/2/4 96/2/4
f 50/2/6 49/2/6 81/2/6 82/2/6
f 56/2/7 57/2/7 89/2/7 88/2/7
f 63/2/2 64/2/2 96/2/2 95/2/2
f 55/2/3 56/2/3 88/2/3 87/2/3
f 62/2/16 63/2/16 95/2/16 94/2/16
f 54/2/1 55/2/1 87/2/1 86/2/1
f 61/2/14 62/2/14 94/2/14 93/2/14
f 53/2/15 54/2/15 86/2/15 85/2/15
f 60/2/12 61/2/12 93/2/12 92/2/12
f 52/2/13 53/2/13 85/2/13 84/2/13
f 59/2/10 60/2/10 92/2/10 91/2/10
f 51/2/11 52/2/11 84/2/11 83/2/11
f 58/2/8 59/2/8 91/2/8 90/2/8
f 87/4/17 88/4/17 104/4/17 103/4/17
f 95/4/17 96/4/17 112/4/17 111/4/17
f 88/4/17 89/4/17 105/4/17 104/4/17
f 82/4/17 81/4/17 97/4/17 98/4/17
f 96/4/17 82/4/17 98/4/17 112/4/17
f 89/4/17 90/4/17 106/4/17 105/4/17
f 81/4/17 83/4/17 99/4/17 97/4/17
f 90/4/17 91/4/17 107/4/17 106/4/17
f 83/4/17 84/4/17 100/4/17 99/4/17
f 91/4/17 92/4/17 108/4/17 107/4/17
f 84/4/17 85/4/17 101/4/17 100/4/17
f 92/4/17 93/4/17 109/4/17 108/4/17
f 85/4/17 86/4/17 102/4/17 101/4/17
f 93/4/17 94/4/17 110/4/17 109/4/17
f 86/4/17 87/4/17 103/4/17 102/4/17
f 94/4/17 95/4/17 111/4/17 110/4/17
f 100/3/19 101/3/19 76/3/19 77/3/19
f 108/3/20 109/3/20 68/3/20 69/3/20
f 101/3/21 102/3/21 75/3/21 76/3/21
f 109/3/22 110/3/22 67/3/22 68/3/22
f 102/3/23 103/3/23 74/3/23 75/3/23
f 110/3/24 111/3/24 66/3/24 67/3/24
f 103/3/25 104/3/25 73/3/25 74/3/25
f 111/3/26 112/3/26 65/3/26 66/3/26
f 104/3/27 105/3/27 72/3/27 73/3/27
f 98/3/28 97/3/28 80/3/28 79/3/28
f 112/3/29 98/3/29 79/3/29 65/3/29
f 105/3/30 106/3/30 71/3/30 72/3/30
f 97/3/31 99/3/31 78/3/31 80/3/31
f 106/3/32 107/3/32 70/3/32 71/3/32
f 99/3/33 100/3/33 77/3/33 78/3/33
f 107/3/34 108/3/34 69/3/34 70/3/34
f 113/5/35 126/5/35 16/5/35 15/5/35
f 120/5/36 119/5/36 9/5/36 8/5/36
f 128/5/37 127/5/37 2/5/37 1/5/37
f 126/5/38 128/5/38 1/5/38 16/5/38
f 119/5/39 118/5/39 10/5/39 9/5/39
f 127/5/40 125/5/40 3/5/40 2/5/40
f 118/5/41 117/5/41 11/5/41 10/5/41
f 125/5/42 124/5/42 4/5/42 3/5/42
f 117/5/43 116/5/43 12/5/43 11/5/43
f 124/5/44 123/5/44 5/5/44 4/5/44
f 116/5/45 115/5/45 13/5/45 12/5/45
f 123/5/46 122/5/46 6/5/46 5/5/46
f 115/5/47 114/5/47 14/5/47 13/5/47
f 122/5/48 121/5/48 7/5/48 6/5/48
f 114/5/49 113/5/49 15/5/49 14/5/49
f 121/5/50 120/5/50 8/5/50 7/5/50
f 142/5/51 144/5/51 120/5/51 121/5/51
f 132/1/52 129/1/52 130/1/52 131/1/52
f 134/1/53 132/1/53 131/1/53 133/1/53
f 136/1/54 134/1/54 133/1/54 135/1/54
f 138/1/55 136/1/55 135/1/55 137/1/55
f 140/1/56 138/1/56 137/1/56 139/1/56
f 142/1/57 140/1/57 139/1/57 141/1/57
f 144/1/58 142/1/58 141/1/58 143/1/58
f 146/1/59 144/1/59 143/1/59 145/1/59
f 148/1/60 146/1/60 145/1/60 147/1/60
f 150/1/61 148/1/61 147/1/61 149/1/61
f 152/1/62 150/1/62 149/1/62 151/1/62
f 154/1/63 152/1/63 151/1/63 153/1/63
f 156/1/64 154/1/64 153/1/64 155/1/64
f 158/1/65 156/1/65 155/1/65 157/1/65
f 160/1/66 158/1/66 157/1/66 159/1/66
f 129/1/67 160/1/67 159/1/67 130/1/67
f 164/2/68 161/2/68 162/2/68 163/2/68
f 166/2/69 164/2/69 163/2/69 165/2/69
f 168/2/70 166/2/70 165/2/70 167/2/70
f 170/2/71 168/2/71 167/2/71 169/2/71
f 172/2/72 170/2/72 169/2/72 171/2/72
f 174/2/73 172/2/73 171/2/73 173/2/73
f 176/2/74 174/2/74 173/2/74 175/2/74
f 178/2/75 176/2/75 175/2/75 177/2/75
f 180/2/76 178/2/76 177/2/76 179/2/76
f 182/2/77 180/2/77 179/2/77 181/2/77
f 184/2/78 182/2/78 181/2/78 183/2/78
f 186/2/79 184/2/79 183/2/79 185/2/79
f 188/2/80 186/2/80 185/2/80 187/2/80
f 190/2/81 188/2/81 187/2/81 189/2/81
f 192/2/82 190/2/82 189/2/82 191/2/82
f 161/2/83 192/2/83 191/2/83 162/2/83
f 131/1/18 130/1/18 161/1/18 164/1/18
f 156/5/84 158/5/84 113/5/84 114/5/84
f 140/5/85 142/5/85 121/5/85 122/5/85
f 154/5/86 156/5/86 114/5/86 115/5/86
f 138/5/87 140/5/87 122/5/87 123/5/87
f 152/5/88 154/5/88 115/5/88 116/5/88
f 136/5/89 138/5/89 123/5/89 124/5/89
f 150/5/90 152/5/90 116/5/90 117/5/90
f 134/5/91 136/5/91 124/5/91 125/5/91
f 148/5/92 150/5/92 117/5/92 118/5/92
f 132/5/93 134/5/93 125/5/93 127/5/93
f 146/5/94 148/5/94 118/5/94 119/5/94
f 160/5/95 129/5/95 128/5/95 126/5/95
f 129/5/96 132/5/96 127/5/96 128/5/96
f 144/5/97 146/5/97 119/5/97 120/5/97
f 158/5/98 160/5/98 126/5/98 113/5/98
f 235/6/17 236/6/17 320/6/17 319/6/17
f 208/6/17 209/6/17 293/6/17 292/6/17
f 256/6/17 244/6/17 328/6/17 340/6/17
f 236/6/17 237/6/17 321/6/17 320/6/17
f 209/6/17 210/6/17 294/6/17 293/6/17
f 260/6/17 247/6/17 331/6/17 344/6/17
f 237/6/17 238/6/17 322/6/17 321/6/17
f 210/6/17 211/6/17 295/6/17 294/6/17
f 250/6/17 261/6/17 345/6/17 334/6/17
f 241/6/17 240/6/17 324/6/17 325/6/17
f 214/6/17 213/6/17 297/6/17 298/6/17
f 251/6/17 265/6/17 349/6/17 335/6/17
f 239/6/17 241/6/17 325/6/17 323/6/17
f 212/6/17 214/6/17 298/6/17 296/6/17
f 264/6/17 251/6/17 335/6/17 348/6/17
f 243/6/17 242/6/17 326/6/17 327/6/17
f 218/6/17 219/6/17 303/6/17 302/6/17
f 252/6/17 269/6/17 353/6/17 336/6/17
f 239/6/17 243/6/17 327/6/17 323/6/17
f 215/6/17 218/6/17 302/6/17 299/6/17
f 266/6/17 252/6/17 336/6/17 350/6/17
f 240/6/17 238/6/17 322/6/17 324/6/17
f 216/6/17 215/6/17 299/6/17 300/6/17
f 271/6/17 253/6/17 337/6/17 355/6/17
f 242/6/17 202/6/17 286/6/17 326/6/17
f 217/6/17 216/6/17 300/6/17 301/6/17
f 245/6/17 258/6/17 342/6/17 329/6/17
f 244/6/17 245/6/17 329/6/17 328/6/17
f 212/6/17 217/6/17 301/6/17 296/6/17
f 259/6/17 219/6/17 303/6/17 343/6/17
f 248/6/17 249/6/17 333/6/17 332/6/17
f 213/6/17 211/6/17 295/6/17 297/6/17
f 229/6/17 272/6/17 356/6/17 313/6/17
f 246/6/17 248/6/17 332/6/17 330/6/17
f 224/6/17 225/6/17 309/6/17 308/6/17
f 197/6/17 198/6/17 282/6/17 281/6/17
f 272/6/17 273/6/17 357/6/17 356/6/17
f 247/6/17 246/6/17 330/6/17 331/6/17
f 221/6/17 224/6/17 308/6/17 305/6/17
f 194/6/17 197/6/17 281/6/17 278/6/17
f 273/6/17 274/6/17 358/6/17 357/6/17
f 249/6/17 250/6/17 334/6/17 333/6/17
f 222/6/17 221/6/17 305/6/17 306/6/17
f 195/6/17 194/6/17 278/6/17 279/6/17
f 274/6/17 275/6/17 359/6/17 358/6/17
f 253/6/17 254/6/17 338/6/17 337/6/17
f 223/6/17 222/6/17 306/6/17 307/6/17
f 196/6/17 195/6/17 279/6/17 280/6/17
f 275/6/17 276/6/17 360/6/17 359/6/17
f 257/6/17 256/6/17 340/6/17 341/6/17
f 220/6/17 223/6/17 307/6/17 304/6/17
f 193/6/17 196/6/17 280/6/17 277/6/17
f 276/6/17 254/6/17 338/6/17 360/6/17
f 255/6/17 257/6/17 341/6/17 339/6/17
f 225/6/17 226/6/17 310/6/17 309/6/17
f 198/6/17 199/6/17 283/6/17 282/6/17
f 258/6/17 259/6/17 343/6/17 342/6/17
f 226/6/17 227/6/17 311/6/17 310/6/17
f 199/6/17 200/6/17 284/6/17 283/6/17
f 255/6/17 260/6/17 344/6/17 339/6/17
f 227/6/17 228/6/17 312/6/17 311/6/17
f 200/6/17 201/6/17 285/6/17 284/6/17
f 261/6/17 262/6/17 346/6/17 345/6/17
f 228/6/17 229/6/17 313/6/17 312/6/17
f 201/6/17 202/6/17 286/6/17 285/6/17
f 262/6/17 263/6/17 347/6/17 346/6/17
f 233/6/17 234/6/17 318/6/17 317/6/17
f 206/6/17 207/6/17 291/6/17 290/6/17
f 267/6/17 266/6/17 350/6/17 351/6/17
f 230/6/17 233/6/17 317/6/17 314/6/17
f 203/6/17 206/6/17 290/6/17 287/6/17
f 268/6/17 267/6/17 351/6/17 352/6/17
f 231/6/17 230/6/17 314/6/17 315/6/17
f 204/6/17 203/6/17 287/6/17 288/6/17
f 264/6/17 268/6/17 352/6/17 348/6/17
f 232/6/17 231/6/17 315/6/17 316/6/17
f 205/6/17 204/6/17 288/6/17 289/6/17
f 269/6/17 270/6/17 354/6/17 353/6/17
f 220/6/17 232/6/17 316/6/17 304/6/17
f 193/6/17 205/6/17 289/6/17 277/6/17
f 270/6/17 271/6/17 355/6/17 354/6/17
f 234/6/17 235/6/17 319/6/17 318/6/17
f 207/6/17 208/6/17 292/6/17 291/6/17
f 265/6/17 263/6/17 347/6/17 349/6/17
f 350/6/99 351/6/99 435/6/99 434/6/99
f 366/6/17 367/6/17 368/6/17 369/6/17 370/6/17 410/6/17 411/6/17 407/6/17 409/6/17 408/6/17 406/6/17 405/6/17 404/6/17 403/6/17 402/6/17 401/6/17 398/6/17 399/6/17 400/6/17 388/6/17 391/6/17 390/6/17 389/6/17 392/6/17 393/6/17 394/6/17 395/6/17 396/6/17 397/6/17 440/6/17 441/6/17 442/6/17 443/6/17 444/6/17 422/6/17 421/6/17 439/6/17 438/6/17 437/6/17 420/6/17 434/6/17 435/6/17 436/6/17 432/6/17 419/6/17 433/6/17 431/6/17 430/6/17 429/6/17 418/6/17 417/6/17 416/6/17 414/6/17 415/6/17 428/6/17 423/6/17 425/6/17 424/6/17 412/6/17 413/6/17 426/6/17 427/6/17 387/6/17 386/6/17 383/6/17 384/6/17 385/6/17 380/6/17 382/6/17 381/6/17 379/6/17 378/6/17 377/6/17 376/6/17 375/6/17 374/6/17 371/6/17 372/6/17 373/6/17 361/6/17 364/6/17 363/6/17 362/6/17 365/6/17
f 317/6/100 314/6/100 398/6/100 401/6/100
f 290/6/101 287/6/101 371/6/101 374/6/101
f 351/6/102 352/6/102 436/6/102 435/6/102
f 314/6/103 315/6/103 399/6/103 398/6/103
f 287/6/104 288/6/104 372/6/104 371/6/104
f 352/6/105 348/6/105 432/6/105 436/6/105
f 315/6/106 316/6/106 400/6/106 399/6/106
f 288/6/107 289/6/107 373/6/107 372/6/107
f 354/6/108 353/6/108 437/6/108 438/6/108
f 316/6/109 304/6/109 388/6/109 400/6/109
f 289/6/110 277/6/110 361/6/110 373/6/110
f 355/6/111 354/6/111 438/6/111 439/6/111
f 319/6/112 318/6/112 402/6/112 403/6/112
f 292/6/113 291/6/113 375/6/113 376/6/113
f 349/6/114 347/6/114 431/6/114 433/6/114
f 320/6/115 319/6/115 403/6/115 404/6/115
f 293/6/116 292/6/116 376/6/116 377/6/116
f 340/6/117 328/6/117 412/6/117 424/6/117
f 321/6/118 320/6/118 404/6/118 405/6/118
f 294/6/119 293/6/119 377/6/119 378/6/119
f 331/6/120 344/6/120 428/6/120 415/6/120
f 322/6/121 321/6/121 405/6/121 406/6/121
f 295/6/122 294/6/122 378/6/122 379/6/122
f 345/6/123 334/6/123 418/6/123 429/6/123
f 325/6/124 324/6/124 408/6/124 409/6/124
f 298/6/125 297/6/125 381/6/125 382/6/125
f 335/6/126 349/6/126 433/6/126 419/6/126
f 323/6/127 325/6/127 409/6/127 407/6/127
f 296/6/128 298/6/128 382/6/128 380/6/128
f 348/6/129 335/6/129 419/6/129 432/6/129
f 326/6/130 327/6/130 411/6/130 410/6/130
f 303/6/131 302/6/131 386/6/131 387/6/131
f 353/6/132 336/6/132 420/6/132 437/6/132
f 327/6/133 323/6/133 407/6/133 411/6/133
f 302/6/134 299/6/134 383/6/134 386/6/134
f 336/6/135 350/6/135 434/6/135 420/6/135
f 324/6/136 322/6/136 406/6/136 408/6/136
f 299/6/137 300/6/137 384/6/137 383/6/137
f 337/6/138 355/6/138 439/6/138 421/6/138
f 286/6/139 326/6/139 410/6/139 370/6/139
f 300/6/140 301/6/140 385/6/140 384/6/140
f 329/6/141 342/6/141 426/6/141 413/6/141
f 328/6/142 329/6/142 413/6/142 412/6/142
f 301/6/143 296/6/143 380/6/143 385/6/143
f 343/6/144 303/6/144 387/6/144 427/6/144
f 333/6/145 332/6/145 416/6/145 417/6/145
f 297/6/146 295/6/146 379/6/146 381/6/146
f 313/6/147 356/6/147 440/6/147 397/6/147
f 332/6/148 330/6/148 414/6/148 416/6/148
f 308/6/149 309/6/149 393/6/149 392/6/149
f 281/6/150 282/6/150 366/6/150 365/6/150
f 356/6/151 357/6/151 441/6/151 440/6/151
f 330/6/152 331/6/152 415/6/152 414/6/152
f 305/6/153 308/6/153 392/6/153 389/6/153
f 278/6/154 281/6/154 365/6/154 362/6/154
f 357/6/155 358/6/155 442/6/155 441/6/155
f 334/6/156 333/6/156 417/6/156 418/6/156
f 306/6/157 305/6/157 389/6/157 390/6/157
f 279/6/158 278/6/158 362/6/158 363/6/158
f 358/6/159 359/6/159 443/6/159 442/6/159
f 338/6/160 337/6/160 421/6/160 422/6/160
f 307/6/161 306/6/161 390/6/161 391/6/161
f 280/6/162 279/6/162 363/6/162 364/6/162
f 359/6/163 360/6/163 444/6/163 443/6/163
f 341/6/164 340/6/164 424/6/164 425/6/164
f 304/6/165 307/6/165 391/6/165 388/6/165
f 277/6/166 280/6/166 364/6/166 361/6/166
f 360/6/167 338/6/167 422/6/167 444/6/167
f 339/6/168 341/6/168 425/6/168 423/6/168
f 309/6/169 310/6/169 394/6/169 393/6/169
f 282/6/170 283/6/170 367/6/170 366/6/170
f 342/6/171 343/6/171 427/6/171 426/6/171
f 310/6/172 311/6/172 395/6/172 394/6/172
f 283/6/173 284/6/173 368/6/173 367/6/173
f 344/6/174 339/6/174 423/6/174 428/6/174
f 311/6/175 312/6/175 396/6/175 395/6/175
f 284/6/176 285/6/176 369/6/176 368/6/176
f 346/6/177 345/6/177 429/6/177 430/6/177
f 312/6/178 313/6/178 397/6/178 396/6/178
f 285/6/179 286/6/179 370/6/179 369/6/179
f 347/6/180 346/6/180 430/6/180 431/6/180
f 318/6/181 317/6/181 401/6/181 402/6/181
f 291/6/182 290/6/182 374/6/182 375/6/182
