# Blender 5.2.2 LTS
# www.blender.org
mtllib front_wheels.mtl
o front_wheels
v 0.212684 0.091667 -0.082077
v 0.230406 0.002571 -0.082077
v 0.162215 0.167199 -0.082077
v 0.086683 0.217668 -0.082077
v -0.002413 0.235391 -0.082077
v -0.091510 0.217668 -0.082077
v -0.167042 0.167199 -0.082077
v -0.217511 0.091667 -0.082077
v -0.235233 0.002571 -0.082077
v -0.217511 -0.086525 -0.082077
v -0.167042 -0.162057 -0.082077
v -0.091510 -0.212526 -0.082077
v -0.002413 -0.230248 -0.082077
v 0.086683 -0.212526 -0.082077
v 0.162215 -0.162057 -0.082077
v 0.212684 -0.086525 -0.082077
v 0.212684 0.091667 -0.082077
v 0.230406 0.002571 -0.082077
v 0.162215 0.167199 -0.082077
v 0.086683 0.217668 -0.082077
v -0.002413 0.235391 -0.082077
v -0.091510 0.217668 -0.082077
v -0.167042 0.167199 -0.082077
v -0.217511 0.091667 -0.082077
v -0.235233 0.002571 -0.082077
v -0.217511 -0.086525 -0.082077
v -0.167042 -0.162057 -0.082077
v -0.091510 -0.212526 -0.082077
v -0.002413 -0.230248 -0.082077
v 0.086683 -0.212526 -0.082077
v 0.162215 -0.162057 -0.082077
v 0.212684 -0.086525 -0.082077
v 0.196806 0.085091 -0.082077
v 0.213220 0.002571 -0.082077
v 0.150063 0.155047 -0.082077
v 0.080106 0.201791 -0.082077
v -0.002413 0.218205 -0.082077
v -0.084933 0.201791 -0.082077
v -0.154890 0.155047 -0.082077
v -0.201633 0.085091 -0.082077
v -0.218047 0.002571 -0.082077
v -0.201633 -0.079948 -0.082077
v -0.154890 -0.149905 -0.082077
v -0.084933 -0.196648 -0.082077
v -0.002413 -0.213063 -0.082077
v 0.080106 -0.196648 -0.082077
v 0.150062 -0.149905 -0.082077
v 0.196806 -0.079948 -0.082077
v 0.083959 0.038348 -0.082077
v 0.091076 0.002571 -0.082077
v 0.063693 0.068678 -0.082077
v 0.033363 0.088944 -0.082077
v -0.002414 0.096060 -0.082077
v -0.038190 0.088944 -0.082077
v -0.068521 0.068678 -0.082077
v -0.088786 0.038348 -0.082077
v -0.095903 0.002571 -0.082077
v -0.088786 -0.033206 -0.082077
v -0.068521 -0.063536 -0.082077
v -0.038190 -0.083802 -0.082077
v -0.002414 -0.090918 -0.082077
v 0.033363 -0.083802 -0.082077
v 0.063693 -0.063536 -0.082077
v 0.083959 -0.033206 -0.082077
v 0.034224 0.017747 -0.082845
v 0.037243 0.002571 -0.082845
v 0.025628 0.030613 -0.082845
v 0.012762 0.039209 -0.082845
v -0.002414 0.042228 -0.082845
v -0.017590 0.039209 -0.082845
v -0.030455 0.030613 -0.082845
v -0.039052 0.017747 -0.082845
v -0.042070 0.002571 -0.082845
v -0.039052 -0.012605 -0.082845
v -0.030455 -0.025470 -0.082845
v -0.017590 -0.034067 -0.082845
v -0.002414 -0.037086 -0.082845
v 0.012762 -0.034067 -0.082845
v 0.025628 -0.025470 -0.082845
v 0.034224 -0.012605 -0.082845
v 0.202311 0.087371 0.150337
v 0.219179 0.002571 0.150337
v 0.154276 0.159261 0.150337
v 0.082386 0.207296 0.150337
v -0.002413 0.224164 0.150337
v -0.087213 0.207296 0.150337
v -0.159103 0.159261 0.150337
v -0.207138 0.087371 0.150337
v -0.224006 0.002571 0.150337
v -0.207138 -0.082229 0.150337
v -0.159103 -0.154118 0.150337
v -0.087213 -0.202154 0.150337
v -0.002414 -0.219021 0.150337
v 0.082386 -0.202154 0.150337
v 0.154276 -0.154118 0.150337
v 0.202311 -0.082229 0.150337
v 0.319254 0.002571 -0.082077
v 0.334046 0.002571 -0.067570
v 0.308435 0.131329 -0.067570
v 0.294769 0.125668 -0.082077
v 0.235499 0.240484 -0.067570
v 0.225040 0.230025 -0.082077
v 0.126344 0.313419 -0.067570
v 0.120683 0.299753 -0.082077
v -0.002413 0.339031 -0.067570
v -0.002413 0.324239 -0.082077
v -0.131171 0.313419 -0.067570
v -0.125510 0.299753 -0.082077
v -0.240326 0.240484 -0.067570
v -0.229867 0.230025 -0.082077
v -0.313262 0.131329 -0.067570
v -0.299596 0.125668 -0.082077
v -0.338873 0.002571 -0.067570
v -0.324081 0.002571 -0.082077
v -0.313262 -0.126186 -0.067570
v -0.299596 -0.120526 -0.082077
v -0.240326 -0.235342 -0.067570
v -0.229867 -0.224882 -0.082077
v -0.131171 -0.308277 -0.067570
v -0.125510 -0.294611 -0.082077
v -0.002413 -0.333888 -0.067570
v -0.002413 -0.319096 -0.082077
v 0.126344 -0.308277 -0.067570
v 0.120683 -0.294611 -0.082077
v 0.235499 -0.235342 -0.067570
v 0.225040 -0.224882 -0.082077
v 0.308435 -0.126186 -0.067570
v 0.294769 -0.120526 -0.082077
v -0.158214 0.158371 -0.083806
v -0.161330 0.155255 -0.083806
v -0.155098 0.161487 -0.083806
v -0.059624 0.059782 -0.083806
v -0.062740 0.056666 -0.083806
v -0.056508 0.062898 -0.083806
v 0.040572 -0.213530 -0.083806
v 0.044894 -0.212670 -0.083806
v 0.036249 -0.214390 -0.083806
v 0.013371 -0.076782 -0.083806
v 0.017693 -0.075923 -0.083806
v 0.009049 -0.077642 -0.083806
v 0.081905 0.206134 -0.083806
v 0.077834 0.207820 -0.083806
v 0.085976 0.204448 -0.083806
v 0.028549 0.077321 -0.083806
v 0.024477 0.079007 -0.083806
v 0.032620 0.075634 -0.083806
v -0.124825 0.185773 -0.083806
v -0.128489 0.183325 -0.083806
v -0.121161 0.188221 -0.083806
v -0.047364 0.069844 -0.083806
v -0.051028 0.067396 -0.083806
v -0.043700 0.072292 -0.083806
v -0.002414 -0.217764 -0.083806
v 0.001993 -0.217764 -0.083806
v -0.006820 -0.217764 -0.083806
v -0.002414 -0.078337 -0.083806
v 0.001993 -0.078337 -0.083806
v -0.006820 -0.078337 -0.083806
v 0.119998 0.185773 -0.083806
v 0.116334 0.188221 -0.083806
v 0.123662 0.183325 -0.083806
v 0.042537 0.069844 -0.083806
v 0.038873 0.072292 -0.083806
v 0.046201 0.067396 -0.083806
v -0.086732 0.206134 -0.083806
v -0.090803 0.204448 -0.083806
v -0.082661 0.207820 -0.083806
v -0.033376 0.077321 -0.083806
v -0.037447 0.075634 -0.083806
v -0.029305 0.079007 -0.083806
v -0.045399 -0.213530 -0.083806
v -0.041077 -0.214390 -0.083806
v -0.049721 -0.212670 -0.083806
v -0.018198 -0.076782 -0.083806
v -0.013876 -0.077642 -0.083806
v -0.022520 -0.075923 -0.083806
v 0.153387 0.158371 -0.083806
v 0.150271 0.161487 -0.083806
v 0.156503 0.155255 -0.083806
v 0.054797 0.059782 -0.083806
v 0.051681 0.062898 -0.083806
v 0.057913 0.056666 -0.083806
v -0.045399 0.218672 -0.083806
v -0.049721 0.217813 -0.083806
v -0.041077 0.219532 -0.083806
v -0.018198 0.081925 -0.083806
v -0.022520 0.081065 -0.083806
v -0.013876 0.082785 -0.083806
v -0.086732 -0.200992 -0.083806
v -0.082661 -0.202678 -0.083806
v -0.090803 -0.199305 -0.083806
v -0.033376 -0.072178 -0.083806
v -0.029305 -0.073865 -0.083806
v -0.037447 -0.070492 -0.083806
v 0.180788 0.124983 -0.083806
v 0.178340 0.128647 -0.083806
v 0.183236 0.121319 -0.083806
v 0.064859 0.047521 -0.083806
v 0.062411 0.051186 -0.083806
v 0.067307 0.043857 -0.083806
v -0.124825 -0.180630 -0.083806
v -0.121161 -0.183079 -0.083806
v -0.128489 -0.178182 -0.083806
v -0.047364 -0.064702 -0.083806
v -0.043700 -0.067150 -0.083806
v -0.051028 -0.062253 -0.083806
v 0.201149 0.086890 -0.083806
v 0.199463 0.090961 -0.083806
v 0.202836 0.082819 -0.083806
v 0.072336 0.033533 -0.083806
v 0.070650 0.037605 -0.083806
v 0.074022 0.029462 -0.083806
v -0.158214 -0.153229 -0.083806
v -0.155098 -0.156345 -0.083806
v -0.161330 -0.150113 -0.083806
v -0.059624 -0.054640 -0.083806
v -0.056508 -0.057756 -0.083806
v -0.062740 -0.051524 -0.083806
v 0.213687 0.045556 -0.083806
v 0.212828 0.049878 -0.083806
v 0.214547 0.041234 -0.083806
v 0.076940 0.018356 -0.083806
v 0.076080 0.022678 -0.083806
v 0.077800 0.014034 -0.083806
v -0.185615 -0.119840 -0.083806
v -0.183167 -0.123504 -0.083806
v -0.188064 -0.116176 -0.083806
v -0.069686 -0.042379 -0.083806
v -0.067238 -0.046043 -0.083806
v -0.072135 -0.038715 -0.083806
v 0.217921 0.002571 -0.083806
v 0.217921 0.006978 -0.083806
v 0.217921 -0.001835 -0.083806
v 0.078495 0.002571 -0.083806
v 0.078495 0.006978 -0.083806
v 0.078495 -0.001835 -0.083806
v -0.205977 -0.081747 -0.083806
v -0.204290 -0.085819 -0.083806
v -0.207663 -0.077676 -0.083806
v -0.077163 -0.028391 -0.083806
v -0.075477 -0.032462 -0.083806
v -0.078850 -0.024320 -0.083806
v 0.213687 -0.040414 -0.083806
v 0.214547 -0.036092 -0.083806
v 0.212828 -0.044736 -0.083806
v 0.076940 -0.013213 -0.083806
v 0.077800 -0.008891 -0.083806
v 0.076080 -0.017535 -0.083806
v -0.218515 -0.040414 -0.083806
v -0.217655 -0.044736 -0.083806
v -0.219375 -0.036092 -0.083806
v -0.081767 -0.013213 -0.083806
v -0.080908 -0.017535 -0.083806
v -0.082627 -0.008891 -0.083806
v 0.201149 -0.081747 -0.083806
v 0.202836 -0.077676 -0.083806
v 0.199463 -0.085819 -0.083806
v 0.072336 -0.028391 -0.083806
v 0.074022 -0.024320 -0.083806
v 0.070650 -0.032462 -0.083806
v -0.222749 0.002571 -0.083806
v -0.222749 -0.001835 -0.083806
v -0.222749 0.006978 -0.083806
v -0.083322 0.002571 -0.083806
v -0.083322 -0.001835 -0.083806
v -0.083322 0.006978 -0.083806
v 0.180788 -0.119840 -0.083806
v 0.183236 -0.116176 -0.083806
v 0.178340 -0.123504 -0.083806
v 0.064859 -0.042379 -0.083806
v 0.067307 -0.038715 -0.083806
v 0.062411 -0.046043 -0.083806
v -0.218515 0.045556 -0.083806
v -0.219375 0.041234 -0.083806
v -0.217655 0.049878 -0.083806
v -0.081767 0.018356 -0.083806
v -0.082627 0.014034 -0.083806
v -0.080908 0.022678 -0.083806
v 0.153387 -0.153229 -0.083806
v 0.156503 -0.150113 -0.083806
v 0.150271 -0.156345 -0.083806
v 0.054797 -0.054640 -0.083806
v 0.057913 -0.051524 -0.083806
v 0.051681 -0.057756 -0.083806
v -0.205977 0.086890 -0.083806
v -0.207663 0.082818 -0.083806
v -0.204290 0.090961 -0.083806
v -0.077163 0.033533 -0.083806
v -0.078850 0.029462 -0.083806
v -0.075477 0.037605 -0.083806
v 0.119998 -0.180630 -0.083806
v 0.123662 -0.178182 -0.083806
v 0.116334 -0.183079 -0.083806
v 0.042537 -0.064702 -0.083806
v 0.046201 -0.062253 -0.083806
v 0.038873 -0.067150 -0.083806
v -0.002414 0.222906 -0.083806
v -0.006820 0.222906 -0.083806
v 0.001993 0.222906 -0.083806
v -0.002414 0.083480 -0.083806
v -0.006820 0.083480 -0.083806
v 0.001993 0.083480 -0.083806
v 0.028549 -0.072178 -0.083806
v 0.024477 -0.073865 -0.083806
v 0.032620 -0.070492 -0.083806
v 0.081905 -0.200992 -0.083806
v 0.077834 -0.202678 -0.083806
v 0.085976 -0.199305 -0.083806
v 0.013371 0.081925 -0.083806
v 0.017693 0.081065 -0.083806
v 0.009049 0.082785 -0.083806
v 0.040572 0.218672 -0.083806
v 0.044893 0.217813 -0.083806
v 0.036249 0.219532 -0.083806
v -0.185615 0.124983 -0.083806
v -0.188064 0.121319 -0.083806
v -0.183167 0.128647 -0.083806
v -0.069686 0.047521 -0.083806
v -0.072135 0.043857 -0.083806
v -0.067238 0.051186 -0.083806
v -0.036205 0.046936 -0.083505
v -0.041974 0.056928 -0.083505
v -0.053511 0.056928 -0.083505
v -0.059280 0.046936 -0.083505
v -0.053511 0.036944 -0.083505
v -0.041974 0.036944 -0.083505
v -0.043286 0.054655 -0.088726
v -0.038829 0.046936 -0.088726
v -0.052199 0.054655 -0.088726
v -0.056656 0.046936 -0.088726
v -0.052199 0.039216 -0.088726
v -0.043286 0.039216 -0.088726
v -0.036205 -0.041793 -0.083505
v -0.041974 -0.051785 -0.083505
v -0.053511 -0.051785 -0.083505
v -0.059280 -0.041793 -0.083505
v -0.053511 -0.031801 -0.083505
v -0.041974 -0.031801 -0.083505
v -0.043286 -0.049512 -0.088726
v -0.038829 -0.041793 -0.088726
v -0.052199 -0.049512 -0.088726
v -0.056656 -0.041793 -0.088726
v -0.052199 -0.034074 -0.088726
v -0.043286 -0.034074 -0.088726
v 0.031378 0.046936 -0.083505
v 0.037146 0.056928 -0.083505
v 0.048684 0.056928 -0.083505
v 0.054453 0.046936 -0.083505
v 0.048684 0.036944 -0.083505
v 0.037146 0.036944 -0.083505
v 0.038458 0.054655 -0.088726
v 0.034002 0.046936 -0.088726
v 0.047372 0.054655 -0.088726
v 0.051829 0.046936 -0.088726
v 0.047372 0.039216 -0.088726
v 0.038458 0.039216 -0.088726
v 0.031378 -0.041793 -0.083505
v 0.037146 -0.051785 -0.083505
v 0.048684 -0.051785 -0.083505
v 0.054453 -0.041793 -0.083505
v 0.048684 -0.031801 -0.083505
v 0.037146 -0.031801 -0.083505
v 0.038458 -0.049512 -0.088726
v 0.034002 -0.041793 -0.088726
v 0.047372 -0.049512 -0.088726
v 0.051829 -0.041793 -0.088726
v 0.047372 -0.034074 -0.088726
v 0.038458 -0.034074 -0.088726
v 0.155652 -0.062902 0.097702
v 0.118565 -0.118407 0.097702
v 0.063059 -0.155494 0.097702
v -0.002413 -0.168518 0.097702
v -0.067886 -0.155494 0.097702
v -0.123392 -0.118407 0.097702
v -0.160479 -0.062902 0.097702
v -0.173502 0.002571 0.097702
v -0.160479 0.068044 0.097702
v -0.123392 0.123549 0.097702
v -0.067886 0.160637 0.097702
v -0.002413 0.173660 0.097702
v 0.063059 0.160637 0.097702
v 0.118565 0.123549 0.097702
v 0.168675 0.002571 0.097702
v 0.155652 0.068044 0.097702
v 0.308435 0.131329 0.132253
v 0.291400 0.124273 0.150337
v 0.315608 0.002571 0.150337
v 0.334046 0.002571 0.132253
v 0.235499 0.240484 0.132253
v 0.222461 0.227446 0.150337
v 0.126344 0.313419 0.132253
v 0.119288 0.296385 0.150337
v -0.002413 0.339031 0.132253
v -0.002413 0.320592 0.150337
v -0.131171 0.313419 0.132253
v -0.124115 0.296385 0.150337
v -0.240326 0.240484 0.132253
v -0.227289 0.227446 0.150337
v -0.313262 0.131329 0.132253
v -0.296227 0.124273 0.150337
v -0.338873 0.002571 0.132253
v -0.320435 0.002571 0.150337
v -0.313262 -0.126186 0.132253
v -0.296227 -0.119130 0.150337
v -0.240326 -0.235342 0.132253
v -0.227289 -0.222304 0.150337
v -0.131171 -0.308277 0.132253
v -0.124115 -0.291242 0.150337
v -0.002414 -0.333888 0.132253
v -0.002414 -0.315450 0.150337
v 0.126344 -0.308277 0.132253
v 0.119288 -0.291242 0.150337
v 0.235499 -0.235342 0.132253
v 0.222461 -0.222304 0.150337
v 0.308435 -0.126186 0.132253
v 0.291400 -0.119130 0.150337
v 0.154276 -0.154118 0.097702
v 0.082386 -0.202154 0.097702
v -0.087213 -0.202154 0.097702
v -0.159103 -0.154118 0.097702
v -0.224006 0.002571 0.097702
v -0.207138 0.087371 0.097702
v -0.087213 0.207296 0.097702
v -0.002413 0.224164 0.097702
v 0.154276 0.159261 0.097702
v 0.202311 0.087371 0.097702
v 0.219179 0.002571 0.097702
v 0.202311 -0.082229 0.097702
v -0.002414 -0.219021 0.097702
v -0.207138 -0.082229 0.097702
v -0.159103 0.159261 0.097702
v 0.082386 0.207296 0.097702
v 0.118565 -0.118407 0.076183
v 0.063059 -0.155494 0.076183
v -0.067886 -0.155494 0.076183
v -0.123392 -0.118407 0.076183
v -0.173502 0.002571 0.076183
v -0.160479 0.068044 0.076183
v -0.067886 0.160637 0.076183
v -0.002413 0.173660 0.076183
v 0.118565 0.123549 0.076183
v 0.155652 0.068044 0.076183
v 0.168675 0.002571 0.076183
v 0.155652 -0.062902 0.076183
v -0.002413 -0.168518 0.076183
v -0.160479 -0.062902 0.076183
v -0.123392 0.123549 0.076183
v 0.063059 0.160637 0.076183
v -0.122302 -0.133937 0.101558
v -0.118058 -0.129694 0.107558
v -0.112262 -0.123897 0.109755
v -0.106466 -0.118101 0.107558
v -0.102222 -0.113858 0.101558
v -0.100669 -0.112305 0.093360
v -0.102222 -0.113858 0.085163
v -0.106466 -0.118101 0.079162
v -0.112262 -0.123897 0.076966
v -0.118058 -0.129694 0.079162
v -0.122302 -0.133937 0.085163
v -0.123855 -0.135490 0.093360
v -0.161522 -0.075239 0.101558
v -0.155978 -0.072942 0.107558
v -0.148405 -0.069806 0.109755
v -0.140832 -0.066669 0.107558
v -0.135288 -0.064372 0.101558
v -0.133258 -0.063532 0.093360
v -0.135288 -0.064372 0.085163
v -0.140832 -0.066669 0.079162
v -0.148405 -0.069806 0.076966
v -0.155978 -0.072942 0.079162
v -0.161522 -0.075239 0.085163
v -0.163552 -0.076079 0.093360
v -0.175295 -0.006000 0.101558
v -0.169294 -0.006000 0.107558
v -0.161097 -0.006000 0.109755
v -0.152899 -0.006000 0.107558
v -0.146899 -0.006000 0.101558
v -0.144702 -0.006000 0.093360
v -0.146899 -0.006000 0.085163
v -0.152899 -0.006000 0.079162
v -0.161097 -0.006000 0.076966
v -0.169294 -0.006000 0.079162
v -0.175295 -0.006000 0.085163
v -0.177491 -0.006000 0.093360
v -0.161522 0.063239 0.101558
v -0.155978 0.060943 0.107558
v -0.148405 0.057806 0.109755
v -0.140832 0.054669 0.107558
v -0.135288 0.052372 0.101558
v -0.133258 0.051532 0.093360
v -0.135288 0.052372 0.085163
v -0.140832 0.054669 0.079162
v -0.148405 0.057806 0.076966
v -0.155978 0.060943 0.079162
v -0.161522 0.063239 0.085163
v -0.163552 0.064080 0.093360
v -0.122302 0.121937 0.101558
v -0.118058 0.117694 0.107558
v -0.112262 0.111897 0.109755
v -0.106466 0.106101 0.107558
v -0.102222 0.101858 0.101558
v -0.100669 0.100305 0.093360
v -0.102222 0.101858 0.085163
v -0.106466 0.106101 0.079162
v -0.112262 0.111897 0.076966
v -0.118058 0.117694 0.079162
v -0.122302 0.121937 0.085163
v -0.123855 0.123490 0.093360
v -0.063604 0.161158 0.101558
v -0.061307 0.155614 0.107558
v -0.058170 0.148040 0.109755
v -0.055033 0.140467 0.107558
v -0.052737 0.134923 0.101558
v -0.051896 0.132894 0.093360
v -0.052737 0.134923 0.085163
v -0.055033 0.140467 0.079162
v -0.058170 0.148040 0.076966
v -0.061307 0.155614 0.079162
v -0.063604 0.161158 0.085163
v -0.064444 0.163187 0.093360
v 0.005635 0.174930 0.101558
v 0.005635 0.168929 0.107558
v 0.005635 0.160732 0.109755
v 0.005635 0.152535 0.107558
v 0.005635 0.146534 0.101558
v 0.005635 0.144337 0.093360
v 0.005635 0.146534 0.085163
v 0.005635 0.152535 0.079162
v 0.005635 0.160732 0.076966
v 0.005635 0.168929 0.079162
v 0.005635 0.174930 0.085163
v 0.005635 0.177126 0.093360
v 0.074874 0.161158 0.101558
v 0.072578 0.155614 0.107558
v 0.069441 0.148040 0.109755
v 0.066304 0.140467 0.107558
v 0.064007 0.134923 0.101558
v 0.063167 0.132894 0.093360
v 0.064007 0.134923 0.085163
v 0.066304 0.140467 0.079162
v 0.069441 0.148040 0.076966
v 0.072578 0.155614 0.079162
v 0.074874 0.161158 0.085163
v 0.075715 0.163187 0.093360
v 0.133572 0.121937 0.101558
v 0.129329 0.117694 0.107558
v 0.123532 0.111897 0.109755
v 0.117736 0.106101 0.107558
v 0.113493 0.101858 0.101558
v 0.111940 0.100305 0.093360
v 0.113493 0.101858 0.085163
v 0.117736 0.106101 0.079162
v 0.123532 0.111897 0.076966
v 0.129329 0.117694 0.079162
v 0.133572 0.121937 0.085163
v 0.135125 0.123490 0.093360
v 0.172793 0.063239 0.101558
v 0.167249 0.060943 0.107558
v 0.159675 0.057806 0.109755
v 0.152102 0.054669 0.107558
v 0.146558 0.052372 0.101558
v 0.144529 0.051532 0.093360
v 0.146558 0.052372 0.085163
v 0.152102 0.054669 0.079162
v 0.159675 0.057806 0.076966
v 0.167249 0.060943 0.079162
v 0.172793 0.063239 0.085163
v 0.174822 0.064080 0.093360
v 0.186565 -0.006000 0.101558
v 0.180564 -0.006000 0.107558
v 0.172367 -0.006000 0.109755
v 0.164170 -0.006000 0.107558
v 0.158169 -0.006000 0.101558
v 0.155973 -0.006000 0.093360
v 0.158169 -0.006000 0.085163
v 0.164170 -0.006000 0.079162
v 0.172367 -0.006000 0.076966
v 0.180564 -0.006000 0.079162
v 0.186565 -0.006000 0.085163
v 0.188762 -0.006000 0.093360
v 0.172793 -0.075239 0.101558
v 0.167249 -0.072942 0.107558
v 0.159675 -0.069805 0.109755
v 0.152102 -0.066669 0.107558
v 0.146558 -0.064372 0.101558
v 0.144529 -0.063532 0.093360
v 0.146558 -0.064372 0.085163
v 0.152102 -0.066669 0.079162
v 0.159675 -0.069805 0.076966
v 0.167249 -0.072942 0.079162
v 0.172793 -0.075239 0.085163
v 0.174822 -0.076079 0.093360
v 0.133572 -0.133937 0.101558
v 0.129329 -0.129694 0.107558
v 0.123532 -0.123897 0.109755
v 0.117736 -0.118101 0.107558
v 0.113493 -0.113858 0.101558
v 0.111940 -0.112305 0.093360
v 0.113493 -0.113858 0.085163
v 0.117736 -0.118101 0.079162
v 0.123532 -0.123897 0.076966
v 0.129329 -0.129694 0.079162
v 0.133572 -0.133937 0.085163
v 0.135125 -0.135490 0.093360
v 0.074874 -0.173157 0.101558
v 0.072578 -0.167613 0.107558
v 0.069441 -0.160040 0.109755
v 0.066304 -0.152467 0.107558
v 0.064007 -0.146923 0.101558
v 0.063167 -0.144894 0.093360
v 0.064008 -0.146923 0.085163
v 0.066304 -0.152467 0.079162
v 0.069441 -0.160040 0.076966
v 0.072578 -0.167613 0.079162
v 0.074874 -0.173157 0.085163
v 0.075715 -0.175187 0.093360
v 0.005635 -0.186930 0.101558
v 0.005635 -0.180929 0.107558
v 0.005635 -0.172732 0.109755
v 0.005635 -0.164535 0.107558
v 0.005635 -0.158534 0.101558
v 0.005635 -0.156337 0.093360
v 0.005635 -0.158534 0.085163
v 0.005635 -0.164535 0.079162
v 0.005635 -0.172732 0.076966
v 0.005635 -0.180929 0.079162
v 0.005635 -0.186930 0.085163
v 0.005635 -0.189126 0.093360
v -0.063604 -0.173158 0.101558
v -0.061307 -0.167613 0.107558
v -0.058170 -0.160040 0.109755
v -0.055033 -0.152467 0.107558
v -0.052737 -0.146923 0.101558
v -0.051896 -0.144894 0.093360
v -0.052737 -0.146923 0.085163
v -0.055033 -0.152467 0.079162
v -0.058170 -0.160040 0.076966
v -0.061307 -0.167613 0.079162
v -0.063604 -0.173158 0.085163
v -0.064444 -0.175187 0.093360
vn -0.0000 -0.0000 1.0000
vn 0.5556 -0.8315 -0.0000
vn -0.0000 -0.0000 -1.0000
vn -0.0000 -0.0143 -0.9999
vn 0.0055 -0.0132 -0.9999
vn -0.0055 0.0132 -0.9999
vn -0.0101 0.0101 -0.9999
vn 0.0101 -0.0101 -0.9999
vn -0.0132 0.0055 -0.9999
vn 0.0132 -0.0055 -0.9999
vn -0.0143 -0.0000 -0.9999
vn 0.0143 -0.0000 -0.9999
vn 0.0132 0.0055 -0.9999
vn -0.0132 -0.0055 -0.9999
vn 0.0101 0.0101 -0.9999
vn -0.0101 -0.0101 -0.9999
vn 0.0055 0.0132 -0.9999
vn -0.0055 -0.0132 -0.9999
vn -0.0000 0.0143 -0.9999
vn -0.8315 -0.5556 -0.0000
vn 0.6935 0.1379 -0.7071
vn 0.5879 0.3928 -0.7071
vn 0.3928 0.5879 -0.7071
vn 0.1379 0.6935 -0.7071
vn -0.1379 0.6935 -0.7071
vn -0.3928 0.5879 -0.7071
vn -0.5879 0.3928 -0.7071
vn -0.6935 0.1379 -0.7071
vn -0.6935 -0.1379 -0.7071
vn -0.5879 -0.3928 -0.7071
vn -0.3928 -0.5879 -0.7071
vn -0.1379 -0.6935 -0.7071
vn 0.1379 -0.6935 -0.7071
vn 0.3928 -0.5879 -0.7071
vn 0.5879 -0.3928 -0.7071
vn 0.6935 -0.1379 -0.7071
vn -0.7941 0.4585 0.3991
vn 0.7941 0.4585 0.3991
vn -0.0000 -0.9169 0.3991
vn -0.0000 0.9169 0.3991
vn 0.7941 -0.4585 0.3991
vn -0.7941 -0.4585 0.3991
vn 0.9808 0.1951 -0.0000
vn 0.8315 0.5556 -0.0000
vn 0.5556 0.8315 -0.0000
vn 0.1951 0.9808 -0.0000
vn -0.1951 0.9808 -0.0000
vn -0.5556 0.8315 -0.0000
vn -0.8315 0.5556 -0.0000
vn -0.9808 0.1951 -0.0000
vn -0.9808 -0.1951 -0.0000
vn -0.5556 -0.8315 -0.0000
vn -0.1951 -0.9808 -0.0000
vn 0.1951 -0.9808 -0.0000
vn 0.8315 -0.5556 -0.0000
vn 0.9808 -0.1951 -0.0000
vn 0.6935 0.1379 0.7071
vn 0.5879 0.3928 0.7071
vn 0.3928 0.5879 0.7071
vn 0.1379 0.6935 0.7071
vn -0.1379 0.6935 0.7071
vn -0.3928 0.5879 0.7071
vn -0.5879 0.3928 0.7071
vn -0.6935 0.1379 0.7071
vn -0.6935 -0.1379 0.7071
vn -0.5879 -0.3928 0.7071
vn -0.3928 -0.5879 0.7071
vn -0.1379 -0.6935 0.7071
vn 0.1379 -0.6935 0.7071
vn 0.3928 -0.5879 0.7071
vn 0.5879 -0.3928 0.7071
vn 0.6935 -0.1379 0.7071
vn -0.8042 -0.5373 0.2542
vn -0.5936 -0.3966 0.7002
vn -0.2191 -0.1464 0.9646
vn 0.2191 0.1464 0.9646
vn 0.5936 0.3966 0.7002
vn 0.8042 0.5373 0.2542
vn 0.8042 0.5373 -0.2542
vn 0.5936 0.3966 -0.7002
vn 0.2191 0.1464 -0.9646
vn -0.2191 -0.1464 -0.9646
vn -0.5936 -0.3966 -0.7002
vn -0.8042 -0.5373 -0.2542
vn -0.9486 -0.1887 0.2542
vn -0.7002 -0.1393 0.7002
vn -0.2585 -0.0514 0.9646
vn 0.2585 0.0514 0.9646
vn 0.7002 0.1393 0.7002
vn 0.9486 0.1887 0.2542
vn 0.9486 0.1887 -0.2542
vn 0.7002 0.1393 -0.7002
vn 0.2585 0.0514 -0.9646
vn -0.2585 -0.0514 -0.9646
vn -0.7002 -0.1393 -0.7002
vn -0.9486 -0.1887 -0.2542
vn -0.9486 0.1887 0.2542
vn -0.7002 0.1393 0.7002
vn -0.2585 0.0514 0.9646
vn 0.2585 -0.0514 0.9646
vn 0.7002 -0.1393 0.7002
vn 0.9486 -0.1887 0.2542
vn 0.9486 -0.1887 -0.2542
vn 0.7002 -0.1393 -0.7002
vn 0.2585 -0.0514 -0.9646
vn -0.2585 0.0514 -0.9646
vn -0.7002 0.1393 -0.7002
vn -0.9486 0.1887 -0.2542
vn -0.8042 0.5373 0.2542
vn -0.5936 0.3966 0.7002
vn -0.2191 0.1464 0.9646
vn 0.2191 -0.1464 0.9646
vn 0.5936 -0.3966 0.7002
vn 0.8042 -0.5373 0.2542
vn 0.8042 -0.5373 -0.2542
vn 0.5936 -0.3966 -0.7002
vn 0.2191 -0.1464 -0.9646
vn -0.2191 0.1464 -0.9646
vn -0.5936 0.3966 -0.7002
vn -0.8042 0.5373 -0.2542
vn -0.5373 0.8042 0.2542
vn -0.3966 0.5936 0.7002
vn -0.1464 0.2191 0.9646
vn 0.1464 -0.2191 0.9646
vn 0.3966 -0.5936 0.7002
vn 0.5373 -0.8042 0.2542
vn 0.5373 -0.8042 -0.2542
vn 0.3966 -0.5936 -0.7002
vn 0.1464 -0.2191 -0.9646
vn -0.1464 0.2191 -0.9646
vn -0.3966 0.5936 -0.7002
vn -0.5373 0.8042 -0.2542
vn -0.1887 0.9486 0.2542
vn -0.1393 0.7002 0.7002
vn -0.0514 0.2585 0.9646
vn 0.0514 -0.2585 0.9646
vn 0.1393 -0.7002 0.7002
vn 0.1887 -0.9486 0.2542
vn 0.1887 -0.9486 -0.2542
vn 0.1393 -0.7002 -0.7002
vn 0.0514 -0.2585 -0.9646
vn -0.0514 0.2585 -0.9646
vn -0.1393 0.7002 -0.7002
vn -0.1887 0.9486 -0.2542
vn 0.1887 0.9486 0.2542
vn 0.1393 0.7002 0.7002
vn 0.0514 0.2585 0.9646
vn -0.0514 -0.2585 0.9646
vn -0.1393 -0.7002 0.7002
vn -0.1887 -0.9486 0.2542
vn -0.1887 -0.9486 -0.2542
vn -0.1393 -0.7002 -0.7002
vn -0.0514 -0.2585 -0.9646
vn 0.0514 0.2585 -0.9646
vn 0.1393 0.7002 -0.7002
vn 0.1887 0.9486 -0.2542
vn 0.5373 0.8042 0.2542
vn 0.3966 0.5936 0.7002
vn 0.1464 0.2191 0.9646
vn -0.1464 -0.2191 0.9646
vn -0.3966 -0.5936 0.7002
vn -0.5373 -0.8042 0.2542
vn -0.5373 -0.8042 -0.2542
vn -0.3966 -0.5936 -0.7002
vn -0.1464 -0.2191 -0.9646
vn 0.1464 0.2191 -0.9646
vn 0.3966 0.5936 -0.7002
vn 0.5373 0.8042 -0.2542
vt 0.896013 0.886712
vt 0.896013 0.886712
vt 0.632480 0.951820
vt 0.632480 0.951821
vt 0.896014 0.886712
vt 0.896013 0.886712
vt 0.896013 0.886712
vt 0.896014 0.886712
vt 0.896014 0.886712
vt 0.896014 0.886712
vt 0.896013 0.886712
vt 0.896013 0.886712
vt 0.896014 0.886712
vt 0.896013 0.886712
vt 0.635580 0.954921
vt 0.894463 0.889813
vt 0.632480 0.951821
vt 0.632480 0.951821
vt 0.896014 0.886712
vt 0.636417 0.951107
vt 0.511843 0.927715
vt 0.896013 0.886712
vt 0.632480 0.951820
vt 0.632480 0.951821
vt 0.632480 0.951820
vt 0.632480 0.951821
vt 0.632480 0.951821
vt 0.632480 0.951820
vt 0.632480 0.951821
vt 0.130883 0.241618
s 1
usemtl baseGradient.005
f 95/1/1 94/2/1 412/1/1 414/1/1
f 13/1/1 29/1/1 30/1/1 14/1/1
f 379/3/2 378/4/2 447/4/2 439/3/2
f 90/2/1 89/5/1 402/6/1 404/7/1
f 91/8/1 90/2/1 404/1/1 406/1/1
f 84/9/1 83/10/1 390/6/1 392/6/1
f 82/11/1 96/1/1 416/6/1 387/6/1
f 92/12/1 91/8/1 406/1/1 408/1/1
f 85/5/1 84/9/1 392/6/1 394/6/1
f 93/8/1 92/12/1 408/1/1 410/6/1
f 86/13/1 85/5/1 394/6/1 396/1/1
f 120/1/3 12/1/3 13/1/3 122/1/3
f 87/9/1 86/13/1 396/1/1 398/6/1
f 94/2/1 93/8/1 410/6/1 412/7/1
f 88/14/1 87/9/1 398/6/1 400/7/1
f 96/1/1 95/1/1 414/1/1 416/1/1
f 89/5/1 88/14/1 400/1/1 402/6/1
f 19/15/3 35/15/3 36/15/3 20/15/3
f 6/1/1 22/1/1 23/1/1 7/1/1
f 14/1/1 30/1/1 31/1/1 15/1/1
f 7/1/1 23/1/1 24/1/1 8/1/1
f 15/1/1 31/1/1 32/1/1 16/1/1
f 8/1/1 24/1/1 25/1/1 9/1/1
f 2/1/1 18/1/1 17/1/1 1/1/1
f 16/1/1 32/1/1 18/1/1 2/1/1
f 9/1/1 25/1/1 26/1/1 10/1/1
f 1/1/1 17/1/1 19/1/1 3/1/1
f 10/1/1 26/1/1 27/1/1 11/1/1
f 3/1/1 19/1/1 20/1/1 4/1/1
f 11/1/1 27/1/1 28/1/1 12/1/1
f 4/1/1 20/1/1 21/1/1 5/1/1
f 12/1/1 28/1/1 29/1/1 13/1/1
f 5/1/1 21/1/1 22/1/1 6/1/1
f 40/1/3 56/1/3 57/1/3 41/1/3
f 27/15/3 43/15/3 44/15/3 28/15/3
f 20/15/3 36/15/3 37/15/3 21/15/3
f 28/15/3 44/15/3 45/15/3 29/15/3
f 21/15/3 37/15/3 38/15/3 22/15/3
f 29/15/3 45/15/3 46/15/3 30/15/3
f 22/15/3 38/15/3 39/15/3 23/15/3
f 30/15/3 46/15/3 47/15/3 31/15/3
f 23/15/3 39/15/3 40/15/3 24/15/3
f 31/15/3 47/15/3 48/15/3 32/15/3
f 24/15/3 40/15/3 41/15/3 25/15/3
f 18/15/3 34/15/3 33/15/3 17/15/3
f 32/15/3 48/15/3 34/15/3 18/15/3
f 25/15/3 41/15/3 42/15/3 26/15/3
f 17/15/3 33/15/3 35/15/3 19/15/3
f 26/15/3 42/15/3 43/15/3 27/15/3
f 61/15/4 77/15/4 78/15/5 62/15/5
f 34/1/3 50/1/3 49/1/3 33/1/3
f 48/1/3 64/1/3 50/1/3 34/1/3
f 41/1/3 57/1/3 58/1/3 42/1/3
f 33/1/3 49/1/3 51/1/3 35/1/3
f 42/1/3 58/1/3 59/1/3 43/1/3
f 35/1/3 51/1/3 52/1/3 36/1/3
f 43/1/3 59/1/3 60/1/3 44/1/3
f 36/1/3 52/1/3 53/1/3 37/1/3
f 44/1/3 60/1/3 61/1/3 45/1/3
f 37/1/3 53/1/3 54/1/3 38/1/3
f 45/1/3 61/1/3 62/1/3 46/1/3
f 38/1/3 54/1/3 55/1/3 39/1/3
f 46/1/3 62/1/3 63/1/3 47/1/3
f 39/1/3 55/1/3 56/1/3 40/1/3
f 47/1/3 63/1/3 64/1/3 48/1/3
f 65/16/3 66/16/3 80/16/3 79/16/3 78/16/3 77/16/3 76/16/3 75/16/3 74/16/3 73/16/3 72/16/3 71/16/3 70/16/3 69/16/3 68/16/3 67/16/3
f 54/15/6 70/15/6 71/15/7 55/15/7
f 62/15/5 78/15/5 79/15/8 63/15/8
f 55/15/7 71/15/7 72/15/9 56/15/9
f 63/15/8 79/15/8 80/15/10 64/15/10
f 56/15/9 72/15/9 73/15/11 57/15/11
f 50/15/12 66/15/12 65/15/13 49/15/13
f 64/15/10 80/15/10 66/15/12 50/15/12
f 57/15/11 73/15/11 74/15/14 58/15/14
f 49/15/13 65/15/13 67/15/15 51/15/15
f 58/15/14 74/15/14 75/15/16 59/15/16
f 51/15/15 67/15/15 68/15/17 52/15/17
f 59/15/16 75/15/16 76/15/18 60/15/18
f 52/15/17 68/15/17 69/15/19 53/15/19
f 60/15/18 76/15/18 77/15/4 61/15/4
f 53/15/19 69/15/19 70/15/6 54/15/6
f 81/17/20 83/18/20 425/18/20 426/17/20
f 106/1/3 5/1/3 6/1/3 108/1/3
f 122/1/3 13/1/3 14/1/3 124/1/3
f 108/1/3 6/1/3 7/1/3 110/1/3
f 124/1/3 14/1/3 15/1/3 126/1/3
f 110/1/3 7/1/3 8/1/3 112/1/3
f 126/1/3 15/1/3 16/1/3 128/1/3
f 112/1/3 8/1/3 9/1/3 114/1/3
f 97/1/3 2/1/3 1/1/3 100/1/3
f 128/1/3 16/1/3 2/1/3 97/1/3
f 114/1/3 9/1/3 10/1/3 116/1/3
f 100/1/3 1/1/3 3/1/3 102/1/3
f 116/1/3 10/1/3 11/1/3 118/1/3
f 102/1/3 3/1/3 4/1/3 104/1/3
f 118/1/3 11/1/3 12/1/3 120/1/3
f 104/1/3 4/1/3 5/1/3 106/1/3
f 100/1/21 99/1/21 98/1/21 97/1/21
f 102/1/22 101/1/22 99/1/22 100/1/22
f 104/1/23 103/1/23 101/1/23 102/1/23
f 106/1/24 105/1/24 103/1/24 104/1/24
f 108/1/25 107/1/25 105/1/25 106/1/25
f 110/1/26 109/1/26 107/1/26 108/1/26
f 112/1/27 111/1/27 109/1/27 110/1/27
f 114/1/28 113/1/28 111/1/28 112/1/28
f 116/1/29 115/1/29 113/1/29 114/1/29
f 118/1/30 117/1/30 115/1/30 116/1/30
f 120/1/31 119/1/31 117/1/31 118/1/31
f 122/1/32 121/1/32 119/1/32 120/1/32
f 124/1/33 123/1/33 121/1/33 122/1/33
f 126/1/34 125/1/34 123/1/34 124/1/34
f 128/1/35 127/1/35 125/1/35 126/1/35
f 97/1/36 98/1/36 127/1/36 128/1/36
f 83/10/1 81/19/1 386/6/1 390/6/1
f 129/20/3 131/20/3 134/20/3 132/20/3
f 130/20/3 129/20/3 132/20/3 133/20/3
f 135/20/3 137/20/3 140/20/3 138/20/3
f 136/20/3 135/20/3 138/20/3 139/20/3
f 141/20/3 143/20/3 146/20/3 144/20/3
f 142/20/3 141/20/3 144/20/3 145/20/3
f 147/20/3 149/20/3 152/20/3 150/20/3
f 148/20/3 147/20/3 150/20/3 151/20/3
f 153/20/3 155/20/3 158/20/3 156/20/3
f 154/20/3 153/20/3 156/20/3 157/20/3
f 159/20/3 161/20/3 164/20/3 162/20/3
f 160/20/3 159/20/3 162/20/3 163/20/3
f 165/20/3 167/20/3 170/20/3 168/20/3
f 166/20/3 165/20/3 168/20/3 169/20/3
f 171/20/3 173/20/3 176/20/3 174/20/3
f 172/20/3 171/20/3 174/20/3 175/20/3
f 177/20/3 179/20/3 182/20/3 180/20/3
f 178/20/3 177/20/3 180/20/3 181/20/3
f 183/20/3 185/20/3 188/20/3 186/20/3
f 184/20/3 183/20/3 186/20/3 187/20/3
f 189/20/3 191/20/3 194/20/3 192/20/3
f 190/20/3 189/20/3 192/20/3 193/20/3
f 195/20/3 197/20/3 200/20/3 198/20/3
f 196/20/3 195/20/3 198/20/3 199/20/3
f 201/20/3 203/20/3 206/20/3 204/20/3
f 202/20/3 201/20/3 204/20/3 205/20/3
f 207/20/3 209/20/3 212/20/3 210/20/3
f 208/20/3 207/20/3 210/20/3 211/20/3
f 213/20/3 215/20/3 218/20/3 216/20/3
f 214/20/3 213/20/3 216/20/3 217/20/3
f 219/20/3 221/20/3 224/20/3 222/20/3
f 220/20/3 219/20/3 222/20/3 223/20/3
f 225/20/3 227/20/3 230/20/3 228/20/3
f 226/20/3 225/20/3 228/20/3 229/20/3
f 231/20/3 233/20/3 236/20/3 234/20/3
f 232/20/3 231/20/3 234/20/3 235/20/3
f 237/20/3 239/20/3 242/20/3 240/20/3
f 238/20/3 237/20/3 240/20/3 241/20/3
f 243/20/3 245/20/3 248/20/3 246/20/3
f 244/20/3 243/20/3 246/20/3 247/20/3
f 249/20/3 251/20/3 254/20/3 252/20/3
f 250/20/3 249/20/3 252/20/3 253/20/3
f 255/20/3 257/20/3 260/20/3 258/20/3
f 256/20/3 255/20/3 258/20/3 259/20/3
f 261/20/3 263/20/3 266/20/3 264/20/3
f 262/20/3 261/20/3 264/20/3 265/20/3
f 267/20/3 269/20/3 272/20/3 270/20/3
f 268/20/3 267/20/3 270/20/3 271/20/3
f 273/20/3 275/20/3 278/20/3 276/20/3
f 274/20/3 273/20/3 276/20/3 277/20/3
f 279/20/3 281/20/3 284/20/3 282/20/3
f 280/20/3 279/20/3 282/20/3 283/20/3
f 285/20/3 287/20/3 290/20/3 288/20/3
f 286/20/3 285/20/3 288/20/3 289/20/3
f 291/20/3 293/20/3 296/20/3 294/20/3
f 292/20/3 291/20/3 294/20/3 295/20/3
f 297/20/3 299/20/3 302/20/3 300/20/3
f 298/20/3 297/20/3 300/20/3 301/20/3
f 303/20/3 305/20/3 308/20/3 306/20/3
f 304/20/3 303/20/3 306/20/3 307/20/3
f 309/20/3 311/20/3 314/20/3 312/20/3
f 310/20/3 309/20/3 312/20/3 313/20/3
f 315/20/3 317/20/3 320/20/3 318/20/3
f 316/20/3 315/20/3 318/20/3 319/20/3
f 322/21/3 321/21/3 326/21/3 325/21/3 324/21/3 323/21/3
f 327/21/1 329/21/1 330/21/1 331/21/1 332/21/1 328/21/1
f 321/21/37 328/21/37 332/21/37 326/21/37
f 325/21/38 331/21/38 330/21/38 324/21/38
f 323/21/39 329/21/39 327/21/39 322/21/39
f 326/21/40 332/21/40 331/21/40 325/21/40
f 324/21/41 330/21/41 329/21/41 323/21/41
f 322/21/42 327/21/42 328/21/42 321/21/42
f 334/21/3 335/21/3 336/21/3 337/21/3 338/21/3 333/21/3
f 339/21/1 340/21/1 344/21/1 343/21/1 342/21/1 341/21/1
f 333/21/42 338/21/42 344/21/42 340/21/42
f 337/21/41 336/21/41 342/21/41 343/21/41
f 335/21/40 334/21/40 339/21/40 341/21/40
f 338/21/39 337/21/39 343/21/39 344/21/39
f 336/21/38 335/21/38 341/21/38 342/21/38
f 334/21/37 333/21/37 340/21/37 339/21/37
f 346/21/3 347/21/3 348/21/3 349/21/3 350/21/3 345/21/3
f 351/21/1 352/21/1 356/21/1 355/21/1 354/21/1 353/21/1
f 345/21/38 350/21/38 356/21/38 352/21/38
f 349/21/37 348/21/37 354/21/37 355/21/37
f 347/21/39 346/21/39 351/21/39 353/21/39
f 350/21/40 349/21/40 355/21/40 356/21/40
f 348/21/42 347/21/42 353/21/42 354/21/42
f 346/21/41 345/21/41 352/21/41 351/21/41
f 358/21/3 357/21/3 362/21/3 361/21/3 360/21/3 359/21/3
f 363/21/1 365/21/1 366/21/1 367/21/1 368/21/1 364/21/1
f 357/21/41 364/21/41 368/21/41 362/21/41
f 361/21/42 367/21/42 366/21/42 360/21/42
f 359/21/40 365/21/40 363/21/40 358/21/40
f 362/21/39 368/21/39 367/21/39 361/21/39
f 360/21/37 366/21/37 365/21/37 359/21/37
f 358/21/38 363/21/38 364/21/38 357/21/38
f 99/1/43 385/1/43 388/1/43 98/1/43
f 101/1/44 389/1/44 385/1/44 99/1/44
f 103/1/45 391/1/45 389/7/45 101/1/45
f 105/1/46 393/1/46 391/7/46 103/1/46
f 107/1/47 395/1/47 393/7/47 105/1/47
f 109/1/48 397/1/48 395/7/48 107/1/48
f 111/1/49 399/1/49 397/1/49 109/1/49
f 113/1/50 401/1/50 399/7/50 111/1/50
f 115/1/51 403/1/51 401/1/51 113/1/51
f 117/1/20 405/1/20 403/7/20 115/1/20
f 119/1/52 407/1/52 405/7/52 117/1/52
f 121/1/53 409/1/53 407/7/53 119/1/53
f 123/1/54 411/7/54 409/7/54 121/1/54
f 125/1/2 413/1/2 411/7/2 123/1/2
f 127/1/55 415/1/55 413/7/55 125/1/55
f 98/1/56 388/1/56 415/7/56 127/1/56
f 386/22/57 387/6/57 388/1/57 385/1/57
f 390/6/58 386/6/58 385/1/58 389/1/58
f 392/6/59 390/6/59 389/7/59 391/1/59
f 394/6/60 392/6/60 391/7/60 393/1/60
f 396/1/61 394/6/61 393/7/61 395/1/61
f 398/6/62 396/1/62 395/7/62 397/1/62
f 400/7/63 398/6/63 397/1/63 399/1/63
f 402/6/64 400/1/64 399/7/64 401/1/64
f 404/7/65 402/6/65 401/1/65 403/1/65
f 406/1/66 404/1/66 403/7/66 405/1/66
f 408/1/67 406/1/67 405/7/67 407/1/67
f 410/6/68 408/1/68 407/7/68 409/1/68
f 412/7/69 410/6/69 409/7/69 411/7/69
f 414/1/70 412/1/70 411/7/70 413/1/70
f 416/1/71 414/1/71 413/7/71 415/1/71
f 387/6/72 416/6/72 415/7/72 388/1/72
f 81/19/1 82/11/1 387/6/1 386/22/1
f 90/23/44 91/24/44 420/24/44 430/23/44
f 83/18/52 84/4/52 432/4/52 425/18/52
f 91/24/45 92/25/45 419/25/45 420/24/45
f 84/4/53 85/26/53 424/26/53 432/4/53
f 92/25/46 93/24/46 429/24/46 419/25/46
f 85/26/54 86/3/54 423/3/54 424/26/54
f 93/24/47 94/23/47 418/23/47 429/24/47
f 86/3/2 87/4/2 431/4/2 423/3/2
f 94/23/48 95/27/48 417/27/48 418/23/48
f 87/4/55 88/28/55 422/28/55 431/4/55
f 95/27/49 96/27/49 428/27/49 417/27/49
f 88/28/56 89/26/56 421/26/56 422/28/56
f 82/29/51 81/17/51 426/17/51 427/29/51
f 96/27/50 82/29/50 427/29/50 428/27/50
f 89/26/43 90/23/43 430/23/43 421/26/43
f 370/27/1 371/23/1 418/23/1 417/27/1
f 373/25/1 374/24/1 420/24/1 419/25/1
f 376/26/1 377/28/1 422/28/1 421/26/1
f 379/3/1 380/26/1 424/26/1 423/3/1
f 382/18/1 384/17/1 426/17/1 425/18/1
f 383/29/1 369/27/1 428/27/1 427/29/1
f 371/23/1 372/24/1 429/24/1 418/23/1
f 374/24/1 375/23/1 430/23/1 420/24/1
f 377/28/1 378/4/1 431/4/1 422/28/1
f 380/26/1 381/4/1 432/4/1 424/26/1
f 369/27/1 370/27/1 417/27/1 428/27/1
f 372/24/1 373/25/1 419/25/1 429/24/1
f 375/23/1 376/26/1 421/26/1 430/23/1
f 378/4/1 379/3/1 423/3/1 431/4/1
f 381/4/1 382/18/1 425/18/1 432/4/1
f 384/17/1 383/29/1 427/29/1 426/17/1
f 442/17/1 441/18/1 448/4/1 440/26/1 439/3/1 447/4/1 438/28/1 437/26/1 446/23/1 436/24/1 435/25/1 445/24/1 434/23/1 433/27/1 444/27/1 443/29/1
f 372/24/47 371/23/47 434/23/47 445/24/47
f 382/18/52 381/4/52 448/4/52 441/18/52
f 375/23/44 374/24/44 436/24/44 446/23/44
f 371/23/48 370/27/48 433/27/48 434/23/48
f 383/29/51 384/17/51 442/17/51 443/29/51
f 378/4/55 377/28/55 438/28/55 447/4/55
f 374/24/45 373/25/45 435/25/45 436/24/45
f 381/4/53 380/26/53 440/26/53 448/4/53
f 377/28/56 376/26/56 437/26/56 438/28/56
f 370/27/49 369/27/49 444/27/49 433/27/49
f 380/26/54 379/3/54 439/3/54 440/26/54
f 373/25/46 372/24/46 445/24/46 435/25/46
f 384/17/20 382/18/20 441/18/20 442/17/20
f 376/26/43 375/23/43 446/23/43 437/26/43
f 369/27/50 383/29/50 443/29/50 444/27/50
usemtl gradientEmmisive.005
f 449/30/73 461/30/73 472/30/73 460/30/73
f 450/30/74 462/30/74 461/30/74 449/30/74
f 451/30/75 463/30/75 462/30/75 450/30/75
f 452/30/76 464/30/76 463/30/76 451/30/76
f 453/30/77 465/30/77 464/30/77 452/30/77
f 454/30/78 466/30/78 465/30/78 453/30/78
f 455/30/79 467/30/79 466/30/79 454/30/79
f 456/30/80 468/30/80 467/30/80 455/30/80
f 457/30/81 469/30/81 468/30/81 456/30/81
f 458/30/82 470/30/82 469/30/82 457/30/82
f 459/30/83 471/30/83 470/30/83 458/30/83
f 460/30/84 472/30/84 471/30/84 459/30/84
f 461/30/85 473/30/85 484/30/85 472/30/85
f 462/30/86 474/30/86 473/30/86 461/30/86
f 463/30/87 475/30/87 474/30/87 462/30/87
f 464/30/88 476/30/88 475/30/88 463/30/88
f 465/30/89 477/30/89 476/30/89 464/30/89
f 466/30/90 478/30/90 477/30/90 465/30/90
f 467/30/91 479/30/91 478/30/91 466/30/91
f 468/30/92 480/30/92 479/30/92 467/30/92
f 469/30/93 481/30/93 480/30/93 468/30/93
f 470/30/94 482/30/94 481/30/94 469/30/94
f 471/30/95 483/30/95 482/30/95 470/30/95
f 472/30/96 484/30/96 483/30/96 471/30/96
f 473/30/97 485/30/97 496/30/97 484/30/97
f 474/30/98 486/30/98 485/30/98 473/30/98
f 475/30/99 487/30/99 486/30/99 474/30/99
f 476/30/100 488/30/100 487/30/100 475/30/100
f 477/30/101 489/30/101 488/30/101 476/30/101
f 478/30/102 490/30/102 489/30/102 477/30/102
f 479/30/103 491/30/103 490/30/103 478/30/103
f 480/30/104 492/30/104 491/30/104 479/30/104
f 481/30/105 493/30/105 492/30/105 480/30/105
f 482/30/106 494/30/106 493/30/106 481/30/106
f 483/30/107 495/30/107 494/30/107 482/30/107
f 484/30/108 496/30/108 495/30/108 483/30/108
f 485/30/109 497/30/109 508/30/109 496/30/109
f 486/30/110 498/30/110 497/30/110 485/30/110
f 487/30/111 499/30/111 498/30/111 486/30/111
f 488/30/112 500/30/112 499/30/112 487/30/112
f 489/30/113 501/30/113 500/30/113 488/30/113
f 490/30/114 502/30/114 501/30/114 489/30/114
f 491/30/115 503/30/115 502/30/115 490/30/115
f 492/30/116 504/30/116 503/30/116 491/30/116
f 493/30/117 505/30/117 504/30/117 492/30/117
f 494/30/118 506/30/118 505/30/118 493/30/118
f 495/30/119 507/30/119 506/30/119 494/30/119
f 496/30/120 508/30/120 507/30/120 495/30/120
f 497/30/121 509/30/121 520/30/121 508/30/121
f 498/30/122 510/30/122 509/30/122 497/30/122
f 499/30/123 511/30/123 510/30/123 498/30/123
f 500/30/124 512/30/124 511/30/124 499/30/124
f 501/30/125 513/30/125 512/30/125 500/30/125
f 502/30/126 514/30/126 513/30/126 501/30/126
f 503/30/127 515/30/127 514/30/127 502/30/127
f 504/30/128 516/30/128 515/30/128 503/30/128
f 505/30/129 517/30/129 516/30/129 504/30/129
f 506/30/130 518/30/130 517/30/130 505/30/130
f 507/30/131 519/30/131 518/30/131 506/30/131
f 508/30/132 520/30/132 519/30/132 507/30/132
f 509/30/133 521/30/133 532/30/133 520/30/133
f 510/30/134 522/30/134 521/30/134 509/30/134
f 511/30/135 523/30/135 522/30/135 510/30/135
f 512/30/136 524/30/136 523/30/136 511/30/136
f 513/30/137 525/30/137 524/30/137 512/30/137
f 514/30/138 526/30/138 525/30/138 513/30/138
f 515/30/139 527/30/139 526/30/139 514/30/139
f 516/30/140 528/30/140 527/30/140 515/30/140
f 517/30/141 529/30/141 528/30/141 516/30/141
f 518/30/142 530/30/142 529/30/142 517/30/142
f 519/30/143 531/30/143 530/30/143 518/30/143
f 520/30/144 532/30/144 531/30/144 519/30/144
f 521/30/145 533/30/145 544/30/145 532/30/145
f 522/30/146 534/30/146 533/30/146 521/30/146
f 523/30/147 535/30/147 534/30/147 522/30/147
f 524/30/148 536/30/148 535/30/148 523/30/148
f 525/30/149 537/30/149 536/30/149 524/30/149
f 526/30/150 538/30/150 537/30/150 525/30/150
f 527/30/151 539/30/151 538/30/151 526/30/151
f 528/30/152 540/30/152 539/30/152 527/30/152
f 529/30/153 541/30/153 540/30/153 528/30/153
f 530/30/154 542/30/154 541/30/154 529/30/154
f 531/30/155 543/30/155 542/30/155 530/30/155
f 532/30/156 544/30/156 543/30/156 531/30/156
f 533/30/157 545/30/157 556/30/157 544/30/157
f 534/30/158 546/30/158 545/30/158 533/30/158
f 535/30/159 547/30/159 546/30/159 534/30/159
f 536/30/160 548/30/160 547/30/160 535/30/160
f 537/30/161 549/30/161 548/30/161 536/30/161
f 538/30/162 550/30/162 549/30/162 537/30/162
f 539/30/163 551/30/163 550/30/163 538/30/163
f 540/30/164 552/30/164 551/30/164 539/30/164
f 541/30/165 553/30/165 552/30/165 540/30/165
f 542/30/166 554/30/166 553/30/166 541/30/166
f 543/30/167 555/30/167 554/30/167 542/30/167
f 544/30/168 556/30/168 555/30/168 543/30/168
f 545/30/78 557/30/78 568/30/78 556/30/78
f 546/30/77 558/30/77 557/30/77 545/30/77
f 547/30/76 559/30/76 558/30/76 546/30/76
f 548/30/75 560/30/75 559/30/75 547/30/75
f 549/30/74 561/30/74 560/30/74 548/30/74
f 550/30/73 562/30/73 561/30/73 549/30/73
f 551/30/84 563/30/84 562/30/84 550/30/84
f 552/30/83 564/30/83 563/30/83 551/30/83
f 553/30/82 565/30/82 564/30/82 552/30/82
f 554/30/81 566/30/81 565/30/81 553/30/81
f 555/30/80 567/30/80 566/30/80 554/30/80
f 556/30/79 568/30/79 567/30/79 555/30/79
f 557/30/90 569/30/90 580/30/90 568/30/90
f 558/30/89 570/30/89 569/30/89 557/30/89
f 559/30/88 571/30/88 570/30/88 558/30/88
f 560/30/87 572/30/87 571/30/87 559/30/87
f 561/30/86 573/30/86 572/30/86 560/30/86
f 562/30/85 574/30/85 573/30/85 561/30/85
f 563/30/96 575/30/96 574/30/96 562/30/96
f 564/30/95 576/30/95 575/30/95 563/30/95
f 565/30/94 577/30/94 576/30/94 564/30/94
f 566/30/93 578/30/93 577/30/93 565/30/93
f 567/30/92 579/30/92 578/30/92 566/30/92
f 568/30/91 580/30/91 579/30/91 567/30/91
f 569/30/102 581/30/102 592/30/102 580/30/102
f 570/30/101 582/30/101 581/30/101 569/30/101
f 571/30/100 583/30/100 582/30/100 570/30/100
f 572/30/99 584/30/99 583/30/99 571/30/99
f 573/30/98 585/30/98 584/30/98 572/30/98
f 574/30/97 586/30/97 585/30/97 573/30/97
f 575/30/108 587/30/108 586/30/108 574/30/108
f 576/30/107 588/30/107 587/30/107 575/30/107
f 577/30/106 589/30/106 588/30/106 576/30/106
f 578/30/105 590/30/105 589/30/105 577/30/105
f 579/30/104 591/30/104 590/30/104 578/30/104
f 580/30/103 592/30/103 591/30/103 579/30/103
f 581/30/114 593/30/114 604/30/114 592/30/114
f 582/30/113 594/30/113 593/30/113 581/30/113
f 583/30/112 595/30/112 594/30/112 582/30/112
f 584/30/111 596/30/111 595/30/111 583/30/111
f 585/30/110 597/30/110 596/30/110 584/30/110
f 586/30/109 598/30/109 597/30/109 585/30/109
f 587/30/120 599/30/120 598/30/120 586/30/120
f 588/30/119 600/30/119 599/30/119 587/30/119
f 589/30/118 601/30/118 600/30/118 588/30/118
f 590/30/117 602/30/117 601/30/117 589/30/117
f 591/30/116 603/30/116 602/30/116 590/30/116
f 592/30/115 604/30/115 603/30/115 591/30/115
f 593/30/126 605/30/126 616/30/126 604/30/126
f 594/30/125 606/30/125 605/30/125 593/30/125
f 595/30/124 607/30/124 606/30/124 594/30/124
f 596/30/123 608/30/123 607/30/123 595/30/123
f 597/30/122 609/30/122 608/30/122 596/30/122
f 598/30/121 610/30/121 609/30/121 597/30/121
f 599/30/132 611/30/132 610/30/132 598/30/132
f 600/30/131 612/30/131 611/30/131 599/30/131
f 601/30/130 613/30/130 612/30/130 600/30/130
f 602/30/129 614/30/129 613/30/129 601/30/129
f 603/30/128 615/30/128 614/30/128 602/30/128
f 604/30/127 616/30/127 615/30/127 603/30/127
f 605/30/138 617/30/138 628/30/138 616/30/138
f 606/30/137 618/30/137 617/30/137 605/30/137
f 607/30/136 619/30/136 618/30/136 606/30/136
f 608/30/135 620/30/135 619/30/135 607/30/135
f 609/30/134 621/30/134 620/30/134 608/30/134
f 610/30/133 622/30/133 621/30/133 609/30/133
f 611/30/144 623/30/144 622/30/144 610/30/144
f 612/30/143 624/30/143 623/30/143 611/30/143
f 613/30/142 625/30/142 624/30/142 612/30/142
f 614/30/141 626/30/141 625/30/141 613/30/141
f 615/30/140 627/30/140 626/30/140 614/30/140
f 616/30/139 628/30/139 627/30/139 615/30/139
f 617/30/150 629/30/150 640/30/150 628/30/150
f 618/30/149 630/30/149 629/30/149 617/30/149
f 619/30/148 631/30/148 630/30/148 618/30/148
f 620/30/147 632/30/147 631/30/147 619/30/147
f 621/30/146 633/30/146 632/30/146 620/30/146
f 622/30/145 634/30/145 633/30/145 621/30/145
f 623/30/156 635/30/156 634/30/156 622/30/156
f 624/30/155 636/30/155 635/30/155 623/30/155
f 625/30/154 637/30/154 636/30/154 624/30/154
f 626/30/153 638/30/153 637/30/153 625/30/153
f 627/30/152 639/30/152 638/30/152 626/30/152
f 628/30/151 640/30/151 639/30/151 627/30/151
f 629/30/162 449/30/162 460/30/162 640/30/162
f 630/30/161 450/30/161 449/30/161 629/30/161
f 631/30/160 451/30/160 450/30/160 630/30/160
f 632/30/159 452/30/159 451/30/159 631/30/159
f 633/30/158 453/30/158 452/30/158 632/30/158
f 634/30/157 454/30/157 453/30/157 633/30/157
f 635/30/168 455/30/168 454/30/168 634/30/168
f 636/30/167 456/30/167 455/30/167 635/30/167
f 637/30/166 457/30/166 456/30/166 636/30/166
f 638/30/165 458/30/165 457/30/165 637/30/165
f 639/30/164 459/30/164 458/30/164 638/30/164
f 640/30/163 460/30/163 459/30/163 639/30/163
