# Blender 5.2.2 LTS
# www.blender.org
mtllib rear_wheels.mtl
o rear_wheels_misc
g rear_wheels_misc
v -0.091471 0.102160 -0.237027
v -0.091471 0.002866 -0.256778
v -0.091471 0.186337 -0.180782
v -0.091471 0.242583 -0.096605
v -0.091471 0.262333 0.002689
v -0.091471 0.242583 0.101983
v -0.091471 0.186337 0.186161
v -0.091471 0.102160 0.242406
v -0.091471 0.002866 0.262157
v -0.091471 -0.096428 0.242406
v -0.091471 -0.180606 0.186161
v -0.091471 -0.236851 0.101983
v -0.091471 -0.256602 0.002689
v -0.091471 -0.236851 -0.096605
v -0.091471 -0.180606 -0.180782
v -0.091471 -0.096428 -0.237027
v -0.091471 0.094830 -0.219333
v -0.091471 0.002866 -0.237625
v -0.091471 0.172794 -0.167239
v -0.091471 0.224888 -0.089275
v -0.091471 0.243181 0.002689
v -0.091471 0.224888 0.094654
v -0.091471 0.172794 0.172618
v -0.091471 0.094830 0.224711
v -0.091471 0.002866 0.243004
v -0.091471 -0.089099 0.224711
v -0.091471 -0.167063 0.172618
v -0.091471 -0.219156 0.094654
v -0.091471 -0.237449 0.002689
v -0.091471 -0.219156 -0.089275
v -0.091471 -0.167063 -0.167239
v -0.091471 -0.089099 -0.219333
v -0.091471 0.042737 -0.093569
v -0.091471 0.002866 -0.101500
v -0.091471 0.076539 -0.070984
v -0.091471 0.099125 -0.037182
v -0.091471 0.107056 0.002690
v -0.091471 0.099125 0.042561
v -0.091471 0.076539 0.076363
v -0.091471 0.042737 0.098948
v -0.091471 0.002866 0.106879
v -0.091471 -0.037006 0.098948
v -0.091471 -0.070808 0.076363
v -0.091471 -0.093393 0.042561
v -0.091471 -0.101324 0.002690
v -0.091471 -0.093393 -0.037182
v -0.091471 -0.070808 -0.070984
v -0.091471 -0.037006 -0.093569
v -0.092326 0.019779 -0.038142
v -0.092326 0.002866 -0.041506
v -0.092326 0.034117 -0.028562
v -0.092326 0.043697 -0.014223
v -0.092326 0.047062 0.002690
v -0.092326 0.043697 0.019603
v -0.092326 0.034117 0.033941
v -0.092326 0.019779 0.043521
v -0.092326 0.002866 0.046885
v -0.092326 -0.014047 0.043521
v -0.092326 -0.028385 0.033941
v -0.092326 -0.037966 0.019603
v -0.092326 -0.041330 0.002690
v -0.092326 -0.037966 -0.014223
v -0.092326 -0.028385 -0.028562
v -0.092326 -0.014047 -0.038142
v 0.167545 0.097372 -0.225468
v 0.167545 0.002866 -0.244266
v 0.167545 0.177490 -0.171935
v 0.167545 0.231023 -0.091817
v 0.167545 0.249822 0.002689
v 0.167545 0.231023 0.097195
v 0.167545 0.177490 0.177314
v 0.167545 0.097372 0.230847
v 0.167545 0.002866 0.249645
v 0.167545 -0.091640 0.230847
v 0.167545 -0.171758 0.177314
v 0.167545 -0.225292 0.097195
v 0.167545 -0.244090 0.002689
v 0.167545 -0.225292 -0.091817
v 0.167545 -0.171758 -0.171935
v 0.167545 -0.091640 -0.225468
v -0.093397 0.176499 0.176322
v -0.093397 0.173026 0.179795
v -0.093397 0.179971 0.172850
v -0.093397 0.066625 0.066449
v -0.093397 0.063152 0.069921
v -0.093397 0.070097 0.062976
v -0.093397 -0.237970 -0.045216
v -0.093397 -0.237012 -0.050032
v -0.093397 -0.238928 -0.040399
v -0.093397 -0.085571 -0.014901
v -0.093397 -0.084613 -0.019718
v -0.093397 -0.086529 -0.010085
v -0.093397 0.229728 -0.091280
v -0.093397 0.231607 -0.086743
v -0.093397 0.227849 -0.095817
v -0.093397 0.086171 -0.031817
v -0.093397 0.088050 -0.027279
v -0.093397 0.084292 -0.036354
v -0.093397 0.207036 0.139112
v -0.093397 0.204308 0.143195
v -0.093397 0.209765 0.135029
v -0.093397 0.077838 0.052785
v -0.093397 0.075110 0.056868
v -0.093397 0.080567 0.048701
v -0.093397 -0.242688 0.002690
v -0.093397 -0.242688 -0.002222
v -0.093397 -0.242688 0.007601
v -0.093397 -0.087303 0.002690
v -0.093397 -0.087303 -0.002222
v -0.093397 -0.087303 0.007601
v -0.093397 0.207036 -0.133733
v -0.093397 0.209765 -0.129650
v -0.093397 0.204308 -0.137816
v -0.093397 0.077838 -0.047406
v -0.093397 0.080567 -0.043322
v -0.093397 0.075110 -0.051489
v -0.093397 0.229728 0.096659
v -0.093397 0.227849 0.101196
v -0.093397 0.231607 0.092122
v -0.093397 0.086171 0.037196
v -0.093397 0.084292 0.041733
v -0.093397 0.088050 0.032659
v -0.093397 -0.237970 0.050595
v -0.093397 -0.238928 0.045778
v -0.093397 -0.237012 0.055412
v -0.093397 -0.085571 0.020281
v -0.093397 -0.086529 0.015464
v -0.093397 -0.084613 0.025097
v -0.093397 0.176499 -0.170943
v -0.093397 0.179971 -0.167471
v -0.093397 0.173026 -0.174416
v -0.093397 0.066625 -0.061070
v -0.093397 0.070097 -0.057597
v -0.093397 0.063152 -0.064542
v -0.093397 0.243701 0.050595
v -0.093397 0.242743 0.055411
v -0.093397 0.244660 0.045778
v -0.093397 0.091302 0.020281
v -0.093397 0.090344 0.025097
v -0.093397 0.092260 0.015464
v -0.093397 -0.223997 0.096659
v -0.093397 -0.225876 0.092122
v -0.093397 -0.222117 0.101196
v -0.093397 -0.080440 0.037196
v -0.093397 -0.082319 0.032659
v -0.093397 -0.078560 0.041733
v -0.093397 0.139288 -0.201481
v -0.093397 0.143372 -0.198753
v -0.093397 0.135205 -0.204210
v -0.093397 0.052961 -0.072283
v -0.093397 0.057044 -0.069555
v -0.093397 0.048877 -0.075012
v -0.093397 -0.201305 0.139112
v -0.093397 -0.204033 0.135029
v -0.093397 -0.198577 0.143195
v -0.093397 -0.072107 0.052785
v -0.093397 -0.074835 0.048701
v -0.093397 -0.069379 0.056868
v -0.093397 0.096835 -0.224173
v -0.093397 0.101372 -0.222293
v -0.093397 0.092298 -0.226052
v -0.093397 0.037372 -0.080616
v -0.093397 0.041909 -0.078736
v -0.093397 0.032835 -0.082495
v -0.093397 -0.170767 0.176323
v -0.093397 -0.174240 0.172850
v -0.093397 -0.167295 0.179795
v -0.093397 -0.060893 0.066449
v -0.093397 -0.064366 0.062976
v -0.093397 -0.057421 0.069921
v -0.093397 0.050771 -0.238146
v -0.093397 0.055588 -0.237188
v -0.093397 0.045954 -0.239104
v -0.093397 0.020457 -0.085747
v -0.093397 0.025274 -0.084789
v -0.093397 0.015640 -0.086705
v -0.093397 -0.133557 0.206860
v -0.093397 -0.137640 0.204132
v -0.093397 -0.129473 0.209589
v -0.093397 -0.047229 0.077662
v -0.093397 -0.051313 0.074934
v -0.093397 -0.043146 0.080391
v -0.093397 0.002866 -0.242864
v -0.093397 0.007777 -0.242864
v -0.093397 -0.002045 -0.242864
v -0.093397 0.002866 -0.087479
v -0.093397 0.007777 -0.087479
v -0.093397 -0.002045 -0.087479
v -0.093397 -0.091104 0.229552
v -0.093397 -0.095641 0.227673
v -0.093397 -0.086566 0.231431
v -0.093397 -0.031640 0.085995
v -0.093397 -0.036178 0.084115
v -0.093397 -0.027103 0.087874
v -0.093397 -0.045040 -0.238146
v -0.093397 -0.040223 -0.239104
v -0.093397 -0.049856 -0.237188
v -0.093397 -0.014725 -0.085747
v -0.093397 -0.009909 -0.086705
v -0.093397 -0.019542 -0.084789
v -0.093397 -0.045039 0.243525
v -0.093397 -0.049856 0.242567
v -0.093397 -0.040223 0.244483
v -0.093397 -0.014725 0.091126
v -0.093397 -0.019542 0.090168
v -0.093397 -0.009909 0.092084
v -0.093397 -0.091104 -0.224173
v -0.093397 -0.086567 -0.226052
v -0.093397 -0.095641 -0.222293
v -0.093397 -0.031640 -0.080616
v -0.093397 -0.027103 -0.082495
v -0.093397 -0.036178 -0.078736
v -0.093397 0.002866 0.248244
v -0.093397 -0.002045 0.248244
v -0.093397 0.007777 0.248244
v -0.093397 0.002866 0.092859
v -0.093397 -0.002045 0.092859
v -0.093397 0.007777 0.092859
v -0.093397 -0.133557 -0.201481
v -0.093397 -0.129473 -0.204210
v -0.093397 -0.137640 -0.198753
v -0.093397 -0.047229 -0.072283
v -0.093397 -0.043146 -0.075012
v -0.093397 -0.051313 -0.069555
v -0.093397 0.050771 0.243525
v -0.093397 0.045954 0.244483
v -0.093397 0.055588 0.242567
v -0.093397 0.020457 0.091126
v -0.093397 0.015640 0.092084
v -0.093397 0.025274 0.090168
v -0.093397 -0.170767 -0.170943
v -0.093397 -0.167295 -0.174416
v -0.093397 -0.174240 -0.167471
v -0.093397 -0.060893 -0.061070
v -0.093397 -0.057421 -0.064542
v -0.093397 -0.064366 -0.057597
v -0.093397 0.096835 0.229552
v -0.093397 0.092298 0.231431
v -0.093397 0.101372 0.227673
v -0.093397 0.037372 0.085995
v -0.093397 0.032835 0.087874
v -0.093397 0.041909 0.084115
v -0.093397 -0.201305 -0.133733
v -0.093397 -0.198577 -0.137816
v -0.093397 -0.204033 -0.129650
v -0.093397 -0.072107 -0.047406
v -0.093397 -0.069379 -0.051489
v -0.093397 -0.074835 -0.043322
v -0.093397 0.248420 0.002690
v -0.093397 0.248420 0.007601
v -0.093397 0.248420 -0.002222
v -0.093397 0.093035 0.002690
v -0.093397 0.093035 0.007601
v -0.093397 0.093035 -0.002222
v -0.093397 -0.080440 -0.031817
v -0.093397 -0.082319 -0.027279
v -0.093397 -0.078560 -0.036354
v -0.093397 -0.223997 -0.091280
v -0.093397 -0.225876 -0.086743
v -0.093397 -0.222117 -0.095817
v -0.093397 0.091302 -0.014902
v -0.093397 0.090344 -0.019718
v -0.093397 0.092260 -0.010085
v -0.093397 0.243701 -0.045216
v -0.093397 0.242743 -0.050032
v -0.093397 0.244660 -0.040399
v -0.093397 0.139288 0.206860
v -0.093397 0.135205 0.209589
v -0.093397 0.143372 0.204132
v -0.093397 0.052961 0.077662
v -0.093397 0.048877 0.080391
v -0.093397 0.057044 0.074934
v -0.093062 0.052308 0.040349
v -0.093062 0.063444 0.046778
v -0.093062 0.063444 0.059636
v -0.093062 0.052308 0.066065
v -0.093062 0.041173 0.059636
v -0.093062 0.041173 0.046778
v -0.098881 0.060911 0.048240
v -0.098881 0.052308 0.043273
v -0.098881 0.060911 0.058174
v -0.098881 0.052308 0.063141
v -0.098881 0.043705 0.058174
v -0.098881 0.043705 0.048240
v -0.093062 -0.046576 0.040349
v -0.093062 -0.057712 0.046778
v -0.093062 -0.057712 0.059636
v -0.093062 -0.046576 0.066065
v -0.093062 -0.035441 0.059636
v -0.093062 -0.035441 0.046778
v -0.098881 -0.055179 0.048240
v -0.098881 -0.046576 0.043273
v -0.098881 -0.055179 0.058174
v -0.098881 -0.046576 0.063141
v -0.098881 -0.037973 0.058174
v -0.098881 -0.037973 0.048240
v -0.093062 0.052308 -0.034970
v -0.093062 0.063444 -0.041399
v -0.093062 0.063444 -0.054257
v -0.093062 0.052308 -0.060686
v -0.093062 0.041173 -0.054257
v -0.093062 0.041173 -0.041399
v -0.098881 0.060911 -0.042861
v -0.098881 0.052308 -0.037894
v -0.098881 0.060911 -0.052795
v -0.098881 0.052308 -0.057762
v -0.098881 0.043705 -0.052795
v -0.098881 0.043705 -0.042861
v -0.093062 -0.046576 -0.034970
v -0.093062 -0.057712 -0.041399
v -0.093062 -0.057712 -0.054257
v -0.093062 -0.046576 -0.060686
v -0.093062 -0.035441 -0.054257
v -0.093062 -0.035441 -0.041399
v -0.098881 -0.055179 -0.042861
v -0.098881 -0.046576 -0.037894
v -0.098881 -0.055179 -0.052795
v -0.098881 -0.046576 -0.057761
v -0.098881 -0.037973 -0.052795
v -0.098881 -0.037973 -0.042861
v 0.108886 -0.070101 -0.173468
v 0.108886 -0.131959 -0.132136
v 0.108886 -0.173292 -0.070277
v 0.108886 -0.187806 0.002689
v 0.108886 -0.173292 0.075656
v 0.108886 -0.131959 0.137514
v 0.108886 -0.070101 0.178847
v 0.108886 0.002866 0.193361
v 0.108886 0.075833 0.178847
v 0.108886 0.137691 0.137514
v 0.108886 0.179023 0.075656
v 0.108886 0.193537 0.002689
v 0.108886 0.179023 -0.070277
v 0.108886 0.137691 -0.132136
v 0.108886 0.002866 -0.187982
v 0.108886 0.075832 -0.173468
v 0.108886 -0.171758 -0.171935
v 0.108886 -0.225292 -0.091817
v 0.108886 -0.225292 0.097195
v 0.108886 -0.171758 0.177314
v 0.108886 0.002866 0.249645
v 0.108886 0.097372 0.230847
v 0.108886 0.231023 0.097195
v 0.108886 0.249822 0.002689
v 0.108886 0.177490 -0.171935
v 0.108886 0.097372 -0.225468
v 0.108886 0.002866 -0.244266
v 0.108886 -0.091640 -0.225468
v 0.108886 -0.244090 0.002689
v 0.108886 -0.091640 0.230847
v 0.108886 0.177490 0.177314
v 0.108886 0.231023 -0.091817
v 0.084904 -0.131959 -0.132136
v 0.084904 -0.173292 -0.070277
v 0.084904 -0.173292 0.075656
v 0.084904 -0.131959 0.137514
v 0.084904 0.002866 0.193361
v 0.084904 0.075833 0.178847
v 0.084904 0.179023 0.075656
v 0.084904 0.193537 0.002689
v 0.084904 0.137691 -0.132136
v 0.084904 0.075832 -0.173468
v 0.084904 0.002866 -0.187982
v 0.084904 -0.070101 -0.173468
v 0.084904 -0.187806 0.002689
v 0.084904 -0.070101 0.178847
v 0.084904 0.137691 0.137514
v 0.084904 0.179023 -0.070277
vn -0.0000 -0.8315 -0.5556
vn -1.0000 -0.0000 -0.0000
vn -0.9999 -0.0142 -0.0000
vn -0.9999 -0.0132 -0.0055
vn -0.9999 0.0132 0.0055
vn -0.9999 0.0101 0.0101
vn -0.9999 -0.0101 -0.0101
vn -0.9999 0.0055 0.0132
vn -0.9999 -0.0055 -0.0132
vn -0.9999 -0.0000 0.0142
vn -0.9999 -0.0000 -0.0143
vn -0.9999 -0.0000 -0.0142
vn -0.9999 0.0055 -0.0132
vn -0.9999 -0.0055 0.0132
vn -0.9999 0.0101 -0.0101
vn -0.9999 -0.0101 0.0101
vn -0.9999 0.0132 -0.0055
vn -0.9999 -0.0132 0.0055
vn -0.9999 0.0142 -0.0000
vn -0.0000 -0.5556 0.8315
vn 1.0000 -0.0000 -0.0000
vn 0.3990 0.4585 0.7941
vn 0.3990 0.4585 -0.7941
vn 0.3991 -0.9169 -0.0000
vn 0.3990 0.9170 -0.0000
vn 0.3990 -0.4585 -0.7941
vn 0.3990 -0.4585 0.7941
vn 0.3991 0.9169 -0.0000
vn 0.3990 -0.9170 -0.0000
vn 0.3991 -0.4585 0.7941
vn 0.3991 -0.4584 0.7941
vn 0.3991 0.4584 0.7941
vn -0.0000 0.5556 -0.8315
vn -0.0000 -0.8315 0.5556
vn -0.0000 0.8315 -0.5556
vn -0.0000 -0.9808 0.1951
vn -0.0000 0.9808 -0.1951
vn -0.0000 -0.9808 -0.1951
vn -0.0000 0.9808 0.1951
vn -0.0000 0.8315 0.5556
vn -0.0000 -0.5556 -0.8315
vn -0.0000 0.5556 0.8315
vn -0.0000 -0.1951 -0.9808
vn -0.0000 -0.1951 0.9808
vn -0.0000 0.1951 0.9808
vn -0.0000 0.1951 -0.9808
vt 0.632480 0.951820
vt 0.632480 0.951821
vt 0.635580 0.954921
vt 0.636417 0.951107
vt 0.511843 0.927715
s 1
usemtl baseGradient.002
f 331/1/1 330/2/1 367/2/1 359/1/1
f 3/3/2 19/3/2 20/3/2 4/3/2
f 11/3/2 27/3/2 28/3/2 12/3/2
f 4/3/2 20/3/2 21/3/2 5/3/2
f 12/3/2 28/3/2 29/3/2 13/3/2
f 5/3/2 21/3/2 22/3/2 6/3/2
f 13/3/2 29/3/2 30/3/2 14/3/2
f 6/3/2 22/3/2 23/3/2 7/3/2
f 14/3/2 30/3/2 31/3/2 15/3/2
f 7/3/2 23/3/2 24/3/2 8/3/2
f 15/3/2 31/3/2 32/3/2 16/3/2
f 8/3/2 24/3/2 25/3/2 9/3/2
f 2/3/2 18/3/2 17/3/2 1/3/2
f 16/3/2 32/3/2 18/3/2 2/3/2
f 9/3/2 25/3/2 26/3/2 10/3/2
f 1/3/2 17/3/2 19/3/2 3/3/2
f 10/3/2 26/3/2 27/3/2 11/3/2
f 45/3/3 61/3/3 62/3/4 46/3/4
f 38/3/5 54/3/5 55/3/6 39/3/6
f 46/3/4 62/3/4 63/3/7 47/3/7
f 39/3/6 55/3/6 56/3/8 40/3/8
f 47/3/7 63/3/7 64/3/9 48/3/9
f 40/3/8 56/3/8 57/3/10 41/3/10
f 34/3/11 50/3/12 49/3/13 33/3/13
f 48/3/9 64/3/9 50/3/12 34/3/11
f 41/3/10 57/3/10 58/3/14 42/3/14
f 33/3/13 49/3/13 51/3/15 35/3/15
f 42/3/14 58/3/14 59/3/16 43/3/16
f 35/3/15 51/3/15 52/3/17 36/3/17
f 43/3/16 59/3/16 60/3/18 44/3/18
f 36/3/17 52/3/17 53/3/19 37/3/19
f 44/3/18 60/3/18 61/3/3 45/3/3
f 37/3/19 53/3/19 54/3/5 38/3/5
f 65/2/20 67/2/20 345/2/20 346/2/20
f 81/4/2 83/4/2 86/4/2 84/4/2
f 82/4/2 81/4/2 84/4/2 85/4/2
f 87/4/2 89/4/2 92/4/2 90/4/2
f 88/4/2 87/4/2 90/4/2 91/4/2
f 93/4/2 95/4/2 98/4/2 96/4/2
f 94/4/2 93/4/2 96/4/2 97/4/2
f 99/4/2 101/4/2 104/4/2 102/4/2
f 100/4/2 99/4/2 102/4/2 103/4/2
f 105/4/2 107/4/2 110/4/2 108/4/2
f 106/4/2 105/4/2 108/4/2 109/4/2
f 111/4/2 113/4/2 116/4/2 114/4/2
f 112/4/2 111/4/2 114/4/2 115/4/2
f 117/4/2 119/4/2 122/4/2 120/4/2
f 118/4/2 117/4/2 120/4/2 121/4/2
f 123/4/2 125/4/2 128/4/2 126/4/2
f 124/4/2 123/4/2 126/4/2 127/4/2
f 129/4/2 131/4/2 134/4/2 132/4/2
f 130/4/2 129/4/2 132/4/2 133/4/2
f 135/4/2 137/4/2 140/4/2 138/4/2
f 136/4/2 135/4/2 138/4/2 139/4/2
f 141/4/2 143/4/2 146/4/2 144/4/2
f 142/4/2 141/4/2 144/4/2 145/4/2
f 147/4/2 149/4/2 152/4/2 150/4/2
f 148/4/2 147/4/2 150/4/2 151/4/2
f 153/4/2 155/4/2 158/4/2 156/4/2
f 154/4/2 153/4/2 156/4/2 157/4/2
f 159/4/2 161/4/2 164/4/2 162/4/2
f 160/4/2 159/4/2 162/4/2 163/4/2
f 165/4/2 167/4/2 170/4/2 168/4/2
f 166/4/2 165/4/2 168/4/2 169/4/2
f 171/4/2 173/4/2 176/4/2 174/4/2
f 172/4/2 171/4/2 174/4/2 175/4/2
f 177/4/2 179/4/2 182/4/2 180/4/2
f 178/4/2 177/4/2 180/4/2 181/4/2
f 183/4/2 185/4/2 188/4/2 186/4/2
f 184/4/2 183/4/2 186/4/2 187/4/2
f 189/4/2 191/4/2 194/4/2 192/4/2
f 190/4/2 189/4/2 192/4/2 193/4/2
f 195/4/2 197/4/2 200/4/2 198/4/2
f 196/4/2 195/4/2 198/4/2 199/4/2
f 201/4/2 203/4/2 206/4/2 204/4/2
f 202/4/2 201/4/2 204/4/2 205/4/2
f 207/4/2 209/4/2 212/4/2 210/4/2
f 208/4/2 207/4/2 210/4/2 211/4/2
f 213/4/2 215/4/2 218/4/2 216/4/2
f 214/4/2 213/4/2 216/4/2 217/4/2
f 219/4/2 221/4/2 224/4/2 222/4/2
f 220/4/2 219/4/2 222/4/2 223/4/2
f 225/4/2 227/4/2 230/4/2 228/4/2
f 226/4/2 225/4/2 228/4/2 229/4/2
f 231/4/2 233/4/2 236/4/2 234/4/2
f 232/4/2 231/4/2 234/4/2 235/4/2
f 237/4/2 239/4/2 242/4/2 240/4/2
f 238/4/2 237/4/2 240/4/2 241/4/2
f 243/4/2 245/4/2 248/4/2 246/4/2
f 244/4/2 243/4/2 246/4/2 247/4/2
f 249/4/2 251/4/2 254/4/2 252/4/2
f 250/4/2 249/4/2 252/4/2 253/4/2
f 255/4/2 257/4/2 260/4/2 258/4/2
f 256/4/2 255/4/2 258/4/2 259/4/2
f 261/4/2 263/4/2 266/4/2 264/4/2
f 262/4/2 261/4/2 264/4/2 265/4/2
f 267/4/2 269/4/2 272/4/2 270/4/2
f 268/4/2 267/4/2 270/4/2 271/4/2
f 274/5/2 273/5/2 278/5/2 277/5/2 276/5/2 275/5/2
f 279/5/21 281/5/21 282/5/21 283/5/21 284/5/21 280/5/21
f 273/5/22 280/5/22 284/5/22 278/5/22
f 277/5/23 283/5/23 282/5/23 276/5/23
f 275/5/24 281/5/24 279/5/24 274/5/24
f 278/5/25 284/5/25 283/5/25 277/5/25
f 276/5/26 282/5/26 281/5/26 275/5/26
f 274/5/27 279/5/27 280/5/27 273/5/27
f 286/5/2 287/5/2 288/5/2 289/5/2 290/5/2 285/5/2
f 291/5/21 292/5/21 296/5/21 295/5/21 294/5/21 293/5/21
f 285/5/27 290/5/27 296/5/27 292/5/27
f 289/5/26 288/5/26 294/5/26 295/5/26
f 287/5/28 286/5/28 291/5/28 293/5/28
f 290/5/29 289/5/29 295/5/29 296/5/29
f 288/5/23 287/5/23 293/5/23 294/5/23
f 286/5/22 285/5/22 292/5/22 291/5/22
f 298/5/2 299/5/2 300/5/2 301/5/2 302/5/2 297/5/2
f 303/5/21 304/5/21 308/5/21 307/5/21 306/5/21 305/5/21
f 297/5/23 302/5/23 308/5/23 304/5/23
f 301/5/22 300/5/22 306/5/22 307/5/22
f 299/5/24 298/5/24 303/5/24 305/5/24
f 302/5/25 301/5/25 307/5/25 308/5/25
f 300/5/30 299/5/30 305/5/30 306/5/30
f 298/5/26 297/5/26 304/5/26 303/5/26
f 310/5/2 309/5/2 314/5/2 313/5/2 312/5/2 311/5/2
f 315/5/21 317/5/21 318/5/21 319/5/21 320/5/21 316/5/21
f 309/5/26 316/5/26 320/5/26 314/5/26
f 313/5/31 319/5/31 318/5/31 312/5/31
f 311/5/28 317/5/28 315/5/28 310/5/28
f 314/5/29 320/5/29 319/5/29 313/5/29
f 312/5/32 318/5/32 317/5/32 311/5/32
f 310/5/23 315/5/23 316/5/23 309/5/23
f 74/1/33 75/2/33 340/2/33 350/1/33
f 67/2/34 68/2/34 352/2/34 345/2/34
f 75/2/35 76/1/35 339/1/35 340/2/35
f 68/2/36 69/2/36 344/2/36 352/2/36
f 76/1/37 77/2/37 349/2/37 339/1/37
f 69/2/38 70/1/38 343/1/38 344/2/38
f 77/2/39 78/1/39 338/1/39 349/2/39
f 70/1/1 71/2/1 351/2/1 343/1/1
f 78/1/40 79/2/40 337/2/40 338/1/40
f 71/2/41 72/1/41 342/1/41 351/2/41
f 79/2/42 80/2/42 348/2/42 337/2/42
f 72/1/43 73/2/43 341/2/43 342/1/43
f 66/2/44 65/2/44 346/2/44 347/2/44
f 80/2/45 66/2/45 347/2/45 348/2/45
f 73/2/46 74/1/46 350/1/46 341/2/46
f 322/2/21 323/1/21 338/1/21 337/2/21
f 325/1/21 326/2/21 340/2/21 339/1/21
f 328/2/21 329/1/21 342/1/21 341/2/21
f 331/1/21 332/2/21 344/2/21 343/1/21
f 334/2/21 336/2/21 346/2/21 345/2/21
f 335/2/21 321/2/21 348/2/21 347/2/21
f 323/1/21 324/2/21 349/2/21 338/1/21
f 326/2/21 327/1/21 350/1/21 340/2/21
f 329/1/21 330/2/21 351/2/21 342/1/21
f 332/2/21 333/2/21 352/2/21 344/2/21
f 321/2/21 322/2/21 337/2/21 348/2/21
f 324/2/21 325/1/21 339/1/21 349/2/21
f 327/1/21 328/2/21 341/2/21 350/1/21
f 330/2/21 331/1/21 343/1/21 351/2/21
f 333/2/21 334/2/21 345/2/21 352/2/21
f 336/2/21 335/2/21 347/2/21 346/2/21
f 362/2/21 361/2/21 368/2/21 360/2/21 359/1/21 367/2/21 358/1/21 357/2/21 366/1/21 356/2/21 355/1/21 365/2/21 354/1/21 353/2/21 364/2/21 363/2/21
f 324/2/39 323/1/39 354/1/39 365/2/39
f 334/2/34 333/2/34 368/2/34 361/2/34
f 327/1/33 326/2/33 356/2/33 366/1/33
f 323/1/40 322/2/40 353/2/40 354/1/40
f 335/2/44 336/2/44 362/2/44 363/2/44
f 330/2/41 329/1/41 358/1/41 367/2/41
f 326/2/35 325/1/35 355/1/35 356/2/35
f 333/2/36 332/2/36 360/2/36 368/2/36
f 329/1/43 328/2/43 357/2/43 358/1/43
f 322/2/42 321/2/42 364/2/42 353/2/42
f 332/2/38 331/1/38 359/1/38 360/2/38
f 325/1/37 324/2/37 365/2/37 355/1/37
f 336/2/20 334/2/20 361/2/20 362/2/20
f 328/2/46 327/1/46 366/1/46 357/2/46
f 321/2/45 335/2/45 363/2/45 364/2/45
o rear_wheels
g rear_wheels
v -0.091471 0.102160 -0.237027
v -0.091471 0.002866 -0.256778
v -0.091471 0.186337 -0.180782
v -0.091471 0.242583 -0.096605
v -0.091471 0.262333 0.002689
v -0.091471 0.242583 0.101983
v -0.091471 0.186337 0.186161
v -0.091471 0.102160 0.242406
v -0.091471 0.002866 0.262157
v -0.091471 -0.096428 0.242406
v -0.091471 -0.180606 0.186161
v -0.091471 -0.236851 0.101983
v -0.091471 -0.256602 0.002689
v -0.091471 -0.236851 -0.096605
v -0.091471 -0.180606 -0.180782
v -0.091471 -0.096428 -0.237027
v -0.091471 0.102160 -0.237027
v -0.091471 0.002866 -0.256778
v -0.091471 0.186337 -0.180782
v -0.091471 0.242583 -0.096605
v -0.091471 0.262333 0.002689
v -0.091471 0.242583 0.101983
v -0.091471 0.186337 0.186161
v -0.091471 0.102160 0.242406
v -0.091471 0.002866 0.262157
v -0.091471 -0.096428 0.242406
v -0.091471 -0.180606 0.186161
v -0.091471 -0.236851 0.101983
v -0.091471 -0.256602 0.002689
v -0.091471 -0.236851 -0.096605
v -0.091471 -0.180606 -0.180782
v -0.091471 -0.096428 -0.237027
v -0.091471 0.094830 -0.219333
v -0.091471 0.002866 -0.237625
v -0.091471 0.172794 -0.167239
v -0.091471 0.224888 -0.089275
v -0.091471 0.243181 0.002689
v -0.091471 0.224888 0.094654
v -0.091471 0.172794 0.172618
v -0.091471 0.094830 0.224711
v -0.091471 0.002866 0.243004
v -0.091471 -0.089099 0.224711
v -0.091471 -0.167063 0.172618
v -0.091471 -0.219156 0.094654
v -0.091471 -0.237449 0.002689
v -0.091471 -0.219156 -0.089275
v -0.091471 -0.167063 -0.167239
v -0.091471 -0.089099 -0.219333
v -0.091471 0.042737 -0.093569
v -0.091471 0.002866 -0.101500
v -0.091471 0.076539 -0.070984
v -0.091471 0.099125 -0.037182
v -0.091471 0.107056 0.002690
v -0.091471 0.099125 0.042561
v -0.091471 0.076539 0.076363
v -0.091471 0.042737 0.098948
v -0.091471 0.002866 0.106879
v -0.091471 -0.037006 0.098948
v -0.091471 -0.070808 0.076363
v -0.091471 -0.093393 0.042561
v -0.091471 -0.101324 0.002690
v -0.091471 -0.093393 -0.037182
v -0.091471 -0.070808 -0.070984
v -0.091471 -0.037006 -0.093569
v -0.092326 0.019779 -0.038142
v -0.092326 0.002866 -0.041506
v -0.092326 0.034117 -0.028562
v -0.092326 0.043697 -0.014223
v -0.092326 0.047062 0.002690
v -0.092326 0.043697 0.019603
v -0.092326 0.034117 0.033941
v -0.092326 0.019779 0.043521
v -0.092326 0.002866 0.046885
v -0.092326 -0.014047 0.043521
v -0.092326 -0.028385 0.033941
v -0.092326 -0.037966 0.019603
v -0.092326 -0.041330 0.002690
v -0.092326 -0.037966 -0.014223
v -0.092326 -0.028385 -0.028562
v -0.092326 -0.014047 -0.038142
v 0.167545 0.097372 -0.225468
v 0.167545 0.002866 -0.244266
v 0.167545 0.177490 -0.171935
v 0.167545 0.231023 -0.091817
v 0.167545 0.249822 0.002689
v 0.167545 0.231023 0.097195
v 0.167545 0.177490 0.177314
v 0.167545 0.097372 0.230847
v 0.167545 0.002866 0.249645
v 0.167545 -0.091640 0.230847
v 0.167545 -0.171758 0.177314
v 0.167545 -0.225292 0.097195
v 0.167545 -0.244090 0.002689
v 0.167545 -0.225292 -0.091817
v 0.167545 -0.171758 -0.171935
v 0.167545 -0.091640 -0.225468
v -0.091471 0.002866 -0.355796
v -0.075303 0.002866 -0.372281
v -0.075303 0.146361 -0.343738
v -0.091471 0.140052 -0.328508
v -0.075303 0.268010 -0.262455
v -0.091471 0.256353 -0.250798
v -0.075303 0.349293 -0.140805
v -0.091471 0.334063 -0.134497
v -0.075303 0.377836 0.002689
v -0.091471 0.361351 0.002689
v -0.075303 0.349293 0.146184
v -0.091471 0.334063 0.139876
v -0.075303 0.268010 0.267833
v -0.091471 0.256353 0.256177
v -0.075303 0.146361 0.349117
v -0.091471 0.140052 0.333887
v -0.075303 0.002866 0.377660
v -0.091471 0.002866 0.361175
v -0.075303 -0.140629 0.349117
v -0.091471 -0.134321 0.333887
v -0.075303 -0.262278 0.267833
v -0.091471 -0.250622 0.256177
v -0.075303 -0.343562 0.146184
v -0.091471 -0.328332 0.139876
v -0.075303 -0.372104 0.002689
v -0.091471 -0.355620 0.002689
v -0.075303 -0.343562 -0.140806
v -0.091471 -0.328331 -0.134497
v -0.075303 -0.262278 -0.262455
v -0.091471 -0.250622 -0.250798
v -0.075303 -0.140629 -0.343738
v -0.091471 -0.134321 -0.328508
v 0.147391 0.146361 -0.343738
v 0.167545 0.138497 -0.324753
v 0.167545 0.002866 -0.351732
v 0.147391 0.002866 -0.372281
v 0.147391 0.268010 -0.262455
v 0.167545 0.253480 -0.247924
v 0.147391 0.349293 -0.140805
v 0.167545 0.330308 -0.132942
v 0.147391 0.377836 0.002689
v 0.167545 0.357287 0.002689
v 0.147391 0.349293 0.146184
v 0.167545 0.330308 0.138321
v 0.147391 0.268010 0.267833
v 0.167545 0.253480 0.253303
v 0.147391 0.146361 0.349117
v 0.167545 0.138497 0.330132
v 0.147391 0.002866 0.377660
v 0.167545 0.002866 0.357111
v 0.147391 -0.140629 0.349117
v 0.167545 -0.132765 0.330132
v 0.147391 -0.262278 0.267833
v 0.167545 -0.247748 0.253303
v 0.147391 -0.343562 0.146184
v 0.167545 -0.324577 0.138321
v 0.147391 -0.372104 0.002689
v 0.167545 -0.351556 0.002689
v 0.147391 -0.343562 -0.140806
v 0.167545 -0.324577 -0.132942
v 0.147391 -0.262278 -0.262455
v 0.167545 -0.247748 -0.247924
v 0.147391 -0.140629 -0.343738
v 0.167545 -0.132766 -0.324753
v 0.113183 -0.149267 0.136300
v 0.119870 -0.144538 0.131571
v 0.122318 -0.138078 0.125111
v 0.119870 -0.131618 0.118651
v 0.113183 -0.126889 0.113922
v 0.104047 -0.125159 0.112191
v 0.094911 -0.126889 0.113922
v 0.088224 -0.131618 0.118651
v 0.085776 -0.138078 0.125111
v 0.088224 -0.144538 0.131571
v 0.094911 -0.149267 0.136300
v 0.104047 -0.150998 0.138031
v 0.113183 -0.083850 0.180010
v 0.119870 -0.081291 0.173831
v 0.122318 -0.077795 0.165391
v 0.119870 -0.074299 0.156951
v 0.113183 -0.071740 0.150772
v 0.104047 -0.070803 0.148511
v 0.094911 -0.071740 0.150772
v 0.088224 -0.074299 0.156951
v 0.085776 -0.077795 0.165391
v 0.088224 -0.081291 0.173831
v 0.094911 -0.083850 0.180010
v 0.104047 -0.084787 0.182271
v 0.113183 -0.006687 0.195358
v 0.119870 -0.006687 0.188671
v 0.122318 -0.006687 0.179535
v 0.119870 -0.006687 0.170400
v 0.113183 -0.006687 0.163712
v 0.104047 -0.006687 0.161264
v 0.094911 -0.006687 0.163712
v 0.088224 -0.006687 0.170400
v 0.085776 -0.006687 0.179535
v 0.088224 -0.006687 0.188671
v 0.094911 -0.006687 0.195358
v 0.104047 -0.006687 0.197806
v 0.113183 0.070477 0.180010
v 0.119870 0.067918 0.173831
v 0.122318 0.064422 0.165391
v 0.119870 0.060926 0.156951
v 0.113183 0.058367 0.150772
v 0.104047 0.057430 0.148511
v 0.094911 0.058367 0.150772
v 0.088224 0.060926 0.156951
v 0.085776 0.064422 0.165391
v 0.088224 0.067918 0.173831
v 0.094911 0.070477 0.180010
v 0.104047 0.071414 0.182271
v 0.113183 0.135894 0.136300
v 0.119870 0.131165 0.131571
v 0.122318 0.124705 0.125111
v 0.119870 0.118245 0.118651
v 0.113183 0.113516 0.113922
v 0.104047 0.111785 0.112191
v 0.094911 0.113516 0.113922
v 0.088224 0.118245 0.118651
v 0.085776 0.124705 0.125111
v 0.088224 0.131165 0.131571
v 0.094911 0.135894 0.136300
v 0.104047 0.137625 0.138031
v 0.113183 0.179604 0.070883
v 0.119870 0.173425 0.068324
v 0.122318 0.164985 0.064828
v 0.119870 0.156545 0.061332
v 0.113183 0.150366 0.058773
v 0.104047 0.148105 0.057836
v 0.094911 0.150366 0.058773
v 0.088224 0.156545 0.061332
v 0.085776 0.164985 0.064828
v 0.088224 0.173425 0.068324
v 0.094911 0.179604 0.070883
v 0.104047 0.181865 0.071820
v 0.113183 0.194952 -0.006281
v 0.119870 0.188265 -0.006281
v 0.122318 0.179129 -0.006281
v 0.119870 0.169994 -0.006281
v 0.113183 0.163306 -0.006281
v 0.104047 0.160858 -0.006281
v 0.094911 0.163306 -0.006281
v 0.088224 0.169994 -0.006281
v 0.085776 0.179129 -0.006281
v 0.088224 0.188265 -0.006281
v 0.094911 0.194952 -0.006281
v 0.104047 0.197400 -0.006281
v 0.113183 0.179604 -0.083445
v 0.119870 0.173425 -0.080885
v 0.122318 0.164985 -0.077389
v 0.119870 0.156545 -0.073893
v 0.113183 0.150366 -0.071334
v 0.104047 0.148105 -0.070397
v 0.094911 0.150366 -0.071334
v 0.088224 0.156545 -0.073893
v 0.085776 0.164985 -0.077389
v 0.088224 0.173425 -0.080885
v 0.094911 0.179604 -0.083445
v 0.104047 0.181865 -0.084381
v 0.113183 0.135894 -0.148861
v 0.119870 0.131165 -0.144132
v 0.122318 0.124705 -0.137672
v 0.119870 0.118245 -0.131212
v 0.113183 0.113516 -0.126484
v 0.104047 0.111786 -0.124753
v 0.094911 0.113516 -0.126484
v 0.088224 0.118245 -0.131212
v 0.085776 0.124705 -0.137672
v 0.088224 0.131165 -0.144132
v 0.094911 0.135894 -0.148861
v 0.104047 0.137625 -0.150592
v 0.113183 0.070477 -0.192571
v 0.119870 0.067918 -0.186392
v 0.122318 0.064422 -0.177952
v 0.119870 0.060926 -0.169512
v 0.113183 0.058367 -0.163333
v 0.104047 0.057430 -0.161072
v 0.094911 0.058367 -0.163333
v 0.088224 0.060926 -0.169512
v 0.085776 0.064422 -0.177952
v 0.088224 0.067918 -0.186392
v 0.094911 0.070477 -0.192571
v 0.104047 0.071414 -0.194832
v 0.113183 -0.006687 -0.207920
v 0.119870 -0.006687 -0.201232
v 0.122318 -0.006687 -0.192096
v 0.119870 -0.006687 -0.182961
v 0.113183 -0.006687 -0.176273
v 0.104047 -0.006687 -0.173825
v 0.094911 -0.006687 -0.176273
v 0.088224 -0.006687 -0.182961
v 0.085776 -0.006687 -0.192096
v 0.088224 -0.006687 -0.201232
v 0.094911 -0.006687 -0.207920
v 0.104047 -0.006687 -0.210368
v 0.113183 -0.083850 -0.192571
v 0.119870 -0.081291 -0.186392
v 0.122318 -0.077795 -0.177952
v 0.119870 -0.074299 -0.169512
v 0.113183 -0.071740 -0.163333
v 0.104047 -0.070803 -0.161072
v 0.094911 -0.071740 -0.163333
v 0.088224 -0.074299 -0.169512
v 0.085776 -0.077795 -0.177952
v 0.088224 -0.081291 -0.186392
v 0.094911 -0.083850 -0.192571
v 0.104047 -0.084787 -0.194832
v 0.113183 -0.149267 -0.148861
v 0.119870 -0.144538 -0.144132
v 0.122318 -0.138078 -0.137672
v 0.119870 -0.131618 -0.131212
v 0.113183 -0.126889 -0.126484
v 0.104047 -0.125159 -0.124753
v 0.094911 -0.126889 -0.126484
v 0.088224 -0.131618 -0.131212
v 0.085776 -0.138078 -0.137672
v 0.088224 -0.144538 -0.144132
v 0.094911 -0.149267 -0.148861
v 0.104047 -0.150998 -0.150592
v 0.113183 -0.192977 -0.083445
v 0.119870 -0.186798 -0.080885
v 0.122318 -0.178358 -0.077389
v 0.119870 -0.169918 -0.073893
v 0.113183 -0.163739 -0.071334
v 0.104047 -0.161478 -0.070397
v 0.094911 -0.163739 -0.071334
v 0.088224 -0.169918 -0.073893
v 0.085776 -0.178358 -0.077389
v 0.088224 -0.186798 -0.080885
v 0.094911 -0.192977 -0.083445
v 0.104047 -0.195238 -0.084381
v 0.113183 -0.208326 -0.006281
v 0.119870 -0.201638 -0.006281
v 0.122318 -0.192502 -0.006281
v 0.119870 -0.183367 -0.006281
v 0.113183 -0.176679 -0.006281
v 0.104047 -0.174231 -0.006281
v 0.094911 -0.176679 -0.006281
v 0.088224 -0.183367 -0.006281
v 0.085776 -0.192502 -0.006281
v 0.088224 -0.201638 -0.006281
v 0.094911 -0.208326 -0.006281
v 0.104047 -0.210773 -0.006281
v 0.113183 -0.192977 0.070883
v 0.119870 -0.186798 0.068324
v 0.122318 -0.178358 0.064828
v 0.119870 -0.169918 0.061332
v 0.113183 -0.163739 0.058773
v 0.104047 -0.161478 0.057836
v 0.094911 -0.163739 0.058773
v 0.088224 -0.169918 0.061332
v 0.085776 -0.178358 0.064828
v 0.088224 -0.186798 0.068324
v 0.094911 -0.192977 0.070883
v 0.104047 -0.195238 0.071820
vn 1.0000 -0.0000 -0.0000
vn -0.0000 -0.0000 1.0000
vn -0.0000 0.7730 -0.6344
vn -0.0000 0.7730 0.6344
vn -1.0000 -0.0000 -0.0000
vn -0.0000 0.8819 0.4714
vn -0.0000 0.8819 -0.4714
vn -0.0000 0.9569 0.2903
vn -0.0000 0.9569 -0.2903
vn -0.0000 0.9952 0.0980
vn -0.0000 0.9952 -0.0980
vn -0.7071 0.1379 -0.6935
vn -0.7071 0.3928 -0.5879
vn -0.7071 0.5879 -0.3928
vn -0.7071 0.6935 -0.1380
vn -0.7071 0.6935 0.1379
vn -0.7071 0.5879 0.3928
vn -0.7071 0.3928 0.5879
vn -0.7071 0.1379 0.6935
vn -0.7071 -0.1379 0.6935
vn -0.7071 -0.3929 0.5879
vn -0.7071 -0.5879 0.3929
vn -0.7071 -0.6935 0.1379
vn -0.7071 -0.6935 -0.1379
vn -0.7071 -0.5879 -0.3928
vn -0.7071 -0.3928 -0.5879
vn -0.7071 -0.1379 -0.6935
vn -0.0000 0.1951 -0.9808
vn -0.0000 0.5556 -0.8315
vn -0.0000 0.8315 -0.5556
vn -0.0000 0.9808 -0.1951
vn -0.0000 0.9808 0.1951
vn -0.0000 0.8315 0.5556
vn -0.0000 0.5556 0.8315
vn -0.0000 0.1951 0.9808
vn -0.0000 -0.1951 0.9808
vn -0.0000 -0.5556 0.8315
vn -0.0000 -0.8315 0.5556
vn -0.0000 -0.9808 0.1951
vn -0.0000 -0.9808 -0.1951
vn -0.0000 -0.8315 -0.5556
vn -0.0000 -0.5556 -0.8315
vn -0.0000 -0.1951 -0.9808
vn 0.7071 0.1379 -0.6935
vn 0.7071 0.3928 -0.5879
vn 0.7071 0.5879 -0.3928
vn 0.7071 0.6935 -0.1380
vn 0.7071 0.6935 0.1379
vn 0.7071 0.5879 0.3928
vn 0.7071 0.3928 0.5879
vn 0.7071 0.1379 0.6935
vn 0.7071 -0.1379 0.6935
vn 0.7071 -0.3928 0.5879
vn 0.7071 -0.5879 0.3929
vn 0.7071 -0.6935 0.1379
vn 0.7071 -0.6935 -0.1379
vn 0.7071 -0.5879 -0.3928
vn 0.7071 -0.3928 -0.5879
vn 0.7071 -0.1379 -0.6935
vn 0.2542 -0.5373 0.8042
vn 0.7003 -0.3966 0.5936
vn 0.9646 -0.1464 0.2191
vn 0.9646 0.1464 -0.2191
vn 0.7003 0.3966 -0.5936
vn 0.2541 0.5373 -0.8042
vn -0.2541 0.5373 -0.8042
vn -0.7003 0.3966 -0.5936
vn -0.9646 0.1464 -0.2191
vn -0.9646 -0.1464 0.2191
vn -0.7003 -0.3966 0.5936
vn -0.2542 -0.5373 0.8042
vn 0.2541 -0.1887 0.9486
vn 0.7002 -0.1393 0.7002
vn 0.9646 -0.0514 0.2585
vn 0.9646 0.0514 -0.2585
vn 0.7003 0.1393 -0.7002
vn 0.2541 0.1887 -0.9486
vn -0.2541 0.1887 -0.9486
vn -0.7003 0.1393 -0.7002
vn -0.9646 0.0514 -0.2585
vn -0.9646 -0.0514 0.2585
vn -0.7002 -0.1393 0.7002
vn -0.2541 -0.1887 0.9486
vn 0.2541 0.1887 0.9486
vn 0.7002 0.1393 0.7002
vn 0.9646 0.0514 0.2585
vn 0.9646 -0.0514 -0.2585
vn 0.7003 -0.1393 -0.7002
vn 0.2541 -0.1887 -0.9486
vn -0.2541 -0.1887 -0.9486
vn -0.7003 -0.1393 -0.7002
vn -0.9646 -0.0514 -0.2585
vn -0.9646 0.0514 0.2585
vn -0.7002 0.1393 0.7002
vn -0.2541 0.1887 0.9486
vn 0.2542 0.5373 0.8042
vn 0.7003 0.3966 0.5936
vn 0.9646 0.1464 0.2191
vn 0.9646 -0.1464 -0.2191
vn 0.7003 -0.3966 -0.5936
vn 0.2541 -0.5373 -0.8042
vn -0.2541 -0.5373 -0.8042
vn -0.7003 -0.3966 -0.5936
vn -0.9646 -0.1464 -0.2191
vn -0.9646 0.1464 0.2191
vn -0.7003 0.3966 0.5936
vn -0.2542 0.5373 0.8042
vn 0.2542 0.8042 0.5373
vn 0.7003 0.5936 0.3966
vn 0.9646 0.2191 0.1464
vn 0.9646 -0.2191 -0.1464
vn 0.7003 -0.5936 -0.3966
vn 0.2541 -0.8042 -0.5373
vn -0.2541 -0.8042 -0.5373
vn -0.7003 -0.5936 -0.3966
vn -0.9646 -0.2191 -0.1464
vn -0.9646 0.2191 0.1464
vn -0.7003 0.5936 0.3966
vn -0.2542 0.8042 0.5373
vn 0.2541 0.9486 0.1887
vn 0.7002 0.7002 0.1393
vn 0.9646 0.2585 0.0514
vn 0.9646 -0.2585 -0.0514
vn 0.7003 -0.7002 -0.1393
vn 0.2541 -0.9486 -0.1887
vn -0.2541 -0.9486 -0.1887
vn -0.7003 -0.7002 -0.1393
vn -0.9646 -0.2585 -0.0514
vn -0.9646 0.2585 0.0514
vn -0.7002 0.7002 0.1393
vn -0.2541 0.9486 0.1887
vn 0.2541 0.9486 -0.1887
vn 0.7002 0.7002 -0.1393
vn 0.9646 0.2585 -0.0514
vn 0.9646 -0.2585 0.0514
vn 0.7003 -0.7002 0.1393
vn 0.2541 -0.9486 0.1887
vn -0.2541 -0.9486 0.1887
vn -0.7003 -0.7002 0.1393
vn -0.9646 -0.2585 0.0514
vn -0.9646 0.2585 -0.0514
vn -0.7002 0.7002 -0.1393
vn -0.2541 0.9486 -0.1887
vn 0.2541 0.8042 -0.5373
vn 0.7003 0.5936 -0.3966
vn 0.9646 0.2191 -0.1464
vn 0.9646 -0.2191 0.1464
vn 0.7002 -0.5936 0.3966
vn 0.2541 -0.8042 0.5373
vn -0.2541 -0.8042 0.5373
vn -0.7002 -0.5936 0.3966
vn -0.9646 -0.2191 0.1464
vn -0.9646 0.2191 -0.1464
vn -0.7003 0.5936 -0.3966
vn -0.2541 0.8042 -0.5373
vn 0.7002 -0.3966 0.5936
vn 0.2541 -0.5373 0.8042
vn -0.2541 -0.5373 0.8042
vn -0.7002 -0.3966 0.5936
vn 0.7003 -0.1393 0.7002
vn -0.7003 -0.1393 0.7002
vn 0.7003 0.1393 0.7002
vn -0.7003 0.1393 0.7002
vn 0.7002 0.3966 0.5936
vn 0.2541 0.5373 0.8042
vn -0.2541 0.5373 0.8042
vn -0.7002 0.3966 0.5936
vn 0.7002 0.5936 0.3966
vn 0.2541 0.8042 0.5373
vn -0.2541 0.8042 0.5373
vn -0.7002 0.5936 0.3966
vn 0.7003 0.7002 0.1393
vn -0.7003 0.7002 0.1393
vn 0.7003 0.7002 -0.1393
vn -0.7003 0.7002 -0.1393
vn 0.2542 -0.8042 0.5373
vn 0.7003 -0.5936 0.3966
vn -0.7003 -0.5936 0.3966
vn -0.2542 -0.8042 0.5373
vt 0.896013 0.886712
vt 0.896014 0.886712
vt 0.894463 0.889813
vt 0.130883 0.241618
s 1
usemtl baseGradient.002
f 463/6/47 462/6/47 524/6/47 526/6/47
s 0
f 381/6/48 397/6/49 398/6/48 382/6/50
s 1
f 458/6/47 457/7/47 514/6/47 516/6/47
f 459/7/47 458/6/47 516/6/47 518/6/47
f 452/7/47 451/7/47 502/6/47 504/6/47
f 450/6/47 464/6/47 528/6/47 499/6/47
f 460/6/47 459/7/47 518/6/47 520/6/47
f 453/7/47 452/7/47 504/6/47 506/6/47
f 461/7/47 460/6/47 520/6/47 522/6/47
f 454/7/47 453/7/47 506/6/47 508/6/47
f 488/6/51 380/6/51 381/6/51 490/6/51
f 455/7/47 454/7/47 508/6/47 510/6/47
f 462/6/47 461/7/47 522/6/47 524/6/47
f 456/6/47 455/7/47 510/6/47 512/6/47
f 464/6/47 463/6/47 526/6/47 528/6/47
f 457/7/47 456/6/47 512/6/47 514/6/47
s 0
f 374/6/48 390/6/52 391/6/48 375/6/53
f 382/6/48 398/6/53 399/6/48 383/6/52
f 375/6/48 391/6/54 392/6/48 376/6/55
f 383/6/48 399/6/55 400/6/48 384/6/54
f 376/6/48 392/6/56 393/6/48 377/6/57
f 370/6/48 386/6/56 385/6/48 369/6/57
f 384/6/48 400/6/57 386/6/48 370/6/56
f 377/6/48 393/6/57 394/6/48 378/6/56
f 369/6/48 385/6/54 387/6/48 371/6/55
f 378/6/48 394/6/55 395/6/48 379/6/54
f 371/6/48 387/6/52 388/6/48 372/6/53
f 379/6/48 395/6/53 396/6/48 380/6/52
f 372/6/48 388/6/50 389/6/48 373/6/49
f 380/6/48 396/6/49 397/6/48 381/6/50
f 373/6/48 389/6/50 390/6/48 374/6/49
s 1
f 408/6/51 424/6/51 425/6/51 409/6/51
f 402/6/51 418/6/51 417/6/51 401/6/51
f 416/6/51 432/6/51 418/6/51 402/6/51
f 409/6/51 425/6/51 426/6/51 410/6/51
f 401/6/51 417/6/51 419/6/51 403/6/51
f 410/6/51 426/6/51 427/6/51 411/6/51
f 403/6/51 419/6/51 420/6/51 404/6/51
f 411/6/51 427/6/51 428/6/51 412/6/51
f 404/6/51 420/6/51 421/6/51 405/6/51
f 412/6/51 428/6/51 429/6/51 413/6/51
f 405/6/51 421/6/51 422/6/51 406/6/51
f 413/6/51 429/6/51 430/6/51 414/6/51
f 406/6/51 422/6/51 423/6/51 407/6/51
f 414/6/51 430/6/51 431/6/51 415/6/51
f 407/6/51 423/6/51 424/6/51 408/6/51
f 415/6/51 431/6/51 432/6/51 416/6/51
f 433/8/51 434/8/51 448/8/51 447/8/51 446/8/51 445/8/51 444/8/51 443/8/51 442/8/51 441/8/51 440/8/51 439/8/51 438/8/51 437/8/51 436/8/51 435/8/51
f 474/6/51 373/6/51 374/6/51 476/6/51
f 490/6/51 381/6/51 382/6/51 492/6/51
f 476/6/51 374/6/51 375/6/51 478/6/51
f 492/6/51 382/6/51 383/6/51 494/6/51
f 478/6/51 375/6/51 376/6/51 480/6/51
f 494/6/51 383/6/51 384/6/51 496/6/51
f 480/6/51 376/6/51 377/6/51 482/6/51
f 465/6/51 370/6/51 369/6/51 468/6/51
f 496/6/51 384/6/51 370/6/51 465/6/51
f 482/6/51 377/6/51 378/6/51 484/6/51
f 468/6/51 369/6/51 371/6/51 470/6/51
f 484/6/51 378/6/51 379/6/51 486/6/51
f 470/6/51 371/6/51 372/6/51 472/6/51
f 486/6/51 379/6/51 380/6/51 488/6/51
f 472/6/51 372/6/51 373/6/51 474/6/51
f 468/6/58 467/6/58 466/6/58 465/6/58
f 470/6/59 469/6/59 467/6/59 468/6/59
f 472/6/60 471/6/60 469/6/60 470/6/60
f 474/6/61 473/6/61 471/6/61 472/6/61
f 476/6/62 475/6/62 473/6/62 474/6/62
f 478/6/63 477/6/63 475/6/63 476/6/63
f 480/6/64 479/6/64 477/6/64 478/6/64
f 482/6/65 481/6/65 479/6/65 480/6/65
f 484/6/66 483/6/66 481/6/66 482/6/66
f 486/6/67 485/6/67 483/6/67 484/6/67
f 488/6/68 487/6/68 485/6/68 486/6/68
f 490/6/69 489/6/69 487/6/69 488/6/69
f 492/6/70 491/6/70 489/6/70 490/6/70
f 494/6/71 493/6/71 491/6/71 492/6/71
f 496/6/72 495/6/72 493/6/72 494/6/72
f 465/6/73 466/6/73 495/6/73 496/6/73
f 451/7/47 449/7/47 498/6/47 502/6/47
f 467/6/74 497/6/74 500/6/74 466/6/74
f 469/6/75 501/6/75 497/6/75 467/6/75
f 471/6/76 503/6/76 501/6/76 469/6/76
f 473/6/77 505/6/77 503/6/77 471/6/77
f 475/6/78 507/6/78 505/6/78 473/6/78
f 477/6/79 509/6/79 507/6/79 475/6/79
f 479/6/80 511/6/80 509/6/80 477/6/80
f 481/6/81 513/6/81 511/6/81 479/6/81
f 483/6/82 515/6/82 513/6/82 481/6/82
f 485/6/83 517/6/83 515/6/83 483/6/83
f 487/6/84 519/6/84 517/6/84 485/6/84
f 489/6/85 521/6/85 519/6/85 487/6/85
f 491/6/86 523/6/86 521/6/86 489/6/86
f 493/6/87 525/6/87 523/6/87 491/6/87
f 495/6/88 527/6/88 525/6/88 493/6/88
f 466/6/89 500/6/89 527/6/89 495/6/89
f 498/6/90 499/6/90 500/6/90 497/6/90
f 502/6/91 498/6/91 497/6/91 501/6/91
f 504/6/92 502/6/92 501/6/92 503/6/92
f 506/6/93 504/6/93 503/6/93 505/6/93
f 508/6/94 506/6/94 505/6/94 507/6/94
f 510/6/95 508/6/95 507/6/95 509/6/95
f 512/6/96 510/6/96 509/6/96 511/6/96
f 514/6/97 512/6/97 511/6/97 513/6/97
f 516/6/98 514/6/98 513/6/98 515/6/98
f 518/6/99 516/6/99 515/6/99 517/6/99
f 520/6/100 518/6/100 517/6/100 519/6/100
f 522/6/101 520/6/101 519/6/101 521/6/101
f 524/6/102 522/6/102 521/6/102 523/6/102
f 526/6/103 524/6/103 523/6/103 525/6/103
f 528/6/104 526/6/104 525/6/104 527/6/104
f 499/6/105 528/6/105 527/6/105 500/6/105
f 449/7/47 450/6/47 499/6/47 498/6/47
usemtl gradientEmmisive.003
f 529/9/106 541/9/106 552/9/106 540/9/106
f 530/9/107 542/9/107 541/9/107 529/9/107
f 531/9/108 543/9/108 542/9/108 530/9/108
f 532/9/109 544/9/109 543/9/109 531/9/109
f 533/9/110 545/9/110 544/9/110 532/9/110
f 534/9/111 546/9/111 545/9/111 533/9/111
f 535/9/112 547/9/112 546/9/112 534/9/112
f 536/9/113 548/9/113 547/9/113 535/9/113
f 537/9/114 549/9/114 548/9/114 536/9/114
f 538/9/115 550/9/115 549/9/115 537/9/115
f 539/9/116 551/9/116 550/9/116 538/9/116
f 540/9/117 552/9/117 551/9/117 539/9/117
f 541/9/118 553/9/118 564/9/118 552/9/118
f 542/9/119 554/9/119 553/9/119 541/9/119
f 543/9/120 555/9/120 554/9/120 542/9/120
f 544/9/121 556/9/121 555/9/121 543/9/121
f 545/9/122 557/9/122 556/9/122 544/9/122
f 546/9/123 558/9/123 557/9/123 545/9/123
f 547/9/124 559/9/124 558/9/124 546/9/124
f 548/9/125 560/9/125 559/9/125 547/9/125
f 549/9/126 561/9/126 560/9/126 548/9/126
f 550/9/127 562/9/127 561/9/127 549/9/127
f 551/9/128 563/9/128 562/9/128 550/9/128
f 552/9/129 564/9/129 563/9/129 551/9/129
f 553/9/130 565/9/130 576/9/130 564/9/130
f 554/9/131 566/9/131 565/9/131 553/9/131
f 555/9/132 567/9/132 566/9/132 554/9/132
f 556/9/133 568/9/133 567/9/133 555/9/133
f 557/9/134 569/9/134 568/9/134 556/9/134
f 558/9/135 570/9/135 569/9/135 557/9/135
f 559/9/136 571/9/136 570/9/136 558/9/136
f 560/9/137 572/9/137 571/9/137 559/9/137
f 561/9/138 573/9/138 572/9/138 560/9/138
f 562/9/139 574/9/139 573/9/139 561/9/139
f 563/9/140 575/9/140 574/9/140 562/9/140
f 564/9/141 576/9/141 575/9/141 563/9/141
f 565/9/142 577/9/142 588/9/142 576/9/142
f 566/9/143 578/9/143 577/9/143 565/9/143
f 567/9/144 579/9/144 578/9/144 566/9/144
f 568/9/145 580/9/145 579/9/145 567/9/145
f 569/9/146 581/9/146 580/9/146 568/9/146
f 570/9/147 582/9/147 581/9/147 569/9/147
f 571/9/148 583/9/148 582/9/148 570/9/148
f 572/9/149 584/9/149 583/9/149 571/9/149
f 573/9/150 585/9/150 584/9/150 572/9/150
f 574/9/151 586/9/151 585/9/151 573/9/151
f 575/9/152 587/9/152 586/9/152 574/9/152
f 576/9/153 588/9/153 587/9/153 575/9/153
f 577/9/154 589/9/154 600/9/154 588/9/154
f 578/9/155 590/9/155 589/9/155 577/9/155
f 579/9/156 591/9/156 590/9/156 578/9/156
f 580/9/157 592/9/157 591/9/157 579/9/157
f 581/9/158 593/9/158 592/9/158 580/9/158
f 582/9/159 594/9/159 593/9/159 581/9/159
f 583/9/160 595/9/160 594/9/160 582/9/160
f 584/9/161 596/9/161 595/9/161 583/9/161
f 585/9/162 597/9/162 596/9/162 584/9/162
f 586/9/163 598/9/163 597/9/163 585/9/163
f 587/9/164 599/9/164 598/9/164 586/9/164
f 588/9/165 600/9/165 599/9/165 587/9/165
f 589/9/166 601/9/166 612/9/166 600/9/166
f 590/9/167 602/9/167 601/9/167 589/9/167
f 591/9/168 603/9/168 602/9/168 590/9/168
f 592/9/169 604/9/169 603/9/169 591/9/169
f 593/9/170 605/9/170 604/9/170 592/9/170
f 594/9/171 606/9/171 605/9/171 593/9/171
f 595/9/172 607/9/172 606/9/172 594/9/172
f 596/9/173 608/9/173 607/9/173 595/9/173
f 597/9/174 609/9/174 608/9/174 596/9/174
f 598/9/175 610/9/175 609/9/175 597/9/175
f 599/9/176 611/9/176 610/9/176 598/9/176
f 600/9/177 612/9/177 611/9/177 599/9/177
f 601/9/178 613/9/178 624/9/178 612/9/178
f 602/9/179 614/9/179 613/9/179 601/9/179
f 603/9/180 615/9/180 614/9/180 602/9/180
f 604/9/181 616/9/181 615/9/181 603/9/181
f 605/9/182 617/9/182 616/9/182 604/9/182
f 606/9/183 618/9/183 617/9/183 605/9/183
f 607/9/184 619/9/184 618/9/184 606/9/184
f 608/9/185 620/9/185 619/9/185 607/9/185
f 609/9/186 621/9/186 620/9/186 608/9/186
f 610/9/187 622/9/187 621/9/187 609/9/187
f 611/9/188 623/9/188 622/9/188 610/9/188
f 612/9/189 624/9/189 623/9/189 611/9/189
f 613/9/190 625/9/190 636/9/190 624/9/190
f 614/9/191 626/9/191 625/9/191 613/9/191
f 615/9/192 627/9/192 626/9/192 614/9/192
f 616/9/193 628/9/193 627/9/193 615/9/193
f 617/9/194 629/9/194 628/9/194 616/9/194
f 618/9/195 630/9/195 629/9/195 617/9/195
f 619/9/196 631/9/196 630/9/196 618/9/196
f 620/9/197 632/9/197 631/9/197 619/9/197
f 621/9/198 633/9/198 632/9/198 620/9/198
f 622/9/199 634/9/199 633/9/199 621/9/199
f 623/9/200 635/9/200 634/9/200 622/9/200
f 624/9/201 636/9/201 635/9/201 623/9/201
f 625/9/111 637/9/111 648/9/111 636/9/111
f 626/9/110 638/9/110 637/9/110 625/9/110
f 627/9/109 639/9/109 638/9/109 626/9/109
f 628/9/108 640/9/108 639/9/108 627/9/108
f 629/9/202 641/9/202 640/9/202 628/9/202
f 630/9/203 642/9/203 641/9/203 629/9/203
f 631/9/204 643/9/204 642/9/204 630/9/204
f 632/9/205 644/9/205 643/9/205 631/9/205
f 633/9/115 645/9/115 644/9/115 632/9/115
f 634/9/114 646/9/114 645/9/114 633/9/114
f 635/9/113 647/9/113 646/9/113 634/9/113
f 636/9/112 648/9/112 647/9/112 635/9/112
f 637/9/123 649/9/123 660/9/123 648/9/123
f 638/9/122 650/9/122 649/9/122 637/9/122
f 639/9/121 651/9/121 650/9/121 638/9/121
f 640/9/120 652/9/120 651/9/120 639/9/120
f 641/9/206 653/9/206 652/9/206 640/9/206
f 642/9/118 654/9/118 653/9/118 641/9/118
f 643/9/129 655/9/129 654/9/129 642/9/129
f 644/9/207 656/9/207 655/9/207 643/9/207
f 645/9/127 657/9/127 656/9/127 644/9/127
f 646/9/126 658/9/126 657/9/126 645/9/126
f 647/9/125 659/9/125 658/9/125 646/9/125
f 648/9/124 660/9/124 659/9/124 647/9/124
f 649/9/135 661/9/135 672/9/135 660/9/135
f 650/9/134 662/9/134 661/9/134 649/9/134
f 651/9/133 663/9/133 662/9/133 650/9/133
f 652/9/132 664/9/132 663/9/132 651/9/132
f 653/9/208 665/9/208 664/9/208 652/9/208
f 654/9/130 666/9/130 665/9/130 653/9/130
f 655/9/141 667/9/141 666/9/141 654/9/141
f 656/9/209 668/9/209 667/9/209 655/9/209
f 657/9/139 669/9/139 668/9/139 656/9/139
f 658/9/138 670/9/138 669/9/138 657/9/138
f 659/9/137 671/9/137 670/9/137 658/9/137
f 660/9/136 672/9/136 671/9/136 659/9/136
f 661/9/147 673/9/147 684/9/147 672/9/147
f 662/9/146 674/9/146 673/9/146 661/9/146
f 663/9/145 675/9/145 674/9/145 662/9/145
f 664/9/144 676/9/144 675/9/144 663/9/144
f 665/9/210 677/9/210 676/9/210 664/9/210
f 666/9/211 678/9/211 677/9/211 665/9/211
f 667/9/212 679/9/212 678/9/212 666/9/212
f 668/9/213 680/9/213 679/9/213 667/9/213
f 669/9/151 681/9/151 680/9/151 668/9/151
f 670/9/150 682/9/150 681/9/150 669/9/150
f 671/9/149 683/9/149 682/9/149 670/9/149
f 672/9/148 684/9/148 683/9/148 671/9/148
f 673/9/159 685/9/159 696/9/159 684/9/159
f 674/9/158 686/9/158 685/9/158 673/9/158
f 675/9/157 687/9/157 686/9/157 674/9/157
f 676/9/156 688/9/156 687/9/156 675/9/156
f 677/9/214 689/9/214 688/9/214 676/9/214
f 678/9/215 690/9/215 689/9/215 677/9/215
f 679/9/216 691/9/216 690/9/216 678/9/216
f 680/9/217 692/9/217 691/9/217 679/9/217
f 681/9/163 693/9/163 692/9/163 680/9/163
f 682/9/162 694/9/162 693/9/162 681/9/162
f 683/9/161 695/9/161 694/9/161 682/9/161
f 684/9/160 696/9/160 695/9/160 683/9/160
f 685/9/171 697/9/171 708/9/171 696/9/171
f 686/9/170 698/9/170 697/9/170 685/9/170
f 687/9/169 699/9/169 698/9/169 686/9/169
f 688/9/168 700/9/168 699/9/168 687/9/168
f 689/9/218 701/9/218 700/9/218 688/9/218
f 690/9/166 702/9/166 701/9/166 689/9/166
f 691/9/177 703/9/177 702/9/177 690/9/177
f 692/9/219 704/9/219 703/9/219 691/9/219
f 693/9/175 705/9/175 704/9/175 692/9/175
f 694/9/174 706/9/174 705/9/174 693/9/174
f 695/9/173 707/9/173 706/9/173 694/9/173
f 696/9/172 708/9/172 707/9/172 695/9/172
f 697/9/183 709/9/183 720/9/183 708/9/183
f 698/9/182 710/9/182 709/9/182 697/9/182
f 699/9/181 711/9/181 710/9/181 698/9/181
f 700/9/180 712/9/180 711/9/180 699/9/180
f 701/9/220 713/9/220 712/9/220 700/9/220
f 702/9/178 714/9/178 713/9/178 701/9/178
f 703/9/189 715/9/189 714/9/189 702/9/189
f 704/9/221 716/9/221 715/9/221 703/9/221
f 705/9/187 717/9/187 716/9/187 704/9/187
f 706/9/186 718/9/186 717/9/186 705/9/186
f 707/9/185 719/9/185 718/9/185 706/9/185
f 708/9/184 720/9/184 719/9/184 707/9/184
f 709/9/222 529/9/222 540/9/222 720/9/222
f 710/9/223 530/9/223 529/9/223 709/9/223
f 711/9/193 531/9/193 530/9/193 710/9/193
f 712/9/192 532/9/192 531/9/192 711/9/192
f 713/9/191 533/9/191 532/9/191 712/9/191
f 714/9/190 534/9/190 533/9/190 713/9/190
f 715/9/201 535/9/201 534/9/201 714/9/201
f 716/9/200 536/9/200 535/9/200 715/9/200
f 717/9/199 537/9/199 536/9/199 716/9/199
f 718/9/198 538/9/198 537/9/198 717/9/198
f 719/9/224 539/9/224 538/9/224 718/9/224
f 720/9/225 540/9/225 539/9/225 719/9/225
