# Blender 5.2.2 LTS
# www.blender.org
mtllib all_wheels.mtl
o all_wheels
v 0.171705 0.000472 -0.365303
v 0.146173 0.000472 -0.391736
v -0.077798 -0.001329 -0.100478
v -0.117089 0.000472 -0.391736
v 0.171705 -0.182086 -0.316387
v 0.146173 -0.195302 -0.339279
v -0.077798 -0.051233 -0.087106
v -0.117089 -0.195302 -0.339279
v 0.171705 -0.315727 -0.182745
v 0.146173 -0.338619 -0.195962
v -0.077798 -0.087765 -0.050574
v -0.117089 -0.338619 -0.195962
v 0.171705 -0.364643 -0.000188
v 0.146173 -0.391076 -0.000188
v -0.077798 -0.101136 -0.000670
v -0.117089 -0.391076 -0.000188
v 0.171705 -0.315727 0.182370
v 0.146173 -0.338619 0.195586
v -0.077798 -0.087765 0.049233
v -0.117089 -0.338619 0.195586
v 0.171705 -0.182086 0.316011
v 0.146173 -0.195302 0.338903
v -0.077798 -0.051233 0.085765
v -0.117089 -0.195302 0.338903
v 0.171705 0.000472 0.364927
v 0.146173 0.000472 0.391361
v -0.077798 -0.001329 0.099137
v -0.117089 0.000472 0.391361
v 0.171705 0.183030 0.316011
v 0.146173 0.196246 0.338903
v -0.077798 0.048574 0.085765
v -0.117089 0.196246 0.338903
v 0.171705 0.316671 0.182370
v 0.146173 0.339563 0.195586
v -0.077798 0.085106 0.049233
v -0.117089 0.339563 0.195586
v 0.171705 0.365587 -0.000188
v 0.146173 0.392020 -0.000188
v -0.077798 0.098478 -0.000670
v -0.117089 0.392021 -0.000188
v 0.171705 0.316671 -0.182745
v 0.146173 0.339563 -0.195962
v -0.077798 0.085106 -0.050574
v -0.117089 0.339563 -0.195962
v 0.171705 0.183030 -0.316387
v 0.146173 0.196246 -0.339279
v -0.077798 0.048574 -0.087106
v -0.117089 0.196246 -0.339279
v -0.142622 0.000472 -0.365303
v -0.142622 -0.182085 -0.316387
v -0.142622 -0.315727 -0.182745
v -0.142622 -0.364643 -0.000188
v -0.142622 -0.315727 0.182370
v -0.142622 -0.182085 0.316011
v -0.142622 0.000472 0.364927
v -0.142622 0.183030 0.316011
v -0.142622 0.316671 0.182370
v -0.142622 0.365587 -0.000188
v -0.142622 0.316671 -0.182745
v -0.142622 0.183030 -0.316387
v -0.142622 0.000472 -0.267904
v -0.142622 -0.133386 -0.232037
v -0.142622 -0.231377 -0.134046
v -0.142622 -0.267244 -0.000188
v -0.142622 -0.231377 0.133670
v -0.142622 -0.133386 0.231661
v -0.142622 0.000472 0.267528
v -0.142622 0.134330 0.231661
v -0.142622 0.232321 0.133670
v -0.142622 0.268188 -0.000188
v -0.142622 0.232321 -0.134046
v -0.142622 0.134330 -0.232037
v -0.077798 0.000472 -0.215068
v -0.077798 -0.106968 -0.186279
v -0.077798 -0.185619 -0.107628
v -0.077798 -0.214408 -0.000188
v -0.077798 -0.185619 0.107252
v -0.077798 -0.106968 0.185904
v -0.077798 0.000472 0.214692
v -0.077798 0.107912 0.185904
v -0.077798 0.186564 0.107252
v -0.077798 0.215352 -0.000188
v -0.077798 0.186564 -0.107628
v -0.077798 0.107912 -0.186280
v -0.142620 -0.063242 -0.036973
v -0.142620 -0.063242 0.036597
v -0.142620 -0.036313 0.063526
v -0.142620 0.000472 0.073383
v -0.142620 0.074043 -0.000188
v -0.142620 0.064186 -0.036973
v -0.142620 0.037257 -0.063902
v -0.124133 0.045213 0.253722
v -0.120049 -0.019711 0.012812
v -0.124133 0.087081 0.242439
v -0.120049 0.022157 0.001529
v -0.095239 0.038427 0.255551
v -0.099315 -0.026496 0.014640
v -0.095239 0.093867 0.240610
v -0.099315 0.028943 -0.000300
v -0.123327 0.074178 0.155999
v -0.096043 0.084104 0.153324
v -0.123327 0.012933 0.172504
v -0.096043 0.003007 0.175179
v -0.124133 -0.215713 0.140297
v -0.120049 -0.019386 -0.013679
v -0.124133 -0.188954 0.174417
v -0.120049 0.007373 0.020441
v -0.095239 -0.220050 0.134767
v -0.099315 -0.023723 -0.019209
v -0.095239 -0.184617 0.179947
v -0.099315 0.011711 0.025971
v -0.123327 -0.114446 0.128734
v -0.096043 -0.108102 0.136823
v -0.123327 -0.153590 0.078823
v -0.096043 -0.159935 0.070734
v -0.124133 -0.202899 -0.158657
v -0.120049 0.006740 -0.023363
v -0.124133 -0.226412 -0.122224
v -0.120049 -0.016773 0.013070
v -0.095239 -0.199088 -0.164562
v -0.099315 0.010550 -0.029268
v -0.095239 -0.230223 -0.116319
v -0.099315 -0.020584 0.018975
v -0.123327 -0.158905 -0.066715
v -0.096043 -0.164480 -0.058078
v -0.123327 -0.124511 -0.120010
v -0.096043 -0.118936 -0.128648
v -0.124133 0.080770 -0.245187
v -0.120049 0.024400 -0.002133
v -0.124133 0.038530 -0.254984
v -0.120049 -0.017840 -0.011929
v -0.095239 0.087616 -0.243599
v -0.099315 0.031246 -0.000545
v -0.095239 0.031683 -0.256571
v -0.099315 -0.024686 -0.013517
v -0.123327 0.009140 -0.172676
v -0.096043 -0.000874 -0.174998
v -0.123327 0.070930 -0.158345
v -0.096043 0.080944 -0.156023
v -0.124133 0.257477 0.020321
v -0.120049 0.007982 0.022614
v -0.124133 0.257079 -0.023039
v -0.120049 0.007584 -0.020746
v -0.095239 0.257542 0.027349
v -0.099315 0.008047 0.029642
v -0.095239 0.257014 -0.030066
v -0.099315 0.007519 -0.027774
v -0.123327 0.170171 -0.032274
v -0.096043 0.170076 -0.042554
v -0.123327 0.170753 0.031153
v -0.096043 0.170848 0.041433
v -0.142620 0.000472 -0.073759
v -0.142620 -0.036313 -0.063902
v -0.142620 -0.073099 -0.000188
v -0.142620 0.037257 0.063526
v -0.142620 0.064186 0.036597
vn -0.0000 0.5000 -0.8660
vn -0.0000 -0.0000 -1.0000
vn -0.0000 -0.8660 -0.5000
vn -0.0000 -1.0000 -0.0000
vn -0.0000 -0.8660 0.5000
vn -0.0000 -0.5000 0.8660
vn -0.0000 -0.0000 1.0000
vn -0.0000 0.5000 0.8660
vn -0.0000 0.8660 0.5000
vn -0.0000 1.0000 -0.0000
vn -0.0000 0.8660 -0.5000
vn -0.0000 -0.5000 -0.8660
vn -0.3913 -0.7983 0.4579
vn -0.3912 -0.7955 0.4629
vn -0.3970 -0.9178 0.0011
vn -0.3970 -0.9178 -0.0009
vn 0.7193 -0.0000 -0.6947
vn 0.7193 -0.3474 -0.6017
vn -0.7193 -0.3474 -0.6017
vn -0.7193 -0.0000 -0.6947
vn 0.7193 -0.6017 -0.3474
vn -0.7193 -0.6017 -0.3474
vn 0.7193 -0.6947 -0.0000
vn -0.7193 -0.6947 -0.0000
vn 0.7193 -0.6017 0.3474
vn -0.7193 -0.6017 0.3474
vn 0.7193 -0.3474 0.6017
vn -0.7193 -0.3474 0.6017
vn 0.7193 -0.0000 0.6947
vn -0.7193 -0.0000 0.6947
vn 0.7193 0.3474 0.6017
vn -0.7193 0.3474 0.6017
vn 0.7193 0.6017 0.3474
vn -0.7193 0.6017 0.3474
vn 0.7193 0.6947 -0.0000
vn -0.7193 0.6947 -0.0000
vn 0.7193 0.6017 -0.3474
vn -0.7193 0.6017 -0.3474
vn 0.7193 0.3474 -0.6017
vn -0.7193 0.3474 -0.6017
vn 1.0000 -0.0000 -0.0000
vn -1.0000 -0.0000 -0.0000
vn -0.6318 -0.0000 0.7751
vn -0.6318 0.3876 0.6713
vn -0.6318 0.6713 0.3876
vn -0.6318 0.7751 -0.0000
vn -0.6318 0.6713 -0.3876
vn -0.6318 0.3876 -0.6713
vn -0.6318 -0.0000 -0.7751
vn -0.6318 -0.3876 -0.6713
vn -0.6318 -0.6713 -0.3876
vn -0.6318 -0.7751 -0.0000
vn -0.6318 -0.6713 0.3876
vn -0.6318 -0.3876 0.6713
vn -0.3693 0.4615 -0.8066
vn -0.3691 0.4684 -0.8027
vn -0.3587 0.8100 -0.4639
vn -0.3589 0.8070 -0.4690
vn -0.3913 -0.4624 -0.7957
vn -0.3912 -0.4574 -0.7986
vn -0.3810 0.0043 -0.9246
vn -0.3812 -0.0036 -0.9245
vn -0.3527 0.8099 0.4687
vn -0.3527 0.8110 0.4668
vn -0.3588 0.4695 0.8068
vn -0.3589 0.4644 0.8097
vn -0.3812 -0.4654 0.7988
vn -0.3810 -0.4586 0.8029
vn -0.3970 -0.7953 -0.4581
vn -0.3970 -0.7943 -0.4599
vn -0.3527 0.9357 -0.0010
vn -0.3527 0.9357 0.0012
vn -0.3693 -0.0036 0.9293
vn -0.3691 0.0043 0.9294
vn -0.9998 -0.0175 -0.0046
vn -0.9997 0.0085 -0.0240
vn -0.9994 -0.0070 -0.0350
vn -0.9994 -0.0072 -0.0350
vn -0.0000 0.2602 0.9656
vn -0.0000 -0.2602 -0.9656
vn -0.3166 0.9204 -0.2293
vn -0.3175 0.9258 -0.2054
vn -0.3383 0.8926 -0.2982
vn -0.3384 0.8926 -0.2980
vn 0.9999 0.0102 -0.0054
vn 0.9996 -0.0185 -0.0196
vn 0.9994 -0.0071 -0.0349
vn -0.3036 -0.9092 0.2849
vn -0.3271 -0.9056 0.2699
vn -0.3380 -0.9262 0.1668
vn -0.3381 -0.9262 0.1669
vn 1.0000 -0.0041 0.0076
vn 1.0000 -0.0023 0.0077
vn -0.2918 -0.8764 0.3833
vn -0.2916 -0.8761 0.3840
vn -1.0000 -0.0026 0.0077
vn -1.0000 -0.0039 0.0076
vn -0.2922 0.9465 -0.1371
vn -0.2919 0.9467 -0.1364
vn -0.9998 -0.0026 -0.0179
vn -0.9997 0.0254 -0.0016
vn -0.9994 0.0295 -0.0201
vn -0.9994 0.0294 -0.0203
vn -0.0000 -0.7869 0.6171
vn -0.0000 0.7869 -0.6171
vn -0.3166 0.5711 0.7574
vn -0.3174 0.5511 0.7717
vn -0.3382 0.6236 0.7048
vn -0.3384 0.6234 0.7049
vn 0.9999 0.0090 0.0073
vn 0.9996 0.0108 -0.0247
vn 0.9994 0.0293 -0.0202
vn 0.9994 0.0294 -0.0202
vn -0.3036 -0.6178 -0.7254
vn -0.3271 -0.6026 -0.7280
vn -0.3380 -0.5158 -0.7872
vn -0.3381 -0.5159 -0.7871
vn 1.0000 -0.0085 -0.0008
vn 1.0000 -0.0080 0.0009
vn -0.2918 -0.6955 -0.6566
vn -0.2916 -0.6960 -0.6561
vn -1.0000 -0.0081 0.0006
vn -1.0000 -0.0085 -0.0006
vn -0.2922 0.4963 0.8175
vn -0.2919 0.4958 0.8179
vn -0.9998 0.0161 -0.0083
vn -0.9997 0.0098 0.0235
vn -0.9994 0.0287 0.0213
vn -0.9994 0.0288 0.0211
vn -0.0000 -0.8402 -0.5423
vn -0.0000 0.8402 0.5423
vn -0.3166 -0.5295 0.7871
vn -0.3175 -0.5494 0.7729
vn -0.3382 -0.4626 0.8195
vn -0.3384 -0.4627 0.8194
vn 0.9999 -0.0039 0.0108
vn 0.9996 0.0269 0.0022
vn 0.9994 0.0286 0.0211
vn 0.9994 0.0287 0.0212
vn -0.3036 0.4839 -0.8208
vn -0.3271 0.4913 -0.8072
vn -0.3380 0.5757 -0.7445
vn -0.3381 0.5755 -0.7446
vn 1.0000 -0.0021 -0.0083
vn 1.0000 -0.0034 -0.0073
vn -0.2918 0.3936 -0.8718
vn -0.2916 0.3929 -0.8721
vn -1.0000 -0.0032 -0.0075
vn -1.0000 -0.0022 -0.0082
vn -0.2922 -0.6106 0.7360
vn -0.2919 -0.6112 0.7357
vn -0.9998 0.0132 0.0123
vn -0.9997 -0.0188 0.0172
vn -0.9994 -0.0103 0.0342
vn -0.9994 -0.0101 0.0342
vn -0.0000 0.2259 -0.9741
vn -0.0000 -0.2259 0.9741
vn -0.3166 -0.9198 -0.2319
vn -0.3175 -0.9132 -0.2555
vn -0.3382 -0.9277 -0.1580
vn -0.3384 -0.9276 -0.1581
vn 0.9999 -0.0115 -0.0000
vn 0.9996 0.0071 0.0261
vn 0.9994 -0.0102 0.0341
vn -0.3036 0.9361 0.1776
vn -0.3271 0.9259 0.1892
vn -0.3380 0.8954 0.2898
vn -0.3381 0.8954 0.2896
vn 1.0000 0.0071 -0.0048
vn 1.0000 0.0057 -0.0057
vn -0.2918 0.9535 0.0754
vn -0.2916 0.9536 0.0746
vn -1.0000 0.0059 -0.0056
vn -1.0000 0.0070 -0.0048
vn -0.2922 -0.8993 -0.3255
vn -0.2919 -0.8991 -0.3262
vn -0.9998 -0.0089 0.0158
vn -0.9997 -0.0211 -0.0143
vn -0.9994 -0.0357 -0.0020
vn -0.9994 -0.0356 -0.0018
vn -0.0000 1.0000 -0.0092
vn -0.0000 -1.0000 0.0092
vn -0.3166 0.0094 -0.9485
vn -0.3174 0.0338 -0.9477
vn -0.3382 -0.0643 -0.9389
vn -0.3384 -0.0642 -0.9388
vn 0.9999 -0.0027 -0.0112
vn 0.9996 -0.0237 0.0130
vn 0.9994 -0.0355 -0.0019
vn 0.9994 -0.0356 -0.0019
vn -0.3036 0.0472 0.9516
vn -0.3271 0.0336 0.9444
vn -0.3380 -0.0714 0.9384
vn -0.3381 -0.0712 0.9384
vn 1.0000 0.0063 0.0058
vn 1.0000 0.0069 0.0042
vn -0.2918 0.1507 0.9445
vn -0.2916 0.1515 0.9445
vn -1.0000 0.0068 0.0045
vn -1.0000 0.0063 0.0057
vn -0.2922 0.1052 -0.9506
vn -0.2919 0.1059 -0.9506
vt 0.148438 0.532632
vt 0.289514 0.970676
vt 0.290133 0.971089
vt 0.091797 0.550211
vt 0.288741 0.967842
vt 0.288741 0.967842
vt 0.288741 0.967842
vt 0.289601 0.971712
s 1
usemtl Color
f 46/1/1 2/1/2 4/1/2 48/1/1
f 10/1/3 14/1/4 16/1/4 12/1/3
f 14/1/4 18/1/5 20/1/5 16/1/4
f 18/1/5 22/1/6 24/1/6 20/1/5
f 22/1/6 26/1/7 28/1/7 24/1/6
f 26/1/7 30/1/8 32/1/8 28/1/7
f 30/1/8 34/1/9 36/1/9 32/1/8
f 34/1/9 38/1/10 40/1/10 36/1/9
f 38/1/10 42/1/11 44/1/11 40/1/10
f 42/1/11 46/1/1 48/1/1 44/1/11
f 6/1/12 10/1/3 12/1/3 8/1/12
f 19/2/13 86/2/14 154/2/15 15/2/16
f 2/1/2 6/1/12 8/1/12 4/1/2
f 2/1/17 1/1/17 5/1/18 6/1/18
f 8/1/19 50/1/19 49/1/20 4/1/20
f 6/1/18 5/1/18 9/1/21 10/1/21
f 12/1/22 51/1/22 50/1/19 8/1/19
f 10/1/21 9/1/21 13/1/23 14/1/23
f 16/1/24 52/1/24 51/1/22 12/1/22
f 14/1/23 13/1/23 17/1/25 18/1/25
f 20/1/26 53/1/26 52/1/24 16/1/24
f 18/1/25 17/1/25 21/1/27 22/1/27
f 24/1/28 54/1/28 53/1/26 20/1/26
f 22/1/27 21/1/27 25/1/29 26/1/29
f 28/1/30 55/1/30 54/1/28 24/1/28
f 26/1/29 25/1/29 29/1/31 30/1/31
f 32/1/32 56/1/32 55/1/30 28/1/30
f 30/1/31 29/1/31 33/1/33 34/1/33
f 36/1/34 57/1/34 56/1/32 32/1/32
f 34/1/33 33/1/33 37/1/35 38/1/35
f 40/1/36 58/1/36 57/1/34 36/1/34
f 38/1/35 37/1/35 41/1/37 42/1/37
f 44/1/38 59/1/38 58/1/36 40/1/36
f 42/1/37 41/1/37 45/1/39 46/1/39
f 48/1/40 60/1/40 59/1/38 44/1/38
f 46/1/39 45/1/39 1/1/17 2/1/17
f 4/1/20 49/1/20 60/1/40 48/1/40
f 1/1/41 45/1/41 41/1/41 37/1/41 33/1/41 29/1/41 25/1/41 21/1/41 17/1/41 13/1/41 9/1/41 5/1/41
f 67/1/42 55/1/42 56/1/42 68/1/42
f 64/1/42 63/1/42 62/1/42 61/1/42 72/1/42 71/1/42 70/1/42 69/1/42 68/1/42 56/1/42 57/1/42 58/1/42 59/1/42 60/1/42 49/1/42 50/1/42 51/1/42 52/1/42 53/1/42 54/1/42 55/1/42 67/1/42 66/1/42 65/1/42
f 73/3/43 61/3/43 62/3/44 74/3/44
f 74/3/44 62/3/44 63/3/45 75/3/45
f 75/3/45 63/3/45 64/3/46 76/3/46
f 76/3/46 64/3/46 65/3/47 77/3/47
f 77/3/47 65/3/47 66/3/48 78/3/48
f 78/3/48 66/3/48 67/3/49 79/3/49
f 79/3/49 67/3/49 68/3/50 80/3/50
f 80/3/50 68/3/50 69/3/51 81/3/51
f 81/3/51 69/3/51 70/3/52 82/3/52
f 82/3/52 70/3/52 71/3/53 83/3/53
f 83/3/53 71/3/53 72/3/54 84/3/54
f 84/3/54 72/3/54 61/3/43 73/3/43
f 11/4/42 75/4/42 76/4/42 15/4/42
f 7/4/42 3/4/42 47/4/42 43/4/42 39/4/42 35/4/42 31/4/42 27/4/42 23/4/42 19/4/42 15/4/42 76/4/42 77/4/42 78/4/42 79/4/42 80/4/42 81/4/42 82/4/42 83/4/42 84/4/42 73/4/42 74/4/42 75/4/42 11/4/42
f 153/5/42 85/6/42 154/6/42 86/6/42 87/6/42 88/7/42 155/6/42 156/7/42 89/7/42 90/6/42 91/7/42 152/6/42
f 47/2/55 91/2/56 90/2/57 43/2/58
f 7/2/59 153/2/60 152/2/61 3/2/62
f 35/2/63 156/2/64 155/2/65 31/2/66
f 23/2/67 87/2/68 86/2/14 19/2/13
f 3/2/62 152/2/61 91/2/56 47/2/55
f 11/2/69 85/2/70 153/2/60 7/2/59
f 39/2/71 89/2/72 156/2/64 35/2/63
f 27/2/73 88/2/74 87/2/68 23/2/67
f 15/2/16 154/2/15 85/2/70 11/2/69
f 43/2/58 90/2/57 89/2/72 39/2/71
f 31/2/66 155/2/65 88/2/74 27/2/73
f 102/8/75 100/8/76 95/8/77 93/8/78
f 94/8/79 92/8/79 96/8/79 98/8/79
f 99/8/80 97/8/80 93/8/80 95/8/80
f 100/8/81 101/8/82 99/8/83 95/8/84
f 101/8/85 103/8/86 97/8/87 99/8/87
f 103/8/88 102/8/89 93/8/90 97/8/91
f 98/8/92 96/8/93 103/8/86 101/8/85
f 96/8/94 92/8/95 102/8/89 103/8/88
f 92/8/96 94/8/97 100/8/76 102/8/75
f 94/8/98 98/8/99 101/8/82 100/8/81
f 114/8/100 112/8/101 107/8/102 105/8/103
f 106/8/104 104/8/104 108/8/104 110/8/104
f 111/8/105 109/8/105 105/8/105 107/8/105
f 112/8/106 113/8/107 111/8/108 107/8/109
f 113/8/110 115/8/111 109/8/112 111/8/113
f 115/8/114 114/8/115 105/8/116 109/8/117
f 110/8/118 108/8/119 115/8/111 113/8/110
f 108/8/120 104/8/121 114/8/115 115/8/114
f 104/8/122 106/8/123 112/8/101 114/8/100
f 106/8/124 110/8/125 113/8/107 112/8/106
f 126/8/126 124/8/127 119/8/128 117/8/129
f 118/8/130 116/8/130 120/8/130 122/8/130
f 123/8/131 121/8/131 117/8/131 119/8/131
f 124/8/132 125/8/133 123/8/134 119/8/135
f 125/8/136 127/8/137 121/8/138 123/8/139
f 127/8/140 126/8/141 117/8/142 121/8/143
f 122/8/144 120/8/145 127/8/137 125/8/136
f 120/8/146 116/8/147 126/8/141 127/8/140
f 116/8/148 118/8/149 124/8/127 126/8/126
f 118/8/150 122/8/151 125/8/133 124/8/132
f 138/8/152 136/8/153 131/8/154 129/8/155
f 130/8/156 128/8/156 132/8/156 134/8/156
f 135/8/157 133/8/157 129/8/157 131/8/157
f 136/8/158 137/8/159 135/8/160 131/8/161
f 137/8/162 139/8/163 133/8/164 135/8/164
f 139/8/165 138/8/166 129/8/167 133/8/168
f 134/8/169 132/8/170 139/8/163 137/8/162
f 132/8/171 128/8/172 138/8/166 139/8/165
f 128/8/173 130/8/174 136/8/153 138/8/152
f 130/8/175 134/8/176 137/8/159 136/8/158
f 150/8/177 148/8/178 143/8/179 141/8/180
f 142/8/181 140/8/181 144/8/181 146/8/181
f 147/8/182 145/8/182 141/8/182 143/8/182
f 148/8/183 149/8/184 147/8/185 143/8/186
f 149/8/187 151/8/188 145/8/189 147/8/190
f 151/8/191 150/8/192 141/8/193 145/8/194
f 146/8/195 144/8/196 151/8/188 149/8/187
f 144/8/197 140/8/198 150/8/192 151/8/191
f 140/8/199 142/8/200 148/8/178 150/8/177
f 142/8/201 146/8/202 149/8/184 148/8/183
