# Blender 5.2.2 LTS
# www.blender.org
mtllib front_wheels.mtl
o front_wheels_misc
g front_wheels_misc
v -0.077798 -0.001329 -0.100478
v -0.077798 -0.051233 -0.087106
v -0.077798 -0.087765 -0.050574
v -0.077798 -0.101136 -0.000670
v -0.077798 -0.087765 0.049233
v -0.077798 -0.051233 0.085765
v -0.077798 -0.001329 0.099137
v -0.077798 0.048574 0.085765
v -0.077798 0.085106 0.049233
v -0.077798 0.098478 -0.000670
v -0.077798 0.085106 -0.050574
v -0.077798 0.048574 -0.087106
v -0.142622 0.000472 -0.267904
v -0.142622 -0.133386 -0.232037
v -0.142622 -0.231377 -0.134046
v -0.142622 -0.267244 -0.000188
v -0.142622 -0.231377 0.133670
v -0.142622 -0.133386 0.231661
v -0.142622 0.000472 0.267528
v -0.142622 0.134330 0.231661
v -0.142622 0.232321 0.133670
v -0.142622 0.268188 -0.000188
v -0.142622 0.232321 -0.134046
v -0.142622 0.134330 -0.232037
v -0.077798 0.000472 -0.215068
v -0.077798 -0.106968 -0.186279
v -0.077798 -0.185619 -0.107628
v -0.077798 -0.214408 -0.000188
v -0.077798 -0.185619 0.107252
v -0.077798 -0.106968 0.185904
v -0.077798 0.000472 0.214692
v -0.077798 0.107912 0.185904
v -0.077798 0.186564 0.107252
v -0.077798 0.215352 -0.000188
v -0.077798 0.186564 -0.107628
v -0.077798 0.107912 -0.186280
v -0.142620 -0.063242 -0.036973
v -0.142620 -0.063242 0.036597
v -0.142620 -0.036313 0.063526
v -0.142620 0.000472 0.073383
v -0.142620 0.074043 -0.000188
v -0.142620 0.064186 -0.036973
v -0.142620 0.037257 -0.063902
v -0.124133 0.045213 0.253722
v -0.120049 -0.019711 0.012812
v -0.124133 0.087081 0.242439
v -0.120049 0.022157 0.001529
v -0.095239 0.038427 0.255551
v -0.099315 -0.026496 0.014640
v -0.095239 0.093867 0.240610
v -0.099315 0.028943 -0.000300
v -0.123327 0.074178 0.155999
v -0.096043 0.084104 0.153324
v -0.123327 0.012933 0.172504
v -0.096043 0.003007 0.175179
v -0.124133 -0.215713 0.140297
v -0.120049 -0.019386 -0.013679
v -0.124133 -0.188954 0.174417
v -0.120049 0.007373 0.020441
v -0.095239 -0.220050 0.134767
v -0.099315 -0.023723 -0.019209
v -0.095239 -0.184617 0.179947
v -0.099315 0.011711 0.025971
v -0.123327 -0.114446 0.128734
v -0.096043 -0.108102 0.136823
v -0.123327 -0.153590 0.078823
v -0.096043 -0.159935 0.070734
v -0.124133 -0.202899 -0.158657
v -0.120049 0.006740 -0.023363
v -0.124133 -0.226412 -0.122224
v -0.120049 -0.016773 0.013070
v -0.095239 -0.199088 -0.164562
v -0.099315 0.010550 -0.029268
v -0.095239 -0.230223 -0.116319
v -0.099315 -0.020584 0.018975
v -0.123327 -0.158905 -0.066715
v -0.096043 -0.164480 -0.058078
v -0.123327 -0.124511 -0.120010
v -0.096043 -0.118936 -0.128648
v -0.124133 0.080770 -0.245187
v -0.120049 0.024400 -0.002133
v -0.124133 0.038530 -0.254984
v -0.120049 -0.017840 -0.011929
v -0.095239 0.087616 -0.243599
v -0.099315 0.031246 -0.000545
v -0.095239 0.031683 -0.256571
v -0.099315 -0.024686 -0.013517
v -0.123327 0.009140 -0.172676
v -0.096043 -0.000874 -0.174998
v -0.123327 0.070930 -0.158345
v -0.096043 0.080944 -0.156023
v -0.124133 0.257477 0.020321
v -0.120049 0.007982 0.022614
v -0.124133 0.257079 -0.023039
v -0.120049 0.007584 -0.020746
v -0.095239 0.257542 0.027349
v -0.099315 0.008047 0.029642
v -0.095239 0.257014 -0.030066
v -0.099315 0.007519 -0.027774
v -0.123327 0.170171 -0.032274
v -0.096043 0.170076 -0.042554
v -0.123327 0.170753 0.031153
v -0.096043 0.170848 0.041433
v -0.142620 0.000472 -0.073759
v -0.142620 -0.036313 -0.063902
v -0.142620 -0.073099 -0.000188
v -0.142620 0.037257 0.063526
v -0.142620 0.064186 0.036597
vn -0.3913 -0.7983 0.4579
vn -0.3912 -0.7955 0.4629
vn -0.3970 -0.9178 0.0011
vn -0.3970 -0.9178 -0.0009
vn -0.6318 -0.0000 0.7751
vn -0.6318 0.3876 0.6713
vn -0.6318 0.6713 0.3876
vn -0.6318 0.7751 -0.0000
vn -0.6318 0.6713 -0.3876
vn -0.6318 0.3876 -0.6713
vn -0.6318 -0.0000 -0.7751
vn -0.6318 -0.3876 -0.6713
vn -0.6318 -0.6713 -0.3876
vn -0.6318 -0.7751 -0.0000
vn -0.6318 -0.6713 0.3876
vn -0.6318 -0.3876 0.6713
vn -1.0000 -0.0000 -0.0000
vn -0.3693 0.4615 -0.8066
vn -0.3691 0.4685 -0.8027
vn -0.3587 0.8100 -0.4639
vn -0.3589 0.8070 -0.4690
vn -0.3913 -0.4624 -0.7957
vn -0.3912 -0.4574 -0.7986
vn -0.3810 0.0043 -0.9246
vn -0.3812 -0.0036 -0.9245
vn -0.3527 0.8099 0.4687
vn -0.3527 0.8109 0.4668
vn -0.3588 0.4695 0.8068
vn -0.3589 0.4644 0.8097
vn -0.3812 -0.4654 0.7988
vn -0.3810 -0.4586 0.8029
vn -0.3970 -0.7953 -0.4581
vn -0.3970 -0.7943 -0.4599
vn -0.3527 0.9357 -0.0010
vn -0.3527 0.9357 0.0012
vn -0.3693 -0.0036 0.9293
vn -0.3691 0.0043 0.9294
vn -0.9998 -0.0175 -0.0046
vn -0.9997 0.0085 -0.0240
vn -0.9994 -0.0070 -0.0350
vn -0.9994 -0.0072 -0.0350
vn -0.0000 0.2602 0.9656
vn -0.0000 -0.2602 -0.9656
vn -0.3166 0.9204 -0.2293
vn -0.3175 0.9258 -0.2054
vn -0.3383 0.8926 -0.2982
vn -0.3384 0.8926 -0.2980
vn 0.9999 0.0102 -0.0054
vn 0.9996 -0.0185 -0.0196
vn 0.9994 -0.0071 -0.0349
vn -0.3036 -0.9092 0.2849
vn -0.3271 -0.9056 0.2699
vn -0.3380 -0.9262 0.1668
vn -0.3381 -0.9262 0.1669
vn 1.0000 -0.0041 0.0076
vn 1.0000 -0.0023 0.0077
vn -0.2918 -0.8763 0.3833
vn -0.2916 -0.8761 0.3840
vn -1.0000 -0.0026 0.0077
vn -1.0000 -0.0039 0.0076
vn -0.2922 0.9465 -0.1371
vn -0.2921 0.9466 -0.1364
vn -0.9998 -0.0026 -0.0179
vn -0.9997 0.0254 -0.0016
vn -0.9994 0.0295 -0.0201
vn -0.9994 0.0294 -0.0203
vn -0.0000 -0.7869 0.6171
vn -0.0000 0.7869 -0.6171
vn -0.3166 0.5711 0.7574
vn -0.3174 0.5511 0.7717
vn -0.3382 0.6236 0.7048
vn -0.3384 0.6234 0.7049
vn 0.9999 0.0090 0.0073
vn 0.9996 0.0108 -0.0247
vn 0.9994 0.0293 -0.0202
vn 0.9994 0.0294 -0.0202
vn -0.3036 -0.6178 -0.7254
vn -0.3271 -0.6026 -0.7280
vn -0.3380 -0.5158 -0.7872
vn -0.3381 -0.5159 -0.7871
vn 1.0000 -0.0085 -0.0008
vn 1.0000 -0.0080 0.0009
vn -0.2918 -0.6955 -0.6566
vn -0.2916 -0.6960 -0.6561
vn -1.0000 -0.0081 0.0006
vn -1.0000 -0.0085 -0.0006
vn -0.2922 0.4963 0.8175
vn -0.2921 0.4958 0.8179
vn -0.9998 0.0161 -0.0083
vn -0.9997 0.0098 0.0235
vn -0.9994 0.0287 0.0213
vn -0.9994 0.0288 0.0211
vn -0.0000 -0.8402 -0.5423
vn -0.0000 0.8402 0.5422
vn -0.3166 -0.5295 0.7871
vn -0.3175 -0.5494 0.7729
vn -0.3382 -0.4626 0.8195
vn -0.3385 -0.4626 0.8194
vn 0.9999 -0.0039 0.0108
vn 0.9996 0.0269 0.0022
vn 0.9994 0.0286 0.0211
vn 0.9994 0.0287 0.0212
vn -0.3036 0.4839 -0.8208
vn -0.3271 0.4913 -0.8072
vn -0.3380 0.5757 -0.7445
vn -0.3381 0.5755 -0.7446
vn 1.0000 -0.0021 -0.0083
vn 1.0000 -0.0034 -0.0073
vn -0.2918 0.3936 -0.8718
vn -0.2916 0.3929 -0.8721
vn -1.0000 -0.0032 -0.0075
vn -1.0000 -0.0022 -0.0082
vn -0.2922 -0.6106 0.7360
vn -0.2921 -0.6112 0.7357
vn -0.9998 0.0132 0.0123
vn -0.9997 -0.0188 0.0172
vn -0.9994 -0.0103 0.0342
vn -0.9994 -0.0101 0.0342
vn -0.0000 0.2259 -0.9741
vn -0.0000 -0.2259 0.9741
vn -0.3166 -0.9198 -0.2319
vn -0.3175 -0.9132 -0.2555
vn -0.3382 -0.9277 -0.1580
vn -0.3385 -0.9276 -0.1581
vn 0.9999 -0.0115 -0.0000
vn 0.9996 0.0071 0.0261
vn 0.9994 -0.0102 0.0341
vn -0.3036 0.9361 0.1776
vn -0.3271 0.9259 0.1892
vn -0.3380 0.8954 0.2898
vn -0.3381 0.8954 0.2896
vn 1.0000 0.0071 -0.0048
vn 1.0000 0.0057 -0.0057
vn -0.2918 0.9535 0.0754
vn -0.2916 0.9536 0.0746
vn -1.0000 0.0059 -0.0056
vn -1.0000 0.0070 -0.0048
vn -0.2922 -0.8993 -0.3255
vn -0.2921 -0.8991 -0.3262
vn -0.9998 -0.0089 0.0158
vn -0.9997 -0.0211 -0.0143
vn -0.9994 -0.0357 -0.0020
vn -0.9994 -0.0356 -0.0018
vn -0.0000 1.0000 -0.0092
vn -0.0000 -1.0000 0.0092
vn -0.3166 0.0094 -0.9485
vn -0.3174 0.0338 -0.9477
vn -0.3382 -0.0643 -0.9389
vn -0.3384 -0.0642 -0.9388
vn 0.9999 -0.0027 -0.0112
vn 0.9996 -0.0237 0.0130
vn 0.9994 -0.0355 -0.0019
vn 0.9994 -0.0356 -0.0019
vn -0.3036 0.0472 0.9516
vn -0.3271 0.0336 0.9444
vn -0.3380 -0.0714 0.9384
vn -0.3381 -0.0712 0.9384
vn 1.0000 0.0063 0.0058
vn 1.0000 0.0069 0.0042
vn -0.2918 0.1507 0.9445
vn -0.2916 0.1515 0.9445
vn -1.0000 0.0068 0.0045
vn -1.0000 0.0063 0.0057
vn -0.2922 0.1052 -0.9506
vn -0.2921 0.1059 -0.9505
vt 0.289514 0.970676
vt 0.290133 0.971089
vt 0.288741 0.967842
vt 0.289601 0.971712
s 1
usemtl Color.001
f 5/1/1 38/1/2 106/1/3 4/1/4
f 25/2/5 13/2/5 14/2/6 26/2/6
f 26/2/6 14/2/6 15/2/7 27/2/7
f 27/2/7 15/2/7 16/2/8 28/2/8
f 28/2/8 16/2/8 17/2/9 29/2/9
f 29/2/9 17/2/9 18/2/10 30/2/10
f 30/2/10 18/2/10 19/2/11 31/2/11
f 31/2/11 19/2/11 20/2/12 32/2/12
f 32/2/12 20/2/12 21/2/13 33/2/13
f 33/2/13 21/2/13 22/2/14 34/2/14
f 34/2/14 22/2/14 23/2/15 35/2/15
f 35/2/15 23/2/15 24/2/16 36/2/16
f 36/2/16 24/2/16 13/2/5 25/2/5
f 105/3/17 37/3/17 106/3/17 38/3/17 39/3/17 40/3/17 107/3/17 108/3/17 41/3/17 42/3/17 43/3/17 104/3/17
f 12/1/18 43/1/19 42/1/20 11/1/21
f 2/1/22 105/1/23 104/1/24 1/1/25
f 9/1/26 108/1/27 107/1/28 8/1/29
f 6/1/30 39/1/31 38/1/2 5/1/1
f 1/1/25 104/1/24 43/1/19 12/1/18
f 3/1/32 37/1/33 105/1/23 2/1/22
f 10/1/34 41/1/35 108/1/27 9/1/26
f 7/1/36 40/1/37 39/1/31 6/1/30
f 4/1/4 106/1/3 37/1/33 3/1/32
f 11/1/21 42/1/20 41/1/35 10/1/34
f 8/1/29 107/1/28 40/1/37 7/1/36
f 54/4/38 52/4/39 47/4/40 45/4/41
f 46/4/42 44/4/42 48/4/42 50/4/42
f 51/4/43 49/4/43 45/4/43 47/4/43
f 52/4/44 53/4/45 51/4/46 47/4/47
f 53/4/48 55/4/49 49/4/50 51/4/50
f 55/4/51 54/4/52 45/4/53 49/4/54
f 50/4/55 48/4/56 55/4/49 53/4/48
f 48/4/57 44/4/58 54/4/52 55/4/51
f 44/4/59 46/4/60 52/4/39 54/4/38
f 46/4/61 50/4/62 53/4/45 52/4/44
f 66/4/63 64/4/64 59/4/65 57/4/66
f 58/4/67 56/4/67 60/4/67 62/4/67
f 63/4/68 61/4/68 57/4/68 59/4/68
f 64/4/69 65/4/70 63/4/71 59/4/72
f 65/4/73 67/4/74 61/4/75 63/4/76
f 67/4/77 66/4/78 57/4/79 61/4/80
f 62/4/81 60/4/82 67/4/74 65/4/73
f 60/4/83 56/4/84 66/4/78 67/4/77
f 56/4/85 58/4/86 64/4/64 66/4/63
f 58/4/87 62/4/88 65/4/70 64/4/69
f 78/4/89 76/4/90 71/4/91 69/4/92
f 70/4/93 68/4/93 72/4/93 74/4/93
f 75/4/94 73/4/94 69/4/94 71/4/94
f 76/4/95 77/4/96 75/4/97 71/4/98
f 77/4/99 79/4/100 73/4/101 75/4/102
f 79/4/103 78/4/104 69/4/105 73/4/106
f 74/4/107 72/4/108 79/4/100 77/4/99
f 72/4/109 68/4/110 78/4/104 79/4/103
f 68/4/111 70/4/112 76/4/90 78/4/89
f 70/4/113 74/4/114 77/4/96 76/4/95
f 90/4/115 88/4/116 83/4/117 81/4/118
f 82/4/119 80/4/119 84/4/119 86/4/119
f 87/4/120 85/4/120 81/4/120 83/4/120
f 88/4/121 89/4/122 87/4/123 83/4/124
f 89/4/125 91/4/126 85/4/127 87/4/127
f 91/4/128 90/4/129 81/4/130 85/4/131
f 86/4/132 84/4/133 91/4/126 89/4/125
f 84/4/134 80/4/135 90/4/129 91/4/128
f 80/4/136 82/4/137 88/4/116 90/4/115
f 82/4/138 86/4/139 89/4/122 88/4/121
f 102/4/140 100/4/141 95/4/142 93/4/143
f 94/4/144 92/4/144 96/4/144 98/4/144
f 99/4/145 97/4/145 93/4/145 95/4/145
f 100/4/146 101/4/147 99/4/148 95/4/149
f 101/4/150 103/4/151 97/4/152 99/4/153
f 103/4/154 102/4/155 93/4/156 97/4/157
f 98/4/158 96/4/159 103/4/151 101/4/150
f 96/4/160 92/4/161 102/4/155 103/4/154
f 92/4/162 94/4/163 100/4/141 102/4/140
f 94/4/164 98/4/165 101/4/147 100/4/146
o front_wheels
g front_wheels
v 0.171705 0.000472 -0.365303
v 0.146173 0.000472 -0.391736
v -0.077798 -0.001329 -0.100478
v -0.117089 0.000472 -0.391736
v 0.171705 -0.182086 -0.316387
v 0.146173 -0.195302 -0.339279
v -0.077798 -0.051233 -0.087106
v -0.117089 -0.195302 -0.339279
v 0.171705 -0.315727 -0.182745
v 0.146173 -0.338619 -0.195962
v -0.077798 -0.087765 -0.050574
v -0.117089 -0.338619 -0.195962
v 0.171705 -0.364643 -0.000188
v 0.146173 -0.391076 -0.000188
v -0.077798 -0.101136 -0.000670
v -0.117089 -0.391076 -0.000188
v 0.171705 -0.315727 0.182370
v 0.146173 -0.338619 0.195586
v -0.077798 -0.087765 0.049233
v -0.117089 -0.338619 0.195586
v 0.171705 -0.182086 0.316011
v 0.146173 -0.195302 0.338903
v -0.077798 -0.051233 0.085765
v -0.117089 -0.195302 0.338903
v 0.171705 0.000472 0.364927
v 0.146173 0.000472 0.391361
v -0.077798 -0.001329 0.099137
v -0.117089 0.000472 0.391361
v 0.171705 0.183030 0.316011
v 0.146173 0.196246 0.338903
v -0.077798 0.048574 0.085765
v -0.117089 0.196246 0.338903
v 0.171705 0.316671 0.182370
v 0.146173 0.339563 0.195586
v -0.077798 0.085106 0.049233
v -0.117089 0.339563 0.195586
v 0.171705 0.365587 -0.000188
v 0.146173 0.392020 -0.000188
v -0.077798 0.098478 -0.000670
v -0.117089 0.392021 -0.000188
v 0.171705 0.316671 -0.182745
v 0.146173 0.339563 -0.195962
v -0.077798 0.085106 -0.050574
v -0.117089 0.339563 -0.195962
v 0.171705 0.183030 -0.316387
v 0.146173 0.196246 -0.339279
v -0.077798 0.048574 -0.087106
v -0.117089 0.196246 -0.339279
v -0.142622 0.000472 -0.365303
v -0.142622 -0.182085 -0.316387
v -0.142622 -0.315727 -0.182745
v -0.142622 -0.364643 -0.000188
v -0.142622 -0.315727 0.182370
v -0.142622 -0.182085 0.316011
v -0.142622 0.000472 0.364927
v -0.142622 0.183030 0.316011
v -0.142622 0.316671 0.182370
v -0.142622 0.365587 -0.000188
v -0.142622 0.316671 -0.182745
v -0.142622 0.183030 -0.316387
v -0.142622 0.000472 -0.267904
v -0.142622 -0.133386 -0.232037
v -0.142622 -0.231377 -0.134046
v -0.142622 -0.267244 -0.000188
v -0.142622 -0.231377 0.133670
v -0.142622 -0.133386 0.231661
v -0.142622 0.000472 0.267528
v -0.142622 0.134330 0.231661
v -0.142622 0.232321 0.133670
v -0.142622 0.268188 -0.000188
v -0.142622 0.232321 -0.134046
v -0.142622 0.134330 -0.232037
v -0.077798 0.000472 -0.215068
v -0.077798 -0.106968 -0.186279
v -0.077798 -0.185619 -0.107628
v -0.077798 -0.214408 -0.000188
v -0.077798 -0.185619 0.107252
v -0.077798 -0.106968 0.185904
v -0.077798 0.000472 0.214692
v -0.077798 0.107912 0.185904
v -0.077798 0.186564 0.107252
v -0.077798 0.215352 -0.000188
v -0.077798 0.186564 -0.107628
v -0.077798 0.107912 -0.186280
vn -0.0000 0.5000 -0.8660
vn -0.0000 -0.0000 -1.0000
vn -0.0000 -0.8660 -0.5000
vn -0.0000 -1.0000 -0.0000
vn -0.0000 -0.8660 0.5000
vn -0.0000 -0.5000 0.8660
vn -0.0000 -0.0000 1.0000
vn -0.0000 0.5000 0.8660
vn -0.0000 0.8660 0.5000
vn -0.0000 1.0000 -0.0000
vn -0.0000 0.8660 -0.5000
vn -0.0000 -0.5000 -0.8660
vn 0.7193 -0.0000 -0.6947
vn 0.7193 -0.3474 -0.6017
vn -0.7193 -0.3474 -0.6017
vn -0.7192 -0.0000 -0.6948
vn 0.7193 -0.6017 -0.3474
vn -0.7193 -0.6017 -0.3474
vn 0.7193 -0.6947 -0.0000
vn -0.7192 -0.6948 -0.0000
vn 0.7193 -0.6017 0.3474
vn -0.7192 -0.6017 0.3474
vn 0.7193 -0.3474 0.6017
vn -0.7193 -0.3474 0.6017
vn 0.7193 -0.0000 0.6947
vn -0.7193 -0.0000 0.6947
vn 0.7193 0.3474 0.6017
vn -0.7192 0.3474 0.6017
vn 0.7193 0.6017 0.3474
vn -0.7192 0.6017 0.3474
vn 0.7193 0.6947 -0.0000
vn -0.7193 0.6947 -0.0000
vn 0.7193 0.6017 -0.3474
vn -0.7193 0.6017 -0.3474
vn 0.7193 0.3474 -0.6017
vn -0.7192 0.3474 -0.6017
vn 1.0000 -0.0000 -0.0000
vn -1.0000 -0.0000 -0.0000
vt 0.148438 0.532632
vt 0.091797 0.550211
s 1
usemtl Color.001
f 154/5/166 110/5/167 112/5/167 156/5/166
f 118/5/168 122/5/169 124/5/169 120/5/168
f 122/5/169 126/5/170 128/5/170 124/5/169
f 126/5/170 130/5/171 132/5/171 128/5/170
f 130/5/171 134/5/172 136/5/172 132/5/171
f 134/5/172 138/5/173 140/5/173 136/5/172
f 138/5/173 142/5/174 144/5/174 140/5/173
f 142/5/174 146/5/175 148/5/175 144/5/174
f 146/5/175 150/5/176 152/5/176 148/5/175
f 150/5/176 154/5/166 156/5/166 152/5/176
f 114/5/177 118/5/168 120/5/168 116/5/177
f 110/5/167 114/5/177 116/5/177 112/5/167
f 110/5/178 109/5/178 113/5/179 114/5/179
f 116/5/180 158/5/180 157/5/181 112/5/181
f 114/5/179 113/5/179 117/5/182 118/5/182
f 120/5/183 159/5/183 158/5/180 116/5/180
f 118/5/182 117/5/182 121/5/184 122/5/184
f 124/5/185 160/5/185 159/5/183 120/5/183
f 122/5/184 121/5/184 125/5/186 126/5/186
f 128/5/187 161/5/187 160/5/185 124/5/185
f 126/5/186 125/5/186 129/5/188 130/5/188
f 132/5/189 162/5/189 161/5/187 128/5/187
f 130/5/188 129/5/188 133/5/190 134/5/190
f 136/5/191 163/5/191 162/5/189 132/5/189
f 134/5/190 133/5/190 137/5/192 138/5/192
f 140/5/193 164/5/193 163/5/191 136/5/191
f 138/5/192 137/5/192 141/5/194 142/5/194
f 144/5/195 165/5/195 164/5/193 140/5/193
f 142/5/194 141/5/194 145/5/196 146/5/196
f 148/5/197 166/5/197 165/5/195 144/5/195
f 146/5/196 145/5/196 149/5/198 150/5/198
f 152/5/199 167/5/199 166/5/197 148/5/197
f 150/5/198 149/5/198 153/5/200 154/5/200
f 156/5/201 168/5/201 167/5/199 152/5/199
f 154/5/200 153/5/200 109/5/178 110/5/178
f 112/5/181 157/5/181 168/5/201 156/5/201
f 109/5/202 153/5/202 149/5/202 145/5/202 141/5/202 137/5/202 133/5/202 129/5/202 125/5/202 121/5/202 117/5/202 113/5/202
f 175/5/203 163/5/203 164/5/203 176/5/203
f 172/5/203 171/5/203 170/5/203 169/5/203 180/5/203 179/5/203 178/5/203 177/5/203 176/5/203 164/5/203 165/5/203 166/5/203 167/5/203 168/5/203 157/5/203 158/5/203 159/5/203 160/5/203 161/5/203 162/5/203 163/5/203 175/5/203 174/5/203 173/5/203
f 119/6/203 183/6/203 184/6/203 123/6/203
f 115/6/203 111/6/203 155/6/203 151/6/203 147/6/203 143/6/203 139/6/203 135/6/203 131/6/203 127/6/203 123/6/203 184/6/203 185/6/203 186/6/203 187/6/203 188/6/203 189/6/203 190/6/203 191/6/203 192/6/203 181/6/203 182/6/203 183/6/203 119/6/203
