# Blender 5.2.2 LTS
# www.blender.org
mtllib front_wheels.mtl
o front_wheels
g front_wheels
v -0.005413 -0.005654 -0.028681
v -0.005413 0.000051 -0.029243
v -0.005413 -0.011140 -0.027017
v -0.005413 -0.016196 -0.024315
v -0.005413 -0.020627 -0.020678
v -0.005413 -0.024264 -0.016247
v -0.005413 -0.026966 -0.011191
v -0.005413 -0.028630 -0.005705
v -0.005413 -0.029192 0.000000
v -0.005413 -0.028630 0.005705
v -0.005413 -0.026966 0.011191
v -0.005413 -0.024264 0.016247
v -0.005413 -0.020627 0.020678
v -0.005413 -0.016196 0.024315
v -0.005413 -0.011140 0.027017
v -0.005413 -0.005653 0.028682
v -0.005413 0.000051 0.029243
v -0.005413 0.005756 0.028681
v -0.005413 0.011242 0.027017
v -0.005413 0.016298 0.024315
v -0.005413 0.020729 0.020678
v -0.005413 0.024366 0.016247
v -0.005413 0.027069 0.011191
v -0.005413 0.028733 0.005705
v -0.005413 0.029295 -0.000000
v -0.005413 0.028733 -0.005705
v -0.005413 0.027068 -0.011191
v -0.005413 0.024366 -0.016247
v -0.005413 0.020729 -0.020678
v -0.005413 0.016298 -0.024315
v -0.005413 0.011242 -0.027017
v -0.005413 0.005756 -0.028682
v 0.047643 -0.005654 -0.028681
v 0.047643 0.000051 -0.029243
v 0.047643 -0.011140 -0.027017
v 0.047643 -0.016196 -0.024315
v 0.047643 -0.020627 -0.020678
v 0.047643 -0.024264 -0.016247
v 0.047643 -0.026966 -0.011191
v 0.047643 -0.028630 -0.005705
v 0.047643 -0.029192 0.000000
v 0.047643 -0.028630 0.005705
v 0.047643 -0.026966 0.011191
v 0.047643 -0.024264 0.016247
v 0.047643 -0.020627 0.020678
v 0.047643 -0.016196 0.024315
v 0.047643 -0.011140 0.027017
v 0.047643 -0.005653 0.028682
v 0.047643 0.000051 0.029243
v 0.047643 0.005756 0.028681
v 0.047643 0.011242 0.027017
v 0.047643 0.016298 0.024315
v 0.047643 0.020729 0.020678
v 0.047643 0.024366 0.016247
v 0.047643 0.027069 0.011191
v 0.047643 0.028733 0.005705
v 0.047643 0.029295 -0.000000
v 0.047643 0.028733 -0.005705
v 0.047643 0.027068 -0.011191
v 0.047643 0.024366 -0.016247
v 0.047643 0.020729 -0.020678
v 0.047643 0.016298 -0.024315
v 0.047643 0.011242 -0.027017
v 0.047643 0.005756 -0.028682
v 0.054273 -0.004128 -0.021012
v 0.054273 0.000051 -0.021424
v 0.054273 -0.008147 -0.019793
v 0.054273 -0.011851 -0.017813
v 0.054273 -0.015098 -0.015149
v 0.054273 -0.017762 -0.011903
v 0.054273 -0.019742 -0.008199
v 0.054273 -0.020961 -0.004179
v 0.054273 -0.021373 0.000000
v 0.054273 -0.020961 0.004179
v 0.054273 -0.019742 0.008199
v 0.054273 -0.017762 0.011903
v 0.054273 -0.015098 0.015149
v 0.054273 -0.011851 0.017813
v 0.054273 -0.008147 0.019793
v 0.054273 -0.004128 0.021012
v 0.054273 0.000051 0.021424
v 0.054273 0.004231 0.021012
v 0.054273 0.008250 0.019793
v 0.054273 0.011954 0.017813
v 0.054273 0.015200 0.015149
v 0.054273 0.017864 0.011903
v 0.054273 0.019844 0.008199
v 0.054273 0.021064 0.004179
v 0.054273 0.021475 -0.000000
v 0.054273 0.021064 -0.004179
v 0.054273 0.019844 -0.008199
v 0.054273 0.017865 -0.011903
v 0.054273 0.015200 -0.015149
v 0.054273 0.011954 -0.017813
v 0.054273 0.008250 -0.019793
v 0.054273 0.004231 -0.021012
v 0.024523 0.000051 -0.029243
v 0.024523 -0.005654 -0.028681
v 0.024523 0.024366 -0.016247
v 0.024523 0.020729 -0.020678
v 0.024523 -0.011140 0.027017
v 0.024523 -0.005653 0.028682
v 0.024523 -0.011140 -0.027017
v 0.024523 0.016298 -0.024315
v 0.024523 0.000051 0.029243
v 0.024523 -0.016196 -0.024315
v 0.024523 0.011242 -0.027017
v 0.024523 0.005756 0.028681
v 0.024523 -0.020627 -0.020678
v 0.024523 0.005756 -0.028682
v 0.024523 0.011242 0.027017
v 0.024523 -0.024264 -0.016247
v 0.020674 0.016298 0.024315
v 0.024523 -0.026966 -0.011191
v 0.020674 0.020729 0.020678
v 0.024523 -0.028630 -0.005705
v 0.020674 0.024366 0.016247
v 0.024523 -0.029192 0.000000
v 0.024523 0.027069 0.011191
v 0.024523 -0.028630 0.005705
v 0.024523 0.028733 0.005705
v 0.024523 -0.026966 0.011191
v 0.024523 0.029295 -0.000000
v 0.024523 -0.024264 0.016247
v 0.024523 0.028733 -0.005705
v 0.024523 -0.020627 0.020678
v 0.024523 0.027068 -0.011191
v 0.024523 -0.016196 0.024315
v 0.052588 -0.175020 -0.084564
v 0.052588 -0.155156 -0.117096
v 0.052588 -0.188154 -0.048785
v 0.052588 -0.183539 0.063998
v 0.052588 -0.192497 0.026949
v 0.052588 -0.167525 0.098587
v 0.052588 -0.084512 0.175072
v 0.052588 -0.117045 0.155208
v 0.052588 -0.048734 0.188205
v 0.052588 0.064049 0.183590
v 0.052588 0.027000 0.192548
v 0.052588 0.098638 0.167577
v 0.052588 0.175122 0.084565
v 0.052588 0.155259 0.117097
v 0.052588 0.188256 0.048785
v 0.052588 0.183641 -0.063997
v 0.052588 0.192600 -0.026949
v 0.052588 0.167628 -0.098586
v 0.052588 0.084615 -0.175071
v 0.052588 0.117147 -0.155208
v 0.052588 0.048837 -0.188205
v 0.052588 -0.063945 -0.183590
v 0.052588 -0.026898 -0.192548
v 0.052588 -0.098534 -0.167576
v 0.033941 0.048837 -0.188205
v 0.033941 0.064049 0.183590
v 0.033941 -0.155156 -0.117096
v 0.033941 0.098638 0.167577
v 0.033941 -0.175020 -0.084564
v 0.033941 -0.026898 -0.192548
v 0.033941 -0.188154 -0.048785
v 0.033941 -0.063945 -0.183590
v 0.033941 0.155259 0.117097
v 0.033941 -0.098534 -0.167576
v 0.033941 0.175122 0.084565
v 0.033941 -0.192497 0.026949
v 0.033941 0.188256 0.048785
v 0.033941 -0.183539 0.063998
v 0.033941 -0.167525 0.098587
v 0.033941 0.192600 -0.026949
v 0.033941 0.183641 -0.063997
v 0.033941 -0.117045 0.155208
v 0.033941 0.167628 -0.098586
v 0.033941 -0.084512 0.175072
v 0.033941 -0.048734 0.188205
v 0.033941 0.117147 -0.155208
v 0.033941 0.084615 -0.175071
v 0.033941 0.027000 0.192548
v 0.050116 -0.005202 -0.108436
v 0.050116 -0.026257 -0.105327
v 0.029232 -0.005202 -0.108436
v 0.029232 -0.026257 -0.105327
v 0.029232 0.016054 -0.107377
v 0.050116 0.016054 -0.107377
v 0.029232 0.055927 -0.093080
v 0.050116 0.055927 -0.093080
v 0.050116 0.087295 -0.064611
v 0.029232 0.087295 -0.064611
v 0.050116 0.073012 -0.080391
v 0.029232 0.073012 -0.080391
v 0.029232 0.105379 -0.026309
v 0.050116 0.105379 -0.026309
v 0.050116 0.108487 -0.005253
v 0.050116 0.107429 0.016004
v 0.029232 0.108487 -0.005253
v 0.027308 0.107429 0.016004
v 0.050116 0.064662 0.087244
v 0.050116 0.080442 0.072961
v 0.050116 0.093132 0.055876
v 0.029232 0.064662 0.087244
v 0.029232 0.080442 0.072961
v 0.027308 0.093132 0.055876
v 0.050116 -0.015952 0.107378
v 0.029232 -0.015952 0.107378
v 0.029232 0.026360 0.105328
v 0.050116 0.026360 0.105328
v 0.029232 0.005305 0.108436
v 0.050116 0.005305 0.108436
v 0.029232 -0.087192 0.064611
v 0.050116 -0.087192 0.064611
v 0.029232 -0.072909 0.080391
v 0.029232 -0.055824 0.093080
v 0.050116 -0.055824 0.093080
v 0.050116 -0.072909 0.080391
v 0.050116 -0.108385 0.005254
v 0.050116 -0.107326 -0.016003
v 0.050116 -0.105276 0.026309
v 0.029232 -0.107326 -0.016003
v 0.029232 -0.105276 0.026309
v 0.029232 -0.108385 0.005254
v 0.050116 -0.093029 -0.055875
v 0.029232 -0.093029 -0.055875
v 0.050116 -0.064560 -0.087243
v 0.029232 -0.064560 -0.087243
v 0.029232 -0.080340 -0.072961
v 0.050116 -0.080340 -0.072961
vn -0.0000 -0.1641 -0.9864
vn -0.0000 -0.0001 -1.0000
vn 0.4165 -0.0000 -0.9091
vn 0.5519 -0.1370 -0.8226
vn 0.3758 -0.6696 -0.6406
vn 0.5238 -0.5224 -0.6729
vn 0.7625 -0.3370 -0.5523
vn 0.7624 -0.4370 -0.4772
vn -0.0000 0.7122 -0.7020
vn -0.0000 0.8177 -0.5756
vn 0.5083 0.7043 -0.4956
vn 0.3758 0.6696 -0.6406
vn -0.0000 0.9928 0.1195
vn -0.0000 0.9916 0.1295
vn -0.0000 0.9972 -0.0743
vn -0.0000 -0.9928 -0.1195
vn -0.0000 -0.9916 -0.1295
vn -0.0000 -0.9972 0.0743
vn -0.0000 0.5862 -0.8101
vn 0.5238 0.5224 -0.6729
vn -0.0000 0.0001 1.0000
vn -0.0000 -0.1642 0.9864
vn 0.5519 -0.1370 0.8226
vn 0.4165 -0.0000 0.9091
vn -0.9985 -0.0364 0.0419
vn -0.9985 -0.0370 0.0410
vn -0.9985 -0.0330 0.0434
vn -0.9985 -0.0289 0.0459
vn -0.0000 -0.8361 0.5486
vn -0.0000 -0.8399 0.5427
vn -0.0000 -0.6526 0.7577
vn -0.0000 0.1642 0.9864
vn 0.5519 0.1370 0.8226
vn -0.0000 -0.7122 -0.7020
vn -0.0000 -0.5862 -0.8101
vn -0.9985 -0.0145 -0.0531
vn -0.9984 -0.0041 -0.0559
vn -0.9985 -0.0159 -0.0520
vn -0.9985 -0.0177 -0.0515
vn 0.9996 0.0291 -0.0029
vn 0.9996 0.0290 -0.0054
vn 0.9996 0.0271 -0.0093
vn 0.9996 0.0279 -0.0057
vn -0.0000 -0.8177 -0.5756
vn 0.5083 -0.7043 -0.4956
vn -0.0000 0.1642 -0.9864
vn 0.5519 0.1370 -0.8226
vn -0.9932 0.0077 0.1163
vn -0.9983 0.0364 0.0447
vn -0.9985 0.0434 0.0330
vn -0.9968 0.0550 0.0580
vn -0.9984 -0.0316 0.0462
vn -0.9985 -0.0239 0.0490
vn -0.0000 0.7122 0.7020
vn -0.0000 0.5805 0.8142
vn 0.5238 0.5224 0.6729
vn 0.3758 0.6696 0.6406
vn 0.9996 0.0296 0.0008
vn 0.9996 0.0284 -0.0038
vn -0.0000 0.8241 0.5665
vn 0.5083 0.7043 0.4956
vn -0.0000 -1.0000 -0.0000
vn -0.0000 -0.9878 -0.1555
vn 0.3843 -0.9162 -0.1134
vn 0.2413 -0.9704 -0.0000
vn -0.0000 -0.5492 0.8357
vn -0.0000 -0.5446 0.8387
vn -0.0000 -0.3130 0.9498
vn -0.0000 -0.9878 0.1555
vn 0.3843 -0.9162 0.1134
vn 0.9996 -0.0224 -0.0189
vn 0.9996 -0.0252 -0.0141
vn 0.9996 -0.0257 -0.0126
vn 0.9996 -0.0250 -0.0138
vn -0.0000 -0.6142 -0.7892
vn -0.0000 -0.6098 -0.7926
vn -0.0000 -0.7577 -0.6526
vn -0.0000 1.0000 -0.0000
vn -0.0000 0.9878 0.1555
vn 0.3843 0.9162 0.1134
vn 0.2413 0.9705 -0.0000
vn 0.9995 -0.0192 -0.0235
vn 0.9996 -0.0228 -0.0174
vn -0.0000 0.9878 -0.1555
vn 0.3843 0.9162 -0.1134
vn -0.0000 -0.7122 0.7020
vn -0.0000 -0.8177 0.5756
vn 0.5083 -0.7043 0.4956
vn 0.3758 -0.6696 0.6406
vn -0.0000 -0.8765 -0.4813
vn -0.0000 -0.8801 -0.4748
vn -0.0000 -0.9498 -0.3130
vn -0.0000 -0.5862 0.8101
vn 0.5238 -0.5224 0.6729
vn 0.9996 0.0025 0.0292
vn 0.9996 0.0075 0.0279
vn 0.9996 0.0093 0.0271
vn 0.9996 0.0084 0.0273
vn -0.0000 -0.1628 0.9867
vn -0.0000 -0.1675 0.9859
vn -0.0000 0.0743 0.9972
vn 1.0000 -0.0000 -0.0000
vn 0.7625 0.2694 -0.5882
vn 0.7626 0.2277 -0.6055
vn 0.7627 0.1141 -0.6366
vn 0.7625 0.2694 0.5882
vn 0.7627 0.1141 0.6366
vn 0.7626 0.2277 0.6055
vn 0.7625 -0.5224 -0.3817
vn 0.7627 -0.0000 -0.6467
vn 0.7625 0.3370 0.5523
vn 0.7624 -0.6080 -0.2215
vn 0.7625 -0.5889 -0.2678
vn 0.7624 0.4370 0.4772
vn 0.7627 -0.6318 -0.1385
vn 0.7625 0.5224 0.3817
vn 0.7627 -0.6467 -0.0000
vn 0.7624 0.6080 0.2215
vn 0.7625 0.5889 0.2678
vn 0.7627 -0.6318 0.1385
vn 0.7627 0.6318 0.1385
vn 0.7624 -0.6080 0.2214
vn 0.7625 -0.5889 0.2678
vn 0.7627 0.6467 -0.0000
vn 0.7625 -0.5224 0.3817
vn 0.7627 0.6318 -0.1385
vn 0.7624 -0.4370 0.4772
vn 0.7624 0.6080 -0.2214
vn 0.7625 0.5889 -0.2678
vn 0.7625 -0.3370 0.5523
vn 0.7625 0.5224 -0.3817
vn 0.7625 -0.2694 0.5882
vn 0.7626 -0.2277 0.6055
vn 0.7627 -0.1141 -0.6366
vn 0.7624 0.4370 -0.4772
vn 0.7627 -0.1141 0.6366
vn 0.7625 -0.2694 -0.5882
vn 0.7626 -0.2277 -0.6055
vn 0.7625 0.3370 -0.5523
vn 0.7627 -0.0000 0.6467
vn -0.0000 -0.3858 0.9226
vn -0.0000 -0.5599 0.8286
vn -0.0000 0.8366 -0.5478
vn -0.0000 0.9279 -0.3728
vn -0.0000 0.9824 -0.1866
vn -0.0000 -0.8366 0.5478
vn -0.0000 -0.9279 0.3728
vn -0.0000 0.9824 0.1866
vn -0.0000 -0.9824 0.1866
vn -0.0000 0.9279 0.3728
vn -0.0000 0.9333 0.3592
vn -0.0000 0.8366 0.5478
vn -0.0000 -0.9824 -0.1866
vn -0.0000 -0.9279 -0.3728
vn -0.0000 0.5599 0.8286
vn -0.0000 -0.8366 -0.5478
vn -0.0000 0.3858 0.9226
vn -0.0000 0.3770 0.9262
vn -0.0000 0.1965 -0.9805
vn -0.0000 0.1966 0.9805
vn -0.0000 0.3857 -0.9226
vn -0.0000 -0.5599 -0.8286
vn -0.0000 0.5599 -0.8286
vn -0.0000 -0.3858 -0.9226
vn -0.0000 -0.1967 0.9805
vn -0.0000 -0.1966 -0.9805
vn 0.9996 -0.0297 -0.0011
vn 0.9996 -0.0291 0.0028
vn 0.9996 -0.0279 0.0057
vn 0.9996 -0.0284 0.0038
vn -0.9984 0.0552 -0.0102
vn -0.9968 0.0502 -0.0628
vn -0.9984 0.0478 -0.0317
vn -0.9985 0.0515 -0.0177
vn -0.0000 0.5492 -0.8357
vn -0.0000 0.5446 -0.8387
vn -0.0000 0.3130 -0.9498
vn -0.0000 0.8766 0.4813
vn -0.0000 0.8801 0.4748
vn -0.0000 0.9498 0.3130
vn 0.9996 -0.0290 0.0054
vn 0.9996 -0.0271 0.0093
vn 0.9996 0.0195 -0.0216
vn 0.9996 0.0189 -0.0224
vn 0.9996 0.0148 -0.0243
vn 0.9996 0.0174 -0.0228
vn -0.0000 -0.2407 -0.9706
vn -0.0000 -0.2454 -0.9694
vn -0.0000 -0.4503 -0.8929
vn -0.9984 0.0039 -0.0569
vn -0.9985 -0.0073 -0.0540
vn -0.0000 0.1628 -0.9867
vn -0.0000 0.1687 -0.9857
vn -0.0000 -0.0743 -0.9972
vn 0.9996 0.0166 -0.0243
vn 0.9996 0.0126 -0.0257
vn -0.9895 0.0462 -0.1369
vn -0.9982 0.0458 -0.0391
vn -0.9985 -0.0480 -0.0268
vn -0.9984 -0.0432 -0.0359
vn -0.9985 -0.0478 -0.0258
vn -0.9985 -0.0490 -0.0239
vn -0.0000 -0.9834 0.1815
vn -0.0000 -0.9816 0.1912
vn -0.0000 -0.8929 0.4503
vn 0.9996 -0.0195 0.0216
vn 0.9996 -0.0189 0.0224
vn 0.9996 -0.0152 0.0241
vn 0.9996 -0.0174 0.0228
vn -0.0000 0.8361 -0.5486
vn -0.0000 0.8399 -0.5427
vn -0.0000 0.6526 -0.7577
vn -0.9984 0.0042 0.0559
vn -0.9984 -0.0039 0.0569
vn -0.9985 0.0073 0.0540
vn -0.9985 0.0159 0.0520
vn 0.9996 -0.0166 0.0243
vn 0.9996 -0.0126 0.0257
vn -0.0000 0.6142 0.7892
vn -0.0000 0.6098 0.7926
vn -0.0000 0.7577 0.6526
vn 0.9996 0.0020 -0.0299
vn 0.9996 -0.0025 -0.0292
vn 0.9996 -0.0083 -0.0273
vn 0.9996 -0.0038 -0.0284
vn -0.9984 -0.0552 0.0102
vn -0.9985 -0.0551 0.0058
vn -0.9985 -0.0532 0.0109
vn -0.9985 -0.0515 0.0177
vn -0.9984 0.0316 -0.0462
vn -0.9985 0.0364 -0.0418
vn -0.9985 0.0289 -0.0459
vn -0.9985 0.0239 -0.0490
vn -0.9983 -0.0364 -0.0447
vn -0.9985 -0.0434 -0.0330
vn -0.0000 0.2395 0.9709
vn -0.0000 0.2454 0.9694
vn -0.0000 0.4503 0.8929
vn 0.9996 -0.0075 -0.0279
vn 0.9996 -0.0093 -0.0271
vn -0.0000 0.9834 -0.1815
vn -0.0000 0.9816 -0.1912
vn -0.0000 0.8929 -0.4503
vn 0.9995 0.0192 0.0236
vn 0.9996 0.0224 0.0189
vn 0.9996 0.0250 0.0138
vn 0.9996 0.0228 0.0174
vn -0.9985 0.0145 0.0531
vn -0.9985 0.0177 0.0515
vn -0.9984 -0.0564 -0.0021
vn -0.9985 -0.0540 0.0073
vn 0.9996 0.0252 0.0141
vn 0.9996 0.0257 0.0126
vn -0.9985 0.0370 -0.0410
vn -0.9985 0.0330 -0.0434
vn 0.9996 -0.0020 0.0299
vn 0.9996 0.0038 0.0284
vn -0.9945 0.0374 0.0978
vn -0.9962 0.0580 0.0646
vn 0.9995 -0.0044 0.0305
vn 0.9995 -0.0024 0.0306
vn -0.0000 1.0000 -0.0029
vn -0.9983 0.0049 -0.0582
vn -0.9983 0.0083 -0.0580
vn 0.9995 0.0017 0.0308
vn -0.9983 -0.0032 -0.0585
vn -0.0000 -0.9227 0.3854
vn -0.9983 0.0423 -0.0401
vn -0.9983 0.0469 -0.0352
vn -0.9983 0.0391 -0.0436
vn 0.9995 -0.0223 0.0211
vn 0.9995 -0.0206 0.0229
vn 0.9995 -0.0246 0.0185
vn -0.0000 0.7092 0.7050
vn -0.0000 -0.9250 -0.3800
vn -0.0000 0.0029 1.0000
vn -0.9863 0.0495 -0.1576
vn -0.9771 0.0463 -0.2078
vn 0.9995 -0.0306 -0.0024
vn 0.9995 -0.0308 0.0017
vn -0.9983 0.0585 -0.0032
vn 0.9995 -0.0305 -0.0044
vn -0.0000 -0.3854 -0.9227
vn -0.9701 -0.0507 0.2375
vn -0.9967 0.0214 0.0779
vn -0.0000 0.3800 -0.9250
vn 0.9995 -0.0185 -0.0246
vn 0.9995 -0.0192 -0.0240
vn 0.9995 -0.0229 -0.0206
vn -0.0000 -0.7050 0.7092
vn -0.9983 0.0352 0.0469
vn -0.9983 0.0032 0.0585
vn -0.9983 -0.0046 0.0582
vn 0.9995 0.0024 -0.0306
vn 0.9995 -0.0017 -0.0308
vn 0.9995 0.0044 -0.0305
vn -0.9983 -0.0083 0.0580
vn -0.0000 0.9227 -0.3854
vn -0.0000 -1.0000 0.0029
vn 0.9995 0.0224 -0.0210
vn 0.9995 0.0206 -0.0229
vn 0.9995 0.0246 -0.0185
vn -0.0000 -0.7092 -0.7050
vn -0.9983 -0.0391 0.0436
vn -0.9983 -0.0424 0.0400
vn -0.9983 -0.0469 0.0352
vn -0.0000 0.9250 0.3800
vn -0.9983 -0.0581 -0.0054
vn -0.9983 -0.0580 -0.0083
vn -0.9983 -0.0585 0.0032
vn -0.0000 0.3854 0.9227
vn -0.0000 -0.0029 -1.0000
vn 0.9995 0.0305 0.0044
vn 0.9995 0.0306 0.0024
vn 0.9995 0.0308 -0.0017
vn 0.9995 0.0192 0.0240
vn 0.9995 0.0229 0.0206
vn 0.9995 0.0185 0.0246
vn -0.9983 -0.0364 -0.0458
vn -0.9983 -0.0352 -0.0469
vn -0.9983 -0.0436 -0.0391
vn -0.0000 0.7050 -0.7092
vn -0.0000 -0.3800 0.9250
vt 0.104159 0.773616
vt 0.104276 0.767075
vt 0.115511 0.767276
vt 0.115394 0.773817
vt 0.553230 0.272914
vt 0.551340 0.267280
vt 0.554378 0.261649
vt 0.555763 0.265777
vt 0.104738 0.741242
vt 0.104830 0.736112
vt 0.116064 0.736313
vt 0.115973 0.741443
vt 0.032608 0.831840
vt 0.022469 0.832286
vt 0.023554 0.804864
vt 0.032608 0.804467
vt 0.355948 0.810427
vt 0.366088 0.809996
vt 0.365805 0.857159
vt 0.356751 0.857545
vt 0.104633 0.747139
vt 0.115867 0.747340
vt 0.624952 0.732835
vt 0.624920 0.739573
vt 0.613684 0.739519
vt 0.613716 0.732781
vt 0.136613 0.672956
vt 0.156431 0.672197
vt 0.176767 0.726846
vt 0.134371 0.721258
vt 0.376236 0.781864
vt 0.386384 0.781704
vt 0.385297 0.857641
vt 0.376236 0.857784
vt 0.624986 0.725904
vt 0.613750 0.725850
vt 0.103876 0.789474
vt 0.103955 0.785035
vt 0.115189 0.785236
vt 0.115110 0.789674
vt 0.411681 0.685457
vt 0.425192 0.662076
vt 0.423856 0.745688
vt 0.396930 0.781708
vt 0.568275 0.384991
vt 0.578419 0.380789
vt 0.615272 0.459717
vt 0.598912 0.480584
vt 0.103816 0.792826
vt 0.115050 0.793027
vt 0.104397 0.760309
vt 0.115632 0.760510
vt 0.228448 0.864065
vt 0.220427 0.883868
vt 0.212196 0.767243
vt 0.229355 0.742697
vt 0.113963 0.671049
vt 0.089231 0.711148
vt 0.626950 0.706601
vt 0.626921 0.712534
vt 0.613814 0.712470
vt 0.613843 0.706537
vt 0.557918 0.383860
vt 0.581161 0.492445
vt 0.626974 0.701483
vt 0.613868 0.701420
vt 0.447627 0.796257
vt 0.450192 0.796257
vt 0.450192 0.807493
vt 0.447627 0.807493
vt 0.622989 0.665369
vt 0.612840 0.665320
vt 0.612138 0.561898
vt 0.621200 0.561942
vt 0.444766 0.796257
vt 0.444766 0.807493
vt 0.595912 0.142532
vt 0.587256 0.126467
vt 0.581161 0.004760
vt 0.598911 0.021196
vt 0.258649 0.828455
vt 0.248501 0.828628
vt 0.249800 0.770483
vt 0.258860 0.770329
vt 0.625146 0.692782
vt 0.625138 0.694434
vt 0.613902 0.694380
vt 0.613910 0.692728
vt 0.603291 0.162582
vt 0.615271 0.046281
vt 0.104959 0.728906
vt 0.104991 0.727106
vt 0.116225 0.727307
vt 0.116193 0.729107
vt 0.624840 0.756138
vt 0.624822 0.759735
vt 0.613586 0.759681
vt 0.613604 0.756084
vt 0.438601 0.817291
vt 0.428458 0.816945
vt 0.428458 0.781708
vt 0.437515 0.782017
vt 0.624862 0.751454
vt 0.613626 0.751399
vt 0.510161 0.254095
vt 0.512258 0.281017
vt 0.484026 0.374208
vt 0.475282 0.330095
vt 0.639694 0.784908
vt 0.649843 0.784767
vt 0.649152 0.899969
vt 0.640090 0.900095
vt 0.552608 0.251796
vt 0.552292 0.246449
vt 0.552375 0.241094
vt 0.552856 0.235936
vt 0.553714 0.231173
vt 0.554918 0.226989
vt 0.556422 0.223543
vt 0.558166 0.220970
vt 0.560085 0.219366
vt 0.562104 0.218795
vt 0.564146 0.219278
vt 0.566133 0.220796
vt 0.567988 0.223292
vt 0.569640 0.226668
vt 0.571025 0.230796
vt 0.572090 0.235517
vt 0.572794 0.240650
vt 0.573111 0.245996
vt 0.573027 0.251351
vt 0.572547 0.256509
vt 0.571688 0.261273
vt 0.570484 0.265457
vt 0.568981 0.268902
vt 0.567236 0.271476
vt 0.565317 0.273079
vt 0.563298 0.273650
vt 0.561256 0.273168
vt 0.559269 0.271649
vt 0.557414 0.269154
vt 0.553313 0.256928
vt 0.548606 0.239222
vt 0.549262 0.232181
vt 0.575517 0.231610
vt 0.576478 0.238616
vt 0.555485 0.277523
vt 0.548492 0.246532
vt 0.574063 0.225166
vt 0.558017 0.280930
vt 0.572172 0.219531
vt 0.560729 0.283002
vt 0.569918 0.214922
vt 0.563516 0.283661
vt 0.567386 0.211516
vt 0.566272 0.282881
vt 0.564674 0.209443
vt 0.568892 0.280693
vt 0.561886 0.208784
vt 0.571273 0.277180
vt 0.559130 0.209564
vt 0.573325 0.272477
vt 0.556511 0.211753
vt 0.574968 0.266766
vt 0.554130 0.215266
vt 0.576140 0.260264
vt 0.548924 0.253830
vt 0.552078 0.219968
vt 0.576796 0.253223
vt 0.549886 0.260836
vt 0.550434 0.225680
vt 0.576910 0.245914
vt 0.639438 0.745930
vt 0.639411 0.751524
vt 0.624889 0.745860
vt 0.090283 0.735852
vt 0.090358 0.731686
vt 0.104904 0.731947
vt 0.639388 0.756209
vt 0.090412 0.728645
vt 0.639371 0.759805
vt 0.090444 0.726846
vt 0.438601 0.781708
vt 0.441718 0.781708
vt 0.441718 0.796257
vt 0.438601 0.796257
vt 0.639694 0.692852
vt 0.639686 0.694504
vt 0.444766 0.781708
vt 0.639672 0.697439
vt 0.625123 0.697369
vt 0.447627 0.781708
vt 0.639652 0.701545
vt 0.450192 0.781708
vt 0.639628 0.706662
vt 0.452362 0.781708
vt 0.452362 0.796257
vt 0.639599 0.712595
vt 0.089231 0.794704
vt 0.089269 0.792566
vt 0.103777 0.794964
vt 0.639567 0.719116
vt 0.625019 0.719046
vt 0.089730 0.766815
vt 0.089851 0.760049
vt 0.089329 0.789213
vt 0.639534 0.725974
vt 0.089971 0.753317
vt 0.104518 0.753577
vt 0.089408 0.784774
vt 0.639501 0.732905
vt 0.090086 0.746879
vt 0.089504 0.779420
vt 0.104051 0.779680
vt 0.639468 0.739643
vt 0.090192 0.740982
vt 0.089613 0.773355
vt 0.567485 0.108585
vt 0.557127 0.107454
vt 0.526491 0.011861
vt 0.544242 0.000000
vt 0.325201 0.728817
vt 0.314402 0.726831
vt 0.324351 0.626943
vt 0.344717 0.643924
vt 0.105009 0.854098
vt 0.115156 0.854280
vt 0.114361 0.965945
vt 0.105300 0.965783
vt 0.079170 0.784400
vt 0.069022 0.784214
vt 0.068758 0.732889
vt 0.077819 0.733055
vt 0.546983 0.111656
vt 0.510131 0.032727
vt 0.596526 0.357231
vt 0.603795 0.338779
vt 0.650121 0.352633
vt 0.641377 0.394492
vt 0.104372 0.889690
vt 0.114520 0.889871
vt 0.114098 0.980610
vt 0.105038 0.980448
vt 0.437011 0.637551
vt 0.449141 0.705313
vt 0.652800 0.601986
vt 0.641717 0.602125
vt 0.643569 0.492558
vt 0.652630 0.492445
vt 0.609484 0.316772
vt 0.655506 0.306689
vt 0.304510 0.730104
vt 0.304510 0.619061
vt 0.186777 0.839280
vt 0.195945 0.823502
vt 0.195037 0.944873
vt 0.176767 0.960729
vt 0.354861 0.833854
vt 0.344717 0.833546
vt 0.345089 0.781704
vt 0.354147 0.781979
vt 0.528877 0.135214
vt 0.521608 0.153666
vt 0.475281 0.139812
vt 0.484026 0.097953
vt 0.022469 0.829682
vt 0.012322 0.829914
vt 0.012404 0.733096
vt 0.021464 0.732889
vt 0.368667 0.738691
vt 0.356847 0.763216
vt 0.344717 0.695457
vt 0.370003 0.655081
vt 0.515918 0.175673
vt 0.469897 0.185756
vt 0.000067 0.830363
vt 0.010216 0.830231
vt 0.009061 0.917234
vt 0.000000 0.917352
vt 0.615320 0.265575
vt 0.615242 0.238350
vt 0.650121 0.162349
vt 0.655506 0.209685
vt 0.283820 0.724841
vt 0.294618 0.726827
vt 0.284670 0.826717
vt 0.264304 0.809737
vt 0.239572 0.674854
vt 0.216921 0.672948
vt 0.219164 0.624647
vt 0.264304 0.634754
vt 0.203966 0.803699
vt 0.212196 0.920326
vt 0.624231 0.601913
vt 0.613147 0.601860
vt 0.612474 0.492445
vt 0.621536 0.492489
vt 0.613145 0.211427
vt 0.641376 0.118236
vt 0.106618 0.764119
vt 0.116766 0.764301
vt 0.116766 0.831493
vt 0.107705 0.831331
vt 0.522112 0.329863
vt 0.529491 0.349914
vt 0.526492 0.471249
vt 0.510131 0.446164
vt 0.382178 0.715310
vt 0.396930 0.619061
vt 0.304510 0.723554
vt 0.304510 0.834599
vt 0.538146 0.365978
vt 0.544242 0.487685
vt 0.197104 0.673709
vt 0.176767 0.619061
vt 0.510083 0.226870
vt 0.469897 0.282761
vt 0.237616 0.848286
vt 0.247626 0.726841
vt 0.399377 0.625432
vt 0.401125 0.619061
vt 0.396930 0.632067
vt 0.408163 0.782008
vt 0.419395 0.781708
vt 0.418309 0.826644
vt 0.408163 0.826916
vt 0.260202 0.725092
vt 0.257270 0.726840
vt 0.264304 0.724006
vt 0.079992 0.864697
vt 0.068758 0.864492
vt 0.355948 0.782182
vt 0.367174 0.781703
vt 0.326152 0.830733
vt 0.324389 0.834593
vt 0.328370 0.828139
vt 0.258860 0.911446
vt 0.247626 0.911637
vt 0.247626 0.947357
vt 0.245965 0.953752
vt 0.652800 0.697944
vt 0.639694 0.698108
vt 0.244779 0.960724
vt 0.396930 0.768698
vt 0.394482 0.775333
vt 0.392734 0.781704
vt 0.022469 0.882408
vt 0.011235 0.882665
vt 0.355948 0.873473
vt 0.344717 0.873132
vt 0.408163 0.781947
vt 0.408163 0.838455
vt 0.398016 0.838239
vt 0.089231 0.621895
vt 0.093334 0.620810
vt 0.096265 0.619061
vt 0.622287 0.810720
vt 0.612138 0.810671
vt 0.282869 0.622922
vt 0.284631 0.619061
vt 0.280650 0.625517
vt 0.000000 0.733036
vt 0.011235 0.732889
vt 0.178428 0.733812
vt 0.179614 0.726840
vt 0.176767 0.740206
vt 0.639694 0.698264
vt 0.650930 0.698108
s 1
usemtl Material.007
f 98/1/1 97/2/2 34/3/3 33/4/4
f 37/5/5 36/6/6 68/7/7 69/8/8
f 100/9/9 99/10/10 60/11/11 61/12/12
f 211/13/13 210/14/14 173/15/15 137/16/15
f 184/17/16 183/18/17 153/19/18 149/20/18
f 104/21/19 100/9/9 61/12/12 62/22/20
f 105/23/21 102/24/22 48/25/23 49/26/24
f 209/27/25 207/28/26 170/29/27 172/30/28
f 178/31/29 180/32/30 162/33/31 152/34/31
f 108/35/32 105/23/21 49/26/24 50/36/33
f 109/37/34 106/38/35 36/39/6 37/40/5
f 180/41/36 179/42/37 160/43/38 162/44/39
f 213/45/40 215/46/41 134/47/42 132/48/43
f 112/49/44 109/37/34 37/40/5 38/50/45
f 97/2/2 110/51/46 64/52/47 34/3/3
f 199/53/48 198/54/49 161/55/50 163/56/51
f 210/57/52 209/27/25 172/30/28 173/58/53
f 115/59/54 113/60/55 52/61/56 53/62/57
f 214/63/58 213/45/40 132/48/43 133/64/59
f 117/65/60 115/59/54 53/62/57 54/66/61
f 118/67/62 116/68/63 40/69/64 41/70/65
f 198/71/66 195/72/67 142/73/68 161/74/68
f 120/75/69 118/67/62 41/70/65 42/76/70
f 196/77/71 197/78/72 143/79/73 141/80/74
f 190/81/75 189/82/76 171/83/77 146/84/77
f 123/85/78 121/86/79 56/87/80 57/88/81
f 195/89/82 196/77/71 141/80/74 142/90/83
f 125/91/84 123/92/78 57/93/81 58/94/85
f 126/95/86 124/96/87 44/97/88 45/98/89
f 207/99/90 208/100/91 136/101/92 170/102/92
f 128/103/93 126/95/86 45/98/89 46/104/94
f 177/105/95 178/106/96 152/107/97 150/108/98
f 219/109/99 220/110/100 159/111/101 131/112/101
f 65/113/102 66/114/102 96/115/102 95/116/102 94/117/102 93/118/102 92/119/102 91/120/102 90/121/102 89/122/102 88/123/102 87/124/102 86/125/102 85/126/102 84/127/102 83/128/102 82/129/102 81/130/102 80/131/102 79/132/102 78/133/102 77/134/102 76/135/102 75/136/102 74/137/102 73/138/102 72/139/102 71/140/102 70/141/102 69/8/102 68/7/102 67/142/102
f 64/143/47 63/144/103 95/116/104 96/115/105
f 51/145/106 50/146/33 82/129/107 83/128/108
f 38/147/45 37/5/5 69/8/8 70/141/109
f 34/148/3 64/143/47 96/115/105 66/114/110
f 52/149/56 51/145/106 83/128/108 84/127/111
f 39/150/112 38/147/45 70/141/109 71/140/113
f 53/151/57 52/149/56 84/127/111 85/126/114
f 40/152/64 39/150/112 71/140/113 72/139/115
f 54/153/61 53/151/57 85/126/114 86/125/116
f 41/154/65 40/152/64 72/139/115 73/138/117
f 55/155/118 54/153/61 86/125/116 87/124/119
f 42/156/70 41/154/65 73/138/117 74/137/120
f 56/157/80 55/155/118 87/124/119 88/123/121
f 43/158/122 42/156/70 74/137/120 75/136/123
f 57/159/81 56/157/80 88/123/121 89/122/124
f 44/160/88 43/158/122 75/136/123 76/135/125
f 58/161/85 57/159/81 89/122/124 90/121/126
f 45/162/89 44/160/88 76/135/125 77/134/127
f 59/163/128 58/161/85 90/121/126 91/120/129
f 46/164/94 45/162/89 77/134/127 78/133/130
f 60/165/11 59/163/128 91/120/129 92/119/131
f 47/166/132 46/164/94 78/133/130 79/132/133
f 33/167/4 34/148/3 66/114/110 65/113/134
f 61/168/12 60/165/11 92/119/131 93/118/135
f 48/169/23 47/166/132 79/132/133 80/131/136
f 35/170/137 33/167/4 65/113/134 67/142/138
f 62/171/20 61/168/12 93/118/135 94/117/139
f 49/172/24 48/169/23 80/131/136 81/130/140
f 36/6/6 35/170/137 67/142/138 68/7/7
f 63/144/103 62/171/20 94/117/139 95/116/104
f 50/146/33 49/172/24 81/130/140 82/129/107
f 15/173/141 14/174/142 128/103/93 101/175/141
f 28/176/143 27/177/144 127/178/144 99/10/10
f 14/174/142 13/179/86 126/95/86 128/103/93
f 27/177/144 26/180/145 125/91/84 127/178/144
f 13/179/86 12/181/146 124/96/87 126/95/86
f 26/180/145 25/182/78 123/92/78 125/91/84
f 12/183/146 11/184/147 122/185/147 124/186/87
f 25/187/78 24/188/148 121/86/79 123/85/78
f 11/184/147 10/189/149 120/75/69 122/185/147
f 24/188/148 23/190/150 119/191/151 121/86/79
f 10/189/149 9/192/62 118/67/62 120/75/69
f 23/190/150 22/193/152 117/65/60 119/191/151
f 9/192/62 8/194/153 116/68/63 118/67/62
f 22/193/152 21/195/54 115/59/54 117/65/60
f 8/194/153 7/196/154 114/197/154 116/68/63
f 21/195/54 20/198/155 113/60/55 115/59/54
f 7/199/154 6/200/156 112/49/44 114/201/154
f 20/198/155 19/202/157 111/203/158 113/60/55
f 2/204/2 32/205/159 110/51/46 97/2/2
f 6/200/156 5/206/34 109/37/34 112/49/44
f 19/202/157 18/207/160 108/35/32 111/203/158
f 32/205/159 31/208/161 107/209/161 110/51/46
f 5/206/34 4/210/162 106/38/35 109/37/34
f 18/207/160 17/211/21 105/23/21 108/35/32
f 31/208/161 30/212/163 104/21/19 107/209/161
f 4/210/162 3/213/164 103/214/164 106/38/35
f 17/211/21 16/215/165 102/24/22 105/23/21
f 30/212/163 29/216/9 100/9/9 104/21/19
f 3/213/164 1/217/166 98/1/1 103/214/164
f 16/215/165 15/173/141 101/175/141 102/24/22
f 29/216/9 28/176/143 99/10/10 100/9/9
f 1/217/166 2/204/2 97/2/2 98/1/1
f 192/218/167 191/219/168 144/220/169 145/221/170
f 189/222/171 193/223/172 169/224/173 171/225/174
f 222/226/175 221/227/176 130/228/177 155/229/177
f 186/230/178 185/231/179 148/232/180 174/233/180
f 191/219/168 190/234/181 146/235/182 144/220/169
f 208/236/183 212/237/184 135/238/185 136/239/186
f 216/240/187 214/241/188 133/242/189 164/243/189
f 179/42/37 181/244/190 158/245/191 160/43/38
f 197/246/192 200/247/193 165/248/194 143/249/194
f 212/237/184 211/250/195 137/251/196 135/238/185
f 193/223/172 194/252/197 168/253/198 169/224/173
f 220/254/199 223/255/200 157/256/201 159/257/202
f 202/258/203 201/259/204 139/260/205 176/261/205
f 185/262/206 187/263/207 147/264/208 148/265/209
f 204/266/210 203/267/211 156/268/212 140/269/212
f 205/270/213 202/271/214 176/272/215 154/273/216
f 187/263/207 184/274/217 149/275/218 147/264/208
f 215/276/219 217/277/220 167/278/221 134/279/221
f 201/280/222 206/281/223 138/282/224 139/283/225
f 217/284/226 218/285/227 166/286/228 167/287/229
f 183/288/230 188/289/231 175/290/232 153/291/233
f 223/255/200 222/292/234 155/293/235 157/256/201
f 194/294/236 192/295/237 145/296/238 168/297/238
f 206/281/223 204/298/239 140/299/240 138/282/224
f 181/300/241 182/301/242 151/302/243 158/303/243
f 221/304/244 224/305/245 129/306/246 130/307/247
f 203/308/248 205/270/213 154/273/216 156/309/249
f 218/285/227 216/310/250 164/311/251 166/286/228
f 224/305/245 219/312/252 131/313/253 129/306/246
f 188/289/231 186/314/254 174/315/255 175/290/232
f 182/316/256 177/105/95 150/108/98 151/317/257
f 200/318/258 199/53/48 163/56/51 165/319/259
f 62/171/260 63/144/261 177/105/95 182/316/256
f 104/21/262 62/22/262 182/301/242 181/300/241
f 107/320/263 104/321/264 181/244/190 179/42/37
f 63/144/261 64/143/265 178/106/96 177/105/95
f 110/322/266 107/320/263 179/42/37 180/41/36
f 64/323/267 110/324/267 180/325/30 178/326/29
f 127/327/268 125/328/269 186/314/254 188/289/231
f 99/329/270 127/327/268 188/289/231 183/288/230
f 59/163/271 60/165/272 184/274/217 187/263/207
f 58/161/273 59/163/271 187/263/207 185/262/206
f 125/330/274 58/331/274 185/231/179 186/230/178
f 60/332/275 99/333/275 183/18/17 184/17/16
f 117/65/276 54/66/276 192/295/237 194/294/236
f 119/334/277 117/335/278 194/252/197 193/223/172
f 55/155/279 56/157/280 190/234/181 191/219/168
f 121/336/281 119/334/277 193/223/172 189/222/171
f 54/153/282 55/155/279 191/219/168 192/218/167
f 56/337/283 121/338/283 189/82/76 190/81/75
f 113/339/284 111/340/285 199/53/48 200/318/258
f 52/341/286 113/342/286 200/247/193 197/246/192
f 50/146/287 51/145/288 196/77/71 195/89/82
f 51/145/288 52/149/289 197/78/72 196/77/71
f 108/35/290 50/36/290 195/72/67 198/71/66
f 111/340/285 108/343/291 198/54/49 199/53/48
f 102/344/292 101/345/293 205/270/213 203/308/248
f 47/166/294 48/169/295 204/298/239 206/281/223
f 46/164/296 47/166/294 206/281/223 201/280/222
f 101/345/293 128/346/297 202/271/214 205/270/213
f 48/347/298 102/348/298 203/267/211 204/266/210
f 128/349/299 46/350/299 201/259/204 202/258/203
f 43/158/300 44/160/301 211/250/195 212/237/184
f 42/156/302 43/158/300 212/237/184 208/236/183
f 120/44/303 42/351/303 208/352/91 207/353/90
f 124/354/304 122/355/305 209/27/25 210/57/52
f 122/355/305 120/356/306 207/28/26 209/27/25
f 44/97/307 124/96/307 210/357/14 211/358/13
f 114/359/308 112/360/309 216/310/250 218/285/227
f 116/361/310 114/359/308 218/285/227 217/284/226
f 40/362/311 116/363/311 217/277/220 215/276/219
f 112/49/312 38/50/312 214/241/188 216/240/187
f 38/147/313 39/150/314 213/45/40 214/63/58
f 39/150/314 40/152/315 215/46/41 213/45/40
f 35/170/316 36/6/317 219/312/252 224/305/245
f 33/167/318 35/170/316 224/305/245 221/304/244
f 103/364/319 98/365/320 222/292/234 223/255/200
f 106/366/321 103/364/319 223/255/200 220/254/199
f 98/1/322 33/4/322 221/227/176 222/226/175
f 36/367/323 106/368/323 220/110/100 219/109/99
o front_wheels_misc
g front_wheels_misc
v -0.124913 0.000051 -0.241888
v 0.025023 0.000051 -0.170936
v -0.124913 -0.047139 -0.237240
v 0.025023 -0.033297 -0.167652
v -0.124913 -0.092515 -0.223475
v 0.025023 -0.065363 -0.157924
v -0.124913 -0.134334 -0.201122
v 0.025023 -0.094916 -0.142128
v -0.124913 -0.170989 -0.171040
v 0.025023 -0.120819 -0.120870
v -0.124913 -0.201071 -0.134386
v 0.025023 -0.142077 -0.094967
v -0.124913 -0.223424 -0.092566
v 0.025023 -0.157873 -0.065414
v -0.124913 -0.237188 -0.047190
v 0.025023 -0.167600 -0.033348
v -0.124913 -0.241836 0.000000
v 0.025023 -0.170885 0.000000
v -0.124913 -0.237188 0.047190
v 0.025023 -0.167600 0.033348
v -0.124913 -0.223424 0.092566
v 0.025023 -0.157873 0.065414
v -0.124913 -0.201071 0.134386
v 0.025023 -0.142077 0.094967
v -0.124913 -0.170989 0.171040
v 0.025023 -0.120819 0.120870
v -0.124913 -0.134334 0.201122
v 0.025023 -0.094916 0.142128
v -0.124913 -0.092515 0.223475
v 0.025023 -0.065363 0.157924
v -0.124913 -0.047139 0.237240
v 0.025023 -0.033297 0.167652
v -0.124913 0.000051 0.241888
v 0.025023 0.000051 0.170936
v -0.124913 0.047241 0.237240
v 0.025023 0.033399 0.167652
v -0.124913 0.092618 0.223475
v 0.025023 0.065466 0.157924
v -0.124913 0.134437 0.201122
v 0.025023 0.095018 0.142128
v -0.124913 0.171092 0.171040
v 0.025023 0.120922 0.120870
v -0.124913 0.201174 0.134386
v 0.025023 0.142180 0.094967
v -0.124913 0.223526 0.092566
v 0.025023 0.157976 0.065414
v -0.124913 0.237291 0.047190
v 0.025023 0.167703 0.033348
v -0.124913 0.241939 -0.000000
v 0.025023 0.170988 -0.000000
v -0.124913 0.237291 -0.047190
v 0.025023 0.167703 -0.033348
v -0.124913 0.223526 -0.092566
v 0.025023 0.157976 -0.065414
v -0.124913 0.201174 -0.134386
v 0.025023 0.142180 -0.094967
v -0.124913 0.171092 -0.171040
v 0.025023 0.120922 -0.120870
v -0.124913 0.134437 -0.201122
v 0.025023 0.095018 -0.142128
v -0.124913 0.092618 -0.223475
v 0.025023 0.065466 -0.157924
v -0.124913 0.047241 -0.237240
v 0.025023 0.033399 -0.167652
v 0.058691 -0.047139 -0.237240
v 0.058691 0.000051 -0.241888
v 0.058691 -0.092515 -0.223475
v 0.058691 -0.134334 -0.201122
v 0.058691 -0.170989 -0.171040
v 0.058691 -0.201071 -0.134386
v 0.058691 -0.223424 -0.092566
v 0.058691 -0.237188 -0.047190
v 0.058691 -0.241836 0.000000
v 0.058691 -0.237188 0.047190
v 0.058691 -0.223424 0.092566
v 0.058691 -0.201071 0.134386
v 0.058691 -0.170989 0.171040
v 0.058691 -0.134334 0.201122
v 0.058691 -0.092515 0.223475
v 0.058691 -0.047139 0.237240
v 0.058691 0.000051 0.241888
v 0.058691 0.047241 0.237240
v 0.058691 0.092618 0.223475
v 0.058691 0.134437 0.201122
v 0.058691 0.171092 0.171040
v 0.058691 0.201174 0.134386
v 0.058691 0.223526 0.092566
v 0.058691 0.237291 0.047190
v 0.058691 0.241939 -0.000000
v 0.058691 0.237291 -0.047190
v 0.058691 0.223526 -0.092566
v 0.058691 0.201174 -0.134386
v 0.058691 0.171092 -0.171040
v 0.058691 0.134437 -0.201122
v 0.058691 0.092618 -0.223475
v 0.058691 0.047241 -0.237240
v 0.058691 -0.038040 -0.191499
v 0.058691 0.000051 -0.195250
v 0.058691 -0.074668 -0.180388
v 0.058691 -0.108424 -0.162345
v 0.058691 -0.138011 -0.138063
v 0.058691 -0.162293 -0.108475
v 0.058691 -0.180336 -0.074719
v 0.058691 -0.191447 -0.038091
v 0.058691 -0.195199 0.000000
v 0.058691 -0.191447 0.038091
v 0.058691 -0.180336 0.074719
v 0.058691 -0.162293 0.108475
v 0.058691 -0.138011 0.138063
v 0.058691 -0.108424 0.162345
v 0.058691 -0.074668 0.180388
v 0.058691 -0.038040 0.191499
v 0.058691 0.000051 0.195250
v 0.058691 0.038143 0.191499
v 0.058691 0.074770 0.180388
v 0.058691 0.108527 0.162345
v 0.058691 0.138114 0.138063
v 0.058691 0.162396 0.108475
v 0.058691 0.180439 0.074719
v 0.058691 0.191550 0.038091
v 0.058691 0.195302 -0.000000
v 0.058691 0.191550 -0.038091
v 0.058691 0.180439 -0.074719
v 0.058691 0.162396 -0.108475
v 0.058691 0.138114 -0.138063
v 0.058691 0.108527 -0.162345
v 0.058691 0.074770 -0.180388
v 0.058691 0.038143 -0.191499
v -0.088069 -0.005965 -0.030249
v -0.088069 0.000051 -0.030841
v -0.088069 -0.011751 -0.028494
v -0.088069 -0.017083 -0.025644
v -0.088069 -0.021757 -0.021808
v -0.088069 -0.025592 -0.017135
v -0.088069 -0.028442 -0.011802
v -0.088069 -0.030197 -0.006017
v -0.088069 -0.030790 0.000000
v -0.088069 -0.030197 0.006017
v -0.088069 -0.028442 0.011803
v -0.088069 -0.025592 0.017135
v -0.088069 -0.021757 0.021808
v -0.088069 -0.017083 0.025644
v -0.088069 -0.011751 0.028494
v -0.088069 -0.005965 0.030249
v -0.088069 0.000051 0.030841
v -0.088069 0.006068 0.030249
v -0.088069 0.011854 0.028494
v -0.088069 0.017186 0.025644
v -0.088069 0.021860 0.021808
v -0.088069 0.025695 0.017135
v -0.088069 0.028545 0.011803
v -0.088069 0.030300 0.006017
v -0.088069 0.030893 -0.000000
v -0.088069 0.030300 -0.006017
v -0.088069 0.028545 -0.011803
v -0.088069 0.025695 -0.017135
v -0.088069 0.021860 -0.021808
v -0.088069 0.017186 -0.025644
v -0.088069 0.011854 -0.028494
v -0.088069 0.006068 -0.030249
v -0.088069 -0.033297 -0.167652
v -0.088069 0.000051 -0.170936
v -0.088069 -0.065363 -0.157924
v -0.088069 -0.094916 -0.142128
v -0.088069 -0.120819 -0.120870
v -0.088069 -0.142077 -0.094967
v -0.088069 -0.157873 -0.065414
v -0.088069 -0.167600 -0.033348
v -0.088069 -0.170885 0.000000
v -0.088069 -0.167600 0.033348
v -0.088069 -0.157873 0.065415
v -0.088069 -0.142077 0.094967
v -0.088069 -0.120819 0.120870
v -0.088069 -0.094916 0.142128
v -0.088069 -0.065363 0.157925
v -0.088069 -0.033297 0.167652
v -0.088069 0.000051 0.170936
v -0.088069 0.033399 0.167652
v -0.088069 0.065466 0.157925
v -0.088069 0.095018 0.142128
v -0.088069 0.120922 0.120870
v -0.088069 0.142180 0.094967
v -0.088069 0.157976 0.065415
v -0.088069 0.167703 0.033348
v -0.088069 0.170988 -0.000000
v -0.088069 0.167703 -0.033348
v -0.088069 0.157976 -0.065414
v -0.088069 0.142180 -0.094967
v -0.088069 0.120922 -0.120870
v -0.088069 0.095018 -0.142128
v -0.088069 0.065466 -0.157924
v -0.088069 0.033399 -0.167652
v -0.040446 -0.005965 -0.030249
v -0.040446 0.000051 -0.030841
v -0.040446 -0.011751 -0.028494
v -0.040446 -0.017083 -0.025644
v -0.040446 -0.021757 -0.021808
v -0.040446 -0.025592 -0.017135
v -0.040446 -0.028442 -0.011803
v -0.040446 -0.030197 -0.006017
v -0.040446 -0.030790 0.000000
v -0.040446 -0.030197 0.006017
v -0.040446 -0.028442 0.011803
v -0.040446 -0.025592 0.017135
v -0.040446 -0.021757 0.021808
v -0.040446 -0.017083 0.025644
v -0.040446 -0.011751 0.028494
v -0.040446 -0.005965 0.030249
v -0.040446 0.000051 0.030841
v -0.040446 0.006068 0.030249
v -0.040446 0.011854 0.028494
v -0.040446 0.017186 0.025644
v -0.040446 0.021860 0.021808
v -0.040446 0.025695 0.017135
v -0.040446 0.028545 0.011803
v -0.040446 0.030300 0.006017
v -0.040446 0.030893 -0.000000
v -0.040446 0.030300 -0.006017
v -0.040446 0.028545 -0.011803
v -0.040446 0.025695 -0.017135
v -0.040446 0.021860 -0.021808
v -0.040446 0.017186 -0.025644
v -0.040446 0.011854 -0.028494
v -0.040446 0.006068 -0.030249
v -0.040445 -0.028518 -0.143629
v -0.040445 0.000051 -0.146442
v -0.040445 -0.055990 -0.135295
v -0.040445 -0.081308 -0.121762
v -0.040445 -0.103499 -0.103550
v -0.040445 -0.121711 -0.081359
v -0.040445 -0.135244 -0.056041
v -0.040445 -0.143577 -0.028569
v -0.040445 -0.146391 0.000000
v -0.040445 -0.143577 0.028569
v -0.040445 -0.135244 0.056041
v -0.040445 -0.121711 0.081359
v -0.040445 -0.103499 0.103550
v -0.040445 -0.081308 0.121762
v -0.040445 -0.055990 0.135295
v -0.040445 -0.028518 0.143629
v -0.040445 0.000051 0.146442
v -0.040445 0.028621 0.143629
v -0.040445 0.056092 0.135295
v -0.040445 0.081410 0.121762
v -0.040445 0.103602 0.103550
v -0.040445 0.121814 0.081359
v -0.040445 0.135346 0.056041
v -0.040445 0.143680 0.028569
v -0.040445 0.146494 -0.000000
v -0.040445 0.143680 -0.028569
v -0.040445 0.135346 -0.056041
v -0.040445 0.121814 -0.081359
v -0.040445 0.103602 -0.103550
v -0.040445 0.081410 -0.121762
v -0.040445 0.056092 -0.135295
v -0.040445 0.028621 -0.143629
v -0.005413 -0.005654 -0.028681
v -0.005413 0.000051 -0.029243
v -0.005413 -0.011140 -0.027017
v -0.005413 -0.016196 -0.024315
v -0.005413 -0.020627 -0.020678
v -0.005413 -0.024264 -0.016247
v -0.005413 -0.026966 -0.011191
v -0.005413 -0.028630 -0.005705
v -0.005413 -0.029192 0.000000
v -0.005413 -0.028630 0.005705
v -0.005413 -0.026966 0.011191
v -0.005413 -0.024264 0.016247
v -0.005413 -0.020627 0.020678
v -0.005413 -0.016196 0.024315
v -0.005413 -0.011140 0.027017
v -0.005413 -0.005653 0.028682
v -0.005413 0.000051 0.029243
v -0.005413 0.005756 0.028681
v -0.005413 0.011242 0.027017
v -0.005413 0.016298 0.024315
v -0.005413 0.020729 0.020678
v -0.005413 0.024366 0.016247
v -0.005413 0.027069 0.011191
v -0.005413 0.028733 0.005705
v -0.005413 0.029295 -0.000000
v -0.005413 0.028733 -0.005705
v -0.005413 0.027068 -0.011191
v -0.005413 0.024366 -0.016247
v -0.005413 0.020729 -0.020678
v -0.005413 0.016298 -0.024315
v -0.005413 0.011242 -0.027017
v -0.005413 0.005756 -0.028682
v -0.005413 -0.028518 -0.143629
v -0.005413 0.000051 -0.146442
v -0.005413 -0.055990 -0.135295
v -0.005413 -0.081308 -0.121762
v -0.005413 -0.103499 -0.103550
v -0.005413 -0.121711 -0.081359
v -0.005413 -0.135244 -0.056041
v -0.005413 -0.143577 -0.028569
v -0.005413 -0.146391 0.000000
v -0.005413 -0.143577 0.028569
v -0.005413 -0.135244 0.056041
v -0.005413 -0.121711 0.081359
v -0.005413 -0.103499 0.103550
v -0.005413 -0.081308 0.121762
v -0.005413 -0.055990 0.135295
v -0.005413 -0.028518 0.143629
v -0.005413 0.000051 0.146442
v -0.005413 0.028621 0.143629
v -0.005413 0.056092 0.135295
v -0.005413 0.081410 0.121762
v -0.005413 0.103602 0.103550
v -0.005413 0.121814 0.081359
v -0.005413 0.135346 0.056041
v -0.005413 0.143680 0.028569
v -0.005413 0.146494 -0.000000
v -0.005413 0.143680 -0.028569
v -0.005413 0.135346 -0.056041
v -0.005413 0.121814 -0.081359
v -0.005413 0.103602 -0.103550
v -0.005413 0.081410 -0.121762
v -0.005413 0.056092 -0.135295
v -0.005413 0.028621 -0.143629
v 0.052588 -0.175020 -0.084564
v 0.052588 -0.155156 -0.117096
v 0.052588 -0.188154 -0.048785
v 0.052588 -0.183539 0.063998
v 0.052588 -0.192497 0.026949
v 0.052588 -0.167525 0.098587
v 0.052588 -0.084512 0.175072
v 0.052588 -0.117045 0.155208
v 0.052588 -0.048734 0.188205
v 0.052588 0.064049 0.183590
v 0.052588 0.027000 0.192548
v 0.052588 0.098638 0.167577
v 0.052588 0.175122 0.084565
v 0.052588 0.155259 0.117097
v 0.052588 0.188256 0.048785
v 0.052588 0.183641 -0.063997
v 0.052588 0.192600 -0.026949
v 0.052588 0.167628 -0.098586
v 0.052588 0.084615 -0.175071
v 0.052588 0.117147 -0.155208
v 0.052588 0.048837 -0.188205
v 0.052588 -0.063945 -0.183590
v 0.052588 -0.026898 -0.192548
v 0.052588 -0.098534 -0.167576
v 0.033941 0.048837 -0.188205
v 0.033941 0.064049 0.183590
v 0.033941 -0.155156 -0.117096
v 0.033941 0.098638 0.167577
v 0.033941 -0.175020 -0.084564
v 0.033941 -0.026898 -0.192548
v 0.033941 -0.188154 -0.048785
v 0.033941 -0.063945 -0.183590
v 0.033941 0.155259 0.117097
v 0.033941 -0.098534 -0.167576
v 0.033941 0.175122 0.084565
v 0.033941 -0.192497 0.026949
v 0.033941 0.188256 0.048785
v 0.033941 -0.183539 0.063998
v 0.033941 -0.167525 0.098587
v 0.033941 0.192600 -0.026949
v 0.033941 0.183641 -0.063997
v 0.033941 -0.117045 0.155208
v 0.033941 0.167628 -0.098586
v 0.033941 -0.084512 0.175072
v 0.033941 -0.048734 0.188205
v 0.033941 0.117147 -0.155208
v 0.033941 0.084615 -0.175071
v 0.033941 0.027000 0.192548
vn -0.0000 -0.0000 -1.0000
vn -0.0000 -0.1966 -0.9805
vn -0.0000 -0.3858 -0.9226
vn -0.0000 -0.5598 -0.8286
vn -0.0000 -0.7122 -0.7020
vn -0.0000 -0.8366 -0.5478
vn -0.0000 -0.9279 -0.3728
vn -0.0000 -0.9824 -0.1866
vn -0.0000 -1.0000 -0.0000
vn -0.0000 -0.9824 0.1866
vn -0.0000 -0.9279 0.3728
vn -0.0000 -0.8366 0.5478
vn -0.0000 -0.7122 0.7020
vn -0.0000 -0.5598 0.8286
vn -0.0000 -0.3858 0.9226
vn -0.0000 -0.1966 0.9805
vn -0.0000 -0.0000 1.0000
vn -0.0000 0.1967 0.9805
vn -0.0000 0.3858 0.9226
vn -0.0000 0.5598 0.8286
vn -0.0000 0.7122 0.7020
vn -0.0000 0.8366 0.5478
vn -0.0000 0.9279 0.3728
vn -0.0000 0.9824 0.1866
vn -0.0000 1.0000 -0.0000
vn -0.0000 0.9824 -0.1866
vn -0.0000 0.9279 -0.3728
vn -0.0000 0.8366 -0.5478
vn -0.0000 0.7122 -0.7020
vn -0.0000 0.5598 -0.8286
vn -0.0000 0.3858 -0.9226
vn -0.0000 0.1967 -0.9805
vn -1.0000 -0.0000 -0.0000
vn 1.0000 -0.0000 -0.0000
vn -0.0000 0.5599 -0.8286
vn -0.0000 0.1965 -0.9805
vn -0.0000 -0.5599 0.8286
vn -0.0000 0.5599 0.8286
vn -0.0000 -0.3857 -0.9226
vn -0.0000 -0.5599 -0.8286
vn 0.5855 -0.0000 0.8107
vn 0.5854 0.1467 0.7973
vn 0.5854 0.1716 0.7924
vn 0.5853 0.2907 0.7569
vn 0.5853 0.3332 0.7392
vn 0.5852 0.4277 0.6889
vn 0.5851 0.4773 0.6556
vn 0.5852 0.5519 0.5941
vn 0.5851 0.5989 0.5468
vn 0.5852 0.6577 0.4743
vn 0.5850 0.6944 0.4190
vn 0.5853 0.7396 0.3322
vn 0.5851 0.7613 0.2794
vn 0.5854 0.7924 0.1716
vn 0.5853 0.7991 0.1374
vn 0.5855 0.8107 -0.0000
vn 0.5854 0.7924 -0.1716
vn 0.5853 0.7991 -0.1374
vn 0.5853 0.7396 -0.3322
vn 0.5851 0.7613 -0.2794
vn 0.5852 0.6577 -0.4743
vn 0.5850 0.6944 -0.4190
vn 0.5852 0.5519 -0.5941
vn 0.5851 0.5989 -0.5468
vn 0.5852 0.4277 -0.6889
vn 0.5851 0.4773 -0.6556
vn 0.5853 0.2907 -0.7569
vn 0.5853 0.3332 -0.7392
vn 0.5854 0.1467 -0.7973
vn 0.5854 0.1716 -0.7924
vn 0.5855 -0.0000 -0.8107
vn 0.5854 -0.1467 -0.7973
vn 0.5854 -0.1716 -0.7924
vn 0.5853 -0.2907 -0.7569
vn 0.5853 -0.3332 -0.7392
vn 0.5852 -0.4277 -0.6889
vn 0.5851 -0.4773 -0.6556
vn 0.5852 -0.5519 -0.5941
vn 0.5851 -0.5989 -0.5468
vn 0.5852 -0.6577 -0.4743
vn 0.5850 -0.6944 -0.4190
vn 0.5853 -0.7396 -0.3322
vn 0.5851 -0.7613 -0.2794
vn 0.5854 -0.7924 -0.1716
vn 0.5853 -0.7991 -0.1374
vn 0.5855 -0.8107 -0.0000
vn 0.5854 -0.7924 0.1716
vn 0.5853 -0.7991 0.1374
vn 0.5853 -0.7396 0.3322
vn 0.5851 -0.7613 0.2794
vn 0.5852 -0.6577 0.4743
vn 0.5850 -0.6944 0.4190
vn 0.5852 -0.5519 0.5941
vn 0.5851 -0.5989 0.5468
vn 0.5852 -0.4277 0.6889
vn 0.5851 -0.4773 0.6556
vn 0.5853 -0.2907 0.7569
vn 0.5853 -0.3332 0.7392
vn 0.5854 -0.1467 0.7973
vn 0.5854 -0.1716 0.7924
vn -0.0000 0.4201 0.9075
vn -0.0000 0.3317 0.9434
vn -0.0000 -0.9050 -0.4255
vn -0.0000 -0.8535 -0.5211
vn -0.0000 -0.9387 -0.3446
vn -0.0000 -0.3318 -0.9434
vn -0.0000 -0.2350 -0.9720
vn -0.0000 -0.4201 -0.9075
vn -0.0000 0.9050 0.4255
vn -0.0000 0.8535 0.5211
vn -0.0000 0.9388 0.3446
vn -0.0000 -0.9477 0.3191
vn -0.0000 -0.9720 0.2350
vn -0.0000 -0.9075 0.4201
vn -0.0000 0.9477 -0.3191
vn -0.0000 0.9720 -0.2350
vn -0.0000 0.9075 -0.4201
vn -0.0000 -0.4384 0.8988
vn -0.0000 -0.5211 0.8535
vn -0.0000 -0.3446 0.9388
vn -0.0000 0.4384 -0.8988
vn -0.0000 0.5211 -0.8535
vn -0.0000 0.3446 -0.9387
vn -0.0000 0.2350 0.9720
vn -0.0000 -0.1967 -0.9805
vn -0.0000 -0.1967 0.9805
vn -0.0000 0.1966 0.9805
vn -0.0000 0.1966 -0.9805
vt 0.821538 0.330655
vt 0.910769 0.330655
vt 0.910769 0.384767
vt 0.821538 0.384767
vt 0.910769 0.434935
vt 0.821538 0.434935
vt 0.910769 0.479232
vt 0.821538 0.479232
vt 0.910769 0.515954
vt 0.821538 0.515954
vt 0.910769 0.543692
vt 0.821538 0.543692
vt 0.910769 0.561378
vt 0.821538 0.561378
vt 0.089231 0.732889
vt 0.000000 0.732889
vt 0.000000 0.714938
vt 0.089231 0.714938
vt 0.000000 0.693720
vt 0.089231 0.693720
vt 0.000000 0.670052
vt 0.089231 0.670052
vt 0.000000 0.644843
vt 0.089231 0.644843
vt 0.000000 0.619061
vt 0.089231 0.619061
vt 1.000000 0.553813
vt 0.910769 0.553813
vt 0.910769 0.524063
vt 1.000000 0.524063
vt 0.910769 0.485310
vt 1.000000 0.485310
vt 0.910769 0.439044
vt 1.000000 0.439044
vt 0.910769 0.387043
vt 1.000000 0.387043
vt 0.910769 0.331304
vt 1.000000 0.331304
vt 0.910769 0.273970
vt 1.000000 0.273970
vt 0.910769 0.217244
vt 1.000000 0.217244
vt 0.910769 0.163307
vt 1.000000 0.163307
vt 0.910769 0.114230
vt 1.000000 0.114230
vt 0.910769 0.071900
vt 1.000000 0.071900
vt 0.910769 0.037944
vt 1.000000 0.037944
vt 0.910769 0.013666
vt 1.000000 0.013666
vt 0.910769 0.000000
vt 1.000000 -0.000000
vt 0.821538 0.000000
vt 0.910769 0.014885
vt 0.821538 0.014885
vt 0.910769 0.040041
vt 0.821538 0.040041
vt 0.910769 0.074500
vt 0.821538 0.074500
vt 0.910769 0.116940
vt 0.821538 0.116940
vt 0.910769 0.165728
vt 0.821538 0.165728
vt 0.910769 0.218990
vt 0.821538 0.218990
vt 0.876501 0.929796
vt 0.876501 0.947573
vt 0.821538 0.947573
vt 0.821538 0.929796
vt 0.910769 0.274679
vt 0.821538 0.274679
vt 0.469897 0.313922
vt 0.465382 0.374224
vt 0.456527 0.432040
vt 0.443671 0.485148
vt 0.427308 0.531507
vt 0.408068 0.569336
vt 0.386689 0.597180
vt 0.363993 0.613970
vt 0.340852 0.619061
vt 0.318157 0.612257
vt 0.296778 0.593819
vt 0.277537 0.564456
vt 0.261174 0.525297
vt 0.248318 0.477846
vt 0.239463 0.423926
vt 0.234948 0.365610
vt 0.234948 0.305139
vt 0.239463 0.244837
vt 0.248318 0.187022
vt 0.261175 0.133914
vt 0.277537 0.087554
vt 0.296778 0.049726
vt 0.318157 0.021881
vt 0.340853 0.005091
vt 0.363993 -0.000000
vt 0.386689 0.006804
vt 0.408068 0.025242
vt 0.427308 0.054605
vt 0.443671 0.093764
vt 0.456527 0.141216
vt 0.465382 0.195135
vt 0.469897 0.253451
vt 0.022650 0.305986
vt 0.022650 0.354798
vt 0.000000 0.365610
vt 0.000000 0.305140
vt 0.026294 0.401870
vt 0.004514 0.423926
vt 0.033442 0.445393
vt 0.013370 0.477846
vt 0.043819 0.483696
vt 0.026226 0.525297
vt 0.057027 0.515305
vt 0.042589 0.564456
vt 0.072558 0.539007
vt 0.061829 0.593819
vt 0.089815 0.553890
vt 0.083208 0.612257
vt 0.108135 0.559382
vt 0.105904 0.619061
vt 0.126814 0.555273
vt 0.129044 0.613970
vt 0.145133 0.541720
vt 0.151740 0.597180
vt 0.162390 0.519244
vt 0.173119 0.569336
vt 0.177921 0.488709
vt 0.192360 0.531507
vt 0.191129 0.451288
vt 0.208722 0.485148
vt 0.201507 0.408419
vt 0.221579 0.432040
vt 0.208655 0.361751
vt 0.230434 0.374224
vt 0.212299 0.313075
vt 0.234948 0.313922
vt 0.212299 0.264264
vt 0.234948 0.253451
vt 0.208655 0.217191
vt 0.230434 0.195135
vt 0.201507 0.173668
vt 0.221579 0.141216
vt 0.191129 0.135365
vt 0.208722 0.093764
vt 0.177921 0.103756
vt 0.192360 0.054605
vt 0.162390 0.080055
vt 0.173119 0.025242
vt 0.145134 0.065172
vt 0.151740 0.006804
vt 0.126814 0.059679
vt 0.129044 -0.000000
vt 0.108135 0.063789
vt 0.105904 0.005091
vt 0.089815 0.077342
vt 0.083208 0.021881
vt 0.072558 0.099818
vt 0.061829 0.049726
vt 0.057027 0.130353
vt 0.042589 0.087554
vt 0.043819 0.167774
vt 0.026226 0.133913
vt 0.033442 0.210642
vt 0.013370 0.187021
vt 0.026294 0.257311
vt 0.004514 0.244837
vt 0.068758 0.775131
vt 0.068758 0.782238
vt 0.045613 0.782238
vt 0.045613 0.775131
vt 0.116766 0.754526
vt 0.116766 0.739532
vt 0.171728 0.739532
vt 0.171728 0.754526
vt 0.876501 0.905444
vt 0.821538 0.905444
vt 0.116766 0.771252
vt 0.171728 0.771252
vt 0.876501 0.875453
vt 0.821538 0.875453
vt 0.116766 0.789066
vt 0.171728 0.789066
vt 0.876501 0.840976
vt 0.821538 0.840976
vt 0.116766 0.807286
vt 0.171728 0.807285
vt 0.876501 0.803337
vt 0.821538 0.803337
vt 0.909226 0.759137
vt 0.909226 0.718620
vt 0.964188 0.718620
vt 0.964188 0.759137
vt 0.909226 0.582402
vt 0.909226 0.561378
vt 0.964188 0.561378
vt 0.964188 0.582402
vt 0.876501 0.763982
vt 0.821538 0.763982
vt 0.909226 0.799223
vt 0.964188 0.799223
vt 0.909226 0.609787
vt 0.964188 0.609787
vt 0.876501 0.724425
vt 0.821538 0.724425
vt 0.909226 0.837340
vt 0.964188 0.837340
vt 0.909226 0.642483
vt 0.964188 0.642483
vt 0.876501 0.686186
vt 0.821538 0.686186
vt 0.909226 0.872021
vt 0.964188 0.872021
vt 0.909226 0.679231
vt 0.964188 0.679231
vt 0.876501 0.650733
vt 0.821538 0.650733
vt 0.909226 0.901935
vt 0.964188 0.901935
vt 0.876501 0.619430
vt 0.821538 0.619430
vt 0.909226 0.925931
vt 0.964188 0.925931
vt 0.876501 0.593479
vt 0.821538 0.593479
vt 0.909226 0.943087
vt 0.964188 0.943087
vt 0.876501 0.573877
vt 0.821538 0.573877
vt 0.909226 0.952745
vt 0.964188 0.952745
vt 0.876501 0.561378
vt 0.876501 0.958091
vt 0.821538 0.958091
vt 0.116766 0.726846
vt 0.171728 0.726846
vt 0.723544 0.218178
vt 0.723544 0.225888
vt 0.655506 0.258368
vt 0.655506 0.215635
vt 0.724119 0.233324
vt 0.658696 0.299579
vt 0.725248 0.240199
vt 0.664954 0.337682
vt 0.726888 0.246249
vt 0.674039 0.371215
vt 0.728974 0.251242
vt 0.685602 0.398888
vt 0.731427 0.254986
vt 0.699199 0.419638
vt 0.734153 0.257337
vt 0.714307 0.432668
vt 0.737047 0.258204
vt 0.730346 0.437476
vt 0.739997 0.257555
vt 0.746698 0.433879
vt 0.742891 0.255414
vt 0.762737 0.422013
vt 0.745617 0.251864
vt 0.777845 0.402336
vt 0.748070 0.247041
vt 0.791442 0.375603
vt 0.750156 0.241130
vt 0.803005 0.342843
vt 0.751796 0.234358
vt 0.812090 0.305312
vt 0.752925 0.226987
vt 0.818348 0.264455
vt 0.753500 0.219298
vt 0.821538 0.221841
vt 0.753500 0.211588
vt 0.821538 0.179108
vt 0.752925 0.204152
vt 0.818348 0.137898
vt 0.751796 0.197277
vt 0.812090 0.099794
vt 0.750156 0.191227
vt 0.803005 0.066261
vt 0.748070 0.186234
vt 0.791442 0.038588
vt 0.745617 0.182490
vt 0.777845 0.017838
vt 0.742891 0.180139
vt 0.762737 0.004808
vt 0.739997 0.179272
vt 0.746698 -0.000000
vt 0.737047 0.179921
vt 0.730346 0.003598
vt 0.734153 0.182062
vt 0.714307 0.015463
vt 0.731427 0.185612
vt 0.699199 0.035140
vt 0.728974 0.190435
vt 0.685602 0.061873
vt 0.726888 0.196346
vt 0.674039 0.094634
vt 0.725248 0.203118
vt 0.664954 0.132164
vt 0.724119 0.210490
vt 0.658696 0.173021
vt 0.022469 0.793993
vt 0.022469 0.788345
vt 0.045613 0.788345
vt 0.045613 0.793993
vt 0.022469 0.760811
vt 0.022469 0.754020
vt 0.045613 0.754020
vt 0.045613 0.760811
vt 0.068758 0.767821
vt 0.045613 0.767821
vt 0.022469 0.798675
vt 0.045613 0.798675
vt 0.022469 0.767912
vt 0.045613 0.767912
vt 0.068758 0.760589
vt 0.045613 0.760589
vt 0.022469 0.802212
vt 0.045613 0.802212
vt 0.022469 0.775049
vt 0.045613 0.775049
vt 0.068758 0.753711
vt 0.045613 0.753711
vt 0.022469 0.804467
vt 0.045613 0.804467
vt 0.068758 0.747454
vt 0.045613 0.747454
vt 0.057838 0.803502
vt 0.060127 0.803502
vt 0.060127 0.826647
vt 0.057838 0.826647
vt 0.068758 0.742057
vt 0.045613 0.742057
vt 0.055133 0.803502
vt 0.055133 0.826647
vt 0.068758 0.737727
vt 0.045613 0.737727
vt 0.052115 0.803502
vt 0.052115 0.826647
vt 0.068758 0.734632
vt 0.045613 0.734632
vt 0.048900 0.803502
vt 0.048900 0.826647
vt 0.068758 0.732889
vt 0.045613 0.732889
vt 0.045613 0.803502
vt 0.045613 0.826647
vt 0.022469 0.734787
vt 0.022469 0.732889
vt 0.045613 0.734787
vt 0.068758 0.799709
vt 0.068758 0.803502
vt 0.045613 0.799709
vt 0.022469 0.737994
vt 0.045613 0.737994
vt 0.068758 0.794768
vt 0.045613 0.794768
vt 0.022469 0.742388
vt 0.045613 0.742388
vt 0.068758 0.788869
vt 0.045613 0.788869
vt 0.022469 0.781948
vt 0.045613 0.781948
vt 0.022469 0.747799
vt 0.045613 0.747799
vt 0.892863 0.760727
vt 0.892863 0.714448
vt 0.892863 0.806516
vt 0.892863 0.850054
vt 0.892863 0.889669
vt 0.052991 0.462008
vt 0.064554 0.489681
vt 0.078151 0.510431
vt 0.093259 0.523460
vt 0.109298 0.528269
vt 0.125651 0.524671
vt 0.141689 0.512806
vt 0.156797 0.493129
vt 0.170394 0.466396
vt 0.892863 0.852678
vt 0.892863 0.892059
vt 0.892863 0.809685
vt 0.892863 0.764733
vt 0.892863 0.719549
vt 0.892863 0.675871
vt 0.892863 0.635375
vt 0.892863 0.599619
vt 0.191042 0.190586
vt 0.181957 0.157054
vt 0.170394 0.129381
vt 0.156797 0.108631
vt 0.141689 0.095601
vt 0.125651 0.090793
vt 0.109298 0.094390
vt 0.093259 0.106256
vt 0.078151 0.125933
vt 0.064554 0.152665
vt 0.052991 0.185426
vt 0.892863 0.627481
vt 0.892863 0.590135
vt 0.892863 0.669456
vt 0.089055 0.732889
vt 0.089055 0.777077
vt 0.079992 0.777077
vt 0.079992 0.732889
vt 0.105002 0.982425
vt 0.105300 0.965783
vt 0.114361 0.965945
vt 0.114063 0.982587
vt 0.041670 0.804467
vt 0.041670 0.818020
vt 0.032608 0.818020
vt 0.032608 0.804467
vt 0.106964 0.872741
vt 0.107705 0.831331
vt 0.116766 0.831493
vt 0.116025 0.872903
vt 0.106300 0.909869
vt 0.115361 0.910031
vt 0.621342 0.532563
vt 0.621200 0.561942
vt 0.612138 0.561898
vt 0.612280 0.532519
vt 0.621448 0.510688
vt 0.612386 0.510644
vt 0.428458 0.802380
vt 0.428458 0.822361
vt 0.419395 0.822361
vt 0.419395 0.802380
vt 0.428458 0.781708
vt 0.419395 0.781708
vt 0.249363 0.744871
vt 0.249059 0.726995
vt 0.258120 0.726840
vt 0.258424 0.744717
vt 0.249800 0.770483
vt 0.258860 0.770329
vt 0.395446 0.822315
vt 0.395446 0.857882
vt 0.386384 0.857882
vt 0.386384 0.822315
vt 0.395446 0.781704
vt 0.386384 0.781704
vt 0.367174 0.823634
vt 0.367174 0.781703
vt 0.376236 0.781703
vt 0.376236 0.823634
vt 0.367174 0.868001
vt 0.376236 0.868001
vt 0.089055 0.823000
vt 0.079992 0.823000
vt 0.527744 0.658379
vt 0.526615 0.665253
vt 0.472630 0.610583
vt 0.477991 0.577939
vt 0.469897 0.642033
vt 0.469897 0.662591
vt 0.452871 0.662591
vt 0.452871 0.642033
vt 0.548112 0.716087
vt 0.550566 0.712343
vt 0.586354 0.834175
vt 0.574706 0.851952
vt 0.529383 0.652328
vt 0.485774 0.549211
vt 0.545386 0.718438
vt 0.561763 0.863115
vt 0.531469 0.647335
vt 0.495681 0.525504
vt 0.542493 0.719305
vt 0.548022 0.867234
vt 0.533923 0.643592
vt 0.507329 0.507727
vt 0.539542 0.718656
vt 0.534013 0.864152
vt 0.536649 0.641241
vt 0.520272 0.496564
vt 0.536649 0.716515
vt 0.520272 0.853987
vt 0.539542 0.640373
vt 0.534013 0.492445
vt 0.533923 0.712965
vt 0.507329 0.837129
vt 0.542493 0.641022
vt 0.548022 0.495527
vt 0.531469 0.708142
vt 0.495681 0.814227
vt 0.545387 0.643163
vt 0.561763 0.505692
vt 0.529383 0.702231
vt 0.485775 0.786161
vt 0.548112 0.646713
vt 0.574706 0.522550
vt 0.527744 0.695460
vt 0.477991 0.754008
vt 0.555996 0.686989
vt 0.555996 0.679279
vt 0.612138 0.677181
vt 0.612138 0.713791
vt 0.550566 0.651537
vt 0.586354 0.545452
vt 0.526615 0.688088
vt 0.472630 0.719005
vt 0.555420 0.694425
vt 0.609405 0.749096
vt 0.552652 0.657448
vt 0.596260 0.573518
vt 0.526039 0.680399
vt 0.469897 0.682498
vt 0.554291 0.701300
vt 0.604044 0.781740
vt 0.554291 0.664219
vt 0.604044 0.605670
vt 0.526039 0.672689
vt 0.469897 0.645888
vt 0.552652 0.707350
vt 0.596261 0.810467
vt 0.555420 0.671591
vt 0.609405 0.640673
vt 0.814773 0.808214
vt 0.814773 0.822543
vt 0.797747 0.822543
vt 0.797747 0.808214
vt 0.469897 0.627335
vt 0.452871 0.627335
vt 0.814773 0.792952
vt 0.797747 0.792952
vt 0.469897 0.619061
vt 0.452871 0.619061
vt 0.814773 0.777343
vt 0.797747 0.777343
vt 0.797747 0.446488
vt 0.797747 0.437476
vt 0.814773 0.437476
vt 0.814773 0.446488
vt 0.469897 0.936337
vt 0.469897 0.954348
vt 0.452871 0.954348
vt 0.452871 0.936337
vt 0.797747 0.461717
vt 0.814773 0.461717
vt 0.469897 0.912876
vt 0.452871 0.912876
vt 0.797747 0.482580
vt 0.814773 0.482580
vt 0.469897 0.884865
vt 0.452871 0.884865
vt 0.797747 0.670420
vt 0.797747 0.637660
vt 0.814773 0.637660
vt 0.814773 0.670420
vt 0.797747 0.508273
vt 0.814773 0.508273
vt 0.469897 0.853382
vt 0.452871 0.853382
vt 0.797747 0.700792
vt 0.814773 0.700792
vt 0.797747 0.537810
vt 0.814773 0.537810
vt 0.469897 0.819638
vt 0.452871 0.819638
vt 0.797747 0.727610
vt 0.814773 0.727610
vt 0.797747 0.570056
vt 0.814773 0.570056
vt 0.469897 0.784927
vt 0.452871 0.784927
vt 0.797747 0.749843
vt 0.814773 0.749843
vt 0.797747 0.603771
vt 0.814773 0.603771
vt 0.469897 0.750584
vt 0.452871 0.750584
vt 0.797747 0.766635
vt 0.814773 0.766635
vt 0.469897 0.717929
vt 0.452871 0.717929
vt 0.469897 0.688218
vt 0.452871 0.688218
vt 0.814773 0.835388
vt 0.814773 0.846256
vt 0.797747 0.846256
vt 0.797747 0.835388
vt 0.712424 0.624340
vt 0.712424 0.631650
vt 0.655506 0.658822
vt 0.655506 0.622212
vt 0.712970 0.638701
vt 0.658239 0.694128
vt 0.714041 0.645220
vt 0.663600 0.726771
vt 0.715595 0.650956
vt 0.671383 0.755499
vt 0.717573 0.655690
vt 0.681290 0.779206
vt 0.719899 0.659240
vt 0.692938 0.796983
vt 0.722484 0.661469
vt 0.705881 0.808146
vt 0.725228 0.662292
vt 0.719622 0.812265
vt 0.728025 0.661676
vt 0.733631 0.809183
vt 0.730769 0.659646
vt 0.747372 0.799018
vt 0.733354 0.656280
vt 0.760315 0.782160
vt 0.735680 0.651707
vt 0.771963 0.759259
vt 0.737658 0.646102
vt 0.781869 0.731192
vt 0.739212 0.639682
vt 0.789653 0.699040
vt 0.740283 0.632691
vt 0.795014 0.664037
vt 0.740829 0.625402
vt 0.797747 0.627529
vt 0.740829 0.618091
vt 0.797747 0.590920
vt 0.740283 0.611041
vt 0.795014 0.555614
vt 0.739212 0.604522
vt 0.789653 0.522970
vt 0.737658 0.598785
vt 0.781870 0.494243
vt 0.735680 0.594051
vt 0.771963 0.470535
vt 0.733354 0.590501
vt 0.760315 0.452758
vt 0.730769 0.588272
vt 0.747372 0.441595
vt 0.728025 0.587449
vt 0.733631 0.437476
vt 0.725228 0.588065
vt 0.719622 0.440558
vt 0.722484 0.590095
vt 0.705881 0.450723
vt 0.719899 0.593461
vt 0.692938 0.467581
vt 0.717573 0.598035
vt 0.681290 0.490483
vt 0.715595 0.603639
vt 0.671384 0.518549
vt 0.714041 0.610060
vt 0.663600 0.550702
vt 0.712970 0.617050
vt 0.658239 0.585705
s 1
usemtl Material.006
f 225/369/324 290/370/324 289/371/325 227/372/325
f 227/372/325 289/371/325 291/373/326 229/374/326
f 229/374/326 291/373/326 292/375/327 231/376/327
f 231/376/327 292/375/327 293/377/328 233/378/328
f 233/378/328 293/377/328 294/379/329 235/380/329
f 235/380/329 294/379/329 295/381/330 237/382/330
f 237/383/330 295/384/330 296/385/331 239/386/331
f 239/386/331 296/385/331 297/387/332 241/388/332
f 241/388/332 297/387/332 298/389/333 243/390/333
f 243/390/333 298/389/333 299/391/334 245/392/334
f 245/392/334 299/391/334 300/393/335 247/394/335
f 247/395/335 300/396/335 301/397/336 249/398/336
f 249/398/336 301/397/336 302/399/337 251/400/337
f 251/400/337 302/399/337 303/401/338 253/402/338
f 253/402/338 303/401/338 304/403/339 255/404/339
f 255/404/339 304/403/339 305/405/340 257/406/340
f 257/406/340 305/405/340 306/407/341 259/408/341
f 259/408/341 306/407/341 307/409/342 261/410/342
f 261/410/342 307/409/342 308/411/343 263/412/343
f 263/412/343 308/411/343 309/413/344 265/414/344
f 265/414/344 309/413/344 310/415/345 267/416/345
f 267/416/345 310/415/345 311/417/346 269/418/346
f 269/418/346 311/417/346 312/419/347 271/420/347
f 271/420/347 312/419/347 313/421/348 273/422/348
f 273/423/348 313/421/348 314/424/349 275/425/349
f 275/425/349 314/424/349 315/426/350 277/427/350
f 277/427/350 315/426/350 316/428/351 279/429/351
f 279/429/351 316/428/351 317/430/352 281/431/352
f 281/431/352 317/430/352 318/432/353 283/433/353
f 283/433/353 318/432/353 319/434/354 285/435/354
f 246/436/350 244/437/349 394/438/349 395/439/350
f 285/435/354 319/434/354 320/440/355 287/441/355
f 287/441/355 320/440/355 290/370/324 225/369/324
f 225/442/356 227/443/356 229/444/356 231/445/356 233/446/356 235/447/356 237/448/356 239/449/356 241/450/356 243/451/356 245/452/356 247/453/356 249/454/356 251/455/356 253/456/356 255/457/356 257/458/356 259/459/356 261/460/356 263/461/356 265/462/356 267/463/356 269/464/356 271/465/356 273/466/356 275/467/356 277/468/356 279/469/356 281/470/356 283/471/356 285/472/356 287/473/356
f 322/474/357 321/475/357 289/476/357 290/477/357
f 321/475/357 323/478/357 291/479/357 289/476/357
f 323/478/357 324/480/357 292/481/357 291/479/357
f 324/480/357 325/482/357 293/483/357 292/481/357
f 325/482/357 326/484/357 294/485/357 293/483/357
f 326/484/357 327/486/357 295/487/357 294/485/357
f 327/486/357 328/488/357 296/489/357 295/487/357
f 328/488/357 329/490/357 297/491/357 296/489/357
f 329/490/357 330/492/357 298/493/357 297/491/357
f 330/492/357 331/494/357 299/495/357 298/493/357
f 331/494/357 332/496/357 300/497/357 299/495/357
f 332/496/357 333/498/357 301/499/357 300/497/357
f 333/498/357 334/500/357 302/501/357 301/499/357
f 334/500/357 335/502/357 303/503/357 302/501/357
f 335/502/357 336/504/357 304/505/357 303/503/357
f 336/504/357 337/506/357 305/507/357 304/505/357
f 337/506/357 338/508/357 306/509/357 305/507/357
f 338/508/357 339/510/357 307/511/357 306/509/357
f 339/510/357 340/512/357 308/513/357 307/511/357
f 340/512/357 341/514/357 309/515/357 308/513/357
f 341/514/357 342/516/357 310/517/357 309/515/357
f 342/516/357 343/518/357 311/519/357 310/517/357
f 343/518/357 344/520/357 312/521/357 311/519/357
f 344/520/357 345/522/357 313/523/357 312/521/357
f 345/522/357 346/524/357 314/525/357 313/523/357
f 346/524/357 347/526/357 315/527/357 314/525/357
f 347/526/357 348/528/357 316/529/357 315/527/357
f 348/528/357 349/530/357 317/531/357 316/529/357
f 349/530/357 350/532/357 318/533/357 317/531/357
f 350/532/357 351/534/357 319/535/357 318/533/357
f 351/534/357 352/536/357 320/537/357 319/535/357
f 352/536/357 322/474/357 290/477/357 320/537/357
f 369/538/340 368/539/339 432/540/339 433/541/340
f 274/542/332 272/543/331 408/544/331 409/545/332
f 248/546/351 246/436/350 395/439/350 396/547/351
f 276/548/333 274/542/332 409/545/332 410/549/333
f 250/550/352 248/546/351 396/547/351 397/551/352
f 278/552/334 276/548/333 410/549/333 411/553/334
f 252/554/358 250/550/352 397/551/352 398/555/358
f 280/556/335 278/552/334 411/553/334 412/557/335
f 254/558/354 252/554/358 398/555/358 399/559/354
f 228/560/341 226/561/340 386/562/340 385/563/341
f 282/564/336 280/565/335 412/566/335 413/567/336
f 256/568/359 254/558/354 399/559/354 400/569/359
f 230/570/342 228/560/341 385/563/341 387/571/342
f 284/572/360 282/564/336 413/567/336 414/573/360
f 258/574/324 256/568/359 400/569/359 401/575/324
f 232/576/361 230/570/342 387/571/342 388/577/361
f 286/578/338 284/572/360 414/573/360 415/579/338
f 260/580/325 258/574/324 401/575/324 402/581/325
f 234/582/344 232/576/361 388/577/361 389/583/344
f 288/584/339 286/578/338 415/579/338 416/585/339
f 262/586/362 260/580/325 402/581/325 403/587/326
f 236/588/345 234/582/344 389/583/344 390/589/345
f 226/561/340 288/584/339 416/585/339 386/562/340
f 264/590/363 262/586/362 403/587/326 404/591/327
f 238/592/346 236/588/345 390/589/345 391/593/346
f 266/594/328 264/590/363 404/591/327 405/595/328
f 240/596/347 238/592/346 391/593/346 392/597/347
f 268/598/329 266/594/328 405/595/328 406/599/329
f 242/600/348 240/596/347 392/597/347 393/601/348
f 270/602/330 268/598/329 406/599/329 407/382/330
f 244/437/349 242/603/348 393/604/348 394/438/349
f 272/543/331 270/605/330 407/606/330 408/544/331
f 354/607/357 353/608/357 385/609/357 386/610/357
f 353/608/357 355/611/357 387/612/357 385/609/357
f 355/611/357 356/613/357 388/614/357 387/612/357
f 356/613/357 357/615/357 389/616/357 388/614/357
f 357/615/357 358/617/357 390/618/357 389/616/357
f 358/617/357 359/619/357 391/620/357 390/618/357
f 359/619/357 360/621/357 392/622/357 391/620/357
f 360/621/357 361/623/357 393/624/357 392/622/357
f 361/623/357 362/625/357 394/626/357 393/624/357
f 362/625/357 363/627/357 395/628/357 394/626/357
f 363/627/357 364/629/357 396/630/357 395/628/357
f 364/629/357 365/631/357 397/632/357 396/630/357
f 365/631/357 366/633/357 398/634/357 397/632/357
f 366/633/357 367/635/357 399/636/357 398/634/357
f 367/635/357 368/637/357 400/638/357 399/636/357
f 368/637/357 369/639/357 401/640/357 400/638/357
f 369/639/357 370/641/357 402/642/357 401/640/357
f 370/641/357 371/643/357 403/644/357 402/642/357
f 371/643/357 372/645/357 404/646/357 403/644/357
f 372/645/357 373/647/357 405/648/357 404/646/357
f 373/647/357 374/649/357 406/650/357 405/648/357
f 374/649/357 375/651/357 407/652/357 406/650/357
f 375/651/357 376/653/357 408/654/357 407/652/357
f 376/653/357 377/655/357 409/656/357 408/654/357
f 377/655/357 378/657/357 410/658/357 409/656/357
f 378/657/357 379/659/357 411/660/357 410/658/357
f 379/659/357 380/661/357 412/662/357 411/660/357
f 380/661/357 381/663/357 413/664/357 412/662/357
f 381/663/357 382/665/357 414/666/357 413/664/357
f 382/665/357 383/667/357 415/668/357 414/666/357
f 383/667/357 384/669/357 416/670/357 415/668/357
f 384/669/357 354/607/357 386/610/357 416/670/357
f 356/671/327 355/672/326 419/673/326 420/674/327
f 383/675/354 382/676/358 446/677/358 447/678/354
f 370/679/341 369/538/340 433/541/340 434/680/341
f 357/681/328 356/671/327 420/674/327 421/682/328
f 384/683/355 383/675/354 447/678/354 448/684/355
f 371/685/342 370/679/341 434/680/341 435/686/342
f 358/687/329 357/681/328 421/682/328 422/688/329
f 354/689/324 384/683/355 448/684/355 418/690/324
f 372/691/361 371/685/342 435/686/342 436/692/361
f 359/693/330 358/687/329 422/688/329 423/694/330
f 373/695/344 372/691/361 436/692/361 437/696/344
f 360/697/331 359/698/330 423/699/330 424/700/331
f 374/701/345 373/695/344 437/696/344 438/702/345
f 361/703/332 360/697/331 424/700/331 425/704/332
f 375/705/346 374/701/345 438/702/345 439/706/346
f 362/707/333 361/703/332 425/704/332 426/708/333
f 376/709/347 375/705/346 439/706/346 440/710/347
f 363/711/334 362/707/333 426/708/333 427/712/334
f 377/713/348 376/709/347 440/710/347 441/714/348
f 364/715/335 363/711/334 427/712/334 428/716/335
f 378/717/349 377/718/348 441/714/348 442/719/349
f 365/720/336 364/721/335 428/715/335 429/722/336
f 379/723/350 378/717/349 442/719/349 443/724/350
f 366/725/337 365/720/336 429/722/336 430/726/337
f 380/727/351 379/723/350 443/724/350 444/728/351
f 367/729/338 366/725/337 430/726/337 431/730/338
f 353/731/325 354/689/324 418/690/324 417/732/325
f 381/733/352 380/727/351 444/728/351 445/734/352
f 368/539/339 367/729/338 431/730/338 432/540/339
f 355/672/326 353/731/325 417/732/325 419/673/326
f 382/676/358 381/733/352 445/734/352 446/677/358
usemtl Material.007
f 226/561/364 228/560/365 321/735/366 322/736/364
f 228/560/365 230/570/367 323/737/368 321/735/366
f 230/570/367 232/576/369 324/738/370 323/737/368
f 232/576/369 234/582/371 325/739/372 324/738/370
f 234/740/371 236/741/373 326/484/374 325/482/372
f 236/741/373 238/742/375 327/486/376 326/484/374
f 238/742/375 240/743/377 328/488/378 327/486/376
f 240/743/377 242/744/379 329/490/379 328/488/378
f 242/744/379 244/745/380 330/492/381 329/490/379
f 244/745/380 246/746/382 331/494/383 330/492/381
f 246/746/382 248/747/384 332/496/385 331/494/383
f 248/747/384 250/748/386 333/498/387 332/496/385
f 250/550/386 252/554/388 334/749/389 333/750/387
f 252/554/388 254/558/390 335/751/391 334/749/389
f 254/558/390 256/568/392 336/752/393 335/751/391
f 256/568/392 258/574/394 337/753/394 336/752/393
f 258/574/394 260/580/395 338/754/396 337/753/394
f 260/580/395 262/586/397 339/755/398 338/754/396
f 262/586/397 264/590/399 340/756/400 339/755/398
f 264/757/399 266/758/401 341/514/402 340/512/400
f 266/758/401 268/759/403 342/516/404 341/514/402
f 268/759/403 270/760/405 343/518/406 342/516/404
f 270/760/405 272/761/407 344/520/408 343/518/406
f 272/761/407 274/762/409 345/522/409 344/520/408
f 274/762/409 276/763/410 346/524/411 345/522/409
f 276/763/410 278/764/412 347/526/413 346/524/411
f 278/764/412 280/765/414 348/528/415 347/526/413
f 280/765/414 282/766/416 349/530/417 348/528/415
f 282/766/416 284/767/418 350/532/419 349/530/417
f 284/572/418 286/578/420 351/768/421 350/769/419
f 286/578/420 288/584/422 352/770/423 351/768/421
f 288/584/422 226/561/364 322/736/364 352/770/423
f 572/771/424 570/772/425 554/773/425 556/774/424
f 573/775/426 571/776/427 546/777/427 545/778/426
f 575/779/428 573/780/426 545/781/426 547/782/428
f 576/783/429 574/784/430 567/785/430 566/786/429
f 578/787/431 576/783/429 566/786/429 568/788/431
f 579/789/432 577/790/433 558/791/433 557/792/432
f 581/793/434 579/789/432 557/792/432 559/794/434
f 582/795/435 580/796/436 549/797/436 548/798/435
f 583/799/437 582/795/435 548/798/435 550/800/437
f 585/801/438 584/802/439 561/803/439 560/804/438
f 587/805/440 585/801/438 560/804/438 562/806/440
f 588/807/441 586/808/442 552/809/442 551/810/441
f 589/811/443 588/807/441 551/810/441 553/812/443
f 591/813/444 590/814/445 564/815/445 563/816/444
f 569/817/446 591/813/444 563/816/444 565/818/446
f 570/772/425 592/819/447 555/820/447 554/773/425
usemtl Material.008
f 436/821/356 435/822/356 467/823/356 468/824/356
f 471/825/346 470/826/345 534/827/345 535/828/346
f 423/829/356 422/830/356 454/831/356 455/832/356
f 437/833/356 436/821/356 468/824/356 469/834/356
f 424/835/356 423/829/356 455/832/356 456/836/356
f 438/837/356 437/833/356 469/834/356 470/838/356
f 425/839/356 424/835/356 456/836/356 457/840/356
f 439/841/356 438/837/356 470/838/356 471/842/356
f 426/843/356 425/839/356 457/840/356 458/844/356
f 440/845/356 439/841/356 471/842/356 472/846/356
f 427/847/356 426/843/356 458/844/356 459/848/356
f 441/849/356 440/845/356 472/846/356 473/850/356
f 428/851/356 427/847/356 459/848/356 460/852/356
f 442/853/356 441/849/356 473/850/356 474/854/356
f 429/855/356 428/851/356 460/852/356 461/856/356
f 443/857/356 442/853/356 474/854/356 475/858/356
f 430/859/356 429/855/356 461/856/356 462/860/356
f 444/861/356 443/857/356 475/858/356 476/862/356
f 431/863/356 430/859/356 462/860/356 463/864/356
f 417/865/356 418/866/356 450/867/356 449/868/356
f 445/869/356 444/861/356 476/862/356 477/870/356
f 432/871/356 431/863/356 463/864/356 464/872/356
f 419/873/356 417/865/356 449/868/356 451/874/356
f 446/875/356 445/869/356 477/870/356 478/876/356
f 433/877/356 432/871/356 464/872/356 465/878/356
f 420/879/356 419/873/356 451/874/356 452/880/356
f 447/881/356 446/875/356 478/876/356 479/882/356
f 434/883/356 433/877/356 465/878/356 466/884/356
f 421/885/356 420/879/356 452/880/356 453/886/356
f 448/887/356 447/881/356 479/882/356 480/888/356
f 435/822/356 434/883/356 466/884/356 467/823/356
f 422/830/356 421/885/356 453/886/356 454/831/356
f 418/866/356 448/887/356 480/888/356 450/867/356
f 458/889/333 457/890/332 521/891/332 522/892/333
f 472/893/347 471/825/346 535/828/346 536/894/347
f 459/895/334 458/889/333 522/892/333 523/896/334
f 473/897/348 472/893/347 536/894/347 537/898/348
f 460/899/335 459/895/334 523/896/334 524/900/335
f 474/901/349 473/902/348 537/903/348 538/904/349
f 461/905/336 460/906/335 524/907/335 525/908/336
f 475/909/350 474/901/349 538/904/349 539/910/350
f 462/911/360 461/905/336 525/908/336 526/912/360
f 476/913/351 475/909/350 539/910/350 540/914/351
f 463/915/338 462/911/360 526/912/360 527/916/338
f 449/917/448 450/918/324 514/919/324 513/920/448
f 477/921/352 476/913/351 540/914/351 541/922/352
f 464/923/449 463/915/338 527/916/338 528/924/449
f 451/925/326 449/917/448 513/920/448 515/926/326
f 478/927/358 477/921/352 541/922/352 542/928/358
f 465/929/340 464/923/449 528/924/449 529/930/340
f 452/931/363 451/925/326 515/926/326 516/932/363
f 479/933/354 478/927/358 542/928/358 543/934/354
f 466/935/450 465/929/340 529/930/340 530/936/450
f 453/937/328 452/931/363 516/932/363 517/938/328
f 480/939/451 479/933/354 543/934/354 544/940/451
f 467/941/342 466/935/450 530/936/450 531/942/342
f 454/943/329 453/937/328 517/938/328 518/944/329
f 450/918/324 480/939/451 544/940/451 514/919/324
f 468/945/361 467/941/342 531/942/342 532/946/361
f 455/900/330 454/943/329 518/944/329 519/899/330
f 469/947/344 468/945/361 532/946/361 533/948/344
f 456/949/331 455/950/330 519/951/330 520/952/331
f 470/826/345 469/947/344 533/948/344 534/827/345
f 457/890/332 456/949/331 520/952/331 521/891/332
f 482/953/357 481/954/357 513/955/357 514/956/357
f 481/954/357 483/957/357 515/958/357 513/955/357
f 483/957/357 484/959/357 516/960/357 515/958/357
f 484/959/357 485/961/357 517/962/357 516/960/357
f 485/961/357 486/963/357 518/964/357 517/962/357
f 486/963/357 487/965/357 519/966/357 518/964/357
f 487/965/357 488/967/357 520/968/357 519/966/357
f 488/967/357 489/969/357 521/970/357 520/968/357
f 489/969/357 490/971/357 522/972/357 521/970/357
f 490/971/357 491/973/357 523/974/357 522/972/357
f 491/973/357 492/975/357 524/976/357 523/974/357
f 492/975/357 493/977/357 525/978/357 524/976/357
f 493/977/357 494/979/357 526/980/357 525/978/357
f 494/979/357 495/981/357 527/982/357 526/980/357
f 495/981/357 496/983/357 528/984/357 527/982/357
f 496/983/357 497/985/357 529/986/357 528/984/357
f 497/985/357 498/987/357 530/988/357 529/986/357
f 498/987/357 499/989/357 531/990/357 530/988/357
f 499/989/357 500/991/357 532/992/357 531/990/357
f 500/991/357 501/993/357 533/994/357 532/992/357
f 501/993/357 502/995/357 534/996/357 533/994/357
f 502/995/357 503/997/357 535/998/357 534/996/357
f 503/997/357 504/999/357 536/1000/357 535/998/357
f 504/999/357 505/1001/357 537/1002/357 536/1000/357
f 505/1001/357 506/1003/357 538/1004/357 537/1002/357
f 506/1003/357 507/1005/357 539/1006/357 538/1004/357
f 507/1005/357 508/1007/357 540/1008/357 539/1006/357
f 508/1007/357 509/1009/357 541/1010/357 540/1008/357
f 509/1009/357 510/1011/357 542/1012/357 541/1010/357
f 510/1011/357 511/1013/357 543/1014/357 542/1012/357
f 511/1013/357 512/1015/357 544/1016/357 543/1014/357
f 512/1015/357 482/953/357 514/956/357 544/1016/357
