# Blender 5.2.2 LTS
# www.blender.org
mtllib beatall_wheels.mtl
o front_left
v -0.051851 0.002375 -0.177125
v -0.051851 -0.065026 -0.163718
v -0.051851 -0.122165 -0.125539
v -0.051851 -0.160344 -0.068400
v -0.051851 -0.173750 -0.001000
v -0.051851 -0.160344 0.066400
v -0.051851 -0.122165 0.123539
v -0.051851 -0.065026 0.161718
v -0.051851 0.002375 0.175125
v -0.051851 0.069775 0.161718
v -0.051851 0.126914 0.123539
v -0.051851 0.165093 0.066400
v -0.051851 0.178500 -0.001000
v -0.051851 0.165093 -0.068400
v -0.051851 0.126914 -0.125539
v -0.051851 0.069775 -0.163718
v -0.042003 0.002375 -0.150613
v -0.042003 -0.054880 -0.139224
v -0.042003 -0.103418 -0.106792
v -0.042003 -0.135850 -0.058254
v -0.042003 -0.147238 -0.001000
v -0.042003 -0.135850 0.056254
v -0.042003 -0.103418 0.104792
v -0.042003 -0.054880 0.137224
v -0.042003 0.002375 0.148613
v -0.042003 0.059629 0.137224
v -0.042003 0.108167 0.104792
v -0.042003 0.140599 0.056254
v -0.042003 0.151988 -0.001000
v -0.042003 0.140599 -0.058254
v -0.042003 0.108167 -0.106792
v -0.042003 0.059629 -0.139224
v -0.063593 0.002375 -0.110941
v -0.063593 -0.039698 -0.102572
v -0.063593 -0.075365 -0.078740
v -0.063593 -0.099198 -0.043073
v -0.063593 -0.107566 -0.001000
v -0.063593 -0.099198 0.041073
v -0.063593 -0.075365 0.076740
v -0.063593 -0.039698 0.100572
v -0.063593 0.002375 0.108941
v -0.063593 0.044447 0.100572
v -0.063593 0.080115 0.076740
v -0.063593 0.103947 0.041073
v -0.063593 0.112316 -0.001000
v -0.063593 0.103947 -0.043073
v -0.063593 0.080115 -0.078740
v -0.063593 0.044447 -0.102572
v -0.081190 0.002375 -0.045528
v -0.081190 -0.014666 -0.042139
v -0.081190 -0.029112 -0.032486
v -0.081190 -0.038764 -0.018040
v -0.081190 -0.042154 -0.001000
v -0.081190 -0.038764 0.016040
v -0.081190 -0.029112 0.030486
v -0.081190 -0.014666 0.040139
v -0.081190 0.002375 0.043528
v -0.081190 0.019415 0.040139
v -0.081190 0.033861 0.030486
v -0.081190 0.043513 0.016040
v -0.081190 0.046903 -0.001000
v -0.081190 0.043513 -0.018040
v -0.081190 0.033861 -0.032486
v -0.081190 0.019415 -0.042139
v -0.016341 0.002375 -0.170062
v -0.016341 -0.062323 -0.157193
v -0.016341 0.067072 -0.157193
v -0.016341 0.002375 0.168062
v -0.016341 0.067072 0.155193
v -0.016341 -0.117170 -0.120545
v -0.016341 0.121919 0.118545
v -0.016341 -0.153818 -0.065697
v -0.016341 0.158567 0.063697
v -0.016341 -0.166687 -0.001000
v -0.016341 0.171436 -0.001000
v -0.016341 -0.153818 0.063697
v -0.016341 0.158567 -0.065697
v -0.016341 -0.117170 0.118545
v -0.016341 0.121919 -0.120545
v -0.016341 -0.062323 0.155193
v -0.051851 0.002375 -0.273028
v -0.033631 0.002375 -0.291605
v -0.033631 -0.108835 -0.269484
v -0.051851 -0.101726 -0.252321
v -0.033631 -0.203114 -0.206489
v -0.051851 -0.189978 -0.193353
v -0.033631 -0.266109 -0.112210
v -0.051851 -0.248946 -0.105101
v -0.033631 -0.288230 -0.001000
v -0.051851 -0.269653 -0.001000
v -0.033631 -0.266109 0.110210
v -0.051851 -0.248946 0.103100
v -0.033631 -0.203114 0.204489
v -0.051851 -0.189978 0.191353
v -0.033631 -0.108835 0.267484
v -0.051851 -0.101726 0.250321
v -0.033631 0.002375 0.289605
v -0.051851 0.002375 0.271028
v -0.033631 0.113584 0.267484
v -0.051851 0.106475 0.250321
v -0.033631 0.207863 0.204489
v -0.051851 0.194727 0.191353
v -0.033631 0.270858 0.110210
v -0.051851 0.253695 0.103100
v -0.033631 0.292979 -0.001000
v -0.051851 0.274402 -0.001000
v -0.033631 0.270858 -0.112210
v -0.051851 0.253695 -0.105101
v -0.033631 0.207863 -0.206489
v -0.051851 0.194727 -0.193353
v -0.033631 0.113584 -0.269484
v -0.051851 0.106475 -0.252321
v 0.013890 -0.108835 -0.269484
v 0.013890 0.002375 -0.291605
v 0.013890 0.113584 -0.269484
v 0.013890 -0.203114 -0.206489
v 0.013890 -0.266109 -0.112210
v 0.013890 -0.288230 -0.001000
v 0.013890 -0.266109 0.110210
v 0.013890 -0.203114 0.204489
v 0.013890 -0.108835 0.267484
v 0.013890 0.002375 0.289605
v 0.013890 0.113584 0.267484
v 0.013890 0.207863 0.204489
v 0.013890 0.270858 0.110210
v 0.013890 0.292979 -0.001000
v 0.013890 0.270858 -0.112210
v 0.013890 0.207863 -0.206489
v 0.079632 0.002375 -0.177125
v 0.079632 -0.065026 -0.163718
v 0.079632 -0.122165 -0.125539
v 0.079632 -0.160344 -0.068400
v 0.079632 -0.173750 -0.001000
v 0.079632 -0.160344 0.066400
v 0.079632 -0.122165 0.123539
v 0.079632 -0.065026 0.161718
v 0.079632 0.002375 0.175125
v 0.079632 0.069775 0.161718
v 0.079632 0.126914 0.123539
v 0.079632 0.165093 0.066400
v 0.079632 0.178500 -0.001000
v 0.079632 0.165093 -0.068400
v 0.079632 0.126914 -0.125539
v 0.079632 0.069775 -0.163718
v 0.069356 0.002375 -0.150613
v 0.069356 -0.054880 -0.139224
v 0.069356 -0.103418 -0.106792
v 0.069356 -0.135850 -0.058254
v 0.069356 -0.147238 -0.001000
v 0.069356 -0.135850 0.056254
v 0.069356 -0.103418 0.104792
v 0.069356 -0.054880 0.137224
v 0.069356 0.002375 0.148613
v 0.069356 0.059629 0.137224
v 0.069356 0.108167 0.104792
v 0.069356 0.140599 0.056254
v 0.069356 0.151988 -0.001000
v 0.069356 0.140599 -0.058254
v 0.069356 0.108167 -0.106792
v 0.069356 0.059629 -0.139224
v 0.026795 0.002375 -0.110941
v 0.026795 -0.039698 -0.102572
v 0.026795 -0.075365 -0.078740
v 0.026795 -0.099198 -0.043073
v 0.026795 -0.107566 -0.001000
v 0.026795 -0.099198 0.041073
v 0.026795 -0.075365 0.076740
v 0.026795 -0.039698 0.100572
v 0.026795 0.002375 0.108941
v 0.026795 0.044447 0.100572
v 0.026795 0.080115 0.076740
v 0.026795 0.103947 0.041073
v 0.026795 0.112316 -0.001000
v 0.026795 0.103947 -0.043073
v 0.026795 0.080115 -0.078740
v 0.026795 0.044447 -0.102572
v 0.037702 0.002375 -0.045528
v 0.037702 -0.014666 -0.042139
v 0.037702 -0.029112 -0.032486
v 0.037702 -0.038764 -0.018040
v 0.037702 -0.042154 -0.001000
v 0.037702 -0.038764 0.016040
v 0.037702 -0.029112 0.030486
v 0.037702 -0.014666 0.040139
v 0.037702 0.002375 0.043528
v 0.037702 0.019415 0.040139
v 0.037702 0.033861 0.030486
v 0.037702 0.043513 0.016040
v 0.037702 0.046903 -0.001000
v 0.037702 0.043513 -0.018040
v 0.037702 0.033861 -0.032486
v 0.037702 0.019415 -0.042139
v 0.060009 0.002375 -0.170062
v 0.060009 -0.062323 -0.157193
v 0.060009 0.067072 -0.157193
v 0.060009 0.002375 0.168062
v 0.060009 0.067072 0.155193
v 0.060009 -0.117170 -0.120545
v 0.060009 0.121919 0.118545
v 0.060009 -0.153818 -0.065697
v 0.060009 0.158567 0.063697
v 0.060009 -0.166687 -0.001000
v 0.060009 0.171436 -0.001000
v 0.060009 -0.153818 0.063697
v 0.060009 0.158567 -0.065697
v 0.060009 -0.117170 0.118545
v 0.060009 0.121919 -0.120545
v 0.060009 -0.062323 0.155193
v 0.079632 0.002375 -0.273028
v 0.061411 0.002375 -0.291605
v 0.061411 -0.108835 -0.269484
v 0.079632 -0.101726 -0.252321
v 0.061411 -0.203114 -0.206489
v 0.079632 -0.189978 -0.193353
v 0.061411 -0.266109 -0.112210
v 0.079632 -0.248946 -0.105101
v 0.061411 -0.288230 -0.001000
v 0.079632 -0.269653 -0.001000
v 0.061411 -0.266109 0.110210
v 0.079632 -0.248946 0.103100
v 0.061411 -0.203114 0.204489
v 0.079632 -0.189978 0.191353
v 0.061411 -0.108835 0.267484
v 0.079632 -0.101726 0.250321
v 0.061411 0.002375 0.289605
v 0.079632 0.002375 0.271028
v 0.061411 0.113584 0.267484
v 0.079632 0.106475 0.250321
v 0.061411 0.207863 0.204489
v 0.079632 0.194727 0.191353
v 0.061411 0.270858 0.110210
v 0.079632 0.253695 0.103100
v 0.061411 0.292979 -0.001000
v 0.079632 0.274402 -0.001000
v 0.061411 0.270858 -0.112210
v 0.079632 0.253695 -0.105101
v 0.061411 0.207863 -0.206489
v 0.079632 0.194727 -0.193353
v 0.061411 0.113584 -0.269484
v 0.079632 0.106475 -0.252321
v -0.050394 -0.126259 0.052282
v -0.060239 -0.108788 0.045045
v -0.053294 -0.126053 0.024760
v -0.050309 -0.130305 0.031701
v -0.053288 -0.105561 0.073237
v -0.050301 -0.113409 0.071421
v -0.057339 -0.118710 0.023722
v -0.060318 -0.112002 0.029113
v -0.057345 -0.099710 0.068653
v -0.060326 -0.098845 0.060014
v -0.050394 -0.126260 -0.054281
v -0.060239 -0.108788 -0.047044
v -0.053294 -0.106653 -0.073596
v -0.050309 -0.114567 -0.071695
v -0.053288 -0.126441 -0.024828
v -0.050301 -0.130706 -0.031662
v -0.057339 -0.100727 -0.069138
v -0.060318 -0.099795 -0.060582
v -0.057345 -0.119063 -0.023932
v -0.060326 -0.112342 -0.029429
v -0.050394 -0.050909 -0.129633
v -0.060239 -0.043672 -0.112161
v -0.053294 -0.023386 -0.129426
v -0.050309 -0.030327 -0.133679
v -0.053288 -0.071864 -0.108934
v -0.050301 -0.070047 -0.116783
v -0.057339 -0.022349 -0.122084
v -0.060318 -0.027740 -0.115375
v -0.057345 -0.067280 -0.103084
v -0.060326 -0.058640 -0.102218
v -0.050394 0.055654 -0.129633
v -0.060239 0.048418 -0.112162
v -0.053294 0.074970 -0.110026
v -0.050309 0.073069 -0.117941
v -0.053288 0.026201 -0.129814
v -0.050301 0.033035 -0.134080
v -0.057339 0.070511 -0.104100
v -0.060318 0.061956 -0.103169
v -0.057345 0.025305 -0.122436
v -0.060326 0.030802 -0.115715
v -0.050394 0.131006 -0.054282
v -0.060239 0.113535 -0.047045
v -0.053294 0.130800 -0.026760
v -0.050309 0.135052 -0.033700
v -0.053288 0.110308 -0.075237
v -0.050301 0.118156 -0.073421
v -0.057339 0.123457 -0.025722
v -0.060318 0.116749 -0.031113
v -0.057345 0.104457 -0.070653
v -0.060326 0.103591 -0.062014
v -0.050394 0.131006 0.052281
v -0.060239 0.113535 0.045044
v -0.053294 0.111399 0.071596
v -0.050309 0.119314 0.069695
v -0.053288 0.131188 0.022828
v -0.050301 0.135453 0.029662
v -0.057338 0.105474 0.067138
v -0.060318 0.104542 0.058582
v -0.057345 0.123810 0.021932
v -0.060326 0.117089 0.027429
v -0.050394 0.055655 0.127633
v -0.060239 0.048418 0.110161
v -0.053294 0.028133 0.127426
v -0.050309 0.035074 0.131679
v -0.053288 0.076610 0.106934
v -0.050301 0.074794 0.114783
v -0.057338 0.027096 0.120084
v -0.060318 0.032486 0.113375
v -0.057345 0.072027 0.101084
v -0.060326 0.063387 0.100218
v -0.050394 -0.050908 0.127633
v -0.060239 -0.043671 0.110162
v -0.053294 -0.070223 0.108026
v -0.050309 -0.068322 0.115941
v -0.053288 -0.021454 0.127815
v -0.050301 -0.028288 0.132080
v -0.057338 -0.065764 0.102100
v -0.060318 -0.057209 0.101169
v -0.057345 -0.020558 0.120436
v -0.060326 -0.026056 0.113715
v -0.050394 -0.126259 0.052282
v -0.060239 -0.108788 0.045045
v -0.053294 -0.126053 0.024760
v -0.050309 -0.130305 0.031701
v -0.053288 -0.105561 0.073237
v -0.050301 -0.113409 0.071421
v -0.057338 -0.118710 0.023722
v -0.060318 -0.112002 0.029113
v -0.057345 -0.099710 0.068653
v -0.060326 -0.098845 0.060014
v -0.051851 -0.065026 -0.163718
v -0.051851 0.002375 -0.177125
v -0.051851 -0.122165 -0.125539
v -0.051851 -0.160344 -0.068400
v -0.051851 -0.173750 -0.001000
v -0.051851 -0.160344 0.066400
v -0.051851 -0.122165 0.123539
v -0.051851 -0.065026 0.161718
v -0.051851 0.002375 0.175125
v -0.051851 0.069775 0.161718
v -0.051851 0.126914 0.123539
v -0.051851 0.165093 0.066400
v -0.051851 0.178500 -0.001000
v -0.051851 0.165093 -0.068400
v -0.051851 0.126914 -0.125539
v -0.051851 0.069775 -0.163718
v -0.016341 0.002375 0.168062
v -0.016341 -0.062323 0.155193
v -0.016341 0.067072 -0.157193
v -0.016341 0.121919 -0.120545
v -0.016341 -0.117170 0.118545
v -0.016341 0.158567 -0.065697
v -0.016341 -0.153818 0.063697
v -0.016341 0.171436 -0.001000
v -0.016341 -0.166687 -0.001000
v -0.016341 0.158567 0.063697
v -0.016341 -0.153818 -0.065697
v -0.016341 0.121919 0.118545
v -0.016341 -0.117170 -0.120545
v -0.016341 0.067072 0.155193
v -0.016341 -0.062323 -0.157193
v -0.016341 0.002375 -0.170062
v -0.051851 -0.101726 -0.252321
v -0.051851 0.002375 -0.273028
v -0.033631 0.002375 -0.291605
v -0.033631 -0.108835 -0.269484
v -0.051851 -0.189978 -0.193353
v -0.033631 -0.203114 -0.206489
v -0.051851 -0.248946 -0.105101
v -0.033631 -0.266109 -0.112210
v -0.051851 -0.269653 -0.001000
v -0.033631 -0.288230 -0.001000
v -0.051851 -0.248946 0.103100
v -0.033631 -0.266109 0.110210
v -0.051851 -0.189978 0.191353
v -0.033631 -0.203114 0.204489
v -0.051851 -0.101726 0.250321
v -0.033631 -0.108835 0.267484
v -0.051851 0.002375 0.271028
v -0.033631 0.002375 0.289605
v -0.051851 0.106475 0.250321
v -0.033631 0.113584 0.267484
v -0.051851 0.194727 0.191353
v -0.033631 0.207863 0.204489
v -0.051851 0.253695 0.103100
v -0.033631 0.270858 0.110210
v -0.051851 0.274402 -0.001000
v -0.033631 0.292979 -0.001000
v -0.051851 0.253695 -0.105101
v -0.033631 0.270858 -0.112210
v -0.051851 0.194727 -0.193353
v -0.033631 0.207863 -0.206489
v -0.051851 0.106475 -0.252321
v -0.033631 0.113584 -0.269484
v 0.079632 -0.065026 -0.163718
v 0.079632 0.002375 -0.177125
v 0.079632 -0.122165 -0.125539
v 0.079632 -0.160344 -0.068400
v 0.079632 -0.173750 -0.001000
v 0.079632 -0.160344 0.066400
v 0.079632 -0.122165 0.123539
v 0.079632 -0.065026 0.161718
v 0.079632 0.002375 0.175125
v 0.079632 0.069775 0.161718
v 0.079632 0.126914 0.123539
v 0.079632 0.165093 0.066400
v 0.079632 0.178500 -0.001000
v 0.079632 0.165093 -0.068400
v 0.079632 0.126914 -0.125539
v 0.079632 0.069775 -0.163718
v 0.069356 -0.054880 -0.139224
v 0.069356 0.002375 -0.150613
v 0.069356 -0.103418 -0.106792
v 0.069356 -0.135850 -0.058254
v 0.069356 -0.147238 -0.001000
v 0.069356 -0.135850 0.056254
v 0.069356 -0.103418 0.104792
v 0.069356 -0.054880 0.137224
v 0.069356 0.002375 0.148613
v 0.069356 0.059629 0.137224
v 0.069356 0.108167 0.104792
v 0.069356 0.140599 0.056254
v 0.069356 0.151988 -0.001000
v 0.069356 0.140599 -0.058254
v 0.069356 0.108167 -0.106792
v 0.069356 0.059629 -0.139224
v 0.026795 -0.039698 -0.102572
v 0.026795 0.002375 -0.110941
v 0.026795 -0.075365 -0.078740
v 0.026795 -0.099198 -0.043073
v 0.026795 -0.107566 -0.001000
v 0.026795 -0.099198 0.041073
v 0.026795 -0.075365 0.076740
v 0.026795 -0.039698 0.100572
v 0.026795 0.002375 0.108941
v 0.026795 0.044447 0.100572
v 0.026795 0.080115 0.076740
v 0.026795 0.103947 0.041073
v 0.026795 0.112316 -0.001000
v 0.026795 0.103947 -0.043073
v 0.026795 0.080115 -0.078740
v 0.026795 0.044447 -0.102572
v 0.060009 0.002375 0.168062
v 0.060009 -0.062323 0.155193
v 0.060009 0.067072 -0.157193
v 0.060009 0.121919 -0.120545
v 0.060009 -0.117170 0.118545
v 0.060009 0.158567 -0.065697
v 0.060009 -0.153818 0.063697
v 0.060009 0.171436 -0.001000
v 0.060009 -0.166687 -0.001000
v 0.060009 0.158567 0.063697
v 0.060009 -0.153818 -0.065697
v 0.060009 0.121919 0.118545
v 0.060009 -0.117170 -0.120545
v 0.060009 0.067072 0.155193
v 0.060009 -0.062323 -0.157193
v 0.060009 0.002375 -0.170062
v 0.079632 -0.101726 -0.252321
v 0.079632 0.002375 -0.273028
v 0.061411 0.002375 -0.291605
v 0.061411 -0.108835 -0.269484
v 0.079632 -0.189978 -0.193353
v 0.061411 -0.203114 -0.206489
v 0.079632 -0.248946 -0.105101
v 0.061411 -0.266109 -0.112210
v 0.079632 -0.269653 -0.001000
v 0.061411 -0.288230 -0.001000
v 0.079632 -0.248946 0.103100
v 0.061411 -0.266109 0.110210
v 0.079632 -0.189978 0.191353
v 0.061411 -0.203114 0.204489
v 0.079632 -0.101726 0.250321
v 0.061411 -0.108835 0.267484
v 0.079632 0.002375 0.271028
v 0.061411 0.002375 0.289605
v 0.079632 0.106475 0.250321
v 0.061411 0.113584 0.267484
v 0.079632 0.194727 0.191353
v 0.061411 0.207863 0.204489
v 0.079632 0.253695 0.103100
v 0.061411 0.270858 0.110210
v 0.079632 0.274402 -0.001000
v 0.061411 0.292979 -0.001000
v 0.079632 0.253695 -0.105101
v 0.061411 0.270858 -0.112210
v 0.079632 0.194727 -0.193353
v 0.061411 0.207863 -0.206489
v 0.079632 0.106475 -0.252321
v 0.061411 0.113584 -0.269484
vn -0.6040 -0.0000 -0.7970
vn -0.6040 -0.3050 -0.7363
vn -0.7454 -0.2551 -0.6159
vn -0.7454 -0.0000 -0.6667
vn -0.6040 0.3050 -0.7363
vn -0.7454 0.2551 -0.6159
vn -0.6040 -0.0000 0.7970
vn -0.6040 0.3050 0.7363
vn -0.7454 0.2551 0.6159
vn -0.7454 -0.0000 0.6667
vn -0.6040 -0.5635 -0.5635
vn -0.7454 -0.4714 -0.4714
vn -0.6040 0.5635 0.5635
vn -0.7454 0.4714 0.4714
vn -0.6040 -0.7363 -0.3050
vn -0.7454 -0.6159 -0.2551
vn -0.6040 0.7363 0.3050
vn -0.7454 0.6159 0.2551
vn -0.6040 -0.7970 -0.0000
vn -0.7454 -0.6667 -0.0000
vn -0.6040 0.7970 -0.0000
vn -0.7454 0.6667 -0.0000
vn -0.6040 -0.7363 0.3050
vn -0.7454 -0.6159 0.2551
vn -0.6040 0.7363 -0.3050
vn -0.7454 0.6159 -0.2551
vn -0.6040 -0.5635 0.5635
vn -0.7454 -0.4714 0.4714
vn -0.6040 0.5635 -0.5635
vn -0.7454 0.4714 -0.4714
vn -0.6040 -0.3050 0.7363
vn -0.7454 -0.2551 0.6159
vn -0.9233 -0.2715 0.2715
vn -0.9233 -0.3548 0.1469
vn -0.9233 0.2715 -0.2715
vn -0.9233 0.3548 -0.1469
vn -0.9233 -0.1469 0.3548
vn -0.9233 0.1469 -0.3548
vn -0.9233 -0.0000 0.3840
vn -0.9233 -0.1469 -0.3548
vn -0.9233 -0.0000 -0.3840
vn -0.9233 0.1469 0.3548
vn -0.9233 -0.2715 -0.2715
vn -0.9233 0.2715 0.2715
vn -0.9233 -0.3548 -0.1469
vn -0.9233 0.3548 0.1469
vn -0.9233 -0.3840 -0.0000
vn -0.9233 0.3840 -0.0000
vn -0.9891 0.1358 0.0563
vn -0.9891 0.1040 0.1040
vn -0.9891 -0.1470 -0.0000
vn -0.9891 -0.1358 -0.0563
vn -0.9891 0.1470 -0.0000
vn -0.9891 -0.1358 0.0563
vn -0.9891 0.1358 -0.0563
vn -0.9891 -0.1040 0.1040
vn -0.9891 0.1040 -0.1040
vn -0.9891 -0.0563 0.1359
vn -0.9891 0.0563 -0.1358
vn -0.9891 -0.0000 0.1470
vn -0.9891 -0.0563 -0.1358
vn -0.9891 -0.0000 -0.1470
vn -0.9891 0.0563 0.1358
vn -0.9891 -0.1040 -0.1040
vn -1.0000 -0.0000 -0.0000
vn -0.1951 0.3753 -0.9061
vn -0.1951 -0.0000 -0.9808
vn -0.1951 -0.6935 0.6935
vn -0.1951 -0.3753 0.9061
vn -0.1951 0.6935 -0.6935
vn -0.1951 -0.9061 0.3753
vn -0.1951 0.9061 -0.3753
vn -0.1951 -0.9808 -0.0000
vn -0.1951 0.9808 -0.0000
vn -0.1951 -0.9061 -0.3753
vn -0.1951 0.9061 0.3753
vn -0.1951 -0.6935 -0.6935
vn -0.1951 0.6935 0.6935
vn -0.1951 -0.3753 -0.9061
vn -0.1951 0.3753 0.9061
vn -0.1951 -0.0000 0.9808
vn -0.7139 -0.2680 -0.6469
vn -0.7139 -0.0000 -0.7002
vn -0.7139 -0.4951 -0.4951
vn -0.7139 -0.6469 -0.2680
vn -0.7139 -0.7002 -0.0000
vn -0.7139 -0.6469 0.2680
vn -0.7139 -0.4951 0.4951
vn -0.7139 -0.2680 0.6469
vn -0.7139 -0.0000 0.7002
vn -0.7139 0.2680 0.6469
vn -0.7139 0.4951 0.4951
vn -0.7139 0.6469 0.2680
vn -0.7139 0.7002 -0.0000
vn -0.7139 0.6469 -0.2680
vn -0.7139 0.4951 -0.4951
vn -0.7139 0.2680 -0.6469
vn -0.0000 -0.3827 -0.9239
vn -0.0000 -0.0000 -1.0000
vn -0.0000 -0.9239 -0.3827
vn -0.0000 -0.7071 -0.7071
vn -0.0000 0.7071 0.7071
vn -0.0000 0.3827 0.9239
vn -0.0000 0.3827 -0.9239
vn -0.0000 -0.0000 1.0000
vn -0.0000 -0.3827 0.9239
vn -0.0000 0.7071 -0.7071
vn -0.0000 -0.7071 0.7071
vn -0.0000 0.9239 -0.3827
vn -0.0000 -0.9239 0.3827
vn -0.0000 1.0000 -0.0000
vn -0.0000 -1.0000 -0.0000
vn -0.0000 0.9239 0.3827
vn 0.9013 -0.0000 -0.4332
vn 0.9013 -0.1658 -0.4002
vn 0.9013 0.1658 -0.4002
vn 0.9013 -0.0000 0.4332
vn 0.9013 0.1658 0.4002
vn 0.9013 -0.3063 -0.3063
vn 0.9013 0.3063 0.3063
vn 0.9013 -0.4002 -0.1658
vn 0.9013 0.4002 0.1658
vn 0.9013 -0.4332 -0.0000
vn 0.9013 0.4332 -0.0000
vn 0.9013 -0.4002 0.1658
vn 0.9013 0.4002 -0.1658
vn 0.9013 -0.3063 0.3063
vn 0.9013 0.3063 -0.3063
vn 0.9013 -0.1658 0.4002
vn 0.6818 0.6758 -0.2799
vn 0.6818 0.5172 -0.5173
vn 0.6818 0.5172 -0.5172
vn 0.6818 -0.6758 0.2799
vn 0.6818 -0.5172 0.5173
vn 0.6818 0.2799 -0.6758
vn 0.6818 -0.2799 0.6758
vn 0.6818 -0.0000 -0.7315
vn 0.6818 -0.0000 0.7315
vn 0.6818 0.2799 0.6758
vn 0.6818 -0.2799 -0.6758
vn 0.6818 0.5172 0.5172
vn 0.6818 -0.5172 -0.5173
vn 0.6818 0.6758 0.2799
vn 0.6818 -0.6758 -0.2799
vn 0.6818 0.7315 -0.0000
vn 0.6818 -0.7315 -0.0000
vn 0.9864 0.1163 0.1163
vn 0.9957 0.0656 0.0656
vn 0.9957 0.0857 0.0355
vn 0.9864 0.1519 0.0629
vn 0.9864 -0.1520 -0.0629
vn 0.9957 -0.0857 -0.0355
vn 0.9957 -0.0927 -0.0000
vn 0.9864 -0.1645 -0.0000
vn 0.9957 0.0927 -0.0000
vn 0.9864 0.1645 -0.0000
vn 0.9957 -0.0857 0.0355
vn 0.9864 -0.1519 0.0629
vn 0.9957 0.0857 -0.0355
vn 0.9864 0.1520 -0.0629
vn 0.9957 -0.0656 0.0656
vn 0.9864 -0.1163 0.1163
vn 0.9957 0.0656 -0.0656
vn 0.9864 0.1163 -0.1163
vn 0.9957 -0.0355 0.0857
vn 0.9864 -0.0629 0.1520
vn 0.9957 0.0355 -0.0857
vn 0.9864 0.0629 -0.1520
vn 0.9957 -0.0000 0.0927
vn 0.9864 -0.0000 0.1645
vn 0.9864 -0.0000 -0.1645
vn 0.9957 -0.0000 -0.0927
vn 0.9957 -0.0355 -0.0857
vn 0.9864 -0.0629 -0.1520
vn 0.9957 0.0355 0.0857
vn 0.9864 0.0629 0.1520
vn 0.9957 -0.0656 -0.0656
vn 0.9864 -0.1163 -0.1163
vn 1.0000 -0.0000 -0.0000
vn 0.3387 0.3601 -0.8693
vn 0.3387 -0.0000 -0.9409
vn 0.3387 -0.6653 0.6653
vn 0.3387 -0.3601 0.8693
vn 0.3387 0.6653 -0.6653
vn 0.3387 -0.8693 0.3601
vn 0.3387 0.8693 -0.3601
vn 0.3387 -0.9409 -0.0000
vn 0.3387 0.9409 -0.0000
vn 0.3387 -0.8693 -0.3601
vn 0.3387 0.8693 0.3601
vn 0.3387 -0.6653 -0.6653
vn 0.3387 0.6653 0.6653
vn 0.3387 -0.3601 -0.8693
vn 0.3387 0.3601 0.8693
vn 0.3387 -0.0000 0.9409
vn 0.7139 -0.2680 -0.6469
vn 0.7139 -0.0000 -0.7002
vn 0.7139 -0.4951 -0.4951
vn 0.7139 -0.6469 -0.2680
vn 0.7139 -0.7002 -0.0000
vn 0.7139 -0.6469 0.2680
vn 0.7139 -0.4951 0.4951
vn 0.7139 -0.2680 0.6469
vn 0.7139 -0.0000 0.7002
vn 0.7139 0.2680 0.6469
vn 0.7139 0.4951 0.4951
vn 0.7139 0.6469 0.2680
vn 0.7139 0.7002 -0.0000
vn 0.7139 0.6469 -0.2680
vn 0.7139 0.4951 -0.4951
vn 0.7139 0.2680 -0.6469
vn -0.8844 -0.4312 0.1787
vn -0.8805 -0.3942 0.2634
vn -0.8807 -0.4646 0.0924
vn -0.8844 -0.4313 -0.1786
vn -0.8805 -0.4650 -0.0925
vn -0.8807 -0.3938 -0.2632
vn -0.8844 -0.1787 -0.4312
vn -0.8805 -0.2634 -0.3942
vn -0.8807 -0.0924 -0.4646
vn -0.8844 0.1786 -0.4313
vn -0.8805 0.0924 -0.4650
vn -0.8807 0.2632 -0.3938
vn -0.8844 0.4312 -0.1787
vn -0.8805 0.3942 -0.2634
vn -0.8807 0.4646 -0.0924
vn -0.8844 0.4313 0.1786
vn -0.8805 0.4650 0.0925
vn -0.8807 0.3938 0.2632
vn -0.8844 0.1787 0.4312
vn -0.8805 0.2634 0.3942
vn -0.8807 0.0924 0.4646
vn -0.8844 -0.1786 0.4313
vn -0.8805 -0.0924 0.4650
vn -0.8807 -0.2632 0.3938
vt 0.072041 0.934898
vt 0.255921 0.952323
vt 0.883421 0.883421
vt 0.881815 0.882523
s 1
usemtl baseGradient.007
f 65/1/1 361/1/2 18/1/3 17/1/4
f 67/1/5 65/1/1 17/1/4 32/1/6
f 68/1/7 360/1/8 26/1/9 25/1/10
f 361/1/2 359/1/11 19/1/12 18/1/3
f 360/1/8 358/1/13 27/1/14 26/1/9
f 359/1/11 357/1/15 20/1/16 19/1/12
f 358/1/13 356/1/17 28/1/18 27/1/14
f 357/1/15 355/1/19 21/1/20 20/1/16
f 356/1/17 354/1/21 29/1/22 28/1/18
f 355/1/19 353/1/23 22/1/24 21/1/20
f 354/1/21 352/1/25 30/1/26 29/1/22
f 353/1/23 351/1/27 23/1/28 22/1/24
f 352/1/25 350/1/29 31/1/30 30/1/26
f 351/1/27 348/1/31 24/1/32 23/1/28
f 350/1/29 67/1/5 32/1/6 31/1/30
f 348/1/31 68/1/7 25/1/10 24/1/32
f 22/1/24 23/1/28 39/1/33 38/1/34
f 30/1/26 31/1/30 47/1/35 46/1/36
f 23/1/28 24/1/32 40/1/37 39/1/33
f 31/1/30 32/1/6 48/1/38 47/1/35
f 24/1/32 25/1/10 41/1/39 40/1/37
f 17/1/4 18/1/3 34/1/40 33/1/41
f 32/1/6 17/1/4 33/1/41 48/1/38
f 25/1/10 26/1/9 42/1/42 41/1/39
f 18/1/3 19/1/12 35/1/43 34/1/40
f 26/1/9 27/1/14 43/1/44 42/1/42
f 19/1/12 20/1/16 36/1/45 35/1/43
f 27/1/14 28/1/18 44/1/46 43/1/44
f 20/1/16 21/1/20 37/1/47 36/1/45
f 28/1/18 29/1/22 45/1/48 44/1/46
f 21/1/20 22/1/24 38/1/34 37/1/47
f 29/1/22 30/1/26 46/1/36 45/1/48
f 43/2/44 44/2/46 60/2/49 59/2/50
f 36/2/45 37/2/47 53/2/51 52/2/52
f 44/2/46 45/2/48 61/2/53 60/2/49
f 37/2/47 38/2/34 54/2/54 53/2/51
f 45/2/48 46/2/36 62/2/55 61/2/53
f 38/2/34 39/2/33 55/2/56 54/2/54
f 46/2/36 47/2/35 63/2/57 62/2/55
f 39/2/33 40/2/37 56/2/58 55/2/56
f 47/2/35 48/2/38 64/2/59 63/2/57
f 40/2/37 41/2/39 57/2/60 56/2/58
f 33/2/41 34/2/40 50/2/61 49/2/62
f 48/2/38 33/2/41 49/2/62 64/2/59
f 41/2/39 42/2/42 58/2/63 57/2/60
f 34/2/40 35/2/43 51/2/64 50/2/61
f 42/2/42 43/2/44 59/2/50 58/2/63
f 35/2/43 36/2/45 52/2/52 51/2/64
f 100/3/65 102/3/65 341/3/65 340/3/65
f 86/3/65 88/3/65 334/3/65 333/3/65
f 102/3/65 104/3/65 342/3/65 341/3/65
f 88/3/65 90/3/65 335/3/65 334/3/65
f 104/3/65 106/3/65 343/3/65 342/3/65
f 90/3/65 92/3/65 336/3/65 335/3/65
f 106/3/65 108/3/65 344/3/65 343/3/65
f 92/3/65 94/3/65 337/3/65 336/3/65
f 108/3/65 110/3/65 345/3/65 344/3/65
f 94/3/65 96/3/65 338/3/65 337/3/65
f 110/3/65 112/3/65 346/3/65 345/3/65
f 96/3/65 98/3/65 339/3/65 338/3/65
f 364/3/65 84/3/65 331/3/65 332/3/65
f 112/3/65 364/3/65 332/3/65 346/3/65
f 98/3/65 100/3/65 340/3/65 339/3/65
f 84/3/65 86/3/65 333/3/65 331/3/65
f 8/1/66 9/1/67 347/1/67 80/1/66
f 15/1/68 16/1/69 349/1/69 79/1/68
f 7/1/70 8/1/66 80/1/66 78/1/70
f 14/1/71 15/1/68 79/1/68 77/1/71
f 6/1/72 7/1/70 78/1/70 76/1/72
f 13/1/73 14/1/71 77/1/71 75/1/73
f 5/1/74 6/1/72 76/1/72 74/1/74
f 12/1/75 13/1/73 75/1/73 73/1/75
f 4/1/76 5/1/74 74/1/74 72/1/76
f 11/1/77 12/1/75 73/1/75 71/1/77
f 3/1/78 4/1/76 72/1/76 70/1/78
f 10/1/79 11/1/77 71/1/77 69/1/79
f 2/1/80 3/1/78 70/1/78 66/1/80
f 9/1/67 10/1/79 69/1/79 347/1/67
f 16/1/69 1/1/81 362/1/81 349/1/69
f 1/1/81 2/1/80 66/1/80 362/1/81
f 50/2/61 51/2/64 52/2/52 53/2/51 54/2/54 55/2/56 56/2/58 57/2/60 58/2/63 59/2/50 60/2/49 61/2/53 62/2/55 63/2/57 64/2/59 49/2/62
f 363/3/82 81/3/83 365/3/83 366/3/82
f 367/3/84 363/3/82 366/3/82 368/3/84
f 369/3/85 367/3/84 368/3/84 370/3/85
f 371/3/86 369/3/85 370/3/85 372/3/86
f 373/3/87 371/3/86 372/3/86 374/3/87
f 375/3/88 373/3/87 374/3/87 376/3/88
f 377/3/89 375/3/88 376/3/88 378/3/89
f 379/3/90 377/3/89 378/3/89 380/3/90
f 381/3/91 379/3/90 380/3/90 382/3/91
f 383/3/92 381/3/91 382/3/91 384/3/92
f 385/3/93 383/3/92 384/3/92 386/3/93
f 387/3/94 385/3/93 386/3/93 388/3/94
f 389/3/95 387/3/94 388/3/94 390/3/95
f 391/3/96 389/3/95 390/3/95 392/3/96
f 393/3/97 391/3/96 392/3/96 394/3/97
f 81/3/83 393/3/97 394/3/97 365/3/83
f 83/3/98 82/3/99 114/3/99 113/3/98
f 87/3/100 85/3/101 116/3/101 117/3/100
f 101/3/102 99/3/103 123/3/103 124/3/102
f 85/3/101 83/3/98 113/3/98 116/3/101
f 82/3/99 111/3/104 115/3/104 114/3/99
f 99/3/103 97/3/105 122/3/105 123/3/103
f 97/3/105 95/3/106 121/3/106 122/3/105
f 111/3/104 109/3/107 128/3/107 115/3/104
f 95/3/106 93/3/108 120/3/108 121/3/106
f 109/3/107 107/3/109 127/3/109 128/3/107
f 93/3/108 91/3/110 119/3/110 120/3/108
f 107/3/109 105/3/111 126/3/111 127/3/109
f 91/3/110 89/3/112 118/3/112 119/3/110
f 105/3/111 103/3/113 125/3/113 126/3/111
f 89/3/112 87/3/100 117/3/100 118/3/112
f 103/3/113 101/3/102 124/3/102 125/3/113
f 193/3/114 412/3/114 411/3/115 457/3/115
f 195/3/116 426/3/116 412/3/114 193/3/114
f 196/3/117 419/3/117 420/3/118 456/3/118
f 457/3/115 411/3/115 413/3/119 455/3/119
f 456/3/118 420/3/118 421/3/120 454/3/120
f 455/3/119 413/3/119 414/3/121 453/3/121
f 454/3/120 421/3/120 422/3/122 452/3/122
f 453/3/121 414/3/121 415/3/123 451/3/123
f 452/3/122 422/3/122 423/3/124 450/3/124
f 451/3/123 415/3/123 416/3/125 449/3/125
f 450/3/124 423/3/124 424/3/126 448/3/126
f 449/3/125 416/3/125 417/3/127 447/3/127
f 448/3/126 424/3/126 425/3/128 446/3/128
f 447/3/127 417/3/127 418/3/129 444/3/129
f 446/3/128 425/3/128 426/3/116 195/3/116
f 444/3/129 418/3/129 419/3/117 196/3/117
f 150/3/130 432/3/130 433/3/131 151/3/132
f 158/3/133 440/3/133 441/3/134 159/3/134
f 151/3/132 433/3/131 434/3/135 152/3/135
f 159/3/134 441/3/134 442/3/136 160/3/136
f 152/3/135 434/3/135 435/3/137 153/3/137
f 145/3/138 428/3/138 427/3/139 146/3/139
f 160/3/136 442/3/136 428/3/138 145/3/138
f 153/3/137 435/3/137 436/3/140 154/3/140
f 146/3/139 427/3/139 429/3/141 147/3/141
f 154/3/140 436/3/140 437/3/142 155/3/142
f 147/3/141 429/3/141 430/3/143 148/3/143
f 155/3/142 437/3/142 438/3/144 156/3/144
f 148/3/143 430/3/143 431/3/145 149/3/145
f 156/3/144 438/3/144 439/3/146 157/3/146
f 149/3/145 431/3/145 432/3/130 150/3/130
f 157/3/146 439/3/146 440/3/133 158/3/133
f 171/3/147 187/3/148 188/3/149 172/3/150
f 164/3/151 180/3/152 181/3/153 165/3/154
f 172/3/150 188/3/149 189/3/155 173/3/156
f 165/3/154 181/3/153 182/3/157 166/3/158
f 173/3/156 189/3/155 190/3/159 174/3/160
f 166/3/158 182/3/157 183/3/161 167/3/162
f 174/3/160 190/3/159 191/3/163 175/3/164
f 167/3/162 183/3/161 184/3/165 168/3/166
f 175/3/164 191/3/163 192/3/167 176/3/168
f 168/3/166 184/3/165 185/3/169 169/3/170
f 161/3/171 177/3/172 178/3/173 162/3/174
f 176/3/168 192/3/167 177/3/172 161/3/171
f 169/3/170 185/3/169 186/3/175 170/3/176
f 162/3/174 178/3/173 179/3/177 163/3/178
f 170/3/176 186/3/175 187/3/148 171/3/147
f 163/3/178 179/3/177 180/3/152 164/3/151
f 228/3/179 404/3/179 405/3/179 230/3/179
f 214/3/179 397/3/179 398/3/179 216/3/179
f 230/3/179 405/3/179 406/3/179 232/3/179
f 216/3/179 398/3/179 399/3/179 218/3/179
f 232/3/179 406/3/179 407/3/179 234/3/179
f 218/3/179 399/3/179 400/3/179 220/3/179
f 234/3/179 407/3/179 408/3/179 236/3/179
f 220/3/179 400/3/179 401/3/179 222/3/179
f 236/3/179 408/3/179 409/3/179 238/3/179
f 222/3/179 401/3/179 402/3/179 224/3/179
f 238/3/179 409/3/179 410/3/179 240/3/179
f 224/3/179 402/3/179 403/3/179 226/3/179
f 460/3/179 396/3/179 395/3/179 212/3/179
f 240/3/179 410/3/179 396/3/179 460/3/179
f 226/3/179 403/3/179 404/3/179 228/3/179
f 212/3/179 395/3/179 397/3/179 214/3/179
f 136/3/180 208/3/180 443/3/181 137/3/181
f 143/3/182 207/3/182 445/3/183 144/3/183
f 135/3/184 206/3/184 208/3/180 136/3/180
f 142/3/185 205/3/185 207/3/182 143/3/182
f 134/3/186 204/3/186 206/3/184 135/3/184
f 141/3/187 203/3/187 205/3/185 142/3/185
f 133/3/188 202/3/188 204/3/186 134/3/186
f 140/3/189 201/3/189 203/3/187 141/3/187
f 132/3/190 200/3/190 202/3/188 133/3/188
f 139/3/191 199/3/191 201/3/189 140/3/189
f 131/3/192 198/3/192 200/3/190 132/3/190
f 138/3/193 197/3/193 199/3/191 139/3/191
f 130/3/194 194/3/194 198/3/192 131/3/192
f 137/3/181 443/3/181 197/3/193 138/3/193
f 144/3/183 445/3/183 458/3/195 129/3/195
f 129/3/195 458/3/195 194/3/194 130/3/194
f 178/3/173 177/3/172 192/3/167 191/3/163 190/3/159 189/3/155 188/3/149 187/3/148 186/3/175 185/3/169 184/3/165 183/3/161 182/3/157 181/3/153 180/3/152 179/3/177
f 459/3/196 462/3/196 461/3/197 209/3/197
f 463/3/198 464/3/198 462/3/196 459/3/196
f 465/3/199 466/3/199 464/3/198 463/3/198
f 467/3/200 468/3/200 466/3/199 465/3/199
f 469/3/201 470/3/201 468/3/200 467/3/200
f 471/3/202 472/3/202 470/3/201 469/3/201
f 473/3/203 474/3/203 472/3/202 471/3/202
f 475/3/204 476/3/204 474/3/203 473/3/203
f 477/3/205 478/3/205 476/3/204 475/3/204
f 479/3/206 480/3/206 478/3/205 477/3/205
f 481/3/207 482/3/207 480/3/206 479/3/206
f 483/3/208 484/3/208 482/3/207 481/3/207
f 485/3/209 486/3/209 484/3/208 483/3/208
f 487/3/210 488/3/210 486/3/209 485/3/209
f 489/3/211 490/3/211 488/3/210 487/3/210
f 209/3/197 461/3/197 490/3/211 489/3/211
f 211/3/98 113/3/98 114/3/99 210/3/99
f 215/3/100 117/3/100 116/3/101 213/3/101
f 229/3/102 124/3/102 123/3/103 227/3/103
f 213/3/101 116/3/101 113/3/98 211/3/98
f 210/3/99 114/3/99 115/3/104 239/3/104
f 227/3/103 123/3/103 122/3/105 225/3/105
f 225/3/105 122/3/105 121/3/106 223/3/106
f 239/3/104 115/3/104 128/3/107 237/3/107
f 223/3/106 121/3/106 120/3/108 221/3/108
f 237/3/107 128/3/107 127/3/109 235/3/109
f 221/3/108 120/3/108 119/3/110 219/3/110
f 235/3/109 127/3/109 126/3/111 233/3/111
f 219/3/110 119/3/110 118/3/112 217/3/112
f 233/3/111 126/3/111 125/3/113 231/3/113
f 217/3/112 118/3/112 117/3/100 215/3/100
f 231/3/113 125/3/113 124/3/102 229/3/102
f 241/4/212 246/4/213 245/4/213 249/4/213 250/4/213 242/4/212
f 243/4/214 244/4/214 241/4/212 242/4/212 248/4/214 247/4/214
f 251/4/215 256/4/216 255/4/216 259/4/216 260/4/216 252/4/215
f 253/4/217 254/4/217 251/4/215 252/4/215 258/4/217 257/4/217
f 261/4/218 266/4/219 265/4/219 269/4/219 270/4/219 262/4/218
f 263/4/220 264/4/220 261/4/218 262/4/218 268/4/220 267/4/220
f 271/4/221 276/4/222 275/4/222 279/4/222 280/4/222 272/4/221
f 273/4/223 274/4/223 271/4/221 272/4/221 278/4/223 277/4/223
f 281/4/224 286/4/225 285/4/225 289/4/225 290/4/225 282/4/224
f 283/4/226 284/4/226 281/4/224 282/4/224 288/4/226 287/4/226
f 291/4/227 296/4/228 295/4/228 299/4/228 300/4/228 292/4/227
f 293/4/229 294/4/229 291/4/227 292/4/227 298/4/229 297/4/229
f 301/4/230 306/4/231 305/4/231 309/4/231 310/4/231 302/4/230
f 303/4/232 304/4/232 301/4/230 302/4/230 308/4/232 307/4/232
f 311/4/233 316/4/234 315/4/234 319/4/234 320/4/234 312/4/233
f 313/4/235 314/4/235 311/4/233 312/4/233 318/4/235 317/4/235
f 321/4/212 326/4/213 325/4/213 329/4/213 330/4/213 322/4/212
f 323/4/214 324/4/214 321/4/212 322/4/212 328/4/214 327/4/214
