# Blender 5.2.2 LTS
# www.blender.org
mtllib front_wheels.mtl
o front_wheels
g front_wheels
v -0.051851 0.002375 -0.273028
v -0.033631 0.002375 -0.291605
v -0.033631 -0.108835 -0.269484
v -0.051851 -0.101726 -0.252321
v -0.033631 -0.203114 -0.206489
v -0.051851 -0.189978 -0.193353
v -0.033631 -0.266109 -0.112210
v -0.051851 -0.248946 -0.105101
v -0.033631 -0.288230 -0.001000
v -0.051851 -0.269653 -0.001000
v -0.033631 -0.266109 0.110210
v -0.051851 -0.248946 0.103100
v -0.033631 -0.203114 0.204489
v -0.051851 -0.189978 0.191353
v -0.033631 -0.108835 0.267484
v -0.051851 -0.101726 0.250321
v -0.033631 0.002375 0.289605
v -0.051851 0.002375 0.271028
v -0.033631 0.113584 0.267484
v -0.051851 0.106475 0.250321
v -0.033631 0.207863 0.204489
v -0.051851 0.194727 0.191353
v -0.033631 0.270858 0.110210
v -0.051851 0.253695 0.103100
v -0.033631 0.292979 -0.001000
v -0.051851 0.274402 -0.001000
v -0.033631 0.270858 -0.112210
v -0.051851 0.253695 -0.105101
v -0.033631 0.207863 -0.206489
v -0.051851 0.194727 -0.193353
v -0.033631 0.113584 -0.269484
v -0.051851 0.106475 -0.252321
v 0.013890 -0.108835 -0.269484
v 0.013890 0.002375 -0.291605
v 0.013890 0.113584 -0.269484
v 0.013890 -0.203114 -0.206489
v 0.013890 -0.266109 -0.112210
v 0.013890 -0.288230 -0.001000
v 0.013890 -0.266109 0.110210
v 0.013890 -0.203114 0.204489
v 0.013890 -0.108835 0.267484
v 0.013890 0.002375 0.289605
v 0.013890 0.113584 0.267484
v 0.013890 0.207863 0.204489
v 0.013890 0.270858 0.110210
v 0.013890 0.292979 -0.001000
v 0.013890 0.270858 -0.112210
v 0.013890 0.207863 -0.206489
v 0.079632 0.002375 -0.177125
v 0.079632 -0.065026 -0.163718
v 0.079632 -0.122165 -0.125539
v 0.079632 -0.160344 -0.068400
v 0.079632 -0.173750 -0.001000
v 0.079632 -0.160344 0.066400
v 0.079632 -0.122165 0.123539
v 0.079632 -0.065026 0.161718
v 0.079632 0.002375 0.175125
v 0.079632 0.069775 0.161718
v 0.079632 0.126914 0.123539
v 0.079632 0.165093 0.066400
v 0.079632 0.178500 -0.001000
v 0.079632 0.165093 -0.068400
v 0.079632 0.126914 -0.125539
v 0.079632 0.069775 -0.163718
v 0.069356 0.002375 -0.150613
v 0.069356 -0.054880 -0.139224
v 0.069356 -0.103418 -0.106792
v 0.069356 -0.135850 -0.058254
v 0.069356 -0.147238 -0.001000
v 0.069356 -0.135850 0.056254
v 0.069356 -0.103418 0.104792
v 0.069356 -0.054880 0.137224
v 0.069356 0.002375 0.148613
v 0.069356 0.059629 0.137224
v 0.069356 0.108167 0.104792
v 0.069356 0.140599 0.056254
v 0.069356 0.151988 -0.001000
v 0.069356 0.140599 -0.058254
v 0.069356 0.108167 -0.106792
v 0.069356 0.059629 -0.139224
v 0.026795 0.002375 -0.110941
v 0.026795 -0.039698 -0.102572
v 0.026795 -0.075365 -0.078740
v 0.026795 -0.099198 -0.043073
v 0.026795 -0.107566 -0.001000
v 0.026795 -0.099198 0.041073
v 0.026795 -0.075365 0.076740
v 0.026795 -0.039698 0.100572
v 0.026795 0.002375 0.108941
v 0.026795 0.044447 0.100572
v 0.026795 0.080115 0.076740
v 0.026795 0.103947 0.041073
v 0.026795 0.112316 -0.001000
v 0.026795 0.103947 -0.043073
v 0.026795 0.080115 -0.078740
v 0.026795 0.044447 -0.102572
v 0.037702 0.002375 -0.045528
v 0.037702 -0.014666 -0.042139
v 0.037702 -0.029112 -0.032486
v 0.037702 -0.038764 -0.018040
v 0.037702 -0.042154 -0.001000
v 0.037702 -0.038764 0.016040
v 0.037702 -0.029112 0.030486
v 0.037702 -0.014666 0.040139
v 0.037702 0.002375 0.043528
v 0.037702 0.019415 0.040139
v 0.037702 0.033861 0.030486
v 0.037702 0.043513 0.016040
v 0.037702 0.046903 -0.001000
v 0.037702 0.043513 -0.018040
v 0.037702 0.033861 -0.032486
v 0.037702 0.019415 -0.042139
v 0.060009 0.002375 -0.170062
v 0.060009 -0.062323 -0.157193
v 0.060009 0.067072 -0.157193
v 0.060009 0.002375 0.168062
v 0.060009 0.067072 0.155193
v 0.060009 -0.117170 -0.120545
v 0.060009 0.121919 0.118545
v 0.060009 -0.153818 -0.065697
v 0.060009 0.158567 0.063697
v 0.060009 -0.166687 -0.001000
v 0.060009 0.171436 -0.001000
v 0.060009 -0.153818 0.063697
v 0.060009 0.158567 -0.065697
v 0.060009 -0.117170 0.118545
v 0.060009 0.121919 -0.120545
v 0.060009 -0.062323 0.155193
v 0.079632 0.002375 -0.273028
v 0.061411 0.002375 -0.291605
v 0.061411 -0.108835 -0.269484
v 0.079632 -0.101726 -0.252321
v 0.061411 -0.203114 -0.206489
v 0.079632 -0.189978 -0.193353
v 0.061411 -0.266109 -0.112210
v 0.079632 -0.248946 -0.105101
v 0.061411 -0.288230 -0.001000
v 0.079632 -0.269653 -0.001000
v 0.061411 -0.266109 0.110210
v 0.079632 -0.248946 0.103100
v 0.061411 -0.203114 0.204489
v 0.079632 -0.189978 0.191353
v 0.061411 -0.108835 0.267484
v 0.079632 -0.101726 0.250321
v 0.061411 0.002375 0.289605
v 0.079632 0.002375 0.271028
v 0.061411 0.113584 0.267484
v 0.079632 0.106475 0.250321
v 0.061411 0.207863 0.204489
v 0.079632 0.194727 0.191353
v 0.061411 0.270858 0.110210
v 0.079632 0.253695 0.103100
v 0.061411 0.292979 -0.001000
v 0.079632 0.274402 -0.001000
v 0.061411 0.270858 -0.112210
v 0.079632 0.253695 -0.105101
v 0.061411 0.207863 -0.206489
v 0.079632 0.194727 -0.193353
v 0.061411 0.113584 -0.269484
v 0.079632 0.106475 -0.252321
v -0.050394 -0.126259 0.052282
v -0.060239 -0.108788 0.045045
v -0.053294 -0.126053 0.024760
v -0.050309 -0.130305 0.031701
v -0.053288 -0.105561 0.073237
v -0.050301 -0.113409 0.071421
v -0.057339 -0.118710 0.023722
v -0.060318 -0.112002 0.029113
v -0.057345 -0.099710 0.068653
v -0.060326 -0.098845 0.060014
v -0.050394 -0.126260 -0.054281
v -0.060239 -0.108788 -0.047044
v -0.053294 -0.106653 -0.073596
v -0.050309 -0.114567 -0.071695
v -0.053288 -0.126441 -0.024828
v -0.050301 -0.130706 -0.031662
v -0.057339 -0.100727 -0.069138
v -0.060318 -0.099795 -0.060582
v -0.057345 -0.119063 -0.023932
v -0.060326 -0.112342 -0.029429
v -0.050394 -0.050909 -0.129633
v -0.060239 -0.043672 -0.112161
v -0.053294 -0.023386 -0.129426
v -0.050309 -0.030327 -0.133679
v -0.053288 -0.071864 -0.108934
v -0.050301 -0.070047 -0.116783
v -0.057339 -0.022349 -0.122084
v -0.060318 -0.027740 -0.115375
v -0.057345 -0.067280 -0.103084
v -0.060326 -0.058640 -0.102218
v -0.050394 0.055654 -0.129633
v -0.060239 0.048418 -0.112162
v -0.053294 0.074970 -0.110026
v -0.050309 0.073069 -0.117941
v -0.053288 0.026201 -0.129814
v -0.050301 0.033035 -0.134080
v -0.057339 0.070511 -0.104100
v -0.060318 0.061956 -0.103169
v -0.057345 0.025305 -0.122436
v -0.060326 0.030802 -0.115715
v -0.050394 0.131006 -0.054282
v -0.060239 0.113535 -0.047045
v -0.053294 0.130800 -0.026760
v -0.050309 0.135052 -0.033700
v -0.053288 0.110308 -0.075237
v -0.050301 0.118156 -0.073421
v -0.057339 0.123457 -0.025722
v -0.060318 0.116749 -0.031113
v -0.057345 0.104457 -0.070653
v -0.060326 0.103591 -0.062014
v -0.050394 0.131006 0.052281
v -0.060239 0.113535 0.045044
v -0.053294 0.111399 0.071596
v -0.050309 0.119314 0.069695
v -0.053288 0.131188 0.022828
v -0.050301 0.135453 0.029662
v -0.057338 0.105474 0.067138
v -0.060318 0.104542 0.058582
v -0.057345 0.123810 0.021932
v -0.060326 0.117089 0.027429
v -0.050394 0.055655 0.127633
v -0.060239 0.048418 0.110161
v -0.053294 0.028133 0.127426
v -0.050309 0.035074 0.131679
v -0.053288 0.076610 0.106934
v -0.050301 0.074794 0.114783
v -0.057338 0.027096 0.120084
v -0.060318 0.032486 0.113375
v -0.057345 0.072027 0.101084
v -0.060326 0.063387 0.100218
v -0.050394 -0.050908 0.127633
v -0.060239 -0.043671 0.110162
v -0.053294 -0.070223 0.108026
v -0.050309 -0.068322 0.115941
v -0.053288 -0.021454 0.127815
v -0.050301 -0.028288 0.132080
v -0.057338 -0.065764 0.102100
v -0.060318 -0.057209 0.101169
v -0.057345 -0.020558 0.120436
v -0.060326 -0.026056 0.113715
v -0.050394 -0.126259 0.052282
v -0.060239 -0.108788 0.045045
v -0.053294 -0.126053 0.024760
v -0.050309 -0.130305 0.031701
v -0.053288 -0.105561 0.073237
v -0.050301 -0.113409 0.071421
v -0.057338 -0.118710 0.023722
v -0.060318 -0.112002 0.029113
v -0.057345 -0.099710 0.068653
v -0.060326 -0.098845 0.060014
v -0.051851 -0.065026 -0.163718
v -0.051851 0.002375 -0.177125
v -0.051851 -0.122165 -0.125539
v -0.051851 -0.160344 -0.068400
v -0.051851 -0.173750 -0.001000
v -0.051851 -0.160344 0.066400
v -0.051851 -0.122165 0.123539
v -0.051851 -0.065026 0.161718
v -0.051851 0.002375 0.175125
v -0.051851 0.069775 0.161718
v -0.051851 0.126914 0.123539
v -0.051851 0.165093 0.066400
v -0.051851 0.178500 -0.001000
v -0.051851 0.165093 -0.068400
v -0.051851 0.126914 -0.125539
v -0.051851 0.069775 -0.163718
v -0.051851 -0.101726 -0.252321
v -0.051851 0.002375 -0.273028
v -0.033631 0.002375 -0.291605
v -0.033631 -0.108835 -0.269484
v -0.051851 -0.189978 -0.193353
v -0.033631 -0.203114 -0.206489
v -0.051851 -0.248946 -0.105101
v -0.033631 -0.266109 -0.112210
v -0.051851 -0.269653 -0.001000
v -0.033631 -0.288230 -0.001000
v -0.051851 -0.248946 0.103100
v -0.033631 -0.266109 0.110210
v -0.051851 -0.189978 0.191353
v -0.033631 -0.203114 0.204489
v -0.051851 -0.101726 0.250321
v -0.033631 -0.108835 0.267484
v -0.051851 0.002375 0.271028
v -0.033631 0.002375 0.289605
v -0.051851 0.106475 0.250321
v -0.033631 0.113584 0.267484
v -0.051851 0.194727 0.191353
v -0.033631 0.207863 0.204489
v -0.051851 0.253695 0.103100
v -0.033631 0.270858 0.110210
v -0.051851 0.274402 -0.001000
v -0.033631 0.292979 -0.001000
v -0.051851 0.253695 -0.105101
v -0.033631 0.270858 -0.112210
v -0.051851 0.194727 -0.193353
v -0.033631 0.207863 -0.206489
v -0.051851 0.106475 -0.252321
v -0.033631 0.113584 -0.269484
v 0.079632 -0.065026 -0.163718
v 0.079632 0.002375 -0.177125
v 0.079632 -0.122165 -0.125539
v 0.079632 -0.160344 -0.068400
v 0.079632 -0.173750 -0.001000
v 0.079632 -0.160344 0.066400
v 0.079632 -0.122165 0.123539
v 0.079632 -0.065026 0.161718
v 0.079632 0.002375 0.175125
v 0.079632 0.069775 0.161718
v 0.079632 0.126914 0.123539
v 0.079632 0.165093 0.066400
v 0.079632 0.178500 -0.001000
v 0.079632 0.165093 -0.068400
v 0.079632 0.126914 -0.125539
v 0.079632 0.069775 -0.163718
v 0.069356 -0.054880 -0.139224
v 0.069356 0.002375 -0.150613
v 0.069356 -0.103418 -0.106792
v 0.069356 -0.135850 -0.058254
v 0.069356 -0.147238 -0.001000
v 0.069356 -0.135850 0.056254
v 0.069356 -0.103418 0.104792
v 0.069356 -0.054880 0.137224
v 0.069356 0.002375 0.148613
v 0.069356 0.059629 0.137224
v 0.069356 0.108167 0.104792
v 0.069356 0.140599 0.056254
v 0.069356 0.151988 -0.001000
v 0.069356 0.140599 -0.058254
v 0.069356 0.108167 -0.106792
v 0.069356 0.059629 -0.139224
v 0.026795 -0.039698 -0.102572
v 0.026795 0.002375 -0.110941
v 0.026795 -0.075365 -0.078740
v 0.026795 -0.099198 -0.043073
v 0.026795 -0.107566 -0.001000
v 0.026795 -0.099198 0.041073
v 0.026795 -0.075365 0.076740
v 0.026795 -0.039698 0.100572
v 0.026795 0.002375 0.108941
v 0.026795 0.044447 0.100572
v 0.026795 0.080115 0.076740
v 0.026795 0.103947 0.041073
v 0.026795 0.112316 -0.001000
v 0.026795 0.103947 -0.043073
v 0.026795 0.080115 -0.078740
v 0.026795 0.044447 -0.102572
v 0.060009 0.002375 0.168062
v 0.060009 -0.062323 0.155193
v 0.060009 0.067072 -0.157193
v 0.060009 0.121919 -0.120545
v 0.060009 -0.117170 0.118545
v 0.060009 0.158567 -0.065697
v 0.060009 -0.153818 0.063697
v 0.060009 0.171436 -0.001000
v 0.060009 -0.166687 -0.001000
v 0.060009 0.158567 0.063697
v 0.060009 -0.153818 -0.065697
v 0.060009 0.121919 0.118545
v 0.060009 -0.117170 -0.120545
v 0.060009 0.067072 0.155193
v 0.060009 -0.062323 -0.157193
v 0.060009 0.002375 -0.170062
v 0.079632 -0.101726 -0.252321
v 0.079632 0.002375 -0.273028
v 0.061411 0.002375 -0.291605
v 0.061411 -0.108835 -0.269484
v 0.079632 -0.189978 -0.193353
v 0.061411 -0.203114 -0.206489
v 0.079632 -0.248946 -0.105101
v 0.061411 -0.266109 -0.112210
v 0.079632 -0.269653 -0.001000
v 0.061411 -0.288230 -0.001000
v 0.079632 -0.248946 0.103100
v 0.061411 -0.266109 0.110210
v 0.079632 -0.189978 0.191353
v 0.061411 -0.203114 0.204489
v 0.079632 -0.101726 0.250321
v 0.061411 -0.108835 0.267484
v 0.079632 0.002375 0.271028
v 0.061411 0.002375 0.289605
v 0.079632 0.106475 0.250321
v 0.061411 0.113584 0.267484
v 0.079632 0.194727 0.191353
v 0.061411 0.207863 0.204489
v 0.079632 0.253695 0.103100
v 0.061411 0.270858 0.110210
v 0.079632 0.274402 -0.001000
v 0.061411 0.292979 -0.001000
v 0.079632 0.253695 -0.105101
v 0.061411 0.270858 -0.112210
v 0.079632 0.194727 -0.193353
v 0.061411 0.207863 -0.206489
v 0.079632 0.106475 -0.252321
v 0.061411 0.113584 -0.269484
vn -1.0000 -0.0000 -0.0000
vn -0.7139 -0.2680 -0.6469
vn -0.7139 -0.0000 -0.7002
vn -0.7139 -0.4951 -0.4951
vn -0.7139 -0.6469 -0.2680
vn -0.7139 -0.7002 -0.0000
vn -0.7139 -0.6469 0.2680
vn -0.7139 -0.4951 0.4951
vn -0.7139 -0.2680 0.6469
vn -0.7139 -0.0000 0.7002
vn -0.7139 0.2680 0.6469
vn -0.7139 0.4951 0.4951
vn -0.7139 0.6469 0.2680
vn -0.7139 0.7002 -0.0000
vn -0.7139 0.6469 -0.2680
vn -0.7139 0.4951 -0.4951
vn -0.7139 0.2680 -0.6469
vn -0.0000 -0.3827 -0.9239
vn -0.0000 -0.0000 -1.0000
vn -0.0000 -0.9239 -0.3827
vn -0.0000 -0.7071 -0.7071
vn -0.0000 0.7071 0.7071
vn -0.0000 0.3827 0.9239
vn -0.0000 0.3827 -0.9239
vn -0.0000 -0.0000 1.0000
vn -0.0000 -0.3827 0.9239
vn -0.0000 0.7071 -0.7071
vn -0.0000 -0.7071 0.7071
vn -0.0000 0.9239 -0.3827
vn -0.0000 -0.9239 0.3827
vn -0.0000 1.0000 -0.0000
vn -0.0000 -1.0000 -0.0000
vn -0.0000 0.9239 0.3827
vn 0.9013 -0.0000 -0.4332
vn 0.9013 -0.1658 -0.4002
vn 0.9013 0.1658 -0.4002
vn 0.9013 -0.0000 0.4332
vn 0.9013 0.1658 0.4002
vn 0.9013 -0.3063 -0.3063
vn 0.9013 0.3063 0.3063
vn 0.9013 -0.4002 -0.1658
vn 0.9013 0.4002 0.1658
vn 0.9013 -0.4332 -0.0000
vn 0.9013 0.4332 -0.0000
vn 0.9013 -0.4002 0.1658
vn 0.9013 0.4002 -0.1658
vn 0.9013 -0.3063 0.3063
vn 0.9013 0.3063 -0.3063
vn 0.9013 -0.1658 0.4002
vn 0.6818 0.6758 -0.2799
vn 0.6818 0.5172 -0.5173
vn 0.6818 0.5172 -0.5172
vn 0.6818 -0.6758 0.2799
vn 0.6818 -0.5172 0.5173
vn 0.6818 0.2799 -0.6758
vn 0.6818 -0.2799 0.6758
vn 0.6818 -0.0000 -0.7315
vn 0.6818 -0.0000 0.7315
vn 0.6818 0.2799 0.6758
vn 0.6818 -0.2799 -0.6758
vn 0.6818 0.5172 0.5173
vn 0.6818 0.5172 0.5172
vn 0.6818 -0.5172 -0.5173
vn 0.6818 0.6758 0.2799
vn 0.6818 -0.6758 -0.2799
vn 0.6818 0.7315 -0.0000
vn 0.6818 -0.7315 -0.0000
vn 0.9864 0.1163 0.1163
vn 0.9957 0.0656 0.0656
vn 0.9957 0.0857 0.0355
vn 0.9864 0.1519 0.0629
vn 0.9864 -0.1520 -0.0629
vn 0.9957 -0.0857 -0.0355
vn 0.9957 -0.0927 -0.0000
vn 0.9864 -0.1645 -0.0000
vn 0.9957 0.0927 -0.0000
vn 0.9864 0.1645 -0.0000
vn 0.9957 -0.0857 0.0355
vn 0.9864 -0.1520 0.0629
vn 0.9957 0.0857 -0.0355
vn 0.9864 0.1519 -0.0629
vn 0.9957 -0.0656 0.0656
vn 0.9864 -0.1163 0.1163
vn 0.9957 0.0656 -0.0656
vn 0.9864 0.1163 -0.1163
vn 0.9957 -0.0355 0.0857
vn 0.9864 -0.0629 0.1520
vn 0.9957 0.0355 -0.0857
vn 0.9864 0.0629 -0.1520
vn 0.9957 -0.0000 0.0927
vn 0.9864 -0.0000 0.1645
vn 0.9864 -0.0000 -0.1645
vn 0.9957 -0.0000 -0.0927
vn 0.9957 -0.0355 -0.0857
vn 0.9864 -0.0629 -0.1520
vn 0.9957 0.0355 0.0857
vn 0.9864 0.0629 0.1520
vn 0.9957 -0.0656 -0.0656
vn 0.9864 -0.1163 -0.1163
vn 1.0000 -0.0000 -0.0000
vn 0.3387 0.3601 -0.8693
vn 0.3387 -0.0000 -0.9409
vn 0.3387 -0.6653 0.6653
vn 0.3387 -0.3601 0.8693
vn 0.3387 0.6653 -0.6653
vn 0.3387 -0.8693 0.3601
vn 0.3387 0.8693 -0.3601
vn 0.3387 -0.9409 -0.0000
vn 0.3387 0.9409 -0.0000
vn 0.3387 -0.8693 -0.3601
vn 0.3387 0.8693 0.3601
vn 0.3387 -0.6653 -0.6653
vn 0.3387 0.6653 0.6653
vn 0.3387 -0.3601 -0.8693
vn 0.3387 0.3601 0.8693
vn 0.3387 -0.0000 0.9409
vn 0.7139 -0.2680 -0.6469
vn 0.7139 -0.0000 -0.7002
vn 0.7139 -0.4951 -0.4951
vn 0.7139 -0.6469 -0.2680
vn 0.7139 -0.7002 -0.0000
vn 0.7139 -0.6469 0.2680
vn 0.7139 -0.4951 0.4951
vn 0.7139 -0.2680 0.6469
vn 0.7139 -0.0000 0.7002
vn 0.7139 0.2680 0.6469
vn 0.7139 0.4951 0.4951
vn 0.7139 0.6469 0.2680
vn 0.7139 0.7002 -0.0000
vn 0.7139 0.6469 -0.2680
vn 0.7139 0.4951 -0.4951
vn 0.7139 0.2680 -0.6469
vn -0.8844 -0.4312 0.1787
vn -0.8805 -0.3942 0.2634
vn -0.8807 -0.4646 0.0924
vn -0.8844 -0.4313 -0.1786
vn -0.8805 -0.4650 -0.0925
vn -0.8807 -0.3938 -0.2632
vn -0.8844 -0.1787 -0.4312
vn -0.8805 -0.2634 -0.3942
vn -0.8807 -0.0924 -0.4646
vn -0.8844 0.1786 -0.4313
vn -0.8805 0.0924 -0.4650
vn -0.8807 0.2632 -0.3938
vn -0.8844 0.4312 -0.1787
vn -0.8805 0.3942 -0.2634
vn -0.8807 0.4646 -0.0924
vn -0.8844 0.4313 0.1786
vn -0.8805 0.4650 0.0925
vn -0.8807 0.3938 0.2632
vn -0.8844 0.1787 0.4312
vn -0.8805 0.2634 0.3942
vn -0.8807 0.0924 0.4646
vn -0.8844 -0.1786 0.4313
vn -0.8805 -0.0924 0.4650
vn -0.8807 -0.2632 0.3938
vt 0.883421 0.883421
vt 0.881815 0.882523
s 1
usemtl baseGradient.007
f 20/1/1 22/1/1 261/1/1 260/1/1
f 6/1/1 8/1/1 254/1/1 253/1/1
f 22/1/1 24/1/1 262/1/1 261/1/1
f 8/1/1 10/1/1 255/1/1 254/1/1
f 24/1/1 26/1/1 263/1/1 262/1/1
f 10/1/1 12/1/1 256/1/1 255/1/1
f 26/1/1 28/1/1 264/1/1 263/1/1
f 12/1/1 14/1/1 257/1/1 256/1/1
f 28/1/1 30/1/1 265/1/1 264/1/1
f 14/1/1 16/1/1 258/1/1 257/1/1
f 30/1/1 32/1/1 266/1/1 265/1/1
f 16/1/1 18/1/1 259/1/1 258/1/1
f 268/1/1 4/1/1 251/1/1 252/1/1
f 32/1/1 268/1/1 252/1/1 266/1/1
f 18/1/1 20/1/1 260/1/1 259/1/1
f 4/1/1 6/1/1 253/1/1 251/1/1
f 267/1/2 1/1/3 269/1/3 270/1/2
f 271/1/4 267/1/2 270/1/2 272/1/4
f 273/1/5 271/1/4 272/1/4 274/1/5
f 275/1/6 273/1/5 274/1/5 276/1/6
f 277/1/7 275/1/6 276/1/6 278/1/7
f 279/1/8 277/1/7 278/1/7 280/1/8
f 281/1/9 279/1/8 280/1/8 282/1/9
f 283/1/10 281/1/9 282/1/9 284/1/10
f 285/1/11 283/1/10 284/1/10 286/1/11
f 287/1/12 285/1/11 286/1/11 288/1/12
f 289/1/13 287/1/12 288/1/12 290/1/13
f 291/1/14 289/1/13 290/1/13 292/1/14
f 293/1/15 291/1/14 292/1/14 294/1/15
f 295/1/16 293/1/15 294/1/15 296/1/16
f 297/1/17 295/1/16 296/1/16 298/1/17
f 1/1/3 297/1/17 298/1/17 269/1/3
f 3/1/18 2/1/19 34/1/19 33/1/18
f 7/1/20 5/1/21 36/1/21 37/1/20
f 21/1/22 19/1/23 43/1/23 44/1/22
f 5/1/21 3/1/18 33/1/18 36/1/21
f 2/1/19 31/1/24 35/1/24 34/1/19
f 19/1/23 17/1/25 42/1/25 43/1/23
f 17/1/25 15/1/26 41/1/26 42/1/25
f 31/1/24 29/1/27 48/1/27 35/1/24
f 15/1/26 13/1/28 40/1/28 41/1/26
f 29/1/27 27/1/29 47/1/29 48/1/27
f 13/1/28 11/1/30 39/1/30 40/1/28
f 27/1/29 25/1/31 46/1/31 47/1/29
f 11/1/30 9/1/32 38/1/32 39/1/30
f 25/1/31 23/1/33 45/1/33 46/1/31
f 9/1/32 7/1/20 37/1/20 38/1/32
f 23/1/33 21/1/22 44/1/22 45/1/33
f 113/1/34 316/1/34 315/1/35 361/1/35
f 115/1/36 330/1/36 316/1/34 113/1/34
f 116/1/37 323/1/37 324/1/38 360/1/38
f 361/1/35 315/1/35 317/1/39 359/1/39
f 360/1/38 324/1/38 325/1/40 358/1/40
f 359/1/39 317/1/39 318/1/41 357/1/41
f 358/1/40 325/1/40 326/1/42 356/1/42
f 357/1/41 318/1/41 319/1/43 355/1/43
f 356/1/42 326/1/42 327/1/44 354/1/44
f 355/1/43 319/1/43 320/1/45 353/1/45
f 354/1/44 327/1/44 328/1/46 352/1/46
f 353/1/45 320/1/45 321/1/47 351/1/47
f 352/1/46 328/1/46 329/1/48 350/1/48
f 351/1/47 321/1/47 322/1/49 348/1/49
f 350/1/48 329/1/48 330/1/36 115/1/36
f 348/1/49 322/1/49 323/1/37 116/1/37
f 70/1/50 336/1/50 337/1/51 71/1/52
f 78/1/53 344/1/53 345/1/54 79/1/54
f 71/1/52 337/1/51 338/1/55 72/1/55
f 79/1/54 345/1/54 346/1/56 80/1/56
f 72/1/55 338/1/55 339/1/57 73/1/57
f 65/1/58 332/1/58 331/1/59 66/1/59
f 80/1/56 346/1/56 332/1/58 65/1/58
f 73/1/57 339/1/57 340/1/60 74/1/60
f 66/1/59 331/1/59 333/1/61 67/1/62
f 74/1/60 340/1/60 341/1/63 75/1/63
f 67/1/62 333/1/61 334/1/64 68/1/64
f 75/1/63 341/1/63 342/1/65 76/1/65
f 68/1/64 334/1/64 335/1/66 69/1/66
f 76/1/65 342/1/65 343/1/67 77/1/67
f 69/1/66 335/1/66 336/1/50 70/1/50
f 77/1/67 343/1/67 344/1/53 78/1/53
f 91/1/68 107/1/69 108/1/70 92/1/71
f 84/1/72 100/1/73 101/1/74 85/1/75
f 92/1/71 108/1/70 109/1/76 93/1/77
f 85/1/75 101/1/74 102/1/78 86/1/79
f 93/1/77 109/1/76 110/1/80 94/1/81
f 86/1/79 102/1/78 103/1/82 87/1/83
f 94/1/81 110/1/80 111/1/84 95/1/85
f 87/1/83 103/1/82 104/1/86 88/1/87
f 95/1/85 111/1/84 112/1/88 96/1/89
f 88/1/87 104/1/86 105/1/90 89/1/91
f 81/1/92 97/1/93 98/1/94 82/1/95
f 96/1/89 112/1/88 97/1/93 81/1/92
f 89/1/91 105/1/90 106/1/96 90/1/97
f 82/1/95 98/1/94 99/1/98 83/1/99
f 90/1/97 106/1/96 107/1/69 91/1/68
f 83/1/99 99/1/98 100/1/73 84/1/72
f 148/1/100 308/1/100 309/1/100 150/1/100
f 134/1/100 301/1/100 302/1/100 136/1/100
f 150/1/100 309/1/100 310/1/100 152/1/100
f 136/1/100 302/1/100 303/1/100 138/1/100
f 152/1/100 310/1/100 311/1/100 154/1/100
f 138/1/100 303/1/100 304/1/100 140/1/100
f 154/1/100 311/1/100 312/1/100 156/1/100
f 140/1/100 304/1/100 305/1/100 142/1/100
f 156/1/100 312/1/100 313/1/100 158/1/100
f 142/1/100 305/1/100 306/1/100 144/1/100
f 158/1/100 313/1/100 314/1/100 160/1/100
f 144/1/100 306/1/100 307/1/100 146/1/100
f 364/1/100 300/1/100 299/1/100 132/1/100
f 160/1/100 314/1/100 300/1/100 364/1/100
f 146/1/100 307/1/100 308/1/100 148/1/100
f 132/1/100 299/1/100 301/1/100 134/1/100
f 56/1/101 128/1/101 347/1/102 57/1/102
f 63/1/103 127/1/103 349/1/104 64/1/104
f 55/1/105 126/1/105 128/1/101 56/1/101
f 62/1/106 125/1/106 127/1/103 63/1/103
f 54/1/107 124/1/107 126/1/105 55/1/105
f 61/1/108 123/1/108 125/1/106 62/1/106
f 53/1/109 122/1/109 124/1/107 54/1/107
f 60/1/110 121/1/110 123/1/108 61/1/108
f 52/1/111 120/1/111 122/1/109 53/1/109
f 59/1/112 119/1/112 121/1/110 60/1/110
f 51/1/113 118/1/113 120/1/111 52/1/111
f 58/1/114 117/1/114 119/1/112 59/1/112
f 50/1/115 114/1/115 118/1/113 51/1/113
f 57/1/102 347/1/102 117/1/114 58/1/114
f 64/1/104 349/1/104 362/1/116 49/1/116
f 49/1/116 362/1/116 114/1/115 50/1/115
f 98/1/94 97/1/93 112/1/88 111/1/84 110/1/80 109/1/76 108/1/70 107/1/69 106/1/96 105/1/90 104/1/86 103/1/82 102/1/78 101/1/74 100/1/73 99/1/98
f 363/1/117 366/1/117 365/1/118 129/1/118
f 367/1/119 368/1/119 366/1/117 363/1/117
f 369/1/120 370/1/120 368/1/119 367/1/119
f 371/1/121 372/1/121 370/1/120 369/1/120
f 373/1/122 374/1/122 372/1/121 371/1/121
f 375/1/123 376/1/123 374/1/122 373/1/122
f 377/1/124 378/1/124 376/1/123 375/1/123
f 379/1/125 380/1/125 378/1/124 377/1/124
f 381/1/126 382/1/126 380/1/125 379/1/125
f 383/1/127 384/1/127 382/1/126 381/1/126
f 385/1/128 386/1/128 384/1/127 383/1/127
f 387/1/129 388/1/129 386/1/128 385/1/128
f 389/1/130 390/1/130 388/1/129 387/1/129
f 391/1/131 392/1/131 390/1/130 389/1/130
f 393/1/132 394/1/132 392/1/131 391/1/131
f 129/1/118 365/1/118 394/1/132 393/1/132
f 131/1/18 33/1/18 34/1/19 130/1/19
f 135/1/20 37/1/20 36/1/21 133/1/21
f 149/1/22 44/1/22 43/1/23 147/1/23
f 133/1/21 36/1/21 33/1/18 131/1/18
f 130/1/19 34/1/19 35/1/24 159/1/24
f 147/1/23 43/1/23 42/1/25 145/1/25
f 145/1/25 42/1/25 41/1/26 143/1/26
f 159/1/24 35/1/24 48/1/27 157/1/27
f 143/1/26 41/1/26 40/1/28 141/1/28
f 157/1/27 48/1/27 47/1/29 155/1/29
f 141/1/28 40/1/28 39/1/30 139/1/30
f 155/1/29 47/1/29 46/1/31 153/1/31
f 139/1/30 39/1/30 38/1/32 137/1/32
f 153/1/31 46/1/31 45/1/33 151/1/33
f 137/1/32 38/1/32 37/1/20 135/1/20
f 151/1/33 45/1/33 44/1/22 149/1/22
f 161/2/133 166/2/134 165/2/134 169/2/134 170/2/134 162/2/133
f 163/2/135 164/2/135 161/2/133 162/2/133 168/2/135 167/2/135
f 171/2/136 176/2/137 175/2/137 179/2/137 180/2/137 172/2/136
f 173/2/138 174/2/138 171/2/136 172/2/136 178/2/138 177/2/138
f 181/2/139 186/2/140 185/2/140 189/2/140 190/2/140 182/2/139
f 183/2/141 184/2/141 181/2/139 182/2/139 188/2/141 187/2/141
f 191/2/142 196/2/143 195/2/143 199/2/143 200/2/143 192/2/142
f 193/2/144 194/2/144 191/2/142 192/2/142 198/2/144 197/2/144
f 201/2/145 206/2/146 205/2/146 209/2/146 210/2/146 202/2/145
f 203/2/147 204/2/147 201/2/145 202/2/145 208/2/147 207/2/147
f 211/2/148 216/2/149 215/2/149 219/2/149 220/2/149 212/2/148
f 213/2/150 214/2/150 211/2/148 212/2/148 218/2/150 217/2/150
f 221/2/151 226/2/152 225/2/152 229/2/152 230/2/152 222/2/151
f 223/2/153 224/2/153 221/2/151 222/2/151 228/2/153 227/2/153
f 231/2/154 236/2/155 235/2/155 239/2/155 240/2/155 232/2/154
f 233/2/156 234/2/156 231/2/154 232/2/154 238/2/156 237/2/156
f 241/2/133 246/2/134 245/2/134 249/2/134 250/2/134 242/2/133
f 243/2/135 244/2/135 241/2/133 242/2/133 248/2/135 247/2/135
o front_wheels_misc
g front_wheels_misc
v -0.051851 0.002375 -0.177125
v -0.051851 -0.065026 -0.163718
v -0.051851 -0.122165 -0.125539
v -0.051851 -0.160344 -0.068400
v -0.051851 -0.173750 -0.001000
v -0.051851 -0.160344 0.066400
v -0.051851 -0.122165 0.123539
v -0.051851 -0.065026 0.161718
v -0.051851 0.002375 0.175125
v -0.051851 0.069775 0.161718
v -0.051851 0.126914 0.123539
v -0.051851 0.165093 0.066400
v -0.051851 0.178500 -0.001000
v -0.051851 0.165093 -0.068400
v -0.051851 0.126914 -0.125539
v -0.051851 0.069775 -0.163718
v -0.042003 0.002375 -0.150613
v -0.042003 -0.054880 -0.139224
v -0.042003 -0.103418 -0.106792
v -0.042003 -0.135850 -0.058254
v -0.042003 -0.147238 -0.001000
v -0.042003 -0.135850 0.056254
v -0.042003 -0.103418 0.104792
v -0.042003 -0.054880 0.137224
v -0.042003 0.002375 0.148613
v -0.042003 0.059629 0.137224
v -0.042003 0.108167 0.104792
v -0.042003 0.140599 0.056254
v -0.042003 0.151988 -0.001000
v -0.042003 0.140599 -0.058254
v -0.042003 0.108167 -0.106792
v -0.042003 0.059629 -0.139224
v -0.063593 0.002375 -0.110941
v -0.063593 -0.039698 -0.102572
v -0.063593 -0.075365 -0.078740
v -0.063593 -0.099198 -0.043073
v -0.063593 -0.107566 -0.001000
v -0.063593 -0.099198 0.041073
v -0.063593 -0.075365 0.076740
v -0.063593 -0.039698 0.100572
v -0.063593 0.002375 0.108941
v -0.063593 0.044447 0.100572
v -0.063593 0.080115 0.076740
v -0.063593 0.103947 0.041073
v -0.063593 0.112316 -0.001000
v -0.063593 0.103947 -0.043073
v -0.063593 0.080115 -0.078740
v -0.063593 0.044447 -0.102572
v -0.081190 0.002375 -0.045528
v -0.081190 -0.014666 -0.042139
v -0.081190 -0.029112 -0.032486
v -0.081190 -0.038764 -0.018040
v -0.081190 -0.042154 -0.001000
v -0.081190 -0.038764 0.016040
v -0.081190 -0.029112 0.030486
v -0.081190 -0.014666 0.040139
v -0.081190 0.002375 0.043528
v -0.081190 0.019415 0.040139
v -0.081190 0.033861 0.030486
v -0.081190 0.043513 0.016040
v -0.081190 0.046903 -0.001000
v -0.081190 0.043513 -0.018040
v -0.081190 0.033861 -0.032486
v -0.081190 0.019415 -0.042139
v -0.016341 0.002375 -0.170062
v -0.016341 -0.062323 -0.157193
v -0.016341 0.067072 -0.157193
v -0.016341 0.002375 0.168062
v -0.016341 0.067072 0.155193
v -0.016341 -0.117170 -0.120545
v -0.016341 0.121919 0.118545
v -0.016341 -0.153818 -0.065697
v -0.016341 0.158567 0.063697
v -0.016341 -0.166687 -0.001000
v -0.016341 0.171436 -0.001000
v -0.016341 -0.153818 0.063697
v -0.016341 0.158567 -0.065697
v -0.016341 -0.117170 0.118545
v -0.016341 0.121919 -0.120545
v -0.016341 -0.062323 0.155193
v -0.016341 0.002375 0.168062
v -0.016341 -0.062323 0.155193
v -0.016341 0.067072 -0.157193
v -0.016341 0.121919 -0.120545
v -0.016341 -0.117170 0.118545
v -0.016341 0.158567 -0.065697
v -0.016341 -0.153818 0.063697
v -0.016341 0.171436 -0.001000
v -0.016341 -0.166687 -0.001000
v -0.016341 0.158567 0.063697
v -0.016341 -0.153818 -0.065697
v -0.016341 0.121919 0.118545
v -0.016341 -0.117170 -0.120545
v -0.016341 0.067072 0.155193
v -0.016341 -0.062323 -0.157193
v -0.016341 0.002375 -0.170062
vn -0.6040 -0.0000 -0.7970
vn -0.6040 -0.3050 -0.7363
vn -0.7454 -0.2551 -0.6159
vn -0.7454 -0.0000 -0.6667
vn -0.6040 0.3050 -0.7363
vn -0.7454 0.2551 -0.6159
vn -0.6040 -0.0000 0.7970
vn -0.6040 0.3050 0.7363
vn -0.7454 0.2551 0.6159
vn -0.7454 -0.0000 0.6667
vn -0.6040 -0.5635 -0.5635
vn -0.7454 -0.4714 -0.4714
vn -0.6040 0.5635 0.5635
vn -0.7454 0.4714 0.4714
vn -0.6040 -0.7363 -0.3050
vn -0.7454 -0.6159 -0.2551
vn -0.6040 0.7363 0.3050
vn -0.7454 0.6159 0.2551
vn -0.6040 -0.7970 -0.0000
vn -0.7454 -0.6667 -0.0000
vn -0.6040 0.7970 -0.0000
vn -0.7454 0.6667 -0.0000
vn -0.6040 -0.7363 0.3050
vn -0.7454 -0.6159 0.2551
vn -0.6040 0.7363 -0.3050
vn -0.7454 0.6159 -0.2551
vn -0.6040 -0.5635 0.5635
vn -0.7454 -0.4714 0.4714
vn -0.6040 0.5635 -0.5635
vn -0.7454 0.4714 -0.4714
vn -0.6040 -0.3050 0.7363
vn -0.7454 -0.2551 0.6159
vn -0.9233 -0.2715 0.2715
vn -0.9233 -0.3548 0.1469
vn -0.9233 0.2715 -0.2715
vn -0.9233 0.3548 -0.1469
vn -0.9233 -0.1469 0.3548
vn -0.9233 0.1469 -0.3548
vn -0.9233 -0.0000 0.3840
vn -0.9233 -0.1469 -0.3548
vn -0.9233 -0.0000 -0.3840
vn -0.9233 0.1469 0.3548
vn -0.9233 -0.2715 -0.2715
vn -0.9233 0.2715 0.2715
vn -0.9233 -0.3548 -0.1469
vn -0.9233 0.3548 0.1469
vn -0.9233 -0.3840 -0.0000
vn -0.9233 0.3840 -0.0000
vn -0.9891 0.1358 0.0563
vn -0.9891 0.1040 0.1040
vn -0.9891 -0.1470 -0.0000
vn -0.9891 -0.1358 -0.0563
vn -0.9891 0.1470 -0.0000
vn -0.9891 -0.1358 0.0563
vn -0.9891 0.1358 -0.0563
vn -0.9891 -0.1040 0.1040
vn -0.9891 0.1040 -0.1040
vn -0.9891 -0.0563 0.1359
vn -0.9891 0.0563 -0.1358
vn -0.9891 -0.0000 0.1470
vn -0.9891 -0.0563 -0.1359
vn -0.9891 -0.0000 -0.1470
vn -0.9891 0.0563 0.1358
vn -0.9891 -0.1040 -0.1040
vn -0.1951 0.3753 -0.9061
vn -0.1951 -0.0000 -0.9808
vn -0.1951 -0.6935 0.6935
vn -0.1951 -0.3753 0.9061
vn -0.1951 0.6935 -0.6935
vn -0.1951 -0.9061 0.3753
vn -0.1951 0.9061 -0.3753
vn -0.1951 -0.9808 -0.0000
vn -0.1951 0.9808 -0.0000
vn -0.1951 -0.9061 -0.3753
vn -0.1951 0.9061 0.3753
vn -0.1951 -0.6935 -0.6935
vn -0.1951 0.6935 0.6935
vn -0.1951 -0.3753 -0.9061
vn -0.1951 0.3753 0.9061
vn -0.1951 -0.0000 0.9808
vt 0.072041 0.934898
vt 0.255921 0.952323
s 1
usemtl baseGradient.007
f 459/3/157 489/3/158 412/3/159 411/3/160
f 461/3/161 459/3/157 411/3/160 426/3/162
f 462/3/163 488/3/164 420/3/165 419/3/166
f 489/3/158 487/3/167 413/3/168 412/3/159
f 488/3/164 486/3/169 421/3/170 420/3/165
f 487/3/167 485/3/171 414/3/172 413/3/168
f 486/3/169 484/3/173 422/3/174 421/3/170
f 485/3/171 483/3/175 415/3/176 414/3/172
f 484/3/173 482/3/177 423/3/178 422/3/174
f 483/3/175 481/3/179 416/3/180 415/3/176
f 482/3/177 480/3/181 424/3/182 423/3/178
f 481/3/179 479/3/183 417/3/184 416/3/180
f 480/3/181 478/3/185 425/3/186 424/3/182
f 479/3/183 476/3/187 418/3/188 417/3/184
f 478/3/185 461/3/161 426/3/162 425/3/186
f 476/3/187 462/3/163 419/3/166 418/3/188
f 416/3/180 417/3/184 433/3/189 432/3/190
f 424/3/182 425/3/186 441/3/191 440/3/192
f 417/3/184 418/3/188 434/3/193 433/3/189
f 425/3/186 426/3/162 442/3/194 441/3/191
f 418/3/188 419/3/166 435/3/195 434/3/193
f 411/3/160 412/3/159 428/3/196 427/3/197
f 426/3/162 411/3/160 427/3/197 442/3/194
f 419/3/166 420/3/165 436/3/198 435/3/195
f 412/3/159 413/3/168 429/3/199 428/3/196
f 420/3/165 421/3/170 437/3/200 436/3/198
f 413/3/168 414/3/172 430/3/201 429/3/199
f 421/3/170 422/3/174 438/3/202 437/3/200
f 414/3/172 415/3/176 431/3/203 430/3/201
f 422/3/174 423/3/178 439/3/204 438/3/202
f 415/3/176 416/3/180 432/3/190 431/3/203
f 423/3/178 424/3/182 440/3/192 439/3/204
f 437/4/200 438/4/202 454/4/205 453/4/206
f 430/4/201 431/4/203 447/4/207 446/4/208
f 438/4/202 439/4/204 455/4/209 454/4/205
f 431/4/203 432/4/190 448/4/210 447/4/207
f 439/4/204 440/4/192 456/4/211 455/4/209
f 432/4/190 433/4/189 449/4/212 448/4/210
f 440/4/192 441/4/191 457/4/213 456/4/211
f 433/4/189 434/4/193 450/4/214 449/4/212
f 441/4/191 442/4/194 458/4/215 457/4/213
f 434/4/193 435/4/195 451/4/216 450/4/214
f 427/4/197 428/4/196 444/4/217 443/4/218
f 442/4/194 427/4/197 443/4/218 458/4/215
f 435/4/195 436/4/198 452/4/219 451/4/216
f 428/4/196 429/4/199 445/4/220 444/4/217
f 436/4/198 437/4/200 453/4/206 452/4/219
f 429/4/199 430/4/201 446/4/208 445/4/220
f 402/3/221 403/3/222 475/3/222 474/3/221
f 409/3/223 410/3/224 477/3/224 473/3/223
f 401/3/225 402/3/221 474/3/221 472/3/225
f 408/3/226 409/3/223 473/3/223 471/3/226
f 400/3/227 401/3/225 472/3/225 470/3/227
f 407/3/228 408/3/226 471/3/226 469/3/228
f 399/3/229 400/3/227 470/3/227 468/3/229
f 406/3/230 407/3/228 469/3/228 467/3/230
f 398/3/231 399/3/229 468/3/229 466/3/231
f 405/3/232 406/3/230 467/3/230 465/3/232
f 397/3/233 398/3/231 466/3/231 464/3/233
f 404/3/234 405/3/232 465/3/232 463/3/234
f 396/3/235 397/3/233 464/3/233 460/3/235
f 403/3/222 404/3/234 463/3/234 475/3/222
f 410/3/224 395/3/236 490/3/236 477/3/224
f 395/3/236 396/3/235 460/3/235 490/3/236
f 444/4/217 445/4/220 446/4/208 447/4/207 448/4/210 449/4/212 450/4/214 451/4/216 452/4/219 453/4/206 454/4/205 455/4/209 456/4/211 457/4/213 458/4/215 443/4/218
