# Blender 5.2.2 LTS
# www.blender.org
mtllib 306.mtl
o 306
v -0.559147 1.366864 0.190921
v -0.505849 1.358186 -1.452753
v -0.518335 1.425815 -1.042513
v -0.528327 1.432325 -0.263670
v 0.000000 1.394072 0.277080
v -0.293177 1.394072 0.256674
v -0.691217 0.986393 0.921005
v -0.674040 0.980535 1.012044
v 0.000000 1.004834 1.086613
v -0.392940 0.995426 1.066115
v -0.734492 0.970137 1.013916
v -0.382535 0.705136 1.993672
v -0.669899 0.901471 1.482156
v -0.617813 0.859142 1.685731
v 0.000292 0.717302 2.027336
v -0.192271 0.717022 2.018670
v 0.000000 0.891875 1.695386
v 0.000000 0.941067 1.466660
v -0.311891 0.608332 2.050165
v 0.001652 0.604133 2.071456
v -0.412973 0.610741 2.040478
v -0.749619 0.832554 1.527306
v -0.674564 0.798034 1.738330
v -0.504270 0.717554 1.940078
v -0.794964 0.905053 1.032760
v -0.789446 0.955462 0.647540
v -0.781089 0.724114 1.645610
v -0.875861 0.648168 1.504482
v -0.875861 0.625555 1.469668
v -0.823901 0.204508 1.622191
v -0.849881 0.420893 1.612713
v -0.866634 0.531445 1.562103
v 0.000000 0.231661 2.098874
v -0.730254 0.211066 1.829926
v -0.541819 0.216002 2.006642
v -0.347954 0.224353 2.070182
v 0.000000 0.451224 2.093622
v -0.611732 0.459479 1.952689
v -0.277552 0.451224 2.079283
v -0.376343 0.285264 2.080043
v -0.528605 0.351137 2.029007
v 0.000000 0.283169 2.103986
v -0.742002 0.663077 1.742979
v -0.568236 0.623262 1.940509
v -0.782111 1.015251 -0.142567
v -0.776651 1.016865 -0.401230
v -0.746271 1.048946 -1.090376
v -0.697761 1.145008 -1.235153
v -0.623798 1.301813 -1.235506
v -0.611547 1.334327 -1.096147
v -0.605817 1.376310 -0.460290
v -0.616029 1.361752 -0.221818
v -0.642648 1.302001 0.158099
v -0.728784 1.071130 0.626488
v -0.703761 1.152712 0.505477
v -0.633969 1.194444 0.558556
v -0.833265 0.932270 -0.170350
v -0.831580 0.945548 -0.370886
v -0.828973 0.866226 0.825732
v -0.863958 0.686850 0.822482
v -0.783709 0.984573 -1.631716
v -0.580834 1.297765 -1.522345
v 0.000000 1.456312 -1.044025
v 0.000000 1.399782 -1.402776
v 0.000000 1.455551 -0.239502
v -0.256434 1.385171 -1.420427
v -0.266210 1.452044 -0.248175
v -0.887152 0.687702 1.280040
v -0.891569 0.662315 1.078904
v -0.893532 0.554460 0.953559
v -0.885679 0.376644 0.877768
v -0.870320 0.320686 0.772327
v -0.869212 0.395856 -1.037551
v -0.884579 0.572572 -1.123105
v -0.893608 0.676404 -1.308463
v -0.893474 0.674861 -1.497713
v -0.884366 0.570126 -1.661682
v -0.870866 0.414868 -1.742702
v -0.857175 0.254343 -1.757827
v -0.636520 1.085344 -1.779239
v 0.000000 1.088305 -1.941505
v -0.394179 1.084832 -1.898215
v -0.548273 1.086117 -1.846241
v -0.648159 0.261195 -2.008836
v 0.000000 0.266792 -2.015246
v -0.362511 0.263231 -1.999219
v -0.827460 0.844570 -1.710468
v -0.541719 0.372437 -2.074442
v 0.000000 0.373950 -2.097886
v 0.000000 0.637673 -2.087064
v 0.000000 0.697669 -2.021160
v 0.000000 0.740867 -2.050903
v 0.000000 0.916574 -2.061100
v -0.730953 0.850496 -1.871356
v 0.000000 1.252466 -1.722268
v 0.000000 1.353670 -1.528794
v -0.540014 0.855226 -1.998880
v -0.418487 0.856214 -2.023158
v -0.458945 0.979627 -1.984766
v -0.651121 1.017838 -1.866762
v -0.747771 1.032447 -1.664472
v -0.335497 0.913289 -2.041474
v -0.274149 0.741585 -2.045159
v -0.870320 0.345817 -0.152561
v -0.870320 0.373777 -0.834758
v -0.801258 0.972567 -1.243803
v -0.807591 0.205650 1.658370
v -0.851251 0.448935 1.643308
v -0.866960 0.553869 1.595656
v -0.890487 0.729316 1.283626
v -0.895137 0.698717 1.051299
v -0.897204 0.585174 0.912171
v -0.878813 0.355928 0.825188
v -0.840868 0.172778 0.809382
v -0.730739 1.077594 -1.181677
v -0.848555 0.497428 -0.998570
v -0.769674 0.452357 1.772213
v -0.783649 0.429383 1.759478
v -0.747949 0.316729 1.816024
v -0.567206 0.302719 2.014301
v -0.656960 0.425821 1.929844
v -0.574838 0.332671 1.992087
v -0.847176 0.702268 -1.665833
v -0.495992 0.703073 -2.002325
v -0.713585 0.701924 -1.881900
v -0.258278 1.447849 -1.037776
v -0.519593 1.438969 -0.499927
v 0.005697 1.464404 -0.483564
v -0.258102 1.459391 -0.487702
v -0.313008 0.711167 2.006790
v -0.515285 0.877101 1.664033
v -0.576040 0.915603 1.466387
v -0.298456 0.887687 1.683578
v -0.347607 0.932816 1.465463
v -0.518821 0.798709 1.863958
v 0.000000 0.819096 1.904855
v -0.589417 0.767819 1.851735
v -0.413751 0.809842 1.873096
v -0.241542 0.817516 1.892859
v -0.829131 0.678785 1.566415
v -0.810010 0.598907 1.669616
v 0.000000 0.510504 2.094729
v -0.283908 0.514644 2.082736
v -0.590940 0.538793 1.946867
v -0.421762 0.452840 2.057209
v -0.417314 0.520695 2.059791
v -0.837791 0.302343 1.621587
v -0.828223 0.304838 1.655197
v -0.667698 0.642335 1.820045
v -0.719210 0.561410 1.806681
v -0.720844 0.945698 1.201653
v 0.000000 0.986173 1.191593
v -0.781207 0.875531 1.235279
v -0.647862 0.961205 1.155969
v -0.387544 0.977429 1.176331
v -0.811261 0.827949 1.266282
v -0.826985 0.847792 1.041414
v -0.768607 0.796228 1.558804
v -0.697872 0.925551 1.359809
v 0.000000 0.963515 1.335861
v -0.605827 0.938342 1.341821
v -0.370734 0.954975 1.326992
v -0.767478 0.851492 1.398790
v -0.792600 0.811347 1.422574
v -0.797554 0.915410 0.922958
v -0.828808 0.857009 0.930257
v -0.736947 0.979673 0.918316
v -0.887805 0.677402 0.942843
v -0.867632 0.409000 -0.998134
v -0.884990 0.608613 -1.094773
v -0.895188 0.725897 -1.304147
v -0.895037 0.724154 -1.517916
v -0.884749 0.605849 -1.703128
v -0.869499 0.430476 -1.794646
v -0.838873 0.255596 -1.796720
v -0.791851 0.979002 -1.451729
v -0.742294 1.044472 -1.447307
v -0.870320 0.354550 -0.365638
v -0.826990 0.201371 -0.370962
v -0.877454 0.573313 0.757910
v -0.808666 0.967497 -1.080035
v -0.855388 0.838709 -0.165595
v -0.857107 0.851197 -0.368310
v -0.861229 0.787392 0.350800
v -0.784688 0.977082 0.319542
v -0.831119 0.899248 0.327691
v -0.870320 0.333251 0.309883
v -0.862739 0.613144 -0.219160
v -0.861984 0.623914 -0.426617
v -0.869283 0.579561 0.272545
v -0.843310 0.681577 -1.093615
v -0.837402 0.881224 -1.205994
v -0.847116 0.874684 -1.025581
v -0.837141 0.669018 -0.994908
v -0.492154 0.636439 -2.069797
v -0.790784 0.258244 -1.898395
v -0.754499 0.425751 -1.948084
v -0.728219 0.621144 -1.922821
v 0.000000 0.999556 -2.031272
v -0.271232 1.085204 -1.916610
v -0.298738 0.988554 -2.011745
v -0.278475 0.373178 -2.094366
v -0.254841 0.700371 -2.016306
v -0.246077 0.637056 -2.082994
v -0.316295 0.856169 -2.045159
v -0.432106 0.907163 -2.016263
v -0.367472 0.701722 -2.016078
v -0.364594 0.636748 -2.083158
v -0.412841 0.372990 -2.087415
v -0.861615 0.737610 -1.645642
v -0.717892 0.738771 -1.879285
v -0.517457 0.740723 -1.999364
v -0.380124 0.740265 -2.021691
v -0.778557 0.908168 -1.776162
v -0.767619 0.981134 -1.743209
v -0.827058 0.889984 -1.390212
v -0.815203 0.900023 -1.601351
v -0.846220 0.818087 -1.333024
v -0.837677 0.833829 -1.545768
v 0.000000 0.764746 -1.992882
v 0.000000 0.892695 -2.000308
v -0.289902 0.890303 -1.986016
v -0.245229 0.765269 -1.988699
v -0.275919 0.848708 -1.988699
v 0.000000 0.852585 -1.997980
v -0.131428 0.605894 2.063728
v -0.106153 0.451224 2.091421
v -0.108621 0.512112 2.091696
v -0.195315 0.451224 2.085782
v -0.225627 0.607033 2.056563
v -0.199813 0.513434 2.087354
v -0.199971 0.741383 2.008983
v 0.000000 0.741625 2.017854
v -0.331184 0.734554 1.995392
v -0.429881 0.726395 1.977835
v -0.326311 0.583986 2.058010
v -0.123898 0.581423 2.073662
v 0.001945 0.579795 2.080944
v -0.210214 0.582519 2.067242
v -0.775931 0.470531 1.767966
v -0.798035 0.431060 1.744283
v -0.755406 0.300017 1.809015
v -0.551737 0.284229 2.033210
v -0.654361 0.442112 1.936901
v -0.565946 0.342810 2.003994
v -0.266968 0.284655 2.087001
v -0.257959 0.226243 2.077603
v -0.186688 0.284208 2.092109
v -0.178652 0.227909 2.084142
v -0.103877 0.283747 2.097377
v -0.099155 0.229578 2.090697
v -0.654655 0.987422 0.903042
v 0.000000 1.004834 0.973668
v -0.383528 0.995426 0.953171
v 0.000000 1.199453 0.625374
v -0.338353 1.194749 0.604922
v -0.681897 1.020263 0.862000
v -0.598005 1.194481 0.564197
v 0.000000 1.374110 0.312805
v -0.297698 1.374127 0.291522
v -0.536863 1.352012 0.236580
v -0.705832 1.174493 -0.180518
v -0.708818 1.159589 -0.424681
v -0.701911 1.142703 -1.096741
v -0.787887 0.994330 -0.373782
v -0.756088 1.027910 -1.095118
v -0.738842 1.059719 -1.196497
v -0.700547 1.138001 -1.258593
v -0.615551 1.318196 -1.258998
v -0.601552 1.355350 -1.099748
v -0.595609 1.398893 -0.440255
v -0.707769 1.162902 -0.401480
v -0.795717 0.954535 0.318114
v -0.796442 0.985733 -0.170410
v -0.601166 1.395001 -0.272096
v -0.631959 1.324901 0.166072
v -0.693921 1.171914 0.517753
v -0.736826 1.013068 0.753073
v -0.709664 1.167605 -0.215598
v -0.800143 0.925767 0.806524
v -0.562870 0.625555 1.469668
v -0.510910 0.204508 1.622191
v -0.536890 0.420893 1.612713
v -0.553644 0.531445 1.562103
v -0.574161 0.687702 1.280040
v -0.578578 0.662315 1.078904
v -0.580541 0.554460 0.953559
v -0.572688 0.376644 0.877768
v -0.528545 0.171376 0.866150
v -0.524800 0.302343 1.621587
v -0.528545 0.218126 -1.026285
v -0.528545 0.395856 -1.037551
v -0.528545 0.572572 -1.123105
v -0.528545 0.676404 -1.308463
v -0.528545 0.674861 -1.497713
v -0.528545 0.570126 -1.661682
v -0.528545 0.414868 -1.742702
v -0.528545 0.254343 -1.757827
v -0.607436 1.196945 -1.644898
v -0.689883 1.145732 -1.471288
v -0.331002 1.239223 -1.687244
v -0.317692 1.337468 -1.532055
v -0.522068 1.370040 -1.426312
v -0.609562 1.300916 -1.508040
v -0.260291 1.397631 -1.392024
v 0.000000 1.410544 -1.373366
v -0.637411 1.194622 -1.636475
v -0.670199 1.069479 -1.787685
v -0.274149 1.067074 -1.941848
v 0.000000 1.069561 -1.966538
v -0.560289 1.067907 -1.868904
v -0.400232 1.066858 -1.923101
v -0.274154 0.264099 -2.003125
v -0.695369 0.260893 -1.999093
v -0.557693 0.404885 -2.083302
v -0.278846 0.406085 -2.103420
v 0.000000 0.407285 -2.105283
v -0.413747 0.405485 -2.097842
v -0.648159 0.261195 -1.889975
v -0.362511 0.263231 -1.880358
v -0.541719 0.372437 -1.955582
v -0.412841 0.372990 -1.968554
v -0.408738 0.443679 1.975319
v -0.577360 0.449573 1.882545
v -0.207738 0.442245 2.000681
v -0.280734 0.442245 1.994913
v -0.503574 0.353406 1.950286
v -0.368423 0.294935 1.995587
v -0.126576 0.293589 2.010973
v 0.000000 0.293075 2.016839
v 0.000000 0.442245 2.007640
v -0.128596 0.442245 2.005687
v -0.271339 0.294394 2.001763
v -0.200081 0.293998 2.006297
v -0.735156 0.433795 1.719744
v -0.528920 0.326180 1.949669
v -0.720275 0.465805 1.735760
v -0.703267 0.306552 1.773013
v -0.522524 0.292542 1.971291
v -0.607561 0.439269 1.893391
v -0.068193 0.688659 2.009120
v -0.050036 0.615946 2.037864
v 0.000000 0.708537 2.004517
v 0.002761 0.595368 2.048636
v -0.310179 0.702017 1.984272
v -0.223170 0.598252 2.033855
v -0.379446 0.695730 1.971294
v -0.308802 0.598927 2.027786
v -0.700716 0.913877 -1.869617
v -0.529964 0.907946 -1.987994
v -0.936450 1.051400 0.542351
v -0.788418 1.051589 0.627659
v -0.954862 0.955400 0.521379
v -0.792944 0.958811 0.627659
v -0.914520 1.076816 0.641144
v -0.796062 1.050053 0.683334
v -0.935348 0.946647 0.616101
v -0.800532 0.958411 0.683334
v -0.802069 1.055359 0.596042
v -0.807865 0.955301 0.598029
v -0.798051 1.072198 0.705909
v -0.804719 0.935493 0.705909
v -0.660693 1.045359 0.645022
v -0.665218 0.952580 0.645022
v -0.668336 1.043823 0.700698
v -0.672807 0.952181 0.700698
v -0.950176 1.070135 0.536744
v -0.784208 1.074979 0.605084
v -0.977123 0.936267 0.510319
v -0.790977 0.936216 0.605084
v -0.190445 0.708405 1.995840
v -0.129946 0.597205 2.040900
v 0.000484 0.688707 2.012248
v 0.002277 0.615216 2.040899
v 0.000000 0.204508 1.622191
v 0.000000 0.218126 -1.026285
v 0.000000 0.254343 -1.757827
v -0.841536 0.171376 0.866150
v -0.819284 0.218126 -1.026285
v -0.819790 0.217063 -0.983247
v -0.829497 0.196669 -0.157714
v -0.821495 0.212916 -0.838323
v -0.840193 0.174196 0.751967
v -0.834845 0.185433 0.297127
v 0.000000 0.171376 0.866150
v -0.829466 0.195036 -0.160391
v -0.834801 0.183829 0.293293
v -0.840115 0.172662 0.745299
v 0.000000 0.263231 -1.880358
v 0.559147 1.366864 0.190921
v 0.505849 1.358186 -1.452753
v 0.518335 1.425815 -1.042513
v 0.528327 1.432325 -0.263670
v 0.293177 1.394072 0.256674
v 0.691217 0.986393 0.921005
v 0.674040 0.980535 1.012044
v 0.392940 0.995426 1.066115
v 0.734492 0.970137 1.013916
v 0.382535 0.705136 1.993672
v 0.669899 0.901471 1.482156
v 0.617813 0.859142 1.685731
v -0.000292 0.717302 2.027336
v 0.192271 0.717022 2.018670
v 0.311891 0.608332 2.050165
v -0.001652 0.604133 2.071456
v 0.412973 0.610741 2.040478
v 0.749619 0.832554 1.527306
v 0.674564 0.798034 1.738330
v 0.504270 0.717554 1.940078
v 0.794964 0.905053 1.032760
v 0.789446 0.955462 0.647540
v 0.781089 0.724114 1.645610
v 0.875861 0.648168 1.504482
v 0.875861 0.625555 1.469668
v 0.823901 0.204508 1.622191
v 0.849881 0.420893 1.612713
v 0.866634 0.531445 1.562103
v 0.730254 0.211066 1.829926
v 0.541819 0.216002 2.006642
v 0.347954 0.224353 2.070182
v 0.611732 0.459479 1.952689
v 0.277552 0.451224 2.079283
v 0.376343 0.285264 2.080043
v 0.528605 0.351137 2.029007
v 0.742002 0.663077 1.742979
v 0.568236 0.623262 1.940509
v 0.782111 1.015251 -0.142567
v 0.776651 1.016865 -0.401230
v 0.746271 1.048946 -1.090376
v 0.697761 1.145008 -1.235153
v 0.623798 1.301813 -1.235506
v 0.611547 1.334327 -1.096147
v 0.605817 1.376310 -0.460290
v 0.616029 1.361752 -0.221818
v 0.642648 1.302001 0.158099
v 0.728784 1.071130 0.626488
v 0.703761 1.152712 0.505477
v 0.633969 1.194444 0.558556
v 0.833265 0.932270 -0.170350
v 0.831580 0.945548 -0.370886
v 0.828973 0.866226 0.825732
v 0.863958 0.686850 0.822482
v 0.783709 0.984573 -1.631716
v 0.580834 1.297765 -1.522345
v 0.256434 1.385171 -1.420427
v 0.266210 1.452044 -0.248175
v 0.887152 0.687702 1.280040
v 0.891569 0.662315 1.078904
v 0.893532 0.554460 0.953559
v 0.885679 0.376644 0.877768
v 0.870320 0.320686 0.772327
v 0.869212 0.395856 -1.037551
v 0.884579 0.572572 -1.123105
v 0.893608 0.676404 -1.308463
v 0.893474 0.674861 -1.497713
v 0.884366 0.570126 -1.661682
v 0.870866 0.414868 -1.742702
v 0.857175 0.254343 -1.757827
v 0.636520 1.085344 -1.779239
v 0.394179 1.084832 -1.898215
v 0.548273 1.086117 -1.846241
v 0.648159 0.261195 -2.008836
v 0.362511 0.263231 -1.999219
v 0.827460 0.844570 -1.710468
v 0.541719 0.372437 -2.074442
v 0.730953 0.850496 -1.871356
v 0.540014 0.855226 -1.998880
v 0.418487 0.856214 -2.023158
v 0.458945 0.979627 -1.984766
v 0.651121 1.017838 -1.866762
v 0.747771 1.032447 -1.664472
v 0.335497 0.913289 -2.041474
v 0.274149 0.741585 -2.045159
v 0.870320 0.345817 -0.152561
v 0.870320 0.373777 -0.834758
v 0.801258 0.972567 -1.243803
v 0.807591 0.205650 1.658370
v 0.851251 0.448935 1.643308
v 0.866960 0.553869 1.595656
v 0.890487 0.729316 1.283626
v 0.895137 0.698717 1.051299
v 0.897204 0.585174 0.912171
v 0.878813 0.355928 0.825188
v 0.840868 0.172778 0.809382
v 0.730739 1.077594 -1.181677
v 0.848555 0.497428 -0.998570
v 0.769674 0.452357 1.772213
v 0.783649 0.429383 1.759478
v 0.747949 0.316729 1.816024
v 0.567206 0.302719 2.014301
v 0.656960 0.425821 1.929844
v 0.574838 0.332671 1.992087
v 0.847176 0.702268 -1.665833
v 0.495992 0.703073 -2.002325
v 0.713585 0.701924 -1.881900
v 0.258278 1.447849 -1.037776
v 0.519593 1.438969 -0.499927
v -0.005697 1.464404 -0.483564
v 0.258102 1.459391 -0.487702
v 0.313008 0.711167 2.006790
v 0.515285 0.877101 1.664033
v 0.576040 0.915603 1.466387
v 0.298456 0.887687 1.683578
v 0.347607 0.932816 1.465463
v 0.518821 0.798709 1.863958
v 0.589417 0.767819 1.851735
v 0.413751 0.809842 1.873096
v 0.241542 0.817516 1.892859
v 0.829131 0.678785 1.566415
v 0.810010 0.598907 1.669616
v 0.283908 0.514644 2.082736
v 0.590940 0.538793 1.946867
v 0.421762 0.452840 2.057209
v 0.417314 0.520695 2.059791
v 0.837791 0.302343 1.621587
v 0.828223 0.304838 1.655197
v 0.667698 0.642335 1.820045
v 0.719210 0.561410 1.806681
v 0.720844 0.945698 1.201653
v 0.781207 0.875531 1.235279
v 0.647862 0.961205 1.155969
v 0.387544 0.977429 1.176331
v 0.811261 0.827949 1.266282
v 0.826985 0.847792 1.041414
v 0.768607 0.796228 1.558804
v 0.697872 0.925551 1.359809
v 0.605827 0.938342 1.341821
v 0.370734 0.954975 1.326992
v 0.767478 0.851492 1.398790
v 0.792600 0.811347 1.422574
v 0.797554 0.915410 0.922958
v 0.828808 0.857009 0.930257
v 0.736947 0.979673 0.918316
v 0.887805 0.677402 0.942843
v 0.867632 0.409000 -0.998134
v 0.884990 0.608613 -1.094773
v 0.895188 0.725897 -1.304147
v 0.895037 0.724154 -1.517916
v 0.884749 0.605849 -1.703128
v 0.869499 0.430476 -1.794646
v 0.838873 0.255596 -1.796720
v 0.791851 0.979002 -1.451729
v 0.742294 1.044472 -1.447307
v 0.870320 0.354550 -0.365638
v 0.826990 0.201371 -0.370962
v 0.877454 0.573313 0.757910
v 0.808666 0.967497 -1.080035
v 0.855388 0.838709 -0.165595
v 0.857107 0.851197 -0.368310
v 0.861229 0.787392 0.350800
v 0.784688 0.977082 0.319542
v 0.831119 0.899248 0.327691
v 0.870320 0.333251 0.309883
v 0.862739 0.613144 -0.219160
v 0.861984 0.623914 -0.426617
v 0.869283 0.579561 0.272545
v 0.843310 0.681577 -1.093615
v 0.837402 0.881224 -1.205994
v 0.847116 0.874684 -1.025581
v 0.837141 0.669018 -0.994908
v 0.492154 0.636439 -2.069797
v 0.790784 0.258244 -1.898395
v 0.754499 0.425751 -1.948084
v 0.728219 0.621144 -1.922821
v 0.271232 1.085204 -1.916610
v 0.298738 0.988554 -2.011745
v 0.278475 0.373178 -2.094366
v 0.254841 0.700371 -2.016306
v 0.246077 0.637056 -2.082994
v 0.316295 0.856169 -2.045159
v 0.432106 0.907163 -2.016263
v 0.367472 0.701722 -2.016078
v 0.364594 0.636748 -2.083158
v 0.412841 0.372990 -2.087415
v 0.861615 0.737610 -1.645642
v 0.717892 0.738771 -1.879285
v 0.517457 0.740723 -1.999364
v 0.380124 0.740265 -2.021691
v 0.778557 0.908168 -1.776162
v 0.767619 0.981134 -1.743209
v 0.827058 0.889984 -1.390212
v 0.815203 0.900023 -1.601351
v 0.846220 0.818087 -1.333024
v 0.837677 0.833829 -1.545768
v 0.289902 0.890303 -1.986016
v 0.245229 0.765269 -1.988699
v 0.275919 0.848708 -1.988699
v 0.131428 0.605894 2.063728
v 0.106153 0.451224 2.091421
v 0.108621 0.512112 2.091696
v 0.195315 0.451224 2.085782
v 0.225627 0.607033 2.056563
v 0.199813 0.513434 2.087354
v 0.199971 0.741383 2.008983
v 0.331184 0.734554 1.995392
v 0.429881 0.726395 1.977835
v 0.326311 0.583986 2.058010
v 0.123898 0.581423 2.073662
v -0.001945 0.579795 2.080944
v 0.210214 0.582519 2.067242
v 0.775931 0.470531 1.767966
v 0.798035 0.431060 1.744283
v 0.755406 0.300017 1.809015
v 0.551737 0.284229 2.033210
v 0.654361 0.442112 1.936901
v 0.565946 0.342810 2.003994
v 0.266968 0.284655 2.087001
v 0.257959 0.226243 2.077603
v 0.186688 0.284208 2.092109
v 0.178652 0.227909 2.084142
v 0.103877 0.283747 2.097377
v 0.099155 0.229578 2.090697
v 0.654655 0.987422 0.903042
v 0.383528 0.995426 0.953171
v 0.338353 1.194749 0.604922
v 0.681897 1.020263 0.862000
v 0.598005 1.194481 0.564197
v 0.297698 1.374127 0.291522
v 0.536863 1.352012 0.236580
v 0.705832 1.174493 -0.180518
v 0.708818 1.159589 -0.424681
v 0.701911 1.142703 -1.096741
v 0.787887 0.994330 -0.373782
v 0.756088 1.027910 -1.095118
v 0.738842 1.059719 -1.196497
v 0.700547 1.138001 -1.258593
v 0.615551 1.318196 -1.258998
v 0.601552 1.355350 -1.099748
v 0.595609 1.398893 -0.440255
v 0.707769 1.162902 -0.401480
v 0.795717 0.954535 0.318114
v 0.796442 0.985733 -0.170410
v 0.601166 1.395001 -0.272096
v 0.631959 1.324901 0.166072
v 0.693921 1.171914 0.517753
v 0.736826 1.013068 0.753073
v 0.709664 1.167605 -0.215598
v 0.800143 0.925767 0.806524
v 0.562870 0.625555 1.469668
v 0.510910 0.204508 1.622191
v 0.536890 0.420893 1.612713
v 0.553644 0.531445 1.562103
v 0.574161 0.687702 1.280040
v 0.578578 0.662315 1.078904
v 0.580541 0.554460 0.953559
v 0.572688 0.376644 0.877768
v 0.528545 0.171376 0.866150
v 0.524800 0.302343 1.621587
v 0.528545 0.218126 -1.026285
v 0.528545 0.395856 -1.037551
v 0.528545 0.572572 -1.123105
v 0.528545 0.676404 -1.308463
v 0.528545 0.674861 -1.497713
v 0.528545 0.570126 -1.661682
v 0.528545 0.414868 -1.742702
v 0.528545 0.254343 -1.757827
v 0.607436 1.196945 -1.644898
v 0.689883 1.145732 -1.471288
v 0.331002 1.239223 -1.687244
v 0.317692 1.337468 -1.532055
v 0.522068 1.370040 -1.426312
v 0.609562 1.300916 -1.508040
v 0.260291 1.397631 -1.392024
v 0.637411 1.194622 -1.636475
v 0.670199 1.069479 -1.787685
v 0.274149 1.067074 -1.941848
v 0.560289 1.067907 -1.868904
v 0.400232 1.066858 -1.923101
v 0.274154 0.264099 -2.003125
v 0.695369 0.260893 -1.999093
v 0.557693 0.404885 -2.083302
v 0.278846 0.406085 -2.103420
v 0.413747 0.405485 -2.097842
v 0.648159 0.261195 -1.889975
v 0.362511 0.263231 -1.880358
v 0.541719 0.372437 -1.955582
v 0.412841 0.372990 -1.968554
v 0.408738 0.443679 1.975319
v 0.577360 0.449573 1.882545
v 0.207738 0.442245 2.000681
v 0.280734 0.442245 1.994913
v 0.503574 0.353406 1.950286
v 0.368423 0.294935 1.995587
v 0.126576 0.293589 2.010973
v 0.128596 0.442245 2.005687
v 0.271339 0.294394 2.001763
v 0.200081 0.293998 2.006297
v 0.735156 0.433795 1.719744
v 0.528920 0.326180 1.949669
v 0.720275 0.465805 1.735760
v 0.703267 0.306552 1.773013
v 0.522524 0.292542 1.971291
v 0.607561 0.439269 1.893391
v 0.068193 0.688659 2.009120
v 0.050036 0.615946 2.037864
v -0.002761 0.595368 2.048636
v 0.310179 0.702017 1.984272
v 0.223170 0.598252 2.033855
v 0.379446 0.695730 1.971294
v 0.308802 0.598927 2.027786
v 0.700716 0.913877 -1.869617
v 0.529964 0.907946 -1.987994
v 0.936450 1.051400 0.542351
v 0.788418 1.051589 0.627659
v 0.954862 0.955400 0.521379
v 0.792944 0.958811 0.627659
v 0.914520 1.076816 0.641144
v 0.796062 1.050053 0.683334
v 0.935348 0.946647 0.616101
v 0.800532 0.958411 0.683334
v 0.802069 1.055359 0.596042
v 0.807865 0.955301 0.598029
v 0.798051 1.072198 0.705909
v 0.804719 0.935493 0.705909
v 0.660693 1.045359 0.645022
v 0.665218 0.952580 0.645022
v 0.668336 1.043823 0.700698
v 0.672807 0.952181 0.700698
v 0.950176 1.070135 0.536744
v 0.784208 1.074979 0.605084
v 0.977123 0.936267 0.510319
v 0.790977 0.936216 0.605084
v 0.190445 0.708405 1.995840
v 0.129946 0.597205 2.040900
v -0.000484 0.688707 2.012248
v -0.002277 0.615216 2.040899
v 0.841536 0.171376 0.866150
v 0.819284 0.218126 -1.026285
v 0.819790 0.217063 -0.983247
v 0.829497 0.196669 -0.157714
v 0.821495 0.212916 -0.838323
v 0.840193 0.174196 0.751967
v 0.834845 0.185433 0.297127
v 0.829466 0.195036 -0.160391
v 0.834801 0.183829 0.293293
v 0.840115 0.172662 0.745299
v -0.502355 0.367289 -2.079694
v -0.543882 0.350088 -2.079694
v -0.561083 0.308561 -2.079694
v -0.543882 0.267034 -2.079694
v -0.502355 0.249833 -2.079694
v -0.460829 0.267034 -2.079694
v -0.443628 0.308561 -2.079694
v -0.460829 0.350088 -2.079694
v -0.502355 0.367289 -1.943863
v -0.543882 0.350088 -1.943863
v -0.561083 0.308561 -1.943863
v -0.543882 0.267034 -1.943863
v -0.502355 0.249833 -1.943863
v -0.460829 0.267034 -1.943863
v -0.443628 0.308561 -1.943863
v -0.460829 0.350088 -1.943863
v -0.502355 0.350513 -2.079694
v -0.532020 0.338226 -2.079694
v -0.544307 0.308561 -2.079694
v -0.532020 0.278897 -2.079694
v -0.502355 0.266609 -2.079694
v -0.472691 0.278897 -2.079694
v -0.460404 0.308561 -2.079694
v -0.472691 0.338226 -2.079694
v -0.502355 0.350513 -2.001984
v -0.532020 0.338226 -2.001984
v -0.544307 0.308561 -2.001984
v -0.532020 0.278897 -2.001984
v -0.502355 0.266609 -2.001984
v -0.472691 0.278897 -2.001984
v -0.460404 0.308561 -2.001984
v -0.472691 0.338226 -2.001984
v -0.502355 0.308561 -2.001984
v 0.502355 0.367289 -2.079694
v 0.543882 0.350088 -2.079694
v 0.561083 0.308561 -2.079694
v 0.543882 0.267034 -2.079694
v 0.502355 0.249833 -2.079694
v 0.460829 0.267034 -2.079694
v 0.443628 0.308561 -2.079694
v 0.460829 0.350088 -2.079694
v 0.502355 0.367289 -1.943863
v 0.543882 0.350088 -1.943863
v 0.561083 0.308561 -1.943863
v 0.543882 0.267034 -1.943863
v 0.502355 0.249833 -1.943863
v 0.460829 0.267034 -1.943863
v 0.443628 0.308561 -1.943863
v 0.460829 0.350088 -1.943863
v 0.502355 0.350513 -2.079694
v 0.532020 0.338226 -2.079694
v 0.544307 0.308561 -2.079694
v 0.532020 0.278897 -2.079694
v 0.502355 0.266609 -2.079694
v 0.472691 0.278897 -2.079694
v 0.460404 0.308561 -2.079694
v 0.472691 0.338226 -2.079694
v 0.502355 0.350513 -2.001984
v 0.532020 0.338226 -2.001984
v 0.544307 0.308561 -2.001984
v 0.532020 0.278897 -2.001984
v 0.502355 0.266609 -2.001984
v 0.472691 0.278897 -2.001984
v 0.460404 0.308561 -2.001984
v 0.472691 0.338226 -2.001984
v 0.502355 0.308561 -2.001984
v -0.833265 0.932270 -0.170350
v -0.841015 0.899494 -0.168684
v -0.841278 0.883605 0.034594
v -0.832401 0.918964 0.030337
v -0.852028 0.923786 0.030715
v -0.852893 0.937093 -0.169972
v -0.860905 0.888427 0.034972
v -0.860642 0.904316 -0.168307
v 0.833265 0.932270 -0.170350
v 0.841015 0.899494 -0.168684
v 0.841278 0.883605 0.034594
v 0.832401 0.918964 0.030337
v 0.852028 0.923786 0.030715
v 0.852893 0.937093 -0.169972
v 0.860905 0.888427 0.034972
v 0.860642 0.904316 -0.168307
v -0.559530 1.374529 0.198443
v -0.518335 1.439081 -1.043614
v -0.528327 1.445587 -0.262529
v -0.519593 1.452281 -0.499897
v -0.522068 1.383217 -1.428192
v -0.516650 1.374529 0.198444
v -0.475455 1.439082 -1.043611
v -0.485447 1.445592 -0.262578
v -0.476713 1.452281 -0.499906
v -0.479189 1.383217 -1.428192
v -0.536343 1.370040 -1.403838
v -0.014275 1.348869 -1.695262
v -0.285691 1.342691 -1.677726
v -0.623837 1.300916 -1.485566
v -0.014275 1.410544 -1.350892
v -0.524007 1.337674 -1.629625
v -0.274566 1.397631 -1.369549
v -0.595022 1.325144 -1.558791
v 0.507793 1.370040 -1.403838
v 0.257142 1.342691 -1.677726
v 0.595287 1.300916 -1.485566
v 0.495457 1.337674 -1.629625
v 0.246017 1.397631 -1.369549
v 0.566472 1.325144 -1.558791
v -0.533714 1.357749 -1.402095
v -0.014275 1.336376 -1.693037
v -0.285047 1.330200 -1.675586
v -0.618107 1.289647 -1.484471
v -0.014275 1.398051 -1.348667
v -0.521641 1.325336 -1.627834
v -0.273929 1.385140 -1.367406
v -0.589292 1.313875 -1.557696
v 0.505164 1.357749 -1.402095
v 0.256497 1.330200 -1.675586
v 0.589557 1.289647 -1.484471
v 0.493091 1.325336 -1.627834
v 0.245380 1.385140 -1.367406
v 0.560742 1.313875 -1.557696
v 0.559530 1.374529 0.198443
v 0.518335 1.439081 -1.043615
v 0.528327 1.445587 -0.262529
v 0.519593 1.452281 -0.499898
v 0.522068 1.383217 -1.428192
v 0.516650 1.374529 0.198444
v 0.475455 1.439082 -1.043611
v 0.485447 1.445592 -0.262579
v 0.476713 1.452281 -0.499906
v 0.479189 1.383217 -1.428192
vn -0.0865 0.9499 0.3004
vn -0.0531 0.9958 0.0744
vn -0.2868 0.9558 0.0647
vn -0.3178 0.9194 0.2319
vn -0.0000 0.9484 0.3171
vn -0.0000 0.9972 0.0750
vn -0.0482 0.9623 -0.2676
vn -0.0567 0.9952 -0.0793
vn -0.0000 0.9969 -0.0790
vn -0.0000 0.9676 -0.2523
vn -0.0499 0.9987 0.0051
vn -0.0213 0.9997 0.0079
vn -0.3781 0.8860 -0.2683
vn -0.3416 0.9368 -0.0752
vn -0.3145 0.9492 -0.0112
vn -0.8597 0.5106 0.0145
vn -0.9027 0.4303 -0.0031
vn -0.9043 0.4265 -0.0200
vn -0.8425 0.5386 -0.0077
vn -0.7278 0.6856 -0.0138
vn -0.7184 0.6952 0.0244
vn -0.7270 0.6780 0.1084
vn -0.7487 0.6319 0.2004
vn -0.3220 0.8570 0.4023
vn -0.9784 -0.2046 -0.0313
vn -0.9944 -0.0995 -0.0367
vn -0.9865 -0.1600 -0.0336
vn -0.9988 -0.0491 0.0085
vn -0.9987 -0.0491 0.0093
vn -0.9969 -0.0658 0.0422
vn -0.9971 -0.0613 0.0462
vn -0.9965 -0.0763 0.0341
vn -0.9965 -0.0763 0.0340
vn -0.9972 -0.0656 0.0361
vn -0.9969 -0.0691 0.0365
vn -0.9946 -0.0898 0.0513
vn -0.9946 -0.0902 0.0515
vn -0.9832 -0.1174 0.1397
vn -0.9875 -0.1181 0.1041
vn -0.9542 -0.1363 0.2664
vn -0.9536 -0.1367 0.2683
vn -0.1233 0.8888 0.4414
vn -0.1530 0.7843 0.6013
vn -0.1175 0.8059 0.5802
vn -0.1133 0.8745 0.4716
vn -0.1017 0.8150 0.5705
vn -0.0933 0.8700 0.4842
vn -0.0269 0.9057 0.4231
vn -0.0299 0.8277 0.5603
vn -0.0000 0.8281 0.5606
vn -0.0000 0.8929 0.4503
vn -0.1087 0.9700 0.2176
vn -0.1119 0.9507 0.2894
vn -0.0929 0.9554 0.2802
vn -0.0887 0.9743 0.2069
vn -0.0749 0.9545 0.2886
vn -0.0679 0.9776 0.1994
vn -0.0243 0.9825 0.1846
vn -0.0237 0.9659 0.2578
vn -0.0000 0.9631 0.2693
vn -0.0000 0.9823 0.1873
vn -0.1079 0.9783 0.1771
vn -0.0872 0.9818 0.1689
vn -0.0663 0.9843 0.1634
vn -0.0265 0.9870 0.1584
vn -0.0000 0.9872 0.1592
vn -0.2888 0.4737 0.8320
vn -0.3673 0.5523 0.7484
vn -0.3141 0.3194 0.8941
vn -0.1404 0.2786 0.9501
vn -0.4060 0.6585 0.6337
vn -0.4052 0.7194 0.5641
vn -0.5717 0.7756 0.2676
vn -0.5577 0.7806 0.2821
vn -0.4550 0.7835 0.4232
vn -0.4860 0.7875 0.3789
vn -0.6525 0.7307 0.2011
vn -0.6316 0.7445 0.2164
vn -0.4617 0.1583 0.8728
vn -0.6887 0.0806 0.7205
vn -0.5805 0.1077 0.8071
vn -0.3704 0.1736 0.9125
vn -0.0606 0.1197 0.9910
vn -0.1041 0.1106 0.9884
vn -0.1112 -0.0466 0.9927
vn -0.0609 -0.0313 0.9977
vn -0.0000 -0.1141 0.9935
vn -0.0711 -0.1271 0.9893
vn -0.0711 -0.1260 0.9895
vn -0.8414 0.4207 0.3393
vn -0.8173 0.2624 0.5130
vn -0.7797 0.2487 0.5746
vn -0.8623 0.3518 0.3643
vn -0.8103 0.4948 0.3142
vn -0.8337 0.2684 0.4826
vn -0.0591 0.2726 0.9603
vn -0.7381 0.2601 0.6225
vn -0.7152 0.2640 0.6472
vn -0.6111 0.2449 0.7527
vn -0.6009 0.2175 0.7691
vn -0.3339 0.1239 0.9344
vn -0.3458 0.0321 0.9378
vn -0.5140 -0.2622 0.8167
vn -0.5007 -0.0601 0.8635
vn -0.8208 -0.0746 0.5663
vn -0.7925 -0.1775 0.5834
vn -0.9236 -0.1551 0.3505
vn -0.8962 -0.1253 0.4255
vn -0.8954 -0.1650 0.4135
vn -0.8399 0.0185 0.5424
vn -0.8777 0.0420 0.4774
vn -0.1456 -0.2416 0.9594
vn -0.2096 -0.2294 0.9505
vn -0.7960 0.1119 0.5948
vn -0.7157 0.6897 0.1099
vn -0.7139 0.6899 0.1200
vn -0.6946 0.7004 0.1642
vn -0.7004 0.6964 0.1568
vn -0.0463 0.9949 0.0897
vn -0.0291 0.9865 0.1612
vn -0.0000 0.9870 0.1605
vn -0.0000 0.9962 0.0868
vn -0.0950 0.9891 0.1126
vn -0.1014 0.9838 0.1478
vn -0.0720 0.9862 0.1491
vn -0.1487 0.9813 0.1219
vn -0.1217 0.9819 0.1448
vn -0.8183 0.5590 0.1336
vn -0.8240 0.5476 0.1455
vn -0.7948 0.5692 0.2105
vn -0.8564 0.5091 0.0861
vn -0.8792 0.4747 0.0411
vn -0.8204 0.5566 0.1311
vn -0.7863 0.5939 0.1703
vn -0.7794 0.5939 0.1996
vn -0.8408 0.4956 0.2176
vn -0.9185 0.3949 -0.0216
vn -0.9209 0.3898 -0.0037
vn -0.9706 0.2222 -0.0924
vn -0.8794 0.4728 0.0557
vn -0.8318 0.5504 0.0724
vn -0.9333 0.3589 0.0101
vn -0.8782 0.4774 0.0285
vn -0.9232 0.3833 0.0281
vn -0.8811 0.4729 0.0035
vn -0.9054 0.4240 0.0219
vn -0.7360 0.6700 0.0974
vn -0.7336 0.6728 0.0955
vn -0.7217 0.6603 0.2078
vn -0.2851 0.9419 0.1773
vn -0.1217 0.9701 0.2098
vn -0.9804 0.1860 -0.0649
vn -0.9687 0.2476 0.0165
vn -0.9726 0.2312 0.0248
vn -0.7665 0.6396 -0.0584
vn -0.7776 0.6249 -0.0702
vn -0.8886 0.4576 -0.0322
vn -0.6310 0.7087 -0.3155
vn -0.9862 -0.0899 -0.1387
vn -0.9979 -0.0530 -0.0364
vn -0.9979 -0.0533 -0.0368
vn -0.9867 -0.0891 -0.1358
vn -0.9992 -0.0372 -0.0134
vn -0.9993 -0.0333 0.0158
vn -0.9994 -0.0330 0.0126
vn -0.9992 -0.0379 -0.0153
vn -0.9979 -0.0471 0.0455
vn -0.9858 -0.1587 0.0545
vn -0.9868 -0.1524 0.0548
vn -0.9981 -0.0448 0.0426
vn -0.9664 -0.2521 0.0495
vn -0.9661 -0.1158 -0.2307
vn -0.7695 -0.0319 -0.6379
vn -0.7018 0.0941 -0.7061
vn -0.3240 -0.0556 -0.9444
vn -0.5374 -0.0780 -0.8397
vn -0.8368 0.5455 -0.0460
vn -0.7663 0.6142 -0.1885
vn -0.8741 0.4726 -0.1123
vn -0.8787 0.4766 -0.0266
vn -0.8599 0.5103 -0.0123
vn -0.8750 0.4837 -0.0216
vn -0.8734 0.4789 -0.0883
vn -0.5946 0.6602 -0.4589
vn -0.5890 0.7071 -0.3912
vn -0.9630 -0.2654 -0.0476
vn -0.9614 -0.2733 -0.0312
vn -0.9615 -0.2729 -0.0322
vn -0.9617 -0.2738 -0.0145
vn -0.9638 -0.2663 -0.0141
vn -0.9660 -0.2581 -0.0132
vn -0.9664 -0.2566 -0.0131
vn -0.9730 -0.2305 -0.0117
vn -0.9723 -0.2334 -0.0118
vn -0.9765 -0.2152 -0.0113
vn -0.9779 -0.2087 -0.0151
vn -0.9784 -0.2059 -0.0167
vn -0.9796 -0.2001 -0.0201
vn -0.9846 0.1071 -0.1378
vn -0.9974 0.0395 -0.0608
vn -0.9981 -0.0215 -0.0579
vn -0.9913 -0.0333 -0.1276
vn -0.8653 0.5011 -0.0121
vn -0.8402 0.5422 -0.0059
vn -0.9995 0.0286 -0.0132
vn -0.9990 0.0446 -0.0085
vn -0.9998 0.0213 -0.0038
vn -0.9996 0.0277 -0.0023
vn -0.9595 0.2817 0.0025
vn -0.9769 0.2131 -0.0133
vn -0.9426 0.3334 -0.0194
vn -0.9690 -0.2468 -0.0121
vn -0.9996 0.0262 -0.0071
vn -0.9984 0.0555 -0.0060
vn -0.9995 0.0328 -0.0032
vn -1.0000 -0.0004 -0.0077
vn -0.9999 0.0104 -0.0104
vn -0.9994 0.0278 -0.0229
vn -0.9997 -0.0127 -0.0205
vn -0.9645 0.2096 0.1610
vn -0.9455 0.1888 0.2653
vn -0.9961 0.0875 -0.0132
vn -0.9362 0.3411 -0.0844
vn -0.9578 0.2863 -0.0255
vn -0.0104 0.4342 -0.9008
vn -0.0026 0.7266 -0.6871
vn -0.0000 0.7320 -0.6813
vn -0.0000 0.4364 -0.8997
vn -0.0694 -0.1081 -0.9917
vn -0.2718 0.4016 -0.8745
vn -0.0477 0.4224 -0.9051
vn -0.6427 0.3541 -0.6794
vn -0.8056 0.3340 -0.4893
vn -0.8211 0.0950 -0.5628
vn -0.8412 -0.0608 -0.5373
vn -0.2876 0.6329 -0.7189
vn -0.6268 0.4993 -0.5982
vn -0.8670 0.2121 -0.4509
vn -0.3253 0.7252 -0.6068
vn -0.5865 0.4928 -0.6428
vn -0.1681 0.7336 -0.6585
vn -0.2785 0.4857 -0.8286
vn -0.0893 0.7429 -0.6634
vn -0.1153 0.5261 -0.8426
vn -0.0000 0.7442 -0.6680
vn -0.0000 0.5307 -0.8476
vn -0.0000 -0.0790 -0.9969
vn -0.0219 -0.0922 -0.9955
vn -0.0359 0.7168 -0.6963
vn -0.0000 -0.5733 -0.8193
vn -0.0499 -0.5196 -0.8529
vn -0.0666 -0.4882 -0.8702
vn -0.1857 0.2512 -0.9499
vn -0.2202 -0.0390 -0.9747
vn -0.2120 0.0084 -0.9772
vn -0.2311 0.2276 -0.9459
vn -0.0000 0.3656 -0.9308
vn -0.8954 0.1910 -0.4022
vn -0.7080 -0.0814 -0.7015
vn -0.6791 -0.0856 -0.7291
vn -0.3792 -0.1044 -0.9194
vn -0.2621 -0.1004 -0.9598
vn -0.1210 -0.2354 -0.9643
vn -0.1139 -0.2987 -0.9475
vn -0.3956 0.0851 -0.9145
vn -0.1981 -0.0685 -0.9778
vn -0.3413 -0.0526 -0.9385
vn -0.7261 0.0977 -0.6806
vn -0.6987 -0.0542 -0.7133
vn -0.9232 0.2232 -0.3129
vn -0.9414 0.2348 -0.2420
vn -0.2122 -0.0803 -0.9739
vn -0.8929 0.3023 -0.3336
vn -0.8462 0.3017 -0.4392
vn -0.8093 0.4825 -0.3348
vn -0.7804 0.3557 0.5142
vn -0.9577 0.2345 0.1668
vn -0.9351 0.3495 -0.0584
vn -0.9543 0.2953 0.0455
vn -0.8491 0.4912 0.1941
vn -0.9063 0.4203 -0.0450
vn -0.0000 0.9239 -0.3826
vn -0.0051 0.9239 -0.3826
vn -0.0116 -0.9290 -0.3699
vn -0.0000 -0.9290 -0.3700
vn 0.7957 0.2927 -0.5303
vn 0.7947 0.2976 -0.5290
vn 0.7950 0.2961 -0.5294
vn 0.7941 0.3010 -0.5281
vn -0.0353 -0.0153 -0.9993
vn -0.0000 -0.0184 -0.9998
vn -0.0000 -0.0343 -0.9994
vn -0.0256 -0.0343 -0.9991
vn -0.0416 -0.0028 -0.9991
vn -0.0000 -0.0028 -1.0000
vn -0.5174 0.3546 0.7788
vn -0.6755 0.3078 0.6700
vn -0.5867 0.3365 0.7366
vn -0.7633 0.3716 0.5286
vn -0.7424 0.3295 0.5833
vn -0.6146 0.5699 0.5454
vn -0.7380 0.4520 0.5011
vn -0.3470 0.7355 0.5819
vn -0.0398 0.2199 0.9747
vn -0.0486 0.2406 0.9694
vn -0.0437 0.1108 0.9929
vn -0.0000 0.1045 0.9945
vn -0.0395 -0.0150 0.9991
vn -0.0000 -0.0120 0.9999
vn -0.0706 0.3562 0.9317
vn -0.0421 0.3600 0.9320
vn -0.0833 0.3544 0.9314
vn -0.1376 0.3307 0.9336
vn -0.1696 0.3060 0.9368
vn -0.1023 0.3838 0.9177
vn -0.1666 0.3510 0.9214
vn -0.1667 0.3508 0.9215
vn -0.0492 0.3625 0.9307
vn -0.0590 0.3615 0.9305
vn -0.0557 0.3618 0.9306
vn -0.0667 0.3552 0.9324
vn -0.0661 0.3581 0.9313
vn 0.1552 0.9853 -0.0719
vn -0.5377 -0.6099 -0.5821
vn -0.1820 -0.8812 -0.4363
vn -0.1827 -0.8808 -0.4368
vn -0.5404 -0.6078 -0.5818
vn -0.7192 0.0376 0.6938
vn -0.7604 -0.0759 0.6450
vn -0.7385 0.0768 0.6699
vn -0.7424 0.1273 0.6577
vn -0.7661 -0.1554 0.6237
vn -0.7406 -0.0084 0.6719
vn 0.1646 0.9781 0.1274
vn -0.0017 0.9935 0.1136
vn 0.1908 0.9731 0.1293
vn -0.0702 -0.1691 0.9831
vn -0.0701 -0.1708 0.9828
vn -0.0000 -0.9946 0.1042
vn -0.0038 -0.9945 0.1049
vn -0.0047 -0.9944 0.1052
vn -0.0708 -0.1487 0.9864
vn -0.0708 -0.1502 0.9861
vn -0.0542 -0.9933 0.1025
vn -0.0880 -0.9914 0.0969
vn -0.0606 -0.9930 0.1014
vn 0.6829 0.6910 0.2371
vn 0.5087 0.8406 0.1860
vn 0.5470 0.8136 0.1974
vn -0.0547 0.9663 0.2514
vn 0.0048 0.9569 0.2903
vn -0.0000 0.9694 0.2457
vn -0.0000 0.8716 0.4902
vn -0.0768 0.8734 0.4809
vn -0.0965 0.8806 0.4639
vn -0.0000 0.8715 0.4905
vn -0.0727 0.8809 0.4676
vn -0.1476 0.8944 0.4222
vn -0.2036 0.8999 0.3856
vn -0.9057 0.4237 0.0099
vn -0.9044 0.4264 0.0147
vn -0.9004 0.4313 0.0571
vn -0.9070 0.4209 0.0128
vn -0.9066 0.4213 0.0241
vn -0.8849 0.4630 0.0506
vn -0.8839 0.4575 0.0969
vn -0.9048 0.4254 0.0199
vn -0.0000 -0.9126 0.4089
vn -0.0000 -0.5922 0.8058
vn -0.0000 -0.5887 0.8083
vn -0.0000 -0.9152 0.4030
vn -0.0000 -0.5767 -0.8170
vn -0.0000 -0.8548 -0.5190
vn -0.0000 -0.8444 -0.5357
vn -0.0000 -0.5577 -0.8301
vn -0.0000 -0.2421 0.9702
vn -0.0000 -0.2147 0.9767
vn -0.0000 -0.9960 -0.0898
vn -0.0000 -0.9949 -0.1009
vn -0.0000 -0.0062 -1.0000
vn -0.0000 -0.0431 -0.9991
vn -0.0000 -0.0378 -0.9993
vn -0.0000 -0.0565 0.9984
vn -0.0000 -0.2623 -0.9650
vn -0.0000 -0.2360 -0.9717
vn -0.9812 -0.1892 0.0377
vn -0.9892 -0.1396 0.0448
vn -0.9893 -0.1392 0.0448
vn -0.9956 -0.0798 0.0491
vn -0.9961 -0.0794 0.0395
vn -0.9960 -0.0798 0.0398
vn -0.9969 -0.0705 0.0334
vn -0.0000 -0.2768 -0.9609
vn -0.0000 -0.6945 -0.7195
vn -0.0000 -0.6857 -0.7279
vn -0.0000 -0.2543 -0.9671
vn -0.0000 -0.2932 0.9561
vn -0.0000 -0.0938 0.9956
vn -0.0000 -0.2835 0.9590
vn -0.0000 -0.9600 0.2801
vn -0.0000 -0.6833 0.7301
vn -0.0000 -0.6755 0.7373
vn -0.0000 -0.9587 0.2843
vn -0.0000 -0.9695 -0.2451
vn -0.0000 -0.9686 -0.2486
vn -0.0000 -0.0633 -0.9980
vn -1.0000 -0.0000 -0.0000
vn -0.1329 0.8287 -0.5437
vn -0.2192 0.7947 -0.5661
vn -0.1817 0.8199 -0.5429
vn -0.0960 0.8749 -0.4747
vn -0.0888 0.8120 -0.5769
vn -0.0000 0.8398 -0.5429
vn -0.0000 0.8093 -0.5874
vn -0.2345 0.8242 -0.5155
vn -0.1363 0.8172 -0.5600
vn -0.0000 0.9044 -0.4267
vn -0.2678 0.8110 -0.5202
vn -0.0000 0.9303 -0.3669
vn -0.0436 0.9186 -0.3928
vn -0.1075 0.8794 -0.4638
vn 0.3248 -0.9458 -0.0000
vn 0.0043 -1.0000 -0.0000
vn 0.4509 -0.8926 -0.0000
vn -0.0268 -0.4573 -0.8889
vn -0.0263 -0.6329 -0.7738
vn -0.0344 -0.6388 -0.7686
vn -0.0601 -0.4001 -0.9145
vn -0.0000 -0.4434 -0.8963
vn -0.0000 -0.6269 -0.7791
vn -0.1436 -0.3301 -0.9330
vn -0.1925 -0.3533 -0.9155
vn 0.4687 -0.8833 -0.0020
vn 0.1605 -0.9866 -0.0276
vn -0.9090 -0.4168 -0.0000
vn -0.0031 -0.5707 -0.8212
vn -0.2566 0.1134 0.9598
vn -0.1604 0.0743 0.9842
vn -0.1690 0.0778 0.9825
vn -0.0670 0.0362 0.9971
vn -0.0673 0.0363 0.9971
vn -0.0466 0.0416 0.9980
vn -0.0470 0.0414 0.9980
vn -0.0000 0.0484 0.9988
vn -0.0015 0.9935 0.1134
vn -0.0000 0.9936 0.1132
vn -0.0016 0.9935 0.1135
vn -0.0074 -0.9943 0.1060
vn -0.0170 -0.9942 0.1064
vn -0.0188 -0.9941 0.1065
vn -0.0077 -0.9943 0.1060
vn -0.7718 -0.0590 0.6332
vn -0.7120 0.1499 0.6860
vn -0.7336 0.0882 0.6738
vn -0.7893 -0.1843 0.5858
vn 0.5584 -0.5952 0.5779
vn -0.6314 -0.5297 -0.5663
vn 0.0938 -0.9686 -0.2302
vn 0.6034 0.4662 0.6470
vn -0.0017 -0.9327 0.3606
vn 0.0109 -0.9273 0.3742
vn 0.0108 -0.9271 0.3747
vn 0.0356 0.9341 -0.3552
vn 0.0333 0.9342 -0.3553
vn 0.0377 0.9312 -0.3626
vn 0.0377 0.9313 -0.3623
vn -0.0441 0.3608 0.9316
vn -0.0442 0.3594 0.9321
vn -0.0472 0.3593 0.9320
vn -0.0474 0.3605 0.9316
vn -0.0745 0.3515 0.9332
vn -0.1157 0.3738 0.9203
vn -0.1005 0.3589 0.9280
vn -0.0611 0.3536 0.9334
vn -0.1264 0.3843 0.9145
vn 0.0375 0.9283 -0.3698
vn 0.0100 -0.9237 0.3831
vn 0.8328 0.5419 -0.1128
vn -0.0151 -0.9346 0.3554
vn -0.6486 0.3143 -0.6932
vn -0.4035 0.2785 -0.8716
vn 0.4196 0.0360 -0.9070
vn -0.5313 -0.0247 0.8468
vn 0.0441 0.9985 0.0336
vn 0.0086 0.9998 -0.0199
vn -0.9360 0.1038 0.3364
vn -0.0677 -0.9961 0.0557
vn 0.9897 -0.0483 0.1345
vn 0.9897 -0.0483 0.1346
vn -0.1344 0.0066 0.9909
vn -0.0469 -0.9988 -0.0136
vn 0.1344 -0.0066 -0.9909
vn 0.3750 0.0425 -0.9260
vn 0.4573 0.0288 -0.8888
vn 0.4206 -0.0297 -0.9068
vn 0.4170 0.1039 -0.9029
vn -0.0427 0.3620 0.9312
vn -0.0492 0.3612 0.9312
vn -0.0000 -0.9993 -0.0371
vn 0.0036 -0.9984 -0.0561
vn -0.0000 -0.9981 -0.0609
vn 0.0026 -0.9992 0.0388
vn -0.0000 -1.0000 0.0093
vn -0.0000 -1.0000 0.0095
vn -0.0000 -0.9990 0.0458
vn -0.0003 -0.9996 -0.0268
vn 0.0010 -0.9997 -0.0256
vn 0.0012 -0.9997 -0.0259
vn -0.0000 -0.9997 -0.0247
vn 0.0071 -0.9997 -0.0223
vn 0.0008 -0.9997 -0.0244
vn 0.9999 -0.0003 0.0117
vn 0.9999 -0.0003 0.0118
vn 0.0171 -0.9998 -0.0046
vn 0.0202 -0.9997 -0.0124
vn 0.0021 -0.9988 -0.0485
vn 0.0063 -0.9991 -0.0415
vn 0.0034 -0.9988 -0.0498
vn -0.0000 -0.9990 -0.0441
vn 0.0056 -0.9999 -0.0113
vn 0.0098 -1.0000 -0.0000
vn -0.0000 -0.9999 -0.0158
vn 0.0163 -0.9982 0.0569
vn -0.0000 -0.9995 0.0316
vn -0.0009 -0.9995 0.0306
vn 0.0049 -0.9993 0.0375
vn 0.0109 -0.9989 0.0466
vn -0.0000 -0.9984 0.0569
vn 0.0865 0.9499 0.3004
vn 0.3178 0.9194 0.2319
vn 0.2868 0.9558 0.0647
vn 0.0531 0.9958 0.0744
vn 0.0482 0.9623 -0.2676
vn 0.0567 0.9952 -0.0793
vn 0.0499 0.9987 0.0051
vn 0.0213 0.9997 0.0079
vn 0.3781 0.8860 -0.2683
vn 0.3416 0.9368 -0.0752
vn 0.3145 0.9492 -0.0112
vn 0.8597 0.5106 0.0145
vn 0.8425 0.5386 -0.0077
vn 0.9043 0.4265 -0.0200
vn 0.9027 0.4303 -0.0031
vn 0.7278 0.6856 -0.0138
vn 0.7184 0.6952 0.0244
vn 0.7270 0.6780 0.1084
vn 0.7487 0.6319 0.2004
vn 0.3220 0.8570 0.4023
vn 0.9784 -0.2046 -0.0313
vn 0.9865 -0.1600 -0.0336
vn 0.9944 -0.0995 -0.0367
vn 0.9987 -0.0491 0.0093
vn 0.9988 -0.0491 0.0085
vn 0.9971 -0.0613 0.0462
vn 0.9969 -0.0658 0.0422
vn 0.9965 -0.0763 0.0340
vn 0.9965 -0.0763 0.0341
vn 0.9972 -0.0656 0.0361
vn 0.9969 -0.0691 0.0365
vn 0.9946 -0.0902 0.0515
vn 0.9946 -0.0898 0.0513
vn 0.9832 -0.1174 0.1397
vn 0.9875 -0.1181 0.1041
vn 0.9542 -0.1363 0.2664
vn 0.9536 -0.1367 0.2683
vn 0.1233 0.8888 0.4414
vn 0.1133 0.8745 0.4716
vn 0.1175 0.8059 0.5802
vn 0.1530 0.7843 0.6013
vn 0.0933 0.8700 0.4842
vn 0.1017 0.8150 0.5705
vn 0.0269 0.9057 0.4231
vn 0.0299 0.8277 0.5603
vn 0.1087 0.9700 0.2176
vn 0.0887 0.9743 0.2069
vn 0.0929 0.9554 0.2802
vn 0.1119 0.9507 0.2894
vn 0.0679 0.9776 0.1994
vn 0.0749 0.9545 0.2886
vn 0.0243 0.9825 0.1846
vn 0.0237 0.9659 0.2578
vn 0.1079 0.9783 0.1771
vn 0.0872 0.9818 0.1689
vn 0.0663 0.9843 0.1634
vn 0.0265 0.9870 0.1584
vn 0.2888 0.4737 0.8320
vn 0.1404 0.2786 0.9501
vn 0.3141 0.3194 0.8941
vn 0.3673 0.5523 0.7484
vn 0.4060 0.6585 0.6337
vn 0.4052 0.7194 0.5641
vn 0.5717 0.7756 0.2676
vn 0.4860 0.7875 0.3789
vn 0.4550 0.7835 0.4232
vn 0.5577 0.7806 0.2821
vn 0.6525 0.7307 0.2011
vn 0.6316 0.7445 0.2164
vn 0.4617 0.1583 0.8728
vn 0.3704 0.1736 0.9125
vn 0.5805 0.1077 0.8071
vn 0.6887 0.0806 0.7205
vn 0.0606 0.1197 0.9910
vn 0.0609 -0.0313 0.9977
vn 0.1112 -0.0466 0.9927
vn 0.1041 0.1106 0.9884
vn 0.0711 -0.1260 0.9895
vn 0.0711 -0.1271 0.9893
vn 0.8414 0.4207 0.3393
vn 0.8623 0.3518 0.3643
vn 0.7797 0.2487 0.5746
vn 0.8173 0.2624 0.5130
vn 0.8103 0.4948 0.3142
vn 0.8337 0.2684 0.4826
vn 0.0591 0.2726 0.9603
vn 0.7152 0.2640 0.6472
vn 0.7381 0.2601 0.6225
vn 0.3339 0.1239 0.9344
vn 0.6009 0.2175 0.7691
vn 0.6111 0.2449 0.7527
vn 0.3458 0.0321 0.9378
vn 0.5140 -0.2622 0.8167
vn 0.7925 -0.1775 0.5834
vn 0.8208 -0.0746 0.5662
vn 0.5007 -0.0601 0.8635
vn 0.9236 -0.1551 0.3505
vn 0.8962 -0.1253 0.4255
vn 0.8954 -0.1650 0.4135
vn 0.8777 0.0420 0.4774
vn 0.8399 0.0185 0.5424
vn 0.2096 -0.2294 0.9505
vn 0.1456 -0.2416 0.9594
vn 0.7960 0.1119 0.5948
vn 0.7157 0.6897 0.1099
vn 0.7004 0.6964 0.1568
vn 0.6946 0.7004 0.1642
vn 0.7139 0.6899 0.1200
vn 0.0463 0.9949 0.0897
vn 0.0291 0.9865 0.1612
vn 0.0950 0.9891 0.1126
vn 0.0720 0.9862 0.1491
vn 0.1014 0.9838 0.1478
vn 0.1487 0.9813 0.1219
vn 0.1217 0.9819 0.1448
vn 0.8183 0.5590 0.1336
vn 0.7948 0.5692 0.2105
vn 0.8240 0.5476 0.1455
vn 0.8564 0.5091 0.0861
vn 0.8204 0.5566 0.1311
vn 0.8792 0.4747 0.0411
vn 0.7863 0.5939 0.1703
vn 0.7794 0.5939 0.1996
vn 0.8408 0.4956 0.2176
vn 0.9185 0.3949 -0.0216
vn 0.9706 0.2222 -0.0924
vn 0.9209 0.3898 -0.0037
vn 0.8794 0.4728 0.0557
vn 0.9333 0.3589 0.0101
vn 0.8318 0.5504 0.0724
vn 0.8782 0.4774 0.0285
vn 0.9232 0.3833 0.0281
vn 0.9054 0.4240 0.0219
vn 0.8811 0.4729 0.0035
vn 0.7336 0.6728 0.0955
vn 0.7360 0.6700 0.0974
vn 0.7217 0.6603 0.2078
vn 0.2851 0.9419 0.1773
vn 0.1217 0.9701 0.2098
vn 0.9804 0.1860 -0.0649
vn 0.9726 0.2312 0.0248
vn 0.9687 0.2476 0.0165
vn 0.7665 0.6396 -0.0584
vn 0.7776 0.6249 -0.0702
vn 0.8886 0.4576 -0.0322
vn 0.6310 0.7087 -0.3155
vn 0.9862 -0.0899 -0.1387
vn 0.9867 -0.0891 -0.1358
vn 0.9979 -0.0533 -0.0368
vn 0.9979 -0.0530 -0.0364
vn 0.9992 -0.0372 -0.0134
vn 0.9992 -0.0379 -0.0153
vn 0.9994 -0.0330 0.0126
vn 0.9993 -0.0333 0.0158
vn 0.9979 -0.0471 0.0455
vn 0.9981 -0.0448 0.0426
vn 0.9868 -0.1524 0.0548
vn 0.9858 -0.1587 0.0545
vn 0.9664 -0.2521 0.0495
vn 0.9661 -0.1158 -0.2307
vn 0.7695 -0.0319 -0.6379
vn 0.5374 -0.0780 -0.8397
vn 0.3240 -0.0556 -0.9444
vn 0.7018 0.0941 -0.7061
vn 0.8368 0.5455 -0.0460
vn 0.8787 0.4766 -0.0266
vn 0.8741 0.4726 -0.1123
vn 0.7663 0.6142 -0.1885
vn 0.8599 0.5103 -0.0123
vn 0.8750 0.4837 -0.0216
vn 0.8734 0.4789 -0.0883
vn 0.5946 0.6602 -0.4589
vn 0.5890 0.7071 -0.3912
vn 0.9630 -0.2654 -0.0476
vn 0.9615 -0.2729 -0.0322
vn 0.9614 -0.2733 -0.0312
vn 0.9617 -0.2738 -0.0145
vn 0.9664 -0.2566 -0.0131
vn 0.9660 -0.2581 -0.0132
vn 0.9638 -0.2663 -0.0141
vn 0.9730 -0.2305 -0.0117
vn 0.9784 -0.2059 -0.0167
vn 0.9779 -0.2087 -0.0151
vn 0.9765 -0.2152 -0.0113
vn 0.9723 -0.2334 -0.0118
vn 0.9796 -0.2001 -0.0201
vn 0.9846 0.1071 -0.1378
vn 0.9974 0.0395 -0.0608
vn 0.9981 -0.0215 -0.0579
vn 0.9913 -0.0333 -0.1276
vn 0.8402 0.5422 -0.0059
vn 0.8653 0.5011 -0.0121
vn 0.9995 0.0286 -0.0132
vn 0.9996 0.0277 -0.0023
vn 0.9998 0.0213 -0.0038
vn 0.9990 0.0446 -0.0085
vn 0.9595 0.2817 0.0025
vn 0.9426 0.3334 -0.0194
vn 0.9769 0.2131 -0.0133
vn 0.9690 -0.2468 -0.0121
vn 0.9995 0.0328 -0.0032
vn 0.9984 0.0555 -0.0060
vn 0.9996 0.0262 -0.0071
vn 1.0000 -0.0004 -0.0077
vn 0.9999 0.0104 -0.0104
vn 0.9994 0.0278 -0.0229
vn 0.9645 0.2096 0.1610
vn 0.9997 -0.0127 -0.0205
vn 0.9961 0.0875 -0.0132
vn 0.9455 0.1888 0.2653
vn 0.9578 0.2863 -0.0255
vn 0.9362 0.3411 -0.0844
vn 0.0104 0.4342 -0.9008
vn 0.0026 0.7266 -0.6871
vn 0.0694 -0.1081 -0.9917
vn 0.0477 0.4224 -0.9051
vn 0.2718 0.4016 -0.8745
vn 0.6427 0.3541 -0.6794
vn 0.8056 0.3340 -0.4893
vn 0.8211 0.0950 -0.5628
vn 0.8412 -0.0608 -0.5373
vn 0.2876 0.6329 -0.7189
vn 0.6268 0.4993 -0.5982
vn 0.8670 0.2121 -0.4509
vn 0.5865 0.4928 -0.6428
vn 0.3253 0.7252 -0.6068
vn 0.2785 0.4857 -0.8286
vn 0.1681 0.7336 -0.6585
vn 0.0893 0.7429 -0.6634
vn 0.1153 0.5261 -0.8426
vn 0.0219 -0.0922 -0.9955
vn 0.0359 0.7168 -0.6963
vn 0.0666 -0.4882 -0.8702
vn 0.0499 -0.5196 -0.8529
vn 0.1857 0.2512 -0.9499
vn 0.2311 0.2276 -0.9459
vn 0.2120 0.0084 -0.9772
vn 0.2202 -0.0390 -0.9747
vn 0.8954 0.1910 -0.4022
vn 0.6791 -0.0856 -0.7291
vn 0.7080 -0.0814 -0.7015
vn 0.2621 -0.1004 -0.9598
vn 0.3792 -0.1044 -0.9194
vn 0.1139 -0.2987 -0.9475
vn 0.1210 -0.2354 -0.9643
vn 0.3956 0.0851 -0.9145
vn 0.3413 -0.0526 -0.9385
vn 0.1981 -0.0685 -0.9778
vn 0.7261 0.0977 -0.6806
vn 0.6987 -0.0542 -0.7133
vn 0.9232 0.2232 -0.3129
vn 0.9414 0.2348 -0.2420
vn 0.2122 -0.0803 -0.9739
vn 0.8929 0.3023 -0.3336
vn 0.8462 0.3017 -0.4392
vn 0.8093 0.4825 -0.3348
vn 0.9577 0.2345 0.1668
vn 0.7804 0.3557 0.5142
vn 0.9351 0.3495 -0.0584
vn 0.9543 0.2953 0.0455
vn 0.8491 0.4912 0.1941
vn 0.9063 0.4203 -0.0450
vn 0.0051 0.9239 -0.3826
vn 0.0116 -0.9290 -0.3699
vn -0.7957 0.2927 -0.5303
vn -0.7950 0.2961 -0.5294
vn -0.7947 0.2976 -0.5290
vn -0.7941 0.3010 -0.5281
vn 0.0353 -0.0153 -0.9993
vn 0.0256 -0.0343 -0.9991
vn 0.0416 -0.0028 -0.9991
vn 0.5174 0.3546 0.7788
vn 0.5867 0.3365 0.7366
vn 0.6755 0.3078 0.6700
vn 0.7424 0.3295 0.5833
vn 0.7633 0.3716 0.5286
vn 0.7380 0.4520 0.5011
vn 0.6146 0.5699 0.5454
vn 0.3470 0.7355 0.5819
vn 0.0398 0.2199 0.9747
vn 0.0437 0.1108 0.9929
vn 0.0486 0.2406 0.9694
vn 0.0395 -0.0150 0.9991
vn 0.0706 0.3562 0.9317
vn 0.0833 0.3544 0.9314
vn 0.0421 0.3600 0.9320
vn 0.1376 0.3307 0.9336
vn 0.1696 0.3060 0.9368
vn 0.1023 0.3838 0.9177
vn 0.1667 0.3508 0.9215
vn 0.1666 0.3510 0.9214
vn 0.0492 0.3625 0.9307
vn 0.0557 0.3618 0.9306
vn 0.0590 0.3615 0.9305
vn 0.0661 0.3581 0.9313
vn 0.0667 0.3552 0.9324
vn -0.1552 0.9853 -0.0719
vn 0.5377 -0.6099 -0.5821
vn 0.5404 -0.6078 -0.5818
vn 0.1827 -0.8808 -0.4368
vn 0.1820 -0.8812 -0.4363
vn 0.7192 0.0376 0.6938
vn 0.7604 -0.0759 0.6450
vn 0.7385 0.0768 0.6699
vn 0.7424 0.1273 0.6577
vn 0.7661 -0.1554 0.6237
vn 0.7406 -0.0084 0.6719
vn -0.1646 0.9781 0.1274
vn -0.1908 0.9731 0.1293
vn 0.0017 0.9935 0.1136
vn 0.0702 -0.1691 0.9831
vn 0.0701 -0.1708 0.9828
vn 0.0047 -0.9944 0.1052
vn 0.0038 -0.9945 0.1049
vn 0.0708 -0.1487 0.9864
vn 0.0708 -0.1503 0.9861
vn 0.0542 -0.9933 0.1025
vn 0.0606 -0.9930 0.1014
vn 0.0880 -0.9914 0.0969
vn -0.6829 0.6910 0.2371
vn -0.5470 0.8136 0.1974
vn -0.5087 0.8406 0.1860
vn -0.0048 0.9569 0.2903
vn 0.0547 0.9663 0.2514
vn 0.0768 0.8734 0.4809
vn 0.0965 0.8806 0.4639
vn 0.1476 0.8944 0.4222
vn 0.0727 0.8809 0.4676
vn 0.2036 0.8999 0.3856
vn 0.9057 0.4237 0.0099
vn 0.9070 0.4209 0.0128
vn 0.9004 0.4313 0.0571
vn 0.9044 0.4264 0.0147
vn 0.8839 0.4575 0.0969
vn 0.8849 0.4630 0.0506
vn 0.9066 0.4213 0.0241
vn 0.9048 0.4254 0.0199
vn 0.9812 -0.1892 0.0377
vn 0.9893 -0.1392 0.0448
vn 0.9892 -0.1396 0.0448
vn 0.9956 -0.0798 0.0491
vn 0.9960 -0.0798 0.0398
vn 0.9961 -0.0794 0.0395
vn 0.9969 -0.0705 0.0334
vn 1.0000 -0.0000 -0.0000
vn 0.1329 0.8287 -0.5437
vn 0.0960 0.8749 -0.4747
vn 0.1817 0.8199 -0.5429
vn 0.2192 0.7947 -0.5661
vn 0.0888 0.8120 -0.5769
vn 0.2345 0.8242 -0.5155
vn 0.1363 0.8172 -0.5600
vn 0.2678 0.8110 -0.5202
vn 0.0436 0.9186 -0.3928
vn 0.1075 0.8794 -0.4638
vn -0.3248 -0.9458 -0.0000
vn -0.4509 -0.8926 -0.0000
vn -0.0043 -1.0000 -0.0000
vn 0.0268 -0.4573 -0.8889
vn 0.0601 -0.4001 -0.9145
vn 0.0344 -0.6388 -0.7686
vn 0.0263 -0.6329 -0.7738
vn 0.1436 -0.3301 -0.9330
vn 0.1925 -0.3533 -0.9155
vn -0.4687 -0.8833 -0.0020
vn -0.1605 -0.9866 -0.0276
vn 0.9090 -0.4168 -0.0000
vn 0.0031 -0.5707 -0.8212
vn 0.2566 0.1134 0.9598
vn 0.1690 0.0778 0.9825
vn 0.1604 0.0743 0.9842
vn 0.0673 0.0363 0.9971
vn 0.0670 0.0362 0.9971
vn 0.0470 0.0414 0.9980
vn 0.0466 0.0416 0.9980
vn 0.0015 0.9935 0.1134
vn 0.0016 0.9935 0.1135
vn 0.0074 -0.9943 0.1060
vn 0.0077 -0.9943 0.1060
vn 0.0188 -0.9941 0.1065
vn 0.0170 -0.9942 0.1064
vn 0.7718 -0.0590 0.6332
vn 0.7336 0.0882 0.6738
vn 0.7120 0.1499 0.6860
vn 0.7893 -0.1843 0.5858
vn -0.5584 -0.5952 0.5779
vn 0.6314 -0.5297 -0.5663
vn -0.0938 -0.9686 -0.2302
vn -0.6034 0.4662 0.6470
vn 0.0017 -0.9327 0.3606
vn -0.0108 -0.9271 0.3747
vn -0.0109 -0.9273 0.3742
vn -0.0356 0.9341 -0.3552
vn -0.0333 0.9342 -0.3553
vn -0.0377 0.9312 -0.3626
vn -0.0377 0.9313 -0.3623
vn 0.0441 0.3608 0.9316
vn 0.0474 0.3605 0.9316
vn 0.0472 0.3593 0.9320
vn 0.0442 0.3594 0.9321
vn 0.0745 0.3515 0.9332
vn 0.0611 0.3536 0.9334
vn 0.1005 0.3589 0.9280
vn 0.1157 0.3738 0.9203
vn 0.1264 0.3843 0.9145
vn -0.0375 0.9283 -0.3698
vn -0.0100 -0.9237 0.3831
vn -0.8328 0.5419 -0.1128
vn 0.0151 -0.9346 0.3554
vn 0.4035 0.2785 -0.8716
vn 0.6486 0.3143 -0.6932
vn -0.4196 0.0360 -0.9070
vn 0.5313 -0.0247 0.8468
vn -0.0441 0.9985 0.0336
vn -0.0086 0.9998 -0.0199
vn 0.9360 0.1038 0.3364
vn 0.0677 -0.9961 0.0557
vn -0.9897 -0.0483 0.1345
vn -0.9897 -0.0483 0.1346
vn 0.1344 0.0066 0.9909
vn 0.0469 -0.9988 -0.0136
vn -0.1344 -0.0066 -0.9909
vn -0.3750 0.0425 -0.9260
vn -0.4573 0.0288 -0.8888
vn -0.4206 -0.0297 -0.9068
vn -0.4170 0.1039 -0.9029
vn 0.0427 0.3620 0.9312
vn 0.0492 0.3612 0.9312
vn -0.0036 -0.9984 -0.0561
vn -0.0026 -0.9992 0.0388
vn 0.0003 -0.9996 -0.0268
vn -0.0012 -0.9997 -0.0259
vn -0.0010 -0.9997 -0.0256
vn -0.0071 -0.9997 -0.0223
vn -0.0008 -0.9997 -0.0244
vn -0.9999 -0.0003 0.0117
vn -0.9999 -0.0003 0.0118
vn -0.0171 -0.9998 -0.0046
vn -0.0202 -0.9997 -0.0124
vn -0.0021 -0.9988 -0.0485
vn -0.0063 -0.9991 -0.0415
vn -0.0034 -0.9988 -0.0498
vn -0.0056 -0.9999 -0.0113
vn -0.0098 -1.0000 -0.0000
vn -0.0163 -0.9982 0.0569
vn 0.0009 -0.9995 0.0306
vn -0.0049 -0.9993 0.0375
vn -0.0109 -0.9989 0.0466
vn -0.9239 -0.3827 -0.0000
vn -0.3827 0.9239 -0.0000
vn 0.3827 0.9239 -0.0000
vn 0.9239 -0.3827 -0.0000
vn -0.3827 -0.9239 -0.0000
vn -0.9239 0.3827 -0.0000
vn 0.9239 0.3827 -0.0000
vn 0.3827 -0.9239 -0.0000
vn -0.0000 -0.0000 -1.0000
vn 0.9709 -0.2386 -0.0187
vn -0.9709 0.2386 0.0187
vn -0.0299 -0.0437 -0.9986
vn 0.2393 0.9689 0.0632
vn 0.0457 0.1081 0.9931
vn -0.2393 -0.9680 -0.0760
vn -0.9709 -0.2386 -0.0187
vn 0.9709 0.2386 0.0187
vn 0.0299 -0.0437 -0.9986
vn -0.2393 0.9689 0.0632
vn -0.0457 0.1081 0.9931
vn 0.2393 -0.9680 -0.0760
vn -0.0000 0.9883 0.1523
vn -0.0000 0.9997 -0.0243
vn -0.0000 0.9996 0.0282
vn -0.0000 0.9896 -0.1438
vn -0.0000 0.9845 -0.1753
vn -0.0508 0.9844 -0.1686
vn -0.0502 0.9844 -0.1689
vn -0.1864 0.9723 -0.1411
vn -0.2072 0.9686 -0.1374
vn -0.4515 0.8881 -0.0863
vn 0.0502 0.9844 -0.1689
vn 0.0508 0.9844 -0.1686
vn 0.2072 0.9686 -0.1374
vn 0.1864 0.9723 -0.1411
vn 0.4515 0.8881 -0.0863
vn -0.0000 -0.9845 0.1753
vn 0.0500 -0.9844 0.1689
vn 0.0506 -0.9844 0.1687
vn 0.2066 -0.9686 0.1380
vn 0.1857 -0.9723 0.1417
vn 0.4564 -0.8855 0.0867
vn -0.0506 -0.9844 0.1687
vn -0.0500 -0.9844 0.1689
vn -0.1857 -0.9723 0.1417
vn -0.2066 -0.9686 0.1380
vn -0.4564 -0.8855 0.0867
vn -0.1259 -0.1751 -0.9765
vn -0.0000 -0.1736 -0.9848
vn -0.1253 -0.1751 -0.9765
vn -0.1912 -0.1761 -0.9656
vn -0.6282 -0.1305 0.7671
vn -0.0000 0.1703 0.9854
vn -0.1114 0.1525 0.9820
vn -0.1117 0.1523 0.9820
vn -0.7218 -0.3771 -0.5803
vn -0.6515 -0.3082 -0.6933
vn -0.7232 -0.3786 -0.5776
vn -0.1439 0.1348 0.9804
vn -0.7771 -0.4390 -0.4510
vn 0.1259 -0.1751 -0.9765
vn 0.1253 -0.1751 -0.9765
vn 0.1912 -0.1761 -0.9656
vn 0.6282 -0.1305 0.7671
vn 0.1114 0.1525 0.9820
vn 0.1117 0.1523 0.9820
vn 0.6515 -0.3082 -0.6933
vn 0.7218 -0.3771 -0.5803
vn 0.7232 -0.3786 -0.5776
vn 0.1439 0.1348 0.9804
vn 0.7771 -0.4390 -0.4510
vt 0.000000 0.000000
s 1
usemtl carPaint
f 6/1/1 67/1/2 4/1/3 1/1/4
f 5/1/5 65/1/6 67/1/2 6/1/1
f 305/1/7 126/1/8 63/1/9 306/1/10
f 129/1/11 67/1/2 65/1/6 128/1/12
f 303/1/13 3/1/14 126/1/8 305/1/7
f 127/1/15 4/1/3 67/1/2 129/1/11
f 3/1/14 127/1/15 129/1/11 126/1/8
f 126/1/8 129/1/11 128/1/12 63/1/9
f 271/1/20 275/1/21 4/1/3 127/1/15
f 1/1/4 4/1/3 275/1/21 276/1/22
f 277/1/23 56/1/24 1/1/4 276/1/22
f 378/1/25 71/1/26 113/1/27 114/1/25
f 71/1/26 70/1/28 112/1/29 113/1/27
f 70/1/28 69/1/30 111/1/31 112/1/29
f 69/1/30 68/1/32 110/1/33 111/1/31
f 28/1/34 110/1/33 68/1/32 29/1/35
f 28/1/34 29/1/35 32/1/36 109/1/37
f 31/1/38 108/1/39 109/1/37 32/1/36
f 147/1/40 148/1/41 108/1/39 31/1/38
f 135/1/42 235/1/43 234/1/44 138/1/45
f 138/1/45 234/1/44 232/1/46 139/1/47
f 139/1/48 232/1/49 233/1/50 136/1/51
f 13/1/52 14/1/53 131/1/54 132/1/55
f 132/1/55 131/1/54 133/1/56 134/1/57
f 134/1/58 133/1/59 17/1/60 18/1/61
f 159/1/62 13/1/52 132/1/55 161/1/63
f 161/1/63 132/1/55 134/1/57 162/1/64
f 162/1/65 134/1/58 18/1/61 160/1/66
f 235/1/67 24/1/68 21/1/69 236/1/70
f 135/1/71 137/1/72 24/1/68 235/1/67
f 13/1/73 22/1/74 23/1/75 14/1/76
f 159/1/77 163/1/78 22/1/74 13/1/73
f 38/1/79 244/1/80 245/1/81 41/1/82
f 231/1/83 143/1/84 39/1/85 229/1/86
f 14/1/76 23/1/75 137/1/72 135/1/71
f 133/1/59 139/1/48 136/1/51 17/1/60
f 131/1/54 138/1/45 139/1/47 133/1/56
f 14/1/53 135/1/42 138/1/45 131/1/54
f 33/1/87 42/1/87 250/1/88 251/1/89
f 140/1/90 141/1/91 43/1/92 27/1/93
f 28/1/94 109/1/95 141/1/91 140/1/90
f 239/1/96 236/1/70 143/1/84 231/1/83
f 43/1/92 141/1/91 150/1/97 149/1/98
f 21/1/69 44/1/99 144/1/100 146/1/101
f 21/1/69 146/1/101 143/1/84 236/1/70
f 39/1/85 143/1/84 146/1/101 145/1/102
f 145/1/102 146/1/101 144/1/100 38/1/79
f 35/1/103 243/1/104 242/1/105 34/1/106
f 30/1/107 107/1/107 148/1/41 147/1/40
f 148/1/108 107/1/109 34/1/106 242/1/105
f 242/1/105 241/1/110 108/1/111 148/1/108
f 35/1/103 36/1/112 40/1/113 243/1/104
f 41/1/82 245/1/81 243/1/104 40/1/113
f 108/1/111 241/1/110 240/1/114 109/1/95
f 244/1/80 38/1/79 144/1/100
f 141/1/91 109/1/95 240/1/114 150/1/97
f 150/1/97 144/1/100 44/1/99 149/1/98
f 244/1/80 144/1/100 150/1/97 240/1/114
f 11/1/115 25/1/116 153/1/117 151/1/118
f 10/1/119 155/1/120 152/1/121 9/1/122
f 8/1/123 154/1/124 155/1/125 10/1/119
f 11/1/126 151/1/127 154/1/124 8/1/123
f 156/1/128 110/1/129 28/1/94 140/1/90 164/1/130
f 25/1/131 157/1/132 156/1/128 153/1/133
f 163/1/134 153/1/133 156/1/128 164/1/130
f 22/1/135 163/1/134 164/1/130 158/1/136
f 151/1/118 153/1/117 163/1/78 159/1/77
f 155/1/120 162/1/65 160/1/66 152/1/121
f 154/1/124 161/1/63 162/1/64 155/1/125
f 151/1/127 159/1/62 161/1/63 154/1/124
f 158/1/136 164/1/130 140/1/90 27/1/93
f 111/1/137 157/1/132 166/1/138 168/1/139
f 165/1/140 280/1/141 59/1/142 166/1/138
f 273/1/143 186/1/144 59/1/142 280/1/141
f 265/1/19 58/1/145 57/1/146 274/1/16
f 25/1/131 165/1/140 166/1/138 157/1/132
f 25/1/116 11/1/115 167/1/147 165/1/148
f 280/1/141 165/1/148 167/1/147 278/1/149
f 167/1/150 11/1/126 8/1/123 7/1/151
f 168/1/139 166/1/138 59/1/142 60/1/152
f 57/1/146 182/1/153 184/1/154 186/1/144
f 127/1/15 3/1/14 270/1/155 271/1/20
f 3/1/14 303/1/13 269/1/156 270/1/155
f 268/1/157 269/1/156 303/1/13 304/1/158
f 78/1/159 77/1/160 173/1/161 174/1/162
f 76/1/163 75/1/164 171/1/165 172/1/166
f 74/1/167 73/1/168 169/1/169 170/1/170
f 77/1/160 76/1/163 172/1/166 173/1/161
f 75/1/164 74/1/167 170/1/170 171/1/165
f 379/1/171 380/1/171 169/1/169 73/1/168
f 78/1/159 174/1/162 175/1/172 79/1/172
f 196/1/173 197/1/174 315/1/175 314/1/176
f 177/1/177 101/1/178 61/1/179 176/1/180
f 267/1/181 177/1/177 176/1/180 106/1/182
f 267/1/181 268/1/157 300/1/183 177/1/177
f 308/1/184 101/1/178 177/1/177 300/1/183 307/1/185
f 380/1/186 382/1/187 105/1/188 169/1/186
f 178/1/189 179/1/189 386/1/190 381/1/191 104/1/192
f 187/1/193 384/1/194 388/1/195 383/1/196 72/1/197
f 114/1/198 113/1/198 72/1/197 383/1/196
f 105/1/188 382/1/187 179/1/189 178/1/189
f 111/1/137 168/1/139 112/1/199
f 168/1/139 60/1/152 180/1/200 112/1/199
f 72/1/201 113/1/202 112/1/199 180/1/200
f 267/1/181 106/1/182 181/1/203 266/1/204
f 266/1/204 181/1/203 58/1/145 265/1/19
f 189/1/205 178/1/206 104/1/207 188/1/208
f 60/1/152 59/1/142 186/1/144 184/1/154
f 274/1/16 57/1/146 186/1/144 273/1/143
f 58/1/145 183/1/209 182/1/153 57/1/146
f 106/1/182 192/1/210 193/1/211 181/1/203
f 104/1/192 381/1/191 387/1/212 384/1/194 187/1/193
f 188/1/208 190/1/213 184/1/214 182/1/215
f 104/1/207 187/1/216 190/1/213 188/1/208
f 183/1/217 189/1/205 188/1/208 182/1/215
f 60/1/152 184/1/214 190/1/213 180/1/200
f 180/1/200 190/1/213 187/1/216 72/1/201
f 194/1/218 193/1/219 192/1/210 191/1/220
f 189/1/205 183/1/217 193/1/219 194/1/218
f 191/1/220 116/1/221 105/1/222 194/1/218
f 183/1/209 58/1/145 181/1/203 193/1/211
f 61/1/179 217/1/223 216/1/224 176/1/180
f 105/1/222 178/1/206 189/1/205 194/1/218
f 204/1/225 203/1/226 91/1/227 90/1/228
f 318/1/229 315/1/175 195/1/230 208/1/231
f 198/1/232 195/1/230 315/1/175 197/1/174
f 173/1/233 198/1/232 197/1/174 174/1/234
f 175/1/235 174/1/234 197/1/174 196/1/173
f 124/1/236 195/1/230 198/1/232 125/1/237
f 125/1/237 198/1/232 173/1/233 123/1/238
f 308/1/184 311/1/239 100/1/240 101/1/178
f 311/1/239 312/1/241 99/1/242 100/1/240
f 309/1/243 201/1/244 99/1/242 312/1/241
f 310/1/245 199/1/246 201/1/244 309/1/243
f 317/1/247 316/1/248 204/1/225 90/1/228
f 208/1/231 207/1/249 203/1/226 204/1/225
f 91/1/250 203/1/251 103/1/252 92/1/250
f 102/1/253 205/1/254 98/1/255 206/1/256
f 206/1/256 99/1/242 201/1/244 102/1/253
f 93/1/257 102/1/253 201/1/244 199/1/246
f 210/1/258 211/1/259 125/1/260 123/1/238
f 211/1/259 212/1/261 124/1/262 125/1/260
f 195/1/230 124/1/236 207/1/249 208/1/231
f 316/1/248 318/1/229 208/1/231 204/1/225
f 212/1/261 213/1/263 207/1/264 124/1/262
f 97/1/265 98/1/255 213/1/266 212/1/267
f 94/1/268 97/1/265 212/1/267 211/1/269
f 87/1/270 94/1/268 211/1/269 210/1/271
f 203/1/251 207/1/264 213/1/263 103/1/252
f 103/1/272 213/1/266 98/1/255 205/1/254
f 123/1/238 173/1/233 172/1/273 210/1/258
f 192/1/210 106/1/182 176/1/180 216/1/224
f 214/1/274 217/1/223 61/1/179 215/1/275
f 191/1/220 170/1/276 169/1/277 116/1/221
f 116/1/221 169/1/277 105/1/222
f 87/1/270 219/1/278 217/1/223 214/1/274
f 216/1/224 217/1/223 219/1/278 218/1/279
f 191/1/220 192/1/210 216/1/224 218/1/279
f 170/1/276 191/1/220 218/1/279 171/1/280
f 171/1/280 218/1/279 219/1/278 172/1/281
f 87/1/270 210/1/271 172/1/281 219/1/278
f 157/1/132 111/1/137 110/1/129 156/1/128
f 92/1/282 103/1/283 223/1/283 220/1/282
f 102/1/284 93/1/285 221/1/285 222/1/284
f 103/1/286 205/1/287 224/1/288 223/1/286
f 205/1/287 102/1/289 222/1/289 224/1/288
f 224/1/290 225/1/291 220/1/292 223/1/293
f 225/1/291 224/1/290 222/1/294 221/1/295
f 238/1/304 237/1/305 228/1/306 142/1/307
f 142/1/307 228/1/306 227/1/308 37/1/309
f 237/1/305 239/1/96 231/1/83 228/1/306
f 228/1/306 231/1/83 229/1/86 227/1/308
f 40/1/334 246/1/335 333/1/335 328/1/336
f 247/1/337 246/1/338 40/1/113 36/1/112
f 37/1/339 227/1/340 332/1/341 331/1/339
f 249/1/342 248/1/343 246/1/338 247/1/337
f 145/1/344 38/1/345 324/1/345 323/1/346
f 251/1/89 250/1/88 248/1/343 249/1/342
f 38/1/347 41/1/348 327/1/349 324/1/347
f 278/1/149 257/1/359 56/1/24 277/1/23
f 7/1/151 257/1/359 278/1/149 167/1/150
f 300/1/183 268/1/157 304/1/158 307/1/185
f 250/1/445 42/1/446 330/1/446 329/1/447
f 246/1/335 248/1/335 334/1/335 333/1/335
f 229/1/448 39/1/449 326/1/450 325/1/451
f 248/1/335 250/1/445 329/1/447 334/1/335
f 39/1/449 145/1/344 323/1/346 326/1/450
f 41/1/348 40/1/334 328/1/336 327/1/349
f 227/1/340 229/1/448 325/1/451 332/1/341
f 381/1/512 386/1/512 179/1/512
f 384/1/513 387/1/513 381/1/513
f 383/1/513 388/1/513 384/1/513
f 394/1/529 390/1/530 393/1/531 446/1/532
f 5/1/5 394/1/529 446/1/532 65/1/6
f 663/1/533 306/1/10 63/1/9 496/1/534
f 499/1/535 498/1/536 65/1/6 446/1/532
f 661/1/537 663/1/533 496/1/534 392/1/538
f 497/1/539 499/1/535 446/1/532 393/1/531
f 392/1/538 496/1/534 499/1/535 497/1/539
f 496/1/534 63/1/9 498/1/536 499/1/535
f 629/1/544 497/1/539 393/1/531 633/1/545
f 390/1/530 634/1/546 633/1/545 393/1/531
f 635/1/547 634/1/546 390/1/530 438/1/548
f 727/1/549 484/1/549 483/1/550 450/1/551
f 450/1/551 483/1/550 482/1/552 449/1/553
f 449/1/553 482/1/552 481/1/554 448/1/555
f 448/1/555 481/1/554 480/1/556 447/1/557
f 413/1/558 414/1/559 447/1/557 480/1/556
f 413/1/558 479/1/560 417/1/561 414/1/559
f 416/1/562 417/1/561 479/1/560 478/1/563
f 515/1/564 416/1/562 478/1/563 516/1/565
f 505/1/566 507/1/567 595/1/568 596/1/569
f 507/1/567 508/1/570 594/1/571 595/1/568
f 508/1/572 136/1/51 233/1/50 594/1/573
f 400/1/574 502/1/575 501/1/576 401/1/577
f 502/1/575 504/1/578 503/1/579 501/1/576
f 504/1/580 18/1/61 17/1/60 503/1/581
f 526/1/582 527/1/583 502/1/575 400/1/574
f 527/1/583 528/1/584 504/1/578 502/1/575
f 528/1/585 160/1/66 18/1/61 504/1/580
f 596/1/586 597/1/587 406/1/588 409/1/589
f 505/1/590 596/1/586 409/1/589 506/1/591
f 400/1/592 401/1/593 408/1/594 407/1/595
f 526/1/596 400/1/592 407/1/595 529/1/597
f 421/1/598 424/1/599 606/1/600 605/1/601
f 593/1/602 591/1/603 422/1/604 511/1/605
f 401/1/593 505/1/590 506/1/591 408/1/594
f 503/1/581 17/1/60 136/1/51 508/1/572
f 501/1/576 503/1/579 508/1/570 507/1/567
f 401/1/577 501/1/576 507/1/567 505/1/566
f 33/1/87 612/1/606 611/1/607 42/1/87
f 509/1/608 412/1/609 425/1/610 510/1/611
f 413/1/612 509/1/608 510/1/611 479/1/613
f 600/1/614 593/1/602 511/1/605 597/1/587
f 425/1/610 517/1/615 518/1/616 510/1/611
f 406/1/588 514/1/617 512/1/618 426/1/619
f 406/1/588 597/1/587 511/1/605 514/1/617
f 422/1/604 513/1/620 514/1/617 511/1/605
f 513/1/620 421/1/598 512/1/618 514/1/617
f 419/1/621 418/1/622 603/1/623 604/1/624
f 415/1/625 515/1/564 516/1/565 477/1/625
f 516/1/626 603/1/623 418/1/622 477/1/627
f 603/1/623 516/1/626 478/1/628 602/1/629
f 419/1/621 604/1/624 423/1/630 420/1/631
f 424/1/599 423/1/630 604/1/624 606/1/600
f 478/1/628 479/1/613 601/1/632 602/1/629
f 605/1/601 512/1/618 421/1/598
f 510/1/611 518/1/616 601/1/632 479/1/613
f 518/1/616 517/1/615 426/1/619 512/1/618
f 605/1/601 601/1/632 518/1/616 512/1/618
f 398/1/633 519/1/634 520/1/635 410/1/636
f 397/1/637 9/1/122 152/1/121 522/1/638
f 396/1/639 397/1/637 522/1/640 521/1/641
f 398/1/642 396/1/639 521/1/641 519/1/643
f 523/1/644 530/1/645 509/1/608 413/1/612 480/1/646
f 410/1/647 520/1/648 523/1/644 524/1/649
f 529/1/650 530/1/645 523/1/644 520/1/648
f 407/1/651 525/1/652 530/1/645 529/1/650
f 519/1/634 526/1/596 529/1/597 520/1/635
f 522/1/638 152/1/121 160/1/66 528/1/585
f 521/1/641 522/1/640 528/1/584 527/1/583
f 519/1/643 521/1/641 527/1/583 526/1/582
f 525/1/652 412/1/609 509/1/608 530/1/645
f 481/1/653 534/1/654 532/1/655 524/1/649
f 531/1/656 532/1/655 441/1/657 638/1/658
f 631/1/659 638/1/658 441/1/657 552/1/660
f 623/1/541 632/1/540 439/1/661 440/1/662
f 410/1/647 524/1/649 532/1/655 531/1/656
f 410/1/636 531/1/663 533/1/664 398/1/633
f 638/1/658 636/1/665 533/1/664 531/1/663
f 533/1/666 395/1/667 396/1/639 398/1/642
f 534/1/654 442/1/668 441/1/657 532/1/655
f 439/1/661 552/1/660 550/1/669 548/1/670
f 497/1/539 629/1/544 628/1/671 392/1/538
f 392/1/538 628/1/671 627/1/672 661/1/537
f 626/1/673 662/1/674 661/1/537 627/1/672
f 457/1/675 540/1/676 539/1/677 456/1/678
f 455/1/679 538/1/680 537/1/681 454/1/682
f 453/1/683 536/1/684 535/1/685 452/1/686
f 456/1/678 539/1/677 538/1/680 455/1/679
f 454/1/682 537/1/681 536/1/684 453/1/683
f 728/1/687 452/1/686 535/1/685 729/1/687
f 457/1/675 458/1/688 541/1/688 540/1/676
f 562/1/689 670/1/690 671/1/691 563/1/692
f 543/1/693 542/1/694 443/1/695 471/1/696
f 625/1/697 476/1/698 542/1/694 543/1/693
f 625/1/697 543/1/693 658/1/699 626/1/673
f 665/1/700 664/1/701 658/1/699 543/1/693 471/1/696
f 729/1/702 535/1/702 475/1/703 731/1/704
f 544/1/705 474/1/706 730/1/707 734/1/708 545/1/705
f 553/1/709 451/1/710 732/1/711 736/1/712 733/1/713
f 484/1/714 732/1/711 451/1/710 483/1/714
f 475/1/703 544/1/705 545/1/705 731/1/704
f 481/1/653 482/1/715 534/1/654
f 534/1/654 482/1/715 546/1/716 442/1/668
f 451/1/717 546/1/716 482/1/715 483/1/718
f 625/1/697 624/1/719 547/1/720 476/1/698
f 624/1/719 623/1/541 440/1/662 547/1/720
f 555/1/721 554/1/722 474/1/723 544/1/724
f 442/1/668 550/1/669 552/1/660 441/1/657
f 632/1/540 631/1/659 552/1/660 439/1/661
f 440/1/662 439/1/661 548/1/670 549/1/725
f 476/1/698 547/1/720 559/1/726 558/1/727
f 474/1/706 553/1/709 733/1/713 735/1/728 730/1/707
f 554/1/722 548/1/729 550/1/730 556/1/731
f 474/1/723 554/1/722 556/1/731 553/1/732
f 549/1/733 548/1/729 554/1/722 555/1/721
f 442/1/668 546/1/716 556/1/731 550/1/730
f 546/1/716 451/1/717 553/1/732 556/1/731
f 560/1/734 557/1/735 558/1/727 559/1/736
f 555/1/721 560/1/734 559/1/736 549/1/733
f 557/1/735 560/1/734 475/1/737 486/1/738
f 549/1/725 559/1/726 547/1/720 440/1/662
f 443/1/695 542/1/694 581/1/739 582/1/740
f 475/1/737 560/1/734 555/1/721 544/1/724
f 569/1/741 90/1/228 91/1/227 568/1/742
f 673/1/743 573/1/744 561/1/745 671/1/691
f 564/1/746 563/1/692 671/1/691 561/1/745
f 539/1/747 540/1/748 563/1/692 564/1/746
f 541/1/749 562/1/689 563/1/692 540/1/748
f 494/1/750 495/1/751 564/1/746 561/1/745
f 495/1/751 493/1/752 539/1/747 564/1/746
f 665/1/700 471/1/696 470/1/753 667/1/754
f 667/1/754 470/1/753 469/1/755 668/1/756
f 666/1/757 668/1/756 469/1/755 566/1/758
f 310/1/245 666/1/757 566/1/758 199/1/246
f 317/1/247 90/1/228 569/1/741 672/1/759
f 573/1/744 569/1/741 568/1/742 572/1/760
f 91/1/250 92/1/250 473/1/761 568/1/762
f 472/1/763 571/1/764 468/1/765 570/1/766
f 571/1/764 472/1/763 566/1/758 469/1/755
f 93/1/257 199/1/246 566/1/758 472/1/763
f 575/1/767 493/1/752 495/1/768 576/1/769
f 576/1/769 495/1/768 494/1/770 577/1/771
f 561/1/745 573/1/744 572/1/760 494/1/750
f 672/1/759 569/1/741 573/1/744 673/1/743
f 577/1/771 494/1/770 572/1/772 578/1/773
f 467/1/774 577/1/775 578/1/776 468/1/765
f 466/1/777 576/1/778 577/1/775 467/1/774
f 464/1/779 575/1/780 576/1/778 466/1/777
f 568/1/762 473/1/761 578/1/773 572/1/772
f 473/1/781 570/1/766 468/1/765 578/1/776
f 493/1/752 575/1/767 538/1/782 539/1/747
f 558/1/727 581/1/739 542/1/694 476/1/698
f 579/1/783 580/1/784 443/1/695 582/1/740
f 557/1/735 486/1/738 535/1/785 536/1/786
f 486/1/738 475/1/737 535/1/785
f 464/1/779 579/1/783 582/1/740 584/1/787
f 581/1/739 583/1/788 584/1/787 582/1/740
f 557/1/735 583/1/788 581/1/739 558/1/727
f 536/1/786 537/1/789 583/1/788 557/1/735
f 537/1/789 538/1/790 584/1/787 583/1/788
f 464/1/779 584/1/787 538/1/790 575/1/780
f 524/1/649 523/1/644 480/1/646 481/1/653
f 92/1/282 220/1/282 586/1/791 473/1/791
f 472/1/792 585/1/792 221/1/285 93/1/285
f 473/1/793 586/1/793 587/1/794 570/1/795
f 570/1/795 587/1/794 585/1/796 472/1/796
f 587/1/797 586/1/798 220/1/292 225/1/291
f 225/1/291 221/1/295 585/1/799 587/1/797
f 599/1/808 142/1/307 590/1/809 598/1/810
f 142/1/307 37/1/309 589/1/811 590/1/809
f 598/1/810 590/1/809 593/1/602 600/1/614
f 590/1/809 589/1/811 591/1/603 593/1/602
f 423/1/836 683/1/837 686/1/838 607/1/838
f 608/1/839 420/1/631 423/1/630 607/1/840
f 37/1/339 331/1/339 685/1/841 589/1/842
f 610/1/843 608/1/839 607/1/840 609/1/844
f 513/1/845 678/1/846 679/1/847 421/1/847
f 612/1/606 610/1/843 609/1/844 611/1/607
f 421/1/848 679/1/848 682/1/849 424/1/850
f 636/1/665 635/1/547 438/1/548 616/1/857
f 395/1/667 533/1/666 636/1/665 616/1/857
f 658/1/699 664/1/701 662/1/674 626/1/673
f 611/1/904 684/1/905 330/1/446 42/1/446
f 607/1/838 686/1/838 687/1/838 609/1/838
f 591/1/906 680/1/907 681/1/908 422/1/909
f 609/1/838 687/1/838 684/1/905 611/1/904
f 422/1/909 681/1/908 678/1/846 513/1/845
f 424/1/850 682/1/849 683/1/837 423/1/836
f 589/1/842 685/1/841 680/1/907 591/1/906
f 730/1/964 545/1/964 734/1/964
f 733/1/965 730/1/965 735/1/965
f 732/1/965 733/1/965 736/1/965
usemtl empty
f 323/1/437 324/1/437 327/1/437 328/1/437 333/1/438 326/1/439
f 326/1/439 333/1/438 334/1/440 325/1/441
f 325/1/441 334/1/440 329/1/442 332/1/443
f 332/1/443 329/1/442 330/1/444 331/1/444
f 335/1/452 338/1/453 339/1/453 336/1/454
f 337/1/455 335/1/452 336/1/454 340/1/455
f 371/1/471 345/1/472 346/1/473 372/1/474
f 348/1/475 346/1/473 345/1/472 347/1/475
f 342/1/469 341/1/468 371/1/471 372/1/474
f 341/1/468 373/1/467 343/1/497 371/1/471
f 374/1/470 342/1/469 372/1/474 344/1/498
f 678/1/897 681/1/898 686/1/899 683/1/897 682/1/897 679/1/897
f 681/1/898 680/1/900 687/1/901 686/1/899
f 680/1/900 685/1/902 684/1/903 687/1/901
f 685/1/902 331/1/444 330/1/444 684/1/903
f 688/1/910 689/1/911 692/1/912 691/1/912
f 690/1/913 693/1/913 689/1/911 688/1/910
f 723/1/929 724/1/930 698/1/931 697/1/932
f 700/1/933 699/1/933 697/1/932 698/1/931
f 695/1/927 724/1/930 723/1/929 694/1/928
f 694/1/928 723/1/929 343/1/955 725/1/925
f 726/1/926 696/1/956 724/1/930 695/1/927
f 768/1/985 767/1/985 769/1/985
f 766/1/985 765/1/985 769/1/985
f 764/1/985 763/1/985 769/1/985
f 762/1/985 761/1/985 769/1/985
f 761/1/985 768/1/985 769/1/985
f 767/1/985 766/1/985 769/1/985
f 765/1/985 764/1/985 769/1/985
f 763/1/985 762/1/985 769/1/985
f 801/1/985 802/1/985 800/1/985
f 799/1/985 802/1/985 798/1/985
f 797/1/985 802/1/985 796/1/985
f 795/1/985 802/1/985 794/1/985
f 794/1/985 802/1/985 801/1/985
f 800/1/985 802/1/985 799/1/985
f 798/1/985 802/1/985 797/1/985
f 796/1/985 802/1/985 795/1/985
usemtl plastic
f 274/1/16 279/1/17 272/1/18 265/1/19
f 119/1/323 120/1/323 339/1/323 338/1/323
f 122/1/324 121/1/325 340/1/326 336/1/327
f 118/1/328 117/1/329 240/1/114 241/1/110
f 119/1/330 118/1/328 241/1/110 242/1/105
f 120/1/331 119/1/330 242/1/105 243/1/104
f 117/1/329 121/1/332 244/1/80 240/1/114
f 121/1/332 122/1/333 245/1/81 244/1/80
f 122/1/333 120/1/331 243/1/104 245/1/81
f 8/1/123 10/1/119 254/1/350 252/1/351
f 10/1/119 9/1/122 253/1/352 254/1/350
f 5/1/5 6/1/1 260/1/355 259/1/356
f 1/1/4 56/1/24 258/1/357 261/1/358
f 7/1/151 8/1/123 252/1/351 257/1/359
f 6/1/1 1/1/4 261/1/358 260/1/355
f 56/1/24 257/1/359 252/1/351 258/1/357
f 272/1/18 279/1/17 275/1/21 271/1/20
f 46/1/18 47/1/18 266/1/204 265/1/19
f 115/1/18 48/1/18 268/1/157 267/1/181
f 48/1/18 49/1/18 269/1/156 268/1/157
f 49/1/18 50/1/18 270/1/155 269/1/156
f 50/1/18 51/1/18 271/1/20 270/1/155
f 47/1/18 115/1/18 267/1/181 266/1/204
f 51/1/18 263/1/18 272/1/18 271/1/20
f 263/1/18 46/1/18 265/1/19 272/1/18
f 185/1/364 45/1/367 274/1/16 273/1/143
f 52/1/360 53/1/363 276/1/22 275/1/21
f 55/1/362 54/1/366 278/1/149 277/1/23
f 53/1/363 55/1/362 277/1/23 276/1/22
f 262/1/361 52/1/360 275/1/21 279/1/17
f 54/1/366 26/1/365 280/1/141 278/1/149
f 26/1/365 185/1/364 273/1/143 280/1/141
f 45/1/367 262/1/361 279/1/17 274/1/16
f 69/1/368 70/1/369 287/1/370 286/1/371
f 32/1/372 29/1/373 281/1/374 284/1/375
f 70/1/369 71/1/376 288/1/377 287/1/370
f 29/1/373 68/1/378 285/1/379 281/1/374
f 30/1/380 147/1/381 290/1/382 282/1/380
f 71/1/376 378/1/383 289/1/383 288/1/377
f 147/1/381 31/1/384 283/1/385 290/1/382
f 68/1/378 69/1/368 286/1/371 285/1/379
f 31/1/384 32/1/372 284/1/375 283/1/385
f 282/1/386 290/1/387 288/1/388 289/1/386
f 288/1/388 290/1/387 283/1/389 287/1/389
f 283/1/389 284/1/390 286/1/391 287/1/389
f 284/1/390 281/1/392 285/1/392 286/1/391
f 73/1/393 74/1/394 293/1/395 292/1/396
f 78/1/397 79/1/398 298/1/398 297/1/399
f 76/1/400 77/1/401 296/1/402 295/1/403
f 74/1/394 75/1/404 294/1/405 293/1/395
f 379/1/406 73/1/393 292/1/396 291/1/406
f 77/1/401 78/1/397 297/1/399 296/1/402
f 75/1/404 76/1/400 295/1/403 294/1/405
f 291/1/407 292/1/407 297/1/407 298/1/407
f 292/1/407 293/1/407 296/1/407 297/1/407
f 293/1/407 294/1/407 295/1/407 296/1/407
f 2/1/421 62/1/410 304/1/158 303/1/13
f 64/1/419 66/1/420 305/1/7 306/1/10
f 66/1/420 2/1/421 303/1/13 305/1/7
f 299/1/409 80/1/418 308/1/184 307/1/185
f 200/1/412 81/1/414 310/1/245 309/1/243
f 83/1/415 82/1/416 312/1/241 311/1/239
f 80/1/418 83/1/415 311/1/239 308/1/184
f 82/1/416 200/1/412 309/1/243 312/1/241
f 62/1/410 299/1/409 307/1/185 304/1/158
f 88/1/422 209/1/423 322/1/423 321/1/424
f 202/1/425 313/1/426 86/1/427 209/1/428
f 313/1/426 202/1/425 89/1/429 85/1/430
f 88/1/431 84/1/432 314/1/176 315/1/175
f 89/1/429 202/1/425 316/1/248 317/1/247
f 202/1/425 209/1/428 318/1/229 316/1/248
f 209/1/428 88/1/431 315/1/175 318/1/229
f 84/1/433 88/1/422 321/1/424 319/1/434
f 209/1/435 86/1/435 320/1/435 322/1/435
f 322/1/436 320/1/436 319/1/436 321/1/436
f 117/1/456 118/1/456 335/1/456 337/1/456
f 120/1/457 122/1/324 336/1/327 339/1/457
f 121/1/325 117/1/458 337/1/458 340/1/326
f 118/1/459 119/1/459 338/1/459 335/1/459
f 355/1/483 357/1/483 362/1/483 361/1/483
f 352/1/484 356/1/484 365/1/484 363/1/484
f 367/1/485 355/1/485 361/1/485 368/1/485
f 369/1/486 357/1/486 355/1/486 367/1/486
f 370/1/487 362/1/487 357/1/487 369/1/487
f 352/1/488 354/1/488 370/1/488 368/1/488
f 358/1/488 356/1/489 361/1/489 362/1/488
f 354/1/488 358/1/488 362/1/488 370/1/488
f 356/1/489 352/1/488 368/1/488 361/1/489
f 363/1/488 365/1/488 366/1/488 364/1/488
f 356/1/490 358/1/490 366/1/490 365/1/490
f 358/1/491 354/1/491 364/1/491 366/1/491
f 354/1/492 352/1/492 363/1/492 364/1/492
f 359/1/493 351/1/493 367/1/493 368/1/493
f 353/1/494 360/1/494 370/1/494 369/1/494
f 360/1/495 359/1/495 368/1/495 370/1/495
f 351/1/496 353/1/496 369/1/496 367/1/496
f 291/1/499 298/1/500 377/1/501 376/1/499
f 282/1/502 289/1/503 385/1/504 375/1/505
f 380/1/506 291/1/507 382/1/508
f 291/1/507 380/1/506 379/1/509
f 179/1/510 291/1/507 381/1/511
f 381/1/511 291/1/507 384/1/509
f 384/1/509 291/1/507 383/1/509
f 383/1/509 291/1/507 114/1/509
f 382/1/508 291/1/507 179/1/510
f 291/1/507 289/1/509 378/1/509 114/1/509
f 291/1/499 376/1/499 385/1/504 289/1/503
f 314/1/514 84/1/433 319/1/434 196/1/515
f 79/1/516 175/1/517 319/1/434 298/1/500
f 175/1/517 196/1/515 319/1/434
f 319/1/434 320/1/518 298/1/500
f 377/1/501 298/1/500 320/1/518 389/1/519
f 313/1/520 320/1/518 86/1/521
f 85/1/522 389/1/519 320/1/518 313/1/520
f 251/1/523 249/1/523 375/1/505
f 282/1/502 107/1/524 30/1/524
f 282/1/502 34/1/525 107/1/524
f 282/1/502 35/1/526 34/1/525
f 375/1/505 36/1/527 35/1/526 282/1/502
f 375/1/505 247/1/523 36/1/527
f 375/1/505 249/1/523 247/1/523
f 375/1/505 33/1/528 251/1/523
f 632/1/540 623/1/541 630/1/542 637/1/543
f 489/1/825 691/1/825 692/1/825 490/1/825
f 492/1/826 689/1/827 693/1/828 491/1/829
f 488/1/830 602/1/629 601/1/632 487/1/831
f 489/1/832 603/1/623 602/1/629 488/1/830
f 490/1/833 604/1/624 603/1/623 489/1/832
f 487/1/831 601/1/632 605/1/601 491/1/834
f 491/1/834 605/1/601 606/1/600 492/1/835
f 492/1/835 606/1/600 604/1/624 490/1/833
f 396/1/639 613/1/851 614/1/852 397/1/637
f 397/1/637 614/1/852 253/1/352 9/1/122
f 5/1/5 259/1/356 618/1/854 394/1/529
f 390/1/530 619/1/855 617/1/856 438/1/548
f 395/1/667 616/1/857 613/1/851 396/1/639
f 394/1/529 618/1/854 619/1/855 390/1/530
f 438/1/548 617/1/856 613/1/851 616/1/857
f 630/1/542 629/1/544 633/1/545 637/1/543
f 428/1/542 623/1/541 624/1/719 429/1/542
f 485/1/542 625/1/697 626/1/673 430/1/542
f 430/1/542 626/1/673 627/1/672 431/1/542
f 431/1/542 627/1/672 628/1/671 432/1/542
f 432/1/542 628/1/671 629/1/544 433/1/542
f 429/1/542 624/1/719 625/1/697 485/1/542
f 433/1/542 629/1/544 630/1/542 621/1/542
f 621/1/542 630/1/542 623/1/541 428/1/542
f 551/1/864 631/1/659 632/1/540 427/1/865
f 434/1/858 633/1/545 634/1/546 435/1/859
f 437/1/860 635/1/547 636/1/665 436/1/862
f 435/1/859 634/1/546 635/1/547 437/1/860
f 620/1/861 637/1/543 633/1/545 434/1/858
f 436/1/862 636/1/665 638/1/658 411/1/863
f 411/1/863 638/1/658 631/1/659 551/1/864
f 427/1/865 632/1/540 637/1/543 620/1/861
f 448/1/368 644/1/371 645/1/370 449/1/369
f 417/1/372 642/1/375 639/1/374 414/1/373
f 449/1/369 645/1/370 646/1/377 450/1/376
f 414/1/373 639/1/374 643/1/379 447/1/378
f 415/1/380 640/1/380 648/1/382 515/1/381
f 450/1/376 646/1/377 647/1/383 727/1/383
f 515/1/381 648/1/382 641/1/385 416/1/384
f 447/1/378 643/1/379 644/1/371 448/1/368
f 416/1/384 641/1/385 642/1/375 417/1/372
f 640/1/866 647/1/866 646/1/867 648/1/868
f 646/1/867 645/1/869 641/1/869 648/1/868
f 641/1/869 645/1/869 644/1/870 642/1/871
f 642/1/871 644/1/870 643/1/872 639/1/872
f 452/1/393 650/1/396 651/1/395 453/1/394
f 457/1/397 655/1/399 656/1/398 458/1/398
f 455/1/400 653/1/403 654/1/402 456/1/401
f 453/1/394 651/1/395 652/1/405 454/1/404
f 728/1/406 649/1/406 650/1/396 452/1/393
f 456/1/401 654/1/402 655/1/399 457/1/397
f 454/1/404 652/1/405 653/1/403 455/1/400
f 649/1/873 656/1/873 655/1/873 650/1/873
f 650/1/873 655/1/873 654/1/873 651/1/873
f 651/1/873 654/1/873 653/1/873 652/1/873
f 391/1/883 661/1/537 662/1/674 444/1/876
f 64/1/419 306/1/10 663/1/533 445/1/882
f 445/1/882 663/1/533 661/1/537 391/1/883
f 657/1/877 664/1/701 665/1/700 459/1/881
f 565/1/878 666/1/757 310/1/245 81/1/414
f 461/1/879 667/1/754 668/1/756 460/1/880
f 459/1/881 665/1/700 667/1/754 461/1/879
f 460/1/880 668/1/756 666/1/757 565/1/878
f 444/1/876 662/1/674 664/1/701 657/1/877
f 465/1/884 676/1/885 677/1/886 574/1/886
f 567/1/887 574/1/888 463/1/889 669/1/890
f 669/1/890 85/1/430 89/1/429 567/1/887
f 465/1/891 671/1/691 670/1/690 462/1/892
f 89/1/429 317/1/247 672/1/759 567/1/887
f 567/1/887 672/1/759 673/1/743 574/1/888
f 574/1/888 673/1/743 671/1/691 465/1/891
f 462/1/893 674/1/894 676/1/885 465/1/884
f 574/1/895 677/1/895 675/1/895 463/1/895
f 677/1/896 676/1/896 674/1/896 675/1/896
f 487/1/914 690/1/914 688/1/914 488/1/914
f 490/1/915 692/1/915 689/1/827 492/1/826
f 491/1/829 693/1/828 690/1/916 487/1/916
f 488/1/917 688/1/917 691/1/917 489/1/917
f 707/1/941 713/1/941 714/1/941 709/1/941
f 704/1/942 715/1/942 717/1/942 708/1/942
f 719/1/943 720/1/943 713/1/943 707/1/943
f 721/1/944 719/1/944 707/1/944 709/1/944
f 722/1/945 721/1/945 709/1/945 714/1/945
f 704/1/946 720/1/946 722/1/946 706/1/946
f 710/1/946 714/1/946 713/1/947 708/1/947
f 706/1/946 722/1/946 714/1/946 710/1/946
f 708/1/947 713/1/947 720/1/946 704/1/946
f 715/1/946 716/1/946 718/1/946 717/1/946
f 708/1/948 717/1/948 718/1/948 710/1/948
f 710/1/949 718/1/949 716/1/949 706/1/949
f 706/1/950 716/1/950 715/1/950 704/1/950
f 711/1/951 720/1/951 719/1/951 703/1/951
f 705/1/952 721/1/952 722/1/952 712/1/952
f 712/1/953 722/1/953 720/1/953 711/1/953
f 703/1/954 719/1/954 721/1/954 705/1/954
f 649/1/499 376/1/499 377/1/501 656/1/957
f 640/1/958 375/1/505 385/1/504 647/1/503
f 729/1/959 731/1/960 649/1/961
f 649/1/961 728/1/509 729/1/959
f 545/1/962 730/1/963 649/1/961
f 730/1/963 733/1/509 649/1/961
f 733/1/509 732/1/509 649/1/961
f 732/1/509 484/1/509 649/1/961
f 731/1/960 545/1/962 649/1/961
f 649/1/961 484/1/509 727/1/509 647/1/509
f 649/1/499 647/1/503 385/1/504 376/1/499
f 670/1/966 562/1/967 674/1/894 462/1/893
f 458/1/968 656/1/957 674/1/894 541/1/969
f 541/1/969 674/1/894 562/1/967
f 674/1/894 656/1/957 675/1/970
f 377/1/501 389/1/519 675/1/970 656/1/957
f 669/1/971 463/1/972 675/1/970
f 85/1/522 669/1/971 675/1/970 389/1/519
f 612/1/973 375/1/505 610/1/973
f 640/1/958 415/1/524 477/1/524
f 640/1/958 477/1/524 418/1/974
f 640/1/958 418/1/974 419/1/975
f 375/1/505 640/1/958 419/1/975 420/1/976
f 375/1/505 420/1/976 608/1/973
f 375/1/505 608/1/973 610/1/973
f 375/1/505 612/1/973 33/1/528
f 808/1/987 810/1/987 809/1/987 807/1/987
f 803/1/988 804/1/988 810/1/988 808/1/988
f 806/1/989 803/1/989 808/1/989 807/1/989
f 805/1/990 806/1/990 807/1/990 809/1/990
f 804/1/991 805/1/991 809/1/991 810/1/991
f 816/1/993 815/1/993 817/1/993 818/1/993
f 811/1/994 816/1/994 818/1/994 812/1/994
f 814/1/995 815/1/995 816/1/995 811/1/995
f 813/1/996 817/1/996 815/1/996 814/1/996
f 812/1/997 818/1/997 817/1/997 813/1/997
f 821/1/998 819/1/998 824/1/998 826/1/998
f 820/1/999 822/1/999 827/1/999 825/1/999
f 822/1/1000 821/1/1000 826/1/1000 827/1/1000
f 823/1/1001 820/1/1001 825/1/1001 828/1/1001
f 830/1/1002 831/1/1003 835/1/1004 833/1/1002
f 831/1/1003 834/1/1005 829/1/1006 835/1/1004
f 836/1/1007 832/1/1007 829/1/1006 834/1/1005
f 830/1/1002 833/1/1002 841/1/1008 838/1/1009
f 838/1/1009 841/1/1008 837/1/1010 840/1/1011
f 842/1/1012 840/1/1011 837/1/1010 839/1/1012
f 844/1/1013 847/1/1013 849/1/1014 845/1/1015
f 845/1/1015 849/1/1014 843/1/1016 848/1/1017
f 850/1/1018 848/1/1017 843/1/1016 846/1/1018
f 844/1/1013 852/1/1019 855/1/1020 847/1/1013
f 852/1/1019 854/1/1021 851/1/1022 855/1/1020
f 856/1/1023 853/1/1023 851/1/1022 854/1/1021
f 831/1/1024 830/1/1025 844/1/1025 845/1/1026
f 834/1/1027 831/1/1024 845/1/1026 848/1/1027
f 829/1/1028 832/1/1028 846/1/1028 843/1/1028
f 833/1/1029 835/1/1030 849/1/1031 847/1/1029
f 836/1/1032 834/1/1033 848/1/1033 850/1/1034
f 835/1/1030 829/1/1035 843/1/1035 849/1/1031
f 832/1/1036 836/1/1032 850/1/1034 846/1/1036
f 830/1/1025 838/1/1037 852/1/1038 844/1/1025
f 838/1/1037 840/1/1039 854/1/1039 852/1/1038
f 839/1/1040 837/1/1040 851/1/1040 853/1/1040
f 841/1/1041 833/1/1029 847/1/1029 855/1/1042
f 840/1/1043 842/1/1044 856/1/1045 854/1/1043
f 837/1/1046 841/1/1041 855/1/1042 851/1/1046
f 842/1/1044 839/1/1047 853/1/1047 856/1/1045
f 859/1/998 864/1/998 862/1/998 857/1/998
f 858/1/999 863/1/999 865/1/999 860/1/999
f 860/1/1000 865/1/1000 864/1/1000 859/1/1000
f 861/1/1001 866/1/1001 863/1/1001 858/1/1001
usemtl chrome
f 16/1/310 15/1/311 233/1/311 232/1/312
f 130/1/313 16/1/310 232/1/312 234/1/314
f 19/1/315 12/1/316 235/1/317 236/1/315
f 20/1/318 226/1/319 237/1/320 238/1/318
f 12/1/316 130/1/313 234/1/314 235/1/317
f 226/1/319 230/1/321 239/1/322 237/1/320
f 230/1/321 19/1/315 236/1/315 239/1/322
f 16/1/460 130/1/461 345/1/462 371/1/460
f 226/1/463 20/1/464 344/1/464 372/1/463
f 230/1/465 226/1/463 372/1/463 346/1/466
f 373/1/467 341/1/468 342/1/469 374/1/470
f 19/1/476 230/1/465 346/1/466 348/1/476
f 130/1/461 12/1/477 347/1/477 345/1/462
f 12/1/478 19/1/478 348/1/478 347/1/478
f 15/1/479 16/1/460 371/1/460 343/1/479
f 403/1/812 594/1/813 233/1/814 402/1/814
f 500/1/815 595/1/816 594/1/813 403/1/812
f 404/1/817 597/1/817 596/1/818 399/1/819
f 405/1/820 599/1/820 598/1/821 588/1/822
f 399/1/819 596/1/818 595/1/816 500/1/815
f 588/1/822 598/1/821 600/1/823 592/1/824
f 592/1/824 600/1/823 597/1/817 404/1/817
f 403/1/918 723/1/918 697/1/919 500/1/920
f 588/1/921 724/1/921 696/1/922 405/1/922
f 592/1/923 698/1/924 724/1/921 588/1/921
f 725/1/925 726/1/926 695/1/927 694/1/928
f 404/1/934 700/1/934 698/1/924 592/1/923
f 500/1/920 697/1/919 699/1/935 399/1/935
f 399/1/936 699/1/936 700/1/936 404/1/936
f 402/1/937 343/1/937 723/1/918 403/1/918
f 739/1/977 740/1/977 748/1/977 747/1/977
f 737/1/978 738/1/978 746/1/978 745/1/978
f 744/1/979 737/1/979 745/1/979 752/1/979
f 742/1/980 743/1/980 751/1/980 750/1/980
f 740/1/981 741/1/981 749/1/981 748/1/981
f 738/1/982 739/1/982 747/1/982 746/1/982
f 743/1/983 744/1/983 752/1/983 751/1/983
f 741/1/984 742/1/984 750/1/984 749/1/984
f 740/1/985 739/1/985 755/1/985 756/1/985
f 738/1/985 737/1/985 753/1/985 754/1/985
f 737/1/985 744/1/985 760/1/985 753/1/985
f 743/1/985 742/1/985 758/1/985 759/1/985
f 741/1/985 740/1/985 756/1/985 757/1/985
f 739/1/985 738/1/985 754/1/985 755/1/985
f 744/1/985 743/1/985 759/1/985 760/1/985
f 742/1/985 741/1/985 757/1/985 758/1/985
f 754/1/984 753/1/984 761/1/984 762/1/984
f 753/1/981 760/1/981 768/1/981 761/1/981
f 759/1/982 758/1/982 766/1/982 767/1/982
f 757/1/979 756/1/979 764/1/979 765/1/979
f 755/1/980 754/1/980 762/1/980 763/1/980
f 760/1/977 759/1/977 767/1/977 768/1/977
f 758/1/978 757/1/978 765/1/978 766/1/978
f 756/1/983 755/1/983 763/1/983 764/1/983
f 772/1/980 780/1/980 781/1/980 773/1/980
f 770/1/979 778/1/979 779/1/979 771/1/979
f 777/1/978 785/1/978 778/1/978 770/1/978
f 775/1/977 783/1/977 784/1/977 776/1/977
f 773/1/984 781/1/984 782/1/984 774/1/984
f 771/1/983 779/1/983 780/1/983 772/1/983
f 776/1/982 784/1/982 785/1/982 777/1/982
f 774/1/981 782/1/981 783/1/981 775/1/981
f 773/1/985 789/1/985 788/1/985 772/1/985
f 771/1/985 787/1/985 786/1/985 770/1/985
f 770/1/985 786/1/985 793/1/985 777/1/985
f 776/1/985 792/1/985 791/1/985 775/1/985
f 774/1/985 790/1/985 789/1/985 773/1/985
f 772/1/985 788/1/985 787/1/985 771/1/985
f 777/1/985 793/1/985 792/1/985 776/1/985
f 775/1/985 791/1/985 790/1/985 774/1/985
f 787/1/981 795/1/981 794/1/981 786/1/981
f 786/1/984 794/1/984 801/1/984 793/1/984
f 792/1/983 800/1/983 799/1/983 791/1/983
f 790/1/978 798/1/978 797/1/978 789/1/978
f 788/1/977 796/1/977 795/1/977 787/1/977
f 793/1/980 801/1/980 800/1/980 792/1/980
f 791/1/979 799/1/979 798/1/979 790/1/979
f 789/1/982 797/1/982 796/1/982 788/1/982
usemtl blackGlass
f 255/1/353 256/1/354 254/1/350 253/1/352
f 259/1/356 260/1/355 256/1/354 255/1/353
f 260/1/355 261/1/358 258/1/357 256/1/354
f 254/1/350 256/1/354 258/1/357 252/1/351
f 47/1/18 264/1/18 48/1/18 115/1/18
f 264/1/18 263/1/18 51/1/18 50/1/18
f 48/1/18 264/1/18 50/1/18 49/1/18
f 46/1/18 263/1/18 264/1/18 47/1/18
f 52/1/360 262/1/361 55/1/362 53/1/363
f 55/1/362 185/1/364 26/1/365 54/1/366
f 45/1/367 185/1/364 55/1/362 262/1/361
f 301/1/408 299/1/409 62/1/410 302/1/411
f 200/1/412 301/1/408 95/1/413 81/1/414
f 83/1/415 301/1/408 200/1/412 82/1/416
f 95/1/413 301/1/408 302/1/411 96/1/417
f 299/1/409 301/1/408 83/1/415 80/1/418
f 64/1/419 96/1/417 302/1/411 66/1/420
f 62/1/410 2/1/421 66/1/420 302/1/411
f 351/1/482 359/1/482 360/1/482 353/1/482
f 255/1/353 253/1/352 614/1/852 615/1/853
f 259/1/356 255/1/353 615/1/853 618/1/854
f 618/1/854 615/1/853 617/1/856 619/1/855
f 614/1/852 613/1/851 617/1/856 615/1/853
f 429/1/542 485/1/542 430/1/542 622/1/542
f 622/1/542 432/1/542 433/1/542 621/1/542
f 430/1/542 431/1/542 432/1/542 622/1/542
f 428/1/542 429/1/542 622/1/542 621/1/542
f 434/1/858 435/1/859 437/1/860 620/1/861
f 437/1/860 436/1/862 411/1/863 551/1/864
f 427/1/865 620/1/861 437/1/860 551/1/864
f 659/1/874 660/1/875 444/1/876 657/1/877
f 565/1/878 81/1/414 95/1/413 659/1/874
f 461/1/879 460/1/880 565/1/878 659/1/874
f 95/1/413 96/1/417 660/1/875 659/1/874
f 657/1/877 459/1/881 461/1/879 659/1/874
f 64/1/419 445/1/882 660/1/875 96/1/417
f 444/1/876 660/1/875 445/1/882 391/1/883
f 703/1/940 705/1/940 712/1/940 711/1/940
usemtl headlights
f 24/1/296 137/1/297 44/1/298 21/1/296
f 137/1/297 23/1/299 149/1/300 44/1/298
f 23/1/299 22/1/301 43/1/302 149/1/300
f 27/1/303 43/1/302 22/1/301 158/1/303
f 409/1/800 406/1/800 426/1/801 506/1/802
f 506/1/802 426/1/801 517/1/803 408/1/804
f 408/1/804 517/1/803 425/1/805 407/1/806
f 412/1/807 525/1/807 407/1/806 425/1/805
usemtl rearLights
f 94/1/268 349/1/480 350/1/481 97/1/265
f 97/1/265 350/1/481 206/1/256 98/1/255
f 214/1/274 349/1/480 94/1/268 87/1/270
f 350/1/481 349/1/480 100/1/240 99/1/242
f 206/1/256 350/1/481 99/1/242
f 100/1/240 215/1/275 61/1/179 101/1/178
f 215/1/275 100/1/240 349/1/480 214/1/274
f 466/1/777 467/1/774 702/1/938 701/1/939
f 467/1/774 468/1/765 571/1/764 702/1/938
f 579/1/783 464/1/779 466/1/777 701/1/939
f 702/1/938 469/1/755 470/1/753 701/1/939
f 571/1/764 469/1/755 702/1/938
f 470/1/753 471/1/696 443/1/695 580/1/784
f 580/1/784 579/1/783 701/1/939 470/1/753
f 803/1/986 806/1/986 805/1/986 804/1/986
f 811/1/992 812/1/992 813/1/992 814/1/992
