# Blender 5.2.2 LTS
# www.blender.org
mtllib all_wheels.mtl
o all_wheels
v -0.146964 0.041908 0.000000
v -0.145699 0.208294 0.151335
v -0.145699 0.231636 0.105523
v -0.145699 0.254224 0.020464
v -0.147154 0.058308 0.019711
v -0.147154 0.083295 0.048244
v -0.145699 0.088008 0.270860
v -0.145699 0.151334 0.208294
v -0.145699 0.079561 0.244864
v -0.145699 0.098022 0.235458
v -0.145699 0.123083 0.222689
v -0.147154 0.036764 0.049363
v -0.147154 0.071623 0.064310
v -0.146964 0.033905 0.024633
v -0.147154 0.073197 0.053181
v -0.147154 0.018018 0.055454
v -0.145699 -0.284799 -0.000000
v -0.145699 -0.270860 0.088008
v -0.146964 0.012950 0.039858
v -0.145699 -0.088008 0.270860
v -0.145699 -0.000000 0.284799
v -0.145699 -0.028779 0.252907
v -0.145699 0.059097 0.248105
v -0.147154 -0.000728 0.061545
v -0.147154 -0.020144 0.094127
v -0.145699 -0.167401 0.230408
v -0.145699 -0.230408 0.167401
v -0.145699 -0.151335 0.208294
v -0.145699 -0.193644 0.165985
v -0.145699 -0.173755 0.185874
v -0.147154 -0.035587 0.050219
v -0.147154 -0.039030 0.087990
v -0.146964 -0.012951 0.039858
v -0.147154 -0.027959 0.086049
v -0.146964 -0.033905 0.024633
v -0.145699 -0.270860 -0.088008
v -0.145699 -0.079561 -0.244864
v -0.145699 -0.208294 0.151334
v -0.147154 -0.047172 0.034272
v -0.145699 -0.257466 0.000000
v -0.145699 -0.249422 0.050783
v -0.145699 -0.217700 0.132874
v -0.147154 -0.058758 0.018326
v -0.147154 -0.095745 0.009929
v -0.145699 -0.230408 -0.167401
v -0.145699 -0.244864 -0.079561
v -0.145699 -0.217700 -0.132874
v -0.145699 -0.230470 -0.107813
v -0.147154 -0.058758 -0.018326
v -0.147154 -0.095745 -0.009929
v -0.146964 -0.041909 0.000000
v -0.147154 -0.090477 0.000000
v -0.145699 -0.000000 -0.284799
v -0.145699 0.230407 -0.167401
v -0.145699 0.167401 -0.230407
v -0.145699 -0.208294 -0.151334
v -0.147154 -0.047172 -0.034272
v -0.146964 -0.033905 -0.024633
v -0.145699 -0.088008 -0.270860
v -0.145699 -0.167401 -0.230408
v -0.145699 -0.125373 -0.221522
v -0.145699 -0.193643 -0.165985
v -0.147154 -0.035587 -0.050219
v -0.147154 -0.039030 -0.087990
v -0.145699 -0.000000 -0.257465
v -0.145699 0.079561 -0.244864
v -0.145699 0.059097 -0.248105
v -0.145699 0.031317 -0.252505
v -0.147154 -0.000728 -0.061545
v -0.147154 -0.020144 -0.094127
v -0.146964 -0.012951 -0.039857
v -0.147154 -0.027959 -0.086049
v -0.145699 0.270860 -0.088008
v -0.145699 0.244864 -0.079561
v -0.145699 0.230407 0.167401
v -0.145699 0.270860 0.088008
v -0.145699 0.088008 -0.270860
v -0.147154 0.018018 -0.055454
v -0.146964 0.012950 -0.039857
v -0.145699 0.208294 -0.151334
v -0.145699 0.171937 -0.187691
v -0.145699 0.098022 -0.235458
v -0.147154 0.036764 -0.049363
v -0.147154 0.071623 -0.064310
v -0.145699 0.284799 0.000000
v -0.145699 0.257465 0.000000
v -0.145699 0.254224 -0.020464
v -0.145699 0.249824 -0.048244
v -0.147154 0.058308 -0.019710
v -0.147154 0.083295 -0.048244
v -0.146964 0.033905 -0.024633
v -0.147154 0.073197 -0.053181
v -0.147154 0.058308 0.000000
v -0.145699 0.167401 0.230408
v -0.145699 -0.079561 0.244864
v 0.144679 -0.000000 0.000000
v -0.140264 0.251156 -0.182476
v -0.140264 0.295252 -0.095933
v -0.140264 -0.095933 0.295252
v -0.140264 -0.251156 -0.182476
v -0.140264 0.310446 0.000000
v -0.140264 -0.295252 -0.095933
v -0.140264 -0.310446 -0.000000
v -0.140264 0.182475 0.251156
v -0.140264 0.095933 0.295252
v -0.140264 -0.000000 0.310446
v -0.140264 0.095933 -0.295252
v -0.140264 0.182476 -0.251156
v -0.140264 -0.000000 -0.310446
v -0.140264 0.295252 0.095933
v -0.140264 0.251156 0.182476
v -0.140264 -0.182476 -0.251156
v -0.140264 -0.095933 -0.295252
v -0.140264 -0.182476 0.251156
v -0.140264 -0.251157 0.182476
v -0.140264 -0.295252 0.095933
v -0.137811 0.031216 0.000000
v -0.137811 0.025254 0.018348
v -0.137811 0.009646 0.029688
v -0.137811 -0.009646 0.029688
v -0.137811 -0.025254 0.018348
v -0.137811 -0.031216 0.000000
v -0.137811 -0.025254 -0.018348
v -0.137811 -0.009646 -0.029688
v -0.137811 0.009646 -0.029688
v -0.137811 0.025254 -0.018348
v -0.137811 -0.000000 0.000000
v -0.140042 0.183468 0.252522
v -0.113029 0.197550 0.271905
v -0.113029 0.336093 0.000000
v -0.140042 0.312134 0.000000
v -0.140042 0.096455 -0.296857
v -0.113029 0.103858 -0.319643
v -0.113029 0.319643 0.103859
v -0.140042 0.296857 0.096455
v -0.140042 0.252522 0.183468
v -0.113029 0.271905 0.197551
v -0.140042 0.296857 -0.096455
v -0.113029 0.319643 -0.103858
v -0.113029 -0.197551 -0.271905
v -0.140042 -0.183468 -0.252522
v -0.140042 -0.096455 -0.296858
v -0.113029 -0.103859 -0.319644
v -0.113029 0.197550 -0.271905
v -0.140042 0.183468 -0.252522
v -0.140042 0.252522 -0.183468
v -0.113029 0.271905 -0.197550
v -0.140042 -0.000000 -0.312135
v -0.113029 -0.000000 -0.336093
v -0.140042 -0.252522 -0.183468
v -0.113029 -0.271905 -0.197551
v -0.140042 -0.296858 -0.096455
v -0.113029 -0.319644 -0.103858
v -0.140042 -0.252522 0.183468
v -0.113029 -0.271905 0.197551
v -0.140042 -0.183468 0.252522
v -0.113029 -0.197551 0.271905
v -0.113029 -0.000000 0.336093
v -0.140042 -0.000000 0.312135
v -0.140042 -0.096455 0.296858
v -0.113029 -0.103859 0.319644
v -0.113029 -0.319644 0.103859
v -0.140042 -0.296858 0.096455
v -0.140042 -0.312135 -0.000000
v -0.113029 -0.336093 -0.000000
v -0.140042 0.096455 0.296858
v -0.113029 0.103858 0.319644
v 0.120807 0.197550 0.271905
v 0.144679 0.183344 0.252352
v 0.144679 0.311924 0.000000
v 0.120807 0.336093 0.000000
v 0.120807 0.103858 -0.319643
v 0.144679 0.096390 -0.296658
v 0.144679 0.296657 0.096390
v 0.120807 0.319643 0.103859
v 0.120807 0.271905 0.197551
v 0.144679 0.252352 0.183345
v 0.120807 0.319643 -0.103858
v 0.144679 0.296657 -0.096390
v 0.144679 -0.183345 -0.252352
v 0.120807 -0.197551 -0.271905
v 0.120807 -0.103859 -0.319644
v 0.144679 -0.096390 -0.296658
v 0.144679 0.183344 -0.252352
v 0.120807 0.197550 -0.271905
v 0.120807 0.271905 -0.197550
v 0.144679 0.252352 -0.183344
v 0.120807 -0.000000 -0.336093
v 0.144679 -0.000000 -0.311924
v 0.120807 -0.271905 -0.197551
v 0.144679 -0.252352 -0.183344
v 0.120807 -0.319644 -0.103858
v 0.144679 -0.296658 -0.096390
v 0.120807 -0.271905 0.197551
v 0.144679 -0.252352 0.183344
v 0.120807 -0.197551 0.271905
v 0.144679 -0.183345 0.252352
v 0.144679 -0.000000 0.311924
v 0.120807 -0.000000 0.336093
v 0.120807 -0.103859 0.319644
v 0.144679 -0.096390 0.296658
v 0.144679 -0.296658 0.096390
v 0.120807 -0.319644 0.103859
v 0.120807 -0.336093 -0.000000
v 0.144679 -0.311924 -0.000000
v 0.120807 0.103858 0.319644
v 0.144679 0.096390 0.296658
vn -0.9934 0.1145 -0.0000
vn -1.0000 0.0033 -0.0000
vn -1.0000 0.0038 -0.0000
vn -0.9934 0.1089 0.0354
vn -1.0000 0.0035 0.0013
vn -1.0000 0.0030 0.0027
vn -0.9934 0.0926 0.0673
vn -1.0000 -0.0013 0.0002
vn -1.0000 0.0050 0.0026
vn -1.0000 -0.0049 -0.0036
vn -1.0000 0.0009 0.0010
vn -1.0000 -0.0011 -0.0000
vn -1.0000 -0.0095 -0.0000
vn -0.9934 0.0354 0.1089
vn -1.0000 0.0006 0.0039
vn -1.0000 0.0010 0.0032
vn -0.9934 0.0673 0.0926
vn -1.0000 0.0014 0.0037
vn -1.0000 0.0028 0.0046
vn -1.0000 -0.0006 -0.0013
vn -1.0000 -0.0030 -0.0091
vn -1.0000 -0.0003 -0.0010
vn -1.0000 0.0012 0.0036
vn -0.9934 -0.0000 0.1145
vn -1.0000 -0.0002 0.0038
vn -1.0000 -0.0016 0.0036
vn -0.9934 -0.0354 0.1089
vn -1.0000 -0.0006 -0.0012
vn -1.0000 -0.0009 0.0056
vn -1.0000 0.0019 -0.0058
vn -1.0000 -0.0007 0.0011
vn -0.9934 -0.0926 0.0673
vn -1.0000 -0.0035 0.0017
vn -1.0000 -0.0027 0.0019
vn -0.9934 -0.0673 0.0926
vn -1.0000 -0.0031 0.0025
vn -1.0000 -0.0035 0.0041
vn -1.0000 0.0010 -0.0009
vn -1.0000 0.0077 -0.0056
vn -1.0000 0.0009 -0.0006
vn -1.0000 -0.0030 0.0023
vn -0.9934 -0.1089 0.0354
vn -1.0000 -0.0036 0.0010
vn -1.0000 -0.0040 -0.0004
vn -0.9934 -0.1145 -0.0000
vn -1.0000 0.0009 -0.0010
vn -1.0000 -0.0056 0.0009
vn -1.0000 0.0061 -0.0000
vn -1.0000 -0.0013 -0.0003
vn -0.9934 -0.0926 -0.0673
vn -1.0000 -0.0027 -0.0028
vn -1.0000 -0.0027 -0.0019
vn -0.9934 -0.1089 -0.0354
vn -1.0000 -0.0033 -0.0022
vn -1.0000 -0.0050 -0.0020
vn -1.0000 0.0012 0.0007
vn -1.0000 0.0077 0.0056
vn -1.0000 0.0009 0.0006
vn -1.0000 -0.0031 -0.0022
vn -0.9934 -0.0673 -0.0926
vn -1.0000 -0.0021 -0.0032
vn -1.0000 -0.0008 -0.0039
vn -0.9934 -0.0354 -0.1089
vn -1.0000 0.0012 0.0006
vn -1.0000 -0.0025 -0.0050
vn -1.0000 0.0019 0.0058
vn -1.0000 -0.0001 -0.0013
vn -0.9934 0.0354 -0.1089
vn -1.0000 0.0018 -0.0034
vn -1.0000 0.0010 -0.0032
vn -0.9934 -0.0000 -0.1145
vn -1.0000 0.0010 -0.0038
vn -1.0000 0.0004 -0.0053
vn -1.0000 -0.0003 0.0014
vn -1.0000 -0.0030 0.0091
vn -1.0000 -0.0003 0.0010
vn -1.0000 0.0011 -0.0036
vn -0.9934 0.0673 -0.0926
vn -1.0000 0.0024 -0.0029
vn -1.0000 0.0035 -0.0020
vn -0.9934 0.0926 -0.0673
vn -1.0000 -0.0002 0.0013
vn -1.0000 0.0040 -0.0040
vn -1.0000 -0.0049 0.0036
vn -1.0000 0.0012 -0.0005
vn -1.0000 0.0038 0.0007
vn -0.9934 0.1089 -0.0354
vn -1.0000 0.0039 -0.0002
vn -1.0000 0.0052 -0.0013
vn -1.0000 -0.0014 0.0002
vn -0.9863 -0.0970 0.1335
vn -0.9863 -0.0510 0.1569
vn -0.9863 0.1335 -0.0970
vn -0.9863 0.0970 -0.1335
vn -0.9863 0.1650 -0.0000
vn -0.9863 0.1569 -0.0510
vn -0.9863 -0.0970 -0.1335
vn -0.9863 -0.1335 -0.0970
vn -0.9863 -0.0000 0.1650
vn -0.9863 -0.1569 -0.0510
vn -0.9863 0.1569 0.0510
vn -0.9863 0.0510 0.1569
vn -0.9863 0.0970 0.1335
vn -0.9863 -0.1650 -0.0000
vn -0.9863 -0.1569 0.0510
vn -0.9863 0.1335 0.0970
vn -0.9863 0.0510 -0.1569
vn -0.9863 -0.0000 -0.1650
vn -0.9863 -0.0510 -0.1569
vn -0.9863 -0.1335 0.0970
vn -0.7597 -0.6503 -0.0000
vn -0.7597 -0.5261 -0.3822
vn -0.7597 0.5261 0.3822
vn -0.7597 0.2009 0.6184
vn -0.7597 0.6503 -0.0000
vn -0.7597 -0.5261 0.3822
vn -0.7597 0.2009 -0.6184
vn -0.7597 0.5261 -0.3822
vn -0.7597 -0.2009 0.6184
vn -0.7597 -0.2009 -0.6184
vn -1.0000 -0.0000 -0.0000
vn -0.6635 0.7481 -0.0000
vn -0.6635 0.7115 -0.2312
vn -0.6635 0.6053 -0.4397
vn -0.6635 0.2312 -0.7115
vn -0.6635 0.4397 -0.6053
vn -0.6635 -0.0000 -0.7481
vn -0.6635 -0.2312 -0.7115
vn -0.6635 -0.6053 -0.4397
vn -0.6635 -0.4397 -0.6053
vn -0.6635 -0.7115 -0.2312
vn -0.6635 -0.7481 -0.0000
vn -0.6635 -0.6053 0.4397
vn -0.6635 -0.7115 0.2312
vn -0.6635 0.2312 0.7115
vn -0.6635 -0.0000 0.7481
vn -0.6635 0.4397 0.6053
vn -0.6635 0.6053 0.4397
vn -0.6635 0.7115 0.2312
vn -0.6635 -0.4397 0.6053
vn -0.6635 -0.2312 0.7115
vn 0.7115 0.7027 -0.0000
vn 0.7115 0.6683 -0.2172
vn 0.7115 0.5685 -0.4130
vn 0.7115 0.2172 -0.6683
vn 0.7115 0.4130 -0.5685
vn 0.7115 -0.0000 -0.7027
vn 0.7115 -0.2172 -0.6683
vn 0.7115 -0.5685 -0.4130
vn 0.7115 -0.4130 -0.5685
vn 0.7115 -0.6683 -0.2172
vn 0.7115 -0.7027 -0.0000
vn 0.7115 -0.5685 0.4130
vn 0.7115 -0.6683 0.2172
vn 0.7115 -0.6683 0.2171
vn 0.7115 0.2171 0.6683
vn 0.7115 -0.0000 0.7027
vn 0.7115 0.4130 0.5685
vn 0.7115 0.5685 0.4130
vn 0.7115 0.6683 0.2172
vn 0.7115 -0.4130 0.5685
vn 0.7115 -0.2172 0.6683
vn -0.0000 0.3090 0.9511
vn -0.0000 0.5878 0.8090
vn -0.9915 0.0765 0.1052
vn -0.9915 0.1052 0.0765
vn -0.9915 0.0402 0.1237
vn -0.0000 0.8090 0.5878
vn -0.9915 0.1301 -0.0000
vn -0.9915 0.1237 -0.0402
vn -0.0000 1.0000 -0.0000
vn -0.0000 0.9511 -0.3090
vn -0.9915 0.1237 0.0402
vn -0.0000 0.9511 0.3090
vn -0.9915 0.0402 -0.1237
vn -0.9915 -0.0000 -0.1301
vn -0.9915 0.0765 -0.1052
vn -0.0000 0.3090 -0.9511
vn -0.0000 -0.0000 -1.0000
vn -0.0000 0.5878 -0.8090
vn -0.9915 0.1052 -0.0765
vn -0.0000 0.8090 -0.5878
vn -0.9915 -0.0765 -0.1052
vn -0.9915 -0.1052 -0.0765
vn -0.0000 -0.5878 -0.8090
vn -0.0000 -0.8090 -0.5878
vn -0.9915 -0.0402 -0.1237
vn -0.0000 -0.3090 -0.9511
vn -0.9915 -0.1237 -0.0402
vn -0.0000 -0.9511 -0.3090
vn -0.9915 -0.1301 -0.0000
vn -0.0000 -1.0000 -0.0000
vn -0.9915 -0.1052 0.0765
vn -0.9915 -0.0765 0.1052
vn -0.9915 -0.1237 0.0402
vn -0.0000 -0.8090 0.5878
vn -0.0000 -0.5878 0.8090
vn -0.0000 -0.9511 0.3090
vn -0.9915 -0.0402 0.1237
vn -0.0000 -0.3090 0.9511
vn -0.0000 -0.0000 1.0000
vn -0.9915 -0.0000 0.1301
vn 1.0000 -0.0000 -0.0000
vt 0.000000 0.000000
s 1
usemtl plastic.001
f 26/1/35 114/1/91 99/1/92 20/1/27
f 54/1/81 97/1/93 108/1/94 55/1/78
f 85/1/1 101/1/95 98/1/96 73/1/87
f 60/1/60 112/1/97 100/1/98 45/1/50
f 73/1/87 98/1/96 97/1/93 54/1/81
f 20/1/27 99/1/92 106/1/99 21/1/24
f 45/1/50 100/1/98 102/1/100 36/1/53
f 76/1/4 110/1/101 101/1/95 85/1/1
f 7/1/14 105/1/102 104/1/103 94/1/17
f 36/1/53 102/1/100 103/1/104 17/1/45
f 17/1/45 103/1/104 116/1/105 18/1/42
f 94/1/17 104/1/103 111/1/106 75/1/7
f 77/1/68 107/1/107 109/1/108 53/1/71
f 21/1/24 106/1/99 105/1/102 7/1/14
f 55/1/78 108/1/94 107/1/107 77/1/68
f 53/1/71 109/1/108 113/1/109 59/1/63
f 75/1/7 111/1/106 110/1/101 76/1/4
f 59/1/63 113/1/109 112/1/97 60/1/60
f 27/1/32 115/1/110 114/1/91 26/1/35
f 18/1/42 116/1/105 115/1/110 27/1/32
f 119/1/121 127/1/121 120/1/121
f 126/1/121 127/1/121 117/1/121
f 122/1/121 127/1/121 123/1/121
f 123/1/121 127/1/121 124/1/121
f 117/1/121 127/1/121 118/1/121
f 121/1/121 127/1/121 122/1/121
f 125/1/121 127/1/121 126/1/121
f 120/1/121 127/1/121 121/1/121
f 124/1/121 127/1/121 125/1/121
f 118/1/121 127/1/121 119/1/121
f 131/1/122 130/1/122 139/1/123 138/1/123
f 138/1/123 139/1/123 147/1/124 146/1/124
f 133/1/125 132/1/125 145/1/126 144/1/126
f 132/1/125 133/1/125 149/1/127 148/1/127
f 148/1/127 149/1/127 143/1/128 142/1/128
f 151/1/129 150/1/129 141/1/130 140/1/130
f 150/1/129 151/1/129 153/1/131 152/1/131
f 152/1/131 153/1/131 165/1/132 164/1/132
f 155/1/133 154/1/133 163/1/134 162/1/134
f 167/1/135 166/1/135 159/1/136 158/1/136
f 166/1/135 167/1/135 129/1/137 128/1/137
f 128/1/137 129/1/137 137/1/138 136/1/138
f 130/1/122 131/1/122 135/1/139 134/1/139
f 134/1/139 135/1/139 136/1/138 137/1/138
f 140/1/130 141/1/130 142/1/128 143/1/128
f 144/1/126 145/1/126 146/1/124 147/1/124
f 154/1/133 155/1/133 157/1/140 156/1/140
f 156/1/140 157/1/140 161/1/141 160/1/141
f 158/1/136 159/1/136 160/1/141 161/1/141
f 162/1/134 163/1/134 164/1/132 165/1/132
f 171/1/142 170/1/142 179/1/143 178/1/143
f 178/1/143 179/1/143 187/1/144 186/1/144
f 173/1/145 172/1/145 185/1/146 184/1/146
f 172/1/145 173/1/145 189/1/147 188/1/147
f 188/1/147 189/1/147 183/1/148 182/1/148
f 191/1/149 190/1/149 181/1/150 180/1/150
f 190/1/149 191/1/149 193/1/151 192/1/151
f 192/1/151 193/1/151 205/1/152 204/1/152
f 195/1/153 194/1/153 203/1/154 202/1/155
f 207/1/156 206/1/156 199/1/157 198/1/157
f 206/1/156 207/1/156 169/1/158 168/1/158
f 168/1/158 169/1/158 177/1/159 176/1/159
f 170/1/142 171/1/142 175/1/160 174/1/160
f 174/1/160 175/1/160 176/1/159 177/1/159
f 180/1/150 181/1/150 182/1/148 183/1/148
f 184/1/146 185/1/146 186/1/144 187/1/144
f 194/1/153 195/1/153 197/1/161 196/1/161
f 196/1/161 197/1/161 201/1/162 200/1/162
f 198/1/157 199/1/157 200/1/162 201/1/162
f 202/1/155 203/1/154 204/1/152 205/1/152
f 167/1/163 206/1/163 168/1/164 129/1/164
f 104/1/103 128/1/165 136/1/166 111/1/106
f 105/1/102 166/1/167 128/1/165 104/1/103
f 129/1/164 168/1/164 176/1/168 137/1/168
f 101/1/95 131/1/169 138/1/170 98/1/96
f 130/1/171 171/1/171 178/1/172 139/1/172
f 110/1/101 135/1/173 131/1/169 101/1/95
f 134/1/174 175/1/174 171/1/171 130/1/171
f 107/1/107 132/1/175 148/1/176 109/1/108
f 108/1/94 145/1/177 132/1/175 107/1/107
f 133/1/178 172/1/178 188/1/179 149/1/179
f 144/1/180 185/1/180 172/1/178 133/1/178
f 111/1/106 136/1/166 135/1/173 110/1/101
f 137/1/168 176/1/168 175/1/174 134/1/174
f 98/1/96 138/1/170 146/1/181 97/1/93
f 139/1/172 178/1/172 186/1/182 147/1/182
f 112/1/97 141/1/183 150/1/184 100/1/98
f 140/1/185 181/1/185 190/1/186 151/1/186
f 113/1/109 142/1/187 141/1/183 112/1/97
f 143/1/188 182/1/188 181/1/185 140/1/185
f 149/1/179 188/1/179 182/1/188 143/1/188
f 109/1/108 148/1/176 142/1/187 113/1/109
f 97/1/93 146/1/181 145/1/177 108/1/94
f 147/1/182 186/1/182 185/1/180 144/1/180
f 100/1/98 150/1/184 152/1/189 102/1/100
f 151/1/186 190/1/186 192/1/190 153/1/190
f 102/1/100 152/1/189 164/1/191 103/1/104
f 153/1/190 192/1/190 204/1/192 165/1/192
f 115/1/110 154/1/193 156/1/194 114/1/91
f 116/1/105 163/1/195 154/1/193 115/1/110
f 155/1/196 194/1/196 196/1/197 157/1/197
f 162/1/198 203/1/198 194/1/196 155/1/196
f 114/1/91 156/1/194 160/1/199 99/1/92
f 157/1/197 196/1/197 200/1/200 161/1/200
f 158/1/201 199/1/201 206/1/163 167/1/163
f 99/1/92 160/1/199 159/1/202 106/1/99
f 161/1/200 200/1/200 199/1/201 158/1/201
f 106/1/99 159/1/202 166/1/167 105/1/102
f 103/1/104 164/1/191 163/1/195 116/1/105
f 165/1/192 204/1/192 203/1/198 162/1/198
f 207/1/203 96/1/203 169/1/203
f 169/1/203 96/1/203 177/1/203
f 170/1/203 96/1/203 179/1/203
f 174/1/203 96/1/203 170/1/203
f 184/1/203 96/1/203 173/1/203
f 173/1/203 96/1/203 189/1/203
f 177/1/203 96/1/203 174/1/203
f 179/1/203 96/1/203 187/1/203
f 180/1/203 96/1/203 191/1/203
f 183/1/203 96/1/203 180/1/203
f 189/1/203 96/1/203 183/1/203
f 187/1/203 96/1/203 184/1/203
f 191/1/203 96/1/203 193/1/203
f 193/1/203 96/1/203 205/1/203
f 202/1/203 96/1/203 195/1/203
f 195/1/203 96/1/203 197/1/203
f 197/1/203 96/1/203 201/1/203
f 198/1/203 96/1/203 207/1/203
f 201/1/203 96/1/203 198/1/203
f 205/1/203 96/1/203 202/1/203
usemtl chrome.001
f 85/1/1 86/1/2 4/1/3
f 76/1/4 3/1/5 2/1/6 75/1/7
f 3/1/5 4/1/3 5/1/8 6/1/9
f 4/1/3 3/1/5 76/1/4 85/1/1
f 6/1/9 5/1/8 14/1/10 15/1/11
f 14/1/10 5/1/8 93/1/12 1/1/13
f 7/1/14 10/1/15 9/1/16
f 94/1/17 75/1/7 2/1/6 8/1/6
f 11/1/18 13/1/19 12/1/20 10/1/15
f 10/1/15 7/1/14 94/1/17 11/1/18
f 94/1/17 8/1/6 11/1/18
f 13/1/19 15/1/11 14/1/10 12/1/20
f 14/1/10 19/1/21 16/1/22 12/1/20
f 7/1/14 9/1/16 23/1/23
f 21/1/24 22/1/25 95/1/26 20/1/27
f 22/1/25 23/1/23 24/1/28 25/1/29
f 23/1/23 22/1/25 21/1/24 7/1/14
f 25/1/29 24/1/28 33/1/30 34/1/31
f 33/1/30 24/1/28 16/1/22 19/1/21
f 27/1/32 29/1/33 38/1/34
f 26/1/35 20/1/27 95/1/26 28/1/26
f 30/1/36 32/1/37 31/1/38 29/1/33
f 29/1/33 27/1/32 26/1/35 30/1/36
f 26/1/35 28/1/26 30/1/36
f 32/1/37 34/1/31 33/1/30 31/1/38
f 33/1/30 35/1/39 39/1/40 31/1/38
f 27/1/32 38/1/34 42/1/41
f 18/1/42 41/1/43 40/1/44 17/1/45
f 41/1/43 42/1/41 43/1/46 44/1/47
f 42/1/41 41/1/43 18/1/42 27/1/32
f 44/1/47 43/1/46 51/1/48 52/1/49
f 51/1/48 43/1/46 39/1/40 35/1/39
f 45/1/50 47/1/51 56/1/52
f 36/1/53 17/1/45 40/1/44 46/1/44
f 48/1/54 50/1/55 49/1/56 47/1/51
f 47/1/51 45/1/50 36/1/53 48/1/54
f 36/1/53 46/1/44 48/1/54
f 50/1/55 52/1/49 51/1/48 49/1/56
f 51/1/48 58/1/57 57/1/58 49/1/56
f 45/1/50 56/1/52 62/1/59
f 60/1/60 61/1/61 37/1/62 59/1/63
f 61/1/61 62/1/59 63/1/64 64/1/65
f 62/1/59 61/1/61 60/1/60 45/1/50
f 64/1/65 63/1/64 71/1/66 72/1/67
f 71/1/66 63/1/64 57/1/58 58/1/57
f 77/1/68 67/1/69 66/1/70
f 53/1/71 59/1/63 37/1/62 65/1/62
f 68/1/72 70/1/73 69/1/74 67/1/69
f 67/1/69 77/1/68 53/1/71 68/1/72
f 53/1/71 65/1/62 68/1/72
f 70/1/73 72/1/67 71/1/66 69/1/74
f 71/1/66 79/1/75 78/1/76 69/1/74
f 77/1/68 66/1/70 82/1/77
f 55/1/78 81/1/79 80/1/80 54/1/81
f 81/1/79 82/1/77 83/1/82 84/1/83
f 82/1/77 81/1/79 55/1/78 77/1/68
f 84/1/83 83/1/82 91/1/84 92/1/85
f 91/1/84 83/1/82 78/1/76 79/1/75
f 85/1/1 87/1/86 86/1/2
f 73/1/87 54/1/81 80/1/80 74/1/80
f 88/1/88 90/1/89 89/1/90 87/1/86
f 87/1/86 85/1/1 73/1/87 88/1/88
f 73/1/87 74/1/80 88/1/88
f 90/1/89 92/1/85 91/1/84 89/1/90
f 91/1/84 1/1/13 93/1/12 89/1/90
f 1/1/111 117/1/111 118/1/112 14/1/112
f 58/1/113 123/1/113 124/1/114 71/1/114
f 51/1/115 122/1/115 123/1/113 58/1/113
f 91/1/116 126/1/116 117/1/111 1/1/111
f 33/1/117 120/1/117 121/1/118 35/1/118
f 79/1/119 125/1/119 126/1/116 91/1/116
f 71/1/114 124/1/114 125/1/119 79/1/119
f 35/1/118 121/1/118 122/1/115 51/1/115
f 14/1/112 118/1/112 119/1/120 19/1/120
f 19/1/120 119/1/120 120/1/117 33/1/117
usemtl empty.001
f 2/1/6 3/1/5 6/1/9 15/1/11 13/1/19 11/1/18 8/1/6
f 10/1/15 12/1/20 16/1/22 24/1/28 23/1/23 9/1/16
f 28/1/26 95/1/26 22/1/25 25/1/29 34/1/31 32/1/37 30/1/36
f 31/1/38 39/1/40 43/1/46 42/1/41 38/1/34 29/1/33
f 40/1/44 41/1/43 44/1/47 52/1/49 50/1/55 48/1/54 46/1/44
f 49/1/56 57/1/58 63/1/64 62/1/59 56/1/52 47/1/51
f 65/1/62 37/1/62 61/1/61 64/1/65 72/1/67 70/1/73 68/1/72
f 67/1/69 69/1/74 78/1/76 83/1/82 82/1/77 66/1/70
f 80/1/80 81/1/79 84/1/83 92/1/85 90/1/89 88/1/88 74/1/80
f 5/1/8 4/1/3 86/1/2 87/1/86 89/1/90 93/1/12
