# Blender 5.2.2 LTS
# www.blender.org
mtllib front_wheels.mtl
o front_wheels_misc
g front_wheels_misc
v -0.146964 0.041908 -0.000000
v -0.145699 0.208294 0.151335
v -0.145699 0.231636 0.105523
v -0.145699 0.254224 0.020464
v -0.147154 0.058308 0.019711
v -0.147154 0.083295 0.048244
v -0.145699 0.088008 0.270860
v -0.145699 0.151334 0.208294
v -0.145699 0.079561 0.244864
v -0.145699 0.098022 0.235458
v -0.145699 0.123083 0.222689
v -0.147154 0.036764 0.049363
v -0.147154 0.071623 0.064310
v -0.146964 0.033905 0.024633
v -0.147154 0.073197 0.053181
v -0.147154 0.018018 0.055454
v -0.145699 -0.284799 0.000000
v -0.145699 -0.270860 0.088008
v -0.146964 0.012950 0.039858
v -0.145699 -0.088008 0.270860
v -0.145699 0.000000 0.284799
v -0.145699 -0.028779 0.252907
v -0.145699 0.059097 0.248105
v -0.147154 -0.000728 0.061545
v -0.147154 -0.020144 0.094127
v -0.145699 -0.167401 0.230408
v -0.145699 -0.230408 0.167401
v -0.145699 -0.151335 0.208294
v -0.145699 -0.193644 0.165985
v -0.145699 -0.173755 0.185874
v -0.147154 -0.035587 0.050219
v -0.147154 -0.039030 0.087990
v -0.146964 -0.012951 0.039858
v -0.147154 -0.027959 0.086049
v -0.146964 -0.033905 0.024633
v -0.145699 -0.270860 -0.088008
v -0.145699 -0.079561 -0.244864
v -0.145699 -0.208294 0.151334
v -0.147154 -0.047172 0.034272
v -0.145699 -0.257466 0.000000
v -0.145699 -0.249422 0.050783
v -0.145699 -0.217700 0.132874
v -0.147154 -0.058758 0.018326
v -0.147154 -0.095745 0.009929
v -0.145699 -0.230408 -0.167401
v -0.145699 -0.244864 -0.079561
v -0.145699 -0.217700 -0.132874
v -0.145699 -0.230470 -0.107813
v -0.147154 -0.058758 -0.018326
v -0.147154 -0.095745 -0.009929
v -0.146964 -0.041909 0.000000
v -0.147154 -0.090477 0.000000
v -0.145699 -0.000000 -0.284799
v -0.145699 0.230407 -0.167401
v -0.145699 0.167401 -0.230407
v -0.145699 -0.208294 -0.151334
v -0.147154 -0.047172 -0.034272
v -0.146964 -0.033905 -0.024633
v -0.145699 -0.088008 -0.270860
v -0.145699 -0.167401 -0.230408
v -0.145699 -0.125373 -0.221522
v -0.145699 -0.193643 -0.165985
v -0.147154 -0.035587 -0.050219
v -0.147154 -0.039030 -0.087990
v -0.145699 -0.000000 -0.257465
v -0.145699 0.079561 -0.244864
v -0.145699 0.059097 -0.248105
v -0.145699 0.031317 -0.252505
v -0.147154 -0.000728 -0.061545
v -0.147154 -0.020144 -0.094127
v -0.146964 -0.012951 -0.039857
v -0.147154 -0.027959 -0.086049
v -0.145699 0.270860 -0.088008
v -0.145699 0.244864 -0.079561
v -0.145699 0.230407 0.167401
v -0.145699 0.270860 0.088008
v -0.145699 0.088008 -0.270860
v -0.147154 0.018018 -0.055454
v -0.146964 0.012950 -0.039857
v -0.145699 0.208294 -0.151334
v -0.145699 0.171937 -0.187691
v -0.145699 0.098022 -0.235458
v -0.147154 0.036764 -0.049363
v -0.147154 0.071623 -0.064310
v -0.145699 0.284799 -0.000000
v -0.145699 0.257465 -0.000000
v -0.145699 0.254224 -0.020464
v -0.145699 0.249824 -0.048244
v -0.147154 0.058308 -0.019710
v -0.147154 0.083295 -0.048244
v -0.146964 0.033905 -0.024633
v -0.147154 0.073197 -0.053181
v -0.147154 0.058308 -0.000000
v -0.145699 0.167401 0.230408
v -0.145699 -0.079561 0.244864
v -0.137811 0.031216 -0.000000
v -0.137811 0.025254 0.018348
v -0.137811 0.009646 0.029688
v -0.137811 -0.009646 0.029688
v -0.137811 -0.025254 0.018348
v -0.137811 -0.031216 0.000000
v -0.137811 -0.025254 -0.018348
v -0.137811 -0.009646 -0.029688
v -0.137811 0.009646 -0.029688
v -0.137811 0.025254 -0.018348
vn -0.9934 0.1145 -0.0000
vn -1.0000 0.0033 -0.0000
vn -1.0000 0.0038 -0.0000
vn -0.9934 0.1089 0.0354
vn -1.0000 0.0035 0.0013
vn -1.0000 0.0030 0.0027
vn -0.9934 0.0926 0.0673
vn -1.0000 -0.0014 0.0002
vn -1.0000 0.0050 0.0025
vn -1.0000 -0.0049 -0.0036
vn -1.0000 0.0008 0.0010
vn -1.0000 -0.0011 -0.0000
vn -1.0000 -0.0095 -0.0000
vn -0.9934 0.0354 0.1089
vn -1.0000 0.0005 0.0038
vn -1.0000 0.0010 0.0031
vn -0.9934 0.0673 0.0926
vn -1.0000 0.0014 0.0037
vn -1.0000 0.0028 0.0046
vn -1.0000 -0.0006 -0.0013
vn -1.0000 -0.0029 -0.0091
vn -1.0000 -0.0003 -0.0010
vn -1.0000 0.0012 0.0036
vn -0.9934 -0.0000 0.1145
vn -1.0000 -0.0002 0.0038
vn -1.0000 -0.0016 0.0036
vn -0.9934 -0.0354 0.1089
vn -1.0000 -0.0006 -0.0012
vn -1.0000 -0.0009 0.0055
vn -1.0000 0.0019 -0.0058
vn -1.0000 -0.0007 0.0011
vn -0.9934 -0.0926 0.0673
vn -1.0000 -0.0034 0.0016
vn -1.0000 -0.0027 0.0019
vn -0.9934 -0.0673 0.0926
vn -1.0000 -0.0031 0.0025
vn -1.0000 -0.0035 0.0041
vn -1.0000 0.0010 -0.0010
vn -1.0000 0.0077 -0.0056
vn -1.0000 0.0009 -0.0006
vn -1.0000 -0.0030 0.0022
vn -0.9934 -0.1089 0.0354
vn -1.0000 -0.0036 0.0010
vn -1.0000 -0.0040 -0.0004
vn -0.9934 -0.1145 -0.0000
vn -1.0000 -0.0055 0.0009
vn -1.0000 0.0061 -0.0000
vn -1.0000 -0.0013 -0.0003
vn -0.9934 -0.0926 -0.0673
vn -1.0000 -0.0027 -0.0028
vn -1.0000 -0.0027 -0.0019
vn -0.9934 -0.1089 -0.0354
vn -1.0000 -0.0033 -0.0022
vn -1.0000 -0.0050 -0.0020
vn -1.0000 0.0013 0.0007
vn -1.0000 0.0077 0.0056
vn -1.0000 0.0009 0.0006
vn -1.0000 -0.0030 -0.0022
vn -0.9934 -0.0673 -0.0926
vn -1.0000 -0.0021 -0.0031
vn -1.0000 -0.0008 -0.0039
vn -0.9934 -0.0354 -0.1089
vn -1.0000 0.0012 0.0006
vn -1.0000 -0.0026 -0.0050
vn -1.0000 0.0019 0.0058
vn -1.0000 -0.0001 -0.0013
vn -0.9934 0.0354 -0.1089
vn -1.0000 0.0018 -0.0034
vn -1.0000 0.0010 -0.0031
vn -0.9934 -0.0000 -0.1145
vn -1.0000 0.0011 -0.0038
vn -1.0000 0.0004 -0.0054
vn -1.0000 -0.0002 0.0014
vn -1.0000 -0.0029 0.0091
vn -1.0000 -0.0003 0.0010
vn -1.0000 0.0012 -0.0037
vn -0.9934 0.0673 -0.0926
vn -1.0000 0.0024 -0.0029
vn -1.0000 0.0034 -0.0020
vn -0.9934 0.0926 -0.0673
vn -1.0000 0.0040 -0.0040
vn -1.0000 -0.0049 0.0036
vn -1.0000 0.0012 -0.0005
vn -1.0000 0.0038 0.0007
vn -0.9934 0.1089 -0.0354
vn -1.0000 0.0039 -0.0002
vn -1.0000 0.0052 -0.0012
vn -0.7597 -0.6503 -0.0000
vn -0.7597 -0.5261 -0.3822
vn -0.7597 0.5261 0.3822
vn -0.7597 0.2009 0.6185
vn -0.7597 0.2010 0.6185
vn -0.7597 0.6503 -0.0000
vn -0.7597 -0.5261 0.3822
vn -0.7597 0.2010 -0.6184
vn -0.7597 0.2009 -0.6184
vn -0.7597 0.5261 -0.3822
vn -0.7597 -0.2009 0.6185
vn -0.7597 -0.2010 0.6185
vn -0.7597 -0.2010 -0.6184
vn -0.7597 -0.2009 -0.6184
vt 0.000000 0.000000
s 1
usemtl chrome.001
f 85/1/1 86/1/2 4/1/3
f 76/1/4 3/1/5 2/1/6 75/1/7
f 3/1/5 4/1/3 5/1/8 6/1/9
f 4/1/3 3/1/5 76/1/4 85/1/1
f 6/1/9 5/1/8 14/1/10 15/1/11
f 14/1/10 5/1/8 93/1/12 1/1/13
f 7/1/14 10/1/15 9/1/16
f 94/1/17 75/1/7 2/1/6 8/1/6
f 11/1/18 13/1/19 12/1/20 10/1/15
f 10/1/15 7/1/14 94/1/17 11/1/18
f 94/1/17 8/1/6 11/1/18
f 13/1/19 15/1/11 14/1/10 12/1/20
f 14/1/10 19/1/21 16/1/22 12/1/20
f 7/1/14 9/1/16 23/1/23
f 21/1/24 22/1/25 95/1/26 20/1/27
f 22/1/25 23/1/23 24/1/28 25/1/29
f 23/1/23 22/1/25 21/1/24 7/1/14
f 25/1/29 24/1/28 33/1/30 34/1/31
f 33/1/30 24/1/28 16/1/22 19/1/21
f 27/1/32 29/1/33 38/1/34
f 26/1/35 20/1/27 95/1/26 28/1/26
f 30/1/36 32/1/37 31/1/38 29/1/33
f 29/1/33 27/1/32 26/1/35 30/1/36
f 26/1/35 28/1/26 30/1/36
f 32/1/37 34/1/31 33/1/30 31/1/38
f 33/1/30 35/1/39 39/1/40 31/1/38
f 27/1/32 38/1/34 42/1/41
f 18/1/42 41/1/43 40/1/44 17/1/45
f 41/1/43 42/1/41 43/1/38 44/1/46
f 42/1/41 41/1/43 18/1/42 27/1/32
f 44/1/46 43/1/38 51/1/47 52/1/48
f 51/1/47 43/1/38 39/1/40 35/1/39
f 45/1/49 47/1/50 56/1/51
f 36/1/52 17/1/45 40/1/44 46/1/44
f 48/1/53 50/1/54 49/1/55 47/1/50
f 47/1/50 45/1/49 36/1/52 48/1/53
f 36/1/52 46/1/44 48/1/53
f 50/1/54 52/1/48 51/1/47 49/1/55
f 51/1/47 58/1/56 57/1/57 49/1/55
f 45/1/49 56/1/51 62/1/58
f 60/1/59 61/1/60 37/1/61 59/1/62
f 61/1/60 62/1/58 63/1/63 64/1/64
f 62/1/58 61/1/60 60/1/59 45/1/49
f 64/1/64 63/1/63 71/1/65 72/1/66
f 71/1/65 63/1/63 57/1/57 58/1/56
f 77/1/67 67/1/68 66/1/69
f 53/1/70 59/1/62 37/1/61 65/1/61
f 68/1/71 70/1/72 69/1/73 67/1/68
f 67/1/68 77/1/67 53/1/70 68/1/71
f 53/1/70 65/1/61 68/1/71
f 70/1/72 72/1/66 71/1/65 69/1/73
f 71/1/65 79/1/74 78/1/75 69/1/73
f 77/1/67 66/1/69 82/1/76
f 55/1/77 81/1/78 80/1/79 54/1/80
f 81/1/78 82/1/76 83/1/73 84/1/81
f 82/1/76 81/1/78 55/1/77 77/1/67
f 84/1/81 83/1/73 91/1/82 92/1/83
f 91/1/82 83/1/73 78/1/75 79/1/74
f 85/1/1 87/1/84 86/1/2
f 73/1/85 54/1/80 80/1/79 74/1/79
f 88/1/86 90/1/87 89/1/8 87/1/84
f 87/1/84 85/1/1 73/1/85 88/1/86
f 73/1/85 74/1/79 88/1/86
f 90/1/87 92/1/83 91/1/82 89/1/8
f 91/1/82 1/1/13 93/1/12 89/1/8
f 1/1/88 96/1/88 97/1/89 14/1/89
f 58/1/90 102/1/90 103/1/91 71/1/92
f 51/1/93 101/1/93 102/1/90 58/1/90
f 91/1/94 105/1/94 96/1/88 1/1/88
f 33/1/95 99/1/96 100/1/97 35/1/97
f 79/1/98 104/1/99 105/1/94 91/1/94
f 71/1/92 103/1/91 104/1/99 79/1/98
f 35/1/97 100/1/97 101/1/93 51/1/93
f 14/1/89 97/1/89 98/1/100 19/1/101
f 19/1/101 98/1/100 99/1/96 33/1/95
o front_wheels
g front_wheels
v -0.145699 0.208294 0.151335
v -0.145699 0.231636 0.105523
v -0.145699 0.254224 0.020464
v -0.147154 0.058308 0.019711
v -0.147154 0.083295 0.048244
v -0.145699 0.088008 0.270860
v -0.145699 0.151334 0.208294
v -0.145699 0.079561 0.244864
v -0.145699 0.098022 0.235458
v -0.145699 0.123083 0.222689
v -0.147154 0.036764 0.049363
v -0.147154 0.071623 0.064310
v -0.147154 0.073197 0.053181
v -0.147154 0.018018 0.055454
v -0.145699 -0.284799 0.000000
v -0.145699 -0.270860 0.088008
v -0.145699 -0.088008 0.270860
v -0.145699 0.000000 0.284799
v -0.145699 -0.028779 0.252907
v -0.145699 0.059097 0.248105
v -0.147154 -0.000728 0.061545
v -0.147154 -0.020144 0.094127
v -0.145699 -0.167401 0.230408
v -0.145699 -0.230408 0.167401
v -0.145699 -0.151335 0.208294
v -0.145699 -0.193644 0.165985
v -0.145699 -0.173755 0.185874
v -0.147154 -0.035587 0.050219
v -0.147154 -0.039030 0.087990
v -0.147154 -0.027959 0.086049
v -0.145699 -0.270860 -0.088008
v -0.145699 -0.079561 -0.244864
v -0.145699 -0.208294 0.151334
v -0.147154 -0.047172 0.034272
v -0.145699 -0.257466 0.000000
v -0.145699 -0.249422 0.050783
v -0.145699 -0.217700 0.132874
v -0.147154 -0.058758 0.018326
v -0.147154 -0.095745 0.009929
v -0.145699 -0.230408 -0.167401
v -0.145699 -0.244864 -0.079561
v -0.145699 -0.217700 -0.132874
v -0.145699 -0.230470 -0.107813
v -0.147154 -0.058758 -0.018326
v -0.147154 -0.095745 -0.009929
v -0.147154 -0.090477 0.000000
v -0.145699 -0.000000 -0.284799
v -0.145699 0.230407 -0.167401
v -0.145699 0.167401 -0.230407
v -0.145699 -0.208294 -0.151334
v -0.147154 -0.047172 -0.034272
v -0.145699 -0.088008 -0.270860
v -0.145699 -0.167401 -0.230408
v -0.145699 -0.125373 -0.221522
v -0.145699 -0.193643 -0.165985
v -0.147154 -0.035587 -0.050219
v -0.147154 -0.039030 -0.087990
v -0.145699 -0.000000 -0.257465
v -0.145699 0.079561 -0.244864
v -0.145699 0.059097 -0.248105
v -0.145699 0.031317 -0.252505
v -0.147154 -0.000728 -0.061545
v -0.147154 -0.020144 -0.094127
v -0.147154 -0.027959 -0.086049
v -0.145699 0.270860 -0.088008
v -0.145699 0.244864 -0.079561
v -0.145699 0.230407 0.167401
v -0.145699 0.270860 0.088008
v -0.145699 0.088008 -0.270860
v -0.147154 0.018018 -0.055454
v -0.145699 0.208294 -0.151334
v -0.145699 0.171937 -0.187691
v -0.145699 0.098022 -0.235458
v -0.147154 0.036764 -0.049363
v -0.147154 0.071623 -0.064310
v -0.145699 0.284799 -0.000000
v -0.145699 0.257465 -0.000000
v -0.145699 0.254224 -0.020464
v -0.145699 0.249824 -0.048244
v -0.147154 0.058308 -0.019710
v -0.147154 0.083295 -0.048244
v -0.147154 0.073197 -0.053181
v -0.147154 0.058308 -0.000000
v -0.145699 0.167401 0.230408
v -0.145699 -0.079561 0.244864
v 0.144679 0.000000 0.000000
v -0.140264 0.251156 -0.182476
v -0.140264 0.295252 -0.095933
v -0.140264 -0.095933 0.295252
v -0.140264 -0.251156 -0.182476
v -0.140264 0.310446 -0.000000
v -0.140264 -0.295252 -0.095933
v -0.140264 -0.310446 0.000000
v -0.140264 0.182475 0.251156
v -0.140264 0.095933 0.295252
v -0.140264 0.000000 0.310446
v -0.140264 0.095933 -0.295252
v -0.140264 0.182476 -0.251156
v -0.140264 -0.000000 -0.310446
v -0.140264 0.295252 0.095933
v -0.140264 0.251156 0.182476
v -0.140264 -0.182476 -0.251156
v -0.140264 -0.095933 -0.295252
v -0.140264 -0.182476 0.251156
v -0.140264 -0.251157 0.182476
v -0.140264 -0.295252 0.095933
v -0.137811 0.031216 -0.000000
v -0.137811 0.025254 0.018348
v -0.137811 0.009646 0.029688
v -0.137811 -0.009646 0.029688
v -0.137811 -0.025254 0.018348
v -0.137811 -0.031216 0.000000
v -0.137811 -0.025254 -0.018348
v -0.137811 -0.009646 -0.029688
v -0.137811 0.009646 -0.029688
v -0.137811 0.025254 -0.018348
v -0.137811 0.000000 0.000000
v -0.140042 0.183468 0.252522
v -0.113029 0.197550 0.271905
v -0.113029 0.336093 -0.000000
v -0.140042 0.312134 -0.000000
v -0.140042 0.096455 -0.296857
v -0.113029 0.103858 -0.319643
v -0.113029 0.319643 0.103859
v -0.140042 0.296857 0.096455
v -0.140042 0.252522 0.183468
v -0.113029 0.271905 0.197551
v -0.140042 0.296857 -0.096455
v -0.113029 0.319643 -0.103858
v -0.113029 -0.197551 -0.271905
v -0.140042 -0.183468 -0.252522
v -0.140042 -0.096455 -0.296858
v -0.113029 -0.103859 -0.319644
v -0.113029 0.197550 -0.271905
v -0.140042 0.183468 -0.252522
v -0.140042 0.252522 -0.183468
v -0.113029 0.271905 -0.197550
v -0.140042 -0.000000 -0.312135
v -0.113029 -0.000000 -0.336093
v -0.140042 -0.252522 -0.183468
v -0.113029 -0.271905 -0.197551
v -0.140042 -0.296858 -0.096455
v -0.113029 -0.319644 -0.103858
v -0.140042 -0.252522 0.183468
v -0.113029 -0.271905 0.197551
v -0.140042 -0.183468 0.252522
v -0.113029 -0.197551 0.271905
v -0.113029 0.000000 0.336093
v -0.140042 0.000000 0.312135
v -0.140042 -0.096455 0.296858
v -0.113029 -0.103859 0.319644
v -0.113029 -0.319644 0.103859
v -0.140042 -0.296858 0.096455
v -0.140042 -0.312135 0.000000
v -0.113029 -0.336093 0.000000
v -0.140042 0.096455 0.296858
v -0.113029 0.103858 0.319644
v 0.120807 0.197550 0.271905
v 0.144679 0.183344 0.252352
v 0.144679 0.311924 -0.000000
v 0.120807 0.336093 -0.000000
v 0.120807 0.103858 -0.319643
v 0.144679 0.096390 -0.296658
v 0.144679 0.296657 0.096390
v 0.120807 0.319643 0.103859
v 0.120807 0.271905 0.197551
v 0.144679 0.252352 0.183345
v 0.120807 0.319643 -0.103858
v 0.144679 0.296657 -0.096390
v 0.144679 -0.183345 -0.252352
v 0.120807 -0.197551 -0.271905
v 0.120807 -0.103859 -0.319644
v 0.144679 -0.096390 -0.296658
v 0.144679 0.183344 -0.252352
v 0.120807 0.197550 -0.271905
v 0.120807 0.271905 -0.197550
v 0.144679 0.252352 -0.183344
v 0.120807 -0.000000 -0.336093
v 0.144679 -0.000000 -0.311924
v 0.120807 -0.271905 -0.197551
v 0.144679 -0.252352 -0.183344
v 0.120807 -0.319644 -0.103858
v 0.144679 -0.296658 -0.096390
v 0.120807 -0.271905 0.197551
v 0.144679 -0.252352 0.183344
v 0.120807 -0.197551 0.271905
v 0.144679 -0.183345 0.252352
v 0.144679 0.000000 0.311924
v 0.120807 0.000000 0.336093
v 0.120807 -0.103859 0.319644
v 0.144679 -0.096390 0.296658
v 0.144679 -0.296658 0.096390
v 0.120807 -0.319644 0.103859
v 0.120807 -0.336093 0.000000
v 0.144679 -0.311924 0.000000
v 0.120807 0.103858 0.319644
v 0.144679 0.096390 0.296658
vn -0.9934 -0.0673 0.0927
vn -0.9863 -0.0971 0.1336
vn -0.9863 -0.0510 0.1571
vn -0.9934 -0.0354 0.1089
vn -0.9934 0.0927 -0.0673
vn -0.9863 0.1336 -0.0971
vn -0.9863 0.0971 -0.1336
vn -0.9934 0.0673 -0.0927
vn -0.9934 0.1145 -0.0000
vn -0.9863 0.1652 -0.0000
vn -0.9863 0.1571 -0.0510
vn -0.9934 0.1089 -0.0354
vn -0.9934 -0.0673 -0.0927
vn -0.9863 -0.0971 -0.1336
vn -0.9863 -0.1336 -0.0971
vn -0.9934 -0.0927 -0.0673
vn -0.9863 -0.0000 0.1651
vn -0.9934 -0.0000 0.1145
vn -0.9863 -0.1571 -0.0510
vn -0.9934 -0.1089 -0.0354
vn -0.9934 0.1089 0.0354
vn -0.9863 0.1571 0.0510
vn -0.9934 0.0354 0.1089
vn -0.9863 0.0510 0.1571
vn -0.9863 0.0971 0.1336
vn -0.9934 0.0673 0.0927
vn -0.9863 -0.1651 -0.0000
vn -0.9934 -0.1145 -0.0000
vn -0.9863 -0.1571 0.0510
vn -0.9934 -0.1089 0.0354
vn -0.9863 0.1336 0.0971
vn -0.9934 0.0927 0.0673
vn -0.9934 0.0354 -0.1089
vn -0.9863 0.0510 -0.1571
vn -0.9863 -0.0000 -0.1652
vn -0.9934 -0.0000 -0.1145
vn -0.9863 -0.0510 -0.1571
vn -0.9934 -0.0354 -0.1089
vn -0.9934 -0.0927 0.0673
vn -0.9863 -0.1336 0.0971
vn -1.0000 -0.0000 -0.0000
vn -0.6635 0.7481 -0.0000
vn -0.6635 0.7115 -0.2312
vn -0.6635 0.6053 -0.4397
vn -0.6635 0.2312 -0.7115
vn -0.6635 0.4397 -0.6053
vn -0.6635 -0.0000 -0.7481
vn -0.6635 -0.2312 -0.7115
vn -0.6635 -0.6053 -0.4397
vn -0.6635 -0.4397 -0.6053
vn -0.6635 -0.7115 -0.2312
vn -0.6635 -0.7481 -0.0000
vn -0.6635 -0.6053 0.4397
vn -0.6635 -0.7115 0.2312
vn -0.6635 0.2312 0.7115
vn -0.6635 -0.0000 0.7481
vn -0.6635 0.4397 0.6053
vn -0.6635 0.6053 0.4397
vn -0.6635 0.7115 0.2312
vn -0.6635 -0.4397 0.6053
vn -0.6635 -0.2312 0.7115
vn 0.7115 0.7027 -0.0000
vn 0.7115 0.6683 -0.2172
vn 0.7115 0.5685 -0.4131
vn 0.7115 0.2172 -0.6683
vn 0.7115 0.4131 -0.5685
vn 0.7115 -0.0000 -0.7027
vn 0.7115 -0.2172 -0.6683
vn 0.7115 -0.5685 -0.4130
vn 0.7115 -0.5685 -0.4131
vn 0.7115 -0.4131 -0.5685
vn 0.7115 -0.6683 -0.2172
vn 0.7115 -0.7027 -0.0000
vn 0.7115 -0.5685 0.4130
vn 0.7115 -0.5685 0.4131
vn 0.7115 -0.6683 0.2172
vn 0.7115 0.2172 0.6683
vn 0.7115 -0.0000 0.7027
vn 0.7115 0.4131 0.5685
vn 0.7115 0.5685 0.4131
vn 0.7115 0.6683 0.2172
vn 0.7115 -0.4131 0.5685
vn 0.7115 -0.2172 0.6683
vn -0.0000 0.3090 0.9511
vn -0.0000 0.5878 0.8090
vn -0.9915 0.0766 0.1054
vn -0.9915 0.1052 0.0765
vn -0.9915 0.0403 0.1240
vn -0.0000 0.8090 0.5878
vn -0.9915 0.1304 -0.0000
vn -0.9915 0.1240 -0.0403
vn -0.0000 1.0000 -0.0000
vn -0.0000 0.9511 -0.3090
vn -0.9915 0.1240 0.0403
vn -0.0000 0.9511 0.3090
vn -0.9915 0.0401 -0.1235
vn -0.9915 -0.0000 -0.1303
vn -0.9915 0.0764 -0.1051
vn -0.0000 0.3090 -0.9511
vn -0.0000 -0.0000 -1.0000
vn -0.0000 0.5878 -0.8090
vn -0.9915 0.1055 -0.0766
vn -0.0000 0.8090 -0.5878
vn -0.9915 -0.0766 -0.1055
vn -0.9915 -0.1055 -0.0766
vn -0.0000 -0.5878 -0.8090
vn -0.0000 -0.8090 -0.5878
vn -0.9915 -0.0403 -0.1240
vn -0.0000 -0.3090 -0.9511
vn -0.9915 -0.1240 -0.0403
vn -0.0000 -0.9511 -0.3090
vn -0.9915 -0.1303 -0.0000
vn -0.0000 -1.0000 -0.0000
vn -0.9915 -0.1055 0.0766
vn -0.9915 -0.0766 0.1055
vn -0.9915 -0.1240 0.0403
vn -0.0000 -0.8090 0.5878
vn -0.0000 -0.5878 0.8090
vn -0.0000 -0.9511 0.3090
vn -0.9915 -0.0403 0.1240
vn -0.0000 -0.3090 0.9511
vn -0.0000 -0.0000 1.0000
vn -0.9915 -0.0000 0.1303
vn 1.0000 -0.0000 -0.0000
vn -1.0000 0.0030 0.0027
vn -1.0000 0.0035 0.0014
vn -1.0000 0.0050 0.0026
vn -1.0000 0.0009 0.0010
vn -1.0000 0.0028 0.0045
vn -1.0000 0.0014 0.0037
vn -1.0000 0.0006 0.0038
vn -1.0000 -0.0006 -0.0012
vn -1.0000 -0.0003 -0.0010
vn -1.0000 0.0012 0.0036
vn -1.0000 0.0010 0.0031
vn -1.0000 -0.0016 0.0036
vn -1.0000 -0.0002 0.0037
vn -1.0000 -0.0009 0.0055
vn -1.0000 -0.0007 0.0011
vn -1.0000 -0.0035 0.0041
vn -1.0000 -0.0031 0.0025
vn -1.0000 0.0010 -0.0009
vn -1.0000 0.0009 -0.0006
vn -1.0000 0.0009 -0.0009
vn -1.0000 -0.0031 0.0023
vn -1.0000 -0.0027 0.0020
vn -1.0000 -0.0035 0.0018
vn -1.0000 -0.0040 -0.0004
vn -1.0000 -0.0037 0.0010
vn -1.0000 -0.0056 0.0008
vn -1.0000 -0.0013 -0.0003
vn -1.0000 -0.0049 -0.0020
vn -1.0000 -0.0033 -0.0022
vn -1.0000 0.0012 0.0007
vn -1.0000 0.0009 0.0006
vn -1.0000 0.0012 0.0006
vn -1.0000 -0.0031 -0.0022
vn -1.0000 -0.0027 -0.0019
vn -1.0000 -0.0027 -0.0028
vn -1.0000 -0.0008 -0.0039
vn -1.0000 -0.0021 -0.0031
vn -1.0000 -0.0025 -0.0051
vn -1.0000 -0.0001 -0.0013
vn -1.0000 0.0004 -0.0053
vn -1.0000 0.0010 -0.0038
vn -1.0000 0.0018 -0.0034
vn -1.0000 -0.0003 0.0013
vn -1.0000 -0.0003 0.0010
vn -1.0000 -0.0002 0.0013
vn -1.0000 0.0011 -0.0036
vn -1.0000 0.0010 -0.0032
vn -1.0000 0.0035 -0.0020
vn -1.0000 0.0023 -0.0029
vn -1.0000 0.0040 -0.0040
vn -1.0000 0.0012 -0.0005
vn -1.0000 0.0052 -0.0013
vn -1.0000 0.0040 -0.0002
vn -1.0000 -0.0013 0.0002
vn -1.0000 0.0038 -0.0000
vn -1.0000 0.0033 -0.0000
vn -1.0000 0.0038 0.0007
vn -1.0000 -0.0014 0.0002
vn -1.0000 -0.0011 -0.0000
vt 0.000000 0.000000
s 1
usemtl plastic.001
f 128/2/102 209/2/103 194/2/104 122/2/105
f 153/2/106 192/2/107 203/2/108 154/2/109
f 181/2/110 196/2/111 193/2/112 170/2/113
f 158/2/114 207/2/115 195/2/116 145/2/117
f 170/2/113 193/2/112 192/2/107 153/2/106
f 122/2/105 194/2/104 201/2/118 123/2/119
f 145/2/117 195/2/116 197/2/120 136/2/121
f 173/2/122 205/2/123 196/2/111 181/2/110
f 111/2/124 200/2/125 199/2/126 189/2/127
f 136/2/121 197/2/120 198/2/128 120/2/129
f 120/2/129 198/2/128 211/2/130 121/2/131
f 189/2/127 199/2/126 206/2/132 172/2/133
f 174/2/134 202/2/135 204/2/136 152/2/137
f 123/2/119 201/2/118 200/2/125 111/2/124
f 154/2/109 203/2/108 202/2/135 174/2/134
f 152/2/137 204/2/136 208/2/138 157/2/139
f 172/2/133 206/2/132 205/2/123 173/2/122
f 157/2/139 208/2/138 207/2/115 158/2/114
f 129/2/140 210/2/141 209/2/103 128/2/102
f 121/2/131 211/2/130 210/2/141 129/2/140
f 214/2/142 222/2/142 215/2/142
f 221/2/142 222/2/142 212/2/142
f 217/2/142 222/2/142 218/2/142
f 218/2/142 222/2/142 219/2/142
f 212/2/142 222/2/142 213/2/142
f 216/2/142 222/2/142 217/2/142
f 220/2/142 222/2/142 221/2/142
f 215/2/142 222/2/142 216/2/142
f 219/2/142 222/2/142 220/2/142
f 213/2/142 222/2/142 214/2/142
f 226/2/143 225/2/143 234/2/144 233/2/144
f 233/2/144 234/2/144 242/2/145 241/2/145
f 228/2/146 227/2/146 240/2/147 239/2/147
f 227/2/146 228/2/146 244/2/148 243/2/148
f 243/2/148 244/2/148 238/2/149 237/2/149
f 246/2/150 245/2/150 236/2/151 235/2/151
f 245/2/150 246/2/150 248/2/152 247/2/152
f 247/2/152 248/2/152 260/2/153 259/2/153
f 250/2/154 249/2/154 258/2/155 257/2/155
f 262/2/156 261/2/156 254/2/157 253/2/157
f 261/2/156 262/2/156 224/2/158 223/2/158
f 223/2/158 224/2/158 232/2/159 231/2/159
f 225/2/143 226/2/143 230/2/160 229/2/160
f 229/2/160 230/2/160 231/2/159 232/2/159
f 235/2/151 236/2/151 237/2/149 238/2/149
f 239/2/147 240/2/147 241/2/145 242/2/145
f 249/2/154 250/2/154 252/2/161 251/2/161
f 251/2/161 252/2/161 256/2/162 255/2/162
f 253/2/157 254/2/157 255/2/162 256/2/162
f 257/2/155 258/2/155 259/2/153 260/2/153
f 266/2/163 265/2/163 274/2/164 273/2/164
f 273/2/164 274/2/164 282/2/165 281/2/165
f 268/2/166 267/2/166 280/2/167 279/2/167
f 267/2/166 268/2/166 284/2/168 283/2/168
f 283/2/168 284/2/168 278/2/169 277/2/169
f 286/2/170 285/2/171 276/2/172 275/2/172
f 285/2/171 286/2/170 288/2/173 287/2/173
f 287/2/173 288/2/173 300/2/174 299/2/174
f 290/2/175 289/2/176 298/2/177 297/2/177
f 302/2/178 301/2/178 294/2/179 293/2/179
f 301/2/178 302/2/178 264/2/180 263/2/180
f 263/2/180 264/2/180 272/2/181 271/2/181
f 265/2/163 266/2/163 270/2/182 269/2/182
f 269/2/182 270/2/182 271/2/181 272/2/181
f 275/2/172 276/2/172 277/2/169 278/2/169
f 279/2/167 280/2/167 281/2/165 282/2/165
f 289/2/176 290/2/175 292/2/183 291/2/183
f 291/2/183 292/2/183 296/2/184 295/2/184
f 293/2/179 294/2/179 295/2/184 296/2/184
f 297/2/177 298/2/177 299/2/174 300/2/174
f 262/2/185 301/2/185 263/2/186 224/2/186
f 199/2/126 223/2/187 231/2/188 206/2/132
f 200/2/125 261/2/189 223/2/187 199/2/126
f 224/2/186 263/2/186 271/2/190 232/2/190
f 196/2/111 226/2/191 233/2/192 193/2/112
f 225/2/193 266/2/193 273/2/194 234/2/194
f 205/2/123 230/2/195 226/2/191 196/2/111
f 229/2/196 270/2/196 266/2/193 225/2/193
f 202/2/135 227/2/197 243/2/198 204/2/136
f 203/2/108 240/2/199 227/2/197 202/2/135
f 228/2/200 267/2/200 283/2/201 244/2/201
f 239/2/202 280/2/202 267/2/200 228/2/200
f 206/2/132 231/2/188 230/2/195 205/2/123
f 232/2/190 271/2/190 270/2/196 229/2/196
f 193/2/112 233/2/192 241/2/203 192/2/107
f 234/2/194 273/2/194 281/2/204 242/2/204
f 207/2/115 236/2/205 245/2/206 195/2/116
f 235/2/207 276/2/207 285/2/208 246/2/208
f 208/2/138 237/2/209 236/2/205 207/2/115
f 238/2/210 277/2/210 276/2/207 235/2/207
f 244/2/201 283/2/201 277/2/210 238/2/210
f 204/2/136 243/2/198 237/2/209 208/2/138
f 192/2/107 241/2/203 240/2/199 203/2/108
f 242/2/204 281/2/204 280/2/202 239/2/202
f 195/2/116 245/2/206 247/2/211 197/2/120
f 246/2/208 285/2/208 287/2/212 248/2/212
f 197/2/120 247/2/211 259/2/213 198/2/128
f 248/2/212 287/2/212 299/2/214 260/2/214
f 210/2/141 249/2/215 251/2/216 209/2/103
f 211/2/130 258/2/217 249/2/215 210/2/141
f 250/2/218 289/2/218 291/2/219 252/2/219
f 257/2/220 298/2/220 289/2/218 250/2/218
f 209/2/103 251/2/216 255/2/221 194/2/104
f 252/2/219 291/2/219 295/2/222 256/2/222
f 253/2/223 294/2/223 301/2/185 262/2/185
f 194/2/104 255/2/221 254/2/224 201/2/118
f 256/2/222 295/2/222 294/2/223 253/2/223
f 201/2/118 254/2/224 261/2/189 200/2/125
f 198/2/128 259/2/213 258/2/217 211/2/130
f 260/2/214 299/2/214 298/2/220 257/2/220
f 302/2/225 191/2/225 264/2/225
f 264/2/225 191/2/225 272/2/225
f 265/2/225 191/2/225 274/2/225
f 269/2/225 191/2/225 265/2/225
f 279/2/225 191/2/225 268/2/225
f 268/2/225 191/2/225 284/2/225
f 272/2/225 191/2/225 269/2/225
f 274/2/225 191/2/225 282/2/225
f 275/2/225 191/2/225 286/2/225
f 278/2/225 191/2/225 275/2/225
f 284/2/225 191/2/225 278/2/225
f 282/2/225 191/2/225 279/2/225
f 286/2/225 191/2/225 288/2/225
f 288/2/225 191/2/225 300/2/225
f 297/2/225 191/2/225 290/2/225
f 290/2/225 191/2/225 292/2/225
f 292/2/225 191/2/225 296/2/225
f 293/2/225 191/2/225 302/2/225
f 296/2/225 191/2/225 293/2/225
f 300/2/225 191/2/225 297/2/225
usemtl empty.001
f 106/2/226 107/2/227 110/2/228 118/2/229 117/2/230 115/2/231 112/2/226
f 114/2/232 116/2/233 119/2/234 126/2/233 125/2/235 113/2/236
f 130/2/237 190/2/237 124/2/238 127/2/239 135/2/240 134/2/241 132/2/242
f 133/2/243 139/2/244 143/2/245 142/2/246 138/2/247 131/2/248
f 140/2/249 141/2/250 144/2/251 151/2/252 150/2/253 148/2/254 146/2/249
f 149/2/255 156/2/256 161/2/257 160/2/258 155/2/259 147/2/260
f 163/2/261 137/2/261 159/2/262 162/2/263 169/2/264 168/2/265 166/2/266
f 165/2/267 167/2/268 175/2/269 179/2/270 178/2/271 164/2/272
f 176/2/273 177/2/274 180/2/275 187/2/276 186/2/277 184/2/278 171/2/273
f 109/2/279 108/2/280 182/2/281 183/2/282 185/2/283 188/2/284
