# Blender 5.2.2 LTS
# www.blender.org
mtllib peugeot306.mtl
o body_misc
g body_misc
v -0.559147 1.366864 0.190921
v -0.505849 1.358186 -1.452753
v 0.000000 1.394072 0.277080
v -0.293177 1.394072 0.256674
v -0.691217 0.986393 0.921005
v -0.674040 0.980535 1.012044
v 0.000000 1.004834 1.086613
v -0.392940 0.995426 1.066115
v -0.382535 0.705136 1.993672
v 0.000292 0.717302 2.027336
v -0.192271 0.717022 2.018670
v -0.311891 0.608332 2.050165
v 0.001652 0.604133 2.071456
v -0.412973 0.610741 2.040478
v -0.749619 0.832554 1.527306
v -0.674564 0.798034 1.738330
v -0.504270 0.717554 1.940078
v -0.789446 0.955462 0.647540
v -0.781089 0.724114 1.645610
v -0.875861 0.625555 1.469668
v -0.823901 0.204508 1.622191
v -0.849881 0.420893 1.612713
v -0.866634 0.531445 1.562103
v 0.000000 0.231661 2.098874
v -0.730254 0.211066 1.829926
v -0.541819 0.216002 2.006642
v -0.347954 0.224353 2.070182
v -0.742002 0.663077 1.742979
v -0.568236 0.623262 1.940509
v -0.782111 1.015251 -0.142567
v -0.776651 1.016865 -0.401230
v -0.746271 1.048946 -1.090376
v -0.697761 1.145008 -1.235153
v -0.623798 1.301813 -1.235506
v -0.611547 1.334327 -1.096147
v -0.605817 1.376310 -0.460290
v -0.616029 1.361752 -0.221818
v -0.642648 1.302001 0.158099
v -0.728784 1.071130 0.626488
v -0.703761 1.152712 0.505477
v -0.633969 1.194444 0.558556
v -0.783709 0.984573 -1.631716
v -0.580834 1.297765 -1.522345
v 0.000000 1.399782 -1.402776
v -0.256434 1.385171 -1.420427
v -0.887152 0.687702 1.280040
v -0.891569 0.662315 1.078904
v -0.893532 0.554460 0.953559
v -0.885679 0.376644 0.877768
v -0.869212 0.395856 -1.037551
v -0.884579 0.572572 -1.123105
v -0.893608 0.676404 -1.308463
v -0.893474 0.674861 -1.497713
v -0.884366 0.570126 -1.661682
v -0.870866 0.414868 -1.742702
v -0.857175 0.254343 -1.757827
v -0.636520 1.085344 -1.779239
v 0.000000 1.088305 -1.941505
v -0.394179 1.084832 -1.898215
v -0.548273 1.086117 -1.846241
v -0.648159 0.261195 -2.008836
v 0.000000 0.266792 -2.015246
v -0.362511 0.263231 -1.999219
v -0.827460 0.844570 -1.710468
v -0.541719 0.372437 -2.074442
v 0.000000 0.373950 -2.097886
v -0.730953 0.850496 -1.871356
v 0.000000 1.252466 -1.722268
v 0.000000 1.353670 -1.528794
v -0.540014 0.855226 -1.998880
v -0.418487 0.856214 -2.023158
v -0.458945 0.979627 -1.984766
v -0.651121 1.017838 -1.866762
v -0.747771 1.032447 -1.664472
v -0.807591 0.205650 1.658370
v -0.840868 0.172778 0.809382
v -0.730739 1.077594 -1.181677
v -0.769674 0.452357 1.772213
v -0.783649 0.429383 1.759478
v -0.747949 0.316729 1.816024
v -0.567206 0.302719 2.014301
v -0.656960 0.425821 1.929844
v -0.574838 0.332671 1.992087
v -0.313008 0.711167 2.006790
v -0.589417 0.767819 1.851735
v -0.837791 0.302343 1.621587
v -0.667698 0.642335 1.820045
v -0.768607 0.796228 1.558804
v -0.838873 0.255596 -1.796720
v -0.826990 0.201371 -0.370962
v -0.784688 0.977082 0.319542
v -0.790784 0.258244 -1.898395
v -0.271232 1.085204 -1.916610
v -0.278475 0.373178 -2.094366
v -0.432106 0.907163 -2.016263
v -0.412841 0.372990 -2.087415
v -0.778557 0.908168 -1.776162
v -0.767619 0.981134 -1.743209
v -0.131428 0.605894 2.063728
v -0.225627 0.607033 2.056563
v -0.199971 0.741383 2.008983
v 0.000000 0.741625 2.017854
v -0.331184 0.734554 1.995392
v -0.429881 0.726395 1.977835
v -0.326311 0.583986 2.058010
v -0.123898 0.581423 2.073662
v 0.001945 0.579795 2.080944
v -0.210214 0.582519 2.067242
v -0.775931 0.470531 1.767966
v -0.798035 0.431060 1.744283
v -0.755406 0.300017 1.809015
v -0.551737 0.284229 2.033210
v -0.654361 0.442112 1.936901
v -0.565946 0.342810 2.003994
v -0.257959 0.226243 2.077603
v -0.178652 0.227909 2.084142
v -0.099155 0.229578 2.090697
v -0.654655 0.987422 0.903042
v 0.000000 1.004834 0.973668
v -0.383528 0.995426 0.953171
v 0.000000 1.199453 0.625374
v -0.338353 1.194749 0.604922
v -0.681897 1.020263 0.862000
v -0.598005 1.194481 0.564197
v 0.000000 1.374110 0.312805
v -0.297698 1.374127 0.291522
v -0.536863 1.352012 0.236580
v -0.705832 1.174493 -0.180518
v -0.708818 1.159589 -0.424681
v -0.701911 1.142703 -1.096741
v -0.787887 0.994330 -0.373782
v -0.756088 1.027910 -1.095118
v -0.738842 1.059719 -1.196497
v -0.700547 1.138001 -1.258593
v -0.615551 1.318196 -1.258998
v -0.601552 1.355350 -1.099748
v -0.595609 1.398893 -0.440255
v -0.707769 1.162902 -0.401480
v -0.795717 0.954535 0.318114
v -0.796442 0.985733 -0.170410
v -0.601166 1.395001 -0.272096
v -0.631959 1.324901 0.166072
v -0.693921 1.171914 0.517753
v -0.736826 1.013068 0.753073
v -0.709664 1.167605 -0.215598
v -0.800143 0.925767 0.806524
v -0.562870 0.625555 1.469668
v -0.510910 0.204508 1.622191
v -0.536890 0.420893 1.612713
v -0.553644 0.531445 1.562103
v -0.574161 0.687702 1.280040
v -0.578578 0.662315 1.078904
v -0.580541 0.554460 0.953559
v -0.572688 0.376644 0.877768
v -0.528545 0.171376 0.866150
v -0.524800 0.302343 1.621587
v -0.528545 0.218126 -1.026285
v -0.528545 0.395856 -1.037551
v -0.528545 0.572572 -1.123105
v -0.528545 0.676404 -1.308463
v -0.528545 0.674861 -1.497713
v -0.528545 0.570126 -1.661682
v -0.528545 0.414868 -1.742702
v -0.528545 0.254343 -1.757827
v -0.607436 1.196945 -1.644898
v -0.331002 1.239223 -1.687244
v -0.317692 1.337468 -1.532055
v -0.522068 1.370040 -1.426312
v -0.609562 1.300916 -1.508040
v -0.260291 1.397631 -1.392024
v 0.000000 1.410544 -1.373366
v -0.637411 1.194622 -1.636475
v -0.670199 1.069479 -1.787685
v -0.274149 1.067074 -1.941848
v 0.000000 1.069561 -1.966538
v -0.560289 1.067907 -1.868904
v -0.400232 1.066858 -1.923101
v -0.274154 0.264099 -2.003125
v -0.695369 0.260893 -1.999093
v -0.557693 0.404885 -2.083302
v -0.278846 0.406085 -2.103420
v 0.000000 0.407285 -2.105283
v -0.413747 0.405485 -2.097842
v -0.648159 0.261195 -1.889975
v -0.362511 0.263231 -1.880358
v -0.541719 0.372437 -1.955582
v -0.412841 0.372990 -1.968554
v -0.408738 0.443679 1.975319
v -0.577360 0.449573 1.882545
v -0.207738 0.442245 2.000681
v -0.280734 0.442245 1.994913
v -0.503574 0.353406 1.950286
v -0.368423 0.294935 1.995587
v -0.126576 0.293589 2.010973
v 0.000000 0.293075 2.016839
v 0.000000 0.442245 2.007640
v -0.128596 0.442245 2.005687
v -0.271339 0.294394 2.001763
v -0.200081 0.293998 2.006297
v -0.735156 0.433795 1.719744
v -0.528920 0.326180 1.949669
v -0.720275 0.465805 1.735760
v -0.703267 0.306552 1.773013
v -0.522524 0.292542 1.971291
v -0.607561 0.439269 1.893391
v -0.068193 0.688659 2.009120
v -0.050036 0.615946 2.037864
v 0.000000 0.708537 2.004517
v 0.002761 0.595368 2.048636
v -0.310179 0.702017 1.984272
v -0.223170 0.598252 2.033855
v -0.379446 0.695730 1.971294
v -0.308802 0.598927 2.027786
v -0.700716 0.913877 -1.869617
v -0.529964 0.907946 -1.987994
v -0.936450 1.051400 0.542351
v -0.788418 1.051589 0.627659
v -0.954862 0.955400 0.521379
v -0.792944 0.958811 0.627659
v -0.914520 1.076816 0.641144
v -0.796062 1.050053 0.683334
v -0.935348 0.946647 0.616101
v -0.800532 0.958411 0.683334
v -0.802069 1.055359 0.596042
v -0.807865 0.955301 0.598029
v -0.798051 1.072198 0.705909
v -0.804719 0.935493 0.705909
v -0.660693 1.045359 0.645022
v -0.665218 0.952580 0.645022
v -0.668336 1.043823 0.700698
v -0.672807 0.952181 0.700698
v -0.950176 1.070135 0.536744
v -0.784208 1.074979 0.605084
v -0.977123 0.936267 0.510319
v -0.790977 0.936216 0.605084
v -0.190445 0.708405 1.995840
v -0.129946 0.597205 2.040900
v 0.000484 0.688707 2.012248
v 0.002277 0.615216 2.040899
v 0.000000 0.204508 1.622191
v 0.000000 0.218126 -1.026285
v 0.000000 0.254343 -1.757827
v -0.841536 0.171376 0.866150
v -0.819284 0.218126 -1.026285
v -0.819790 0.217063 -0.983247
v -0.829497 0.196669 -0.157714
v -0.821495 0.212916 -0.838323
v -0.840193 0.174196 0.751967
v -0.834845 0.185433 0.297127
v 0.000000 0.171376 0.866150
v 0.000000 0.263231 -1.880358
v 0.559147 1.366864 0.190921
v 0.505849 1.358186 -1.452753
v 0.293177 1.394072 0.256674
v 0.691217 0.986393 0.921005
v 0.674040 0.980535 1.012044
v 0.392940 0.995426 1.066115
v 0.382535 0.705136 1.993672
v -0.000292 0.717302 2.027336
v 0.192271 0.717022 2.018670
v 0.311891 0.608332 2.050165
v -0.001652 0.604133 2.071456
v 0.412973 0.610741 2.040478
v 0.749619 0.832554 1.527306
v 0.674564 0.798034 1.738330
v 0.504270 0.717554 1.940078
v 0.789446 0.955462 0.647540
v 0.781089 0.724114 1.645610
v 0.875861 0.625555 1.469668
v 0.823901 0.204508 1.622191
v 0.849881 0.420893 1.612713
v 0.866634 0.531445 1.562103
v 0.730254 0.211066 1.829926
v 0.541819 0.216002 2.006642
v 0.347954 0.224353 2.070182
v 0.742002 0.663077 1.742979
v 0.568236 0.623262 1.940509
v 0.782111 1.015251 -0.142567
v 0.776651 1.016865 -0.401230
v 0.746271 1.048946 -1.090376
v 0.697761 1.145008 -1.235153
v 0.623798 1.301813 -1.235506
v 0.611547 1.334327 -1.096147
v 0.605817 1.376310 -0.460290
v 0.616029 1.361752 -0.221818
v 0.642648 1.302001 0.158099
v 0.728784 1.071130 0.626488
v 0.703761 1.152712 0.505477
v 0.633969 1.194444 0.558556
v 0.783709 0.984573 -1.631716
v 0.580834 1.297765 -1.522345
v 0.256434 1.385171 -1.420427
v 0.887152 0.687702 1.280040
v 0.891569 0.662315 1.078904
v 0.893532 0.554460 0.953559
v 0.885679 0.376644 0.877768
v 0.869212 0.395856 -1.037551
v 0.884579 0.572572 -1.123105
v 0.893608 0.676404 -1.308463
v 0.893474 0.674861 -1.497713
v 0.884366 0.570126 -1.661682
v 0.870866 0.414868 -1.742702
v 0.857175 0.254343 -1.757827
v 0.636520 1.085344 -1.779239
v 0.394179 1.084832 -1.898215
v 0.548273 1.086117 -1.846241
v 0.648159 0.261195 -2.008836
v 0.362511 0.263231 -1.999219
v 0.827460 0.844570 -1.710468
v 0.541719 0.372437 -2.074442
v 0.730953 0.850496 -1.871356
v 0.540014 0.855226 -1.998880
v 0.418487 0.856214 -2.023158
v 0.458945 0.979627 -1.984766
v 0.651121 1.017838 -1.866762
v 0.747771 1.032447 -1.664472
v 0.807591 0.205650 1.658370
v 0.840868 0.172778 0.809382
v 0.730739 1.077594 -1.181677
v 0.769674 0.452357 1.772213
v 0.783649 0.429383 1.759478
v 0.747949 0.316729 1.816024
v 0.567206 0.302719 2.014301
v 0.656960 0.425821 1.929844
v 0.574838 0.332671 1.992087
v 0.313008 0.711167 2.006790
v 0.589417 0.767819 1.851735
v 0.837791 0.302343 1.621587
v 0.667698 0.642335 1.820045
v 0.768607 0.796228 1.558804
v 0.838873 0.255596 -1.796720
v 0.826990 0.201371 -0.370962
v 0.784688 0.977082 0.319542
v 0.790784 0.258244 -1.898395
v 0.271232 1.085204 -1.916610
v 0.278475 0.373178 -2.094366
v 0.432106 0.907163 -2.016263
v 0.412841 0.372990 -2.087415
v 0.778557 0.908168 -1.776162
v 0.767619 0.981134 -1.743209
v 0.131428 0.605894 2.063728
v 0.225627 0.607033 2.056563
v 0.199971 0.741383 2.008983
v 0.331184 0.734554 1.995392
v 0.429881 0.726395 1.977835
v 0.326311 0.583986 2.058010
v 0.123898 0.581423 2.073662
v -0.001945 0.579795 2.080944
v 0.210214 0.582519 2.067242
v 0.775931 0.470531 1.767966
v 0.798035 0.431060 1.744283
v 0.755406 0.300017 1.809015
v 0.551737 0.284229 2.033210
v 0.654361 0.442112 1.936901
v 0.565946 0.342810 2.003994
v 0.257959 0.226243 2.077603
v 0.178652 0.227909 2.084142
v 0.099155 0.229578 2.090697
v 0.654655 0.987422 0.903042
v 0.383528 0.995426 0.953171
v 0.338353 1.194749 0.604922
v 0.681897 1.020263 0.862000
v 0.598005 1.194481 0.564197
v 0.297698 1.374127 0.291522
v 0.536863 1.352012 0.236580
v 0.705832 1.174493 -0.180518
v 0.708818 1.159589 -0.424681
v 0.701911 1.142703 -1.096741
v 0.787887 0.994330 -0.373782
v 0.756088 1.027910 -1.095118
v 0.738842 1.059719 -1.196497
v 0.700547 1.138001 -1.258593
v 0.615551 1.318196 -1.258998
v 0.601552 1.355350 -1.099748
v 0.595609 1.398893 -0.440255
v 0.707769 1.162902 -0.401480
v 0.795717 0.954535 0.318114
v 0.796442 0.985733 -0.170410
v 0.601166 1.395001 -0.272096
v 0.631959 1.324901 0.166072
v 0.693921 1.171914 0.517753
v 0.736826 1.013068 0.753073
v 0.709664 1.167605 -0.215598
v 0.800143 0.925767 0.806524
v 0.562870 0.625555 1.469668
v 0.510910 0.204508 1.622191
v 0.536890 0.420893 1.612713
v 0.553644 0.531445 1.562103
v 0.574161 0.687702 1.280040
v 0.578578 0.662315 1.078904
v 0.580541 0.554460 0.953559
v 0.572688 0.376644 0.877768
v 0.528545 0.171376 0.866150
v 0.524800 0.302343 1.621587
v 0.528545 0.218126 -1.026285
v 0.528545 0.395856 -1.037551
v 0.528545 0.572572 -1.123105
v 0.528545 0.676404 -1.308463
v 0.528545 0.674861 -1.497713
v 0.528545 0.570126 -1.661682
v 0.528545 0.414868 -1.742702
v 0.528545 0.254343 -1.757827
v 0.607436 1.196945 -1.644898
v 0.331002 1.239223 -1.687244
v 0.317692 1.337468 -1.532055
v 0.522068 1.370040 -1.426312
v 0.609562 1.300916 -1.508040
v 0.260291 1.397631 -1.392024
v 0.637411 1.194622 -1.636475
v 0.670199 1.069479 -1.787685
v 0.274149 1.067074 -1.941848
v 0.560289 1.067907 -1.868904
v 0.400232 1.066858 -1.923101
v 0.274154 0.264099 -2.003125
v 0.695369 0.260893 -1.999093
v 0.557693 0.404885 -2.083302
v 0.278846 0.406085 -2.103420
v 0.413747 0.405485 -2.097842
v 0.648159 0.261195 -1.889975
v 0.362511 0.263231 -1.880358
v 0.541719 0.372437 -1.955582
v 0.412841 0.372990 -1.968554
v 0.408738 0.443679 1.975319
v 0.577360 0.449573 1.882545
v 0.207738 0.442245 2.000681
v 0.280734 0.442245 1.994913
v 0.503574 0.353406 1.950286
v 0.368423 0.294935 1.995587
v 0.126576 0.293589 2.010973
v 0.128596 0.442245 2.005687
v 0.271339 0.294394 2.001763
v 0.200081 0.293998 2.006297
v 0.735156 0.433795 1.719744
v 0.528920 0.326180 1.949669
v 0.720275 0.465805 1.735760
v 0.703267 0.306552 1.773013
v 0.522524 0.292542 1.971291
v 0.607561 0.439269 1.893391
v 0.068193 0.688659 2.009120
v 0.050036 0.615946 2.037864
v -0.002761 0.595368 2.048636
v 0.310179 0.702017 1.984272
v 0.223170 0.598252 2.033855
v 0.379446 0.695730 1.971294
v 0.308802 0.598927 2.027786
v 0.700716 0.913877 -1.869617
v 0.529964 0.907946 -1.987994
v 0.936450 1.051400 0.542351
v 0.788418 1.051589 0.627659
v 0.954862 0.955400 0.521379
v 0.792944 0.958811 0.627659
v 0.914520 1.076816 0.641144
v 0.796062 1.050053 0.683334
v 0.935348 0.946647 0.616101
v 0.800532 0.958411 0.683334
v 0.802069 1.055359 0.596042
v 0.807865 0.955301 0.598029
v 0.798051 1.072198 0.705909
v 0.804719 0.935493 0.705909
v 0.660693 1.045359 0.645022
v 0.665218 0.952580 0.645022
v 0.668336 1.043823 0.700698
v 0.672807 0.952181 0.700698
v 0.950176 1.070135 0.536744
v 0.784208 1.074979 0.605084
v 0.977123 0.936267 0.510319
v 0.790977 0.936216 0.605084
v 0.190445 0.708405 1.995840
v 0.129946 0.597205 2.040900
v -0.000484 0.688707 2.012248
v -0.002277 0.615216 2.040899
v 0.841536 0.171376 0.866150
v 0.819284 0.218126 -1.026285
v 0.819790 0.217063 -0.983247
v 0.829497 0.196669 -0.157714
v 0.821495 0.212916 -0.838323
v 0.840193 0.174196 0.751967
v 0.834845 0.185433 0.297127
v -0.502355 0.367289 -2.079694
v -0.543882 0.350088 -2.079694
v -0.561083 0.308561 -2.079694
v -0.543882 0.267034 -2.079694
v -0.502355 0.249833 -2.079694
v -0.460829 0.267034 -2.079694
v -0.443628 0.308561 -2.079694
v -0.460829 0.350088 -2.079694
v -0.502355 0.367289 -1.943863
v -0.543882 0.350088 -1.943863
v -0.561083 0.308561 -1.943863
v -0.543882 0.267034 -1.943863
v -0.502355 0.249833 -1.943863
v -0.460829 0.267034 -1.943863
v -0.443628 0.308561 -1.943863
v -0.460829 0.350088 -1.943863
v -0.502355 0.350513 -2.079694
v -0.532020 0.338226 -2.079694
v -0.544307 0.308561 -2.079694
v -0.532020 0.278897 -2.079694
v -0.502355 0.266609 -2.079694
v -0.472691 0.278897 -2.079694
v -0.460404 0.308561 -2.079694
v -0.472691 0.338226 -2.079694
v -0.502355 0.350513 -2.001984
v -0.532020 0.338226 -2.001984
v -0.544307 0.308561 -2.001984
v -0.532020 0.278897 -2.001984
v -0.502355 0.266609 -2.001984
v -0.472691 0.278897 -2.001984
v -0.460404 0.308561 -2.001984
v -0.472691 0.338226 -2.001984
v -0.502355 0.308561 -2.001984
v 0.502355 0.367289 -2.079694
v 0.543882 0.350088 -2.079694
v 0.561083 0.308561 -2.079694
v 0.543882 0.267034 -2.079694
v 0.502355 0.249833 -2.079694
v 0.460829 0.267034 -2.079694
v 0.443628 0.308561 -2.079694
v 0.460829 0.350088 -2.079694
v 0.502355 0.367289 -1.943863
v 0.543882 0.350088 -1.943863
v 0.561083 0.308561 -1.943863
v 0.543882 0.267034 -1.943863
v 0.502355 0.249833 -1.943863
v 0.460829 0.267034 -1.943863
v 0.443628 0.308561 -1.943863
v 0.460829 0.350088 -1.943863
v 0.502355 0.350513 -2.079694
v 0.532020 0.338226 -2.079694
v 0.544307 0.308561 -2.079694
v 0.532020 0.278897 -2.079694
v 0.502355 0.266609 -2.079694
v 0.472691 0.278897 -2.079694
v 0.460404 0.308561 -2.079694
v 0.472691 0.338226 -2.079694
v 0.502355 0.350513 -2.001984
v 0.532020 0.338226 -2.001984
v 0.544307 0.308561 -2.001984
v 0.532020 0.278897 -2.001984
v 0.502355 0.266609 -2.001984
v 0.472691 0.278897 -2.001984
v 0.460404 0.308561 -2.001984
v 0.472691 0.338226 -2.001984
v 0.502355 0.308561 -2.001984
v -0.833265 0.932270 -0.170350
v -0.841015 0.899494 -0.168684
v -0.841278 0.883605 0.034594
v -0.832401 0.918964 0.030337
v -0.852028 0.923786 0.030715
v -0.852893 0.937093 -0.169972
v -0.860905 0.888427 0.034972
v -0.860642 0.904316 -0.168307
v 0.833265 0.932270 -0.170350
v 0.841015 0.899494 -0.168684
v 0.841278 0.883605 0.034594
v 0.832401 0.918964 0.030337
v 0.852028 0.923786 0.030715
v 0.852893 0.937093 -0.169972
v 0.860905 0.888427 0.034972
v 0.860642 0.904316 -0.168307
v -0.559530 1.374529 0.198443
v -0.518335 1.439081 -1.043614
v -0.528327 1.445587 -0.262529
v -0.519593 1.452281 -0.499897
v -0.522068 1.383217 -1.428192
v -0.516650 1.374529 0.198444
v -0.475455 1.439082 -1.043611
v -0.485447 1.445592 -0.262578
v -0.476713 1.452281 -0.499906
v -0.479189 1.383217 -1.428192
v -0.536343 1.370040 -1.403838
v -0.014275 1.348869 -1.695262
v -0.285691 1.342691 -1.677726
v -0.623837 1.300916 -1.485566
v -0.014275 1.410544 -1.350892
v -0.524007 1.337674 -1.629625
v -0.274566 1.397631 -1.369549
v -0.595022 1.325144 -1.558791
v 0.507793 1.370040 -1.403838
v 0.257142 1.342691 -1.677726
v 0.595287 1.300916 -1.485566
v 0.495457 1.337674 -1.629625
v 0.246017 1.397631 -1.369549
v 0.566472 1.325144 -1.558791
v -0.533714 1.357749 -1.402095
v -0.014275 1.336376 -1.693037
v -0.285047 1.330200 -1.675586
v -0.618107 1.289647 -1.484471
v -0.014275 1.398051 -1.348667
v -0.521641 1.325336 -1.627834
v -0.273929 1.385140 -1.367406
v -0.589292 1.313875 -1.557696
v 0.505164 1.357749 -1.402095
v 0.256497 1.330200 -1.675586
v 0.589557 1.289647 -1.484471
v 0.493091 1.325336 -1.627834
v 0.245380 1.385140 -1.367406
v 0.560742 1.313875 -1.557696
v 0.559530 1.374529 0.198443
v 0.518335 1.439081 -1.043615
v 0.528327 1.445587 -0.262529
v 0.519593 1.452281 -0.499898
v 0.522068 1.383217 -1.428192
v 0.516650 1.374529 0.198444
v 0.475455 1.439082 -1.043611
v 0.485447 1.445592 -0.262579
v 0.476713 1.452281 -0.499906
v 0.479189 1.383217 -1.428192
vn -0.2566 0.1134 0.9598
vn -0.1604 0.0743 0.9842
vn -0.1690 0.0778 0.9825
vn -0.0670 0.0362 0.9971
vn -0.0673 0.0363 0.9971
vn -0.0466 0.0416 0.9980
vn -0.0470 0.0414 0.9980
vn -0.0000 0.0484 0.9988
vn -0.7718 -0.0590 0.6332
vn -0.7120 0.1499 0.6860
vn -0.7336 0.0882 0.6738
vn -0.7893 -0.1843 0.5858
vn -0.0745 0.3515 0.9332
vn -0.1157 0.3738 0.9203
vn -0.1005 0.3589 0.9280
vn -0.0611 0.3536 0.9334
vn -0.1264 0.3843 0.9145
vn -0.0472 0.3593 0.9320
vn -0.0442 0.3594 0.9321
vn -0.0441 0.3608 0.9316
vn -0.0427 0.3620 0.9312
vn -0.0474 0.3605 0.9316
vn -0.0492 0.3612 0.9312
vn 0.2566 0.1134 0.9598
vn 0.1690 0.0778 0.9825
vn 0.1604 0.0743 0.9842
vn 0.0673 0.0363 0.9971
vn 0.0670 0.0362 0.9971
vn 0.0470 0.0414 0.9980
vn 0.0466 0.0416 0.9980
vn 0.7718 -0.0590 0.6332
vn 0.7336 0.0882 0.6738
vn 0.7120 0.1499 0.6860
vn 0.7893 -0.1843 0.5858
vn 0.0745 0.3515 0.9332
vn 0.0611 0.3536 0.9334
vn 0.1005 0.3589 0.9280
vn 0.1157 0.3738 0.9203
vn 0.1264 0.3843 0.9145
vn 0.0472 0.3593 0.9320
vn 0.0442 0.3594 0.9321
vn 0.0427 0.3620 0.9312
vn 0.0441 0.3608 0.9316
vn 0.0474 0.3605 0.9316
vn 0.0492 0.3612 0.9312
vn -0.0000 -0.0000 -1.0000
vn -0.8597 0.5106 0.0145
vn -0.9027 0.4303 -0.0031
vn -0.9043 0.4265 -0.0200
vn -0.8425 0.5386 -0.0077
vn 0.1552 0.9853 -0.0719
vn -0.5377 -0.6099 -0.5821
vn -0.1820 -0.8812 -0.4363
vn -0.1827 -0.8808 -0.4368
vn -0.5404 -0.6078 -0.5818
vn -0.7192 0.0376 0.6938
vn -0.7604 -0.0759 0.6450
vn -0.7960 0.1119 0.5948
vn -0.8399 0.0185 0.5424
vn -0.7385 0.0767 0.6699
vn -0.8208 -0.0746 0.5663
vn -0.7424 0.1273 0.6577
vn -0.5007 -0.0600 0.8635
vn -0.7661 -0.1554 0.6237
vn -0.6887 0.0805 0.7205
vn -0.7406 -0.0084 0.6719
vn -0.5805 0.1077 0.8071
vn -0.0950 0.9891 0.1126
vn -0.0463 0.9949 0.0897
vn -0.0547 0.9663 0.2514
vn 0.0048 0.9569 0.2903
vn -0.0000 0.9962 0.0868
vn -0.0000 0.9694 0.2457
vn -0.0000 0.9484 0.3171
vn -0.0865 0.9499 0.3005
vn -0.0965 0.8806 0.4639
vn -0.0000 0.8715 0.4905
vn -0.3177 0.9194 0.2319
vn -0.3219 0.8571 0.4023
vn -0.0727 0.8809 0.4676
vn -0.1476 0.8944 0.4222
vn -0.1217 0.9702 0.2098
vn -0.2036 0.9000 0.3855
vn -0.7184 0.6952 0.0244
vn -0.7279 0.6856 -0.0138
vn -0.8402 0.5422 -0.0059
vn -0.8886 0.4576 -0.0322
vn -0.8599 0.5103 -0.0122
vn -0.7776 0.6248 -0.0702
vn -0.7665 0.6396 -0.0584
vn -0.9066 0.4213 0.0241
vn -0.9048 0.4254 0.0199
vn -0.8782 0.4774 0.0285
vn -0.9057 0.4237 0.0099
vn -0.9070 0.4209 0.0128
vn -0.7271 0.6780 0.1084
vn -0.9004 0.4313 0.0571
vn -0.8839 0.4575 0.0969
vn -0.7217 0.6602 0.2078
vn -0.7487 0.6319 0.2004
vn -0.9044 0.4264 0.0147
vn -0.8849 0.4630 0.0506
vn -0.8318 0.5504 0.0724
vn -0.0000 -0.9126 0.4089
vn -0.0000 -0.5922 0.8058
vn -0.0000 -0.5887 0.8083
vn -0.0000 -0.9152 0.4030
vn -0.0000 -0.5767 -0.8170
vn -0.0000 -0.8548 -0.5190
vn -0.0000 -0.8444 -0.5357
vn -0.0000 -0.5577 -0.8301
vn -0.0000 -0.2421 0.9702
vn -0.0000 -0.2147 0.9767
vn -0.0000 -0.9960 -0.0898
vn -0.0000 -0.9949 -0.1009
vn -0.0000 -0.0062 -1.0000
vn -0.0000 -0.0431 -0.9991
vn -0.0000 -0.0378 -0.9993
vn -0.0000 -0.0565 0.9984
vn -0.0000 -0.2623 -0.9650
vn -0.0000 -0.2360 -0.9717
vn -0.9812 -0.1892 0.0377
vn -0.9892 -0.1396 0.0448
vn -0.9893 -0.1392 0.0448
vn -0.9956 -0.0798 0.0491
vn -0.9961 -0.0794 0.0395
vn -0.9960 -0.0798 0.0398
vn -0.9969 -0.0705 0.0334
vn -0.0000 -0.2768 -0.9609
vn -0.0000 -0.6945 -0.7195
vn -0.0000 -0.6857 -0.7279
vn -0.0000 -0.2543 -0.9671
vn -0.0000 -0.2932 0.9561
vn -0.0000 -0.0938 0.9956
vn -0.0000 -0.2835 0.9590
vn -0.0000 -0.9600 0.2801
vn -0.0000 -0.6833 0.7301
vn -0.0000 -0.6755 0.7373
vn -0.0000 -0.9587 0.2843
vn -0.0000 -0.9695 -0.2451
vn -0.0000 -0.9686 -0.2486
vn -0.0000 -0.0633 -0.9980
vn -1.0000 -0.0000 -0.0000
vn -0.1075 0.8794 -0.4638
vn -0.1817 0.8199 -0.5429
vn -0.6310 0.7087 -0.3155
vn -0.3781 0.8860 -0.2683
vn -0.0000 0.9303 -0.3669
vn -0.0436 0.9186 -0.3928
vn -0.0482 0.9623 -0.2676
vn -0.0000 0.9676 -0.2524
vn -0.2192 0.7947 -0.5661
vn -0.2678 0.8110 -0.5202
vn -0.5946 0.6602 -0.4589
vn -0.5890 0.7071 -0.3913
vn -0.0888 0.8120 -0.5769
vn -0.0000 0.8093 -0.5874
vn -0.0000 0.7442 -0.6680
vn -0.0893 0.7430 -0.6633
vn -0.2345 0.8242 -0.5155
vn -0.1363 0.8172 -0.5600
vn -0.1681 0.7336 -0.6584
vn -0.3253 0.7252 -0.6068
vn 0.3248 -0.9458 -0.0000
vn 0.0043 -1.0000 -0.0000
vn 0.4509 -0.8925 -0.0000
vn -0.0268 -0.4573 -0.8889
vn -0.0263 -0.6329 -0.7738
vn -0.0344 -0.6388 -0.7686
vn -0.0601 -0.4001 -0.9145
vn -0.0000 -0.4434 -0.8963
vn -0.0000 -0.6269 -0.7791
vn -0.1436 -0.3301 -0.9330
vn -0.1925 -0.3532 -0.9155
vn -0.5374 -0.0780 -0.8397
vn -0.3240 -0.0556 -0.9444
vn -0.0219 -0.0922 -0.9955
vn -0.0000 -0.0790 -0.9969
vn -0.0694 -0.1082 -0.9917
vn 0.4687 -0.8833 -0.0020
vn 0.1605 -0.9866 -0.0276
vn -0.9090 -0.4168 -0.0000
vn -0.0031 -0.5707 -0.8212
vn 0.5584 -0.5952 0.5779
vn -0.6314 -0.5297 -0.5663
vn 0.0938 -0.9686 -0.2302
vn 0.6034 0.4662 0.6470
vn -0.5313 -0.0247 0.8468
vn 0.0441 0.9985 0.0336
vn 0.0086 0.9998 -0.0199
vn -0.9360 0.1038 0.3364
vn -0.0677 -0.9961 0.0557
vn 0.9897 -0.0483 0.1346
vn 0.9897 -0.0483 0.1345
vn -0.1344 0.0066 0.9909
vn -0.0469 -0.9988 -0.0136
vn 0.1344 -0.0066 -0.9909
vn 0.3750 0.0425 -0.9260
vn 0.4573 0.0288 -0.8888
vn 0.4205 -0.0297 -0.9068
vn 0.4170 0.1039 -0.9029
vn -0.0000 -0.9993 -0.0371
vn 0.0036 -0.9984 -0.0561
vn -0.0000 -0.9981 -0.0609
vn 0.0026 -0.9992 0.0388
vn -0.0000 -1.0000 0.0093
vn -0.0000 -1.0000 0.0095
vn -0.0000 -0.9990 0.0458
vn -0.0003 -0.9996 -0.0268
vn 0.0010 -0.9997 -0.0256
vn 0.0012 -0.9997 -0.0259
vn -0.0000 -0.9997 -0.0247
vn 0.0071 -0.9997 -0.0223
vn 0.0008 -0.9997 -0.0244
vn 0.0171 -0.9998 -0.0046
vn 0.0202 -0.9997 -0.0124
vn 0.0021 -0.9988 -0.0485
vn 0.0063 -0.9991 -0.0415
vn 0.0034 -0.9988 -0.0498
vn -0.0000 -0.9990 -0.0441
vn 0.0056 -0.9999 -0.0113
vn 0.0098 -1.0000 -0.0000
vn -0.0000 -0.9999 -0.0158
vn 0.0163 -0.9982 0.0569
vn -0.0000 -0.9995 0.0316
vn -0.0009 -0.9995 0.0306
vn 0.0049 -0.9993 0.0375
vn 0.0109 -0.9989 0.0466
vn -0.0000 -0.9984 0.0569
vn 0.8597 0.5106 0.0145
vn 0.8425 0.5386 -0.0077
vn 0.9043 0.4265 -0.0200
vn 0.9027 0.4303 -0.0031
vn -0.1552 0.9853 -0.0719
vn 0.5377 -0.6099 -0.5821
vn 0.5404 -0.6078 -0.5818
vn 0.1827 -0.8808 -0.4368
vn 0.1820 -0.8812 -0.4363
vn 0.7192 0.0376 0.6938
vn 0.8399 0.0185 0.5424
vn 0.7960 0.1119 0.5948
vn 0.7604 -0.0759 0.6450
vn 0.7385 0.0767 0.6699
vn 0.8208 -0.0746 0.5663
vn 0.7424 0.1273 0.6577
vn 0.5007 -0.0600 0.8635
vn 0.6887 0.0805 0.7205
vn 0.7661 -0.1554 0.6237
vn 0.5805 0.1077 0.8071
vn 0.7406 -0.0084 0.6719
vn 0.0950 0.9891 0.1126
vn -0.0048 0.9569 0.2903
vn 0.0547 0.9663 0.2514
vn 0.0463 0.9949 0.0897
vn 0.0965 0.8806 0.4639
vn 0.0865 0.9499 0.3005
vn 0.3177 0.9194 0.2319
vn 0.1476 0.8944 0.4222
vn 0.0727 0.8809 0.4676
vn 0.3219 0.8571 0.4023
vn 0.1217 0.9701 0.2098
vn 0.2036 0.8999 0.3856
vn 0.7279 0.6856 -0.0138
vn 0.7184 0.6952 0.0244
vn 0.8402 0.5422 -0.0059
vn 0.8599 0.5103 -0.0122
vn 0.8886 0.4576 -0.0322
vn 0.7776 0.6248 -0.0702
vn 0.7665 0.6396 -0.0584
vn 0.9066 0.4213 0.0241
vn 0.8782 0.4774 0.0285
vn 0.9048 0.4254 0.0199
vn 0.9057 0.4237 0.0099
vn 0.7271 0.6780 0.1084
vn 0.9070 0.4209 0.0128
vn 0.9004 0.4313 0.0571
vn 0.7487 0.6319 0.2004
vn 0.7217 0.6603 0.2078
vn 0.8839 0.4575 0.0969
vn 0.9044 0.4264 0.0147
vn 0.8318 0.5504 0.0724
vn 0.8849 0.4630 0.0506
vn 0.9812 -0.1892 0.0377
vn 0.9893 -0.1392 0.0448
vn 0.9892 -0.1396 0.0448
vn 0.9956 -0.0798 0.0491
vn 0.9960 -0.0798 0.0398
vn 0.9961 -0.0794 0.0395
vn 0.9969 -0.0705 0.0334
vn 1.0000 -0.0000 -0.0000
vn 0.1075 0.8794 -0.4638
vn 0.3781 0.8860 -0.2683
vn 0.6310 0.7087 -0.3155
vn 0.1817 0.8199 -0.5429
vn 0.0482 0.9623 -0.2676
vn 0.0436 0.9186 -0.3928
vn 0.2192 0.7947 -0.5661
vn 0.5890 0.7071 -0.3913
vn 0.5946 0.6602 -0.4589
vn 0.2678 0.8110 -0.5202
vn 0.0888 0.8120 -0.5769
vn 0.0893 0.7430 -0.6633
vn 0.2345 0.8242 -0.5155
vn 0.3253 0.7252 -0.6068
vn 0.1681 0.7336 -0.6584
vn 0.1363 0.8172 -0.5600
vn -0.3248 -0.9458 -0.0000
vn -0.4509 -0.8925 -0.0000
vn -0.0043 -1.0000 -0.0000
vn 0.0268 -0.4573 -0.8889
vn 0.0601 -0.4001 -0.9145
vn 0.0344 -0.6388 -0.7686
vn 0.0263 -0.6329 -0.7738
vn 0.1436 -0.3301 -0.9330
vn 0.3240 -0.0556 -0.9444
vn 0.5374 -0.0780 -0.8397
vn 0.1925 -0.3532 -0.9155
vn 0.0219 -0.0922 -0.9955
vn 0.0694 -0.1082 -0.9917
vn -0.4687 -0.8833 -0.0020
vn -0.1605 -0.9866 -0.0276
vn 0.9090 -0.4168 -0.0000
vn 0.0031 -0.5707 -0.8212
vn -0.5584 -0.5952 0.5779
vn 0.6314 -0.5297 -0.5663
vn -0.0938 -0.9686 -0.2302
vn -0.6034 0.4662 0.6470
vn 0.5313 -0.0247 0.8468
vn -0.0441 0.9985 0.0336
vn -0.0086 0.9998 -0.0199
vn 0.9360 0.1038 0.3364
vn 0.0677 -0.9961 0.0557
vn -0.9897 -0.0483 0.1346
vn -0.9897 -0.0483 0.1345
vn 0.1344 0.0066 0.9909
vn 0.0469 -0.9988 -0.0136
vn -0.1344 -0.0066 -0.9909
vn -0.3750 0.0425 -0.9260
vn -0.4573 0.0288 -0.8888
vn -0.4205 -0.0297 -0.9068
vn -0.4170 0.1039 -0.9029
vn -0.0036 -0.9984 -0.0561
vn -0.0026 -0.9992 0.0388
vn 0.0003 -0.9996 -0.0268
vn -0.0012 -0.9997 -0.0259
vn -0.0010 -0.9997 -0.0256
vn -0.0071 -0.9997 -0.0223
vn -0.0008 -0.9997 -0.0244
vn -0.0171 -0.9998 -0.0046
vn -0.0202 -0.9997 -0.0124
vn -0.0021 -0.9988 -0.0485
vn -0.0063 -0.9991 -0.0415
vn -0.0034 -0.9988 -0.0498
vn -0.0056 -0.9999 -0.0113
vn -0.0098 -1.0000 -0.0000
vn -0.0163 -0.9982 0.0569
vn 0.0009 -0.9995 0.0306
vn -0.0049 -0.9993 0.0375
vn -0.0109 -0.9989 0.0466
vn -0.9710 0.2385 0.0187
vn -0.0299 -0.0437 -0.9986
vn 0.2393 0.9689 0.0632
vn 0.0457 0.1081 0.9931
vn -0.2393 -0.9680 -0.0760
vn 0.9710 0.2385 0.0187
vn 0.0299 -0.0437 -0.9986
vn -0.2393 0.9689 0.0632
vn -0.0457 0.1081 0.9931
vn 0.2393 -0.9680 -0.0760
vn -0.0000 0.9883 0.1523
vn -0.0000 0.9997 -0.0243
vn -0.0000 0.9996 0.0282
vn -0.0000 0.9896 -0.1438
vn -0.0000 0.9845 -0.1753
vn -0.0508 0.9844 -0.1686
vn -0.0502 0.9844 -0.1689
vn -0.1864 0.9723 -0.1411
vn -0.2072 0.9686 -0.1374
vn -0.4515 0.8881 -0.0863
vn 0.0502 0.9844 -0.1689
vn 0.0508 0.9844 -0.1686
vn 0.2072 0.9686 -0.1374
vn 0.1864 0.9723 -0.1411
vn 0.4515 0.8881 -0.0863
vn -0.0000 -0.9845 0.1753
vn 0.0500 -0.9844 0.1689
vn 0.0506 -0.9844 0.1687
vn 0.2066 -0.9686 0.1380
vn 0.1857 -0.9723 0.1417
vn 0.4564 -0.8855 0.0867
vn -0.0506 -0.9844 0.1687
vn -0.0500 -0.9844 0.1689
vn -0.1857 -0.9723 0.1417
vn -0.2066 -0.9686 0.1380
vn -0.4564 -0.8855 0.0867
vn -0.1259 -0.1751 -0.9765
vn -0.0000 -0.1736 -0.9848
vn -0.1253 -0.1751 -0.9765
vn -0.1912 -0.1761 -0.9656
vn -0.6282 -0.1305 0.7671
vn -0.0000 0.1703 0.9854
vn -0.1114 0.1524 0.9820
vn -0.1117 0.1523 0.9820
vn -0.7218 -0.3771 -0.5803
vn -0.6515 -0.3082 -0.6933
vn -0.7232 -0.3786 -0.5776
vn -0.1439 0.1348 0.9804
vn -0.7771 -0.4390 -0.4510
vn 0.1259 -0.1751 -0.9765
vn 0.1253 -0.1751 -0.9765
vn 0.1912 -0.1761 -0.9656
vn 0.6282 -0.1305 0.7671
vn 0.1114 0.1524 0.9820
vn 0.1117 0.1523 0.9820
vn 0.6515 -0.3082 -0.6933
vn 0.7218 -0.3771 -0.5803
vn 0.7232 -0.3786 -0.5776
vn 0.1439 0.1348 0.9804
vn 0.7771 -0.4390 -0.4510
vn -0.0706 0.3562 0.9317
vn -0.0421 0.3600 0.9320
vn -0.0833 0.3544 0.9314
vn -0.1376 0.3307 0.9336
vn -0.1696 0.3060 0.9368
vn -0.1023 0.3838 0.9177
vn -0.1666 0.3510 0.9214
vn -0.1667 0.3508 0.9215
vn -0.0492 0.3625 0.9307
vn -0.0590 0.3615 0.9305
vn -0.0557 0.3618 0.9306
vn -0.0667 0.3552 0.9324
vn -0.0661 0.3581 0.9313
vn -0.0017 -0.9327 0.3606
vn 0.0109 -0.9273 0.3742
vn 0.0108 -0.9271 0.3747
vn 0.0356 0.9341 -0.3552
vn 0.0333 0.9342 -0.3553
vn 0.0376 0.9312 -0.3626
vn 0.0377 0.9313 -0.3623
vn 0.0375 0.9283 -0.3698
vn 0.0100 -0.9237 0.3831
vn 0.8328 0.5419 -0.1128
vn -0.0151 -0.9346 0.3554
vn 0.0706 0.3562 0.9317
vn 0.0833 0.3544 0.9314
vn 0.0421 0.3600 0.9320
vn 0.1376 0.3307 0.9336
vn 0.1696 0.3060 0.9368
vn 0.1023 0.3838 0.9177
vn 0.1667 0.3508 0.9215
vn 0.1666 0.3510 0.9214
vn 0.0492 0.3625 0.9307
vn 0.0557 0.3618 0.9306
vn 0.0590 0.3615 0.9305
vn 0.0661 0.3581 0.9313
vn 0.0667 0.3552 0.9324
vn 0.0017 -0.9327 0.3606
vn -0.0108 -0.9271 0.3747
vn -0.0109 -0.9273 0.3742
vn -0.0356 0.9341 -0.3552
vn -0.0333 0.9342 -0.3553
vn -0.0376 0.9312 -0.3626
vn -0.0377 0.9313 -0.3623
vn -0.0375 0.9283 -0.3698
vn -0.0100 -0.9237 0.3831
vn -0.8328 0.5419 -0.1128
vn 0.0151 -0.9346 0.3554
vn -0.9239 -0.3827 -0.0000
vn -0.3827 0.9239 -0.0000
vn 0.3827 0.9239 -0.0000
vn 0.9239 -0.3827 -0.0000
vn -0.3827 -0.9239 -0.0000
vn -0.9239 0.3827 -0.0000
vn 0.9239 0.3827 -0.0000
vn 0.3827 -0.9239 -0.0000
vn -0.0000 0.8716 0.4902
vn -0.0768 0.8734 0.4809
vn -0.1329 0.8287 -0.5437
vn -0.0960 0.8749 -0.4747
vn -0.0000 0.8398 -0.5429
vn -0.0000 0.9044 -0.4267
vn 0.4196 0.0360 -0.9070
vn 0.0768 0.8734 0.4809
vn 0.1329 0.8287 -0.5437
vn 0.0960 0.8749 -0.4747
vn -0.4196 0.0360 -0.9070
vn -0.5174 0.3546 0.7788
vn -0.6755 0.3078 0.6700
vn -0.5867 0.3365 0.7366
vn -0.7633 0.3716 0.5286
vn -0.7424 0.3295 0.5833
vn -0.6146 0.5699 0.5454
vn -0.7380 0.4520 0.5011
vn -0.3470 0.7355 0.5819
vn 0.5174 0.3546 0.7788
vn 0.5867 0.3365 0.7366
vn 0.6755 0.3078 0.6700
vn 0.7424 0.3295 0.5833
vn 0.7633 0.3716 0.5286
vn 0.7380 0.4520 0.5011
vn 0.6146 0.5699 0.5454
vn 0.3470 0.7355 0.5819
vn -0.7261 0.0978 -0.6806
vn -0.6486 0.3143 -0.6932
vn -0.4035 0.2785 -0.8716
vn -0.3956 0.0851 -0.9145
vn -0.2311 0.2276 -0.9459
vn -0.2120 0.0085 -0.9772
vn -0.8462 0.3017 -0.4393
vn -0.9232 0.2232 -0.3130
vn -0.5865 0.4928 -0.6428
vn -0.2785 0.4856 -0.8286
vn -0.8093 0.4826 -0.3348
vn -0.8741 0.4726 -0.1123
vn -0.7663 0.6142 -0.1885
vn 0.7261 0.0978 -0.6806
vn 0.3956 0.0851 -0.9145
vn 0.4035 0.2785 -0.8716
vn 0.6486 0.3143 -0.6932
vn 0.2120 0.0085 -0.9772
vn 0.2311 0.2276 -0.9459
vn 0.8462 0.3017 -0.4393
vn 0.9232 0.2231 -0.3130
vn 0.2785 0.4856 -0.8286
vn 0.5865 0.4928 -0.6428
vn 0.7663 0.6142 -0.1886
vn 0.8741 0.4726 -0.1123
vn 0.8093 0.4826 -0.3348
vn 0.9709 -0.2386 -0.0187
vn -0.9709 -0.2386 -0.0187
vt 0.000000 0.000000
s 1
usemtl empty
f 188/1/1 189/1/1 192/1/1 193/1/1 198/1/2 191/1/3
f 191/1/3 198/1/2 199/1/4 190/1/5
f 190/1/5 199/1/4 194/1/6 197/1/7
f 197/1/7 194/1/6 195/1/8 196/1/8
f 200/1/9 203/1/10 204/1/10 201/1/11
f 202/1/12 200/1/9 201/1/11 205/1/12
f 236/1/13 210/1/14 211/1/15 237/1/16
f 213/1/17 211/1/15 210/1/14 212/1/17
f 207/1/18 206/1/19 236/1/13 237/1/16
f 206/1/19 238/1/20 208/1/21 236/1/13
f 239/1/22 207/1/18 237/1/16 209/1/23
f 423/1/24 426/1/25 431/1/26 428/1/24 427/1/24 424/1/24
f 426/1/25 425/1/27 432/1/28 431/1/26
f 425/1/27 430/1/29 429/1/30 432/1/28
f 430/1/29 196/1/8 195/1/8 429/1/30
f 433/1/31 434/1/32 437/1/33 436/1/33
f 435/1/34 438/1/34 434/1/32 433/1/31
f 468/1/35 469/1/36 443/1/37 442/1/38
f 445/1/39 444/1/39 442/1/38 443/1/37
f 440/1/40 469/1/36 468/1/35 439/1/41
f 439/1/41 468/1/35 208/1/42 470/1/43
f 471/1/44 441/1/45 469/1/36 440/1/40
f 510/1/46 509/1/46 511/1/46
f 508/1/46 507/1/46 511/1/46
f 506/1/46 505/1/46 511/1/46
f 504/1/46 503/1/46 511/1/46
f 503/1/46 510/1/46 511/1/46
f 509/1/46 508/1/46 511/1/46
f 507/1/46 506/1/46 511/1/46
f 505/1/46 504/1/46 511/1/46
f 543/1/46 544/1/46 542/1/46
f 541/1/46 544/1/46 540/1/46
f 539/1/46 544/1/46 538/1/46
f 537/1/46 544/1/46 536/1/46
f 536/1/46 544/1/46 543/1/46
f 542/1/46 544/1/46 541/1/46
f 540/1/46 544/1/46 539/1/46
f 538/1/46 544/1/46 537/1/46
usemtl plastic
f 140/1/47 145/1/48 138/1/49 131/1/50
f 80/1/51 81/1/51 204/1/51 203/1/51
f 83/1/52 82/1/53 205/1/54 201/1/55
f 79/1/56 78/1/57 109/1/58 110/1/59
f 80/1/60 79/1/56 110/1/59 111/1/61
f 81/1/62 80/1/60 111/1/61 112/1/63
f 78/1/57 82/1/64 113/1/65 109/1/58
f 82/1/64 83/1/66 114/1/67 113/1/65
f 83/1/66 81/1/62 112/1/63 114/1/67
f 6/1/68 8/1/69 120/1/70 118/1/71
f 8/1/69 7/1/72 119/1/73 120/1/70
f 3/1/74 4/1/75 126/1/76 125/1/77
f 1/1/78 41/1/79 124/1/80 127/1/81
f 5/1/82 6/1/68 118/1/71 123/1/83
f 4/1/75 1/1/78 127/1/81 126/1/76
f 41/1/79 123/1/83 118/1/71 124/1/80
f 138/1/49 145/1/48 141/1/84 137/1/85
f 31/1/49 32/1/49 132/1/86 131/1/50
f 77/1/49 33/1/49 134/1/87 133/1/88
f 33/1/49 34/1/49 135/1/89 134/1/87
f 34/1/49 35/1/49 136/1/90 135/1/89
f 35/1/49 36/1/49 137/1/85 136/1/90
f 32/1/49 77/1/49 133/1/88 132/1/86
f 36/1/49 129/1/49 138/1/49 137/1/85
f 129/1/49 31/1/49 131/1/50 138/1/49
f 91/1/91 30/1/92 140/1/47 139/1/93
f 37/1/94 38/1/95 142/1/96 141/1/84
f 40/1/97 39/1/98 144/1/99 143/1/100
f 38/1/95 40/1/97 143/1/100 142/1/96
f 128/1/101 37/1/94 141/1/84 145/1/48
f 39/1/98 18/1/102 146/1/103 144/1/99
f 18/1/102 91/1/91 139/1/93 146/1/103
f 30/1/92 128/1/101 145/1/48 140/1/47
f 47/1/104 48/1/105 153/1/106 152/1/107
f 23/1/108 20/1/109 147/1/110 150/1/111
f 48/1/105 49/1/112 154/1/113 153/1/106
f 20/1/109 46/1/114 151/1/115 147/1/110
f 21/1/116 86/1/117 156/1/118 148/1/116
f 49/1/112 243/1/119 155/1/119 154/1/113
f 86/1/117 22/1/120 149/1/121 156/1/118
f 46/1/114 47/1/104 152/1/107 151/1/115
f 22/1/120 23/1/108 150/1/111 149/1/121
f 148/1/122 156/1/123 154/1/124 155/1/122
f 154/1/124 156/1/123 149/1/125 153/1/125
f 149/1/125 150/1/126 152/1/127 153/1/125
f 150/1/126 147/1/128 151/1/128 152/1/127
f 50/1/129 51/1/130 159/1/131 158/1/132
f 55/1/133 56/1/134 164/1/134 163/1/135
f 53/1/136 54/1/137 162/1/138 161/1/139
f 51/1/130 52/1/140 160/1/141 159/1/131
f 244/1/142 50/1/129 158/1/132 157/1/142
f 54/1/137 55/1/133 163/1/135 162/1/138
f 52/1/140 53/1/136 161/1/139 160/1/141
f 157/1/143 158/1/143 163/1/143 164/1/143
f 158/1/143 159/1/143 162/1/143 163/1/143
f 159/1/143 160/1/143 161/1/143 162/1/143
f 2/1/144 43/1/145 169/1/146 168/1/147
f 44/1/148 45/1/149 170/1/150 171/1/151
f 45/1/149 2/1/144 168/1/147 170/1/150
f 165/1/152 57/1/153 173/1/154 172/1/155
f 93/1/156 58/1/157 175/1/158 174/1/159
f 60/1/160 59/1/161 177/1/162 176/1/163
f 57/1/153 60/1/160 176/1/163 173/1/154
f 59/1/161 93/1/156 174/1/159 177/1/162
f 43/1/145 165/1/152 172/1/155 169/1/146
f 65/1/164 96/1/165 187/1/165 186/1/166
f 94/1/167 178/1/168 63/1/169 96/1/170
f 178/1/168 94/1/167 66/1/171 62/1/172
f 65/1/173 61/1/174 179/1/175 180/1/176
f 66/1/171 94/1/167 181/1/177 182/1/178
f 94/1/167 96/1/170 183/1/179 181/1/177
f 96/1/170 65/1/173 180/1/176 183/1/179
f 61/1/180 65/1/164 186/1/166 184/1/181
f 96/1/182 63/1/182 185/1/182 187/1/182
f 187/1/183 185/1/183 184/1/183 186/1/183
f 78/1/184 79/1/184 200/1/184 202/1/184
f 81/1/185 83/1/52 201/1/55 204/1/185
f 82/1/53 78/1/186 202/1/186 205/1/54
f 79/1/187 80/1/187 203/1/187 200/1/187
f 220/1/188 222/1/188 227/1/188 226/1/188
f 217/1/189 221/1/189 230/1/189 228/1/189
f 232/1/190 220/1/190 226/1/190 233/1/190
f 234/1/191 222/1/191 220/1/191 232/1/191
f 235/1/192 227/1/192 222/1/192 234/1/192
f 217/1/193 219/1/193 235/1/193 233/1/193
f 223/1/193 221/1/193 226/1/193 227/1/193
f 219/1/193 223/1/193 227/1/193 235/1/193
f 221/1/193 217/1/193 233/1/193 226/1/193
f 228/1/194 230/1/194 231/1/194 229/1/194
f 221/1/195 223/1/195 231/1/195 230/1/195
f 223/1/196 219/1/196 229/1/196 231/1/196
f 219/1/197 217/1/197 228/1/197 229/1/197
f 224/1/198 216/1/198 232/1/198 233/1/198
f 218/1/199 225/1/199 235/1/199 234/1/199
f 225/1/200 224/1/200 233/1/200 235/1/200
f 216/1/201 218/1/201 234/1/201 232/1/201
f 157/1/202 164/1/203 242/1/204 241/1/202
f 148/1/205 155/1/206 250/1/207 240/1/208
f 245/1/209 157/1/210 247/1/211
f 157/1/210 245/1/209 244/1/212
f 90/1/213 157/1/210 246/1/214
f 246/1/214 157/1/210 249/1/212
f 249/1/212 157/1/210 248/1/212
f 248/1/212 157/1/210 76/1/212
f 247/1/211 157/1/210 90/1/213
f 157/1/210 155/1/212 243/1/212 76/1/212
f 157/1/202 241/1/202 250/1/207 155/1/206
f 179/1/215 61/1/180 184/1/181 92/1/216
f 56/1/217 89/1/218 184/1/181 164/1/203
f 89/1/218 92/1/216 184/1/181
f 184/1/181 185/1/219 164/1/203
f 242/1/204 164/1/203 185/1/219 251/1/220
f 178/1/221 185/1/219 63/1/222
f 62/1/223 251/1/220 185/1/219 178/1/221
f 117/1/224 116/1/224 240/1/208
f 148/1/205 75/1/225 21/1/225
f 148/1/205 25/1/226 75/1/225
f 148/1/205 26/1/227 25/1/226
f 240/1/208 27/1/228 26/1/227 148/1/205
f 240/1/208 115/1/224 27/1/228
f 240/1/208 116/1/224 115/1/224
f 240/1/208 24/1/229 117/1/224
f 378/1/230 369/1/231 376/1/232 383/1/233
f 322/1/234 436/1/234 437/1/234 323/1/234
f 325/1/235 434/1/236 438/1/237 324/1/238
f 321/1/239 351/1/240 350/1/241 320/1/242
f 322/1/243 352/1/244 351/1/240 321/1/239
f 323/1/245 353/1/246 352/1/244 322/1/243
f 320/1/242 350/1/241 354/1/247 324/1/248
f 324/1/248 354/1/247 355/1/249 325/1/250
f 325/1/250 355/1/249 353/1/246 323/1/245
f 256/1/251 359/1/252 360/1/253 257/1/254
f 257/1/254 360/1/253 119/1/73 7/1/72
f 3/1/74 125/1/77 364/1/255 254/1/256
f 252/1/257 365/1/258 363/1/259 289/1/260
f 255/1/261 362/1/262 359/1/252 256/1/251
f 254/1/256 364/1/255 365/1/258 252/1/257
f 289/1/260 363/1/259 359/1/252 362/1/262
f 376/1/232 375/1/263 379/1/264 383/1/233
f 279/1/232 369/1/231 370/1/265 280/1/232
f 319/1/232 371/1/266 372/1/267 281/1/232
f 281/1/232 372/1/267 373/1/268 282/1/232
f 282/1/232 373/1/268 374/1/269 283/1/232
f 283/1/232 374/1/269 375/1/263 284/1/232
f 280/1/232 370/1/265 371/1/266 319/1/232
f 284/1/232 375/1/263 376/1/232 367/1/232
f 367/1/232 376/1/232 369/1/231 279/1/232
f 333/1/270 377/1/271 378/1/230 278/1/272
f 285/1/273 379/1/264 380/1/274 286/1/275
f 288/1/276 381/1/277 382/1/278 287/1/279
f 286/1/275 380/1/274 381/1/277 288/1/276
f 366/1/280 383/1/233 379/1/264 285/1/273
f 287/1/279 382/1/278 384/1/281 267/1/282
f 267/1/282 384/1/281 377/1/271 333/1/270
f 278/1/272 378/1/230 383/1/233 366/1/280
f 294/1/104 390/1/107 391/1/106 295/1/105
f 272/1/108 388/1/111 385/1/110 269/1/109
f 295/1/105 391/1/106 392/1/113 296/1/112
f 269/1/109 385/1/110 389/1/115 293/1/114
f 270/1/116 386/1/116 394/1/118 328/1/117
f 296/1/112 392/1/113 393/1/119 472/1/119
f 328/1/117 394/1/118 387/1/121 271/1/120
f 293/1/114 389/1/115 390/1/107 294/1/104
f 271/1/120 387/1/121 388/1/111 272/1/108
f 386/1/283 393/1/283 392/1/284 394/1/285
f 392/1/284 391/1/286 387/1/286 394/1/285
f 387/1/286 391/1/286 390/1/287 388/1/288
f 388/1/288 390/1/287 389/1/289 385/1/289
f 297/1/129 396/1/132 397/1/131 298/1/130
f 302/1/133 401/1/135 402/1/134 303/1/134
f 300/1/136 399/1/139 400/1/138 301/1/137
f 298/1/130 397/1/131 398/1/141 299/1/140
f 473/1/142 395/1/142 396/1/132 297/1/129
f 301/1/137 400/1/138 401/1/135 302/1/133
f 299/1/140 398/1/141 399/1/139 300/1/136
f 395/1/290 402/1/290 401/1/290 396/1/290
f 396/1/290 401/1/290 400/1/290 397/1/290
f 397/1/290 400/1/290 399/1/290 398/1/290
f 253/1/291 406/1/292 407/1/293 291/1/294
f 44/1/148 171/1/151 408/1/295 292/1/296
f 292/1/296 408/1/295 406/1/292 253/1/291
f 403/1/297 409/1/298 410/1/299 304/1/300
f 335/1/301 411/1/302 175/1/158 58/1/157
f 306/1/303 412/1/304 413/1/305 305/1/306
f 304/1/300 410/1/299 412/1/304 306/1/303
f 305/1/306 413/1/305 411/1/302 335/1/301
f 291/1/294 407/1/293 409/1/298 403/1/297
f 310/1/307 421/1/308 422/1/309 338/1/309
f 336/1/310 338/1/311 308/1/312 414/1/313
f 414/1/313 62/1/172 66/1/171 336/1/310
f 310/1/314 416/1/315 415/1/316 307/1/317
f 66/1/171 182/1/178 417/1/318 336/1/310
f 336/1/310 417/1/318 418/1/319 338/1/311
f 338/1/311 418/1/319 416/1/315 310/1/314
f 307/1/320 419/1/321 421/1/308 310/1/307
f 338/1/322 422/1/322 420/1/322 308/1/322
f 422/1/323 421/1/323 419/1/323 420/1/323
f 320/1/324 435/1/324 433/1/324 321/1/324
f 323/1/325 437/1/325 434/1/236 325/1/235
f 324/1/238 438/1/237 435/1/326 320/1/326
f 321/1/327 433/1/327 436/1/327 322/1/327
f 452/1/328 458/1/328 459/1/328 454/1/328
f 449/1/329 460/1/329 462/1/329 453/1/329
f 464/1/330 465/1/330 458/1/330 452/1/330
f 466/1/331 464/1/331 452/1/331 454/1/331
f 467/1/332 466/1/332 454/1/332 459/1/332
f 449/1/333 465/1/333 467/1/333 451/1/333
f 455/1/333 459/1/333 458/1/333 453/1/333
f 451/1/333 467/1/333 459/1/333 455/1/333
f 453/1/333 458/1/333 465/1/333 449/1/333
f 460/1/334 461/1/334 463/1/334 462/1/334
f 453/1/335 462/1/335 463/1/335 455/1/335
f 455/1/336 463/1/336 461/1/336 451/1/336
f 451/1/337 461/1/337 460/1/337 449/1/337
f 456/1/338 465/1/338 464/1/338 448/1/338
f 450/1/339 466/1/339 467/1/339 457/1/339
f 457/1/340 467/1/340 465/1/340 456/1/340
f 448/1/341 464/1/341 466/1/341 450/1/341
f 395/1/202 241/1/202 242/1/204 402/1/342
f 386/1/343 240/1/208 250/1/207 393/1/206
f 474/1/344 476/1/345 395/1/346
f 395/1/346 473/1/212 474/1/344
f 332/1/347 475/1/348 395/1/346
f 475/1/348 478/1/212 395/1/346
f 478/1/212 477/1/212 395/1/346
f 477/1/212 318/1/212 395/1/346
f 476/1/345 332/1/347 395/1/346
f 395/1/346 318/1/212 472/1/212 393/1/212
f 395/1/202 393/1/206 250/1/207 241/1/202
f 415/1/349 334/1/350 419/1/321 307/1/320
f 303/1/351 402/1/342 419/1/321 331/1/352
f 331/1/352 419/1/321 334/1/350
f 419/1/321 402/1/342 420/1/353
f 242/1/204 251/1/220 420/1/353 402/1/342
f 414/1/354 308/1/355 420/1/353
f 62/1/223 414/1/354 420/1/353 251/1/220
f 358/1/356 240/1/208 357/1/356
f 386/1/343 270/1/225 317/1/225
f 386/1/343 317/1/225 273/1/357
f 386/1/343 273/1/357 274/1/358
f 240/1/208 386/1/343 274/1/358 275/1/359
f 240/1/208 275/1/359 356/1/356
f 240/1/208 356/1/356 357/1/356
f 240/1/208 358/1/356 24/1/229
f 550/1/360 552/1/360 551/1/360 549/1/360
f 545/1/361 546/1/361 552/1/361 550/1/361
f 548/1/362 545/1/362 550/1/362 549/1/362
f 547/1/363 548/1/363 549/1/363 551/1/363
f 546/1/364 547/1/364 551/1/364 552/1/364
f 558/1/365 557/1/365 559/1/365 560/1/365
f 553/1/366 558/1/366 560/1/366 554/1/366
f 556/1/367 557/1/367 558/1/367 553/1/367
f 555/1/368 559/1/368 557/1/368 556/1/368
f 554/1/369 560/1/369 559/1/369 555/1/369
f 563/1/370 561/1/370 566/1/370 568/1/370
f 562/1/371 564/1/371 569/1/371 567/1/371
f 564/1/372 563/1/372 568/1/372 569/1/372
f 565/1/373 562/1/373 567/1/373 570/1/373
f 572/1/374 573/1/375 577/1/376 575/1/374
f 573/1/375 576/1/377 571/1/378 577/1/376
f 578/1/379 574/1/379 571/1/378 576/1/377
f 572/1/374 575/1/374 583/1/380 580/1/381
f 580/1/381 583/1/380 579/1/382 582/1/383
f 584/1/384 582/1/383 579/1/382 581/1/384
f 586/1/385 589/1/385 591/1/386 587/1/387
f 587/1/387 591/1/386 585/1/388 590/1/389
f 592/1/390 590/1/389 585/1/388 588/1/390
f 586/1/385 594/1/391 597/1/392 589/1/385
f 594/1/391 596/1/393 593/1/394 597/1/392
f 598/1/395 595/1/395 593/1/394 596/1/393
f 573/1/396 572/1/397 586/1/397 587/1/398
f 576/1/399 573/1/396 587/1/398 590/1/399
f 571/1/400 574/1/400 588/1/400 585/1/400
f 575/1/401 577/1/402 591/1/403 589/1/401
f 578/1/404 576/1/405 590/1/405 592/1/406
f 577/1/402 571/1/407 585/1/407 591/1/403
f 574/1/408 578/1/404 592/1/406 588/1/408
f 572/1/397 580/1/409 594/1/410 586/1/397
f 580/1/409 582/1/411 596/1/411 594/1/410
f 581/1/412 579/1/412 593/1/412 595/1/412
f 583/1/413 575/1/401 589/1/401 597/1/414
f 582/1/415 584/1/416 598/1/417 596/1/415
f 579/1/418 583/1/413 597/1/414 593/1/418
f 584/1/416 581/1/419 595/1/419 598/1/417
f 601/1/370 606/1/370 604/1/370 599/1/370
f 600/1/371 605/1/371 607/1/371 602/1/371
f 602/1/372 607/1/372 606/1/372 601/1/372
f 603/1/373 608/1/373 605/1/373 600/1/373
usemtl chrome
f 11/1/420 10/1/421 102/1/421 101/1/422
f 84/1/423 11/1/420 101/1/422 103/1/424
f 12/1/425 9/1/426 104/1/427 105/1/425
f 13/1/428 99/1/429 106/1/430 107/1/428
f 9/1/426 84/1/423 103/1/424 104/1/427
f 99/1/429 100/1/431 108/1/432 106/1/430
f 100/1/431 12/1/425 105/1/425 108/1/432
f 11/1/433 84/1/434 210/1/435 236/1/433
f 99/1/436 13/1/437 209/1/437 237/1/436
f 100/1/438 99/1/436 237/1/436 211/1/439
f 238/1/20 206/1/19 207/1/18 239/1/22
f 12/1/440 100/1/438 211/1/439 213/1/440
f 84/1/434 9/1/441 212/1/441 210/1/435
f 9/1/442 12/1/442 213/1/442 212/1/442
f 10/1/443 11/1/433 236/1/433 208/1/443
f 260/1/444 343/1/445 102/1/446 259/1/446
f 326/1/447 344/1/448 343/1/445 260/1/444
f 261/1/449 346/1/449 345/1/450 258/1/451
f 262/1/452 348/1/452 347/1/453 341/1/454
f 258/1/451 345/1/450 344/1/448 326/1/447
f 341/1/454 347/1/453 349/1/455 342/1/456
f 342/1/456 349/1/455 346/1/449 261/1/449
f 260/1/457 468/1/457 442/1/458 326/1/459
f 341/1/460 469/1/460 441/1/461 262/1/461
f 342/1/462 443/1/463 469/1/460 341/1/460
f 470/1/43 471/1/44 440/1/40 439/1/41
f 261/1/464 445/1/464 443/1/463 342/1/462
f 326/1/459 442/1/458 444/1/465 258/1/465
f 258/1/466 444/1/466 445/1/466 261/1/466
f 259/1/467 208/1/467 468/1/457 260/1/457
f 481/1/468 482/1/468 490/1/468 489/1/468
f 479/1/469 480/1/469 488/1/469 487/1/469
f 486/1/470 479/1/470 487/1/470 494/1/470
f 484/1/471 485/1/471 493/1/471 492/1/471
f 482/1/472 483/1/472 491/1/472 490/1/472
f 480/1/473 481/1/473 489/1/473 488/1/473
f 485/1/474 486/1/474 494/1/474 493/1/474
f 483/1/475 484/1/475 492/1/475 491/1/475
f 482/1/46 481/1/46 497/1/46 498/1/46
f 480/1/46 479/1/46 495/1/46 496/1/46
f 479/1/46 486/1/46 502/1/46 495/1/46
f 485/1/46 484/1/46 500/1/46 501/1/46
f 483/1/46 482/1/46 498/1/46 499/1/46
f 481/1/46 480/1/46 496/1/46 497/1/46
f 486/1/46 485/1/46 501/1/46 502/1/46
f 484/1/46 483/1/46 499/1/46 500/1/46
f 496/1/475 495/1/475 503/1/475 504/1/475
f 495/1/472 502/1/472 510/1/472 503/1/472
f 501/1/473 500/1/473 508/1/473 509/1/473
f 499/1/470 498/1/470 506/1/470 507/1/470
f 497/1/471 496/1/471 504/1/471 505/1/471
f 502/1/468 501/1/468 509/1/468 510/1/468
f 500/1/469 499/1/469 507/1/469 508/1/469
f 498/1/474 497/1/474 505/1/474 506/1/474
f 514/1/471 522/1/471 523/1/471 515/1/471
f 512/1/470 520/1/470 521/1/470 513/1/470
f 519/1/469 527/1/469 520/1/469 512/1/469
f 517/1/468 525/1/468 526/1/468 518/1/468
f 515/1/475 523/1/475 524/1/475 516/1/475
f 513/1/474 521/1/474 522/1/474 514/1/474
f 518/1/473 526/1/473 527/1/473 519/1/473
f 516/1/472 524/1/472 525/1/472 517/1/472
f 515/1/46 531/1/46 530/1/46 514/1/46
f 513/1/46 529/1/46 528/1/46 512/1/46
f 512/1/46 528/1/46 535/1/46 519/1/46
f 518/1/46 534/1/46 533/1/46 517/1/46
f 516/1/46 532/1/46 531/1/46 515/1/46
f 514/1/46 530/1/46 529/1/46 513/1/46
f 519/1/46 535/1/46 534/1/46 518/1/46
f 517/1/46 533/1/46 532/1/46 516/1/46
f 529/1/472 537/1/472 536/1/472 528/1/472
f 528/1/475 536/1/475 543/1/475 535/1/475
f 534/1/474 542/1/474 541/1/474 533/1/474
f 532/1/469 540/1/469 539/1/469 531/1/469
f 530/1/468 538/1/468 537/1/468 529/1/468
f 535/1/471 543/1/471 542/1/471 534/1/471
f 533/1/470 541/1/470 540/1/470 532/1/470
f 531/1/473 539/1/473 538/1/473 530/1/473
usemtl blackGlass
f 121/1/476 122/1/477 120/1/70 119/1/73
f 125/1/77 126/1/76 122/1/477 121/1/476
f 126/1/76 127/1/81 124/1/80 122/1/477
f 120/1/70 122/1/477 124/1/80 118/1/71
f 32/1/49 130/1/49 33/1/49 77/1/49
f 130/1/49 129/1/49 36/1/49 35/1/49
f 33/1/49 130/1/49 35/1/49 34/1/49
f 31/1/49 129/1/49 130/1/49 32/1/49
f 37/1/94 128/1/101 40/1/97 38/1/95
f 40/1/97 91/1/91 18/1/102 39/1/98
f 30/1/92 91/1/91 40/1/97 128/1/101
f 166/1/478 165/1/152 43/1/145 167/1/479
f 93/1/156 166/1/478 68/1/480 58/1/157
f 60/1/160 166/1/478 93/1/156 59/1/161
f 68/1/480 166/1/478 167/1/479 69/1/481
f 165/1/152 166/1/478 60/1/160 57/1/153
f 44/1/148 69/1/481 167/1/479 45/1/149
f 43/1/145 2/1/144 45/1/149 167/1/479
f 216/1/482 224/1/482 225/1/482 218/1/482
f 121/1/476 119/1/73 360/1/253 361/1/483
f 125/1/77 121/1/476 361/1/483 364/1/255
f 364/1/255 361/1/483 363/1/259 365/1/258
f 360/1/253 359/1/252 363/1/259 361/1/483
f 280/1/232 319/1/232 281/1/232 368/1/232
f 368/1/232 283/1/232 284/1/232 367/1/232
f 281/1/232 282/1/232 283/1/232 368/1/232
f 279/1/232 280/1/232 368/1/232 367/1/232
f 285/1/273 286/1/275 288/1/276 366/1/280
f 288/1/276 287/1/279 267/1/282 333/1/270
f 278/1/272 366/1/280 288/1/276 333/1/270
f 404/1/484 405/1/485 291/1/294 403/1/297
f 335/1/301 58/1/157 68/1/480 404/1/484
f 306/1/303 305/1/306 335/1/301 404/1/484
f 68/1/480 69/1/481 405/1/485 404/1/484
f 403/1/297 304/1/300 306/1/303 404/1/484
f 44/1/148 292/1/296 405/1/485 69/1/481
f 291/1/294 405/1/485 292/1/296 253/1/291
f 448/1/486 450/1/486 457/1/486 456/1/486
usemtl headlights
f 17/1/487 85/1/488 29/1/489 14/1/487
f 85/1/488 16/1/490 87/1/491 29/1/489
f 16/1/490 15/1/492 28/1/493 87/1/491
f 19/1/494 28/1/493 15/1/492 88/1/494
f 266/1/495 263/1/495 277/1/496 327/1/497
f 327/1/497 277/1/496 329/1/498 265/1/499
f 265/1/499 329/1/498 276/1/500 264/1/501
f 268/1/502 330/1/502 264/1/501 276/1/500
usemtl rearLights
f 67/1/503 214/1/504 215/1/505 70/1/506
f 70/1/506 215/1/505 95/1/507 71/1/508
f 97/1/509 214/1/504 67/1/503 64/1/510
f 215/1/505 214/1/504 73/1/511 72/1/512
f 95/1/507 215/1/505 72/1/512
f 73/1/511 98/1/513 42/1/514 74/1/515
f 98/1/513 73/1/511 214/1/504 97/1/509
f 311/1/516 312/1/517 447/1/518 446/1/519
f 312/1/517 313/1/520 337/1/521 447/1/518
f 339/1/522 309/1/523 311/1/516 446/1/519
f 447/1/518 314/1/524 315/1/525 446/1/519
f 337/1/521 314/1/524 447/1/518
f 315/1/525 316/1/526 290/1/527 340/1/528
f 340/1/528 339/1/522 446/1/519 315/1/525
f 545/1/529 548/1/529 547/1/529 546/1/529
f 553/1/530 554/1/530 555/1/530 556/1/530
o body
g body
v -0.559147 1.366864 0.190921
v -0.518335 1.425815 -1.042513
v -0.528327 1.432325 -0.263670
v 0.000000 1.394072 0.277080
v -0.293177 1.394072 0.256674
v -0.691217 0.986393 0.921005
v -0.674040 0.980535 1.012044
v 0.000000 1.004834 1.086613
v -0.392940 0.995426 1.066115
v -0.734492 0.970137 1.013916
v -0.669899 0.901471 1.482156
v -0.617813 0.859142 1.685731
v 0.000000 0.891875 1.695386
v 0.000000 0.941067 1.466660
v -0.412973 0.610741 2.040478
v -0.749619 0.832554 1.527306
v -0.674564 0.798034 1.738330
v -0.504270 0.717554 1.940078
v -0.794964 0.905053 1.032760
v -0.781089 0.724114 1.645610
v -0.875861 0.648168 1.504482
v -0.875861 0.625555 1.469668
v -0.823901 0.204508 1.622191
v -0.849881 0.420893 1.612713
v -0.866634 0.531445 1.562103
v 0.000000 0.231661 2.098874
v -0.730254 0.211066 1.829926
v -0.541819 0.216002 2.006642
v -0.347954 0.224353 2.070182
v 0.000000 0.451224 2.093622
v -0.611732 0.459479 1.952689
v -0.277552 0.451224 2.079283
v -0.376343 0.285264 2.080043
v -0.528605 0.351137 2.029007
v 0.000000 0.283169 2.103986
v -0.742002 0.663077 1.742979
v -0.568236 0.623262 1.940509
v -0.633969 1.194444 0.558556
v -0.833265 0.932270 -0.170350
v -0.831580 0.945548 -0.370886
v -0.828973 0.866226 0.825732
v -0.863958 0.686850 0.822482
v -0.783709 0.984573 -1.631716
v 0.000000 1.456312 -1.044025
v 0.000000 1.455551 -0.239502
v -0.266210 1.452044 -0.248175
v -0.887152 0.687702 1.280040
v -0.891569 0.662315 1.078904
v -0.893532 0.554460 0.953559
v -0.885679 0.376644 0.877768
v -0.870320 0.320686 0.772327
v -0.869212 0.395856 -1.037551
v -0.884579 0.572572 -1.123105
v -0.893608 0.676404 -1.308463
v -0.893474 0.674861 -1.497713
v -0.884366 0.570126 -1.661682
v -0.870866 0.414868 -1.742702
v -0.857175 0.254343 -1.757827
v -0.827460 0.844570 -1.710468
v 0.000000 0.637673 -2.087064
v 0.000000 0.697669 -2.021160
v 0.000000 0.740867 -2.050903
v 0.000000 0.916574 -2.061100
v -0.730953 0.850496 -1.871356
v -0.540014 0.855226 -1.998880
v -0.418487 0.856214 -2.023158
v -0.458945 0.979627 -1.984766
v -0.651121 1.017838 -1.866762
v -0.747771 1.032447 -1.664472
v -0.335497 0.913289 -2.041474
v -0.274149 0.741585 -2.045159
v -0.870320 0.345817 -0.152561
v -0.870320 0.373777 -0.834758
v -0.801258 0.972567 -1.243803
v -0.807591 0.205650 1.658370
v -0.851251 0.448935 1.643308
v -0.866960 0.553869 1.595656
v -0.890487 0.729316 1.283626
v -0.895137 0.698717 1.051299
v -0.897204 0.585174 0.912171
v -0.878813 0.355928 0.825188
v -0.840868 0.172778 0.809382
v -0.848555 0.497428 -0.998570
v -0.847176 0.702268 -1.665833
v -0.495992 0.703073 -2.002325
v -0.713585 0.701924 -1.881900
v -0.258278 1.447849 -1.037776
v -0.519593 1.438969 -0.499927
v 0.005697 1.464404 -0.483564
v -0.258102 1.459391 -0.487702
v -0.515285 0.877101 1.664033
v -0.576040 0.915603 1.466387
v -0.298456 0.887687 1.683578
v -0.347607 0.932816 1.465463
v -0.518821 0.798709 1.863958
v 0.000000 0.819096 1.904855
v -0.589417 0.767819 1.851735
v -0.413751 0.809842 1.873096
v -0.241542 0.817516 1.892859
v -0.829131 0.678785 1.566415
v -0.810010 0.598907 1.669616
v 0.000000 0.510504 2.094729
v -0.283908 0.514644 2.082736
v -0.590940 0.538793 1.946867
v -0.421762 0.452840 2.057209
v -0.417314 0.520695 2.059791
v -0.837791 0.302343 1.621587
v -0.828223 0.304838 1.655197
v -0.667698 0.642335 1.820045
v -0.719210 0.561410 1.806681
v -0.720844 0.945698 1.201653
v 0.000000 0.986173 1.191593
v -0.781207 0.875531 1.235279
v -0.647862 0.961205 1.155969
v -0.387544 0.977429 1.176331
v -0.811261 0.827949 1.266282
v -0.826985 0.847792 1.041414
v -0.768607 0.796228 1.558804
v -0.697872 0.925551 1.359809
v 0.000000 0.963515 1.335861
v -0.605827 0.938342 1.341821
v -0.370734 0.954975 1.326992
v -0.767478 0.851492 1.398790
v -0.792600 0.811347 1.422574
v -0.797554 0.915410 0.922958
v -0.828808 0.857009 0.930257
v -0.736947 0.979673 0.918316
v -0.887805 0.677402 0.942843
v -0.867632 0.409000 -0.998134
v -0.884990 0.608613 -1.094773
v -0.895188 0.725897 -1.304147
v -0.895037 0.724154 -1.517916
v -0.884749 0.605849 -1.703128
v -0.869499 0.430476 -1.794646
v -0.838873 0.255596 -1.796720
v -0.791851 0.979002 -1.451729
v -0.742294 1.044472 -1.447307
v -0.870320 0.354550 -0.365638
v -0.826990 0.201371 -0.370962
v -0.877454 0.573313 0.757910
v -0.808666 0.967497 -1.080035
v -0.855388 0.838709 -0.165595
v -0.857107 0.851197 -0.368310
v -0.861229 0.787392 0.350800
v -0.831119 0.899248 0.327691
v -0.870320 0.333251 0.309883
v -0.862739 0.613144 -0.219160
v -0.861984 0.623914 -0.426617
v -0.869283 0.579561 0.272545
v -0.843310 0.681577 -1.093615
v -0.837402 0.881224 -1.205994
v -0.847116 0.874684 -1.025581
v -0.837141 0.669018 -0.994908
v -0.492154 0.636439 -2.069797
v -0.790784 0.258244 -1.898395
v -0.754499 0.425751 -1.948084
v -0.728219 0.621144 -1.922821
v 0.000000 0.999556 -2.031272
v -0.298738 0.988554 -2.011745
v -0.254841 0.700371 -2.016306
v -0.246077 0.637056 -2.082994
v -0.316295 0.856169 -2.045159
v -0.432106 0.907163 -2.016263
v -0.367472 0.701722 -2.016078
v -0.364594 0.636748 -2.083158
v -0.861615 0.737610 -1.645642
v -0.717892 0.738771 -1.879285
v -0.517457 0.740723 -1.999364
v -0.380124 0.740265 -2.021691
v -0.778557 0.908168 -1.776162
v -0.767619 0.981134 -1.743209
v -0.827058 0.889984 -1.390212
v -0.815203 0.900023 -1.601351
v -0.846220 0.818087 -1.333024
v -0.837677 0.833829 -1.545768
v 0.000000 0.764746 -1.992882
v 0.000000 0.892695 -2.000308
v -0.289902 0.890303 -1.986016
v -0.245229 0.765269 -1.988699
v -0.275919 0.848708 -1.988699
v 0.000000 0.852585 -1.997980
v -0.106153 0.451224 2.091421
v -0.108621 0.512112 2.091696
v -0.195315 0.451224 2.085782
v -0.199813 0.513434 2.087354
v -0.199971 0.741383 2.008983
v 0.000000 0.741625 2.017854
v -0.331184 0.734554 1.995392
v -0.429881 0.726395 1.977835
v -0.326311 0.583986 2.058010
v -0.123898 0.581423 2.073662
v 0.001945 0.579795 2.080944
v -0.210214 0.582519 2.067242
v -0.775931 0.470531 1.767966
v -0.798035 0.431060 1.744283
v -0.755406 0.300017 1.809015
v -0.551737 0.284229 2.033210
v -0.654361 0.442112 1.936901
v -0.565946 0.342810 2.003994
v -0.266968 0.284655 2.087001
v -0.257959 0.226243 2.077603
v -0.186688 0.284208 2.092109
v -0.178652 0.227909 2.084142
v -0.103877 0.283747 2.097377
v -0.099155 0.229578 2.090697
v -0.681897 1.020263 0.862000
v -0.787887 0.994330 -0.373782
v -0.756088 1.027910 -1.095118
v -0.738842 1.059719 -1.196497
v -0.700547 1.138001 -1.258593
v -0.615551 1.318196 -1.258998
v -0.601552 1.355350 -1.099748
v -0.595609 1.398893 -0.440255
v -0.795717 0.954535 0.318114
v -0.796442 0.985733 -0.170410
v -0.601166 1.395001 -0.272096
v -0.631959 1.324901 0.166072
v -0.693921 1.171914 0.517753
v -0.736826 1.013068 0.753073
v -0.800143 0.925767 0.806524
v -0.689883 1.145732 -1.471288
v -0.522068 1.370040 -1.426312
v -0.609562 1.300916 -1.508040
v -0.260291 1.397631 -1.392024
v 0.000000 1.410544 -1.373366
v -0.637411 1.194622 -1.636475
v -0.670199 1.069479 -1.787685
v -0.274149 1.067074 -1.941848
v 0.000000 1.069561 -1.966538
v -0.560289 1.067907 -1.868904
v -0.400232 1.066858 -1.923101
v -0.695369 0.260893 -1.999093
v -0.557693 0.404885 -2.083302
v -0.278846 0.406085 -2.103420
v 0.000000 0.407285 -2.105283
v -0.413747 0.405485 -2.097842
v -0.408738 0.443679 1.975319
v -0.577360 0.449573 1.882545
v -0.207738 0.442245 2.000681
v -0.280734 0.442245 1.994913
v -0.503574 0.353406 1.950286
v -0.368423 0.294935 1.995587
v -0.126576 0.293589 2.010973
v 0.000000 0.293075 2.016839
v 0.000000 0.442245 2.007640
v -0.128596 0.442245 2.005687
v -0.271339 0.294394 2.001763
v -0.200081 0.293998 2.006297
v -0.841536 0.171376 0.866150
v -0.819284 0.218126 -1.026285
v -0.819790 0.217063 -0.983247
v -0.829497 0.196669 -0.157714
v -0.821495 0.212916 -0.838323
v -0.840193 0.174196 0.751967
v -0.834845 0.185433 0.297127
v -0.829466 0.195036 -0.160391
v -0.834801 0.183829 0.293293
v -0.840115 0.172662 0.745299
v 0.559147 1.366864 0.190921
v 0.518335 1.425815 -1.042513
v 0.528327 1.432325 -0.263670
v 0.293177 1.394072 0.256674
v 0.691217 0.986393 0.921005
v 0.674040 0.980535 1.012044
v 0.392940 0.995426 1.066115
v 0.734492 0.970137 1.013916
v 0.669899 0.901471 1.482156
v 0.617813 0.859142 1.685731
v 0.412973 0.610741 2.040478
v 0.749619 0.832554 1.527306
v 0.674564 0.798034 1.738330
v 0.504270 0.717554 1.940078
v 0.794964 0.905053 1.032760
v 0.781089 0.724114 1.645610
v 0.875861 0.648168 1.504482
v 0.875861 0.625555 1.469668
v 0.823901 0.204508 1.622191
v 0.849881 0.420893 1.612713
v 0.866634 0.531445 1.562103
v 0.730254 0.211066 1.829926
v 0.541819 0.216002 2.006642
v 0.347954 0.224353 2.070182
v 0.611732 0.459479 1.952689
v 0.277552 0.451224 2.079283
v 0.376343 0.285264 2.080043
v 0.528605 0.351137 2.029007
v 0.742002 0.663077 1.742979
v 0.568236 0.623262 1.940509
v 0.633969 1.194444 0.558556
v 0.833265 0.932270 -0.170350
v 0.831580 0.945548 -0.370886
v 0.828973 0.866226 0.825732
v 0.863958 0.686850 0.822482
v 0.783709 0.984573 -1.631716
v 0.266210 1.452044 -0.248175
v 0.887152 0.687702 1.280040
v 0.891569 0.662315 1.078904
v 0.893532 0.554460 0.953559
v 0.885679 0.376644 0.877768
v 0.870320 0.320686 0.772327
v 0.869212 0.395856 -1.037551
v 0.884579 0.572572 -1.123105
v 0.893608 0.676404 -1.308463
v 0.893474 0.674861 -1.497713
v 0.884366 0.570126 -1.661682
v 0.870866 0.414868 -1.742702
v 0.857175 0.254343 -1.757827
v 0.827460 0.844570 -1.710468
v 0.730953 0.850496 -1.871356
v 0.540014 0.855226 -1.998880
v 0.418487 0.856214 -2.023158
v 0.458945 0.979627 -1.984766
v 0.651121 1.017838 -1.866762
v 0.747771 1.032447 -1.664472
v 0.335497 0.913289 -2.041474
v 0.274149 0.741585 -2.045159
v 0.870320 0.345817 -0.152561
v 0.870320 0.373777 -0.834758
v 0.801258 0.972567 -1.243803
v 0.807591 0.205650 1.658370
v 0.851251 0.448935 1.643308
v 0.866960 0.553869 1.595656
v 0.890487 0.729316 1.283626
v 0.895137 0.698717 1.051299
v 0.897204 0.585174 0.912171
v 0.878813 0.355928 0.825188
v 0.840868 0.172778 0.809382
v 0.848555 0.497428 -0.998570
v 0.847176 0.702268 -1.665833
v 0.495992 0.703073 -2.002325
v 0.713585 0.701924 -1.881900
v 0.258278 1.447849 -1.037776
v 0.519593 1.438969 -0.499927
v -0.005697 1.464404 -0.483564
v 0.258102 1.459391 -0.487702
v 0.515285 0.877101 1.664033
v 0.576040 0.915603 1.466387
v 0.298456 0.887687 1.683578
v 0.347607 0.932816 1.465463
v 0.518821 0.798709 1.863958
v 0.589417 0.767819 1.851735
v 0.413751 0.809842 1.873096
v 0.241542 0.817516 1.892859
v 0.829131 0.678785 1.566415
v 0.810010 0.598907 1.669616
v 0.283908 0.514644 2.082736
v 0.590940 0.538793 1.946867
v 0.421762 0.452840 2.057209
v 0.417314 0.520695 2.059791
v 0.837791 0.302343 1.621587
v 0.828223 0.304838 1.655197
v 0.667698 0.642335 1.820045
v 0.719210 0.561410 1.806681
v 0.720844 0.945698 1.201653
v 0.781207 0.875531 1.235279
v 0.647862 0.961205 1.155969
v 0.387544 0.977429 1.176331
v 0.811261 0.827949 1.266282
v 0.826985 0.847792 1.041414
v 0.768607 0.796228 1.558804
v 0.697872 0.925551 1.359809
v 0.605827 0.938342 1.341821
v 0.370734 0.954975 1.326992
v 0.767478 0.851492 1.398790
v 0.792600 0.811347 1.422574
v 0.797554 0.915410 0.922958
v 0.828808 0.857009 0.930257
v 0.736947 0.979673 0.918316
v 0.887805 0.677402 0.942843
v 0.867632 0.409000 -0.998134
v 0.884990 0.608613 -1.094773
v 0.895188 0.725897 -1.304147
v 0.895037 0.724154 -1.517916
v 0.884749 0.605849 -1.703128
v 0.869499 0.430476 -1.794646
v 0.838873 0.255596 -1.796720
v 0.791851 0.979002 -1.451729
v 0.742294 1.044472 -1.447307
v 0.870320 0.354550 -0.365638
v 0.826990 0.201371 -0.370962
v 0.877454 0.573313 0.757910
v 0.808666 0.967497 -1.080035
v 0.855388 0.838709 -0.165595
v 0.857107 0.851197 -0.368310
v 0.861229 0.787392 0.350800
v 0.831119 0.899248 0.327691
v 0.870320 0.333251 0.309883
v 0.862739 0.613144 -0.219160
v 0.861984 0.623914 -0.426617
v 0.869283 0.579561 0.272545
v 0.843310 0.681577 -1.093615
v 0.837402 0.881224 -1.205994
v 0.847116 0.874684 -1.025581
v 0.837141 0.669018 -0.994908
v 0.492154 0.636439 -2.069797
v 0.790784 0.258244 -1.898395
v 0.754499 0.425751 -1.948084
v 0.728219 0.621144 -1.922821
v 0.298738 0.988554 -2.011745
v 0.254841 0.700371 -2.016306
v 0.246077 0.637056 -2.082994
v 0.316295 0.856169 -2.045159
v 0.432106 0.907163 -2.016263
v 0.367472 0.701722 -2.016078
v 0.364594 0.636748 -2.083158
v 0.861615 0.737610 -1.645642
v 0.717892 0.738771 -1.879285
v 0.517457 0.740723 -1.999364
v 0.380124 0.740265 -2.021691
v 0.778557 0.908168 -1.776162
v 0.767619 0.981134 -1.743209
v 0.827058 0.889984 -1.390212
v 0.815203 0.900023 -1.601351
v 0.846220 0.818087 -1.333024
v 0.837677 0.833829 -1.545768
v 0.289902 0.890303 -1.986016
v 0.245229 0.765269 -1.988699
v 0.275919 0.848708 -1.988699
v 0.106153 0.451224 2.091421
v 0.108621 0.512112 2.091696
v 0.195315 0.451224 2.085782
v 0.199813 0.513434 2.087354
v 0.199971 0.741383 2.008983
v 0.331184 0.734554 1.995392
v 0.429881 0.726395 1.977835
v 0.326311 0.583986 2.058010
v 0.123898 0.581423 2.073662
v -0.001945 0.579795 2.080944
v 0.210214 0.582519 2.067242
v 0.775931 0.470531 1.767966
v 0.798035 0.431060 1.744283
v 0.755406 0.300017 1.809015
v 0.551737 0.284229 2.033210
v 0.654361 0.442112 1.936901
v 0.565946 0.342810 2.003994
v 0.266968 0.284655 2.087001
v 0.257959 0.226243 2.077603
v 0.186688 0.284208 2.092109
v 0.178652 0.227909 2.084142
v 0.103877 0.283747 2.097377
v 0.099155 0.229578 2.090697
v 0.681897 1.020263 0.862000
v 0.787887 0.994330 -0.373782
v 0.756088 1.027910 -1.095118
v 0.738842 1.059719 -1.196497
v 0.700547 1.138001 -1.258593
v 0.615551 1.318196 -1.258998
v 0.601552 1.355350 -1.099748
v 0.595609 1.398893 -0.440255
v 0.795717 0.954535 0.318114
v 0.796442 0.985733 -0.170410
v 0.601166 1.395001 -0.272096
v 0.631959 1.324901 0.166072
v 0.693921 1.171914 0.517753
v 0.736826 1.013068 0.753073
v 0.800143 0.925767 0.806524
v 0.689883 1.145732 -1.471288
v 0.522068 1.370040 -1.426312
v 0.609562 1.300916 -1.508040
v 0.260291 1.397631 -1.392024
v 0.637411 1.194622 -1.636475
v 0.670199 1.069479 -1.787685
v 0.274149 1.067074 -1.941848
v 0.560289 1.067907 -1.868904
v 0.400232 1.066858 -1.923101
v 0.695369 0.260893 -1.999093
v 0.557693 0.404885 -2.083302
v 0.278846 0.406085 -2.103420
v 0.413747 0.405485 -2.097842
v 0.408738 0.443679 1.975319
v 0.577360 0.449573 1.882545
v 0.207738 0.442245 2.000681
v 0.280734 0.442245 1.994913
v 0.503574 0.353406 1.950286
v 0.368423 0.294935 1.995587
v 0.126576 0.293589 2.010973
v 0.128596 0.442245 2.005687
v 0.271339 0.294394 2.001763
v 0.200081 0.293998 2.006297
v 0.841536 0.171376 0.866150
v 0.819284 0.218126 -1.026285
v 0.819790 0.217063 -0.983247
v 0.829497 0.196669 -0.157714
v 0.821495 0.212916 -0.838323
v 0.840193 0.174196 0.751967
v 0.834845 0.185433 0.297127
v 0.829466 0.195036 -0.160391
v 0.834801 0.183829 0.293293
v 0.840115 0.172662 0.745299
vn -0.0865 0.9499 0.3004
vn -0.0531 0.9958 0.0744
vn -0.2868 0.9558 0.0647
vn -0.3178 0.9194 0.2319
vn -0.0000 0.9484 0.3171
vn -0.0000 0.9972 0.0750
vn -0.0482 0.9623 -0.2675
vn -0.0567 0.9952 -0.0793
vn -0.0000 0.9969 -0.0790
vn -0.0000 0.9676 -0.2523
vn -0.0499 0.9987 0.0051
vn -0.0213 0.9997 0.0079
vn -0.3782 0.8860 -0.2683
vn -0.3416 0.9368 -0.0752
vn -0.3145 0.9492 -0.0112
vn -0.7278 0.6857 -0.0138
vn -0.7184 0.6952 0.0244
vn -0.7270 0.6780 0.1084
vn -0.7487 0.6319 0.2004
vn -0.3220 0.8570 0.4022
vn -0.9784 -0.2046 -0.0313
vn -0.9944 -0.0994 -0.0367
vn -0.9865 -0.1600 -0.0336
vn -0.9988 -0.0491 0.0085
vn -0.9987 -0.0491 0.0093
vn -0.9969 -0.0658 0.0422
vn -0.9971 -0.0613 0.0462
vn -0.9965 -0.0763 0.0341
vn -0.9965 -0.0763 0.0340
vn -0.9972 -0.0656 0.0361
vn -0.9969 -0.0691 0.0365
vn -0.9946 -0.0898 0.0513
vn -0.9946 -0.0902 0.0515
vn -0.9832 -0.1174 0.1397
vn -0.9875 -0.1181 0.1041
vn -0.9542 -0.1363 0.2664
vn -0.9536 -0.1367 0.2683
vn -0.1233 0.8888 0.4414
vn -0.1530 0.7843 0.6013
vn -0.1175 0.8059 0.5802
vn -0.1133 0.8745 0.4716
vn -0.1017 0.8150 0.5705
vn -0.0933 0.8700 0.4842
vn -0.0269 0.9057 0.4231
vn -0.0299 0.8277 0.5603
vn -0.0000 0.8281 0.5606
vn -0.0000 0.8929 0.4503
vn -0.1087 0.9700 0.2176
vn -0.1119 0.9507 0.2894
vn -0.0929 0.9554 0.2802
vn -0.0887 0.9743 0.2069
vn -0.0749 0.9545 0.2886
vn -0.0679 0.9776 0.1994
vn -0.0243 0.9825 0.1846
vn -0.0237 0.9659 0.2578
vn -0.0000 0.9631 0.2693
vn -0.0000 0.9823 0.1873
vn -0.1079 0.9783 0.1771
vn -0.0872 0.9818 0.1689
vn -0.0663 0.9843 0.1634
vn -0.0265 0.9870 0.1584
vn -0.0000 0.9872 0.1592
vn -0.2888 0.4737 0.8320
vn -0.3673 0.5523 0.7484
vn -0.3141 0.3194 0.8941
vn -0.1404 0.2786 0.9501
vn -0.4060 0.6585 0.6337
vn -0.4052 0.7195 0.5641
vn -0.5717 0.7756 0.2676
vn -0.5577 0.7806 0.2821
vn -0.4550 0.7835 0.4232
vn -0.4860 0.7875 0.3789
vn -0.6525 0.7307 0.2011
vn -0.6316 0.7445 0.2164
vn -0.4617 0.1583 0.8728
vn -0.6887 0.0806 0.7206
vn -0.5805 0.1077 0.8071
vn -0.3704 0.1736 0.9125
vn -0.0606 0.1197 0.9910
vn -0.1041 0.1106 0.9884
vn -0.1112 -0.0466 0.9927
vn -0.0609 -0.0313 0.9977
vn -0.0000 -0.1141 0.9935
vn -0.0711 -0.1271 0.9893
vn -0.0711 -0.1260 0.9895
vn -0.8414 0.4207 0.3393
vn -0.8173 0.2624 0.5130
vn -0.7797 0.2487 0.5746
vn -0.8623 0.3518 0.3643
vn -0.8103 0.4948 0.3142
vn -0.8337 0.2684 0.4826
vn -0.0591 0.2726 0.9603
vn -0.7381 0.2601 0.6225
vn -0.7152 0.2640 0.6472
vn -0.6111 0.2449 0.7527
vn -0.6009 0.2175 0.7691
vn -0.3339 0.1239 0.9344
vn -0.3458 0.0321 0.9378
vn -0.5140 -0.2622 0.8167
vn -0.5007 -0.0601 0.8635
vn -0.8209 -0.0747 0.5662
vn -0.7925 -0.1775 0.5834
vn -0.9236 -0.1551 0.3506
vn -0.8962 -0.1253 0.4255
vn -0.8954 -0.1650 0.4135
vn -0.8399 0.0185 0.5424
vn -0.8777 0.0420 0.4775
vn -0.1456 -0.2416 0.9594
vn -0.2096 -0.2294 0.9505
vn -0.7960 0.1119 0.5948
vn -0.7157 0.6897 0.1099
vn -0.7139 0.6899 0.1200
vn -0.6946 0.7004 0.1642
vn -0.7004 0.6964 0.1568
vn -0.0463 0.9949 0.0897
vn -0.0291 0.9865 0.1612
vn -0.0000 0.9870 0.1605
vn -0.0000 0.9962 0.0868
vn -0.0950 0.9891 0.1126
vn -0.1014 0.9838 0.1478
vn -0.0720 0.9862 0.1491
vn -0.1487 0.9813 0.1219
vn -0.1217 0.9819 0.1448
vn -0.8183 0.5590 0.1336
vn -0.8240 0.5476 0.1455
vn -0.7948 0.5692 0.2105
vn -0.8564 0.5091 0.0861
vn -0.8792 0.4747 0.0411
vn -0.8204 0.5566 0.1311
vn -0.7863 0.5939 0.1703
vn -0.7794 0.5939 0.1996
vn -0.8408 0.4956 0.2176
vn -0.9185 0.3949 -0.0216
vn -0.9209 0.3898 -0.0037
vn -0.9706 0.2222 -0.0924
vn -0.8794 0.4728 0.0557
vn -0.8318 0.5504 0.0724
vn -0.9333 0.3589 0.0101
vn -0.8782 0.4774 0.0285
vn -0.9232 0.3833 0.0281
vn -0.8425 0.5387 -0.0077
vn -0.8811 0.4729 0.0035
vn -0.9054 0.4240 0.0219
vn -0.8597 0.5106 0.0145
vn -0.7360 0.6700 0.0974
vn -0.7336 0.6728 0.0955
vn -0.7217 0.6603 0.2078
vn -0.2852 0.9419 0.1773
vn -0.1217 0.9701 0.2098
vn -0.9804 0.1860 -0.0649
vn -0.9687 0.2476 0.0165
vn -0.9726 0.2312 0.0248
vn -0.7664 0.6397 -0.0584
vn -0.7776 0.6249 -0.0702
vn -0.8886 0.4576 -0.0322
vn -0.6311 0.7087 -0.3155
vn -0.9862 -0.0899 -0.1387
vn -0.9979 -0.0530 -0.0364
vn -0.9979 -0.0533 -0.0368
vn -0.9867 -0.0891 -0.1358
vn -0.9992 -0.0372 -0.0134
vn -0.9993 -0.0333 0.0158
vn -0.9994 -0.0330 0.0126
vn -0.9992 -0.0379 -0.0153
vn -0.9979 -0.0472 0.0455
vn -0.9858 -0.1587 0.0545
vn -0.9868 -0.1524 0.0548
vn -0.9981 -0.0448 0.0426
vn -0.9664 -0.2521 0.0495
vn -0.9661 -0.1158 -0.2307
vn -0.7695 -0.0319 -0.6379
vn -0.7018 0.0941 -0.7061
vn -0.3240 -0.0556 -0.9444
vn -0.5374 -0.0780 -0.8397
vn -0.8368 0.5455 -0.0460
vn -0.7663 0.6142 -0.1885
vn -0.8741 0.4726 -0.1123
vn -0.8787 0.4766 -0.0266
vn -0.8599 0.5103 -0.0123
vn -0.8750 0.4837 -0.0216
vn -0.8734 0.4789 -0.0883
vn -0.5946 0.6602 -0.4588
vn -0.5891 0.7071 -0.3912
vn -0.9630 -0.2654 -0.0476
vn -0.9614 -0.2733 -0.0312
vn -0.9615 -0.2728 -0.0322
vn -0.9617 -0.2738 -0.0145
vn -0.9638 -0.2663 -0.0141
vn -0.9660 -0.2581 -0.0132
vn -0.9664 -0.2566 -0.0131
vn -0.9730 -0.2304 -0.0117
vn -0.9723 -0.2334 -0.0118
vn -0.9765 -0.2152 -0.0113
vn -0.9779 -0.2087 -0.0151
vn -0.9784 -0.2059 -0.0167
vn -0.9796 -0.2001 -0.0201
vn -0.9846 0.1071 -0.1378
vn -0.9974 0.0395 -0.0608
vn -0.9981 -0.0215 -0.0579
vn -0.9913 -0.0333 -0.1276
vn -0.8653 0.5011 -0.0121
vn -0.8402 0.5422 -0.0059
vn -0.9995 0.0286 -0.0132
vn -0.9990 0.0446 -0.0085
vn -0.9998 0.0213 -0.0038
vn -0.9996 0.0277 -0.0023
vn -0.9595 0.2817 0.0025
vn -0.9769 0.2131 -0.0132
vn -0.9426 0.3334 -0.0194
vn -0.9690 -0.2468 -0.0121
vn -0.9996 0.0262 -0.0071
vn -0.9984 0.0555 -0.0060
vn -0.9995 0.0328 -0.0032
vn -1.0000 -0.0004 -0.0077
vn -0.9999 0.0104 -0.0104
vn -0.9994 0.0278 -0.0228
vn -0.9997 -0.0127 -0.0205
vn -0.9645 0.2096 0.1610
vn -0.9455 0.1888 0.2653
vn -0.9961 0.0875 -0.0132
vn -0.9362 0.3411 -0.0844
vn -0.9578 0.2863 -0.0255
vn -0.0104 0.4342 -0.9008
vn -0.0026 0.7266 -0.6871
vn -0.0000 0.7320 -0.6813
vn -0.0000 0.4365 -0.8997
vn -0.0694 -0.1081 -0.9917
vn -0.2718 0.4016 -0.8745
vn -0.0477 0.4224 -0.9051
vn -0.6427 0.3541 -0.6794
vn -0.8056 0.3340 -0.4893
vn -0.8211 0.0950 -0.5628
vn -0.8412 -0.0608 -0.5373
vn -0.2876 0.6329 -0.7189
vn -0.6268 0.4993 -0.5982
vn -0.8670 0.2121 -0.4509
vn -0.3253 0.7252 -0.6069
vn -0.5865 0.4929 -0.6427
vn -0.1681 0.7336 -0.6585
vn -0.2785 0.4857 -0.8286
vn -0.0893 0.7429 -0.6634
vn -0.1153 0.5261 -0.8426
vn -0.0000 0.7442 -0.6680
vn -0.0000 0.5307 -0.8476
vn -0.0000 -0.0789 -0.9969
vn -0.0219 -0.0921 -0.9955
vn -0.0359 0.7168 -0.6963
vn -0.0000 -0.5733 -0.8193
vn -0.0499 -0.5196 -0.8529
vn -0.0666 -0.4882 -0.8702
vn -0.1857 0.2512 -0.9499
vn -0.2202 -0.0390 -0.9747
vn -0.2120 0.0084 -0.9772
vn -0.2311 0.2276 -0.9459
vn -0.0000 0.3656 -0.9308
vn -0.8954 0.1910 -0.4022
vn -0.7080 -0.0814 -0.7015
vn -0.6791 -0.0856 -0.7291
vn -0.3792 -0.1044 -0.9194
vn -0.2621 -0.1004 -0.9598
vn -0.1210 -0.2354 -0.9643
vn -0.1139 -0.2987 -0.9475
vn -0.3956 0.0851 -0.9145
vn -0.1981 -0.0685 -0.9778
vn -0.3413 -0.0526 -0.9385
vn -0.7261 0.0977 -0.6806
vn -0.6987 -0.0542 -0.7133
vn -0.9232 0.2232 -0.3129
vn -0.9414 0.2348 -0.2420
vn -0.2122 -0.0803 -0.9739
vn -0.8929 0.3023 -0.3336
vn -0.8462 0.3017 -0.4392
vn -0.8094 0.4825 -0.3348
vn -0.7804 0.3557 0.5142
vn -0.9577 0.2345 0.1668
vn -0.9351 0.3495 -0.0584
vn -0.9543 0.2953 0.0455
vn -0.8491 0.4912 0.1941
vn -0.9063 0.4203 -0.0450
vn -0.0000 0.9239 -0.3826
vn -0.0051 0.9239 -0.3826
vn -0.0116 -0.9290 -0.3699
vn -0.0000 -0.9290 -0.3700
vn 0.7957 0.2927 -0.5303
vn 0.7947 0.2976 -0.5290
vn 0.7950 0.2961 -0.5294
vn 0.7941 0.3010 -0.5281
vn -0.0353 -0.0153 -0.9993
vn -0.0000 -0.0184 -0.9998
vn -0.0000 -0.0343 -0.9994
vn -0.0256 -0.0343 -0.9991
vn -0.0416 -0.0028 -0.9991
vn -0.0000 -0.0028 -1.0000
vn -0.0398 0.2199 0.9747
vn -0.0486 0.2406 0.9694
vn -0.0437 0.1108 0.9929
vn -0.0000 0.1045 0.9945
vn -0.0395 -0.0150 0.9991
vn -0.0000 -0.0120 0.9999
vn 0.1646 0.9781 0.1274
vn -0.0017 0.9935 0.1136
vn 0.1908 0.9731 0.1293
vn -0.0702 -0.1691 0.9831
vn -0.0701 -0.1708 0.9828
vn -0.0000 -0.9946 0.1043
vn -0.0038 -0.9945 0.1049
vn -0.0047 -0.9944 0.1052
vn -0.0708 -0.1487 0.9864
vn -0.0708 -0.1502 0.9861
vn -0.0542 -0.9933 0.1025
vn -0.0880 -0.9914 0.0969
vn -0.0606 -0.9930 0.1014
vn 0.6829 0.6910 0.2371
vn 0.5087 0.8406 0.1860
vn 0.5470 0.8136 0.1974
vn -0.7217 0.6603 0.2079
vn -0.2036 0.8999 0.3855
vn -0.0015 0.9935 0.1134
vn -0.0000 0.9936 0.1132
vn -0.0016 0.9935 0.1135
vn -0.0074 -0.9943 0.1060
vn -0.0170 -0.9942 0.1064
vn -0.0188 -0.9941 0.1065
vn -0.0077 -0.9943 0.1060
vn 0.9999 -0.0002 0.0117
vn 0.9999 -0.0007 0.0117
vn 0.9999 -0.0003 0.0118
vn 0.0865 0.9499 0.3004
vn 0.3178 0.9194 0.2319
vn 0.2868 0.9558 0.0647
vn 0.0531 0.9958 0.0744
vn 0.0482 0.9623 -0.2675
vn 0.0567 0.9952 -0.0793
vn 0.0499 0.9987 0.0051
vn 0.0213 0.9997 0.0079
vn 0.3782 0.8860 -0.2683
vn 0.3416 0.9368 -0.0752
vn 0.3145 0.9492 -0.0112
vn 0.7278 0.6857 -0.0138
vn 0.7184 0.6952 0.0244
vn 0.7270 0.6780 0.1084
vn 0.7487 0.6319 0.2004
vn 0.3220 0.8570 0.4022
vn 0.9784 -0.2046 -0.0313
vn 0.9865 -0.1600 -0.0336
vn 0.9944 -0.0994 -0.0367
vn 0.9987 -0.0491 0.0093
vn 0.9988 -0.0491 0.0085
vn 0.9971 -0.0613 0.0462
vn 0.9969 -0.0658 0.0422
vn 0.9965 -0.0763 0.0340
vn 0.9965 -0.0763 0.0341
vn 0.9972 -0.0656 0.0361
vn 0.9969 -0.0691 0.0365
vn 0.9946 -0.0902 0.0515
vn 0.9946 -0.0898 0.0513
vn 0.9832 -0.1174 0.1397
vn 0.9875 -0.1181 0.1041
vn 0.9542 -0.1363 0.2664
vn 0.9536 -0.1367 0.2683
vn 0.1233 0.8888 0.4414
vn 0.1133 0.8745 0.4716
vn 0.1175 0.8059 0.5802
vn 0.1530 0.7843 0.6013
vn 0.0933 0.8700 0.4842
vn 0.1017 0.8150 0.5705
vn 0.0269 0.9057 0.4231
vn 0.0299 0.8277 0.5603
vn 0.1087 0.9700 0.2176
vn 0.0887 0.9743 0.2069
vn 0.0929 0.9554 0.2802
vn 0.1119 0.9507 0.2894
vn 0.0679 0.9776 0.1994
vn 0.0749 0.9545 0.2886
vn 0.0243 0.9825 0.1846
vn 0.0237 0.9659 0.2578
vn 0.1079 0.9783 0.1771
vn 0.0872 0.9818 0.1689
vn 0.0663 0.9843 0.1634
vn 0.0265 0.9870 0.1584
vn 0.2888 0.4737 0.8320
vn 0.1404 0.2786 0.9501
vn 0.3141 0.3194 0.8941
vn 0.3673 0.5523 0.7484
vn 0.4060 0.6585 0.6337
vn 0.4052 0.7195 0.5641
vn 0.5717 0.7756 0.2676
vn 0.4860 0.7875 0.3789
vn 0.4550 0.7835 0.4232
vn 0.5577 0.7806 0.2821
vn 0.6525 0.7307 0.2011
vn 0.6316 0.7445 0.2164
vn 0.4617 0.1583 0.8728
vn 0.3704 0.1736 0.9125
vn 0.5805 0.1077 0.8071
vn 0.6887 0.0806 0.7205
vn 0.0606 0.1197 0.9910
vn 0.0609 -0.0313 0.9977
vn 0.1112 -0.0466 0.9927
vn 0.1041 0.1106 0.9884
vn 0.0711 -0.1260 0.9895
vn 0.0711 -0.1271 0.9893
vn 0.8414 0.4207 0.3393
vn 0.8623 0.3518 0.3643
vn 0.7797 0.2487 0.5746
vn 0.8173 0.2624 0.5130
vn 0.8103 0.4948 0.3142
vn 0.8337 0.2684 0.4826
vn 0.0591 0.2726 0.9603
vn 0.7152 0.2640 0.6472
vn 0.7381 0.2601 0.6225
vn 0.3339 0.1239 0.9344
vn 0.6009 0.2175 0.7691
vn 0.6111 0.2449 0.7527
vn 0.3458 0.0321 0.9378
vn 0.5140 -0.2622 0.8167
vn 0.7925 -0.1775 0.5834
vn 0.8209 -0.0747 0.5662
vn 0.5007 -0.0601 0.8635
vn 0.9236 -0.1551 0.3506
vn 0.8962 -0.1253 0.4255
vn 0.8954 -0.1650 0.4135
vn 0.8777 0.0420 0.4775
vn 0.8399 0.0185 0.5424
vn 0.2096 -0.2294 0.9505
vn 0.1456 -0.2416 0.9594
vn 0.7960 0.1119 0.5948
vn 0.7157 0.6897 0.1099
vn 0.7004 0.6964 0.1568
vn 0.6946 0.7004 0.1642
vn 0.7139 0.6899 0.1200
vn 0.0463 0.9949 0.0897
vn 0.0291 0.9865 0.1612
vn 0.0950 0.9891 0.1126
vn 0.0720 0.9862 0.1491
vn 0.1014 0.9838 0.1478
vn 0.1487 0.9813 0.1219
vn 0.1217 0.9819 0.1448
vn 0.8183 0.5590 0.1336
vn 0.7948 0.5692 0.2105
vn 0.8240 0.5476 0.1455
vn 0.8564 0.5091 0.0861
vn 0.8204 0.5566 0.1311
vn 0.8792 0.4747 0.0411
vn 0.7863 0.5939 0.1703
vn 0.7794 0.5939 0.1996
vn 0.8408 0.4956 0.2176
vn 0.9185 0.3949 -0.0216
vn 0.9706 0.2222 -0.0924
vn 0.9209 0.3898 -0.0037
vn 0.8794 0.4728 0.0557
vn 0.9333 0.3589 0.0101
vn 0.8318 0.5504 0.0724
vn 0.8782 0.4774 0.0285
vn 0.9232 0.3833 0.0281
vn 0.8425 0.5387 -0.0077
vn 0.8597 0.5106 0.0145
vn 0.9054 0.4240 0.0219
vn 0.8811 0.4729 0.0035
vn 0.7336 0.6728 0.0955
vn 0.7360 0.6700 0.0974
vn 0.8317 0.5504 0.0724
vn 0.7217 0.6603 0.2078
vn 0.2852 0.9419 0.1773
vn 0.1217 0.9701 0.2098
vn 0.9804 0.1860 -0.0649
vn 0.9726 0.2312 0.0248
vn 0.9687 0.2476 0.0165
vn 0.7664 0.6397 -0.0584
vn 0.7776 0.6249 -0.0702
vn 0.8886 0.4576 -0.0322
vn 0.6311 0.7087 -0.3155
vn 0.9862 -0.0899 -0.1387
vn 0.9867 -0.0891 -0.1358
vn 0.9979 -0.0533 -0.0368
vn 0.9979 -0.0530 -0.0364
vn 0.9992 -0.0372 -0.0134
vn 0.9992 -0.0379 -0.0153
vn 0.9994 -0.0330 0.0126
vn 0.9993 -0.0333 0.0158
vn 0.9979 -0.0472 0.0455
vn 0.9981 -0.0448 0.0426
vn 0.9868 -0.1524 0.0548
vn 0.9858 -0.1587 0.0545
vn 0.9664 -0.2521 0.0495
vn 0.9661 -0.1158 -0.2307
vn 0.7695 -0.0319 -0.6379
vn 0.5374 -0.0780 -0.8397
vn 0.3240 -0.0555 -0.9444
vn 0.7018 0.0941 -0.7061
vn 0.8368 0.5455 -0.0460
vn 0.8787 0.4766 -0.0266
vn 0.8741 0.4726 -0.1123
vn 0.7663 0.6142 -0.1885
vn 0.8599 0.5103 -0.0122
vn 0.8750 0.4837 -0.0216
vn 0.8734 0.4789 -0.0883
vn 0.5946 0.6602 -0.4588
vn 0.5891 0.7071 -0.3912
vn 0.9630 -0.2654 -0.0476
vn 0.9615 -0.2728 -0.0322
vn 0.9614 -0.2733 -0.0312
vn 0.9617 -0.2738 -0.0145
vn 0.9664 -0.2566 -0.0131
vn 0.9660 -0.2581 -0.0132
vn 0.9638 -0.2663 -0.0141
vn 0.9730 -0.2304 -0.0117
vn 0.9784 -0.2059 -0.0167
vn 0.9779 -0.2087 -0.0151
vn 0.9765 -0.2152 -0.0113
vn 0.9723 -0.2334 -0.0118
vn 0.9796 -0.2001 -0.0201
vn 0.9846 0.1071 -0.1378
vn 0.9974 0.0395 -0.0608
vn 0.9981 -0.0215 -0.0579
vn 0.9913 -0.0333 -0.1276
vn 0.8402 0.5422 -0.0059
vn 0.8653 0.5011 -0.0121
vn 0.9995 0.0286 -0.0132
vn 0.9996 0.0277 -0.0023
vn 0.9998 0.0213 -0.0038
vn 0.9990 0.0446 -0.0085
vn 0.9595 0.2817 0.0025
vn 0.9426 0.3334 -0.0194
vn 0.9769 0.2131 -0.0132
vn 0.9690 -0.2468 -0.0121
vn 0.9995 0.0328 -0.0032
vn 0.9984 0.0555 -0.0060
vn 0.9996 0.0262 -0.0071
vn 1.0000 -0.0004 -0.0077
vn 0.9999 0.0104 -0.0104
vn 0.9994 0.0278 -0.0228
vn 0.9645 0.2096 0.1610
vn 0.9997 -0.0127 -0.0205
vn 0.9961 0.0875 -0.0132
vn 0.9455 0.1888 0.2653
vn 0.9578 0.2863 -0.0255
vn 0.9362 0.3411 -0.0844
vn 0.0104 0.4342 -0.9008
vn 0.0026 0.7266 -0.6871
vn 0.0694 -0.1081 -0.9917
vn 0.0477 0.4224 -0.9051
vn 0.2718 0.4016 -0.8745
vn 0.6427 0.3541 -0.6794
vn 0.8056 0.3340 -0.4893
vn 0.8211 0.0950 -0.5628
vn 0.8412 -0.0608 -0.5373
vn 0.2876 0.6329 -0.7189
vn 0.6268 0.4993 -0.5982
vn 0.8670 0.2121 -0.4509
vn 0.5865 0.4929 -0.6427
vn 0.3253 0.7252 -0.6069
vn 0.2785 0.4857 -0.8286
vn 0.1681 0.7336 -0.6585
vn 0.0893 0.7429 -0.6634
vn 0.1153 0.5261 -0.8426
vn 0.0219 -0.0921 -0.9955
vn 0.0359 0.7168 -0.6963
vn 0.0666 -0.4882 -0.8702
vn 0.0499 -0.5196 -0.8529
vn 0.1857 0.2512 -0.9499
vn 0.2311 0.2276 -0.9459
vn 0.2120 0.0084 -0.9772
vn 0.2202 -0.0390 -0.9747
vn 0.8954 0.1910 -0.4022
vn 0.6791 -0.0856 -0.7291
vn 0.7080 -0.0814 -0.7015
vn 0.2621 -0.1004 -0.9598
vn 0.3792 -0.1044 -0.9194
vn 0.1139 -0.2987 -0.9475
vn 0.1210 -0.2354 -0.9643
vn 0.3956 0.0851 -0.9145
vn 0.3413 -0.0526 -0.9385
vn 0.1981 -0.0685 -0.9778
vn 0.7261 0.0977 -0.6806
vn 0.6987 -0.0542 -0.7133
vn 0.9232 0.2232 -0.3129
vn 0.9414 0.2348 -0.2420
vn 0.2122 -0.0803 -0.9739
vn 0.8929 0.3023 -0.3336
vn 0.8462 0.3017 -0.4392
vn 0.8094 0.4825 -0.3348
vn 0.9577 0.2345 0.1668
vn 0.7804 0.3557 0.5142
vn 0.9351 0.3495 -0.0584
vn 0.9543 0.2953 0.0455
vn 0.8491 0.4912 0.1941
vn 0.9063 0.4203 -0.0450
vn 0.0051 0.9239 -0.3826
vn 0.0116 -0.9290 -0.3699
vn -0.7957 0.2927 -0.5303
vn -0.7950 0.2961 -0.5294
vn -0.7947 0.2976 -0.5290
vn -0.7941 0.3010 -0.5281
vn 0.0353 -0.0153 -0.9993
vn 0.0256 -0.0343 -0.9991
vn 0.0416 -0.0028 -0.9991
vn 0.0398 0.2199 0.9747
vn 0.0437 0.1108 0.9929
vn 0.0486 0.2406 0.9694
vn 0.0395 -0.0150 0.9991
vn -0.1646 0.9781 0.1274
vn -0.1908 0.9731 0.1293
vn 0.0017 0.9935 0.1136
vn 0.0702 -0.1691 0.9831
vn 0.0701 -0.1708 0.9828
vn 0.0047 -0.9944 0.1052
vn 0.0038 -0.9945 0.1049
vn 0.0708 -0.1487 0.9864
vn 0.0708 -0.1502 0.9861
vn 0.0542 -0.9933 0.1025
vn 0.0606 -0.9930 0.1014
vn 0.0880 -0.9914 0.0969
vn -0.6829 0.6910 0.2371
vn -0.5470 0.8136 0.1974
vn -0.5087 0.8406 0.1860
vn 0.7217 0.6603 0.2079
vn 0.2036 0.8999 0.3855
vn 0.0015 0.9935 0.1134
vn 0.0016 0.9935 0.1135
vn 0.0074 -0.9943 0.1060
vn 0.0077 -0.9943 0.1060
vn 0.0188 -0.9941 0.1065
vn 0.0170 -0.9942 0.1064
vn -0.9999 -0.0002 0.0117
vn -0.9999 -0.0007 0.0117
vn -0.9999 -0.0003 0.0118
vt 0.000000 0.000000
s 1
usemtl carPaint
f 613/2/531 654/2/532 611/2/533 609/2/534
f 612/2/535 653/2/536 654/2/532 613/2/531
f 832/2/537 695/2/538 652/2/539 833/2/540
f 698/2/541 654/2/532 653/2/536 697/2/542
f 830/2/543 610/2/544 695/2/538 832/2/537
f 696/2/545 611/2/533 654/2/532 698/2/541
f 610/2/544 696/2/545 698/2/541 695/2/538
f 695/2/538 698/2/541 697/2/542 652/2/539
f 821/2/546 824/2/547 611/2/533 696/2/545
f 609/2/534 611/2/533 824/2/547 825/2/548
f 826/2/549 646/2/550 609/2/534 825/2/548
f 857/2/551 658/2/552 689/2/553 690/2/551
f 658/2/552 657/2/554 688/2/555 689/2/553
f 657/2/554 656/2/556 687/2/557 688/2/555
f 656/2/556 655/2/558 686/2/559 687/2/557
f 629/2/560 686/2/559 655/2/558 630/2/561
f 629/2/560 630/2/561 633/2/562 685/2/563
f 632/2/564 684/2/565 685/2/563 633/2/562
f 715/2/566 716/2/567 684/2/565 632/2/564
f 703/2/568 797/2/569 796/2/570 706/2/571
f 706/2/571 796/2/570 794/2/572 707/2/573
f 707/2/574 794/2/575 795/2/576 704/2/577
f 619/2/578 620/2/579 699/2/580 700/2/581
f 700/2/581 699/2/580 701/2/582 702/2/583
f 702/2/584 701/2/585 621/2/586 622/2/587
f 727/2/588 619/2/578 700/2/581 729/2/589
f 729/2/589 700/2/581 702/2/583 730/2/590
f 730/2/591 702/2/584 622/2/587 728/2/592
f 797/2/593 626/2/594 623/2/595 798/2/596
f 703/2/597 705/2/598 626/2/594 797/2/593
f 619/2/599 624/2/600 625/2/601 620/2/602
f 727/2/603 731/2/604 624/2/600 619/2/599
f 639/2/605 806/2/606 807/2/607 642/2/608
f 793/2/609 711/2/610 640/2/611 792/2/612
f 620/2/602 625/2/601 705/2/598 703/2/597
f 701/2/585 707/2/574 704/2/577 621/2/586
f 699/2/580 706/2/571 707/2/573 701/2/582
f 620/2/579 703/2/568 706/2/571 699/2/580
f 634/2/613 643/2/613 812/2/614 813/2/615
f 708/2/616 709/2/617 644/2/618 628/2/619
f 629/2/620 685/2/621 709/2/617 708/2/616
f 801/2/622 798/2/596 711/2/610 793/2/609
f 644/2/618 709/2/617 718/2/623 717/2/624
f 623/2/595 645/2/625 712/2/626 714/2/627
f 623/2/595 714/2/627 711/2/610 798/2/596
f 640/2/611 711/2/610 714/2/627 713/2/628
f 713/2/628 714/2/627 712/2/626 639/2/605
f 636/2/629 805/2/630 804/2/631 635/2/632
f 631/2/633 683/2/633 716/2/567 715/2/566
f 716/2/634 683/2/635 635/2/632 804/2/631
f 804/2/631 803/2/636 684/2/637 716/2/634
f 636/2/629 637/2/638 641/2/639 805/2/630
f 642/2/608 807/2/607 805/2/630 641/2/639
f 684/2/637 803/2/636 802/2/640 685/2/621
f 806/2/606 639/2/605 712/2/626
f 709/2/617 685/2/621 802/2/640 718/2/623
f 718/2/623 712/2/626 645/2/625 717/2/624
f 806/2/606 712/2/626 718/2/623 802/2/640
f 618/2/641 627/2/642 721/2/643 719/2/644
f 617/2/645 723/2/646 720/2/647 616/2/648
f 615/2/649 722/2/650 723/2/651 617/2/645
f 618/2/652 719/2/653 722/2/650 615/2/649
f 724/2/654 686/2/655 629/2/620 708/2/616 732/2/656
f 627/2/657 725/2/658 724/2/654 721/2/659
f 731/2/660 721/2/659 724/2/654 732/2/656
f 624/2/661 731/2/660 732/2/656 726/2/662
f 719/2/644 721/2/643 731/2/604 727/2/603
f 723/2/646 730/2/591 728/2/592 720/2/647
f 722/2/650 729/2/589 730/2/590 723/2/651
f 719/2/653 727/2/588 729/2/589 722/2/650
f 726/2/662 732/2/656 708/2/616 628/2/619
f 687/2/663 725/2/658 734/2/664 736/2/665
f 733/2/666 828/2/667 649/2/668 734/2/664
f 822/2/669 753/2/670 649/2/668 828/2/667
f 815/2/671 648/2/672 647/2/673 823/2/674
f 627/2/657 733/2/666 734/2/664 725/2/658
f 627/2/642 618/2/641 735/2/675 733/2/676
f 828/2/667 733/2/676 735/2/675 827/2/677
f 735/2/678 618/2/652 615/2/649 614/2/679
f 736/2/665 734/2/664 649/2/668 650/2/680
f 647/2/673 750/2/681 752/2/682 753/2/670
f 696/2/545 610/2/544 820/2/683 821/2/546
f 610/2/544 830/2/543 819/2/684 820/2/683
f 818/2/685 819/2/684 830/2/543 831/2/686
f 665/2/687 664/2/688 741/2/689 742/2/690
f 663/2/691 662/2/692 739/2/693 740/2/694
f 661/2/695 660/2/696 737/2/697 738/2/698
f 664/2/688 663/2/691 740/2/694 741/2/689
f 662/2/692 661/2/695 738/2/698 739/2/693
f 858/2/699 859/2/699 737/2/697 660/2/696
f 665/2/687 742/2/690 743/2/700 666/2/700
f 763/2/701 764/2/702 841/2/703 840/2/704
f 745/2/705 677/2/706 651/2/707 744/2/708
f 817/2/709 745/2/705 744/2/708 682/2/710
f 817/2/709 818/2/685 829/2/711 745/2/705
f 835/2/712 677/2/706 745/2/705 829/2/711 834/2/713
f 859/2/714 861/2/715 681/2/716 737/2/714
f 746/2/717 747/2/717 864/2/718 860/2/719 680/2/720
f 754/2/721 863/2/722 866/2/723 862/2/724 659/2/725
f 690/2/726 689/2/726 659/2/725 862/2/724
f 681/2/716 861/2/715 747/2/717 746/2/717
f 687/2/663 736/2/665 688/2/727
f 736/2/665 650/2/680 748/2/728 688/2/727
f 659/2/729 689/2/730 688/2/727 748/2/728
f 817/2/709 682/2/710 749/2/731 816/2/732
f 816/2/732 749/2/731 648/2/672 815/2/671
f 756/2/733 746/2/734 680/2/735 755/2/736
f 650/2/680 649/2/668 753/2/670 752/2/682
f 823/2/674 647/2/673 753/2/670 822/2/669
f 648/2/672 751/2/737 750/2/681 647/2/673
f 682/2/710 759/2/738 760/2/739 749/2/731
f 680/2/720 860/2/719 865/2/740 863/2/722 754/2/721
f 755/2/736 757/2/741 752/2/742 750/2/743
f 680/2/735 754/2/744 757/2/741 755/2/736
f 751/2/745 756/2/733 755/2/736 750/2/743
f 650/2/680 752/2/742 757/2/741 748/2/728
f 748/2/728 757/2/741 754/2/744 659/2/729
f 761/2/746 760/2/747 759/2/738 758/2/748
f 756/2/733 751/2/745 760/2/747 761/2/746
f 758/2/748 691/2/749 681/2/750 761/2/746
f 751/2/737 648/2/672 749/2/731 760/2/739
f 651/2/707 781/2/751 780/2/752 744/2/708
f 681/2/750 746/2/734 756/2/733 761/2/746
f 769/2/753 768/2/754 669/2/755 668/2/756
f 844/2/757 841/2/703 762/2/758 773/2/759
f 765/2/760 762/2/758 841/2/703 764/2/702
f 741/2/761 765/2/760 764/2/702 742/2/762
f 743/2/763 742/2/762 764/2/702 763/2/701
f 693/2/764 762/2/758 765/2/760 694/2/765
f 694/2/765 765/2/760 741/2/761 692/2/766
f 835/2/712 838/2/767 676/2/768 677/2/706
f 838/2/767 839/2/769 675/2/770 676/2/768
f 836/2/771 767/2/772 675/2/770 839/2/769
f 837/2/773 766/2/774 767/2/772 836/2/771
f 843/2/775 842/2/776 769/2/753 668/2/756
f 773/2/759 772/2/777 768/2/754 769/2/753
f 669/2/778 768/2/779 679/2/780 670/2/778
f 678/2/781 770/2/782 674/2/783 771/2/784
f 771/2/784 675/2/770 767/2/772 678/2/781
f 671/2/785 678/2/781 767/2/772 766/2/774
f 774/2/786 775/2/787 694/2/788 692/2/766
f 775/2/787 776/2/789 693/2/790 694/2/788
f 762/2/758 693/2/764 772/2/777 773/2/759
f 842/2/776 844/2/757 773/2/759 769/2/753
f 776/2/789 777/2/791 772/2/792 693/2/790
f 673/2/793 674/2/783 777/2/794 776/2/795
f 672/2/796 673/2/793 776/2/795 775/2/797
f 667/2/798 672/2/796 775/2/797 774/2/799
f 768/2/779 772/2/792 777/2/791 679/2/780
f 679/2/800 777/2/794 674/2/783 770/2/782
f 692/2/766 741/2/761 740/2/801 774/2/786
f 759/2/738 682/2/710 744/2/708 780/2/752
f 778/2/802 781/2/751 651/2/707 779/2/803
f 758/2/748 738/2/804 737/2/805 691/2/749
f 691/2/749 737/2/805 681/2/750
f 667/2/798 783/2/806 781/2/751 778/2/802
f 780/2/752 781/2/751 783/2/806 782/2/807
f 758/2/748 759/2/738 780/2/752 782/2/807
f 738/2/804 758/2/748 782/2/807 739/2/808
f 739/2/808 782/2/807 783/2/806 740/2/809
f 667/2/798 774/2/799 740/2/809 783/2/806
f 725/2/658 687/2/663 686/2/655 724/2/654
f 670/2/810 679/2/811 787/2/811 784/2/810
f 678/2/812 671/2/813 785/2/813 786/2/812
f 679/2/814 770/2/815 788/2/816 787/2/814
f 770/2/815 678/2/817 786/2/817 788/2/816
f 788/2/818 789/2/819 784/2/820 787/2/821
f 789/2/819 788/2/818 786/2/822 785/2/823
f 800/2/824 799/2/825 791/2/826 710/2/827
f 710/2/827 791/2/826 790/2/828 638/2/829
f 799/2/825 801/2/622 793/2/609 791/2/826
f 791/2/826 793/2/609 792/2/612 790/2/828
f 641/2/830 808/2/831 855/2/831 850/2/832
f 809/2/833 808/2/834 641/2/639 637/2/638
f 638/2/835 790/2/836 854/2/837 853/2/835
f 811/2/838 810/2/839 808/2/834 809/2/833
f 713/2/840 639/2/841 846/2/841 845/2/842
f 813/2/615 812/2/614 810/2/839 811/2/838
f 639/2/843 642/2/844 849/2/845 846/2/843
f 827/2/846 814/2/847 646/2/550 826/2/549
f 614/2/679 814/2/847 827/2/846 735/2/678
f 829/2/711 818/2/685 831/2/686 834/2/713
f 812/2/848 643/2/849 852/2/849 851/2/850
f 808/2/831 810/2/831 856/2/831 855/2/831
f 792/2/851 640/2/852 848/2/853 847/2/854
f 810/2/831 812/2/848 851/2/850 856/2/831
f 640/2/852 713/2/840 845/2/842 848/2/853
f 642/2/844 641/2/830 850/2/832 849/2/845
f 790/2/836 792/2/851 847/2/854 854/2/837
f 860/2/855 864/2/855 747/2/855
f 863/2/856 865/2/856 860/2/856
f 862/2/857 866/2/857 863/2/857
f 870/2/858 867/2/859 869/2/860 903/2/861
f 612/2/535 870/2/858 903/2/861 653/2/536
f 1068/2/862 833/2/540 652/2/539 940/2/863
f 943/2/864 942/2/865 653/2/536 903/2/861
f 1066/2/866 1068/2/862 940/2/863 868/2/867
f 941/2/868 943/2/864 903/2/861 869/2/860
f 868/2/867 940/2/863 943/2/864 941/2/868
f 940/2/863 652/2/539 942/2/865 943/2/864
f 1057/2/869 941/2/868 869/2/860 1060/2/870
f 867/2/859 1061/2/871 1060/2/870 869/2/860
f 1062/2/872 1061/2/871 867/2/859 897/2/873
f 1088/2/874 935/2/874 934/2/875 907/2/876
f 907/2/876 934/2/875 933/2/877 906/2/878
f 906/2/878 933/2/877 932/2/879 905/2/880
f 905/2/880 932/2/879 931/2/881 904/2/882
f 883/2/883 884/2/884 904/2/882 931/2/881
f 883/2/883 930/2/885 887/2/886 884/2/884
f 886/2/887 887/2/886 930/2/885 929/2/888
f 958/2/889 886/2/887 929/2/888 959/2/890
f 948/2/891 950/2/892 1032/2/893 1033/2/894
f 950/2/892 951/2/895 1031/2/896 1032/2/893
f 951/2/897 704/2/577 795/2/576 1031/2/898
f 875/2/899 945/2/900 944/2/901 876/2/902
f 945/2/900 947/2/903 946/2/904 944/2/901
f 947/2/905 622/2/587 621/2/586 946/2/906
f 969/2/907 970/2/908 945/2/900 875/2/899
f 970/2/908 971/2/909 947/2/903 945/2/900
f 971/2/910 728/2/592 622/2/587 947/2/905
f 1033/2/911 1034/2/912 877/2/913 880/2/914
f 948/2/915 1033/2/911 880/2/914 949/2/916
f 875/2/917 876/2/918 879/2/919 878/2/920
f 969/2/921 875/2/917 878/2/920 972/2/922
f 891/2/923 894/2/924 1043/2/925 1042/2/926
f 1030/2/927 1029/2/928 892/2/929 954/2/930
f 876/2/918 948/2/915 949/2/916 879/2/919
f 946/2/906 621/2/586 704/2/577 951/2/897
f 944/2/901 946/2/904 951/2/895 950/2/892
f 876/2/902 944/2/901 950/2/892 948/2/891
f 634/2/613 1049/2/931 1048/2/932 643/2/613
f 952/2/933 882/2/934 895/2/935 953/2/936
f 883/2/937 952/2/933 953/2/936 930/2/938
f 1037/2/939 1030/2/927 954/2/930 1034/2/912
f 895/2/935 960/2/940 961/2/941 953/2/936
f 877/2/913 957/2/942 955/2/943 896/2/944
f 877/2/913 1034/2/912 954/2/930 957/2/942
f 892/2/929 956/2/945 957/2/942 954/2/930
f 956/2/945 891/2/923 955/2/943 957/2/942
f 889/2/946 888/2/947 1040/2/948 1041/2/949
f 885/2/950 958/2/889 959/2/890 928/2/950
f 959/2/951 1040/2/948 888/2/947 928/2/952
f 1040/2/948 959/2/951 929/2/953 1039/2/954
f 889/2/946 1041/2/949 893/2/955 890/2/956
f 894/2/924 893/2/955 1041/2/949 1043/2/925
f 929/2/953 930/2/938 1038/2/957 1039/2/954
f 1042/2/926 955/2/943 891/2/923
f 953/2/936 961/2/941 1038/2/957 930/2/938
f 961/2/941 960/2/940 896/2/944 955/2/943
f 1042/2/926 1038/2/957 961/2/941 955/2/943
f 874/2/958 962/2/959 963/2/960 881/2/961
f 873/2/962 616/2/648 720/2/647 965/2/963
f 872/2/964 873/2/962 965/2/965 964/2/966
f 874/2/967 872/2/964 964/2/966 962/2/968
f 966/2/969 973/2/970 952/2/933 883/2/937 931/2/971
f 881/2/972 963/2/973 966/2/969 967/2/974
f 972/2/975 973/2/970 966/2/969 963/2/973
f 878/2/976 968/2/977 973/2/970 972/2/975
f 962/2/959 969/2/921 972/2/922 963/2/960
f 965/2/963 720/2/647 728/2/592 971/2/910
f 964/2/966 965/2/965 971/2/909 970/2/908
f 962/2/968 964/2/966 970/2/908 969/2/907
f 968/2/977 882/2/934 952/2/933 973/2/970
f 932/2/978 977/2/979 975/2/980 967/2/974
f 974/2/981 975/2/980 900/2/982 1064/2/983
f 1058/2/984 1064/2/983 900/2/982 994/2/985
f 1051/2/986 1059/2/987 898/2/988 899/2/989
f 881/2/972 967/2/974 975/2/980 974/2/981
f 881/2/961 974/2/990 976/2/991 874/2/958
f 1064/2/992 1063/2/993 976/2/991 974/2/990
f 976/2/994 871/2/995 872/2/964 874/2/967
f 977/2/979 901/2/996 900/2/982 975/2/980
f 898/2/988 994/2/985 993/2/997 991/2/998
f 941/2/868 1057/2/869 1056/2/999 868/2/867
f 868/2/867 1056/2/999 1055/2/1000 1066/2/866
f 1054/2/1001 1067/2/1002 1066/2/866 1055/2/1000
f 914/2/1003 983/2/1004 982/2/1005 913/2/1006
f 912/2/1007 981/2/1008 980/2/1009 911/2/1010
f 910/2/1011 979/2/1012 978/2/1013 909/2/1014
f 913/2/1006 982/2/1005 981/2/1008 912/2/1007
f 911/2/1010 980/2/1009 979/2/1012 910/2/1011
f 1089/2/1015 909/2/1014 978/2/1013 1090/2/1015
f 914/2/1003 915/2/1016 984/2/1016 983/2/1004
f 1004/2/1017 1074/2/1018 1075/2/1019 1005/2/1020
f 986/2/1021 985/2/1022 902/2/1023 922/2/1024
f 1053/2/1025 927/2/1026 985/2/1022 986/2/1021
f 1053/2/1025 986/2/1021 1065/2/1027 1054/2/1001
f 1070/2/1028 1069/2/1029 1065/2/1027 986/2/1021 922/2/1024
f 1090/2/1030 978/2/1030 926/2/1031 1092/2/1032
f 987/2/1033 925/2/1034 1091/2/1035 1095/2/1036 988/2/1033
f 995/2/1037 908/2/1038 1093/2/1039 1097/2/1040 1094/2/1041
f 935/2/1042 1093/2/1039 908/2/1038 934/2/1042
f 926/2/1031 987/2/1033 988/2/1033 1092/2/1032
f 932/2/978 933/2/1043 977/2/979
f 977/2/979 933/2/1043 989/2/1044 901/2/996
f 908/2/1045 989/2/1044 933/2/1043 934/2/1046
f 1053/2/1025 1052/2/1047 990/2/1048 927/2/1026
f 1052/2/1047 1051/2/986 899/2/989 990/2/1048
f 997/2/1049 996/2/1050 925/2/1051 987/2/1052
f 901/2/996 993/2/997 994/2/985 900/2/982
f 1059/2/987 1058/2/984 994/2/985 898/2/988
f 899/2/989 898/2/988 991/2/998 992/2/1053
f 927/2/1026 990/2/1048 1001/2/1054 1000/2/1055
f 925/2/1034 995/2/1037 1094/2/1041 1096/2/1056 1091/2/1035
f 996/2/1050 991/2/1057 993/2/1058 998/2/1059
f 925/2/1051 996/2/1050 998/2/1059 995/2/1060
f 992/2/1061 991/2/1057 996/2/1050 997/2/1049
f 901/2/996 989/2/1044 998/2/1059 993/2/1058
f 989/2/1044 908/2/1045 995/2/1060 998/2/1059
f 1002/2/1062 999/2/1063 1000/2/1055 1001/2/1064
f 997/2/1049 1002/2/1062 1001/2/1064 992/2/1061
f 999/2/1063 1002/2/1062 926/2/1065 936/2/1066
f 992/2/1053 1001/2/1054 990/2/1048 899/2/989
f 902/2/1023 985/2/1022 1020/2/1067 1021/2/1068
f 926/2/1065 1002/2/1062 997/2/1049 987/2/1052
f 1009/2/1069 668/2/756 669/2/755 1008/2/1070
f 1077/2/1071 1013/2/1072 1003/2/1073 1075/2/1019
f 1006/2/1074 1005/2/1020 1075/2/1019 1003/2/1073
f 982/2/1075 983/2/1076 1005/2/1020 1006/2/1074
f 984/2/1077 1004/2/1017 1005/2/1020 983/2/1076
f 938/2/1078 939/2/1079 1006/2/1074 1003/2/1073
f 939/2/1079 937/2/1080 982/2/1075 1006/2/1074
f 1070/2/1028 922/2/1024 921/2/1081 1072/2/1082
f 1072/2/1082 921/2/1081 920/2/1083 1073/2/1084
f 1071/2/1085 1073/2/1084 920/2/1083 1007/2/1086
f 837/2/773 1071/2/1085 1007/2/1086 766/2/774
f 843/2/775 668/2/756 1009/2/1069 1076/2/1087
f 1013/2/1072 1009/2/1069 1008/2/1070 1012/2/1088
f 669/2/778 670/2/778 924/2/1089 1008/2/1090
f 923/2/1091 1011/2/1092 919/2/1093 1010/2/1094
f 1011/2/1092 923/2/1091 1007/2/1086 920/2/1083
f 671/2/785 766/2/774 1007/2/1086 923/2/1091
f 1014/2/1095 937/2/1080 939/2/1096 1015/2/1097
f 1015/2/1097 939/2/1096 938/2/1098 1016/2/1099
f 1003/2/1073 1013/2/1072 1012/2/1088 938/2/1078
f 1076/2/1087 1009/2/1069 1013/2/1072 1077/2/1071
f 1016/2/1099 938/2/1098 1012/2/1100 1017/2/1101
f 918/2/1102 1016/2/1103 1017/2/1104 919/2/1093
f 917/2/1105 1015/2/1106 1016/2/1103 918/2/1102
f 916/2/1107 1014/2/1108 1015/2/1106 917/2/1105
f 1008/2/1090 924/2/1089 1017/2/1101 1012/2/1100
f 924/2/1109 1010/2/1094 919/2/1093 1017/2/1104
f 937/2/1080 1014/2/1095 981/2/1110 982/2/1075
f 1000/2/1055 1020/2/1067 985/2/1022 927/2/1026
f 1018/2/1111 1019/2/1112 902/2/1023 1021/2/1068
f 999/2/1063 936/2/1066 978/2/1113 979/2/1114
f 936/2/1066 926/2/1065 978/2/1113
f 916/2/1107 1018/2/1111 1021/2/1068 1023/2/1115
f 1020/2/1067 1022/2/1116 1023/2/1115 1021/2/1068
f 999/2/1063 1022/2/1116 1020/2/1067 1000/2/1055
f 979/2/1114 980/2/1117 1022/2/1116 999/2/1063
f 980/2/1117 981/2/1118 1023/2/1115 1022/2/1116
f 916/2/1107 1023/2/1115 981/2/1118 1014/2/1108
f 967/2/974 966/2/969 931/2/971 932/2/978
f 670/2/810 784/2/810 1025/2/1119 924/2/1119
f 923/2/1120 1024/2/1120 785/2/813 671/2/813
f 924/2/1121 1025/2/1121 1026/2/1122 1010/2/1123
f 1010/2/1123 1026/2/1122 1024/2/1124 923/2/1124
f 1026/2/1125 1025/2/1126 784/2/820 789/2/819
f 789/2/819 785/2/823 1024/2/1127 1026/2/1125
f 1036/2/1128 710/2/827 1028/2/1129 1035/2/1130
f 710/2/827 638/2/829 1027/2/1131 1028/2/1129
f 1035/2/1130 1028/2/1129 1030/2/927 1037/2/939
f 1028/2/1129 1027/2/1131 1029/2/928 1030/2/927
f 893/2/1132 1083/2/1133 1086/2/1134 1044/2/1134
f 1045/2/1135 890/2/956 893/2/955 1044/2/1136
f 638/2/835 853/2/835 1085/2/1137 1027/2/1138
f 1047/2/1139 1045/2/1135 1044/2/1136 1046/2/1140
f 956/2/1141 1078/2/1142 1079/2/1143 891/2/1143
f 1049/2/931 1047/2/1139 1046/2/1140 1048/2/932
f 891/2/1144 1079/2/1144 1082/2/1145 894/2/1146
f 1063/2/1147 1062/2/872 897/2/873 1050/2/1148
f 871/2/995 976/2/994 1063/2/1147 1050/2/1148
f 1065/2/1027 1069/2/1029 1067/2/1002 1054/2/1001
f 1048/2/1149 1084/2/1150 852/2/849 643/2/849
f 1044/2/1134 1086/2/1134 1087/2/1134 1046/2/1134
f 1029/2/1151 1080/2/1152 1081/2/1153 892/2/1154
f 1046/2/1134 1087/2/1134 1084/2/1150 1048/2/1149
f 892/2/1154 1081/2/1153 1078/2/1142 956/2/1141
f 894/2/1146 1082/2/1145 1083/2/1133 893/2/1132
f 1027/2/1138 1085/2/1137 1080/2/1152 1029/2/1151
f 1091/2/1155 988/2/1155 1095/2/1155
f 1094/2/1156 1091/2/1156 1096/2/1156
f 1093/2/1157 1094/2/1157 1097/2/1157
