# Blender 5.2.2 LTS
# www.blender.org
mtllib all_wheels.mtl
o all_wheels
v 0.085121 -0.000979 -0.340271
v 0.085121 0.065401 -0.333733
v 0.085121 0.129230 -0.314369
v 0.085121 0.188055 -0.282925
v 0.085121 0.239616 -0.240612
v 0.085121 0.281930 -0.189053
v 0.085121 0.313373 -0.130226
v 0.085121 0.332736 -0.066399
v 0.085121 0.339273 -0.000015
v 0.085121 0.332736 0.066364
v 0.085121 0.313373 0.130192
v 0.085121 0.281930 0.189018
v 0.085121 0.239616 0.240578
v 0.085121 0.188055 0.282890
v 0.085121 0.129230 0.314335
v 0.085121 0.065401 0.333698
v 0.085121 -0.000979 0.340237
v 0.085121 -0.067359 0.333698
v 0.085121 -0.131188 0.314335
v 0.085121 -0.190013 0.282890
v 0.085121 -0.241574 0.240578
v 0.085121 -0.283888 0.189018
v 0.085121 -0.315331 0.130192
v 0.085121 -0.334693 0.066364
v 0.085121 -0.341231 -0.000019
v 0.085121 -0.334693 -0.066399
v 0.085121 -0.315331 -0.130226
v 0.085121 -0.283888 -0.189053
v 0.085121 -0.241574 -0.240612
v 0.085121 -0.190013 -0.282928
v 0.085121 -0.131188 -0.314369
v 0.085121 -0.067359 -0.333733
v -0.081677 -0.000979 -0.340271
v -0.081677 0.065401 -0.333733
v -0.081677 0.129230 -0.314369
v -0.081677 0.188055 -0.282925
v -0.081677 0.239616 -0.240612
v -0.081677 0.281930 -0.189053
v -0.081677 0.313373 -0.130226
v -0.081677 0.332736 -0.066399
v -0.081677 0.339273 -0.000015
v -0.081677 0.332736 0.066364
v -0.081677 0.313373 0.130192
v -0.081677 0.281930 0.189018
v -0.081677 0.239616 0.240578
v -0.081677 0.188055 0.282890
v -0.081677 0.129230 0.314335
v -0.081677 0.065401 0.333698
v -0.081677 -0.000979 0.340237
v -0.081677 -0.067359 0.333698
v -0.081677 -0.131188 0.314335
v -0.081677 -0.190013 0.282890
v -0.081677 -0.241574 0.240578
v -0.081677 -0.283888 0.189018
v -0.081677 -0.315331 0.130192
v -0.081677 -0.334693 0.066364
v -0.081677 -0.341231 -0.000019
v -0.081677 -0.334693 -0.066399
v -0.081677 -0.315331 -0.130226
v -0.081677 -0.283888 -0.189053
v -0.081677 -0.241574 -0.240612
v -0.081677 -0.190013 -0.282928
v -0.081677 -0.131188 -0.314369
v -0.081677 -0.067359 -0.333733
v -0.102874 -0.000979 -0.302155
v -0.102874 0.057965 -0.296349
v -0.102874 0.114644 -0.279156
v -0.102874 0.166879 -0.251232
v -0.102874 0.212663 -0.213657
v -0.102874 0.250238 -0.167873
v -0.102874 0.278158 -0.115639
v -0.102874 0.295351 -0.058960
v -0.102874 0.301157 -0.000015
v -0.102874 0.295351 0.058926
v -0.102874 0.278158 0.115604
v -0.102874 0.250238 0.167839
v -0.102874 0.212663 0.213623
v -0.102874 0.166879 0.251198
v -0.102874 0.114643 0.279121
v -0.102874 0.057965 0.296314
v -0.102874 -0.000979 0.302120
v -0.102874 -0.059923 0.296314
v -0.102874 -0.116601 0.279121
v -0.102874 -0.168837 0.251198
v -0.102874 -0.214621 0.213623
v -0.102874 -0.252196 0.167839
v -0.102874 -0.280116 0.115604
v -0.102874 -0.297309 0.058926
v -0.102874 -0.303115 -0.000019
v -0.102874 -0.297309 -0.058960
v -0.102874 -0.280116 -0.115639
v -0.102874 -0.252195 -0.167873
v -0.102874 -0.214621 -0.213657
v -0.102874 -0.168836 -0.251232
v -0.102874 -0.116601 -0.279156
v -0.102874 -0.059923 -0.296349
v -0.101698 -0.000979 -0.236519
v -0.101698 0.045161 -0.231976
v -0.101698 0.089527 -0.218517
v -0.101698 0.130415 -0.196663
v -0.101698 0.166254 -0.167252
v -0.101698 0.195667 -0.131413
v -0.101698 0.217522 -0.090523
v -0.101698 0.230981 -0.046158
v -0.101698 0.235525 -0.000015
v -0.101698 0.230981 0.046124
v -0.101698 0.217522 0.090488
v -0.101698 0.195667 0.131378
v -0.101698 0.166254 0.167217
v -0.101698 0.130415 0.196629
v -0.101698 0.089527 0.218483
v -0.101698 0.045161 0.231941
v -0.101698 -0.000979 0.236488
v -0.101698 -0.047119 0.231941
v -0.101698 -0.091485 0.218483
v -0.101698 -0.132373 0.196629
v -0.101698 -0.168212 0.167217
v -0.101698 -0.197624 0.131378
v -0.101698 -0.219480 0.090488
v -0.101698 -0.232938 0.046124
v -0.101698 -0.237483 -0.000019
v -0.101698 -0.232938 -0.046158
v -0.101698 -0.219480 -0.090523
v -0.101698 -0.197624 -0.131413
v -0.101698 -0.168212 -0.167252
v -0.101698 -0.132373 -0.196663
v -0.101698 -0.091485 -0.218517
v -0.101698 -0.047118 -0.231976
v -0.087296 -0.000979 -0.214291
v -0.087296 0.040824 -0.210175
v -0.087296 0.081020 -0.197983
v -0.087296 0.118066 -0.178181
v -0.087296 0.150536 -0.151531
v -0.087296 0.177184 -0.119061
v -0.087296 0.196985 -0.082016
v -0.087296 0.209178 -0.041821
v -0.087296 0.213296 -0.000015
v -0.087296 0.209178 0.041786
v -0.087296 0.196985 0.081982
v -0.087296 0.177184 0.119026
v -0.087296 0.150536 0.151497
v -0.087296 0.118065 0.178146
v -0.087296 0.081020 0.197948
v -0.087296 0.040824 0.210140
v -0.087296 -0.000979 0.214256
v -0.087296 -0.042782 0.210140
v -0.087296 -0.082978 0.197948
v -0.087296 -0.120023 0.178146
v -0.087296 -0.152494 0.151497
v -0.087296 -0.179141 0.119026
v -0.087296 -0.198943 0.081982
v -0.087296 -0.211136 0.041786
v -0.087296 -0.215253 -0.000019
v -0.087296 -0.211136 -0.041821
v -0.087296 -0.198942 -0.082016
v -0.087296 -0.179141 -0.119061
v -0.087296 -0.152494 -0.151531
v -0.087296 -0.120023 -0.178181
v -0.087296 -0.082978 -0.197983
v -0.087296 -0.042782 -0.210175
v -0.057493 -0.000979 -0.121353
v -0.057493 0.022693 -0.119022
v -0.057493 0.045455 -0.112118
v -0.057493 0.066433 -0.100906
v -0.057493 0.084820 -0.085815
v -0.057493 0.099909 -0.067429
v -0.057493 0.111122 -0.046452
v -0.057493 0.118027 -0.023689
v -0.057493 0.120358 -0.000019
v -0.057493 0.118027 0.023655
v -0.057493 0.111122 0.046417
v -0.057493 0.099909 0.067394
v -0.057493 0.084820 0.085781
v -0.057493 0.066432 0.100872
v -0.057493 0.045455 0.112083
v -0.057493 0.022693 0.118988
v -0.057493 -0.000979 0.121319
v -0.057493 -0.024651 0.118988
v -0.057493 -0.047413 0.112083
v -0.057493 -0.068390 0.100872
v -0.057493 -0.086777 0.085781
v -0.057493 -0.101867 0.067394
v -0.057493 -0.113080 0.046417
v -0.057493 -0.119985 0.023655
v -0.057493 -0.122316 -0.000019
v -0.057493 -0.119985 -0.023689
v -0.057493 -0.113080 -0.046452
v -0.057493 -0.101867 -0.067429
v -0.057493 -0.086777 -0.085815
v -0.057493 -0.068390 -0.100906
v -0.057493 -0.047413 -0.112118
v -0.057493 -0.024651 -0.119022
v -0.044452 -0.000979 -0.085354
v -0.044452 0.015670 -0.083717
v -0.044452 0.031679 -0.078857
v -0.044452 0.046432 -0.070972
v -0.044452 0.059364 -0.060360
v -0.044452 0.069977 -0.047428
v -0.044452 0.077863 -0.032673
v -0.044452 0.082719 -0.016666
v -0.044452 0.084359 -0.000019
v -0.044452 0.082719 0.016632
v -0.044452 0.077863 0.032639
v -0.044452 0.069977 0.047394
v -0.044452 0.059364 0.060326
v -0.044452 0.046432 0.070938
v -0.044452 0.031678 0.078827
v -0.044452 0.015670 0.083683
v -0.044452 -0.000979 0.085320
v -0.044452 -0.017628 0.083683
v -0.044452 -0.033637 0.078823
v -0.044452 -0.048390 0.070938
v -0.044452 -0.061322 0.060326
v -0.044452 -0.071935 0.047394
v -0.044452 -0.079821 0.032639
v -0.044452 -0.084677 0.016632
v -0.044452 -0.086317 -0.000019
v -0.044452 -0.084677 -0.016666
v -0.044452 -0.079821 -0.032673
v -0.044452 -0.071935 -0.047428
v -0.044452 -0.061322 -0.060360
v -0.044452 -0.048390 -0.070972
v -0.044452 -0.033636 -0.078857
v -0.044452 -0.017628 -0.083717
v -0.060338 -0.000979 -0.066006
v -0.060338 0.011895 -0.064739
v -0.060338 0.024274 -0.060982
v -0.060338 0.035682 -0.054886
v -0.060338 0.045682 -0.046677
v -0.060338 0.053888 -0.036678
v -0.060338 0.059986 -0.025269
v -0.060338 0.063742 -0.012890
v -0.060338 0.065009 -0.000019
v -0.060338 0.063742 0.012856
v -0.060338 0.059986 0.025234
v -0.060338 0.053888 0.036644
v -0.060338 0.045682 0.046642
v -0.060338 0.035682 0.054852
v -0.060338 0.024274 0.060947
v -0.060338 0.011895 0.064705
v -0.060338 -0.000979 0.065971
v -0.060338 -0.013853 0.064705
v -0.060338 -0.026232 0.060947
v -0.060338 -0.037640 0.054852
v -0.060338 -0.047640 0.046642
v -0.060338 -0.055846 0.036644
v -0.060338 -0.061944 0.025234
v -0.060338 -0.065699 0.012856
v -0.060338 -0.066967 -0.000019
v -0.060338 -0.065699 -0.012890
v -0.060338 -0.061944 -0.025269
v -0.060338 -0.055846 -0.036678
v -0.060338 -0.047640 -0.046677
v -0.060338 -0.037640 -0.054886
v -0.060338 -0.026232 -0.060982
v -0.060338 -0.013853 -0.064739
v -0.037650 -0.000979 -0.012730
v -0.037650 0.001501 -0.012486
v -0.037650 0.003886 -0.011761
v -0.037650 0.006083 -0.010586
v -0.037650 0.008010 -0.009007
v -0.037650 0.009591 -0.007080
v -0.037650 0.010765 -0.004883
v -0.037650 0.011489 -0.002499
v -0.037650 0.011733 -0.000019
v -0.037650 0.011489 0.002464
v -0.037650 0.010765 0.004848
v -0.037650 0.009591 0.007046
v -0.037650 0.008010 0.008972
v -0.037650 0.006083 0.010551
v -0.037650 0.003886 0.011726
v -0.037650 0.001501 0.012451
v -0.037650 -0.000979 0.012695
v -0.037650 -0.003459 0.012451
v -0.037650 -0.005844 0.011726
v -0.037650 -0.008042 0.010551
v -0.037650 -0.009968 0.008972
v -0.037650 -0.011549 0.007046
v -0.037650 -0.012723 0.004848
v -0.037650 -0.013447 0.002464
v -0.037650 -0.013691 -0.000019
v -0.037650 -0.013447 -0.002499
v -0.037650 -0.012723 -0.004883
v -0.037650 -0.011549 -0.007080
v -0.037650 -0.009968 -0.009007
v -0.037650 -0.008042 -0.010586
v -0.037650 -0.005844 -0.011761
v -0.037650 -0.003459 -0.012486
v 0.101962 -0.000979 -0.314999
v 0.101962 0.060471 -0.308945
v 0.101962 0.119558 -0.291019
v 0.101962 0.174014 -0.261913
v 0.101962 0.221745 -0.222740
v 0.101962 0.260917 -0.175011
v 0.101962 0.290024 -0.120556
v 0.101962 0.307948 -0.061466
v 0.101962 0.314001 -0.000015
v 0.101962 0.307948 0.061432
v 0.101962 0.290024 0.120522
v 0.101962 0.260917 0.174976
v 0.101962 0.221745 0.222706
v 0.101962 0.174014 0.261879
v 0.101962 0.119558 0.290985
v 0.101962 0.060470 0.308910
v 0.101962 -0.000979 0.314960
v 0.101962 -0.062429 0.308910
v 0.101962 -0.121517 0.290985
v 0.101962 -0.175972 0.261879
v 0.101962 -0.223703 0.222706
v 0.101962 -0.262875 0.174976
v 0.101962 -0.291982 0.120522
v 0.101962 -0.309906 0.061432
v 0.101962 -0.315958 -0.000019
v 0.101962 -0.309906 -0.061466
v 0.101962 -0.291982 -0.120556
v 0.101962 -0.262875 -0.175011
v 0.101962 -0.223703 -0.222740
v 0.101962 -0.175972 -0.261913
v 0.101962 -0.121516 -0.291019
v 0.101962 -0.062428 -0.308945
v 0.107450 -0.000979 -0.232838
v 0.107450 0.044442 -0.228363
v 0.107450 0.088118 -0.215115
v 0.107450 0.128369 -0.193600
v 0.107450 0.163650 -0.164646
v 0.107450 0.192604 -0.129364
v 0.107450 0.214119 -0.089115
v 0.107450 0.227368 -0.045437
v 0.107450 0.231842 -0.000015
v 0.107450 0.227368 0.045403
v 0.107450 0.214119 0.089081
v 0.107450 0.192604 0.129330
v 0.107450 0.163650 0.164612
v 0.107450 0.128369 0.193565
v 0.107450 0.088118 0.215080
v 0.107450 0.044442 0.228329
v 0.107450 -0.000979 0.232803
v 0.107450 -0.046400 0.228329
v 0.107450 -0.090075 0.215080
v 0.107450 -0.130327 0.193565
v 0.107450 -0.165608 0.164612
v 0.107450 -0.194562 0.129330
v 0.107450 -0.216077 0.089081
v 0.107450 -0.229326 0.045403
v 0.107450 -0.233799 -0.000019
v 0.107450 -0.229326 -0.045437
v 0.107450 -0.216077 -0.089115
v 0.107450 -0.194562 -0.129364
v 0.107450 -0.165608 -0.164646
v 0.107450 -0.130327 -0.193600
v 0.107450 -0.090075 -0.215115
v 0.107450 -0.046400 -0.228363
v 0.098172 -0.000979 -0.204185
v 0.098172 0.038852 -0.200264
v 0.098172 0.077153 -0.188644
v 0.098172 0.112451 -0.169777
v 0.098172 0.143390 -0.144386
v 0.098172 0.168780 -0.113445
v 0.098172 0.187648 -0.078148
v 0.098172 0.199266 -0.039848
v 0.098172 0.203189 -0.000019
v 0.098172 0.199266 0.039814
v 0.098172 0.187648 0.078114
v 0.098172 0.168780 0.113411
v 0.098172 0.143390 0.144352
v 0.098172 0.112451 0.169743
v 0.098172 0.077153 0.188610
v 0.098172 0.038852 0.200230
v 0.098172 -0.000979 0.204151
v 0.098172 -0.040811 0.200230
v 0.098172 -0.079111 0.188610
v 0.098172 -0.114409 0.169743
v 0.098172 -0.145348 0.144352
v 0.098172 -0.170739 0.113411
v 0.098172 -0.189606 0.078114
v 0.098172 -0.201224 0.039814
v 0.098172 -0.205147 -0.000019
v 0.098172 -0.201224 -0.039848
v 0.098172 -0.189606 -0.078148
v 0.098172 -0.170739 -0.113445
v 0.098172 -0.145348 -0.144386
v 0.098172 -0.114409 -0.169777
v 0.098172 -0.079111 -0.188644
v 0.098172 -0.040811 -0.200264
v 0.077538 -0.000979 -0.091675
v 0.077538 0.016902 -0.089912
v 0.077538 0.034096 -0.084698
v 0.077538 0.049943 -0.076229
v 0.077538 0.063832 -0.064827
v 0.077538 0.075231 -0.050938
v 0.077538 0.083701 -0.035091
v 0.077538 0.088917 -0.017899
v 0.077538 0.090678 -0.000019
v 0.077538 0.088917 0.017864
v 0.077538 0.083701 0.035057
v 0.077538 0.075231 0.050903
v 0.077538 0.063832 0.064793
v 0.077538 0.049943 0.076191
v 0.077538 0.034096 0.084663
v 0.077538 0.016902 0.089878
v 0.077538 -0.000979 0.091640
v 0.077538 -0.018861 0.089878
v 0.077538 -0.036055 0.084663
v 0.077538 -0.051901 0.076191
v 0.077538 -0.065791 0.064793
v 0.077538 -0.077189 0.050903
v 0.077538 -0.085659 0.035057
v 0.077538 -0.090875 0.017864
v 0.077538 -0.092636 -0.000019
v 0.077538 -0.090875 -0.017899
v 0.077538 -0.085659 -0.035091
v 0.077538 -0.077189 -0.050938
v 0.077538 -0.065791 -0.064827
v 0.077538 -0.051901 -0.076229
v 0.077538 -0.036055 -0.084698
v 0.077538 -0.018860 -0.089912
v 0.051709 -0.000979 -0.068718
v 0.051709 0.012424 -0.067398
v 0.051709 0.025311 -0.063488
v 0.051709 0.037188 -0.057140
v 0.051709 0.047599 -0.048595
v 0.051709 0.056143 -0.038185
v 0.051709 0.062491 -0.026306
v 0.051709 0.066401 -0.013420
v 0.051709 0.067721 -0.000019
v 0.051709 0.066401 0.013386
v 0.051709 0.062491 0.026272
v 0.051709 0.056143 0.038151
v 0.051709 0.047599 0.048561
v 0.051709 0.037188 0.057106
v 0.051709 0.025311 0.063454
v 0.051709 0.012424 0.067364
v 0.051709 -0.000979 0.068684
v 0.051709 -0.014382 0.067364
v 0.051709 -0.027270 0.063454
v 0.051709 -0.039147 0.057106
v 0.051709 -0.049557 0.048561
v 0.051709 -0.058101 0.038151
v 0.051709 -0.064449 0.026272
v 0.051709 -0.068359 0.013386
v 0.051709 -0.069679 -0.000019
v 0.051709 -0.068359 -0.013420
v 0.051709 -0.064449 -0.026306
v 0.051709 -0.058101 -0.038185
v 0.051709 -0.049557 -0.048595
v 0.051709 -0.039147 -0.057140
v 0.051709 -0.027269 -0.063488
v 0.051709 -0.014382 -0.067398
v 0.051709 0.013705 -0.009888
v 0.051709 0.015631 -0.009697
v 0.051709 0.017483 -0.009136
v 0.051709 0.019189 -0.008224
v 0.051709 0.020685 -0.006996
v 0.051709 0.021913 -0.005501
v 0.051709 0.022825 -0.003796
v 0.051709 0.023387 -0.001942
v 0.051709 0.023577 -0.000019
v 0.051709 0.023387 0.001907
v 0.051709 0.022825 0.003761
v 0.051709 0.021913 0.005466
v 0.051709 0.020685 0.006962
v 0.051709 0.019189 0.008190
v 0.051709 0.017483 0.009102
v 0.051709 0.015631 0.009663
v 0.051709 0.013705 0.009853
v 0.051709 0.011779 0.009663
v 0.051709 0.009928 0.009102
v 0.051709 0.008221 0.008190
v 0.051709 0.006725 0.006962
v 0.051709 0.005498 0.005466
v 0.051709 0.004585 0.003761
v 0.051709 0.004024 0.001907
v 0.051709 0.003834 -0.000019
v 0.051709 0.004024 -0.001942
v 0.051709 0.004585 -0.003796
v 0.051709 0.005498 -0.005501
v 0.051709 0.006725 -0.006996
v 0.051709 0.008221 -0.008224
v 0.051709 0.009928 -0.009136
v 0.051709 0.011779 -0.009697
vn -0.0000 0.7730 -0.6344
vn -0.0000 -0.0980 -0.9952
vn -0.0000 -0.4714 0.8819
vn -0.0000 0.8819 -0.4714
vn -0.0000 -0.6344 0.7730
vn -0.0000 0.9569 -0.2903
vn -0.0000 -0.7730 0.6344
vn -0.0000 0.9952 -0.0980
vn -0.0000 -0.8819 0.4714
vn -0.0000 0.9952 0.0980
vn -0.0000 -0.9569 0.2903
vn -0.0000 0.9569 0.2903
vn -0.0000 -0.9952 0.0980
vn -0.0000 0.8819 0.4714
vn -0.0000 -0.9952 -0.0980
vn -0.0000 0.7730 0.6344
vn -0.0000 -0.9569 -0.2903
vn -0.0000 0.6344 0.7730
vn -0.0000 -0.8819 -0.4714
vn -0.0000 0.4714 0.8819
vn -0.0000 0.0980 -0.9952
vn -0.0000 -0.7730 -0.6344
vn -0.0000 0.2903 0.9569
vn -0.0000 0.2903 -0.9569
vn -0.0000 -0.6344 -0.7730
vn -0.0000 0.0980 0.9952
vn -0.0000 0.4714 -0.8819
vn -0.0000 -0.4714 -0.8819
vn -0.0000 -0.0980 0.9952
vn -0.0000 0.6344 -0.7730
vn -0.0000 -0.2903 -0.9569
vn -0.0000 -0.2903 0.9569
vn -0.8730 -0.4302 -0.2299
vn -0.8730 0.2300 0.4302
vn -0.8730 0.0478 -0.4854
vn -0.8730 -0.3771 -0.3094
vn -0.8730 0.1416 0.4668
vn -0.8730 0.1416 -0.4668
vn -0.8730 -0.3094 -0.3770
vn -0.8730 0.0478 0.4854
vn -0.8730 0.2300 -0.4302
vn -0.8730 -0.2299 -0.4302
vn -0.8730 -0.0478 0.4854
vn -0.8730 0.3094 -0.3771
vn -0.8730 -0.1416 -0.4668
vn -0.8730 -0.1416 0.4668
vn -0.8730 0.3771 -0.3094
vn -0.8730 -0.0478 -0.4854
vn -0.8730 -0.2300 0.4302
vn -0.8730 0.4302 -0.2299
vn -0.8730 -0.3094 0.3771
vn -0.8730 0.4668 -0.1416
vn -0.8730 -0.3771 0.3094
vn -0.8730 0.4854 -0.0478
vn -0.8730 -0.4302 0.2299
vn -0.8730 0.4854 0.0478
vn -0.8730 -0.4668 0.1416
vn -0.8730 0.4668 0.1416
vn -0.8730 -0.4854 0.0478
vn -0.8730 0.4302 0.2299
vn -0.8730 -0.4854 -0.0478
vn -0.8730 0.3771 0.3094
vn -0.8730 -0.4668 -0.1416
vn -0.8730 0.3094 0.3771
vn -0.9998 -0.0100 0.0149
vn -0.9998 -0.0069 0.0165
vn -0.9998 0.0069 0.0165
vn -0.9998 0.0100 0.0149
vn -0.9998 0.0035 -0.0176
vn -0.9998 -0.0000 -0.0179
vn -0.9998 -0.0127 0.0127
vn -0.9998 0.0035 0.0176
vn -0.9998 0.0069 -0.0165
vn -0.9998 -0.0149 0.0100
vn -0.9998 -0.0000 0.0179
vn -0.9998 0.0100 -0.0149
vn -0.9998 -0.0166 0.0069
vn -0.9998 0.0127 -0.0127
vn -0.9998 -0.0176 0.0035
vn -0.9998 0.0149 -0.0100
vn -0.9998 -0.0179 -0.0000
vn -0.9998 0.0166 -0.0069
vn -0.9998 -0.0176 -0.0035
vn -0.9998 0.0176 -0.0035
vn -0.9998 -0.0166 -0.0069
vn -0.9998 0.0179 -0.0000
vn -0.9998 -0.0149 -0.0100
vn -0.9998 0.0176 0.0035
vn -0.9998 -0.0127 -0.0127
vn -0.9998 0.0166 0.0069
vn -0.9998 -0.0100 -0.0149
vn -0.9998 0.0149 0.0100
vn -0.9998 -0.0069 -0.0165
vn -0.9998 -0.0035 0.0176
vn -0.9998 0.0127 0.0127
vn -0.9998 -0.0035 -0.0176
vn -0.8381 -0.4812 0.2572
vn -0.8381 0.3461 -0.4217
vn -0.8380 -0.5221 0.1584
vn -0.8381 0.4217 -0.3461
vn -0.8380 -0.5430 0.0535
vn -0.8381 0.4812 -0.2572
vn -0.8380 -0.5430 -0.0535
vn -0.8380 0.5221 -0.1584
vn -0.8380 -0.5221 -0.1584
vn -0.8380 0.5430 -0.0535
vn -0.8381 -0.4812 -0.2572
vn -0.8380 0.5430 0.0535
vn -0.8381 -0.4217 -0.3461
vn -0.8380 0.5221 0.1584
vn -0.8381 -0.3461 -0.4217
vn -0.8381 0.4812 0.2572
vn -0.8380 -0.2572 -0.4812
vn -0.8380 -0.0535 0.5430
vn -0.8381 0.4217 0.3461
vn -0.8380 -0.1584 -0.5221
vn -0.8380 -0.1584 0.5221
vn -0.8381 0.3461 0.4217
vn -0.8381 -0.0535 -0.5430
vn -0.8380 -0.2572 0.4812
vn -0.8380 0.2572 0.4812
vn -0.8381 0.0535 -0.5430
vn -0.8381 -0.3461 0.4217
vn -0.8380 0.1584 0.5221
vn -0.8380 0.1584 -0.5221
vn -0.8381 -0.4217 0.3461
vn -0.8380 0.0535 0.5430
vn -0.8380 0.2572 -0.4812
vn -0.9518 -0.3052 -0.0301
vn -0.9518 0.2935 -0.0890
vn -0.9518 -0.2935 -0.0890
vn -0.9518 0.3052 -0.0301
vn -0.9518 -0.2705 -0.1446
vn -0.9518 0.3052 0.0301
vn -0.9518 -0.2371 -0.1946
vn -0.9518 0.2935 0.0890
vn -0.9518 -0.1946 -0.2371
vn -0.9518 0.2705 0.1446
vn -0.9518 -0.1446 -0.2705
vn -0.9518 -0.0301 0.3052
vn -0.9518 0.2371 0.1946
vn -0.9518 -0.0890 -0.2935
vn -0.9518 -0.0890 0.2935
vn -0.9518 0.1946 0.2371
vn -0.9518 -0.0301 -0.3052
vn -0.9518 -0.1446 0.2705
vn -0.9518 0.1446 0.2705
vn -0.9518 0.0301 -0.3052
vn -0.9518 -0.1946 0.2371
vn -0.9518 0.0890 0.2935
vn -0.9518 0.0890 -0.2935
vn -0.9518 -0.2371 0.1946
vn -0.9518 0.0301 0.3052
vn -0.9518 0.1446 -0.2705
vn -0.9518 -0.2705 0.1446
vn -0.9518 0.1946 -0.2371
vn -0.9518 -0.2935 0.0890
vn -0.9518 0.2371 -0.1946
vn -0.9518 -0.3052 0.0301
vn -0.9518 0.2705 -0.1446
vn -0.9397 -0.2644 -0.2170
vn -0.9397 0.3273 0.0993
vn -0.9397 -0.2170 -0.2644
vn -0.9397 0.3017 0.1612
vn -0.9397 -0.1613 -0.3017
vn -0.9397 -0.0335 0.3404
vn -0.9397 0.2644 0.2170
vn -0.9397 -0.0993 -0.3274
vn -0.9397 -0.0993 0.3273
vn -0.9397 0.2170 0.2644
vn -0.9397 -0.0335 -0.3404
vn -0.9397 -0.1612 0.3017
vn -0.9397 0.1612 0.3017
vn -0.9397 0.0335 -0.3404
vn -0.9397 -0.2170 0.2644
vn -0.9397 0.0993 0.3273
vn -0.9397 0.0993 -0.3273
vn -0.9397 -0.2644 0.2170
vn -0.9397 0.0335 0.3404
vn -0.9397 0.1612 -0.3017
vn -0.9397 -0.3017 0.1612
vn -0.9397 0.2170 -0.2644
vn -0.9397 -0.3273 0.0993
vn -0.9397 0.2644 -0.2170
vn -0.9397 -0.3404 0.0335
vn -0.9397 0.3017 -0.1612
vn -0.9397 -0.3404 -0.0335
vn -0.9397 0.3273 -0.0993
vn -0.9397 -0.3273 -0.0993
vn -0.9397 0.3404 -0.0335
vn -0.9397 -0.3017 -0.1612
vn -0.9397 0.3404 0.0335
vn -0.7714 0.1848 0.6089
vn -0.7714 0.1849 -0.6089
vn -0.7714 -0.4037 -0.4919
vn -0.7714 0.0623 0.6333
vn -0.7714 0.2999 -0.5613
vn -0.7714 -0.2999 -0.5613
vn -0.7714 -0.0623 0.6333
vn -0.7714 0.4037 -0.4919
vn -0.7714 -0.1849 -0.6089
vn -0.7714 -0.1849 0.6089
vn -0.7714 0.4919 -0.4037
vn -0.7714 -0.0623 -0.6333
vn -0.7714 -0.2999 0.5613
vn -0.7714 0.5612 -0.3000
vn -0.7714 -0.4037 0.4919
vn -0.7714 0.6090 -0.1847
vn -0.7714 -0.4919 0.4037
vn -0.7714 0.6333 -0.0624
vn -0.7714 -0.5613 0.3000
vn -0.7714 0.6333 0.0624
vn -0.7714 -0.6090 0.1848
vn -0.7714 0.6090 0.1847
vn -0.7714 -0.6333 0.0624
vn -0.7714 0.5612 0.3000
vn -0.7714 -0.6333 -0.0624
vn -0.7714 0.4919 0.4037
vn -0.7714 -0.6090 -0.1848
vn -0.7714 0.4037 0.4919
vn -0.7714 -0.5613 -0.3000
vn -0.7714 0.3000 0.5612
vn -0.7714 0.0623 -0.6333
vn -0.7714 -0.4919 -0.4037
vn -0.9194 0.1143 -0.3764
vn -0.9194 -0.3041 0.2496
vn -0.9194 0.0385 0.3915
vn -0.9194 0.1854 -0.3470
vn -0.9194 -0.3470 0.1855
vn -0.9194 0.2496 -0.3041
vn -0.9194 -0.3765 0.1142
vn -0.9194 0.3041 -0.2496
vn -0.9194 -0.3915 0.0386
vn -0.9194 0.3470 -0.1854
vn -0.9194 -0.3915 -0.0386
vn -0.9194 0.3765 -0.1142
vn -0.9194 -0.3765 -0.1142
vn -0.9194 0.3915 -0.0386
vn -0.9194 -0.3470 -0.1855
vn -0.9194 0.3915 0.0386
vn -0.9194 -0.3041 -0.2496
vn -0.9194 0.3765 0.1142
vn -0.9194 -0.2496 -0.3041
vn -0.9194 0.3470 0.1854
vn -0.9194 -0.1854 -0.3470
vn -0.9194 -0.0385 0.3915
vn -0.9194 0.3041 0.2496
vn -0.9194 -0.1143 -0.3764
vn -0.9194 -0.1143 0.3764
vn -0.9194 0.2496 0.3041
vn -0.9194 -0.0385 -0.3915
vn -0.9194 -0.1854 0.3470
vn -0.9194 0.1854 0.3470
vn -0.9194 0.0385 -0.3915
vn -0.9194 -0.2496 0.3041
vn -0.9194 0.1143 0.3764
vn 0.8309 0.4301 -0.3530
vn 0.8309 -0.0545 -0.5537
vn 0.8309 -0.2623 0.4907
vn 0.8309 0.4907 -0.2623
vn 0.8309 -0.3530 0.4301
vn 0.8309 0.5324 -0.1615
vn 0.8309 -0.4301 0.3530
vn 0.8309 0.5537 -0.0545
vn 0.8309 -0.4907 0.2623
vn 0.8309 0.5537 0.0545
vn 0.8309 -0.5324 0.1615
vn 0.8309 0.5324 0.1615
vn 0.8309 -0.5537 0.0545
vn 0.8309 0.4907 0.2623
vn 0.8309 -0.5537 -0.0545
vn 0.8309 0.4301 0.3530
vn 0.8309 -0.5324 -0.1615
vn 0.8309 0.3530 0.4301
vn 0.8309 -0.4907 -0.2623
vn 0.8309 0.2623 0.4907
vn 0.8309 0.0545 -0.5537
vn 0.8309 -0.4301 -0.3530
vn 0.8309 0.1615 0.5324
vn 0.8309 0.1615 -0.5324
vn 0.8309 -0.3530 -0.4301
vn 0.8309 0.0545 0.5537
vn 0.8309 0.2623 -0.4907
vn 0.8309 -0.2623 -0.4907
vn 0.8309 -0.0545 0.5537
vn 0.8309 0.3530 -0.4301
vn 0.8309 -0.1615 -0.5324
vn 0.8309 -0.1615 0.5324
vn 0.9978 -0.0654 0.0130
vn 0.9978 -0.0667 -0.0000
vn 0.9978 0.0616 0.0255
vn 0.9978 0.0554 0.0370
vn 0.9978 -0.0654 -0.0130
vn 0.9978 0.0471 0.0471
vn 0.9978 -0.0616 -0.0255
vn 0.9978 0.0370 0.0554
vn 0.9978 -0.0554 -0.0370
vn 0.9978 0.0255 0.0616
vn 0.9978 -0.0000 -0.0667
vn 0.9978 0.0130 -0.0654
vn 0.9978 -0.0471 -0.0471
vn 0.9978 0.0130 0.0654
vn 0.9978 0.0255 -0.0616
vn 0.9978 -0.0370 -0.0554
vn 0.9978 -0.0000 0.0667
vn 0.9978 0.0370 -0.0554
vn 0.9978 -0.0255 -0.0616
vn 0.9978 -0.0130 0.0654
vn 0.9978 0.0471 -0.0471
vn 0.9978 -0.0130 -0.0654
vn 0.9978 -0.0255 0.0616
vn 0.9978 0.0554 -0.0370
vn 0.9978 -0.0370 0.0554
vn 0.9978 0.0616 -0.0255
vn 0.9978 -0.0471 0.0471
vn 0.9978 0.0654 -0.0130
vn 0.9978 -0.0554 0.0370
vn 0.9978 0.0667 -0.0000
vn 0.9978 -0.0616 0.0255
vn 0.9978 0.0654 0.0130
vn 0.9509 0.2729 0.1459
vn 0.9509 -0.1459 -0.2729
vn 0.9509 -0.0303 0.3079
vn 0.9509 0.2392 0.1963
vn 0.9509 -0.0898 -0.2961
vn 0.9509 -0.0898 0.2961
vn 0.9509 0.1963 0.2392
vn 0.9509 -0.0303 -0.3079
vn 0.9509 -0.1459 0.2729
vn 0.9509 0.1459 0.2729
vn 0.9509 0.0303 -0.3079
vn 0.9509 -0.1963 0.2392
vn 0.9509 0.0898 0.2961
vn 0.9509 0.0898 -0.2961
vn 0.9509 -0.2392 0.1963
vn 0.9509 0.0303 0.3079
vn 0.9509 0.1459 -0.2729
vn 0.9509 -0.2729 0.1459
vn 0.9509 0.1963 -0.2392
vn 0.9509 -0.2961 0.0898
vn 0.9509 0.2392 -0.1963
vn 0.9509 -0.3079 0.0303
vn 0.9509 0.2729 -0.1459
vn 0.9509 -0.3079 -0.0303
vn 0.9509 0.2961 -0.0898
vn 0.9509 -0.2961 -0.0898
vn 0.9509 0.3079 -0.0303
vn 0.9509 -0.2729 -0.1459
vn 0.9509 0.3079 0.0303
vn 0.9509 -0.2392 -0.1963
vn 0.9509 0.2961 0.0898
vn 0.9509 -0.1963 -0.2392
vn 0.9834 -0.0854 0.1598
vn 0.9834 0.0854 0.1598
vn 0.9834 0.0178 -0.1804
vn 0.9834 -0.1150 0.1401
vn 0.9834 0.0526 0.1734
vn 0.9834 0.0526 -0.1734
vn 0.9834 -0.1401 0.1150
vn 0.9834 0.0854 -0.1598
vn 0.9834 -0.1598 0.0854
vn 0.9834 0.1150 -0.1401
vn 0.9834 -0.1734 0.0526
vn 0.9834 0.1401 -0.1150
vn 0.9834 -0.1804 0.0178
vn 0.9834 0.1598 -0.0854
vn 0.9834 -0.1804 -0.0178
vn 0.9834 0.1734 -0.0526
vn 0.9834 -0.1734 -0.0526
vn 0.9834 0.1804 -0.0178
vn 0.9834 -0.1598 -0.0854
vn 0.9834 0.1804 0.0178
vn 0.9834 -0.1401 -0.1150
vn 0.9834 0.1734 0.0526
vn 0.9834 -0.1150 -0.1401
vn 0.9834 0.1598 0.0854
vn 0.9834 -0.0854 -0.1598
vn 0.9834 -0.0178 0.1804
vn 0.9834 0.0178 0.1804
vn 0.9834 0.1401 0.1150
vn 0.9834 -0.0526 -0.1734
vn 0.9834 -0.0526 0.1734
vn 0.9834 0.1150 0.1401
vn 0.9834 -0.0178 -0.1804
vn 0.6625 -0.7168 -0.2175
vn 0.6625 0.7454 -0.0734
vn 0.6625 -0.6606 -0.3531
vn 0.6625 0.7454 0.0734
vn 0.6625 -0.5790 -0.4752
vn 0.6625 0.7168 0.2175
vn 0.6625 -0.4752 -0.5790
vn 0.6625 0.6606 0.3531
vn 0.6625 -0.3531 -0.6606
vn 0.6625 -0.0734 0.7454
vn 0.6625 0.5790 0.4752
vn 0.6625 -0.2174 -0.7168
vn 0.6625 -0.2174 0.7168
vn 0.6625 0.4752 0.5790
vn 0.6625 -0.0734 -0.7454
vn 0.6625 -0.3530 0.6606
vn 0.6625 0.3530 0.6606
vn 0.6625 0.0734 -0.7454
vn 0.6625 -0.4752 0.5790
vn 0.6625 0.2174 0.7168
vn 0.6625 0.2174 -0.7168
vn 0.6625 -0.5790 0.4752
vn 0.6625 0.0734 0.7454
vn 0.6625 0.3531 -0.6606
vn 0.6625 -0.6606 0.3531
vn 0.6625 0.4752 -0.5790
vn 0.6625 -0.7168 0.2175
vn 0.6625 0.5790 -0.4752
vn 0.6625 -0.7454 0.0734
vn 0.6625 0.6606 -0.3531
vn 0.6625 -0.7454 -0.0734
vn 0.6625 0.7168 -0.2175
vn 1.0000 -0.0000 -0.0000
vt 0.924324 0.453572
vt 0.981593 0.629960
vt 0.973575 0.503968
s 1
usemtl Material.001
f 6/1/1 5/1/1 37/1/1 38/1/1
f 1/1/2 32/1/2 64/1/2 33/1/2
f 20/1/3 19/1/3 51/1/3 52/1/3
f 7/1/4 6/1/4 38/1/4 39/1/4
f 21/1/5 20/1/5 52/1/5 53/1/5
f 8/1/6 7/1/6 39/1/6 40/1/6
f 22/1/7 21/1/7 53/1/7 54/1/7
f 9/1/8 8/1/8 40/1/8 41/1/8
f 23/1/9 22/1/9 54/1/9 55/1/9
f 10/1/10 9/1/10 41/1/10 42/1/10
f 24/1/11 23/1/11 55/1/11 56/1/11
f 11/1/12 10/1/12 42/1/12 43/1/12
f 25/1/13 24/1/13 56/1/13 57/1/13
f 12/1/14 11/1/14 43/1/14 44/1/14
f 26/1/15 25/1/15 57/1/15 58/1/15
f 13/1/16 12/1/16 44/1/16 45/1/16
f 27/1/17 26/1/17 58/1/17 59/1/17
f 14/1/18 13/1/18 45/1/18 46/1/18
f 28/1/19 27/1/19 59/1/19 60/1/19
f 15/1/20 14/1/20 46/1/20 47/1/20
f 2/1/21 1/1/21 33/1/21 34/1/21
f 29/1/22 28/1/22 60/1/22 61/1/22
f 16/1/23 15/1/23 47/1/23 48/1/23
f 3/1/24 2/1/24 34/1/24 35/1/24
f 30/1/25 29/1/25 61/1/25 62/1/25
f 17/1/26 16/1/26 48/1/26 49/1/26
f 4/1/27 3/1/27 35/1/27 36/1/27
f 31/1/28 30/1/28 62/1/28 63/1/28
f 18/1/29 17/1/29 49/1/29 50/1/29
f 5/1/30 4/1/30 36/1/30 37/1/30
f 32/1/31 31/1/31 63/1/31 64/1/31
f 19/1/32 18/1/32 50/1/32 51/1/32
f 60/1/33 59/1/33 91/1/33 92/1/33
f 47/1/34 46/1/34 78/1/34 79/1/34
f 34/1/35 33/1/35 65/1/35 66/1/35
f 61/1/36 60/1/36 92/1/36 93/1/36
f 48/1/37 47/1/37 79/1/37 80/1/37
f 35/1/38 34/1/38 66/1/38 67/1/38
f 62/1/39 61/1/39 93/1/39 94/1/39
f 49/1/40 48/1/40 80/1/40 81/1/40
f 36/1/41 35/1/41 67/1/41 68/1/41
f 63/1/42 62/1/42 94/1/42 95/1/42
f 50/1/43 49/1/43 81/1/43 82/1/43
f 37/1/44 36/1/44 68/1/44 69/1/44
f 64/1/45 63/1/45 95/1/45 96/1/45
f 51/1/46 50/1/46 82/1/46 83/1/46
f 38/1/47 37/1/47 69/1/47 70/1/47
f 33/1/48 64/1/48 96/1/48 65/1/48
f 52/1/49 51/1/49 83/1/49 84/1/49
f 39/1/50 38/1/50 70/1/50 71/1/50
f 53/1/51 52/1/51 84/1/51 85/1/51
f 40/1/52 39/1/52 71/1/52 72/1/52
f 54/1/53 53/1/53 85/1/53 86/1/53
f 41/1/54 40/1/54 72/1/54 73/1/54
f 55/1/55 54/1/55 86/1/55 87/1/55
f 42/1/56 41/1/56 73/1/56 74/1/56
f 56/1/57 55/1/57 87/1/57 88/1/57
f 43/1/58 42/1/58 74/1/58 75/1/58
f 57/1/59 56/1/59 88/1/59 89/1/59
f 44/1/60 43/1/60 75/1/60 76/1/60
f 58/1/61 57/1/61 89/1/61 90/1/61
f 45/1/62 44/1/62 76/1/62 77/1/62
f 59/1/63 58/1/63 90/1/63 91/1/63
f 46/1/64 45/1/64 77/1/64 78/1/64
f 68/1/65 67/1/66 99/1/66 100/1/65
f 95/1/67 94/1/68 126/1/68 127/1/67
f 82/1/69 81/1/70 113/1/70 114/1/69
f 69/1/71 68/1/65 100/1/65 101/1/71
f 96/1/72 95/1/67 127/1/67 128/1/72
f 83/1/73 82/1/69 114/1/69 115/1/73
f 70/1/74 69/1/71 101/1/71 102/1/74
f 65/1/75 96/1/72 128/1/72 97/1/75
f 84/1/76 83/1/73 115/1/73 116/1/76
f 71/1/77 70/1/74 102/1/74 103/1/77
f 85/1/78 84/1/76 116/1/76 117/1/78
f 72/1/79 71/1/77 103/1/77 104/1/79
f 86/1/80 85/1/78 117/1/78 118/1/80
f 73/1/81 72/1/79 104/1/79 105/1/81
f 87/1/82 86/1/80 118/1/80 119/1/82
f 74/1/83 73/1/81 105/1/81 106/1/83
f 88/1/84 87/1/82 119/1/82 120/1/84
f 75/1/85 74/1/83 106/1/83 107/1/85
f 89/1/86 88/1/84 120/1/84 121/1/86
f 76/1/87 75/1/85 107/1/85 108/1/87
f 90/1/88 89/1/86 121/1/86 122/1/88
f 77/1/89 76/1/87 108/1/87 109/1/89
f 91/1/90 90/1/88 122/1/88 123/1/90
f 78/1/91 77/1/89 109/1/89 110/1/91
f 92/1/92 91/1/90 123/1/90 124/1/92
f 79/1/93 78/1/91 110/1/91 111/1/93
f 66/1/94 65/1/75 97/1/75 98/1/94
f 93/1/95 92/1/92 124/1/92 125/1/95
f 80/1/96 79/1/93 111/1/93 112/1/96
f 67/1/66 66/1/94 98/1/94 99/1/66
f 94/1/68 93/1/95 125/1/95 126/1/68
f 81/1/70 80/1/96 112/1/96 113/1/70
f 103/1/97 102/1/97 134/1/97 135/1/97
f 117/1/98 116/1/98 148/1/98 149/1/98
f 104/1/99 103/1/99 135/1/99 136/1/99
f 118/1/100 117/1/100 149/1/100 150/1/100
f 105/1/101 104/1/101 136/1/101 137/1/101
f 119/1/102 118/1/102 150/1/102 151/1/102
f 106/1/103 105/1/103 137/1/103 138/1/103
f 120/1/104 119/1/104 151/1/104 152/1/104
f 107/1/105 106/1/105 138/1/105 139/1/105
f 121/1/106 120/1/106 152/1/106 153/1/106
f 108/1/107 107/1/107 139/1/107 140/1/107
f 122/1/108 121/1/108 153/1/108 154/1/108
f 109/1/109 108/1/109 140/1/109 141/1/109
f 123/1/110 122/1/110 154/1/110 155/1/110
f 110/1/111 109/1/111 141/1/111 142/1/111
f 124/1/112 123/1/112 155/1/112 156/1/112
f 111/1/113 110/1/113 142/1/113 143/1/113
f 98/1/114 97/1/114 129/1/114 130/1/114
f 125/1/115 124/1/115 156/1/115 157/1/115
f 112/1/116 111/1/116 143/1/116 144/1/116
f 99/1/117 98/1/117 130/1/117 131/1/117
f 126/1/118 125/1/118 157/1/118 158/1/118
f 113/1/119 112/1/119 144/1/119 145/1/119
f 100/1/120 99/1/120 131/1/120 132/1/120
f 127/1/121 126/1/121 158/1/121 159/1/121
f 114/1/122 113/1/122 145/1/122 146/1/122
f 101/1/123 100/1/123 132/1/123 133/1/123
f 128/1/124 127/1/124 159/1/124 160/1/124
f 115/1/125 114/1/125 146/1/125 147/1/125
f 102/1/126 101/1/126 133/1/126 134/1/126
f 97/1/127 128/1/127 160/1/127 129/1/127
f 116/1/128 115/1/128 147/1/128 148/1/128
f 138/2/129 137/2/129 169/2/129 170/2/129
f 152/2/130 151/2/130 183/2/130 184/2/130
f 139/2/131 138/2/131 170/2/131 171/2/131
f 153/2/132 152/2/132 184/2/132 185/2/132
f 140/2/133 139/2/133 171/2/133 172/2/133
f 154/2/134 153/2/134 185/2/134 186/2/134
f 141/2/135 140/2/135 172/2/135 173/2/135
f 155/2/136 154/2/136 186/2/136 187/2/136
f 142/2/137 141/2/137 173/2/137 174/2/137
f 156/2/138 155/2/138 187/2/138 188/2/138
f 143/2/139 142/2/139 174/2/139 175/2/139
f 130/2/140 129/2/140 161/2/140 162/2/140
f 157/2/141 156/2/141 188/2/141 189/2/141
f 144/2/142 143/2/142 175/2/142 176/2/142
f 131/2/143 130/2/143 162/2/143 163/2/143
f 158/2/144 157/2/144 189/2/144 190/2/144
f 145/2/145 144/2/145 176/2/145 177/2/145
f 132/2/146 131/2/146 163/2/146 164/2/146
f 159/2/147 158/2/147 190/2/147 191/2/147
f 146/2/148 145/2/148 177/2/148 178/2/148
f 133/2/149 132/2/149 164/2/149 165/2/149
f 160/2/150 159/2/150 191/2/150 192/2/150
f 147/2/151 146/2/151 178/2/151 179/2/151
f 134/2/152 133/2/152 165/2/152 166/2/152
f 129/2/153 160/2/153 192/2/153 161/2/153
f 148/2/154 147/2/154 179/2/154 180/2/154
f 135/2/155 134/2/155 166/2/155 167/2/155
f 149/2/156 148/2/156 180/2/156 181/2/156
f 136/2/157 135/2/157 167/2/157 168/2/157
f 150/2/158 149/2/158 181/2/158 182/2/158
f 137/2/159 136/2/159 168/2/159 169/2/159
f 151/2/160 150/2/160 182/2/160 183/2/160
f 173/2/161 172/2/161 204/2/161 205/2/161
f 187/2/162 186/2/162 218/2/162 219/2/162
f 174/2/163 173/2/163 205/2/163 206/2/163
f 188/2/164 187/2/164 219/2/164 220/2/164
f 175/2/165 174/2/165 206/2/165 207/2/165
f 162/2/166 161/2/166 193/2/166 194/2/166
f 189/2/167 188/2/167 220/2/167 221/2/167
f 176/2/168 175/2/168 207/2/168 208/2/168
f 163/2/169 162/2/169 194/2/169 195/2/169
f 190/2/170 189/2/170 221/2/170 222/2/170
f 177/2/171 176/2/171 208/2/171 209/2/171
f 164/2/172 163/2/172 195/2/172 196/2/172
f 191/2/173 190/2/173 222/2/173 223/2/173
f 178/2/174 177/2/174 209/2/174 210/2/174
f 165/2/175 164/2/175 196/2/175 197/2/175
f 192/2/176 191/2/176 223/2/176 224/2/176
f 179/2/177 178/2/177 210/2/177 211/2/177
f 166/2/178 165/2/178 197/2/178 198/2/178
f 161/2/179 192/2/179 224/2/179 193/2/179
f 180/2/180 179/2/180 211/2/180 212/2/180
f 167/2/181 166/2/181 198/2/181 199/2/181
f 181/2/182 180/2/182 212/2/182 213/2/182
f 168/2/183 167/2/183 199/2/183 200/2/183
f 182/2/184 181/2/184 213/2/184 214/2/184
f 169/2/185 168/2/185 200/2/185 201/2/185
f 183/2/186 182/2/186 214/2/186 215/2/186
f 170/2/187 169/2/187 201/2/187 202/2/187
f 184/2/188 183/2/188 215/2/188 216/2/188
f 171/2/189 170/2/189 202/2/189 203/2/189
f 185/2/190 184/2/190 216/2/190 217/2/190
f 172/2/191 171/2/191 203/2/191 204/2/191
f 186/2/192 185/2/192 217/2/192 218/2/192
f 208/2/193 207/2/193 239/2/193 240/2/193
f 195/2/194 194/2/194 226/2/194 227/2/194
f 222/2/195 221/2/195 253/2/195 254/2/195
f 209/2/196 208/2/196 240/2/196 241/2/196
f 196/2/197 195/2/197 227/2/197 228/2/197
f 223/2/198 222/2/198 254/2/198 255/2/198
f 210/2/199 209/2/199 241/2/199 242/2/199
f 197/2/200 196/2/200 228/2/200 229/2/200
f 224/2/201 223/2/201 255/2/201 256/2/201
f 211/2/202 210/2/202 242/2/202 243/2/202
f 198/2/203 197/2/203 229/2/203 230/2/203
f 193/2/204 224/2/204 256/2/204 225/2/204
f 212/2/205 211/2/205 243/2/205 244/2/205
f 199/2/206 198/2/206 230/2/206 231/2/206
f 213/2/207 212/2/207 244/2/207 245/2/207
f 200/2/208 199/2/208 231/2/208 232/2/208
f 214/2/209 213/2/209 245/2/209 246/2/209
f 201/2/210 200/2/210 232/2/210 233/2/210
f 215/2/211 214/2/211 246/2/211 247/2/211
f 202/2/212 201/2/212 233/2/212 234/2/212
f 216/2/213 215/2/213 247/2/213 248/2/213
f 203/2/214 202/2/214 234/2/214 235/2/214
f 217/2/215 216/2/215 248/2/215 249/2/215
f 204/2/216 203/2/216 235/2/216 236/2/216
f 218/2/217 217/2/217 249/2/217 250/2/217
f 205/2/218 204/2/218 236/2/218 237/2/218
f 219/2/219 218/2/219 250/2/219 251/2/219
f 206/2/220 205/2/220 237/2/220 238/2/220
f 220/2/221 219/2/221 251/2/221 252/2/221
f 207/2/222 206/2/222 238/2/222 239/2/222
f 194/2/223 193/2/223 225/2/223 226/2/223
f 221/2/224 220/2/224 252/2/224 253/2/224
f 243/2/225 242/2/225 274/2/225 275/2/225
f 230/2/226 229/2/226 261/2/226 262/2/226
f 225/2/227 256/2/227 288/2/227 257/2/227
f 244/2/228 243/2/228 275/2/228 276/2/228
f 231/2/229 230/2/229 262/2/229 263/2/229
f 245/2/230 244/2/230 276/2/230 277/2/230
f 232/2/231 231/2/231 263/2/231 264/2/231
f 246/2/232 245/2/232 277/2/232 278/2/232
f 233/2/233 232/2/233 264/2/233 265/2/233
f 247/2/234 246/2/234 278/2/234 279/2/234
f 234/2/235 233/2/235 265/2/235 266/2/235
f 248/2/236 247/2/236 279/2/236 280/2/236
f 235/2/237 234/2/237 266/2/237 267/2/237
f 249/2/238 248/2/238 280/2/238 281/2/238
f 236/2/239 235/2/239 267/2/239 268/2/239
f 250/2/240 249/2/240 281/2/240 282/2/240
f 237/2/241 236/2/241 268/2/241 269/2/241
f 251/2/242 250/2/242 282/2/242 283/2/242
f 238/2/243 237/2/243 269/2/243 270/2/243
f 252/2/244 251/2/244 283/2/244 284/2/244
f 239/2/245 238/2/245 270/2/245 271/2/245
f 226/2/246 225/2/246 257/2/246 258/2/246
f 253/2/247 252/2/247 284/2/247 285/2/247
f 240/2/248 239/2/248 271/2/248 272/2/248
f 227/2/249 226/2/249 258/2/249 259/2/249
f 254/2/250 253/2/250 285/2/250 286/2/250
f 241/2/251 240/2/251 272/2/251 273/2/251
f 228/2/252 227/2/252 259/2/252 260/2/252
f 255/2/253 254/2/253 286/2/253 287/2/253
f 242/2/254 241/2/254 273/2/254 274/2/254
f 229/2/255 228/2/255 260/2/255 261/2/255
f 256/2/256 255/2/256 287/2/256 288/2/256
f 5/1/257 6/1/257 294/1/257 293/1/257
f 32/1/258 1/1/258 289/1/258 320/1/258
f 19/1/259 20/1/259 308/1/259 307/1/259
f 6/1/260 7/1/260 295/1/260 294/1/260
f 20/1/261 21/1/261 309/1/261 308/1/261
f 7/1/262 8/1/262 296/1/262 295/1/262
f 21/1/263 22/1/263 310/1/263 309/1/263
f 8/1/264 9/1/264 297/1/264 296/1/264
f 22/1/265 23/1/265 311/1/265 310/1/265
f 9/1/266 10/1/266 298/1/266 297/1/266
f 23/1/267 24/1/267 312/1/267 311/1/267
f 10/1/268 11/1/268 299/1/268 298/1/268
f 24/1/269 25/1/269 313/1/269 312/1/269
f 11/1/270 12/1/270 300/1/270 299/1/270
f 25/1/271 26/1/271 314/1/271 313/1/271
f 12/1/272 13/1/272 301/1/272 300/1/272
f 26/1/273 27/1/273 315/1/273 314/1/273
f 13/1/274 14/1/274 302/1/274 301/1/274
f 27/1/275 28/1/275 316/1/275 315/1/275
f 14/1/276 15/1/276 303/1/276 302/1/276
f 1/1/277 2/1/277 290/1/277 289/1/277
f 28/1/278 29/1/278 317/1/278 316/1/278
f 15/1/279 16/1/279 304/1/279 303/1/279
f 2/1/280 3/1/280 291/1/280 290/1/280
f 29/1/281 30/1/281 318/1/281 317/1/281
f 16/1/282 17/1/282 305/1/282 304/1/282
f 3/1/283 4/1/283 292/1/283 291/1/283
f 30/1/284 31/1/284 319/1/284 318/1/284
f 17/1/285 18/1/285 306/1/285 305/1/285
f 4/1/286 5/1/286 293/1/286 292/1/286
f 31/1/287 32/1/287 320/1/287 319/1/287
f 18/1/288 19/1/288 307/1/288 306/1/288
f 312/1/289 313/1/290 345/1/290 344/1/289
f 299/1/291 300/1/292 332/1/292 331/1/291
f 313/1/290 314/1/293 346/1/293 345/1/290
f 300/1/292 301/1/294 333/1/294 332/1/292
f 314/1/293 315/1/295 347/1/295 346/1/293
f 301/1/294 302/1/296 334/1/296 333/1/294
f 315/1/295 316/1/297 348/1/297 347/1/295
f 302/1/296 303/1/298 335/1/298 334/1/296
f 289/1/299 290/1/300 322/1/300 321/1/299
f 316/1/297 317/1/301 349/1/301 348/1/297
f 303/1/298 304/1/302 336/1/302 335/1/298
f 290/1/300 291/1/303 323/1/303 322/1/300
f 317/1/301 318/1/304 350/1/304 349/1/301
f 304/1/302 305/1/305 337/1/305 336/1/302
f 291/1/303 292/1/306 324/1/306 323/1/303
f 318/1/304 319/1/307 351/1/307 350/1/304
f 305/1/305 306/1/308 338/1/308 337/1/305
f 292/1/306 293/1/309 325/1/309 324/1/306
f 319/1/307 320/1/310 352/1/310 351/1/307
f 306/1/308 307/1/311 339/1/311 338/1/308
f 293/1/309 294/1/312 326/1/312 325/1/309
f 320/1/310 289/1/299 321/1/299 352/1/310
f 307/1/311 308/1/313 340/1/313 339/1/311
f 294/1/312 295/1/314 327/1/314 326/1/312
f 308/1/313 309/1/315 341/1/315 340/1/313
f 295/1/314 296/1/316 328/1/316 327/1/314
f 309/1/315 310/1/317 342/1/317 341/1/315
f 296/1/316 297/1/318 329/1/318 328/1/316
f 310/1/317 311/1/319 343/1/319 342/1/317
f 297/1/318 298/1/320 330/1/320 329/1/318
f 311/1/319 312/1/289 344/1/289 343/1/319
f 298/1/320 299/1/291 331/1/291 330/1/320
f 347/1/321 348/1/321 380/1/321 379/1/321
f 334/1/322 335/1/322 367/1/322 366/1/322
f 321/1/323 322/1/323 354/1/323 353/1/323
f 348/1/324 349/1/324 381/1/324 380/1/324
f 335/1/325 336/1/325 368/1/325 367/1/325
f 322/1/326 323/1/326 355/1/326 354/1/326
f 349/1/327 350/1/327 382/1/327 381/1/327
f 336/1/328 337/1/328 369/1/328 368/1/328
f 323/1/329 324/1/329 356/1/329 355/1/329
f 350/1/330 351/1/330 383/1/330 382/1/330
f 337/1/331 338/1/331 370/1/331 369/1/331
f 324/1/332 325/1/332 357/1/332 356/1/332
f 351/1/333 352/1/333 384/1/333 383/1/333
f 338/1/334 339/1/334 371/1/334 370/1/334
f 325/1/335 326/1/335 358/1/335 357/1/335
f 352/1/336 321/1/336 353/1/336 384/1/336
f 339/1/337 340/1/337 372/1/337 371/1/337
f 326/1/338 327/1/338 359/1/338 358/1/338
f 340/1/339 341/1/339 373/1/339 372/1/339
f 327/1/340 328/1/340 360/1/340 359/1/340
f 341/1/341 342/1/341 374/1/341 373/1/341
f 328/1/342 329/1/342 361/1/342 360/1/342
f 342/1/343 343/1/343 375/1/343 374/1/343
f 329/1/344 330/1/344 362/1/344 361/1/344
f 343/1/345 344/1/345 376/1/345 375/1/345
f 330/1/346 331/1/346 363/1/346 362/1/346
f 344/1/347 345/1/347 377/1/347 376/1/347
f 331/1/348 332/1/348 364/1/348 363/1/348
f 345/1/349 346/1/349 378/1/349 377/1/349
f 332/1/350 333/1/350 365/1/350 364/1/350
f 346/1/351 347/1/351 379/1/351 378/1/351
f 333/1/352 334/1/352 366/1/352 365/1/352
f 355/3/353 356/3/353 388/3/353 387/3/353
f 382/3/354 383/3/354 415/3/354 414/3/354
f 369/3/355 370/3/355 402/3/355 401/3/355
f 356/3/356 357/3/356 389/3/356 388/3/356
f 383/3/357 384/3/357 416/3/357 415/3/357
f 370/3/358 371/3/358 403/3/358 402/3/358
f 357/3/359 358/3/359 390/3/359 389/3/359
f 371/3/360 372/3/360 404/3/360 403/3/360
f 358/3/361 359/3/361 391/3/361 390/3/361
f 372/3/362 373/3/362 405/3/362 404/3/362
f 359/3/363 360/3/363 392/3/363 391/3/363
f 373/3/364 374/3/364 406/3/364 405/3/364
f 360/3/365 361/3/365 393/3/365 392/3/365
f 374/3/366 375/3/366 407/3/366 406/3/366
f 361/3/367 362/3/367 394/3/367 393/3/367
f 375/3/368 376/3/368 408/3/368 407/3/368
f 362/3/369 363/3/369 395/3/369 394/3/369
f 376/3/370 377/3/370 409/3/370 408/3/370
f 363/3/371 364/3/371 396/3/371 395/3/371
f 377/3/372 378/3/372 410/3/372 409/3/372
f 364/3/373 365/3/373 397/3/373 396/3/373
f 378/3/374 379/3/374 411/3/374 410/3/374
f 365/3/375 366/3/375 398/3/375 397/3/375
f 379/3/376 380/3/376 412/3/376 411/3/376
f 366/3/377 367/3/377 399/3/377 398/3/377
f 353/3/378 354/3/378 386/3/378 385/3/378
f 384/3/379 353/3/379 385/3/379 416/3/379
f 380/3/380 381/3/380 413/3/380 412/3/380
f 367/3/381 368/3/381 400/3/381 399/3/381
f 354/3/382 355/3/382 387/3/382 386/3/382
f 381/3/383 382/3/383 414/3/383 413/3/383
f 368/3/384 369/3/384 401/3/384 400/3/384
f 394/3/385 395/3/385 427/3/385 426/3/385
f 408/3/386 409/3/386 441/3/386 440/3/386
f 395/3/387 396/3/387 428/3/387 427/3/387
f 409/3/388 410/3/388 442/3/388 441/3/388
f 396/3/389 397/3/389 429/3/389 428/3/389
f 410/3/390 411/3/390 443/3/390 442/3/390
f 397/3/391 398/3/391 430/3/391 429/3/391
f 411/3/392 412/3/392 444/3/392 443/3/392
f 398/3/393 399/3/393 431/3/393 430/3/393
f 385/3/394 386/3/394 418/3/394 417/3/394
f 412/3/395 413/3/395 445/3/395 444/3/395
f 399/3/396 400/3/396 432/3/396 431/3/396
f 386/3/397 387/3/397 419/3/397 418/3/397
f 413/3/398 414/3/398 446/3/398 445/3/398
f 400/3/399 401/3/399 433/3/399 432/3/399
f 387/3/400 388/3/400 420/3/400 419/3/400
f 414/3/401 415/3/401 447/3/401 446/3/401
f 401/3/402 402/3/402 434/3/402 433/3/402
f 388/3/403 389/3/403 421/3/403 420/3/403
f 415/3/404 416/3/404 448/3/404 447/3/404
f 402/3/405 403/3/405 435/3/405 434/3/405
f 389/3/406 390/3/406 422/3/406 421/3/406
f 416/3/407 385/3/407 417/3/407 448/3/407
f 403/3/408 404/3/408 436/3/408 435/3/408
f 390/3/409 391/3/409 423/3/409 422/3/409
f 404/3/410 405/3/410 437/3/410 436/3/410
f 391/3/411 392/3/411 424/3/411 423/3/411
f 405/3/412 406/3/412 438/3/412 437/3/412
f 392/3/413 393/3/413 425/3/413 424/3/413
f 406/3/414 407/3/414 439/3/414 438/3/414
f 393/3/415 394/3/415 426/3/415 425/3/415
f 407/3/416 408/3/416 440/3/416 439/3/416
f 429/3/417 430/3/417 462/3/417 461/3/417
f 443/3/417 444/3/417 476/3/417 475/3/417
f 430/3/417 431/3/417 463/3/417 462/3/417
f 417/3/417 418/3/417 450/3/417 449/3/417
f 444/3/417 445/3/417 477/3/417 476/3/417
f 431/3/417 432/3/417 464/3/417 463/3/417
f 418/3/417 419/3/417 451/3/417 450/3/417
f 445/3/417 446/3/417 478/3/417 477/3/417
f 432/3/417 433/3/417 465/3/417 464/3/417
f 419/3/417 420/3/417 452/3/417 451/3/417
f 446/3/417 447/3/417 479/3/417 478/3/417
f 433/3/417 434/3/417 466/3/417 465/3/417
f 420/3/417 421/3/417 453/3/417 452/3/417
f 447/3/417 448/3/417 480/3/417 479/3/417
f 434/3/417 435/3/417 467/3/417 466/3/417
f 421/3/417 422/3/417 454/3/417 453/3/417
f 448/3/417 417/3/417 449/3/417 480/3/417
f 435/3/417 436/3/417 468/3/417 467/3/417
f 422/3/417 423/3/417 455/3/417 454/3/417
f 436/3/417 437/3/417 469/3/417 468/3/417
f 423/3/417 424/3/417 456/3/417 455/3/417
f 437/3/417 438/3/417 470/3/417 469/3/417
f 424/3/417 425/3/417 457/3/417 456/3/417
f 438/3/417 439/3/417 471/3/417 470/3/417
f 425/3/417 426/3/417 458/3/417 457/3/417
f 439/3/417 440/3/417 472/3/417 471/3/417
f 426/3/417 427/3/417 459/3/417 458/3/417
f 440/3/417 441/3/417 473/3/417 472/3/417
f 427/3/417 428/3/417 460/3/417 459/3/417
f 441/3/417 442/3/417 474/3/417 473/3/417
f 428/3/417 429/3/417 461/3/417 460/3/417
f 442/3/417 443/3/417 475/3/417 474/3/417
