# Blender 5.2.2 LTS
# www.blender.org
mtllib front_wheels.mtl
o front_wheels_misc
g front_wheels_misc
v -0.087296 -0.000979 -0.214291
v -0.087296 0.040824 -0.210175
v -0.087296 0.081020 -0.197983
v -0.087296 0.118066 -0.178181
v -0.087296 0.150536 -0.151531
v -0.087296 0.177184 -0.119061
v -0.087296 0.196985 -0.082016
v -0.087296 0.209178 -0.041821
v -0.087296 0.213296 -0.000015
v -0.087296 0.209178 0.041786
v -0.087296 0.196985 0.081982
v -0.087296 0.177184 0.119026
v -0.087296 0.150536 0.151497
v -0.087296 0.118065 0.178146
v -0.087296 0.081020 0.197948
v -0.087296 0.040824 0.210140
v -0.087296 -0.000979 0.214256
v -0.087296 -0.042782 0.210140
v -0.087296 -0.082978 0.197948
v -0.087296 -0.120023 0.178146
v -0.087296 -0.152494 0.151497
v -0.087296 -0.179141 0.119026
v -0.087296 -0.198943 0.081982
v -0.087296 -0.211136 0.041786
v -0.087296 -0.215253 -0.000019
v -0.087296 -0.211136 -0.041821
v -0.087296 -0.198942 -0.082016
v -0.087296 -0.179141 -0.119061
v -0.087296 -0.152494 -0.151531
v -0.087296 -0.120023 -0.178181
v -0.087296 -0.082978 -0.197983
v -0.087296 -0.042782 -0.210175
v -0.057493 -0.000979 -0.121353
v -0.057493 0.022693 -0.119022
v -0.057493 0.045455 -0.112118
v -0.057493 0.066433 -0.100906
v -0.057493 0.084820 -0.085815
v -0.057493 0.099909 -0.067429
v -0.057493 0.111122 -0.046452
v -0.057493 0.118027 -0.023689
v -0.057493 0.120358 -0.000019
v -0.057493 0.118027 0.023655
v -0.057493 0.111122 0.046417
v -0.057493 0.099909 0.067394
v -0.057493 0.084820 0.085781
v -0.057493 0.066432 0.100872
v -0.057493 0.045455 0.112083
v -0.057493 0.022693 0.118988
v -0.057493 -0.000979 0.121319
v -0.057493 -0.024651 0.118988
v -0.057493 -0.047413 0.112083
v -0.057493 -0.068390 0.100872
v -0.057493 -0.086777 0.085781
v -0.057493 -0.101867 0.067394
v -0.057493 -0.113080 0.046417
v -0.057493 -0.119985 0.023655
v -0.057493 -0.122316 -0.000019
v -0.057493 -0.119985 -0.023689
v -0.057493 -0.113080 -0.046452
v -0.057493 -0.101867 -0.067429
v -0.057493 -0.086777 -0.085815
v -0.057493 -0.068390 -0.100906
v -0.057493 -0.047413 -0.112118
v -0.057493 -0.024651 -0.119022
v -0.044452 -0.000979 -0.085354
v -0.044452 0.015670 -0.083717
v -0.044452 0.031679 -0.078857
v -0.044452 0.046432 -0.070972
v -0.044452 0.059364 -0.060360
v -0.044452 0.069977 -0.047428
v -0.044452 0.077863 -0.032673
v -0.044452 0.082719 -0.016666
v -0.044452 0.084359 -0.000019
v -0.044452 0.082719 0.016632
v -0.044452 0.077863 0.032639
v -0.044452 0.069977 0.047394
v -0.044452 0.059364 0.060326
v -0.044452 0.046432 0.070938
v -0.044452 0.031678 0.078827
v -0.044452 0.015670 0.083683
v -0.044452 -0.000979 0.085320
v -0.044452 -0.017628 0.083683
v -0.044452 -0.033637 0.078823
v -0.044452 -0.048390 0.070938
v -0.044452 -0.061322 0.060326
v -0.044452 -0.071935 0.047394
v -0.044452 -0.079821 0.032639
v -0.044452 -0.084677 0.016632
v -0.044452 -0.086317 -0.000019
v -0.044452 -0.084677 -0.016666
v -0.044452 -0.079821 -0.032673
v -0.044452 -0.071935 -0.047428
v -0.044452 -0.061322 -0.060360
v -0.044452 -0.048390 -0.070972
v -0.044452 -0.033636 -0.078857
v -0.044452 -0.017628 -0.083717
v -0.060338 -0.000979 -0.066006
v -0.060338 0.011895 -0.064739
v -0.060338 0.024274 -0.060982
v -0.060338 0.035682 -0.054886
v -0.060338 0.045682 -0.046677
v -0.060338 0.053888 -0.036678
v -0.060338 0.059986 -0.025269
v -0.060338 0.063742 -0.012890
v -0.060338 0.065009 -0.000019
v -0.060338 0.063742 0.012856
v -0.060338 0.059986 0.025234
v -0.060338 0.053888 0.036644
v -0.060338 0.045682 0.046642
v -0.060338 0.035682 0.054852
v -0.060338 0.024274 0.060947
v -0.060338 0.011895 0.064705
v -0.060338 -0.000979 0.065971
v -0.060338 -0.013853 0.064705
v -0.060338 -0.026232 0.060947
v -0.060338 -0.037640 0.054852
v -0.060338 -0.047640 0.046642
v -0.060338 -0.055846 0.036644
v -0.060338 -0.061944 0.025234
v -0.060338 -0.065699 0.012856
v -0.060338 -0.066967 -0.000019
v -0.060338 -0.065699 -0.012890
v -0.060338 -0.061944 -0.025269
v -0.060338 -0.055846 -0.036678
v -0.060338 -0.047640 -0.046677
v -0.060338 -0.037640 -0.054886
v -0.060338 -0.026232 -0.060982
v -0.060338 -0.013853 -0.064739
v -0.037650 -0.000979 -0.012730
v -0.037650 0.001501 -0.012486
v -0.037650 0.003886 -0.011761
v -0.037650 0.006083 -0.010586
v -0.037650 0.008010 -0.009007
v -0.037650 0.009591 -0.007080
v -0.037650 0.010765 -0.004883
v -0.037650 0.011489 -0.002499
v -0.037650 0.011733 -0.000019
v -0.037650 0.011489 0.002464
v -0.037650 0.010765 0.004848
v -0.037650 0.009591 0.007046
v -0.037650 0.008010 0.008972
v -0.037650 0.006083 0.010551
v -0.037650 0.003886 0.011726
v -0.037650 0.001501 0.012451
v -0.037650 -0.000979 0.012695
v -0.037650 -0.003459 0.012451
v -0.037650 -0.005844 0.011726
v -0.037650 -0.008042 0.010551
v -0.037650 -0.009968 0.008972
v -0.037650 -0.011549 0.007046
v -0.037650 -0.012723 0.004848
v -0.037650 -0.013447 0.002464
v -0.037650 -0.013691 -0.000019
v -0.037650 -0.013447 -0.002499
v -0.037650 -0.012723 -0.004883
v -0.037650 -0.011549 -0.007080
v -0.037650 -0.009968 -0.009007
v -0.037650 -0.008042 -0.010586
v -0.037650 -0.005844 -0.011761
v -0.037650 -0.003459 -0.012486
v 0.098172 -0.000979 -0.204185
v 0.098172 0.038852 -0.200264
v 0.098172 0.077153 -0.188644
v 0.098172 0.112451 -0.169777
v 0.098172 0.143390 -0.144386
v 0.098172 0.168780 -0.113445
v 0.098172 0.187648 -0.078148
v 0.098172 0.199266 -0.039848
v 0.098172 0.203189 -0.000019
v 0.098172 0.199266 0.039814
v 0.098172 0.187648 0.078114
v 0.098172 0.168780 0.113411
v 0.098172 0.143390 0.144352
v 0.098172 0.112451 0.169743
v 0.098172 0.077153 0.188610
v 0.098172 0.038852 0.200230
v 0.098172 -0.000979 0.204151
v 0.098172 -0.040811 0.200230
v 0.098172 -0.079111 0.188610
v 0.098172 -0.114409 0.169743
v 0.098172 -0.145348 0.144352
v 0.098172 -0.170739 0.113411
v 0.098172 -0.189606 0.078114
v 0.098172 -0.201224 0.039814
v 0.098172 -0.205147 -0.000019
v 0.098172 -0.201224 -0.039848
v 0.098172 -0.189606 -0.078148
v 0.098172 -0.170739 -0.113445
v 0.098172 -0.145348 -0.144386
v 0.098172 -0.114409 -0.169777
v 0.098172 -0.079111 -0.188644
v 0.098172 -0.040811 -0.200264
v 0.077538 -0.000979 -0.091675
v 0.077538 0.016902 -0.089912
v 0.077538 0.034096 -0.084698
v 0.077538 0.049943 -0.076229
v 0.077538 0.063832 -0.064827
v 0.077538 0.075231 -0.050938
v 0.077538 0.083701 -0.035091
v 0.077538 0.088917 -0.017899
v 0.077538 0.090678 -0.000019
v 0.077538 0.088917 0.017864
v 0.077538 0.083701 0.035057
v 0.077538 0.075231 0.050903
v 0.077538 0.063832 0.064793
v 0.077538 0.049943 0.076191
v 0.077538 0.034096 0.084663
v 0.077538 0.016902 0.089878
v 0.077538 -0.000979 0.091640
v 0.077538 -0.018861 0.089878
v 0.077538 -0.036055 0.084663
v 0.077538 -0.051901 0.076191
v 0.077538 -0.065791 0.064793
v 0.077538 -0.077189 0.050903
v 0.077538 -0.085659 0.035057
v 0.077538 -0.090875 0.017864
v 0.077538 -0.092636 -0.000019
v 0.077538 -0.090875 -0.017899
v 0.077538 -0.085659 -0.035091
v 0.077538 -0.077189 -0.050938
v 0.077538 -0.065791 -0.064827
v 0.077538 -0.051901 -0.076229
v 0.077538 -0.036055 -0.084698
v 0.077538 -0.018860 -0.089912
v 0.051709 -0.000979 -0.068718
v 0.051709 0.012424 -0.067398
v 0.051709 0.025311 -0.063488
v 0.051709 0.037188 -0.057140
v 0.051709 0.047599 -0.048595
v 0.051709 0.056143 -0.038185
v 0.051709 0.062491 -0.026306
v 0.051709 0.066401 -0.013420
v 0.051709 0.067721 -0.000019
v 0.051709 0.066401 0.013386
v 0.051709 0.062491 0.026272
v 0.051709 0.056143 0.038151
v 0.051709 0.047599 0.048561
v 0.051709 0.037188 0.057106
v 0.051709 0.025311 0.063454
v 0.051709 0.012424 0.067364
v 0.051709 -0.000979 0.068684
v 0.051709 -0.014382 0.067364
v 0.051709 -0.027270 0.063454
v 0.051709 -0.039147 0.057106
v 0.051709 -0.049557 0.048561
v 0.051709 -0.058101 0.038151
v 0.051709 -0.064449 0.026272
v 0.051709 -0.068359 0.013386
v 0.051709 -0.069679 -0.000019
v 0.051709 -0.068359 -0.013420
v 0.051709 -0.064449 -0.026306
v 0.051709 -0.058101 -0.038185
v 0.051709 -0.049557 -0.048595
v 0.051709 -0.039147 -0.057140
v 0.051709 -0.027269 -0.063488
v 0.051709 -0.014382 -0.067398
v 0.051709 0.013705 -0.009888
v 0.051709 0.015631 -0.009697
v 0.051709 0.017483 -0.009136
v 0.051709 0.019189 -0.008224
v 0.051709 0.020685 -0.006996
v 0.051709 0.021913 -0.005501
v 0.051709 0.022825 -0.003796
v 0.051709 0.023387 -0.001942
v 0.051709 0.023577 -0.000019
v 0.051709 0.023387 0.001907
v 0.051709 0.022825 0.003761
v 0.051709 0.021913 0.005466
v 0.051709 0.020685 0.006962
v 0.051709 0.019189 0.008190
v 0.051709 0.017483 0.009102
v 0.051709 0.015631 0.009663
v 0.051709 0.013705 0.009853
v 0.051709 0.011779 0.009663
v 0.051709 0.009928 0.009102
v 0.051709 0.008221 0.008190
v 0.051709 0.006725 0.006962
v 0.051709 0.005498 0.005466
v 0.051709 0.004585 0.003761
v 0.051709 0.004024 0.001907
v 0.051709 0.003834 -0.000019
v 0.051709 0.004024 -0.001942
v 0.051709 0.004585 -0.003796
v 0.051709 0.005498 -0.005501
v 0.051709 0.006725 -0.006996
v 0.051709 0.008221 -0.008224
v 0.051709 0.009928 -0.009136
v 0.051709 0.011779 -0.009697
vn -0.9518 -0.3052 -0.0301
vn -0.9518 0.2935 -0.0890
vn -0.9518 -0.2935 -0.0890
vn -0.9518 0.3052 -0.0301
vn -0.9518 -0.2705 -0.1446
vn -0.9518 0.3052 0.0301
vn -0.9518 -0.2371 -0.1946
vn -0.9518 0.2935 0.0890
vn -0.9518 -0.1946 -0.2371
vn -0.9518 0.2705 0.1446
vn -0.9518 -0.1446 -0.2705
vn -0.9518 -0.0301 0.3052
vn -0.9518 0.2371 0.1946
vn -0.9518 -0.0890 -0.2935
vn -0.9518 -0.0890 0.2935
vn -0.9518 0.1946 0.2371
vn -0.9518 -0.0301 -0.3052
vn -0.9518 -0.1446 0.2705
vn -0.9518 0.1446 0.2705
vn -0.9518 0.0301 -0.3052
vn -0.9518 -0.1946 0.2371
vn -0.9518 0.0890 0.2935
vn -0.9518 0.0890 -0.2935
vn -0.9518 -0.2371 0.1946
vn -0.9518 0.0301 0.3052
vn -0.9518 0.1446 -0.2705
vn -0.9518 -0.2705 0.1446
vn -0.9518 0.1946 -0.2371
vn -0.9518 -0.2935 0.0890
vn -0.9518 0.2371 -0.1946
vn -0.9518 -0.3052 0.0301
vn -0.9518 0.2705 -0.1446
vn -0.9397 -0.2644 -0.2170
vn -0.9397 0.3273 0.0993
vn -0.9397 -0.2170 -0.2644
vn -0.9397 0.3017 0.1612
vn -0.9397 -0.1613 -0.3017
vn -0.9397 -0.0335 0.3404
vn -0.9397 0.2644 0.2170
vn -0.9397 -0.0993 -0.3273
vn -0.9397 -0.0993 0.3273
vn -0.9397 0.2170 0.2644
vn -0.9397 -0.0335 -0.3404
vn -0.9397 -0.1612 0.3017
vn -0.9397 0.1612 0.3017
vn -0.9397 0.0335 -0.3404
vn -0.9397 -0.2170 0.2644
vn -0.9397 0.0993 0.3273
vn -0.9397 0.0993 -0.3273
vn -0.9397 -0.2644 0.2170
vn -0.9397 0.0335 0.3404
vn -0.9397 0.1612 -0.3017
vn -0.9397 -0.3017 0.1612
vn -0.9397 0.2170 -0.2644
vn -0.9397 -0.3273 0.0993
vn -0.9397 0.2644 -0.2170
vn -0.9397 -0.3404 0.0335
vn -0.9397 0.3017 -0.1612
vn -0.9397 -0.3404 -0.0335
vn -0.9397 0.3273 -0.0993
vn -0.9397 -0.3273 -0.0993
vn -0.9397 0.3404 -0.0335
vn -0.9397 -0.3017 -0.1612
vn -0.9397 0.3404 0.0335
vn -0.7714 0.1848 0.6089
vn -0.7714 0.1848 -0.6089
vn -0.7714 -0.4037 -0.4919
vn -0.7714 0.0623 0.6333
vn -0.7714 0.3000 -0.5613
vn -0.7714 -0.3000 -0.5613
vn -0.7714 -0.0623 0.6333
vn -0.7714 0.4037 -0.4919
vn -0.7714 -0.1848 -0.6089
vn -0.7714 -0.1849 0.6089
vn -0.7714 0.4919 -0.4037
vn -0.7714 -0.0623 -0.6333
vn -0.7714 -0.2999 0.5613
vn -0.7714 0.5612 -0.3000
vn -0.7714 -0.4037 0.4919
vn -0.7714 0.6090 -0.1848
vn -0.7714 -0.4919 0.4037
vn -0.7714 0.6333 -0.0624
vn -0.7714 -0.5612 0.3000
vn -0.7714 0.6333 0.0624
vn -0.7714 -0.6090 0.1847
vn -0.7714 0.6090 0.1848
vn -0.7714 -0.6333 0.0624
vn -0.7714 0.5612 0.3000
vn -0.7714 -0.6333 -0.0624
vn -0.7714 0.4919 0.4037
vn -0.7714 -0.6090 -0.1847
vn -0.7714 0.4037 0.4919
vn -0.7714 -0.5612 -0.3000
vn -0.7714 0.3000 0.5612
vn -0.7714 0.0623 -0.6333
vn -0.7714 -0.4919 -0.4037
vn -0.9194 0.1143 -0.3764
vn -0.9194 -0.3041 0.2496
vn -0.9194 0.0385 0.3915
vn -0.9194 0.1854 -0.3470
vn -0.9194 -0.3470 0.1854
vn -0.9194 0.2496 -0.3041
vn -0.9194 -0.3765 0.1142
vn -0.9194 0.3041 -0.2496
vn -0.9194 -0.3915 0.0385
vn -0.9194 0.3470 -0.1854
vn -0.9194 -0.3915 -0.0385
vn -0.9194 0.3765 -0.1142
vn -0.9194 -0.3765 -0.1142
vn -0.9194 0.3915 -0.0385
vn -0.9194 -0.3470 -0.1854
vn -0.9194 0.3915 0.0386
vn -0.9194 -0.3041 -0.2496
vn -0.9194 0.3765 0.1142
vn -0.9194 -0.2496 -0.3041
vn -0.9194 0.3470 0.1854
vn -0.9194 -0.1854 -0.3470
vn -0.9194 -0.0385 0.3915
vn -0.9194 0.3041 0.2496
vn -0.9194 -0.1143 -0.3764
vn -0.9194 -0.1143 0.3764
vn -0.9194 0.2496 0.3041
vn -0.9194 -0.0385 -0.3915
vn -0.9194 -0.1854 0.3470
vn -0.9194 0.1854 0.3470
vn -0.9194 0.0385 -0.3915
vn -0.9194 -0.2496 0.3041
vn -0.9194 0.1143 0.3764
vn 0.9834 -0.0854 0.1598
vn 0.9834 0.0854 0.1598
vn 0.9834 0.0178 -0.1804
vn 0.9834 -0.1150 0.1401
vn 0.9834 0.0526 0.1734
vn 0.9834 0.0526 -0.1734
vn 0.9834 -0.1401 0.1150
vn 0.9834 0.0854 -0.1598
vn 0.9834 -0.1598 0.0854
vn 0.9834 0.1150 -0.1401
vn 0.9834 -0.1734 0.0526
vn 0.9834 0.1401 -0.1150
vn 0.9834 -0.1804 0.0178
vn 0.9834 0.1598 -0.0854
vn 0.9834 -0.1804 -0.0178
vn 0.9834 0.1734 -0.0526
vn 0.9834 -0.1734 -0.0526
vn 0.9834 0.1804 -0.0178
vn 0.9834 -0.1598 -0.0854
vn 0.9834 0.1804 0.0178
vn 0.9834 -0.1401 -0.1150
vn 0.9834 0.1734 0.0526
vn 0.9834 -0.1150 -0.1401
vn 0.9834 0.1598 0.0854
vn 0.9834 -0.0854 -0.1598
vn 0.9834 -0.0178 0.1804
vn 0.9834 0.0178 0.1804
vn 0.9834 0.1401 0.1150
vn 0.9834 -0.0526 -0.1734
vn 0.9834 -0.0526 0.1734
vn 0.9834 0.1150 0.1401
vn 0.9834 -0.0178 -0.1804
vn 0.6625 -0.7168 -0.2175
vn 0.6625 0.7454 -0.0734
vn 0.6625 -0.6606 -0.3531
vn 0.6625 0.7454 0.0734
vn 0.6625 -0.5790 -0.4752
vn 0.6625 0.7168 0.2175
vn 0.6625 -0.4752 -0.5790
vn 0.6625 0.6606 0.3531
vn 0.6625 -0.3531 -0.6606
vn 0.6625 -0.0735 0.7454
vn 0.6625 0.5790 0.4752
vn 0.6625 -0.2174 -0.7168
vn 0.6625 -0.2174 0.7168
vn 0.6625 0.4752 0.5790
vn 0.6625 -0.0734 -0.7454
vn 0.6625 -0.3531 0.6606
vn 0.6625 0.3531 0.6606
vn 0.6625 0.0734 -0.7454
vn 0.6625 -0.4752 0.5790
vn 0.6625 0.2174 0.7168
vn 0.6625 0.2174 -0.7168
vn 0.6625 -0.5790 0.4752
vn 0.6625 0.0735 0.7454
vn 0.6625 0.3531 -0.6606
vn 0.6625 -0.6606 0.3531
vn 0.6625 0.4752 -0.5790
vn 0.6625 -0.7168 0.2175
vn 0.6625 0.5790 -0.4752
vn 0.6625 -0.7454 0.0734
vn 0.6625 0.6606 -0.3531
vn 0.6625 -0.7454 -0.0734
vn 0.6625 0.7168 -0.2175
vn 1.0000 -0.0000 -0.0000
vt 0.981593 0.629960
vt 0.973575 0.503968
s 1
usemtl Material.002
f 10/1/1 9/1/1 41/1/1 42/1/1
f 24/1/2 23/1/2 55/1/2 56/1/2
f 11/1/3 10/1/3 42/1/3 43/1/3
f 25/1/4 24/1/4 56/1/4 57/1/4
f 12/1/5 11/1/5 43/1/5 44/1/5
f 26/1/6 25/1/6 57/1/6 58/1/6
f 13/1/7 12/1/7 44/1/7 45/1/7
f 27/1/8 26/1/8 58/1/8 59/1/8
f 14/1/9 13/1/9 45/1/9 46/1/9
f 28/1/10 27/1/10 59/1/10 60/1/10
f 15/1/11 14/1/11 46/1/11 47/1/11
f 2/1/12 1/1/12 33/1/12 34/1/12
f 29/1/13 28/1/13 60/1/13 61/1/13
f 16/1/14 15/1/14 47/1/14 48/1/14
f 3/1/15 2/1/15 34/1/15 35/1/15
f 30/1/16 29/1/16 61/1/16 62/1/16
f 17/1/17 16/1/17 48/1/17 49/1/17
f 4/1/18 3/1/18 35/1/18 36/1/18
f 31/1/19 30/1/19 62/1/19 63/1/19
f 18/1/20 17/1/20 49/1/20 50/1/20
f 5/1/21 4/1/21 36/1/21 37/1/21
f 32/1/22 31/1/22 63/1/22 64/1/22
f 19/1/23 18/1/23 50/1/23 51/1/23
f 6/1/24 5/1/24 37/1/24 38/1/24
f 1/1/25 32/1/25 64/1/25 33/1/25
f 20/1/26 19/1/26 51/1/26 52/1/26
f 7/1/27 6/1/27 38/1/27 39/1/27
f 21/1/28 20/1/28 52/1/28 53/1/28
f 8/1/29 7/1/29 39/1/29 40/1/29
f 22/1/30 21/1/30 53/1/30 54/1/30
f 9/1/31 8/1/31 40/1/31 41/1/31
f 23/1/32 22/1/32 54/1/32 55/1/32
f 45/1/33 44/1/33 76/1/33 77/1/33
f 59/1/34 58/1/34 90/1/34 91/1/34
f 46/1/35 45/1/35 77/1/35 78/1/35
f 60/1/36 59/1/36 91/1/36 92/1/36
f 47/1/37 46/1/37 78/1/37 79/1/37
f 34/1/38 33/1/38 65/1/38 66/1/38
f 61/1/39 60/1/39 92/1/39 93/1/39
f 48/1/40 47/1/40 79/1/40 80/1/40
f 35/1/41 34/1/41 66/1/41 67/1/41
f 62/1/42 61/1/42 93/1/42 94/1/42
f 49/1/43 48/1/43 80/1/43 81/1/43
f 36/1/44 35/1/44 67/1/44 68/1/44
f 63/1/45 62/1/45 94/1/45 95/1/45
f 50/1/46 49/1/46 81/1/46 82/1/46
f 37/1/47 36/1/47 68/1/47 69/1/47
f 64/1/48 63/1/48 95/1/48 96/1/48
f 51/1/49 50/1/49 82/1/49 83/1/49
f 38/1/50 37/1/50 69/1/50 70/1/50
f 33/1/51 64/1/51 96/1/51 65/1/51
f 52/1/52 51/1/52 83/1/52 84/1/52
f 39/1/53 38/1/53 70/1/53 71/1/53
f 53/1/54 52/1/54 84/1/54 85/1/54
f 40/1/55 39/1/55 71/1/55 72/1/55
f 54/1/56 53/1/56 85/1/56 86/1/56
f 41/1/57 40/1/57 72/1/57 73/1/57
f 55/1/58 54/1/58 86/1/58 87/1/58
f 42/1/59 41/1/59 73/1/59 74/1/59
f 56/1/60 55/1/60 87/1/60 88/1/60
f 43/1/61 42/1/61 74/1/61 75/1/61
f 57/1/62 56/1/62 88/1/62 89/1/62
f 44/1/63 43/1/63 75/1/63 76/1/63
f 58/1/64 57/1/64 89/1/64 90/1/64
f 80/1/65 79/1/65 111/1/65 112/1/65
f 67/1/66 66/1/66 98/1/66 99/1/66
f 94/1/67 93/1/67 125/1/67 126/1/67
f 81/1/68 80/1/68 112/1/68 113/1/68
f 68/1/69 67/1/69 99/1/69 100/1/69
f 95/1/70 94/1/70 126/1/70 127/1/70
f 82/1/71 81/1/71 113/1/71 114/1/71
f 69/1/72 68/1/72 100/1/72 101/1/72
f 96/1/73 95/1/73 127/1/73 128/1/73
f 83/1/74 82/1/74 114/1/74 115/1/74
f 70/1/75 69/1/75 101/1/75 102/1/75
f 65/1/76 96/1/76 128/1/76 97/1/76
f 84/1/77 83/1/77 115/1/77 116/1/77
f 71/1/78 70/1/78 102/1/78 103/1/78
f 85/1/79 84/1/79 116/1/79 117/1/79
f 72/1/80 71/1/80 103/1/80 104/1/80
f 86/1/81 85/1/81 117/1/81 118/1/81
f 73/1/82 72/1/82 104/1/82 105/1/82
f 87/1/83 86/1/83 118/1/83 119/1/83
f 74/1/84 73/1/84 105/1/84 106/1/84
f 88/1/85 87/1/85 119/1/85 120/1/85
f 75/1/86 74/1/86 106/1/86 107/1/86
f 89/1/87 88/1/87 120/1/87 121/1/87
f 76/1/88 75/1/88 107/1/88 108/1/88
f 90/1/89 89/1/89 121/1/89 122/1/89
f 77/1/90 76/1/90 108/1/90 109/1/90
f 91/1/91 90/1/91 122/1/91 123/1/91
f 78/1/92 77/1/92 109/1/92 110/1/92
f 92/1/93 91/1/93 123/1/93 124/1/93
f 79/1/94 78/1/94 110/1/94 111/1/94
f 66/1/95 65/1/95 97/1/95 98/1/95
f 93/1/96 92/1/96 124/1/96 125/1/96
f 115/1/97 114/1/97 146/1/97 147/1/97
f 102/1/98 101/1/98 133/1/98 134/1/98
f 97/1/99 128/1/99 160/1/99 129/1/99
f 116/1/100 115/1/100 147/1/100 148/1/100
f 103/1/101 102/1/101 134/1/101 135/1/101
f 117/1/102 116/1/102 148/1/102 149/1/102
f 104/1/103 103/1/103 135/1/103 136/1/103
f 118/1/104 117/1/104 149/1/104 150/1/104
f 105/1/105 104/1/105 136/1/105 137/1/105
f 119/1/106 118/1/106 150/1/106 151/1/106
f 106/1/107 105/1/107 137/1/107 138/1/107
f 120/1/108 119/1/108 151/1/108 152/1/108
f 107/1/109 106/1/109 138/1/109 139/1/109
f 121/1/110 120/1/110 152/1/110 153/1/110
f 108/1/111 107/1/111 139/1/111 140/1/111
f 122/1/112 121/1/112 153/1/112 154/1/112
f 109/1/113 108/1/113 140/1/113 141/1/113
f 123/1/114 122/1/114 154/1/114 155/1/114
f 110/1/115 109/1/115 141/1/115 142/1/115
f 124/1/116 123/1/116 155/1/116 156/1/116
f 111/1/117 110/1/117 142/1/117 143/1/117
f 98/1/118 97/1/118 129/1/118 130/1/118
f 125/1/119 124/1/119 156/1/119 157/1/119
f 112/1/120 111/1/120 143/1/120 144/1/120
f 99/1/121 98/1/121 130/1/121 131/1/121
f 126/1/122 125/1/122 157/1/122 158/1/122
f 113/1/123 112/1/123 144/1/123 145/1/123
f 100/1/124 99/1/124 131/1/124 132/1/124
f 127/1/125 126/1/125 158/1/125 159/1/125
f 114/1/126 113/1/126 145/1/126 146/1/126
f 101/1/127 100/1/127 132/1/127 133/1/127
f 128/1/128 127/1/128 159/1/128 160/1/128
f 163/2/129 164/2/129 196/2/129 195/2/129
f 190/2/130 191/2/130 223/2/130 222/2/130
f 177/2/131 178/2/131 210/2/131 209/2/131
f 164/2/132 165/2/132 197/2/132 196/2/132
f 191/2/133 192/2/133 224/2/133 223/2/133
f 178/2/134 179/2/134 211/2/134 210/2/134
f 165/2/135 166/2/135 198/2/135 197/2/135
f 179/2/136 180/2/136 212/2/136 211/2/136
f 166/2/137 167/2/137 199/2/137 198/2/137
f 180/2/138 181/2/138 213/2/138 212/2/138
f 167/2/139 168/2/139 200/2/139 199/2/139
f 181/2/140 182/2/140 214/2/140 213/2/140
f 168/2/141 169/2/141 201/2/141 200/2/141
f 182/2/142 183/2/142 215/2/142 214/2/142
f 169/2/143 170/2/143 202/2/143 201/2/143
f 183/2/144 184/2/144 216/2/144 215/2/144
f 170/2/145 171/2/145 203/2/145 202/2/145
f 184/2/146 185/2/146 217/2/146 216/2/146
f 171/2/147 172/2/147 204/2/147 203/2/147
f 185/2/148 186/2/148 218/2/148 217/2/148
f 172/2/149 173/2/149 205/2/149 204/2/149
f 186/2/150 187/2/150 219/2/150 218/2/150
f 173/2/151 174/2/151 206/2/151 205/2/151
f 187/2/152 188/2/152 220/2/152 219/2/152
f 174/2/153 175/2/153 207/2/153 206/2/153
f 161/2/154 162/2/154 194/2/154 193/2/154
f 192/2/155 161/2/155 193/2/155 224/2/155
f 188/2/156 189/2/156 221/2/156 220/2/156
f 175/2/157 176/2/157 208/2/157 207/2/157
f 162/2/158 163/2/158 195/2/158 194/2/158
f 189/2/159 190/2/159 222/2/159 221/2/159
f 176/2/160 177/2/160 209/2/160 208/2/160
f 202/2/161 203/2/161 235/2/161 234/2/161
f 216/2/162 217/2/162 249/2/162 248/2/162
f 203/2/163 204/2/163 236/2/163 235/2/163
f 217/2/164 218/2/164 250/2/164 249/2/164
f 204/2/165 205/2/165 237/2/165 236/2/165
f 218/2/166 219/2/166 251/2/166 250/2/166
f 205/2/167 206/2/167 238/2/167 237/2/167
f 219/2/168 220/2/168 252/2/168 251/2/168
f 206/2/169 207/2/169 239/2/169 238/2/169
f 193/2/170 194/2/170 226/2/170 225/2/170
f 220/2/171 221/2/171 253/2/171 252/2/171
f 207/2/172 208/2/172 240/2/172 239/2/172
f 194/2/173 195/2/173 227/2/173 226/2/173
f 221/2/174 222/2/174 254/2/174 253/2/174
f 208/2/175 209/2/175 241/2/175 240/2/175
f 195/2/176 196/2/176 228/2/176 227/2/176
f 222/2/177 223/2/177 255/2/177 254/2/177
f 209/2/178 210/2/178 242/2/178 241/2/178
f 196/2/179 197/2/179 229/2/179 228/2/179
f 223/2/180 224/2/180 256/2/180 255/2/180
f 210/2/181 211/2/181 243/2/181 242/2/181
f 197/2/182 198/2/182 230/2/182 229/2/182
f 224/2/183 193/2/183 225/2/183 256/2/183
f 211/2/184 212/2/184 244/2/184 243/2/184
f 198/2/185 199/2/185 231/2/185 230/2/185
f 212/2/186 213/2/186 245/2/186 244/2/186
f 199/2/187 200/2/187 232/2/187 231/2/187
f 213/2/188 214/2/188 246/2/188 245/2/188
f 200/2/189 201/2/189 233/2/189 232/2/189
f 214/2/190 215/2/190 247/2/190 246/2/190
f 201/2/191 202/2/191 234/2/191 233/2/191
f 215/2/192 216/2/192 248/2/192 247/2/192
f 237/2/193 238/2/193 270/2/193 269/2/193
f 251/2/193 252/2/193 284/2/193 283/2/193
f 238/2/193 239/2/193 271/2/193 270/2/193
f 225/2/193 226/2/193 258/2/193 257/2/193
f 252/2/193 253/2/193 285/2/193 284/2/193
f 239/2/193 240/2/193 272/2/193 271/2/193
f 226/2/193 227/2/193 259/2/193 258/2/193
f 253/2/193 254/2/193 286/2/193 285/2/193
f 240/2/193 241/2/193 273/2/193 272/2/193
f 227/2/193 228/2/193 260/2/193 259/2/193
f 254/2/193 255/2/193 287/2/193 286/2/193
f 241/2/193 242/2/193 274/2/193 273/2/193
f 228/2/193 229/2/193 261/2/193 260/2/193
f 255/2/193 256/2/193 288/2/193 287/2/193
f 242/2/193 243/2/193 275/2/193 274/2/193
f 229/2/193 230/2/193 262/2/193 261/2/193
f 256/2/193 225/2/193 257/2/193 288/2/193
f 243/2/193 244/2/193 276/2/193 275/2/193
f 230/2/193 231/2/193 263/2/193 262/2/193
f 244/2/193 245/2/193 277/2/193 276/2/193
f 231/2/193 232/2/193 264/2/193 263/2/193
f 245/2/193 246/2/193 278/2/193 277/2/193
f 232/2/193 233/2/193 265/2/193 264/2/193
f 246/2/193 247/2/193 279/2/193 278/2/193
f 233/2/193 234/2/193 266/2/193 265/2/193
f 247/2/193 248/2/193 280/2/193 279/2/193
f 234/2/193 235/2/193 267/2/193 266/2/193
f 248/2/193 249/2/193 281/2/193 280/2/193
f 235/2/193 236/2/193 268/2/193 267/2/193
f 249/2/193 250/2/193 282/2/193 281/2/193
f 236/2/193 237/2/193 269/2/193 268/2/193
f 250/2/193 251/2/193 283/2/193 282/2/193
o front_wheels
g front_wheels
v 0.085121 -0.000979 -0.340271
v 0.085121 0.065401 -0.333733
v 0.085121 0.129230 -0.314369
v 0.085121 0.188055 -0.282925
v 0.085121 0.239616 -0.240612
v 0.085121 0.281930 -0.189053
v 0.085121 0.313373 -0.130226
v 0.085121 0.332736 -0.066399
v 0.085121 0.339273 -0.000015
v 0.085121 0.332736 0.066364
v 0.085121 0.313373 0.130192
v 0.085121 0.281930 0.189018
v 0.085121 0.239616 0.240578
v 0.085121 0.188055 0.282890
v 0.085121 0.129230 0.314335
v 0.085121 0.065401 0.333698
v 0.085121 -0.000979 0.340237
v 0.085121 -0.067359 0.333698
v 0.085121 -0.131188 0.314335
v 0.085121 -0.190013 0.282890
v 0.085121 -0.241574 0.240578
v 0.085121 -0.283888 0.189018
v 0.085121 -0.315331 0.130192
v 0.085121 -0.334693 0.066364
v 0.085121 -0.341231 -0.000019
v 0.085121 -0.334693 -0.066399
v 0.085121 -0.315331 -0.130226
v 0.085121 -0.283888 -0.189053
v 0.085121 -0.241574 -0.240612
v 0.085121 -0.190013 -0.282928
v 0.085121 -0.131188 -0.314369
v 0.085121 -0.067359 -0.333733
v -0.081677 -0.000979 -0.340271
v -0.081677 0.065401 -0.333733
v -0.081677 0.129230 -0.314369
v -0.081677 0.188055 -0.282925
v -0.081677 0.239616 -0.240612
v -0.081677 0.281930 -0.189053
v -0.081677 0.313373 -0.130226
v -0.081677 0.332736 -0.066399
v -0.081677 0.339273 -0.000015
v -0.081677 0.332736 0.066364
v -0.081677 0.313373 0.130192
v -0.081677 0.281930 0.189018
v -0.081677 0.239616 0.240578
v -0.081677 0.188055 0.282890
v -0.081677 0.129230 0.314335
v -0.081677 0.065401 0.333698
v -0.081677 -0.000979 0.340237
v -0.081677 -0.067359 0.333698
v -0.081677 -0.131188 0.314335
v -0.081677 -0.190013 0.282890
v -0.081677 -0.241574 0.240578
v -0.081677 -0.283888 0.189018
v -0.081677 -0.315331 0.130192
v -0.081677 -0.334693 0.066364
v -0.081677 -0.341231 -0.000019
v -0.081677 -0.334693 -0.066399
v -0.081677 -0.315331 -0.130226
v -0.081677 -0.283888 -0.189053
v -0.081677 -0.241574 -0.240612
v -0.081677 -0.190013 -0.282928
v -0.081677 -0.131188 -0.314369
v -0.081677 -0.067359 -0.333733
v -0.102874 -0.000979 -0.302155
v -0.102874 0.057965 -0.296349
v -0.102874 0.114644 -0.279156
v -0.102874 0.166879 -0.251232
v -0.102874 0.212663 -0.213657
v -0.102874 0.250238 -0.167873
v -0.102874 0.278158 -0.115639
v -0.102874 0.295351 -0.058960
v -0.102874 0.301157 -0.000015
v -0.102874 0.295351 0.058926
v -0.102874 0.278158 0.115604
v -0.102874 0.250238 0.167839
v -0.102874 0.212663 0.213623
v -0.102874 0.166879 0.251198
v -0.102874 0.114643 0.279121
v -0.102874 0.057965 0.296314
v -0.102874 -0.000979 0.302120
v -0.102874 -0.059923 0.296314
v -0.102874 -0.116601 0.279121
v -0.102874 -0.168837 0.251198
v -0.102874 -0.214621 0.213623
v -0.102874 -0.252196 0.167839
v -0.102874 -0.280116 0.115604
v -0.102874 -0.297309 0.058926
v -0.102874 -0.303115 -0.000019
v -0.102874 -0.297309 -0.058960
v -0.102874 -0.280116 -0.115639
v -0.102874 -0.252195 -0.167873
v -0.102874 -0.214621 -0.213657
v -0.102874 -0.168836 -0.251232
v -0.102874 -0.116601 -0.279156
v -0.102874 -0.059923 -0.296349
v -0.101698 -0.000979 -0.236519
v -0.101698 0.045161 -0.231976
v -0.101698 0.089527 -0.218517
v -0.101698 0.130415 -0.196663
v -0.101698 0.166254 -0.167252
v -0.101698 0.195667 -0.131413
v -0.101698 0.217522 -0.090523
v -0.101698 0.230981 -0.046158
v -0.101698 0.235525 -0.000015
v -0.101698 0.230981 0.046124
v -0.101698 0.217522 0.090488
v -0.101698 0.195667 0.131378
v -0.101698 0.166254 0.167217
v -0.101698 0.130415 0.196629
v -0.101698 0.089527 0.218483
v -0.101698 0.045161 0.231941
v -0.101698 -0.000979 0.236488
v -0.101698 -0.047119 0.231941
v -0.101698 -0.091485 0.218483
v -0.101698 -0.132373 0.196629
v -0.101698 -0.168212 0.167217
v -0.101698 -0.197624 0.131378
v -0.101698 -0.219480 0.090488
v -0.101698 -0.232938 0.046124
v -0.101698 -0.237483 -0.000019
v -0.101698 -0.232938 -0.046158
v -0.101698 -0.219480 -0.090523
v -0.101698 -0.197624 -0.131413
v -0.101698 -0.168212 -0.167252
v -0.101698 -0.132373 -0.196663
v -0.101698 -0.091485 -0.218517
v -0.101698 -0.047118 -0.231976
v -0.087296 -0.000979 -0.214291
v -0.087296 0.040824 -0.210175
v -0.087296 0.081020 -0.197983
v -0.087296 0.118066 -0.178181
v -0.087296 0.150536 -0.151531
v -0.087296 0.177184 -0.119061
v -0.087296 0.196985 -0.082016
v -0.087296 0.209178 -0.041821
v -0.087296 0.213296 -0.000015
v -0.087296 0.209178 0.041786
v -0.087296 0.196985 0.081982
v -0.087296 0.177184 0.119026
v -0.087296 0.150536 0.151497
v -0.087296 0.118065 0.178146
v -0.087296 0.081020 0.197948
v -0.087296 0.040824 0.210140
v -0.087296 -0.000979 0.214256
v -0.087296 -0.042782 0.210140
v -0.087296 -0.082978 0.197948
v -0.087296 -0.120023 0.178146
v -0.087296 -0.152494 0.151497
v -0.087296 -0.179141 0.119026
v -0.087296 -0.198943 0.081982
v -0.087296 -0.211136 0.041786
v -0.087296 -0.215253 -0.000019
v -0.087296 -0.211136 -0.041821
v -0.087296 -0.198942 -0.082016
v -0.087296 -0.179141 -0.119061
v -0.087296 -0.152494 -0.151531
v -0.087296 -0.120023 -0.178181
v -0.087296 -0.082978 -0.197983
v -0.087296 -0.042782 -0.210175
v 0.101962 -0.000979 -0.314999
v 0.101962 0.060471 -0.308945
v 0.101962 0.119558 -0.291019
v 0.101962 0.174014 -0.261913
v 0.101962 0.221745 -0.222740
v 0.101962 0.260917 -0.175011
v 0.101962 0.290024 -0.120556
v 0.101962 0.307948 -0.061466
v 0.101962 0.314001 -0.000015
v 0.101962 0.307948 0.061432
v 0.101962 0.290024 0.120522
v 0.101962 0.260917 0.174976
v 0.101962 0.221745 0.222706
v 0.101962 0.174014 0.261879
v 0.101962 0.119558 0.290985
v 0.101962 0.060470 0.308910
v 0.101962 -0.000979 0.314960
v 0.101962 -0.062429 0.308910
v 0.101962 -0.121517 0.290985
v 0.101962 -0.175972 0.261879
v 0.101962 -0.223703 0.222706
v 0.101962 -0.262875 0.174976
v 0.101962 -0.291982 0.120522
v 0.101962 -0.309906 0.061432
v 0.101962 -0.315958 -0.000019
v 0.101962 -0.309906 -0.061466
v 0.101962 -0.291982 -0.120556
v 0.101962 -0.262875 -0.175011
v 0.101962 -0.223703 -0.222740
v 0.101962 -0.175972 -0.261913
v 0.101962 -0.121516 -0.291019
v 0.101962 -0.062428 -0.308945
v 0.107450 -0.000979 -0.232838
v 0.107450 0.044442 -0.228363
v 0.107450 0.088118 -0.215115
v 0.107450 0.128369 -0.193600
v 0.107450 0.163650 -0.164646
v 0.107450 0.192604 -0.129364
v 0.107450 0.214119 -0.089115
v 0.107450 0.227368 -0.045437
v 0.107450 0.231842 -0.000015
v 0.107450 0.227368 0.045403
v 0.107450 0.214119 0.089081
v 0.107450 0.192604 0.129330
v 0.107450 0.163650 0.164612
v 0.107450 0.128369 0.193565
v 0.107450 0.088118 0.215080
v 0.107450 0.044442 0.228329
v 0.107450 -0.000979 0.232803
v 0.107450 -0.046400 0.228329
v 0.107450 -0.090075 0.215080
v 0.107450 -0.130327 0.193565
v 0.107450 -0.165608 0.164612
v 0.107450 -0.194562 0.129330
v 0.107450 -0.216077 0.089081
v 0.107450 -0.229326 0.045403
v 0.107450 -0.233799 -0.000019
v 0.107450 -0.229326 -0.045437
v 0.107450 -0.216077 -0.089115
v 0.107450 -0.194562 -0.129364
v 0.107450 -0.165608 -0.164646
v 0.107450 -0.130327 -0.193600
v 0.107450 -0.090075 -0.215115
v 0.107450 -0.046400 -0.228363
v 0.098172 -0.000979 -0.204185
v 0.098172 0.038852 -0.200264
v 0.098172 0.077153 -0.188644
v 0.098172 0.112451 -0.169777
v 0.098172 0.143390 -0.144386
v 0.098172 0.168780 -0.113445
v 0.098172 0.187648 -0.078148
v 0.098172 0.199266 -0.039848
v 0.098172 0.203189 -0.000019
v 0.098172 0.199266 0.039814
v 0.098172 0.187648 0.078114
v 0.098172 0.168780 0.113411
v 0.098172 0.143390 0.144352
v 0.098172 0.112451 0.169743
v 0.098172 0.077153 0.188610
v 0.098172 0.038852 0.200230
v 0.098172 -0.000979 0.204151
v 0.098172 -0.040811 0.200230
v 0.098172 -0.079111 0.188610
v 0.098172 -0.114409 0.169743
v 0.098172 -0.145348 0.144352
v 0.098172 -0.170739 0.113411
v 0.098172 -0.189606 0.078114
v 0.098172 -0.201224 0.039814
v 0.098172 -0.205147 -0.000019
v 0.098172 -0.201224 -0.039848
v 0.098172 -0.189606 -0.078148
v 0.098172 -0.170739 -0.113445
v 0.098172 -0.145348 -0.144386
v 0.098172 -0.114409 -0.169777
v 0.098172 -0.079111 -0.188644
v 0.098172 -0.040811 -0.200264
vn -0.0000 0.7730 -0.6344
vn -0.0000 -0.0980 -0.9952
vn -0.0000 -0.4714 0.8819
vn -0.0000 0.8819 -0.4714
vn -0.0000 -0.6344 0.7730
vn -0.0000 0.9569 -0.2903
vn -0.0000 -0.7730 0.6344
vn -0.0000 0.9952 -0.0980
vn -0.0000 -0.8819 0.4714
vn -0.0000 0.9952 0.0980
vn -0.0000 -0.9569 0.2903
vn -0.0000 0.9569 0.2903
vn -0.0000 -0.9952 0.0980
vn -0.0000 0.8819 0.4714
vn -0.0000 -0.9952 -0.0980
vn -0.0000 0.7730 0.6344
vn -0.0000 -0.9569 -0.2903
vn -0.0000 0.6344 0.7730
vn -0.0000 -0.8819 -0.4714
vn -0.0000 0.4714 0.8819
vn -0.0000 0.0980 -0.9952
vn -0.0000 -0.7730 -0.6344
vn -0.0000 0.2903 0.9569
vn -0.0000 0.2903 -0.9569
vn -0.0000 -0.6344 -0.7730
vn -0.0000 0.0980 0.9952
vn -0.0000 0.4714 -0.8819
vn -0.0000 -0.4714 -0.8819
vn -0.0000 -0.0980 0.9952
vn -0.0000 0.6344 -0.7730
vn -0.0000 -0.2903 -0.9569
vn -0.0000 -0.2903 0.9569
vn -0.8730 -0.4302 -0.2299
vn -0.8729 0.2300 0.4302
vn -0.8729 0.0478 -0.4855
vn -0.8730 -0.3771 -0.3094
vn -0.8729 0.1416 0.4668
vn -0.8729 0.1416 -0.4668
vn -0.8730 -0.3094 -0.3771
vn -0.8730 0.0478 0.4855
vn -0.8729 0.2300 -0.4302
vn -0.8730 -0.2300 -0.4302
vn -0.8730 -0.0478 0.4855
vn -0.8730 0.3095 -0.3771
vn -0.8729 -0.1416 -0.4668
vn -0.8729 -0.1416 0.4668
vn -0.8730 0.3771 -0.3095
vn -0.8729 -0.0478 -0.4855
vn -0.8729 -0.2300 0.4302
vn -0.8730 0.4302 -0.2299
vn -0.8730 -0.3095 0.3771
vn -0.8730 0.4668 -0.1416
vn -0.8730 -0.3771 0.3095
vn -0.8730 0.4855 -0.0478
vn -0.8730 -0.4302 0.2299
vn -0.8730 0.4855 0.0478
vn -0.8730 -0.4668 0.1416
vn -0.8730 0.4668 0.1416
vn -0.8730 -0.4855 0.0478
vn -0.8730 0.4302 0.2299
vn -0.8730 -0.4855 -0.0478
vn -0.8730 0.3771 0.3095
vn -0.8730 -0.4668 -0.1416
vn -0.8730 0.3095 0.3771
vn -0.9998 -0.0100 0.0149
vn -0.9998 -0.0069 0.0166
vn -0.9998 0.0069 0.0166
vn -0.9998 0.0100 0.0149
vn -0.9998 0.0035 -0.0176
vn -0.9998 -0.0000 -0.0179
vn -0.9998 -0.0127 0.0127
vn -0.9998 0.0035 0.0176
vn -0.9998 0.0069 -0.0166
vn -0.9998 -0.0149 0.0100
vn -0.9998 -0.0000 0.0179
vn -0.9998 0.0100 -0.0149
vn -0.9998 -0.0166 0.0069
vn -0.9998 0.0127 -0.0127
vn -0.9998 -0.0176 0.0035
vn -0.9998 0.0149 -0.0100
vn -0.9998 -0.0179 -0.0000
vn -0.9998 0.0166 -0.0069
vn -0.9998 -0.0176 -0.0035
vn -0.9998 0.0176 -0.0035
vn -0.9998 -0.0166 -0.0069
vn -0.9998 0.0179 -0.0000
vn -0.9998 -0.0149 -0.0100
vn -0.9998 0.0176 0.0035
vn -0.9998 -0.0127 -0.0127
vn -0.9998 0.0166 0.0069
vn -0.9998 -0.0100 -0.0149
vn -0.9998 0.0149 0.0100
vn -0.9998 -0.0069 -0.0166
vn -0.9998 -0.0035 0.0176
vn -0.9998 0.0127 0.0127
vn -0.9998 -0.0035 -0.0176
vn -0.8381 -0.4812 0.2572
vn -0.8381 0.3461 -0.4217
vn -0.8381 -0.5221 0.1584
vn -0.8381 0.4217 -0.3461
vn -0.8381 -0.5430 0.0535
vn -0.8381 0.4812 -0.2572
vn -0.8381 -0.5430 -0.0535
vn -0.8381 0.5221 -0.1584
vn -0.8381 -0.5221 -0.1584
vn -0.8381 0.5430 -0.0535
vn -0.8381 -0.4812 -0.2572
vn -0.8381 0.5430 0.0535
vn -0.8381 -0.4217 -0.3461
vn -0.8381 0.5221 0.1584
vn -0.8381 -0.3461 -0.4217
vn -0.8381 0.4812 0.2572
vn -0.8380 -0.2572 -0.4812
vn -0.8380 -0.0535 0.5430
vn -0.8381 0.4217 0.3461
vn -0.8380 -0.1584 -0.5221
vn -0.8380 -0.1584 0.5221
vn -0.8381 0.3461 0.4217
vn -0.8381 -0.0535 -0.5429
vn -0.8380 -0.2572 0.4812
vn -0.8380 0.2572 0.4812
vn -0.8381 0.0535 -0.5429
vn -0.8381 -0.3461 0.4217
vn -0.8380 0.1584 0.5221
vn -0.8380 0.1584 -0.5221
vn -0.8381 -0.4217 0.3461
vn -0.8380 0.0535 0.5430
vn -0.8380 0.2572 -0.4812
vn 0.8309 0.4301 -0.3530
vn 0.8309 -0.0545 -0.5537
vn 0.8309 -0.2623 0.4907
vn 0.8309 0.4907 -0.2623
vn 0.8309 -0.3530 0.4301
vn 0.8309 0.5324 -0.1615
vn 0.8309 -0.4301 0.3530
vn 0.8309 0.5537 -0.0545
vn 0.8309 -0.4907 0.2623
vn 0.8309 0.5537 0.0545
vn 0.8309 -0.5324 0.1615
vn 0.8309 0.5324 0.1615
vn 0.8309 -0.5537 0.0545
vn 0.8309 0.4907 0.2623
vn 0.8309 -0.5537 -0.0545
vn 0.8309 0.4301 0.3530
vn 0.8309 -0.5324 -0.1615
vn 0.8309 0.3530 0.4301
vn 0.8309 -0.4907 -0.2623
vn 0.8309 0.2623 0.4907
vn 0.8309 0.0545 -0.5537
vn 0.8309 -0.4301 -0.3530
vn 0.8309 0.1615 0.5324
vn 0.8309 0.1615 -0.5324
vn 0.8309 -0.3530 -0.4301
vn 0.8310 0.0545 0.5537
vn 0.8309 0.2623 -0.4907
vn 0.8309 -0.2623 -0.4907
vn 0.8310 -0.0545 0.5537
vn 0.8309 0.3530 -0.4301
vn 0.8309 -0.1615 -0.5324
vn 0.8309 -0.1615 0.5324
vn 0.9978 -0.0654 0.0130
vn 0.9978 -0.0666 -0.0000
vn 0.9978 0.0616 0.0255
vn 0.9978 0.0554 0.0370
vn 0.9978 -0.0654 -0.0130
vn 0.9978 0.0471 0.0471
vn 0.9978 -0.0616 -0.0255
vn 0.9978 0.0370 0.0554
vn 0.9978 -0.0554 -0.0370
vn 0.9978 0.0255 0.0616
vn 0.9978 -0.0000 -0.0666
vn 0.9978 0.0130 -0.0654
vn 0.9978 -0.0471 -0.0471
vn 0.9978 0.0130 0.0654
vn 0.9978 0.0255 -0.0616
vn 0.9978 -0.0370 -0.0554
vn 0.9978 -0.0000 0.0666
vn 0.9978 0.0370 -0.0554
vn 0.9978 -0.0255 -0.0616
vn 0.9978 -0.0130 0.0654
vn 0.9978 0.0471 -0.0471
vn 0.9978 -0.0130 -0.0654
vn 0.9978 -0.0255 0.0616
vn 0.9978 0.0554 -0.0370
vn 0.9978 -0.0370 0.0554
vn 0.9978 0.0616 -0.0255
vn 0.9978 -0.0471 0.0471
vn 0.9978 0.0654 -0.0130
vn 0.9978 -0.0554 0.0370
vn 0.9978 0.0666 -0.0000
vn 0.9978 -0.0616 0.0255
vn 0.9978 0.0654 0.0130
vn 0.9509 0.2729 0.1459
vn 0.9509 -0.1459 -0.2729
vn 0.9509 -0.0303 0.3079
vn 0.9509 0.2392 0.1963
vn 0.9509 -0.0898 -0.2961
vn 0.9509 -0.0898 0.2961
vn 0.9509 0.1963 0.2392
vn 0.9509 -0.0303 -0.3079
vn 0.9509 -0.1459 0.2729
vn 0.9509 0.1459 0.2729
vn 0.9509 0.0303 -0.3079
vn 0.9509 -0.1963 0.2392
vn 0.9509 0.0898 0.2961
vn 0.9509 0.0898 -0.2961
vn 0.9509 -0.2392 0.1963
vn 0.9509 0.0303 0.3079
vn 0.9509 0.1459 -0.2729
vn 0.9509 -0.2729 0.1459
vn 0.9509 0.1963 -0.2392
vn 0.9509 -0.2961 0.0898
vn 0.9509 0.2392 -0.1963
vn 0.9509 -0.3079 0.0303
vn 0.9509 0.2729 -0.1459
vn 0.9509 -0.3079 -0.0303
vn 0.9509 0.2961 -0.0898
vn 0.9509 -0.2961 -0.0898
vn 0.9509 0.3079 -0.0303
vn 0.9509 -0.2729 -0.1459
vn 0.9509 0.3079 0.0303
vn 0.9509 -0.2392 -0.1963
vn 0.9509 0.2961 0.0898
vn 0.9509 -0.1963 -0.2392
vt 0.924324 0.453572
s 1
usemtl Material.002
f 294/3/194 293/3/194 325/3/194 326/3/194
f 289/3/195 320/3/195 352/3/195 321/3/195
f 308/3/196 307/3/196 339/3/196 340/3/196
f 295/3/197 294/3/197 326/3/197 327/3/197
f 309/3/198 308/3/198 340/3/198 341/3/198
f 296/3/199 295/3/199 327/3/199 328/3/199
f 310/3/200 309/3/200 341/3/200 342/3/200
f 297/3/201 296/3/201 328/3/201 329/3/201
f 311/3/202 310/3/202 342/3/202 343/3/202
f 298/3/203 297/3/203 329/3/203 330/3/203
f 312/3/204 311/3/204 343/3/204 344/3/204
f 299/3/205 298/3/205 330/3/205 331/3/205
f 313/3/206 312/3/206 344/3/206 345/3/206
f 300/3/207 299/3/207 331/3/207 332/3/207
f 314/3/208 313/3/208 345/3/208 346/3/208
f 301/3/209 300/3/209 332/3/209 333/3/209
f 315/3/210 314/3/210 346/3/210 347/3/210
f 302/3/211 301/3/211 333/3/211 334/3/211
f 316/3/212 315/3/212 347/3/212 348/3/212
f 303/3/213 302/3/213 334/3/213 335/3/213
f 290/3/214 289/3/214 321/3/214 322/3/214
f 317/3/215 316/3/215 348/3/215 349/3/215
f 304/3/216 303/3/216 335/3/216 336/3/216
f 291/3/217 290/3/217 322/3/217 323/3/217
f 318/3/218 317/3/218 349/3/218 350/3/218
f 305/3/219 304/3/219 336/3/219 337/3/219
f 292/3/220 291/3/220 323/3/220 324/3/220
f 319/3/221 318/3/221 350/3/221 351/3/221
f 306/3/222 305/3/222 337/3/222 338/3/222
f 293/3/223 292/3/223 324/3/223 325/3/223
f 320/3/224 319/3/224 351/3/224 352/3/224
f 307/3/225 306/3/225 338/3/225 339/3/225
f 348/3/226 347/3/226 379/3/226 380/3/226
f 335/3/227 334/3/227 366/3/227 367/3/227
f 322/3/228 321/3/228 353/3/228 354/3/228
f 349/3/229 348/3/229 380/3/229 381/3/229
f 336/3/230 335/3/230 367/3/230 368/3/230
f 323/3/231 322/3/231 354/3/231 355/3/231
f 350/3/232 349/3/232 381/3/232 382/3/232
f 337/3/233 336/3/233 368/3/233 369/3/233
f 324/3/234 323/3/234 355/3/234 356/3/234
f 351/3/235 350/3/235 382/3/235 383/3/235
f 338/3/236 337/3/236 369/3/236 370/3/236
f 325/3/237 324/3/237 356/3/237 357/3/237
f 352/3/238 351/3/238 383/3/238 384/3/238
f 339/3/239 338/3/239 370/3/239 371/3/239
f 326/3/240 325/3/240 357/3/240 358/3/240
f 321/3/241 352/3/241 384/3/241 353/3/241
f 340/3/242 339/3/242 371/3/242 372/3/242
f 327/3/243 326/3/243 358/3/243 359/3/243
f 341/3/244 340/3/244 372/3/244 373/3/244
f 328/3/245 327/3/245 359/3/245 360/3/245
f 342/3/246 341/3/246 373/3/246 374/3/246
f 329/3/247 328/3/247 360/3/247 361/3/247
f 343/3/248 342/3/248 374/3/248 375/3/248
f 330/3/249 329/3/249 361/3/249 362/3/249
f 344/3/250 343/3/250 375/3/250 376/3/250
f 331/3/251 330/3/251 362/3/251 363/3/251
f 345/3/252 344/3/252 376/3/252 377/3/252
f 332/3/253 331/3/253 363/3/253 364/3/253
f 346/3/254 345/3/254 377/3/254 378/3/254
f 333/3/255 332/3/255 364/3/255 365/3/255
f 347/3/256 346/3/256 378/3/256 379/3/256
f 334/3/257 333/3/257 365/3/257 366/3/257
f 356/3/258 355/3/259 387/3/259 388/3/258
f 383/3/260 382/3/261 414/3/261 415/3/260
f 370/3/262 369/3/263 401/3/263 402/3/262
f 357/3/264 356/3/258 388/3/258 389/3/264
f 384/3/265 383/3/260 415/3/260 416/3/265
f 371/3/266 370/3/262 402/3/262 403/3/266
f 358/3/267 357/3/264 389/3/264 390/3/267
f 353/3/268 384/3/265 416/3/265 385/3/268
f 372/3/269 371/3/266 403/3/266 404/3/269
f 359/3/270 358/3/267 390/3/267 391/3/270
f 373/3/271 372/3/269 404/3/269 405/3/271
f 360/3/272 359/3/270 391/3/270 392/3/272
f 374/3/273 373/3/271 405/3/271 406/3/273
f 361/3/274 360/3/272 392/3/272 393/3/274
f 375/3/275 374/3/273 406/3/273 407/3/275
f 362/3/276 361/3/274 393/3/274 394/3/276
f 376/3/277 375/3/275 407/3/275 408/3/277
f 363/3/278 362/3/276 394/3/276 395/3/278
f 377/3/279 376/3/277 408/3/277 409/3/279
f 364/3/280 363/3/278 395/3/278 396/3/280
f 378/3/281 377/3/279 409/3/279 410/3/281
f 365/3/282 364/3/280 396/3/280 397/3/282
f 379/3/283 378/3/281 410/3/281 411/3/283
f 366/3/284 365/3/282 397/3/282 398/3/284
f 380/3/285 379/3/283 411/3/283 412/3/285
f 367/3/286 366/3/284 398/3/284 399/3/286
f 354/3/287 353/3/268 385/3/268 386/3/287
f 381/3/288 380/3/285 412/3/285 413/3/288
f 368/3/289 367/3/286 399/3/286 400/3/289
f 355/3/259 354/3/287 386/3/287 387/3/259
f 382/3/261 381/3/288 413/3/288 414/3/261
f 369/3/263 368/3/289 400/3/289 401/3/263
f 391/3/290 390/3/290 422/3/290 423/3/290
f 405/3/291 404/3/291 436/3/291 437/3/291
f 392/3/292 391/3/292 423/3/292 424/3/292
f 406/3/293 405/3/293 437/3/293 438/3/293
f 393/3/294 392/3/294 424/3/294 425/3/294
f 407/3/295 406/3/295 438/3/295 439/3/295
f 394/3/296 393/3/296 425/3/296 426/3/296
f 408/3/297 407/3/297 439/3/297 440/3/297
f 395/3/298 394/3/298 426/3/298 427/3/298
f 409/3/299 408/3/299 440/3/299 441/3/299
f 396/3/300 395/3/300 427/3/300 428/3/300
f 410/3/301 409/3/301 441/3/301 442/3/301
f 397/3/302 396/3/302 428/3/302 429/3/302
f 411/3/303 410/3/303 442/3/303 443/3/303
f 398/3/304 397/3/304 429/3/304 430/3/304
f 412/3/305 411/3/305 443/3/305 444/3/305
f 399/3/306 398/3/306 430/3/306 431/3/306
f 386/3/307 385/3/307 417/3/307 418/3/307
f 413/3/308 412/3/308 444/3/308 445/3/308
f 400/3/309 399/3/309 431/3/309 432/3/309
f 387/3/310 386/3/310 418/3/310 419/3/310
f 414/3/311 413/3/311 445/3/311 446/3/311
f 401/3/312 400/3/312 432/3/312 433/3/312
f 388/3/313 387/3/313 419/3/313 420/3/313
f 415/3/314 414/3/314 446/3/314 447/3/314
f 402/3/315 401/3/315 433/3/315 434/3/315
f 389/3/316 388/3/316 420/3/316 421/3/316
f 416/3/317 415/3/317 447/3/317 448/3/317
f 403/3/318 402/3/318 434/3/318 435/3/318
f 390/3/319 389/3/319 421/3/319 422/3/319
f 385/3/320 416/3/320 448/3/320 417/3/320
f 404/3/321 403/3/321 435/3/321 436/3/321
f 293/3/322 294/3/322 454/3/322 453/3/322
f 320/3/323 289/3/323 449/3/323 480/3/323
f 307/3/324 308/3/324 468/3/324 467/3/324
f 294/3/325 295/3/325 455/3/325 454/3/325
f 308/3/326 309/3/326 469/3/326 468/3/326
f 295/3/327 296/3/327 456/3/327 455/3/327
f 309/3/328 310/3/328 470/3/328 469/3/328
f 296/3/329 297/3/329 457/3/329 456/3/329
f 310/3/330 311/3/330 471/3/330 470/3/330
f 297/3/331 298/3/331 458/3/331 457/3/331
f 311/3/332 312/3/332 472/3/332 471/3/332
f 298/3/333 299/3/333 459/3/333 458/3/333
f 312/3/334 313/3/334 473/3/334 472/3/334
f 299/3/335 300/3/335 460/3/335 459/3/335
f 313/3/336 314/3/336 474/3/336 473/3/336
f 300/3/337 301/3/337 461/3/337 460/3/337
f 314/3/338 315/3/338 475/3/338 474/3/338
f 301/3/339 302/3/339 462/3/339 461/3/339
f 315/3/340 316/3/340 476/3/340 475/3/340
f 302/3/341 303/3/341 463/3/341 462/3/341
f 289/3/342 290/3/342 450/3/342 449/3/342
f 316/3/343 317/3/343 477/3/343 476/3/343
f 303/3/344 304/3/344 464/3/344 463/3/344
f 290/3/345 291/3/345 451/3/345 450/3/345
f 317/3/346 318/3/346 478/3/346 477/3/346
f 304/3/347 305/3/347 465/3/347 464/3/347
f 291/3/348 292/3/348 452/3/348 451/3/348
f 318/3/349 319/3/349 479/3/349 478/3/349
f 305/3/350 306/3/350 466/3/350 465/3/350
f 292/3/351 293/3/351 453/3/351 452/3/351
f 319/3/352 320/3/352 480/3/352 479/3/352
f 306/3/353 307/3/353 467/3/353 466/3/353
f 472/3/354 473/3/355 505/3/355 504/3/354
f 459/3/356 460/3/357 492/3/357 491/3/356
f 473/3/355 474/3/358 506/3/358 505/3/355
f 460/3/357 461/3/359 493/3/359 492/3/357
f 474/3/358 475/3/360 507/3/360 506/3/358
f 461/3/359 462/3/361 494/3/361 493/3/359
f 475/3/360 476/3/362 508/3/362 507/3/360
f 462/3/361 463/3/363 495/3/363 494/3/361
f 449/3/364 450/3/365 482/3/365 481/3/364
f 476/3/362 477/3/366 509/3/366 508/3/362
f 463/3/363 464/3/367 496/3/367 495/3/363
f 450/3/365 451/3/368 483/3/368 482/3/365
f 477/3/366 478/3/369 510/3/369 509/3/366
f 464/3/367 465/3/370 497/3/370 496/3/367
f 451/3/368 452/3/371 484/3/371 483/3/368
f 478/3/369 479/3/372 511/3/372 510/3/369
f 465/3/370 466/3/373 498/3/373 497/3/370
f 452/3/371 453/3/374 485/3/374 484/3/371
f 479/3/372 480/3/375 512/3/375 511/3/372
f 466/3/373 467/3/376 499/3/376 498/3/373
f 453/3/374 454/3/377 486/3/377 485/3/374
f 480/3/375 449/3/364 481/3/364 512/3/375
f 467/3/376 468/3/378 500/3/378 499/3/376
f 454/3/377 455/3/379 487/3/379 486/3/377
f 468/3/378 469/3/380 501/3/380 500/3/378
f 455/3/379 456/3/381 488/3/381 487/3/379
f 469/3/380 470/3/382 502/3/382 501/3/380
f 456/3/381 457/3/383 489/3/383 488/3/381
f 470/3/382 471/3/384 503/3/384 502/3/382
f 457/3/383 458/3/385 490/3/385 489/3/383
f 471/3/384 472/3/354 504/3/354 503/3/384
f 458/3/385 459/3/356 491/3/356 490/3/385
f 507/3/386 508/3/386 540/3/386 539/3/386
f 494/3/387 495/3/387 527/3/387 526/3/387
f 481/3/388 482/3/388 514/3/388 513/3/388
f 508/3/389 509/3/389 541/3/389 540/3/389
f 495/3/390 496/3/390 528/3/390 527/3/390
f 482/3/391 483/3/391 515/3/391 514/3/391
f 509/3/392 510/3/392 542/3/392 541/3/392
f 496/3/393 497/3/393 529/3/393 528/3/393
f 483/3/394 484/3/394 516/3/394 515/3/394
f 510/3/395 511/3/395 543/3/395 542/3/395
f 497/3/396 498/3/396 530/3/396 529/3/396
f 484/3/397 485/3/397 517/3/397 516/3/397
f 511/3/398 512/3/398 544/3/398 543/3/398
f 498/3/399 499/3/399 531/3/399 530/3/399
f 485/3/400 486/3/400 518/3/400 517/3/400
f 512/3/401 481/3/401 513/3/401 544/3/401
f 499/3/402 500/3/402 532/3/402 531/3/402
f 486/3/403 487/3/403 519/3/403 518/3/403
f 500/3/404 501/3/404 533/3/404 532/3/404
f 487/3/405 488/3/405 520/3/405 519/3/405
f 501/3/406 502/3/406 534/3/406 533/3/406
f 488/3/407 489/3/407 521/3/407 520/3/407
f 502/3/408 503/3/408 535/3/408 534/3/408
f 489/3/409 490/3/409 522/3/409 521/3/409
f 503/3/410 504/3/410 536/3/410 535/3/410
f 490/3/411 491/3/411 523/3/411 522/3/411
f 504/3/412 505/3/412 537/3/412 536/3/412
f 491/3/413 492/3/413 524/3/413 523/3/413
f 505/3/414 506/3/414 538/3/414 537/3/414
f 492/3/415 493/3/415 525/3/415 524/3/415
f 506/3/416 507/3/416 539/3/416 538/3/416
f 493/3/417 494/3/417 526/3/417 525/3/417
