# Blender 5.2.2 LTS
# www.blender.org
mtllib all_wheels.mtl
o all_wheels
v -0.122311 0.072695 -0.223732
v -0.122311 -0.000000 -0.235246
v -0.122311 -0.138274 -0.190318
v -0.122311 -0.072695 -0.223733
v -0.122311 -0.190318 -0.138274
v -0.122311 -0.223733 -0.072695
v -0.122311 -0.223733 0.072695
v -0.122311 -0.235246 -0.000000
v -0.122311 -0.190318 0.138274
v -0.122311 -0.138274 0.190318
v -0.122311 -0.000000 0.235246
v -0.122311 -0.072695 0.223733
v -0.122311 0.072695 0.223733
v -0.122311 0.138274 0.190318
v -0.122311 0.223732 0.072695
v -0.122311 0.190318 0.138274
v -0.122311 0.235246 0.000000
v -0.122311 0.223732 -0.072695
v -0.122311 0.190318 -0.138274
v -0.122311 0.138274 -0.190318
v 0.122311 0.053995 -0.166180
v 0.122311 0.000000 -0.174733
v 0.122311 -0.102705 -0.141362
v 0.122311 -0.053995 -0.166181
v 0.122311 -0.141362 -0.102705
v 0.122311 -0.166180 -0.053995
v 0.122311 -0.166180 0.053995
v 0.122311 -0.174732 -0.000000
v 0.122311 -0.141362 0.102705
v 0.122311 -0.102705 0.141362
v 0.122311 0.000000 0.174733
v 0.122311 -0.053995 0.166181
v 0.122311 0.053995 0.166181
v 0.122311 0.102705 0.141362
v 0.122311 0.166181 0.053995
v 0.122311 0.141362 0.102705
v 0.122311 0.174733 0.000000
v 0.122311 0.166181 -0.053995
v 0.122311 0.141362 -0.102705
v 0.122311 0.102705 -0.141362
v 0.122311 0.000000 0.000000
v -0.094262 0.093702 -0.288385
v -0.122311 0.084926 -0.261376
v -0.094262 0.000000 -0.303226
v -0.122311 0.000000 -0.274827
v -0.122311 -0.161539 -0.222340
v -0.094262 -0.178232 -0.245315
v -0.094262 -0.093702 -0.288385
v -0.122311 -0.084926 -0.261376
v -0.094262 -0.245315 -0.178232
v -0.122311 -0.222340 -0.161540
v -0.094262 -0.288385 -0.093702
v -0.122311 -0.261376 -0.084926
v -0.122311 -0.261376 0.084926
v -0.094262 -0.288385 0.093702
v -0.094262 -0.303226 -0.000000
v -0.122311 -0.274827 -0.000000
v -0.094262 -0.245315 0.178232
v -0.122311 -0.222340 0.161539
v -0.094262 -0.178232 0.245315
v -0.122311 -0.161540 0.222340
v -0.122311 -0.000000 0.274827
v -0.094262 -0.000000 0.303226
v -0.094262 -0.093702 0.288385
v -0.122311 -0.084926 0.261376
v -0.094262 0.093702 0.288385
v -0.122311 0.084926 0.261376
v -0.094262 0.178232 0.245315
v -0.122311 0.161539 0.222340
v -0.122311 0.261376 0.084926
v -0.094262 0.288385 0.093702
v -0.094262 0.245315 0.178232
v -0.122311 0.222340 0.161539
v -0.094262 0.303226 0.000000
v -0.122311 0.274827 0.000000
v -0.094262 0.288385 -0.093702
v -0.122311 0.261376 -0.084926
v -0.122311 0.222340 -0.161539
v -0.094262 0.245315 -0.178232
v -0.122311 0.161539 -0.222340
v -0.094262 0.178232 -0.245315
v 0.122311 0.084926 -0.261376
v 0.094262 0.093702 -0.288385
v 0.122311 0.000000 -0.274827
v 0.094262 0.000000 -0.303226
v 0.094262 -0.178232 -0.245315
v 0.122311 -0.161539 -0.222340
v 0.122311 -0.084926 -0.261376
v 0.094262 -0.093702 -0.288385
v 0.122311 -0.222340 -0.161540
v 0.094262 -0.245315 -0.178232
v 0.122311 -0.261376 -0.084926
v 0.094262 -0.288385 -0.093702
v 0.094262 -0.288385 0.093702
v 0.122311 -0.261376 0.084926
v 0.122311 -0.274827 -0.000000
v 0.094262 -0.303226 -0.000000
v 0.122311 -0.222340 0.161539
v 0.094262 -0.245315 0.178232
v 0.122311 -0.161539 0.222340
v 0.094262 -0.178232 0.245315
v 0.094262 0.000000 0.303226
v 0.122311 0.000000 0.274827
v 0.122311 -0.084926 0.261376
v 0.094262 -0.093702 0.288385
v 0.122311 0.084926 0.261376
v 0.094262 0.093702 0.288385
v 0.122311 0.161540 0.222340
v 0.094262 0.178232 0.245315
v 0.094262 0.288385 0.093702
v 0.122311 0.261376 0.084926
v 0.122311 0.222340 0.161539
v 0.094262 0.245315 0.178232
v 0.122311 0.274827 0.000000
v 0.094262 0.303226 0.000000
v 0.122311 0.261376 -0.084926
v 0.094262 0.288385 -0.093702
v 0.094262 0.245315 -0.178232
v 0.122311 0.222340 -0.161539
v 0.094262 0.178232 -0.245315
v 0.122311 0.161540 -0.222340
v -0.096253 0.123002 -0.089366
v -0.096253 0.140182 -0.052897
v -0.096253 0.153903 0.000000
v -0.096253 0.140197 -0.101859
v -0.096253 0.164811 -0.053550
v -0.096253 0.173293 0.000000
v -0.096252 0.040641 -0.029527
v -0.096252 0.047776 -0.015523
v -0.096252 0.050235 0.000000
v -0.096253 0.108201 -0.056076
v -0.096253 0.070949 -0.025872
v -0.096253 0.060881 0.000000
v -0.096253 0.098891 -0.071849
v -0.096252 0.060258 -0.043780
v -0.096253 0.107392 0.000000
v -0.096253 0.123002 0.089366
v -0.096253 0.140182 0.052897
v -0.096253 0.140197 0.101859
v -0.096253 0.164811 0.053550
v -0.096252 0.040641 0.029527
v -0.096252 0.047776 0.015523
v -0.096253 0.108201 0.056076
v -0.096253 0.070949 0.025872
v -0.096253 0.098891 0.071849
v -0.096252 0.060258 0.043780
v -0.096253 0.093627 0.116975
v -0.096252 0.047559 0.146371
v -0.096253 0.101859 0.140197
v -0.096252 0.053550 0.164811
v -0.096252 0.029527 0.040641
v -0.096252 0.015523 0.047776
v -0.096253 0.086768 0.085577
v -0.096253 0.046530 0.059482
v -0.096252 0.018813 0.057901
v -0.096252 0.033186 0.102136
v -0.096252 -0.046983 0.144598
v -0.096252 -0.006989 0.149667
v -0.096252 -0.053551 0.164811
v -0.096252 -0.000000 0.173293
v -0.096252 -0.015523 0.047776
v -0.096252 -0.000000 0.050235
v -0.096252 -0.019896 0.120234
v -0.096252 -0.002681 0.075471
v -0.096252 -0.037773 0.116253
v -0.096252 -0.023017 0.070838
v -0.096252 -0.082318 0.125191
v -0.096252 -0.124511 0.090462
v -0.096252 -0.101859 0.140197
v -0.096252 -0.140197 0.101859
v -0.096252 -0.029527 0.040641
v -0.096252 -0.040641 0.029527
v -0.096252 -0.054576 0.108966
v -0.096252 -0.042192 0.062634
v -0.096252 -0.049254 0.035785
v -0.096252 -0.086882 0.063124
v -0.096252 -0.152039 -0.000000
v -0.096252 -0.144502 0.039603
v -0.096252 -0.173293 -0.000000
v -0.096252 -0.164811 0.053550
v -0.096252 -0.050235 -0.000000
v -0.096252 -0.047776 0.015523
v -0.096252 -0.120498 0.018232
v -0.096252 -0.072606 0.020772
v -0.096252 -0.122236 -0.000000
v -0.096252 -0.074483 -0.000000
v -0.096252 -0.144502 -0.039603
v -0.096252 -0.124511 -0.090462
v -0.096252 -0.164811 -0.053550
v -0.096252 -0.140197 -0.101859
v -0.096252 -0.047776 -0.015523
v -0.096252 -0.040641 -0.029527
v -0.096252 -0.120498 -0.018232
v -0.096252 -0.072606 -0.020772
v -0.096252 -0.049254 -0.035785
v -0.096252 -0.086882 -0.063124
v -0.096252 -0.046983 -0.144598
v -0.096252 -0.082318 -0.125191
v -0.096252 -0.053550 -0.164811
v -0.096252 -0.101859 -0.140197
v -0.096252 -0.015523 -0.047776
v -0.096252 -0.029527 -0.040641
v -0.096252 -0.054576 -0.108966
v -0.096252 -0.042192 -0.062634
v -0.096252 -0.037773 -0.116253
v -0.096252 -0.023017 -0.070838
v -0.096252 -0.006989 -0.149667
v -0.096252 0.047559 -0.146371
v -0.096252 -0.000000 -0.173293
v -0.096252 0.053550 -0.164811
v -0.096252 -0.000000 -0.050235
v -0.096252 0.015523 -0.047776
v -0.096252 -0.019896 -0.120234
v -0.096252 -0.002681 -0.075471
v -0.096252 0.018813 -0.057901
v -0.096252 0.033186 -0.102136
v -0.096253 0.093627 -0.116975
v -0.096253 0.101859 -0.140197
v -0.096252 0.029527 -0.040641
v -0.096253 0.086768 -0.085577
v -0.096253 0.046530 -0.059482
v -0.087074 0.023277 -0.016912
v -0.087074 0.027364 -0.008891
v -0.087074 0.028772 0.000000
v -0.087074 0.023277 0.016912
v -0.087074 0.027364 0.008891
v -0.087074 0.016912 0.023277
v -0.087074 0.008891 0.027364
v -0.087074 -0.008891 0.027364
v -0.087074 -0.000000 0.028772
v -0.087074 -0.016912 0.023277
v -0.087074 -0.023277 0.016912
v -0.087074 -0.028772 0.000000
v -0.087074 -0.027364 0.008891
v -0.087074 -0.027364 -0.008891
v -0.087074 -0.023277 -0.016912
v -0.087074 -0.008891 -0.027364
v -0.087074 -0.016912 -0.023277
v -0.087074 -0.000000 -0.028772
v -0.087074 0.008891 -0.027364
v -0.087074 0.016912 -0.023277
v -0.087074 -0.000000 0.000000
v -0.116913 -0.194272 -0.063123
v -0.116913 0.204269 -0.000000
v -0.116913 0.194272 -0.063123
v -0.116913 0.165258 -0.120067
v -0.116913 -0.000000 -0.204270
v -0.116913 0.165257 0.120067
v -0.116913 0.194272 0.063123
v -0.116913 -0.165258 0.120067
v -0.116913 -0.063123 0.194272
v -0.116913 -0.000000 0.204270
v -0.116913 -0.204270 -0.000000
v -0.116913 -0.194272 0.063123
v -0.116913 -0.165258 -0.120067
v -0.116913 -0.063123 -0.194272
v -0.116913 -0.120067 -0.165258
v -0.116913 0.120067 -0.165258
v -0.116913 0.063123 -0.194272
v -0.116913 0.063123 0.194272
v -0.116913 0.120067 0.165258
v -0.116913 -0.120067 0.165258
vn 1.0000 -0.0000 -0.0000
vn -0.7115 0.2172 -0.6683
vn -0.7115 0.4130 -0.5685
vn -0.7115 0.5685 -0.4130
vn -0.7115 -0.0000 -0.7027
vn -0.7115 -0.2172 -0.6683
vn -0.7115 -0.5685 -0.4130
vn -0.7115 -0.4130 -0.5685
vn -0.7115 -0.6683 -0.2172
vn -0.7115 -0.7027 -0.0000
vn -0.7115 -0.5685 0.4130
vn -0.7115 -0.6683 0.2172
vn -0.7115 -0.4130 0.5685
vn -0.7115 -0.2172 0.6683
vn -0.7115 0.2171 0.6683
vn -0.7115 -0.0000 0.7027
vn -0.7115 0.4130 0.5685
vn -0.7115 0.5685 0.4130
vn -0.7115 0.7027 -0.0000
vn -0.7115 0.6683 0.2172
vn -0.7115 0.6683 -0.2172
vn 0.7115 0.2172 -0.6683
vn 0.7115 0.4130 -0.5685
vn 0.7115 0.5685 -0.4130
vn 0.7115 -0.0000 -0.7027
vn 0.7115 -0.2171 -0.6683
vn 0.7115 -0.5685 -0.4130
vn 0.7115 -0.4130 -0.5685
vn 0.7115 -0.6683 -0.2172
vn 0.7115 -0.7027 -0.0000
vn 0.7115 -0.5685 0.4130
vn 0.7115 -0.6683 0.2172
vn 0.7115 -0.4130 0.5685
vn 0.7115 -0.2172 0.6683
vn 0.7115 0.2172 0.6683
vn 0.7115 -0.0000 0.7027
vn 0.7115 0.4130 0.5685
vn 0.7115 0.5685 0.4130
vn 0.7115 0.7027 -0.0000
vn 0.7115 0.6683 0.2172
vn 0.7115 0.6683 -0.2172
vn -0.0000 0.3090 -0.9511
vn -0.0000 0.5878 -0.8090
vn -0.9970 -0.0000 0.0776
vn -0.9970 -0.0240 0.0738
vn -1.0000 -0.0000 -0.0000
vn -0.9970 -0.0456 0.0628
vn -0.0000 -0.0000 -1.0000
vn -0.9970 0.0240 0.0738
vn -0.0000 -0.3090 -0.9511
vn -0.0000 -0.8090 -0.5878
vn -0.0000 -0.5878 -0.8090
vn -0.9970 0.0628 0.0456
vn -0.9970 0.0456 0.0628
vn -0.9970 0.0738 0.0240
vn -0.0000 -0.9511 -0.3090
vn -0.9970 0.0776 -0.0000
vn -0.0000 -1.0000 -0.0000
vn -0.0000 -0.8090 0.5878
vn -0.0000 -0.9511 0.3090
vn -0.9970 0.0628 -0.0456
vn -0.9970 0.0738 -0.0240
vn -0.9970 0.0456 -0.0628
vn -0.0000 -0.5878 0.8090
vn -0.9970 0.0240 -0.0738
vn -0.0000 -0.3090 0.9511
vn -0.0000 0.3090 0.9511
vn -0.0000 -0.0000 1.0000
vn -0.9970 -0.0240 -0.0738
vn -0.9970 -0.0000 -0.0776
vn -0.9970 -0.0456 -0.0628
vn -0.0000 0.5878 0.8090
vn -0.9970 -0.0628 -0.0456
vn -0.0000 0.8090 0.5878
vn -0.0000 1.0000 -0.0000
vn -0.0000 0.9511 0.3090
vn -0.9970 -0.0776 -0.0000
vn -0.9970 -0.0738 -0.0240
vn -0.9970 -0.0738 0.0240
vn -0.0000 0.9511 -0.3090
vn -0.9970 -0.0628 0.0456
vn -0.0000 0.8090 -0.5878
vn -0.9834 -0.1467 0.1066
vn -0.9834 -0.1724 0.0560
vn -0.9834 -0.1813 -0.0000
vn -0.9834 -0.1467 -0.1066
vn -0.9834 -0.1724 -0.0560
vn -0.9834 -0.1066 -0.1467
vn -0.9834 -0.0560 -0.1724
vn -0.9834 0.0560 -0.1724
vn -0.9834 -0.0000 -0.1813
vn -0.9834 0.1066 -0.1467
vn -0.9834 0.1467 -0.1066
vn -0.9834 0.1813 -0.0000
vn -0.9834 0.1724 -0.0560
vn -0.9834 0.1724 0.0560
vn -0.9834 0.1467 0.1066
vn -0.9834 0.0560 0.1724
vn -0.9834 0.1066 0.1467
vn -0.9834 -0.0000 0.1813
vn -0.9834 -0.0560 0.1724
vn -0.9834 -0.1066 0.1467
vn -0.9756 -0.2090 -0.0679
vn -0.9756 -0.1778 -0.1292
vn -0.9756 -0.0679 -0.2090
vn -0.9756 -0.0000 -0.2198
vn -0.9756 0.0679 0.2090
vn -0.9756 -0.0000 0.2198
vn -0.9756 -0.2198 -0.0000
vn -0.9756 -0.0679 0.2090
vn -0.9756 -0.1778 0.1292
vn -0.9756 -0.2090 0.0679
vn -0.9756 0.2198 -0.0000
vn -0.9756 0.2090 0.0679
vn -0.9756 0.1778 0.1292
vn -0.9756 0.0679 -0.2090
vn -0.9756 0.1292 -0.1778
vn -0.9756 -0.1292 0.1778
vn -0.9756 0.1778 -0.1292
vn -0.9756 -0.1292 -0.1778
vn -0.9756 0.1292 0.1778
vn -0.9756 0.2090 -0.0679
vn -0.9355 -0.2076 -0.2858
vn -0.9355 -0.1092 -0.3359
vn -0.9355 -0.1092 0.3359
vn -0.9355 -0.2076 0.2858
vn -0.9355 0.2076 0.2858
vn -0.9355 0.1092 0.3359
vn -0.9355 0.2858 0.2076
vn -0.9355 0.3359 -0.1092
vn -0.9355 0.3532 -0.0000
vn -0.9355 -0.0000 -0.3532
vn -0.9355 0.1092 -0.3359
vn -0.9355 0.2858 -0.2076
vn -0.9355 -0.3359 -0.1092
vn -0.9355 -0.2858 -0.2076
vn -0.9355 -0.0000 0.3532
vn -0.9355 -0.2858 0.2076
vn -0.9355 -0.3359 0.1092
vn -0.9355 -0.3532 -0.0000
vn -0.9355 0.3359 0.1092
vn -0.9355 0.2076 -0.2858
vn -0.8319 -0.3261 0.4489
vn -0.8319 -0.4489 0.3261
vn -0.8319 0.3261 -0.4489
vn -0.8319 0.4489 -0.3261
vn -0.8319 -0.4489 -0.3261
vn -0.8319 -0.3261 -0.4489
vn -0.8319 0.1715 -0.5277
vn -0.8319 0.5277 0.1715
vn -0.8319 0.4489 0.3261
vn -0.8319 0.5549 -0.0000
vn -0.8319 -0.5277 0.1715
vn -0.8319 -0.5549 -0.0000
vn -0.8319 -0.0000 0.5549
vn -0.8319 -0.1715 0.5277
vn -0.8319 -0.5277 -0.1715
vn -0.8319 0.1715 0.5277
vn -0.8319 -0.1715 -0.5277
vn -0.8319 -0.0000 -0.5549
vn -0.8319 0.5277 -0.1715
vn -0.8319 0.3261 0.4489
vt 0.000000 0.000000
s 1
usemtl chrome.003
f 123/1/46 126/1/46 125/1/46 122/1/46
f 124/1/46 127/1/46 126/1/46 123/1/46
f 122/1/46 134/1/46 131/1/46 123/1/46
f 128/1/83 129/1/84 132/1/46 135/1/46
f 132/1/46 131/1/46 134/1/46 135/1/46
f 129/1/84 130/1/85 133/1/46 132/1/46
f 138/1/46 137/1/46 139/1/46 140/1/46
f 124/1/46 138/1/46 140/1/46 127/1/46
f 137/1/46 138/1/46 143/1/46 145/1/46
f 141/1/86 146/1/46 144/1/46 142/1/87
f 144/1/46 146/1/46 145/1/46 143/1/46
f 142/1/87 144/1/46 133/1/46 130/1/85
f 147/1/46 149/1/46 139/1/46 137/1/46
f 148/1/46 150/1/46 149/1/46 147/1/46
f 137/1/46 145/1/46 153/1/46 147/1/46
f 141/1/86 151/1/88 154/1/46 146/1/46
f 154/1/46 153/1/46 145/1/46 146/1/46
f 151/1/88 152/1/89 155/1/46 154/1/46
f 158/1/46 157/1/46 159/1/46 160/1/46
f 148/1/46 158/1/46 160/1/46 150/1/46
f 157/1/46 158/1/46 163/1/46 165/1/46
f 161/1/90 166/1/46 164/1/46 162/1/91
f 164/1/46 166/1/46 165/1/46 163/1/46
f 162/1/91 164/1/46 155/1/46 152/1/89
f 167/1/46 169/1/46 159/1/46 157/1/46
f 168/1/46 170/1/46 169/1/46 167/1/46
f 157/1/46 165/1/46 173/1/46 167/1/46
f 161/1/90 171/1/92 174/1/46 166/1/46
f 174/1/46 173/1/46 165/1/46 166/1/46
f 171/1/92 172/1/93 175/1/46 174/1/46
f 178/1/46 177/1/46 179/1/46 180/1/46
f 168/1/46 178/1/46 180/1/46 170/1/46
f 177/1/46 178/1/46 183/1/46 185/1/46
f 181/1/94 186/1/46 184/1/46 182/1/95
f 184/1/46 186/1/46 185/1/46 183/1/46
f 182/1/95 184/1/46 175/1/46 172/1/93
f 187/1/46 189/1/46 179/1/46 177/1/46
f 188/1/46 190/1/46 189/1/46 187/1/46
f 177/1/46 185/1/46 193/1/46 187/1/46
f 181/1/94 191/1/96 194/1/46 186/1/46
f 194/1/46 193/1/46 185/1/46 186/1/46
f 191/1/96 192/1/97 195/1/46 194/1/46
f 198/1/46 197/1/46 199/1/46 200/1/46
f 188/1/46 198/1/46 200/1/46 190/1/46
f 197/1/46 198/1/46 203/1/46 205/1/46
f 201/1/98 206/1/46 204/1/46 202/1/99
f 204/1/46 206/1/46 205/1/46 203/1/46
f 202/1/99 204/1/46 195/1/46 192/1/97
f 207/1/46 209/1/46 199/1/46 197/1/46
f 208/1/46 210/1/46 209/1/46 207/1/46
f 197/1/46 205/1/46 213/1/46 207/1/46
f 201/1/98 211/1/100 214/1/46 206/1/46
f 214/1/46 213/1/46 205/1/46 206/1/46
f 211/1/100 212/1/101 215/1/46 214/1/46
f 217/1/46 122/1/46 125/1/46 218/1/46
f 208/1/46 217/1/46 218/1/46 210/1/46
f 122/1/46 217/1/46 220/1/46 134/1/46
f 128/1/83 135/1/46 221/1/46 219/1/102
f 221/1/46 135/1/46 134/1/46 220/1/46
f 219/1/102 221/1/46 215/1/46 212/1/101
f 141/1/86 142/1/87 226/1/103 225/1/104
f 162/1/91 152/1/89 228/1/105 230/1/106
f 211/1/100 201/1/98 237/1/107 239/1/108
f 142/1/87 130/1/85 224/1/109 226/1/103
f 212/1/101 211/1/100 239/1/108 240/1/110
f 129/1/84 128/1/83 222/1/111 223/1/112
f 191/1/96 181/1/94 233/1/113 235/1/114
f 192/1/97 191/1/96 235/1/114 236/1/115
f 130/1/85 129/1/84 223/1/112 224/1/109
f 171/1/92 161/1/90 229/1/116 231/1/117
f 128/1/83 219/1/102 241/1/118 222/1/111
f 172/1/93 171/1/92 231/1/117 232/1/119
f 151/1/88 141/1/86 225/1/104 227/1/120
f 219/1/102 212/1/101 240/1/110 241/1/118
f 152/1/89 151/1/88 227/1/120 228/1/105
f 201/1/98 202/1/99 238/1/121 237/1/107
f 202/1/99 192/1/97 236/1/115 238/1/121
f 181/1/94 182/1/95 234/1/122 233/1/113
f 161/1/90 162/1/91 230/1/106 229/1/116
f 182/1/95 172/1/93 232/1/119 234/1/122
f 261/1/123 260/1/124 13/1/69 14/1/71
f 259/1/125 258/1/126 20/1/47 1/1/45
f 257/1/127 256/1/128 4/1/49 3/1/54
f 255/1/129 257/1/127 3/1/54 5/1/53
f 254/1/130 253/1/131 8/1/57 7/1/62
f 252/1/132 251/1/133 12/1/65 11/1/70
f 250/1/134 254/1/130 7/1/62 9/1/61
f 249/1/135 248/1/136 16/1/73 15/1/78
f 260/1/124 252/1/132 11/1/70 13/1/69
f 256/1/128 247/1/137 2/1/44 4/1/49
f 246/1/138 245/1/139 18/1/79 19/1/81
f 244/1/140 249/1/135 15/1/78 17/1/77
f 247/1/137 259/1/125 1/1/45 2/1/44
f 245/1/139 244/1/140 17/1/77 18/1/79
f 253/1/131 243/1/141 6/1/55 8/1/57
f 243/1/141 255/1/129 5/1/53 6/1/55
f 251/1/133 262/1/142 10/1/63 12/1/65
f 248/1/136 261/1/123 14/1/71 16/1/73
f 262/1/142 250/1/134 9/1/61 10/1/63
f 258/1/126 246/1/138 19/1/81 20/1/47
f 218/1/143 125/1/144 246/1/138 258/1/126
f 169/1/145 170/1/146 250/1/134 262/1/142
f 139/1/147 149/1/148 261/1/123 248/1/136
f 159/1/149 169/1/145 262/1/142 251/1/133
f 189/1/150 190/1/151 255/1/129 243/1/141
f 179/1/152 189/1/150 243/1/141 253/1/131
f 126/1/153 127/1/154 244/1/140 245/1/139
f 209/1/155 210/1/156 259/1/125 247/1/137
f 127/1/154 140/1/157 249/1/135 244/1/140
f 125/1/144 126/1/153 245/1/139 246/1/138
f 199/1/158 209/1/155 247/1/137 256/1/128
f 150/1/159 160/1/160 252/1/132 260/1/124
f 140/1/157 139/1/147 248/1/136 249/1/135
f 170/1/146 180/1/161 254/1/130 250/1/134
f 160/1/160 159/1/149 251/1/133 252/1/132
f 180/1/161 179/1/152 253/1/131 254/1/130
f 190/1/151 200/1/162 257/1/127 255/1/129
f 200/1/162 199/1/158 256/1/128 257/1/127
f 210/1/156 218/1/143 258/1/126 259/1/125
f 149/1/148 150/1/159 260/1/124 261/1/123
usemtl empty.003
f 124/1/46 123/1/46 131/1/46 136/1/46
f 132/1/46 133/1/46 136/1/46 131/1/46
f 124/1/46 136/1/46 143/1/46 138/1/46
f 144/1/46 143/1/46 136/1/46 133/1/46
f 148/1/46 147/1/46 153/1/46 156/1/46
f 154/1/46 155/1/46 156/1/46 153/1/46
f 148/1/46 156/1/46 163/1/46 158/1/46
f 164/1/46 163/1/46 156/1/46 155/1/46
f 168/1/46 167/1/46 173/1/46 176/1/46
f 174/1/46 175/1/46 176/1/46 173/1/46
f 168/1/46 176/1/46 183/1/46 178/1/46
f 184/1/46 183/1/46 176/1/46 175/1/46
f 188/1/46 187/1/46 193/1/46 196/1/46
f 194/1/46 195/1/46 196/1/46 193/1/46
f 188/1/46 196/1/46 203/1/46 198/1/46
f 204/1/46 203/1/46 196/1/46 195/1/46
f 208/1/46 207/1/46 213/1/46 216/1/46
f 214/1/46 215/1/46 216/1/46 213/1/46
f 208/1/46 216/1/46 220/1/46 217/1/46
f 221/1/46 220/1/46 216/1/46 215/1/46
f 222/1/111 241/1/118 242/1/46
f 234/1/122 232/1/119 242/1/46
f 227/1/120 225/1/104 242/1/46
f 241/1/118 240/1/110 242/1/46
f 235/1/114 233/1/113 242/1/46
f 228/1/105 227/1/120 242/1/46
f 236/1/115 235/1/114 242/1/46
f 229/1/116 230/1/106 242/1/46
f 237/1/107 238/1/121 242/1/46
f 230/1/106 228/1/105 242/1/46
f 223/1/112 222/1/111 242/1/46
f 238/1/121 236/1/115 242/1/46
f 231/1/117 229/1/116 242/1/46
f 224/1/109 223/1/112 242/1/46
f 239/1/108 237/1/107 242/1/46
f 232/1/119 231/1/117 242/1/46
f 225/1/104 226/1/103 242/1/46
f 240/1/110 239/1/108 242/1/46
f 233/1/113 234/1/122 242/1/46
f 226/1/103 224/1/109 242/1/46
usemtl plastic.003
f 31/1/1 32/1/1 41/1/1
f 26/1/1 25/1/1 41/1/1
f 34/1/1 33/1/1 41/1/1
f 28/1/1 26/1/1 41/1/1
f 21/1/1 40/1/1 41/1/1
f 36/1/1 34/1/1 41/1/1
f 29/1/1 27/1/1 41/1/1
f 40/1/1 39/1/1 41/1/1
f 37/1/1 35/1/1 41/1/1
f 27/1/1 28/1/1 41/1/1
f 22/1/1 21/1/1 41/1/1
f 35/1/1 36/1/1 41/1/1
f 30/1/1 29/1/1 41/1/1
f 24/1/1 22/1/1 41/1/1
f 38/1/1 37/1/1 41/1/1
f 32/1/1 30/1/1 41/1/1
f 25/1/1 23/1/1 41/1/1
f 39/1/1 38/1/1 41/1/1
f 33/1/1 31/1/1 41/1/1
f 23/1/1 24/1/1 41/1/1
f 43/1/2 80/1/3 81/1/3 42/1/2
f 80/1/3 78/1/4 79/1/4 81/1/3
f 42/1/2 44/1/5 45/1/5 43/1/2
f 44/1/5 48/1/6 49/1/6 45/1/5
f 51/1/7 46/1/8 47/1/8 50/1/7
f 46/1/8 49/1/6 48/1/6 47/1/8
f 50/1/7 52/1/9 53/1/9 51/1/7
f 52/1/9 56/1/10 57/1/10 53/1/9
f 59/1/11 54/1/12 55/1/12 58/1/11
f 54/1/12 57/1/10 56/1/10 55/1/12
f 58/1/11 60/1/13 61/1/13 59/1/11
f 60/1/13 64/1/14 65/1/14 61/1/13
f 67/1/15 62/1/16 63/1/16 66/1/15
f 62/1/16 65/1/14 64/1/14 63/1/16
f 66/1/15 68/1/17 69/1/17 67/1/15
f 68/1/17 72/1/18 73/1/18 69/1/17
f 75/1/19 70/1/20 71/1/20 74/1/19
f 70/1/20 73/1/18 72/1/18 71/1/20
f 74/1/19 76/1/21 77/1/21 75/1/19
f 76/1/21 79/1/4 78/1/4 77/1/21
f 83/1/22 120/1/23 121/1/23 82/1/22
f 120/1/23 118/1/24 119/1/24 121/1/23
f 82/1/22 84/1/25 85/1/25 83/1/22
f 84/1/25 88/1/26 89/1/26 85/1/25
f 91/1/27 86/1/28 87/1/28 90/1/27
f 86/1/28 89/1/26 88/1/26 87/1/28
f 90/1/27 92/1/29 93/1/29 91/1/27
f 92/1/29 96/1/30 97/1/30 93/1/29
f 99/1/31 94/1/32 95/1/32 98/1/31
f 94/1/32 97/1/30 96/1/30 95/1/32
f 98/1/31 100/1/33 101/1/33 99/1/31
f 100/1/33 104/1/34 105/1/34 101/1/33
f 107/1/35 102/1/36 103/1/36 106/1/35
f 102/1/36 105/1/34 104/1/34 103/1/36
f 106/1/35 108/1/37 109/1/37 107/1/35
f 108/1/37 112/1/38 113/1/38 109/1/37
f 115/1/39 110/1/40 111/1/40 114/1/39
f 110/1/40 113/1/38 112/1/38 111/1/40
f 114/1/39 116/1/41 117/1/41 115/1/39
f 116/1/41 119/1/24 118/1/24 117/1/41
f 42/1/42 81/1/43 120/1/43 83/1/42
f 2/1/44 1/1/45 43/1/46 45/1/46
f 1/1/45 20/1/47 80/1/46 43/1/46
f 44/1/48 42/1/42 83/1/42 85/1/48
f 4/1/49 2/1/44 45/1/46 49/1/46
f 48/1/50 44/1/48 85/1/48 89/1/50
f 50/1/51 47/1/52 86/1/52 91/1/51
f 5/1/53 3/1/54 46/1/46 51/1/46
f 47/1/52 48/1/50 89/1/50 86/1/52
f 3/1/54 4/1/49 49/1/46 46/1/46
f 6/1/55 5/1/53 51/1/46 53/1/46
f 52/1/56 50/1/51 91/1/51 93/1/56
f 8/1/57 6/1/55 53/1/46 57/1/46
f 56/1/58 52/1/56 93/1/56 97/1/58
f 58/1/59 55/1/60 94/1/60 99/1/59
f 9/1/61 7/1/62 54/1/46 59/1/46
f 55/1/60 56/1/58 97/1/58 94/1/60
f 7/1/62 8/1/57 57/1/46 54/1/46
f 10/1/63 9/1/61 59/1/46 61/1/46
f 60/1/64 58/1/59 99/1/59 101/1/64
f 12/1/65 10/1/63 61/1/46 65/1/46
f 64/1/66 60/1/64 101/1/64 105/1/66
f 66/1/67 63/1/68 102/1/68 107/1/67
f 13/1/69 11/1/70 62/1/46 67/1/46
f 63/1/68 64/1/66 105/1/66 102/1/68
f 11/1/70 12/1/65 65/1/46 62/1/46
f 14/1/71 13/1/69 67/1/46 69/1/46
f 68/1/72 66/1/67 107/1/67 109/1/72
f 16/1/73 14/1/71 69/1/46 73/1/46
f 72/1/74 68/1/72 109/1/72 113/1/74
f 74/1/75 71/1/76 110/1/76 115/1/75
f 17/1/77 15/1/78 70/1/46 75/1/46
f 71/1/76 72/1/74 113/1/74 110/1/76
f 15/1/78 16/1/73 73/1/46 70/1/46
f 18/1/79 17/1/77 75/1/46 77/1/46
f 76/1/80 74/1/75 115/1/75 117/1/80
f 19/1/81 18/1/79 77/1/46 78/1/46
f 79/1/82 76/1/80 117/1/80 118/1/82
f 81/1/43 79/1/82 118/1/82 120/1/43
f 20/1/47 19/1/81 78/1/46 80/1/46
f 82/1/1 121/1/1 40/1/1 21/1/1
f 84/1/1 82/1/1 21/1/1 22/1/1
f 88/1/1 84/1/1 22/1/1 24/1/1
f 90/1/1 87/1/1 23/1/1 25/1/1
f 87/1/1 88/1/1 24/1/1 23/1/1
f 92/1/1 90/1/1 25/1/1 26/1/1
f 96/1/1 92/1/1 26/1/1 28/1/1
f 98/1/1 95/1/1 27/1/1 29/1/1
f 95/1/1 96/1/1 28/1/1 27/1/1
f 100/1/1 98/1/1 29/1/1 30/1/1
f 104/1/1 100/1/1 30/1/1 32/1/1
f 106/1/1 103/1/1 31/1/1 33/1/1
f 103/1/1 104/1/1 32/1/1 31/1/1
f 108/1/1 106/1/1 33/1/1 34/1/1
f 112/1/1 108/1/1 34/1/1 36/1/1
f 114/1/1 111/1/1 35/1/1 37/1/1
f 111/1/1 112/1/1 36/1/1 35/1/1
f 116/1/1 114/1/1 37/1/1 38/1/1
f 119/1/1 116/1/1 38/1/1 39/1/1
f 121/1/1 119/1/1 39/1/1 40/1/1
