# Blender 5.2.2 LTS
# www.blender.org
mtllib front_wheels.mtl
o front_wheels_misc
g front_wheels_misc
v -0.122311 0.072695 -0.223732
v -0.122311 -0.000000 -0.235246
v -0.122311 -0.138274 -0.190318
v -0.122311 -0.072695 -0.223733
v -0.122311 -0.190318 -0.138274
v -0.122311 -0.223733 -0.072695
v -0.122311 -0.223733 0.072695
v -0.122311 -0.235246 0.000000
v -0.122311 -0.190318 0.138274
v -0.122311 -0.138274 0.190318
v -0.122311 0.000000 0.235246
v -0.122311 -0.072695 0.223733
v -0.122311 0.072695 0.223733
v -0.122311 0.138274 0.190318
v -0.122311 0.223732 0.072695
v -0.122311 0.190318 0.138274
v -0.122311 0.235246 -0.000000
v -0.122311 0.223732 -0.072695
v -0.122311 0.190318 -0.138274
v -0.122311 0.138274 -0.190318
v -0.096253 0.123002 -0.089366
v -0.096253 0.140182 -0.052897
v -0.096253 0.153903 -0.000000
v -0.096253 0.140197 -0.101859
v -0.096253 0.164811 -0.053550
v -0.096253 0.173293 -0.000000
v -0.096252 0.040641 -0.029527
v -0.096252 0.047776 -0.015523
v -0.096252 0.050235 -0.000000
v -0.096253 0.108201 -0.056076
v -0.096253 0.070949 -0.025872
v -0.096253 0.060881 -0.000000
v -0.096253 0.098891 -0.071849
v -0.096252 0.060258 -0.043780
v -0.096253 0.123002 0.089366
v -0.096253 0.140182 0.052897
v -0.096253 0.140197 0.101859
v -0.096253 0.164811 0.053550
v -0.096252 0.040641 0.029527
v -0.096252 0.047776 0.015523
v -0.096253 0.108201 0.056076
v -0.096253 0.070949 0.025872
v -0.096253 0.098891 0.071849
v -0.096252 0.060258 0.043780
v -0.096253 0.093627 0.116975
v -0.096252 0.047559 0.146371
v -0.096253 0.101859 0.140197
v -0.096252 0.053550 0.164811
v -0.096252 0.029527 0.040641
v -0.096252 0.015523 0.047776
v -0.096253 0.086768 0.085577
v -0.096253 0.046530 0.059482
v -0.096252 0.018813 0.057901
v -0.096252 -0.046983 0.144598
v -0.096252 -0.006989 0.149667
v -0.096252 -0.053551 0.164811
v -0.096252 0.000000 0.173293
v -0.096252 -0.015523 0.047776
v -0.096252 0.000000 0.050235
v -0.096252 -0.019896 0.120234
v -0.096252 -0.002681 0.075471
v -0.096252 -0.037773 0.116253
v -0.096252 -0.023017 0.070838
v -0.096252 -0.082318 0.125191
v -0.096252 -0.124511 0.090462
v -0.096252 -0.101859 0.140197
v -0.096252 -0.140197 0.101859
v -0.096252 -0.029527 0.040641
v -0.096252 -0.040641 0.029527
v -0.096252 -0.054576 0.108966
v -0.096252 -0.042192 0.062634
v -0.096252 -0.049254 0.035785
v -0.096252 -0.152039 0.000000
v -0.096252 -0.144502 0.039603
v -0.096252 -0.173293 0.000000
v -0.096252 -0.164811 0.053550
v -0.096252 -0.050235 0.000000
v -0.096252 -0.047776 0.015523
v -0.096252 -0.120498 0.018232
v -0.096252 -0.072606 0.020772
v -0.096252 -0.122236 0.000000
v -0.096252 -0.074483 0.000000
v -0.096252 -0.144502 -0.039603
v -0.096252 -0.124511 -0.090462
v -0.096252 -0.164811 -0.053550
v -0.096252 -0.140197 -0.101859
v -0.096252 -0.047776 -0.015523
v -0.096252 -0.040641 -0.029527
v -0.096252 -0.120498 -0.018232
v -0.096252 -0.072606 -0.020772
v -0.096252 -0.049254 -0.035785
v -0.096252 -0.046983 -0.144598
v -0.096252 -0.082318 -0.125191
v -0.096252 -0.053550 -0.164811
v -0.096252 -0.101859 -0.140197
v -0.096252 -0.015523 -0.047776
v -0.096252 -0.029527 -0.040641
v -0.096252 -0.054576 -0.108966
v -0.096252 -0.042192 -0.062634
v -0.096252 -0.037773 -0.116253
v -0.096252 -0.023017 -0.070838
v -0.096252 -0.006989 -0.149667
v -0.096252 0.047559 -0.146371
v -0.096252 -0.000000 -0.173293
v -0.096252 0.053550 -0.164811
v -0.096252 -0.000000 -0.050235
v -0.096252 0.015523 -0.047776
v -0.096252 -0.019896 -0.120234
v -0.096252 -0.002681 -0.075471
v -0.096252 0.018813 -0.057901
v -0.096253 0.093627 -0.116975
v -0.096253 0.101859 -0.140197
v -0.096252 0.029527 -0.040641
v -0.096253 0.086768 -0.085577
v -0.096253 0.046530 -0.059482
v -0.087074 0.023277 -0.016912
v -0.087074 0.027364 -0.008891
v -0.087074 0.028772 -0.000000
v -0.087074 0.023277 0.016912
v -0.087074 0.027364 0.008891
v -0.087074 0.016912 0.023277
v -0.087074 0.008891 0.027364
v -0.087074 -0.008891 0.027364
v -0.087074 0.000000 0.028772
v -0.087074 -0.016912 0.023277
v -0.087074 -0.023277 0.016912
v -0.087074 -0.028772 0.000000
v -0.087074 -0.027364 0.008891
v -0.087074 -0.027364 -0.008891
v -0.087074 -0.023277 -0.016912
v -0.087074 -0.008891 -0.027364
v -0.087074 -0.016912 -0.023277
v -0.087074 -0.000000 -0.028772
v -0.087074 0.008891 -0.027364
v -0.087074 0.016912 -0.023277
v -0.116913 -0.194272 -0.063123
v -0.116913 0.204269 -0.000000
v -0.116913 0.194272 -0.063123
v -0.116913 0.165258 -0.120067
v -0.116913 -0.000000 -0.204270
v -0.116913 0.165257 0.120067
v -0.116913 0.194272 0.063123
v -0.116913 -0.165258 0.120067
v -0.116913 -0.063123 0.194272
v -0.116913 0.000000 0.204270
v -0.116913 -0.204270 0.000000
v -0.116913 -0.194272 0.063123
v -0.116913 -0.165258 -0.120067
v -0.116913 -0.063123 -0.194272
v -0.116913 -0.120067 -0.165258
v -0.116913 0.120067 -0.165258
v -0.116913 0.063123 -0.194272
v -0.116913 0.063123 0.194272
v -0.116913 0.120067 0.165258
v -0.116913 -0.120067 0.165258
vn -1.0000 -0.0000 -0.0000
vn -0.9834 -0.1467 0.1066
vn -0.9834 -0.1724 0.0560
vn -0.9834 -0.1813 -0.0000
vn -1.0000 -0.0001 -0.0000
vn -0.9834 -0.1467 -0.1066
vn -0.9834 -0.1724 -0.0560
vn -0.9834 -0.1066 -0.1467
vn -0.9834 -0.0560 -0.1724
vn -0.9834 0.0560 -0.1724
vn -0.9834 -0.0000 -0.1813
vn -0.9834 0.1065 -0.1467
vn -0.9834 0.1467 -0.1065
vn -0.9834 0.1813 -0.0000
vn -0.9834 0.1724 -0.0560
vn -0.9834 0.1724 0.0560
vn -0.9834 0.1467 0.1065
vn -0.9834 0.0560 0.1724
vn -0.9834 0.1065 0.1467
vn -0.9834 -0.0000 0.1813
vn -0.9834 -0.0560 0.1724
vn -0.9834 -0.1066 0.1467
vn -0.9755 -0.2091 -0.0679
vn -0.9755 -0.1778 -0.1292
vn -0.9755 -0.0679 -0.2091
vn -0.9755 -0.0000 -0.2198
vn -0.9755 0.0679 0.2091
vn -0.9755 -0.0000 0.2198
vn -0.9755 -0.2198 -0.0000
vn -0.9755 -0.0679 0.2091
vn -0.9755 -0.1778 0.1292
vn -0.9755 -0.2091 0.0679
vn -0.9755 0.2198 -0.0000
vn -0.9755 0.2091 0.0679
vn -0.9755 0.1778 0.1292
vn -0.9755 0.0679 -0.2091
vn -0.9755 0.1292 -0.1778
vn -0.9755 -0.1292 0.1778
vn -0.9755 0.1778 -0.1292
vn -0.9755 -0.1292 -0.1778
vn -0.9755 0.1292 0.1778
vn -0.9755 0.2091 -0.0679
vn -0.9355 -0.2076 -0.2858
vn -0.9355 -0.1092 -0.3359
vn -0.9970 -0.0240 -0.0738
vn -0.9970 -0.0456 -0.0628
vn -0.9355 -0.1092 0.3359
vn -0.9355 -0.2076 0.2858
vn -0.9970 -0.0456 0.0628
vn -0.9970 -0.0240 0.0738
vn -0.9355 0.2076 0.2858
vn -0.9355 0.1092 0.3359
vn -0.9970 0.0240 0.0738
vn -0.9970 0.0456 0.0628
vn -0.9355 0.2858 0.2076
vn -0.9970 0.0628 0.0456
vn -0.9355 0.3359 -0.1092
vn -0.9355 0.3532 -0.0000
vn -0.9970 0.0776 -0.0000
vn -0.9970 0.0738 -0.0240
vn -0.9355 -0.0000 -0.3532
vn -0.9355 0.1092 -0.3359
vn -0.9970 0.0240 -0.0738
vn -0.9970 -0.0000 -0.0776
vn -0.9355 0.2858 -0.2076
vn -0.9970 0.0628 -0.0456
vn -0.9355 -0.3359 -0.1091
vn -0.9355 -0.2858 -0.2076
vn -0.9970 -0.0628 -0.0456
vn -0.9970 -0.0738 -0.0240
vn -0.9355 -0.0000 0.3532
vn -0.9970 -0.0000 0.0776
vn -0.9355 -0.2858 0.2076
vn -0.9355 -0.3359 0.1091
vn -0.9970 -0.0738 0.0240
vn -0.9970 -0.0628 0.0456
vn -0.9355 -0.3532 -0.0000
vn -0.9970 -0.0776 -0.0000
vn -0.9355 0.3359 0.1092
vn -0.9970 0.0738 0.0240
vn -0.9355 0.2076 -0.2858
vn -0.9970 0.0456 -0.0628
vn -0.8319 -0.3261 0.4489
vn -0.8319 -0.4489 0.3261
vn -0.8319 0.3261 -0.4489
vn -0.8319 0.4489 -0.3261
vn -0.8319 -0.4489 -0.3261
vn -0.8319 -0.3261 -0.4489
vn -0.8319 0.1715 -0.5277
vn -0.8319 0.5277 0.1715
vn -0.8319 0.4489 0.3261
vn -0.8319 0.5549 -0.0000
vn -0.8319 -0.5277 0.1715
vn -0.8319 -0.5549 -0.0000
vn -0.8319 -0.0000 0.5549
vn -0.8319 -0.1715 0.5277
vn -0.8319 -0.5277 -0.1715
vn -0.8319 0.1715 0.5277
vn -0.8319 -0.1715 -0.5277
vn -0.8319 -0.0000 -0.5549
vn -0.8319 0.5277 -0.1715
vn -0.8319 0.3261 0.4489
vt 0.000000 0.000000
s 1
usemtl chrome.002
f 22/1/1 25/1/1 24/1/1 21/1/1
f 23/1/1 26/1/1 25/1/1 22/1/1
f 21/1/1 33/1/1 30/1/1 22/1/1
f 27/1/2 28/1/3 31/1/1 34/1/1
f 31/1/1 30/1/1 33/1/1 34/1/1
f 28/1/3 29/1/4 32/1/5 31/1/1
f 36/1/1 35/1/1 37/1/1 38/1/1
f 23/1/1 36/1/1 38/1/1 26/1/1
f 35/1/1 36/1/1 41/1/1 43/1/1
f 39/1/6 44/1/1 42/1/1 40/1/7
f 42/1/1 44/1/1 43/1/1 41/1/1
f 40/1/7 42/1/1 32/1/5 29/1/4
f 45/1/1 47/1/1 37/1/1 35/1/1
f 46/1/1 48/1/1 47/1/1 45/1/1
f 35/1/1 43/1/1 51/1/1 45/1/1
f 39/1/6 49/1/8 52/1/1 44/1/1
f 52/1/1 51/1/1 43/1/1 44/1/1
f 49/1/8 50/1/9 53/1/1 52/1/1
f 55/1/1 54/1/1 56/1/1 57/1/1
f 46/1/1 55/1/1 57/1/1 48/1/1
f 54/1/1 55/1/1 60/1/1 62/1/1
f 58/1/10 63/1/1 61/1/1 59/1/11
f 61/1/1 63/1/1 62/1/1 60/1/1
f 59/1/11 61/1/1 53/1/1 50/1/9
f 64/1/1 66/1/1 56/1/1 54/1/1
f 65/1/1 67/1/1 66/1/1 64/1/1
f 54/1/1 62/1/1 70/1/1 64/1/1
f 58/1/10 68/1/12 71/1/1 63/1/1
f 71/1/1 70/1/1 62/1/1 63/1/1
f 68/1/12 69/1/13 72/1/1 71/1/1
f 74/1/1 73/1/1 75/1/1 76/1/1
f 65/1/1 74/1/1 76/1/1 67/1/1
f 73/1/1 74/1/1 79/1/1 81/1/1
f 77/1/14 82/1/1 80/1/1 78/1/15
f 80/1/1 82/1/1 81/1/1 79/1/1
f 78/1/15 80/1/1 72/1/1 69/1/13
f 83/1/1 85/1/1 75/1/1 73/1/1
f 84/1/1 86/1/1 85/1/1 83/1/1
f 73/1/1 81/1/1 89/1/1 83/1/1
f 77/1/14 87/1/16 90/1/1 82/1/1
f 90/1/1 89/1/1 81/1/1 82/1/1
f 87/1/16 88/1/17 91/1/1 90/1/1
f 93/1/1 92/1/1 94/1/1 95/1/1
f 84/1/1 93/1/1 95/1/1 86/1/1
f 92/1/1 93/1/1 98/1/1 100/1/1
f 96/1/18 101/1/1 99/1/1 97/1/19
f 99/1/1 101/1/1 100/1/1 98/1/1
f 97/1/19 99/1/1 91/1/1 88/1/17
f 102/1/1 104/1/1 94/1/1 92/1/1
f 103/1/1 105/1/1 104/1/1 102/1/1
f 92/1/1 100/1/1 108/1/1 102/1/1
f 96/1/18 106/1/20 109/1/1 101/1/1
f 109/1/1 108/1/1 100/1/1 101/1/1
f 106/1/20 107/1/21 110/1/1 109/1/1
f 111/1/1 21/1/1 24/1/1 112/1/1
f 103/1/1 111/1/1 112/1/1 105/1/1
f 21/1/1 111/1/1 114/1/1 33/1/1
f 27/1/2 34/1/1 115/1/1 113/1/22
f 115/1/1 34/1/1 33/1/1 114/1/1
f 113/1/22 115/1/1 110/1/1 107/1/21
f 39/1/6 40/1/7 120/1/23 119/1/24
f 59/1/11 50/1/9 122/1/25 124/1/26
f 106/1/20 96/1/18 131/1/27 133/1/28
f 40/1/7 29/1/4 118/1/29 120/1/23
f 107/1/21 106/1/20 133/1/28 134/1/30
f 28/1/3 27/1/2 116/1/31 117/1/32
f 87/1/16 77/1/14 127/1/33 129/1/34
f 88/1/17 87/1/16 129/1/34 130/1/35
f 29/1/4 28/1/3 117/1/32 118/1/29
f 68/1/12 58/1/10 123/1/36 125/1/37
f 27/1/2 113/1/22 135/1/38 116/1/31
f 69/1/13 68/1/12 125/1/37 126/1/39
f 49/1/8 39/1/6 119/1/24 121/1/40
f 113/1/22 107/1/21 134/1/30 135/1/38
f 50/1/9 49/1/8 121/1/40 122/1/25
f 96/1/18 97/1/19 132/1/41 131/1/27
f 97/1/19 88/1/17 130/1/35 132/1/41
f 77/1/14 78/1/15 128/1/42 127/1/33
f 58/1/10 59/1/11 124/1/26 123/1/36
f 78/1/15 69/1/13 126/1/39 128/1/42
f 154/1/43 153/1/44 13/1/45 14/1/46
f 152/1/47 151/1/48 20/1/49 1/1/50
f 150/1/51 149/1/52 4/1/53 3/1/54
f 148/1/55 150/1/51 3/1/54 5/1/56
f 147/1/57 146/1/58 8/1/59 7/1/60
f 145/1/61 144/1/62 12/1/63 11/1/64
f 143/1/65 147/1/57 7/1/60 9/1/66
f 142/1/67 141/1/68 16/1/69 15/1/70
f 153/1/44 145/1/61 11/1/64 13/1/45
f 149/1/52 140/1/71 2/1/72 4/1/53
f 139/1/73 138/1/74 18/1/75 19/1/76
f 137/1/77 142/1/67 15/1/70 17/1/78
f 140/1/71 152/1/47 1/1/50 2/1/72
f 138/1/74 137/1/77 17/1/78 18/1/75
f 146/1/58 136/1/79 6/1/80 8/1/59
f 136/1/79 148/1/55 5/1/56 6/1/80
f 144/1/62 155/1/81 10/1/82 12/1/63
f 141/1/68 154/1/43 14/1/46 16/1/69
f 155/1/81 143/1/65 9/1/66 10/1/82
f 151/1/48 139/1/73 19/1/76 20/1/49
f 112/1/83 24/1/84 139/1/73 151/1/48
f 66/1/85 67/1/86 143/1/65 155/1/81
f 37/1/87 47/1/88 154/1/43 141/1/68
f 56/1/89 66/1/85 155/1/81 144/1/62
f 85/1/90 86/1/91 148/1/55 136/1/79
f 75/1/92 85/1/90 136/1/79 146/1/58
f 25/1/93 26/1/94 137/1/77 138/1/74
f 104/1/95 105/1/96 152/1/47 140/1/71
f 26/1/94 38/1/97 142/1/67 137/1/77
f 24/1/84 25/1/93 138/1/74 139/1/73
f 94/1/98 104/1/95 140/1/71 149/1/52
f 48/1/99 57/1/100 145/1/61 153/1/44
f 38/1/97 37/1/87 141/1/68 142/1/67
f 67/1/86 76/1/101 147/1/57 143/1/65
f 57/1/100 56/1/89 144/1/62 145/1/61
f 76/1/101 75/1/92 146/1/58 147/1/57
f 86/1/91 95/1/102 150/1/51 148/1/55
f 95/1/102 94/1/98 149/1/52 150/1/51
f 105/1/96 112/1/83 151/1/48 152/1/47
f 47/1/88 48/1/99 153/1/44 154/1/43
o front_wheels
g front_wheels
v -0.122311 0.072695 -0.223732
v -0.122311 -0.000000 -0.235246
v -0.122311 -0.138274 -0.190318
v -0.122311 -0.072695 -0.223733
v -0.122311 -0.190318 -0.138274
v -0.122311 -0.223733 -0.072695
v -0.122311 -0.223733 0.072695
v -0.122311 -0.235246 0.000000
v -0.122311 -0.190318 0.138274
v -0.122311 -0.138274 0.190318
v -0.122311 0.000000 0.235246
v -0.122311 -0.072695 0.223733
v -0.122311 0.072695 0.223733
v -0.122311 0.138274 0.190318
v -0.122311 0.223732 0.072695
v -0.122311 0.190318 0.138274
v -0.122311 0.235246 -0.000000
v -0.122311 0.223732 -0.072695
v -0.122311 0.190318 -0.138274
v -0.122311 0.138274 -0.190318
v 0.122311 0.053995 -0.166180
v 0.122311 -0.000000 -0.174733
v 0.122311 -0.102705 -0.141362
v 0.122311 -0.053995 -0.166181
v 0.122311 -0.141362 -0.102705
v 0.122311 -0.166180 -0.053995
v 0.122311 -0.166180 0.053995
v 0.122311 -0.174732 0.000000
v 0.122311 -0.141362 0.102705
v 0.122311 -0.102705 0.141362
v 0.122311 0.000000 0.174733
v 0.122311 -0.053995 0.166181
v 0.122311 0.053995 0.166181
v 0.122311 0.102705 0.141362
v 0.122311 0.166181 0.053995
v 0.122311 0.141362 0.102705
v 0.122311 0.174733 -0.000000
v 0.122311 0.166181 -0.053995
v 0.122311 0.141362 -0.102705
v 0.122311 0.102705 -0.141362
v 0.122311 0.000000 0.000000
v -0.094262 0.093702 -0.288385
v -0.122311 0.084926 -0.261376
v -0.094262 -0.000000 -0.303226
v -0.122311 -0.000000 -0.274827
v -0.122311 -0.161539 -0.222340
v -0.094262 -0.178232 -0.245315
v -0.094262 -0.093702 -0.288385
v -0.122311 -0.084926 -0.261376
v -0.094262 -0.245315 -0.178232
v -0.122311 -0.222340 -0.161540
v -0.094262 -0.288385 -0.093702
v -0.122311 -0.261376 -0.084926
v -0.122311 -0.261376 0.084926
v -0.094262 -0.288385 0.093702
v -0.094262 -0.303226 0.000000
v -0.122311 -0.274827 0.000000
v -0.094262 -0.245315 0.178232
v -0.122311 -0.222340 0.161539
v -0.094262 -0.178232 0.245315
v -0.122311 -0.161540 0.222340
v -0.122311 0.000000 0.274827
v -0.094262 0.000000 0.303226
v -0.094262 -0.093702 0.288385
v -0.122311 -0.084926 0.261376
v -0.094262 0.093702 0.288385
v -0.122311 0.084926 0.261376
v -0.094262 0.178232 0.245315
v -0.122311 0.161539 0.222340
v -0.122311 0.261376 0.084926
v -0.094262 0.288385 0.093702
v -0.094262 0.245315 0.178232
v -0.122311 0.222340 0.161539
v -0.094262 0.303226 -0.000000
v -0.122311 0.274827 -0.000000
v -0.094262 0.288385 -0.093702
v -0.122311 0.261376 -0.084926
v -0.122311 0.222340 -0.161539
v -0.094262 0.245315 -0.178232
v -0.122311 0.161539 -0.222340
v -0.094262 0.178232 -0.245315
v 0.122311 0.084926 -0.261376
v 0.094262 0.093702 -0.288385
v 0.122311 -0.000000 -0.274827
v 0.094262 -0.000000 -0.303226
v 0.094262 -0.178232 -0.245315
v 0.122311 -0.161539 -0.222340
v 0.122311 -0.084926 -0.261376
v 0.094262 -0.093702 -0.288385
v 0.122311 -0.222340 -0.161540
v 0.094262 -0.245315 -0.178232
v 0.122311 -0.261376 -0.084926
v 0.094262 -0.288385 -0.093702
v 0.094262 -0.288385 0.093702
v 0.122311 -0.261376 0.084926
v 0.122311 -0.274827 0.000000
v 0.094262 -0.303226 0.000000
v 0.122311 -0.222340 0.161539
v 0.094262 -0.245315 0.178232
v 0.122311 -0.161539 0.222340
v 0.094262 -0.178232 0.245315
v 0.094262 0.000000 0.303226
v 0.122311 0.000000 0.274827
v 0.122311 -0.084926 0.261376
v 0.094262 -0.093702 0.288385
v 0.122311 0.084926 0.261376
v 0.094262 0.093702 0.288385
v 0.122311 0.161540 0.222340
v 0.094262 0.178232 0.245315
v 0.094262 0.288385 0.093702
v 0.122311 0.261376 0.084926
v 0.122311 0.222340 0.161539
v 0.094262 0.245315 0.178232
v 0.122311 0.274827 -0.000000
v 0.094262 0.303226 -0.000000
v 0.122311 0.261376 -0.084926
v 0.094262 0.288385 -0.093702
v 0.094262 0.245315 -0.178232
v 0.122311 0.222340 -0.161539
v 0.094262 0.178232 -0.245315
v 0.122311 0.161540 -0.222340
v -0.096253 0.140182 -0.052897
v -0.096253 0.153903 -0.000000
v -0.096253 0.108201 -0.056076
v -0.096253 0.070949 -0.025872
v -0.096253 0.060881 -0.000000
v -0.096253 0.107392 -0.000000
v -0.096253 0.140182 0.052897
v -0.096253 0.108201 0.056076
v -0.096253 0.070949 0.025872
v -0.096253 0.093627 0.116975
v -0.096252 0.047559 0.146371
v -0.096253 0.086768 0.085577
v -0.096253 0.046530 0.059482
v -0.096252 0.018813 0.057901
v -0.096252 0.033186 0.102136
v -0.096252 -0.006989 0.149667
v -0.096252 -0.019896 0.120234
v -0.096252 -0.002681 0.075471
v -0.096252 -0.082318 0.125191
v -0.096252 -0.124511 0.090462
v -0.096252 -0.054576 0.108966
v -0.096252 -0.042192 0.062634
v -0.096252 -0.049254 0.035785
v -0.096252 -0.086882 0.063124
v -0.096252 -0.144502 0.039603
v -0.096252 -0.120498 0.018232
v -0.096252 -0.072606 0.020772
v -0.096252 -0.144502 -0.039603
v -0.096252 -0.124511 -0.090462
v -0.096252 -0.120498 -0.018232
v -0.096252 -0.072606 -0.020772
v -0.096252 -0.049254 -0.035785
v -0.096252 -0.086882 -0.063124
v -0.096252 -0.082318 -0.125191
v -0.096252 -0.054576 -0.108966
v -0.096252 -0.042192 -0.062634
v -0.096252 -0.006989 -0.149667
v -0.096252 0.047559 -0.146371
v -0.096252 -0.019896 -0.120234
v -0.096252 -0.002681 -0.075471
v -0.096252 0.018813 -0.057901
v -0.096252 0.033186 -0.102136
v -0.096253 0.093627 -0.116975
v -0.096253 0.086768 -0.085577
v -0.096253 0.046530 -0.059482
v -0.087074 0.023277 -0.016912
v -0.087074 0.027364 -0.008891
v -0.087074 0.028772 -0.000000
v -0.087074 0.023277 0.016912
v -0.087074 0.027364 0.008891
v -0.087074 0.016912 0.023277
v -0.087074 0.008891 0.027364
v -0.087074 -0.008891 0.027364
v -0.087074 0.000000 0.028772
v -0.087074 -0.016912 0.023277
v -0.087074 -0.023277 0.016912
v -0.087074 -0.028772 0.000000
v -0.087074 -0.027364 0.008891
v -0.087074 -0.027364 -0.008891
v -0.087074 -0.023277 -0.016912
v -0.087074 -0.008891 -0.027364
v -0.087074 -0.016912 -0.023277
v -0.087074 -0.000000 -0.028772
v -0.087074 0.008891 -0.027364
v -0.087074 0.016912 -0.023277
v -0.087074 0.000000 0.000000
vn -1.0000 -0.0000 -0.0000
vn -0.9756 -0.1778 0.1291
vn -0.9756 -0.1291 0.1778
vn -0.9756 0.2090 -0.0679
vn -0.9756 0.1778 -0.1291
vn -0.9756 -0.1291 -0.1778
vn -0.9756 -0.1778 -0.1291
vn -0.9756 -0.0679 0.2090
vn -0.9756 0.2090 0.0679
vn -0.9756 0.2197 -0.0000
vn -0.9756 -0.0679 -0.2090
vn -0.9756 0.1778 0.1291
vn -0.9756 0.0679 -0.2090
vn -0.9756 -0.0000 -0.2197
vn -0.9756 0.0679 0.2090
vn -0.9756 0.1291 0.1778
vn -0.9756 -0.2090 0.0679
vn -0.9756 0.1291 -0.1778
vn -0.9756 -0.2197 -0.0000
vn -0.9756 -0.0000 0.2197
vn -0.9756 -0.2090 -0.0679
vn 1.0000 -0.0000 -0.0000
vn -0.7115 0.2171 -0.6683
vn -0.7115 0.4130 -0.5685
vn -0.7115 0.5685 -0.4130
vn -0.7115 -0.0000 -0.7027
vn -0.7115 -0.2171 -0.6683
vn -0.7115 -0.5685 -0.4130
vn -0.7115 -0.4130 -0.5685
vn -0.7115 -0.6683 -0.2171
vn -0.7115 -0.7027 -0.0000
vn -0.7115 -0.5685 0.4130
vn -0.7115 -0.6683 0.2171
vn -0.7115 -0.4130 0.5685
vn -0.7115 -0.2171 0.6683
vn -0.7115 0.2171 0.6683
vn -0.7115 -0.0000 0.7027
vn -0.7115 0.4130 0.5685
vn -0.7115 0.5685 0.4130
vn -0.7115 0.7027 -0.0000
vn -0.7115 0.6683 0.2171
vn -0.7115 0.6683 -0.2171
vn 0.7115 0.2171 -0.6683
vn 0.7115 0.4130 -0.5685
vn 0.7115 0.5685 -0.4130
vn 0.7115 -0.0000 -0.7027
vn 0.7115 -0.2171 -0.6683
vn 0.7115 -0.5685 -0.4130
vn 0.7115 -0.4130 -0.5685
vn 0.7115 -0.6683 -0.2171
vn 0.7115 -0.7027 -0.0000
vn 0.7115 -0.5685 0.4130
vn 0.7115 -0.6683 0.2171
vn 0.7115 -0.4130 0.5685
vn 0.7115 -0.2171 0.6683
vn 0.7115 0.2171 0.6683
vn 0.7115 -0.0000 0.7027
vn 0.7115 0.4130 0.5685
vn 0.7115 0.5685 0.4130
vn 0.7115 0.7027 -0.0000
vn 0.7115 0.6683 0.2171
vn 0.7115 0.6683 -0.2171
vn -0.0000 0.3090 -0.9511
vn -0.0000 0.5878 -0.8090
vn -0.9970 -0.0000 0.0776
vn -0.9970 -0.0240 0.0738
vn -0.9970 -0.0456 0.0628
vn -0.0000 -0.0000 -1.0000
vn -0.9970 0.0240 0.0738
vn -0.0000 -0.3090 -0.9511
vn -0.0000 -0.8090 -0.5878
vn -0.0000 -0.5878 -0.8090
vn -0.9970 0.0628 0.0456
vn -0.9970 0.0456 0.0628
vn -0.9970 0.0738 0.0240
vn -0.0000 -0.9511 -0.3090
vn -0.9970 0.0776 -0.0000
vn -0.0000 -1.0000 -0.0000
vn -0.0000 -0.8090 0.5878
vn -0.0000 -0.9511 0.3090
vn -0.9970 0.0628 -0.0456
vn -0.9970 0.0738 -0.0240
vn -0.9970 0.0456 -0.0628
vn -0.0000 -0.5878 0.8090
vn -0.9970 0.0240 -0.0738
vn -0.0000 -0.3090 0.9511
vn -0.0000 0.3090 0.9511
vn -0.0000 -0.0000 1.0000
vn -0.9970 -0.0240 -0.0738
vn -0.9970 -0.0000 -0.0776
vn -0.9970 -0.0456 -0.0628
vn -0.0000 0.5878 0.8090
vn -0.9970 -0.0628 -0.0456
vn -0.0000 0.8090 0.5878
vn -0.0000 1.0000 -0.0000
vn -0.0000 0.9511 0.3090
vn -0.9970 -0.0776 -0.0000
vn -0.9970 -0.0738 -0.0240
vn -0.9970 -0.0738 0.0240
vn -0.0000 0.9511 -0.3090
vn -0.9970 -0.0628 0.0456
vn -0.0000 0.8090 -0.5878
vt 0.000000 0.000000
s 1
usemtl empty.002
f 278/2/103 277/2/103 279/2/103 282/2/103
f 280/2/103 281/2/103 282/2/103 279/2/103
f 278/2/103 282/2/103 284/2/103 283/2/103
f 285/2/103 284/2/103 282/2/103 281/2/103
f 287/2/103 286/2/103 288/2/103 291/2/103
f 289/2/103 290/2/103 291/2/103 288/2/103
f 287/2/103 291/2/103 293/2/103 292/2/103
f 294/2/103 293/2/103 291/2/103 290/2/103
f 296/2/103 295/2/103 297/2/103 300/2/103
f 298/2/103 299/2/103 300/2/103 297/2/103
f 296/2/103 300/2/103 302/2/103 301/2/103
f 303/2/103 302/2/103 300/2/103 299/2/103
f 305/2/103 304/2/103 306/2/103 309/2/103
f 307/2/103 308/2/103 309/2/103 306/2/103
f 305/2/103 309/2/103 311/2/103 310/2/103
f 312/2/103 311/2/103 309/2/103 308/2/103
f 314/2/103 313/2/103 315/2/103 318/2/103
f 316/2/103 317/2/103 318/2/103 315/2/103
f 314/2/103 318/2/103 320/2/103 319/2/103
f 321/2/103 320/2/103 318/2/103 317/2/103
f 322/2/104 341/2/105 342/2/103
f 334/2/106 332/2/107 342/2/103
f 327/2/108 325/2/109 342/2/103
f 341/2/105 340/2/110 342/2/103
f 335/2/111 333/2/112 342/2/103
f 328/2/113 327/2/108 342/2/103
f 336/2/114 335/2/111 342/2/103
f 329/2/115 330/2/116 342/2/103
f 337/2/117 338/2/118 342/2/103
f 330/2/116 328/2/113 342/2/103
f 323/2/119 322/2/104 342/2/103
f 338/2/118 336/2/114 342/2/103
f 331/2/120 329/2/115 342/2/103
f 324/2/121 323/2/119 342/2/103
f 339/2/122 337/2/117 342/2/103
f 332/2/107 331/2/120 342/2/103
f 325/2/109 326/2/123 342/2/103
f 340/2/110 339/2/122 342/2/103
f 333/2/112 334/2/106 342/2/103
f 326/2/123 324/2/121 342/2/103
usemtl plastic.002
f 186/2/124 187/2/124 196/2/124
f 181/2/124 180/2/124 196/2/124
f 189/2/124 188/2/124 196/2/124
f 183/2/124 181/2/124 196/2/124
f 176/2/124 195/2/124 196/2/124
f 191/2/124 189/2/124 196/2/124
f 184/2/124 182/2/124 196/2/124
f 195/2/124 194/2/124 196/2/124
f 192/2/124 190/2/124 196/2/124
f 182/2/124 183/2/124 196/2/124
f 177/2/124 176/2/124 196/2/124
f 190/2/124 191/2/124 196/2/124
f 185/2/124 184/2/124 196/2/124
f 179/2/124 177/2/124 196/2/124
f 193/2/124 192/2/124 196/2/124
f 187/2/124 185/2/124 196/2/124
f 180/2/124 178/2/124 196/2/124
f 194/2/124 193/2/124 196/2/124
f 188/2/124 186/2/124 196/2/124
f 178/2/124 179/2/124 196/2/124
f 198/2/125 235/2/126 236/2/126 197/2/125
f 235/2/126 233/2/127 234/2/127 236/2/126
f 197/2/125 199/2/128 200/2/128 198/2/125
f 199/2/128 203/2/129 204/2/129 200/2/128
f 206/2/130 201/2/131 202/2/131 205/2/130
f 201/2/131 204/2/129 203/2/129 202/2/131
f 205/2/130 207/2/132 208/2/132 206/2/130
f 207/2/132 211/2/133 212/2/133 208/2/132
f 214/2/134 209/2/135 210/2/135 213/2/134
f 209/2/135 212/2/133 211/2/133 210/2/135
f 213/2/134 215/2/136 216/2/136 214/2/134
f 215/2/136 219/2/137 220/2/137 216/2/136
f 222/2/138 217/2/139 218/2/139 221/2/138
f 217/2/139 220/2/137 219/2/137 218/2/139
f 221/2/138 223/2/140 224/2/140 222/2/138
f 223/2/140 227/2/141 228/2/141 224/2/140
f 230/2/142 225/2/143 226/2/143 229/2/142
f 225/2/143 228/2/141 227/2/141 226/2/143
f 229/2/142 231/2/144 232/2/144 230/2/142
f 231/2/144 234/2/127 233/2/127 232/2/144
f 238/2/145 275/2/146 276/2/146 237/2/145
f 275/2/146 273/2/147 274/2/147 276/2/146
f 237/2/145 239/2/148 240/2/148 238/2/145
f 239/2/148 243/2/149 244/2/149 240/2/148
f 246/2/150 241/2/151 242/2/151 245/2/150
f 241/2/151 244/2/149 243/2/149 242/2/151
f 245/2/150 247/2/152 248/2/152 246/2/150
f 247/2/152 251/2/153 252/2/153 248/2/152
f 254/2/154 249/2/155 250/2/155 253/2/154
f 249/2/155 252/2/153 251/2/153 250/2/155
f 253/2/154 255/2/156 256/2/156 254/2/154
f 255/2/156 259/2/157 260/2/157 256/2/156
f 262/2/158 257/2/159 258/2/159 261/2/158
f 257/2/159 260/2/157 259/2/157 258/2/159
f 261/2/158 263/2/160 264/2/160 262/2/158
f 263/2/160 267/2/161 268/2/161 264/2/160
f 270/2/162 265/2/163 266/2/163 269/2/162
f 265/2/163 268/2/161 267/2/161 266/2/163
f 269/2/162 271/2/164 272/2/164 270/2/162
f 271/2/164 274/2/147 273/2/147 272/2/164
f 197/2/165 236/2/166 275/2/166 238/2/165
f 157/2/167 156/2/168 198/2/103 200/2/103
f 156/2/168 175/2/169 235/2/103 198/2/103
f 199/2/170 197/2/165 238/2/165 240/2/170
f 159/2/171 157/2/167 200/2/103 204/2/103
f 203/2/172 199/2/170 240/2/170 244/2/172
f 205/2/173 202/2/174 241/2/174 246/2/173
f 160/2/175 158/2/176 201/2/103 206/2/103
f 202/2/174 203/2/172 244/2/172 241/2/174
f 158/2/176 159/2/171 204/2/103 201/2/103
f 161/2/177 160/2/175 206/2/103 208/2/103
f 207/2/178 205/2/173 246/2/173 248/2/178
f 163/2/179 161/2/177 208/2/103 212/2/103
f 211/2/180 207/2/178 248/2/178 252/2/180
f 213/2/181 210/2/182 249/2/182 254/2/181
f 164/2/183 162/2/184 209/2/103 214/2/103
f 210/2/182 211/2/180 252/2/180 249/2/182
f 162/2/184 163/2/179 212/2/103 209/2/103
f 165/2/185 164/2/183 214/2/103 216/2/103
f 215/2/186 213/2/181 254/2/181 256/2/186
f 167/2/187 165/2/185 216/2/103 220/2/103
f 219/2/188 215/2/186 256/2/186 260/2/188
f 221/2/189 218/2/190 257/2/190 262/2/189
f 168/2/191 166/2/192 217/2/103 222/2/103
f 218/2/190 219/2/188 260/2/188 257/2/190
f 166/2/192 167/2/187 220/2/103 217/2/103
f 169/2/193 168/2/191 222/2/103 224/2/103
f 223/2/194 221/2/189 262/2/189 264/2/194
f 171/2/195 169/2/193 224/2/103 228/2/103
f 227/2/196 223/2/194 264/2/194 268/2/196
f 229/2/197 226/2/198 265/2/198 270/2/197
f 172/2/199 170/2/200 225/2/103 230/2/103
f 226/2/198 227/2/196 268/2/196 265/2/198
f 170/2/200 171/2/195 228/2/103 225/2/103
f 173/2/201 172/2/199 230/2/103 232/2/103
f 231/2/202 229/2/197 270/2/197 272/2/202
f 174/2/203 173/2/201 232/2/103 233/2/103
f 234/2/204 231/2/202 272/2/202 273/2/204
f 236/2/166 234/2/204 273/2/204 275/2/166
f 175/2/169 174/2/203 233/2/103 235/2/103
f 237/2/124 276/2/124 195/2/124 176/2/124
f 239/2/124 237/2/124 176/2/124 177/2/124
f 243/2/124 239/2/124 177/2/124 179/2/124
f 245/2/124 242/2/124 178/2/124 180/2/124
f 242/2/124 243/2/124 179/2/124 178/2/124
f 247/2/124 245/2/124 180/2/124 181/2/124
f 251/2/124 247/2/124 181/2/124 183/2/124
f 253/2/124 250/2/124 182/2/124 184/2/124
f 250/2/124 251/2/124 183/2/124 182/2/124
f 255/2/124 253/2/124 184/2/124 185/2/124
f 259/2/124 255/2/124 185/2/124 187/2/124
f 261/2/124 258/2/124 186/2/124 188/2/124
f 258/2/124 259/2/124 187/2/124 186/2/124
f 263/2/124 261/2/124 188/2/124 189/2/124
f 267/2/124 263/2/124 189/2/124 191/2/124
f 269/2/124 266/2/124 190/2/124 192/2/124
f 266/2/124 267/2/124 191/2/124 190/2/124
f 271/2/124 269/2/124 192/2/124 193/2/124
f 274/2/124 271/2/124 193/2/124 194/2/124
f 276/2/124 274/2/124 194/2/124 195/2/124
